<svg width="16" height="16" viewBox="0 0 16 16" fill="none" xmlns="http://www.w3.org/2000/svg">
<path d="M12.4726 6.47357C12.4107 6.41108 12.3369 6.36148 12.2557 6.32764C12.1745 6.29379 12.0873 6.27637 11.9993 6.27637C11.9113 6.27637 11.8242 6.29379 11.7429 6.32764C11.6617 6.36148 11.588 6.41108 11.526 6.47357L8.47264 9.5269C8.41066 9.58938 8.33693 9.63898 8.25569 9.67283C8.17445 9.70667 8.08731 9.7241 7.99931 9.7241C7.9113 9.7241 7.82416 9.70667 7.74292 9.67283C7.66168 9.63898 7.58795 9.58938 7.52597 9.5269L4.47268 6.47357C4.41068 6.41108 4.33698 6.36148 4.25568 6.32764C4.17448 6.29379 4.08728 6.27637 3.99928 6.27637C3.91128 6.27637 3.82418 6.29379 3.74288 6.32764C3.66168 6.36148 3.58798 6.41108 3.52598 6.47357C3.40178 6.59847 3.33208 6.76744 3.33208 6.94357C3.33208 7.11969 3.40178 7.28866 3.52598 7.41357L6.58597 10.4736C6.96097 10.8481 7.4693 11.0585 7.99931 11.0585C8.52931 11.0585 9.03764 10.8481 9.41264 10.4736L12.4726 7.41357C12.5968 7.28866 12.6665 7.11969 12.6665 6.94357C12.6665 6.76744 12.5968 6.59847 12.4726 6.47357Z" fill="black"/>
</svg>
