<svg width="16" height="16" viewBox="0 0 16 16" fill="none" xmlns="http://www.w3.org/2000/svg">
<path d="M12.4735 6.47332C12.4116 6.41084 12.3378 6.36124 12.2566 6.32739C12.1753 6.29355 12.0882 6.27612 12.0002 6.27612C11.9122 6.27612 11.8251 6.29355 11.7438 6.32739C11.6626 6.36124 11.5888 6.41084 11.5269 6.47332L8.47354 9.52666C8.41156 9.58914 8.33783 9.63874 8.25659 9.67258C8.17535 9.70643 8.08821 9.72385 8.0002 9.72385C7.91219 9.72385 7.82506 9.70643 7.74382 9.67258C7.66258 9.63874 7.58884 9.58914 7.52687 9.52666L4.47354 6.47332C4.41156 6.41084 4.33783 6.36124 4.25659 6.32739C4.17535 6.29355 4.08821 6.27612 4.0002 6.27612C3.91219 6.27612 3.82506 6.29355 3.74382 6.32739C3.66258 6.36124 3.58884 6.41084 3.52687 6.47332C3.4027 6.59823 3.33301 6.7672 3.33301 6.94332C3.33301 7.11945 3.4027 7.28841 3.52687 7.41332L6.58687 10.4733C6.96187 10.8479 7.4702 11.0582 8.0002 11.0582C8.5302 11.0582 9.03853 10.8479 9.41353 10.4733L12.4735 7.41332C12.5977 7.28841 12.6674 7.11945 12.6674 6.94332C12.6674 6.7672 12.5977 6.59823 12.4735 6.47332Z" fill="#818195"/>
</svg>
