<svg width="75" height="75" viewBox="0 0 75 75" fill="none" xmlns="http://www.w3.org/2000/svg">
<path fill-rule="evenodd" clip-rule="evenodd" d="M28.5711 6.65029L27.7844 13.1791C27.7338 13.5926 27.8592 13.9927 28.1349 14.3058C28.4137 14.6176 28.7959 14.7903 29.2134 14.7903H31.9928H42.156H44.9384C45.3557 14.7903 45.7369 14.619 46.0125 14.3072C46.2914 13.994 46.4153 13.5926 46.3658 13.1778L45.5778 6.6489C45.4911 5.92765 44.8765 5.38306 44.1499 5.38306H30.0017C29.2742 5.38306 28.6595 5.9277 28.5711 6.65029Z" fill="#3979F1"/>
<path fill-rule="evenodd" clip-rule="evenodd" d="M32.7637 16.3318L32.7638 19.8725H41.3854L41.3856 16.3318H32.7637Z" fill="#3979F1"/>
<path fill-rule="evenodd" clip-rule="evenodd" d="M28.8057 21.4141L28.8058 27.3915H45.3453V21.4141H42.1567H31.9934H28.8057Z" fill="#3979F1"/>
<path fill-rule="evenodd" clip-rule="evenodd" d="M24.9089 21.4141C21.9179 21.4141 19.4836 23.8481 19.4836 26.8403L19.484 35.4352C19.484 38.632 19.0287 41.8101 18.1308 44.8825L16.0566 51.9855C17.7146 51.7012 19.4209 51.9414 20.9797 52.6946L23.8461 54.0823H27.2636L27.264 21.4141L24.9089 21.4141Z" fill="#3979F1"/>
<path fill-rule="evenodd" clip-rule="evenodd" d="M12.9173 16.3069L11.6677 18.5923C11.5272 18.8513 11.3153 19.0649 11.0562 19.2064L8.76855 20.456L11.0562 21.7082C11.3157 21.8497 11.5263 22.0607 11.6676 22.3197L12.9173 24.6052L14.1669 22.3196C14.3086 22.0607 14.5192 21.8498 14.7781 21.7083L17.0673 20.456L14.7784 19.2064C14.5201 19.0649 14.3083 18.8514 14.1667 18.595L12.9173 16.3069Z" fill="#3979F1"/>
<path fill-rule="evenodd" clip-rule="evenodd" d="M60.2209 28.2758L57.9336 29.528L60.2212 30.7803C60.4808 30.9191 60.6906 31.1326 60.8323 31.3917L62.0824 33.6745L63.3319 31.3916C63.4737 31.1326 63.6838 30.9191 63.9428 30.7803L66.2311 29.528L63.9434 28.2758C63.6838 28.1369 63.4728 27.9234 63.3314 27.6643L62.0824 25.3789L60.8328 27.6643C60.6909 27.9233 60.4799 28.137 60.2209 28.2758Z" fill="#3979F1"/>
<path fill-rule="evenodd" clip-rule="evenodd" d="M46.8848 21.4141L46.8848 27.9464C46.9047 28.015 46.9155 28.0874 46.9155 28.1624C46.9155 28.2376 46.9048 28.3102 46.8848 28.3788L46.8849 33.5618H47.9754C48.94 33.5618 49.7405 34.2825 49.8653 35.2144H54.7263V26.8403C54.7263 23.8482 52.2923 21.4141 49.3015 21.4141L46.8848 21.4141Z" fill="#3979F1"/>
<path fill-rule="evenodd" clip-rule="evenodd" d="M43.4287 35.1033L43.4288 40.9751L46.0703 40.975C46.0854 40.9742 46.1005 40.9737 46.1158 40.9737C46.131 40.9737 46.1461 40.9742 46.1611 40.975H47.9758C48.177 40.975 48.3412 40.8118 48.3412 40.6098V40.0942L48.3413 35.994V35.9762V35.4686C48.3413 35.2665 48.1765 35.1033 47.9757 35.1033H46.1158H43.4287Z" fill="#3979F1"/>
<path fill-rule="evenodd" clip-rule="evenodd" d="M39.2217 33.4803L39.2222 42.5971C39.2222 43.3317 39.8198 43.9298 40.5547 43.9298C40.9107 43.9298 41.2463 43.7907 41.4979 43.5392C41.7494 43.2876 41.8872 42.953 41.8872 42.5971V41.7894L41.886 41.746L41.8872 41.7033L41.8874 34.3782C41.8865 34.3631 41.886 34.3479 41.886 34.3327C41.886 34.3175 41.8865 34.3024 41.8874 34.2875V33.4803C41.8874 32.7456 41.2891 32.1475 40.5548 32.1475C39.8201 32.1475 39.2217 32.7456 39.2217 33.4803Z" fill="#3979F1"/>
<path fill-rule="evenodd" clip-rule="evenodd" d="M28.8057 28.9331L28.806 54.0823H45.3452V42.5167H43.429V42.597C43.429 44.1813 42.1403 45.4713 40.5548 45.4713C38.9706 45.4713 37.6802 44.1813 37.6802 42.597L37.6807 33.4802C37.6807 31.8958 38.9702 30.6058 40.5545 30.6058C42.1403 30.6058 43.4288 31.8958 43.4288 33.4802V33.5618H45.3452V28.9332L28.8057 28.9331Z" fill="#3979F1"/>
<path fill-rule="evenodd" clip-rule="evenodd" d="M60.2002 54.0222L60.2003 66.3305C60.45 66.1793 60.6975 66.0229 60.9415 65.8622C62.9009 64.5722 64.0702 62.4031 64.0702 60.0587C64.0703 57.4081 62.5509 55.0946 60.2002 54.0222Z" fill="#3979F1"/>
<path fill-rule="evenodd" clip-rule="evenodd" d="M56.0943 41.928L56.0949 68.3337C56.0949 68.5352 56.1404 68.7282 56.2267 68.9024C56.2348 68.9168 56.2425 68.9315 56.2497 68.9466C56.3145 69.0652 56.3988 69.1743 56.5011 69.2704C56.762 69.5153 57.1047 69.6384 57.4647 69.6143C58.1338 69.5702 58.6582 68.976 58.6582 68.2615L58.6584 40.4494C58.6584 38.5814 57.2657 37.0334 55.4646 36.7897C55.43 36.7878 55.3959 36.7836 55.3626 36.7773C55.2328 36.7634 55.101 36.7561 54.9676 36.7561H49.8828L49.8829 39.3227H53.4881C54.9249 39.3227 56.0943 40.4909 56.0943 41.928Z" fill="#3979F1"/>
<path fill-rule="evenodd" clip-rule="evenodd" d="M51.9473 55.3361L51.9476 69.3408C52.8367 69.2016 53.7194 69.0094 54.5863 68.766C54.564 68.6236 54.5525 68.4791 54.5525 68.3336L54.5529 54.0752L54.5379 54.0824L51.9473 55.3361Z" fill="#3979F1"/>
<path fill-rule="evenodd" clip-rule="evenodd" d="M46.1158 55.6238H28.035H24.4404L24.4405 61.8489H50.406L50.4061 55.6238H46.1158Z" fill="#3979F1"/>
<path fill-rule="evenodd" clip-rule="evenodd" d="M50.4059 63.3904H24.4404L24.4406 69.529C25.102 69.5872 25.7674 69.6168 26.4287 69.6168H48.4188C49.0788 69.6168 49.7448 69.5872 50.4057 69.529L50.4059 63.3904Z" fill="#3979F1"/>
<path fill-rule="evenodd" clip-rule="evenodd" d="M15.1934 53.8011C12.5113 54.7654 10.7783 57.2214 10.7783 60.0585C10.7785 61.2066 11.066 62.3466 11.6093 63.3543C12.1545 64.3632 12.9474 65.2304 13.9055 65.862C16.6086 67.644 19.7017 68.8374 22.8993 69.3403L22.8994 62.6308L22.8993 62.6196L22.8994 62.6084L22.8996 55.3353L20.3091 54.0822C18.69 53.2981 16.8705 53.2003 15.1934 53.8011Z" fill="#3979F1"/>
<path fill-rule="evenodd" clip-rule="evenodd" d="M46.8848 42.5167L46.8849 54.0822H51.0001L53.8664 52.6946C54.0925 52.5856 54.3217 52.487 54.5526 52.3998L54.5529 41.9278C54.5529 41.3417 54.0747 40.864 53.4872 40.864H49.8654C49.7407 41.7959 48.9397 42.5166 47.9754 42.5166L46.8848 42.5167Z" fill="#3979F1"/>
</svg>
