<svg width="72" height="72" viewBox="0 0 72 72" fill="none" xmlns="http://www.w3.org/2000/svg">
<path d="M50.2446 41.9279H52.6294C53.3418 41.9224 54.0232 41.6356 54.525 41.1299C55.0269 40.6242 55.3085 39.9406 55.3084 39.2282C55.3084 38.5157 55.0268 37.8322 54.5249 37.3265C54.0231 36.8208 53.3417 36.534 52.6293 36.5286C51.3181 36.5928 48.7825 36.2689 47.6462 36.9897C45.8907 33.4597 45.6047 27.8269 40.7622 27.7659L19.9972 27.7659C15.165 27.82 14.8714 33.4632 13.1129 36.9897C12.545 36.6874 11.9116 36.5291 11.2683 36.5286H8.12989C7.41721 36.5336 6.73543 36.8203 6.23327 37.326C5.7311 37.8318 5.44929 38.5156 5.4493 39.2283C5.44931 39.941 5.73114 40.6247 6.23331 41.1305C6.73549 41.6362 7.41728 41.9228 8.12996 41.9279H10.5147C8.86837 43.8469 4.28553 46.1398 4.50781 49.2393L4.50788 57.2035C4.51424 58.4724 5.02114 59.6876 5.91842 60.5849C6.8157 61.4821 8.03085 61.989 9.29978 61.9954H17.7925L19.7272 57.811C19.8158 57.6167 19.9582 57.4519 20.1377 57.3362C20.3172 57.2206 20.5261 57.1589 20.7396 57.1585H40.1546C40.3753 57.1592 40.5909 57.2246 40.7749 57.3466C40.9588 57.4685 41.1029 57.6417 41.1895 57.8447L42.9668 61.9954H51.4594C52.7283 61.9889 53.9434 61.482 54.8406 60.5847C55.7379 59.6875 56.2448 58.4724 56.2513 57.2035L56.2513 49.2395C56.2543 48.6011 56.1202 47.9695 55.8583 47.3874C55.5963 46.8053 55.2125 46.2861 54.7328 45.8649C53.1131 44.5263 51.3133 42.9515 50.2446 41.9279ZM17.6462 31.5792C17.8377 31.114 18.1638 30.7166 18.5827 30.438C19.0015 30.1594 19.4941 30.0123 19.9972 30.0157H40.7621C41.2596 30.0111 41.7473 30.1539 42.1637 30.4261C42.5801 30.6984 42.9066 31.0879 43.1019 31.5455C43.3494 32.1866 47.0838 41.4555 47.1401 41.5117H13.6193C13.6755 41.4555 17.3988 32.2092 17.6462 31.5792ZM13.653 50.5556H9.41226C9.11701 50.5509 8.83543 50.4304 8.62829 50.2199C8.42114 50.0095 8.30505 49.726 8.30505 49.4308C8.30505 49.1355 8.42114 48.852 8.62829 48.6416C8.83543 48.4311 9.11701 48.3106 9.41226 48.3059H13.653C13.9483 48.3106 14.2298 48.4311 14.437 48.6416C14.6441 48.852 14.7602 49.1355 14.7602 49.4308C14.7602 49.726 14.6441 50.0095 14.437 50.2199C14.2298 50.4304 13.9483 50.5509 13.653 50.5556ZM42.6181 50.5556H18.1524C17.8572 50.5509 17.5756 50.4304 17.3685 50.2199C17.1613 50.0095 17.0452 49.726 17.0452 49.4308C17.0452 49.1355 17.1613 48.852 17.3685 48.6416C17.5756 48.4311 17.8572 48.3106 18.1524 48.3059H42.6181C42.9134 48.3106 43.195 48.4311 43.4021 48.6416C43.6092 48.852 43.7253 49.1355 43.7253 49.4308C43.7253 49.726 43.6092 50.0095 43.4021 50.2199C43.195 50.4304 42.9134 50.5509 42.6181 50.5556ZM51.347 50.5556H47.1176C46.8198 50.5547 46.5346 50.4357 46.3245 50.2249C46.1143 50.014 45.9963 49.7285 45.9963 49.4308C45.9963 49.133 46.1143 48.8475 46.3245 48.6366C46.5346 48.4258 46.8198 48.3068 47.1176 48.3059H51.347C51.6423 48.3106 51.9239 48.4311 52.131 48.6416C52.3382 48.852 52.4543 49.1355 52.4543 49.4308C52.4543 49.726 52.3382 50.0095 52.131 50.2199C51.9239 50.4304 51.6423 50.5509 51.347 50.5556Z" fill="#3979F1"/>
<path d="M21.4591 59.408L20.2666 61.9955H40.5256L39.4119 59.408H21.4591Z" fill="#3979F1"/>
<path d="M5.41895 63.0754V64.5377C5.4199 65.3221 5.73189 66.074 6.28649 66.6286C6.84109 67.1832 7.59302 67.4952 8.37734 67.4961H13.8779C14.2908 67.4931 14.6986 67.4046 15.0756 67.2363C15.4526 67.068 15.7906 66.8235 16.0685 66.5181C16.3464 66.2127 16.5581 65.8532 16.6902 65.462C16.8224 65.0709 16.8721 64.6566 16.8363 64.2453H9.29972C7.91932 64.2449 6.56958 63.838 5.41895 63.0754Z" fill="#3979F1"/>
<path d="M43.9229 64.2452V64.5377C43.9238 65.3221 44.2358 66.074 44.7904 66.6286C45.345 67.1832 46.0969 67.4952 46.8812 67.4961H52.3818C53.1661 67.4952 53.9181 67.1832 54.4727 66.6286C55.0273 66.074 55.3392 65.3221 55.3402 64.5377V63.0754C54.189 63.8368 52.8396 64.2436 51.4594 64.2453L43.9229 64.2452Z" fill="#3979F1"/>
<path d="M55.1258 21.9387C57.9211 21.9387 60.1872 19.6726 60.1872 16.8773C60.1872 14.082 57.9211 11.8159 55.1258 11.8159C52.3305 11.8159 50.0645 14.082 50.0645 16.8773C50.0645 19.6726 52.3305 21.9387 55.1258 21.9387Z" fill="#3979F1"/>
<path d="M55.1268 9.56588C55.2746 9.56597 55.4209 9.53693 55.5574 9.48043C55.6939 9.42393 55.8179 9.34108 55.9224 9.23661C56.0269 9.13214 56.1097 9.0081 56.1662 8.87159C56.2227 8.73508 56.2518 8.58877 56.2517 8.44103V5.62888C56.2507 5.33116 56.1318 5.04596 55.921 4.83578C55.7101 4.62559 55.4245 4.50757 55.1268 4.50757C54.8291 4.50757 54.5435 4.62559 54.3327 4.83578C54.1218 5.04596 54.0029 5.33116 54.002 5.62888V8.44103C54.0019 8.58877 54.0309 8.73508 54.0874 8.87159C54.1439 9.0081 54.2268 9.13214 54.3312 9.23661C54.4357 9.34108 54.5597 9.42393 54.6963 9.48043C54.8328 9.53693 54.9791 9.56597 55.1268 9.56588Z" fill="#3979F1"/>
<path d="M48.3656 11.7067C48.5767 11.9168 48.8625 12.0347 49.1604 12.0344C49.4583 12.0341 49.7439 11.9156 49.9545 11.705C50.1651 11.4943 50.2836 11.2087 50.2839 10.9109C50.2842 10.613 50.1664 10.3271 49.9562 10.116L47.9679 8.12778C47.757 7.91684 47.4709 7.79834 47.1726 7.79834C46.8743 7.79834 46.5882 7.91684 46.3773 8.12777C46.1664 8.3387 46.0479 8.62478 46.0479 8.92308C46.0478 9.22138 46.1663 9.50747 46.3773 9.7184L48.3656 11.7067Z" fill="#3979F1"/>
<path d="M43.8784 18.0022H46.6906C46.8386 18.0026 46.9852 17.9739 47.1221 17.9176C47.259 17.8612 47.3834 17.7785 47.4883 17.674C47.5931 17.5695 47.6763 17.4453 47.733 17.3086C47.7898 17.1719 47.819 17.0253 47.819 16.8773C47.819 16.7293 47.7898 16.5827 47.733 16.446C47.6763 16.3093 47.5931 16.1852 47.4883 16.0807C47.3834 15.9762 47.259 15.8934 47.1221 15.837C46.9852 15.7807 46.8386 15.752 46.6906 15.7524H43.8784C43.7304 15.752 43.5837 15.7807 43.4469 15.837C43.31 15.8934 43.1856 15.9762 43.0807 16.0807C42.9759 16.1852 42.8927 16.3093 42.836 16.446C42.7792 16.5827 42.75 16.7293 42.75 16.8773C42.75 17.0253 42.7792 17.1719 42.836 17.3086C42.8927 17.4453 42.9759 17.5695 43.0807 17.674C43.1856 17.7785 43.31 17.8612 43.4469 17.9176C43.5837 17.9739 43.7304 18.0026 43.8784 18.0022Z" fill="#3979F1"/>
<path d="M48.3654 22.0479L46.377 24.0362C46.2722 24.1406 46.189 24.2646 46.1322 24.4011C46.0754 24.5377 46.0461 24.6841 46.0459 24.832C46.0457 24.9799 46.0748 25.1264 46.1313 25.2631C46.1878 25.3998 46.2707 25.524 46.3753 25.6285C46.4799 25.7331 46.6041 25.8161 46.7408 25.8726C46.8775 25.9291 47.0239 25.9581 47.1718 25.958C47.3198 25.9578 47.4662 25.9285 47.6027 25.8717C47.7393 25.8148 47.8633 25.7316 47.9677 25.6268L49.9559 23.6385C50.0604 23.5341 50.1432 23.4101 50.1998 23.2737C50.2563 23.1372 50.2854 22.9909 50.2854 22.8432C50.2854 22.6955 50.2563 22.5493 50.1998 22.4128C50.1432 22.2764 50.0604 22.1524 49.9559 22.0479C49.8515 21.9435 49.7275 21.8606 49.5911 21.8041C49.4546 21.7476 49.3083 21.7185 49.1606 21.7185C49.0129 21.7185 48.8667 21.7476 48.7302 21.8041C48.5938 21.8606 48.4698 21.9435 48.3654 22.0479Z" fill="#3979F1"/>
<path d="M55.1268 24.189C54.9791 24.1889 54.8328 24.2179 54.6963 24.2744C54.5597 24.3309 54.4357 24.4138 54.3312 24.5182C54.2268 24.6227 54.1439 24.7467 54.0874 24.8833C54.0309 25.0198 54.0019 25.1661 54.002 25.3138V28.126C54.0029 28.4237 54.1218 28.7089 54.3327 28.9191C54.5435 29.1293 54.8291 29.2473 55.1268 29.2473C55.4245 29.2473 55.7101 29.1293 55.921 28.9191C56.1318 28.7089 56.2507 28.4237 56.2517 28.126V25.3138C56.2518 25.1661 56.2227 25.0198 56.1662 24.8833C56.1097 24.7467 56.0269 24.6227 55.9224 24.5182C55.8179 24.4138 55.6939 24.3309 55.5574 24.2744C55.4209 24.2179 55.2746 24.1889 55.1268 24.189Z" fill="#3979F1"/>
<path d="M61.8876 22.0479C61.7832 21.9431 61.6592 21.8599 61.5227 21.8031C61.3861 21.7463 61.2397 21.717 61.0918 21.7168C60.9439 21.7166 60.7974 21.7457 60.6607 21.8022C60.524 21.8587 60.3998 21.9416 60.2953 22.0462C60.1907 22.1508 60.1077 22.275 60.0512 22.4117C59.9947 22.5484 59.9657 22.6948 59.9658 22.8427C59.966 22.9907 59.9953 23.1371 60.0521 23.2736C60.109 23.4102 60.1922 23.5342 60.297 23.6386L62.2852 25.6268C62.3896 25.7317 62.5136 25.8149 62.6502 25.8717C62.7867 25.9285 62.9332 25.9578 63.0811 25.958C63.229 25.9581 63.3755 25.9291 63.5121 25.8726C63.6488 25.8161 63.773 25.7331 63.8776 25.6286C63.9822 25.524 64.0651 25.3998 64.1216 25.2631C64.1782 25.1264 64.2072 24.9799 64.207 24.832C64.2068 24.6841 64.1775 24.5377 64.1207 24.4011C64.0639 24.2646 63.9807 24.1406 63.8759 24.0362L61.8876 22.0479Z" fill="#3979F1"/>
<path d="M66.3751 15.7524H63.563C63.415 15.752 63.2683 15.7807 63.1314 15.837C62.9945 15.8934 62.8701 15.9762 62.7653 16.0806C62.6605 16.1851 62.5773 16.3093 62.5205 16.446C62.4638 16.5827 62.4346 16.7293 62.4346 16.8773C62.4346 17.0253 62.4638 17.1719 62.5205 17.3086C62.5773 17.4453 62.6605 17.5695 62.7653 17.674C62.8701 17.7785 62.9945 17.8612 63.1314 17.9176C63.2683 17.9739 63.415 18.0026 63.563 18.0022H66.3751C66.6729 18.0012 66.9581 17.8823 67.1682 17.6714C67.3784 17.4606 67.4965 17.175 67.4965 16.8773C67.4965 16.5796 67.3784 16.294 67.1682 16.0832C66.9581 15.8723 66.6729 15.7534 66.3751 15.7524Z" fill="#3979F1"/>
<path d="M61.0925 12.0362C61.2402 12.0364 61.3865 12.0074 61.523 11.9508C61.6595 11.8943 61.7835 11.8113 61.8878 11.7067L63.876 9.7184C63.9809 9.61404 64.0641 9.49003 64.1209 9.35348C64.1777 9.21692 64.207 9.0705 64.2072 8.92259C64.2074 8.77468 64.1783 8.6282 64.1218 8.49152C64.0653 8.35484 63.9824 8.23065 63.8778 8.12606C63.7732 8.02148 63.649 7.93854 63.5123 7.88202C63.3756 7.82549 63.2292 7.79647 63.0812 7.79663C62.9333 7.79679 62.7869 7.82612 62.6504 7.88294C62.5138 7.93977 62.3898 8.02296 62.2854 8.12778L60.2971 10.1161C60.1399 10.2734 60.0328 10.4738 59.9894 10.692C59.946 10.9101 59.9683 11.1363 60.0534 11.3418C60.1385 11.5473 60.2827 11.723 60.4676 11.8466C60.6526 11.9702 60.87 12.0362 61.0925 12.0362Z" fill="#3979F1"/>
</svg>
