<svg width="64" height="64" viewBox="0 0 64 64" fill="none" xmlns="http://www.w3.org/2000/svg">
<path d="M16.0803 50.1201C15.3281 50.1211 14.5932 50.345 13.9682 50.7635C13.3432 51.1819 12.8563 51.7762 12.569 52.4713C12.2816 53.1664 12.2067 53.931 12.3536 54.6687C12.5006 55.4063 12.8629 56.0838 13.3947 56.6157C13.9266 57.1475 14.6041 57.5098 15.3417 57.6568C16.0794 57.8037 16.844 57.7288 17.5391 57.4414C18.2341 57.1541 18.8285 56.6671 19.2469 56.0422C19.6654 55.4172 19.8893 54.6822 19.8903 53.9301C19.8895 52.9199 19.4878 51.9513 18.7735 51.2369C18.0591 50.5226 17.0905 50.1209 16.0803 50.1201ZM16.0803 55.7301C15.7233 55.7291 15.3746 55.6223 15.0783 55.4231C14.782 55.224 14.5515 54.9414 14.4158 54.6112C14.2801 54.281 14.2453 53.918 14.3159 53.5681C14.3866 53.2181 14.5594 52.897 14.8125 52.6453C15.0656 52.3935 15.3877 52.2225 15.738 52.1538C16.0884 52.0852 16.4512 52.1219 16.7806 52.2594C17.1101 52.397 17.3913 52.6291 17.5889 52.9265C17.7864 53.2239 17.8913 53.5731 17.8903 53.9301C17.8896 54.1672 17.8423 54.4017 17.751 54.6205C17.6596 54.8392 17.5261 55.0378 17.3581 55.205C17.19 55.3721 16.9906 55.5045 16.7714 55.5946C16.5522 55.6847 16.3173 55.7308 16.0803 55.7301Z" fill="#3979F1"/>
<path d="M47.1 50.1201C46.3475 50.1191 45.6115 50.3413 44.9853 50.7586C44.359 51.1759 43.8705 51.7695 43.5816 52.4644C43.2927 53.1593 43.2163 53.9242 43.3622 54.6625C43.508 55.4008 43.8695 56.0793 44.401 56.6121C44.9324 57.145 45.6099 57.5082 46.3478 57.656C47.0857 57.8038 47.8509 57.7295 48.5465 57.4424C49.2422 57.1553 49.8371 56.6684 50.256 56.0432C50.6749 55.418 50.899 54.6827 50.9 53.9301C50.8987 52.9218 50.4983 51.955 49.7862 51.241C49.0741 50.5271 48.1084 50.1241 47.1 50.1201ZM47.1 55.7301C46.7426 55.7311 46.393 55.626 46.0954 55.428C45.7978 55.2301 45.5656 54.9482 45.4284 54.6182C45.2912 54.2882 45.255 53.9248 45.3245 53.5742C45.394 53.2236 45.566 52.9015 45.8187 52.6488C46.0715 52.3961 46.3935 52.2241 46.7441 52.1546C47.0947 52.0851 47.4581 52.1212 47.7881 52.2585C48.1181 52.3957 48.4 52.6278 48.5979 52.9254C48.7959 53.223 48.901 53.5727 48.9 53.9301C48.8982 54.4069 48.708 54.8637 48.3708 55.2009C48.0336 55.538 47.5769 55.7283 47.1 55.7301Z" fill="#3979F1"/>
<path d="M59.2602 49.0001H58.3702C58.1214 46.8845 57.1058 44.9336 55.5154 43.5164C53.925 42.0993 51.8704 41.3143 49.7402 41.3101H43.3202C36.0902 35.5101 29.6002 34.0001 24.6102 34.1101C24.5181 34.0733 24.4193 34.0563 24.3202 34.0601C24.1998 34.0572 24.0803 34.0811 23.9702 34.1301C20.6781 34.2505 17.4665 35.1813 14.6202 36.8401C14.5831 36.8708 14.5429 36.8976 14.5002 36.9201L9.20024 40.3001H4.74024C4.47503 40.3001 4.22067 40.4054 4.03314 40.593C3.8456 40.7805 3.74024 41.0349 3.74024 41.3001V48.4801C3.73811 49.9034 4.15014 51.2966 4.92609 52.4898C5.70203 53.6831 6.80838 54.6247 8.11024 55.2001C8.40601 57.0417 9.32967 58.7244 10.7246 59.9627C12.1195 61.2009 13.8998 61.9186 15.7635 61.994C17.6272 62.0693 19.4596 61.4977 20.95 60.3761C22.4403 59.2544 23.4968 57.6518 23.9402 55.8401H39.2402C39.6706 57.5972 40.678 59.1591 42.1012 60.2759C43.5245 61.3926 45.2812 61.9995 47.0902 61.9995C48.8993 61.9995 50.656 61.3926 52.0793 60.2759C53.5025 59.1591 54.5099 57.5972 54.9402 55.8401H59.2602C59.5255 55.8401 59.7798 55.7347 59.9674 55.5472C60.1549 55.3597 60.2602 55.1053 60.2602 54.8401V50.0001C60.2602 49.7349 60.1549 49.4805 59.9674 49.293C59.7798 49.1054 59.5255 49.0001 59.2602 49.0001ZM40.0102 41.3101H25.3202V36.0301C29.3102 36.0701 34.3402 37.3201 40.0102 41.3101ZM23.3202 36.1001V40.7001L17.2402 37.6901C19.158 36.8078 21.216 36.2696 23.3202 36.1001ZM16.0802 60.0001C14.5777 59.9994 13.1288 59.4419 12.0133 58.4354C10.8978 57.4288 10.1948 56.0446 10.0402 54.5501C10.0317 54.4771 10.0283 54.4036 10.0302 54.3301C10.0136 54.1974 10.0069 54.0637 10.0102 53.9301C10.0102 52.3189 10.6503 50.7737 11.7896 49.6344C12.9289 48.4951 14.4741 47.8551 16.0852 47.8551C17.6964 47.8551 19.2416 48.4951 20.3809 49.6344C21.5202 50.7737 22.1602 52.3189 22.1602 53.9301C22.1622 54.1541 22.1488 54.3779 22.1202 54.6001C22.1185 54.6572 22.1118 54.7141 22.1002 54.7701C22.1019 54.7939 22.0984 54.8177 22.0902 54.8401C21.8698 56.2762 21.1426 57.5859 20.0402 58.5324C18.9379 59.4788 17.5332 59.9995 16.0802 60.0001ZM47.1002 60.0001C45.6473 59.9995 44.2426 59.4788 43.1403 58.5324C42.0379 57.5859 41.3107 56.2762 41.0902 54.8401C41.082 54.8177 41.0786 54.7939 41.0802 54.7701C41.0687 54.7141 41.062 54.6572 41.0602 54.6001C41.0317 54.3779 41.0183 54.1541 41.0202 53.9301C41.0202 52.3189 41.6603 50.7737 42.7996 49.6344C43.9389 48.4951 45.4841 47.8551 47.0952 47.8551C48.7064 47.8551 50.2516 48.4951 51.3909 49.6344C52.5302 50.7737 53.1702 52.3189 53.1702 53.9301C53.1722 54.1674 53.1588 54.4045 53.1302 54.6401C52.953 56.1157 52.2418 57.4754 51.131 58.4628C50.0202 59.4502 48.5865 59.997 47.1002 60.0001Z" fill="#3979F1"/>
<path d="M53.9891 9.407C54.2269 10.1326 54.7157 10.7496 55.3675 11.1473C56.0194 11.545 56.7916 11.6973 57.5457 11.5768C58.2997 11.4564 58.9861 11.0711 59.4816 10.4901C59.9771 9.90916 60.2493 9.17058 60.2493 8.407C60.2493 7.64342 59.9771 6.90484 59.4816 6.32388C58.9861 5.74292 58.2997 5.35763 57.5457 5.23719C56.7916 5.11674 56.0194 5.26903 55.3675 5.66671C54.7157 6.06439 54.2269 6.68142 53.9891 7.407H42.0901V5.4H46.7901C47.0553 5.4 47.3096 5.29464 47.4972 5.10711C47.6847 4.91957 47.7901 4.66522 47.7901 4.4C47.7901 4.13478 47.6847 3.88043 47.4972 3.69289C47.3096 3.50536 47.0553 3.4 46.7901 3.4H42.0901V3C42.0901 2.73478 41.9847 2.48043 41.7972 2.29289C41.6096 2.10536 41.3553 2 41.0901 2H22.9101C22.6448 2 22.3905 2.10536 22.2029 2.29289C22.0154 2.48043 21.9101 2.73478 21.9101 3V3.4H17.2101C16.9448 3.4 16.6905 3.50536 16.5029 3.69289C16.3154 3.88043 16.2101 4.13478 16.2101 4.4C16.2101 4.66522 16.3154 4.91957 16.5029 5.10711C16.6905 5.29464 16.9448 5.4 17.2101 5.4H21.9101V7.407H10.0101C9.77218 6.68142 9.28344 6.06439 8.63159 5.66671C7.97974 5.26903 7.20747 5.11674 6.45345 5.23719C5.69943 5.35763 5.01304 5.74292 4.51751 6.32388C4.02199 6.90484 3.74979 7.64342 3.74979 8.407C3.74979 9.17058 4.02199 9.90916 4.51751 10.4901C5.01304 11.0711 5.69943 11.4564 6.45345 11.5768C7.20747 11.6973 7.97974 11.545 8.63159 11.1473C9.28344 10.7496 9.77218 10.1326 10.0101 9.407H21.9101V11.448H17.2101C16.9448 11.448 16.6905 11.5534 16.5029 11.7409C16.3154 11.9284 16.2101 12.1828 16.2101 12.448C16.2101 12.7132 16.3154 12.9676 16.5029 13.1551C16.6905 13.3426 16.9448 13.448 17.2101 13.448H21.9101V15.033H14.7661C14.5008 15.033 14.2465 15.1384 14.0589 15.3259C13.8714 15.5134 13.7661 15.7678 13.7661 16.033V31.455H10.0081C9.77251 30.7275 9.28537 30.1078 8.63408 29.7071C7.98279 29.3064 7.20999 29.1509 6.45442 29.2686C5.69886 29.3864 5.00999 29.7695 4.51147 30.3494C4.01296 30.9292 3.73745 31.6678 3.7344 32.4325C3.73135 33.1972 4.00096 33.9379 4.49483 34.5217C4.9887 35.1055 5.67448 35.4942 6.42909 35.6179C7.1837 35.7417 7.9577 35.5924 8.61217 35.1969C9.26664 34.8014 9.75871 34.1856 10.0001 33.46V33.455H14.7651C15.0303 33.455 15.2846 33.3496 15.4722 33.1621C15.6597 32.9746 15.7651 32.7202 15.7651 32.455V17.033H21.9101V18.746H17.8281C17.5628 18.746 17.3085 18.8514 17.1209 19.0389C16.9334 19.2264 16.8281 19.4808 16.8281 19.746C16.8281 20.0112 16.9334 20.2656 17.1209 20.4531C17.3085 20.6406 17.5628 20.746 17.8281 20.746H21.9101V21.18C21.9101 21.4452 22.0154 21.6996 22.2029 21.8871C22.3905 22.0746 22.6448 22.18 22.9101 22.18H23.6691V25.78H17.8281C17.5628 25.78 17.3085 25.8854 17.1209 26.0729C16.9334 26.2604 16.8281 26.5148 16.8281 26.78C16.8281 27.0452 16.9334 27.2996 17.1209 27.4871C17.3085 27.6746 17.5628 27.78 17.8281 27.78H24.6691C24.9343 27.78 25.1886 27.6746 25.3762 27.4871C25.5637 27.2996 25.6691 27.0452 25.6691 26.78V22.18H27.4491V25.952C27.4491 26.2172 27.5544 26.4716 27.7419 26.6591C27.9295 26.8466 28.1838 26.952 28.4491 26.952C28.7143 26.952 28.9686 26.8466 29.1562 26.6591C29.3437 26.4716 29.4491 26.2172 29.4491 25.952V22.18H31.0001V29.471C31.0001 29.7362 31.1054 29.9906 31.2929 30.1781C31.4805 30.3656 31.7348 30.471 32.0001 30.471C32.2653 30.471 32.5196 30.3656 32.7072 30.1781C32.8947 29.9906 33.0001 29.7362 33.0001 29.471V22.18H34.7791V25.952C34.7791 26.2172 34.8844 26.4716 35.0719 26.6591C35.2595 26.8466 35.5138 26.952 35.7791 26.952C36.0443 26.952 36.2986 26.8466 36.4862 26.6591C36.6737 26.4716 36.7791 26.2172 36.7791 25.952V22.18H38.5591V26.78C38.5591 27.0452 38.6644 27.2996 38.8519 27.4871C39.0395 27.6746 39.2938 27.78 39.5591 27.78H46.4001C46.6653 27.78 46.9196 27.6746 47.1072 27.4871C47.2947 27.2996 47.4001 27.0452 47.4001 26.78C47.4001 26.5148 47.2947 26.2604 47.1072 26.0729C46.9196 25.8854 46.6653 25.78 46.4001 25.78H40.5591V22.18H41.0901C41.3553 22.18 41.6096 22.0746 41.7972 21.8871C41.9847 21.6996 42.0901 21.4452 42.0901 21.18V20.746H46.1721C46.4373 20.746 46.6916 20.6406 46.8792 20.4531C47.0667 20.2656 47.1721 20.0112 47.1721 19.746C47.1721 19.4808 47.0667 19.2264 46.8792 19.0389C46.6916 18.8514 46.4373 18.746 46.1721 18.746H42.0901V17.033H48.2341V32.455C48.2341 32.7202 48.3394 32.9746 48.5269 33.1621C48.7145 33.3496 48.9688 33.455 49.2341 33.455H54.0001V33.46C54.2413 34.1828 54.7322 34.7961 55.3847 35.1897C56.0372 35.5833 56.8086 35.7315 57.5605 35.6078C58.3124 35.4841 58.9956 35.0966 59.4876 34.5147C59.9796 33.9328 60.2482 33.1946 60.2452 32.4326C60.2421 31.6705 59.9677 30.9345 59.4711 30.3566C58.9744 29.7786 58.2881 29.3965 57.5352 29.2788C56.7824 29.1611 56.0122 29.3155 55.3628 29.7143C54.7135 30.1131 54.2275 30.7303 53.9921 31.455H50.2341V16.033C50.2341 15.7678 50.1287 15.5134 49.9412 15.3259C49.7536 15.1384 49.4993 15.033 49.2341 15.033H42.0901V13.448H46.7901C47.0553 13.448 47.3096 13.3426 47.4972 13.1551C47.6847 12.9676 47.7901 12.7132 47.7901 12.448C47.7901 12.1828 47.6847 11.9284 47.4972 11.7409C47.3096 11.5534 47.0553 11.448 46.7901 11.448H42.0901V9.407H53.9891ZM55.8301 8.34V8.32C55.8533 8.00775 55.9968 7.71669 56.2302 7.50799C56.4636 7.29928 56.7688 7.18919 57.0817 7.20084C57.3946 7.21249 57.6908 7.34498 57.9081 7.57047C58.1253 7.79596 58.2467 8.09688 58.2467 8.41C58.2467 8.72311 58.1253 9.02404 57.9081 9.24953C57.6908 9.47502 57.3946 9.60751 57.0817 9.61916C56.7688 9.63081 56.4636 9.52072 56.2302 9.31201C55.9968 9.10331 55.8533 8.81225 55.8301 8.5V8.453C55.8301 8.437 55.8391 8.424 55.8391 8.407C55.8391 8.39 55.8311 8.377 55.8301 8.361V8.34ZM8.17005 8.48V8.5C8.14676 8.81225 8.00334 9.10331 7.76992 9.31201C7.5365 9.52072 7.23127 9.63081 6.91837 9.61916C6.60547 9.60751 6.30928 9.47502 6.09203 9.24953C5.87478 9.02404 5.7534 8.72311 5.7534 8.41C5.7534 8.09688 5.87478 7.79596 6.09203 7.57047C6.30928 7.34498 6.60547 7.21249 6.91837 7.20084C7.23127 7.18919 7.5365 7.29928 7.76992 7.50799C8.00334 7.71669 8.14676 8.00775 8.17005 8.32V8.36C8.17005 8.376 8.16105 8.39 8.16105 8.406C8.16105 8.422 8.16905 8.436 8.17005 8.452V8.48ZM8.17005 32.53V32.55C8.14676 32.8649 8.00227 33.1585 7.76698 33.3691C7.53168 33.5797 7.2239 33.6908 6.90835 33.6792C6.59279 33.6675 6.29405 33.534 6.07493 33.3066C5.85581 33.0792 5.73338 32.7758 5.73338 32.46C5.73338 32.1442 5.85581 31.8408 6.07493 31.6134C6.29405 31.386 6.59279 31.2525 6.90835 31.2408C7.2239 31.2292 7.53168 31.3403 7.76698 31.5509C8.00227 31.7615 8.14676 32.0551 8.17005 32.37V32.409C8.17005 32.425 8.16105 32.439 8.16105 32.455C8.16105 32.471 8.16905 32.485 8.17005 32.501V32.53ZM55.8301 32.38V32.37C55.8445 32.1334 55.9278 31.9061 56.0697 31.7162C56.2116 31.5262 56.4059 31.382 56.6288 31.301C56.8516 31.2201 57.0933 31.2061 57.324 31.2607C57.5547 31.3154 57.7644 31.4362 57.9273 31.6085C58.0902 31.7807 58.1992 31.9968 58.2409 32.2302C58.2825 32.4636 58.2551 32.7041 58.1619 32.9221C58.0687 33.1401 57.9138 33.3261 57.7162 33.4572C57.5187 33.5883 57.2871 33.6588 57.0501 33.66C56.7385 33.6629 56.4381 33.5445 56.2123 33.3299C55.9865 33.1153 55.853 32.8212 55.8401 32.51C55.8401 32.5 55.8301 32.5 55.8401 32.49V32.48V32.469V32.455C55.8401 32.439 55.8321 32.425 55.8311 32.409L55.8301 32.38ZM40.0901 4V4.4V12.445V19.745V20.178H23.9101V19.745V12.445V4.4V4H40.0901Z" fill="#3979F1"/>
<path d="M26.4444 12.753H28.1444C28.3225 13.4406 28.6812 14.0681 29.1833 14.5704C29.6855 15.0727 30.3129 15.4317 31.0004 15.61V17.31C31.0004 17.5752 31.1058 17.8295 31.2933 18.0171C31.4809 18.2046 31.7352 18.31 32.0004 18.31C32.2656 18.31 32.52 18.2046 32.7075 18.0171C32.8951 17.8295 33.0004 17.5752 33.0004 17.31V15.61C33.6885 15.4321 34.3165 15.0734 34.8192 14.571C35.322 14.0687 35.6811 13.4409 35.8594 12.753H37.5594C37.8246 12.753 38.079 12.6476 38.2665 12.4601C38.4541 12.2725 38.5594 12.0182 38.5594 11.753C38.5594 11.4877 38.4541 11.2334 38.2665 11.0458C38.079 10.8583 37.8246 10.753 37.5594 10.753H35.8594C35.6817 10.0651 35.3227 9.43752 34.8199 8.9357C34.317 8.43387 33.6887 8.07619 33.0004 7.89995V6.19995C33.0004 5.93473 32.8951 5.68038 32.7075 5.49284C32.52 5.30531 32.2656 5.19995 32.0004 5.19995C31.7352 5.19995 31.4809 5.30531 31.2933 5.49284C31.1058 5.68038 31.0004 5.93473 31.0004 6.19995V7.89995C30.3124 8.07578 29.6841 8.43295 29.1811 8.93422C28.678 9.4355 28.3187 10.0625 28.1404 10.75H26.4404C26.1752 10.75 25.9209 10.8553 25.7333 11.0428C25.5458 11.2304 25.4404 11.4847 25.4404 11.75C25.4404 12.0152 25.5458 12.2695 25.7333 12.4571C25.9209 12.6446 26.1752 12.75 26.4404 12.75L26.4444 12.753ZM32.0004 9.76995C32.5245 9.7694 33.0275 9.9759 33.4001 10.3445C33.7726 10.7131 33.9844 11.2139 33.9894 11.738V11.753V11.766C33.986 12.2897 33.7758 12.7909 33.4046 13.1605C33.0334 13.53 32.5312 13.7379 32.0074 13.739H31.9954C31.4716 13.7379 30.9695 13.53 30.5983 13.1605C30.2271 12.7909 30.0169 12.2897 30.0134 11.766V11.753V11.738C30.0184 11.2143 30.23 10.7137 30.6021 10.3452C30.9742 9.97666 31.4767 9.76993 32.0004 9.76995Z" fill="#3979F1"/>
</svg>
