<svg width="26" height="27" viewBox="0 0 26 27" fill="none" xmlns="http://www.w3.org/2000/svg">
<path d="M23.3777 22.074L18.667 17.3613C20.0794 15.5207 20.7388 13.2118 20.5115 10.903C20.2841 8.59407 19.1871 6.45812 17.4428 4.92837C15.6985 3.39863 13.4377 2.58965 11.1188 2.66554C8.80005 2.74143 6.59693 3.6965 4.95641 5.33702C3.31589 6.97754 2.36081 9.18066 2.28492 11.4995C2.20903 13.8183 3.01801 16.0791 4.54776 17.8234C6.0775 19.5677 8.21346 20.6648 10.5223 20.8921C12.8312 21.1194 15.1401 20.46 16.9807 19.0476L21.6954 23.7633C21.8061 23.874 21.9375 23.9618 22.0822 24.0217C22.2269 24.0817 22.3819 24.1125 22.5385 24.1125C22.6951 24.1125 22.8501 24.0817 22.9948 24.0217C23.1395 23.9618 23.2709 23.874 23.3816 23.7633C23.4924 23.6525 23.5802 23.5211 23.6401 23.3764C23.7 23.2317 23.7309 23.0767 23.7309 22.9201C23.7309 22.7635 23.7 22.6085 23.6401 22.4638C23.5802 22.3191 23.4924 22.1877 23.3816 22.077L23.3777 22.074ZM4.68069 11.8065C4.68069 10.4724 5.07628 9.16829 5.81745 8.05905C6.55862 6.94982 7.61207 6.08527 8.84459 5.57475C10.0771 5.06422 11.4333 4.93065 12.7418 5.19091C14.0502 5.45117 15.2521 6.09359 16.1954 7.03691C17.1387 7.98024 17.7811 9.18212 18.0414 10.4905C18.3017 11.799 18.1681 13.1552 17.6576 14.3877C17.147 15.6202 16.2825 16.6737 15.1733 17.4149C14.064 18.156 12.7599 18.5516 11.4258 18.5516C9.63749 18.5498 7.92289 17.8385 6.65833 16.574C5.39376 15.3094 4.68253 13.5948 4.68069 11.8065Z" fill="black" fill-opacity="0.6"/>
</svg>
