<svg width="101" height="18" viewBox="0 0 101 18" fill="none" xmlns="http://www.w3.org/2000/svg">
<path d="M15.24 2.476V6.076C15.24 6.556 15.048 6.796 14.664 6.796C14.344 6.796 14.112 6.604 13.968 6.22C13.456 4.844 12.936 3.86 12.408 3.268C11.88 2.676 11.272 2.38 10.584 2.38H10.488C10.216 2.38 10.08 2.508 10.08 2.764V14.236C10.08 14.636 10.152 14.948 10.296 15.172C10.456 15.396 10.624 15.588 10.8 15.748C10.976 15.892 11.136 16.036 11.28 16.18C11.44 16.308 11.52 16.476 11.52 16.684C11.52 16.956 11.352 17.164 11.016 17.308C10.68 17.436 10.144 17.5 9.408 17.5H6.432C5.696 17.5 5.16 17.436 4.824 17.308C4.488 17.164 4.32 16.956 4.32 16.684C4.32 16.476 4.392 16.308 4.536 16.18C4.696 16.036 4.864 15.892 5.04 15.748C5.216 15.588 5.376 15.396 5.52 15.172C5.68 14.948 5.76 14.636 5.76 14.236V2.764C5.76 2.508 5.624 2.38 5.352 2.38H5.256C4.568 2.38 3.96 2.676 3.432 3.268C2.904 3.86 2.384 4.844 1.872 6.22C1.728 6.604 1.496 6.796 1.176 6.796C0.792 6.796 0.6 6.556 0.6 6.076V2.476C0.6 1.452 1.112 0.939999 2.136 0.939999H13.704C14.728 0.939999 15.24 1.452 15.24 2.476ZM20.5054 6.94V13.276C20.5054 13.884 20.6734 14.38 21.0094 14.764C21.3454 15.148 21.7774 15.34 22.3054 15.34C22.8174 15.34 23.2414 15.148 23.5774 14.764C23.9294 14.38 24.1054 13.884 24.1054 13.276V10.3C24.1054 9.9 24.0254 9.588 23.8654 9.364C23.7214 9.14 23.5614 8.956 23.3854 8.812C23.2094 8.652 23.0414 8.508 22.8814 8.38C22.7374 8.252 22.6654 8.084 22.6654 7.876C22.6654 7.348 23.2814 6.98 24.5134 6.772L27.1054 6.316C27.7294 6.22 28.0414 6.428 28.0414 6.94V14.788C28.0414 15.092 28.1134 15.3 28.2574 15.412C28.4014 15.524 28.5534 15.612 28.7134 15.676C28.8894 15.724 29.0414 15.78 29.1694 15.844C29.3134 15.908 29.3854 16.044 29.3854 16.252C29.3854 16.668 29.1614 17.012 28.7134 17.284C28.2814 17.54 27.7214 17.668 27.0334 17.668C26.2334 17.668 25.5854 17.484 25.0894 17.116C24.6094 16.748 24.3054 16.22 24.1774 15.532C23.7454 16.188 23.1854 16.708 22.4974 17.092C21.8094 17.476 21.0814 17.668 20.3134 17.668C19.1294 17.668 18.2094 17.34 17.5534 16.684C16.8974 16.028 16.5694 15.116 16.5694 13.948V10.3C16.5694 9.9 16.4894 9.588 16.3294 9.364C16.1854 9.14 16.0254 8.956 15.8494 8.812C15.6734 8.652 15.5054 8.508 15.3454 8.38C15.2014 8.252 15.1294 8.084 15.1294 7.876C15.1294 7.348 15.7454 6.98 16.9774 6.772L19.5694 6.316C20.1934 6.22 20.5054 6.428 20.5054 6.94ZM45.5436 4.588C44.9996 4.588 44.5916 4.436 44.3196 4.132C44.0636 3.828 43.8636 3.492 43.7196 3.124C43.5756 2.756 43.4556 2.42 43.3596 2.116C43.2636 1.812 43.0956 1.66 42.8556 1.66C42.5676 1.66 42.4236 1.932 42.4236 2.476V6.46H45.0636C45.4636 6.46 45.6636 6.66 45.6636 7.06C45.6636 7.46 45.4636 7.66 45.0636 7.66H42.4236V14.236C42.4236 14.636 42.4956 14.948 42.6396 15.172C42.7996 15.396 42.9676 15.588 43.1436 15.748C43.3196 15.892 43.4796 16.036 43.6236 16.18C43.7836 16.308 43.8636 16.476 43.8636 16.684C43.8636 16.956 43.6956 17.164 43.3596 17.308C43.0236 17.436 42.4876 17.5 41.7516 17.5H39.1596C38.4236 17.5 37.8876 17.436 37.5516 17.308C37.2156 17.164 37.0476 16.956 37.0476 16.684C37.0476 16.476 37.1196 16.308 37.2636 16.18C37.4236 16.036 37.5916 15.892 37.7676 15.748C37.9436 15.588 38.1036 15.396 38.2476 15.172C38.4076 14.948 38.4876 14.636 38.4876 14.236V7.66H34.8876V14.236C34.8876 14.636 34.9596 14.948 35.1036 15.172C35.2636 15.396 35.4316 15.588 35.6076 15.748C35.7836 15.892 35.9436 16.036 36.0876 16.18C36.2476 16.308 36.3276 16.476 36.3276 16.684C36.3276 16.956 36.1596 17.164 35.8236 17.308C35.4876 17.436 34.9516 17.5 34.2156 17.5H31.6236C30.8876 17.5 30.3516 17.436 30.0156 17.308C29.6796 17.164 29.5116 16.956 29.5116 16.684C29.5116 16.476 29.5836 16.308 29.7276 16.18C29.8876 16.036 30.0556 15.892 30.2316 15.748C30.4076 15.588 30.5676 15.396 30.7116 15.172C30.8716 14.948 30.9516 14.636 30.9516 14.236V7.66H29.7516C29.3516 7.66 29.1516 7.46 29.1516 7.06C29.1516 6.66 29.3516 6.46 29.7516 6.46H30.9516V6.22C30.9516 5.468 31.1036 4.78 31.4076 4.156C31.7116 3.516 32.1356 2.964 32.6796 2.5C33.2236 2.036 33.8716 1.676 34.6236 1.42C35.3756 1.164 36.1916 1.036 37.0716 1.036C38.3196 1.036 39.4156 1.308 40.3596 1.852C40.8236 1.436 41.3436 1.116 41.9196 0.891999C42.5116 0.667999 43.1436 0.555999 43.8156 0.555999C44.2956 0.555999 44.7356 0.619999 45.1356 0.748C45.5516 0.859999 45.9036 1.028 46.1916 1.252C46.4956 1.46 46.7276 1.716 46.8876 2.02C47.0636 2.308 47.1516 2.628 47.1516 2.98C47.1516 3.46 47.0076 3.852 46.7196 4.156C46.4316 4.444 46.0396 4.588 45.5436 4.588ZM34.8876 6.46H38.4876V6.22C38.4876 5.996 38.4956 5.788 38.5116 5.596C38.5436 5.388 38.5756 5.18 38.6076 4.972C38.4796 4.572 38.3116 4.196 38.1036 3.844C37.9116 3.492 37.6956 3.188 37.4556 2.932C37.2316 2.676 36.9916 2.476 36.7356 2.332C36.4796 2.188 36.2236 2.116 35.9676 2.116C35.6156 2.116 35.3436 2.284 35.1516 2.62C34.9756 2.956 34.8876 3.436 34.8876 4.06V6.46ZM63.987 4.78C63.987 5.708 63.667 6.452 63.027 7.012C62.387 7.572 61.467 7.924 60.267 8.068V8.164C61.931 8.308 63.203 8.764 64.083 9.532C64.963 10.3 65.403 11.34 65.403 12.652C65.403 14.204 64.811 15.404 63.627 16.252C62.459 17.084 60.803 17.5 58.659 17.5H52.707C51.971 17.5 51.435 17.436 51.099 17.308C50.763 17.164 50.595 16.956 50.595 16.684C50.595 16.476 50.667 16.308 50.811 16.18C50.971 16.036 51.139 15.892 51.315 15.748C51.491 15.588 51.651 15.396 51.795 15.172C51.955 14.948 52.035 14.636 52.035 14.236V4.204C52.035 3.804 51.955 3.492 51.795 3.268C51.651 3.044 51.491 2.86 51.315 2.716C51.139 2.556 50.971 2.412 50.811 2.284C50.667 2.14 50.595 1.964 50.595 1.756C50.595 1.484 50.763 1.284 51.099 1.156C51.435 1.012 51.971 0.939999 52.707 0.939999H58.659C60.323 0.939999 61.627 1.284 62.571 1.972C63.515 2.644 63.987 3.58 63.987 4.78ZM59.451 4.972C59.451 4.204 59.219 3.58 58.755 3.1C58.307 2.62 57.723 2.38 57.003 2.38H56.763C56.491 2.38 56.355 2.508 56.355 2.764V7.18C56.355 7.436 56.491 7.564 56.763 7.564H57.003C57.723 7.564 58.307 7.324 58.755 6.844C59.219 6.364 59.451 5.74 59.451 4.972ZM60.651 12.532C60.651 12.02 60.563 11.556 60.387 11.14C60.227 10.708 59.995 10.332 59.691 10.012C59.387 9.692 59.027 9.444 58.611 9.268C58.195 9.092 57.739 9.004 57.243 9.004H56.763C56.491 9.004 56.355 9.132 56.355 9.388V15.676C56.355 15.932 56.491 16.06 56.763 16.06H57.243C57.739 16.06 58.195 15.972 58.611 15.796C59.027 15.62 59.387 15.372 59.691 15.052C59.995 14.732 60.227 14.356 60.387 13.924C60.563 13.492 60.651 13.028 60.651 12.532ZM68.6668 4.996C67.9468 4.996 67.3628 4.788 66.9148 4.372C66.4828 3.956 66.2668 3.412 66.2668 2.74C66.2668 2.052 66.4828 1.5 66.9148 1.084C67.3628 0.667999 67.9468 0.459999 68.6668 0.459999C69.4028 0.459999 69.9948 0.667999 70.4428 1.084C70.8908 1.5 71.1148 2.052 71.1148 2.74C71.1148 3.412 70.8908 3.956 70.4428 4.372C69.9948 4.788 69.4028 4.996 68.6668 4.996ZM70.8988 6.94V14.236C70.8988 14.636 70.9708 14.948 71.1148 15.172C71.2748 15.396 71.4428 15.588 71.6188 15.748C71.7948 15.892 71.9548 16.036 72.0988 16.18C72.2588 16.308 72.3388 16.476 72.3388 16.684C72.3388 16.956 72.1708 17.164 71.8348 17.308C71.4988 17.436 70.9628 17.5 70.2268 17.5H67.6348C66.8988 17.5 66.3628 17.436 66.0268 17.308C65.6908 17.164 65.5228 16.956 65.5228 16.684C65.5228 16.476 65.5948 16.308 65.7388 16.18C65.8988 16.036 66.0668 15.892 66.2428 15.748C66.4188 15.588 66.5788 15.396 66.7228 15.172C66.8828 14.948 66.9628 14.636 66.9628 14.236V10.3C66.9628 9.9 66.8828 9.588 66.7228 9.364C66.5788 9.14 66.4188 8.956 66.2428 8.812C66.0668 8.652 65.8988 8.508 65.7388 8.38C65.5948 8.252 65.5228 8.084 65.5228 7.876C65.5228 7.348 66.1388 6.98 67.3708 6.772L69.9628 6.316C70.5868 6.22 70.8988 6.428 70.8988 6.94ZM80.7319 7.06C80.7319 7.46 80.5319 7.66 80.1319 7.66H77.7559V13.588C77.7559 14.532 78.1159 15.004 78.8359 15.004C79.0919 15.004 79.3159 14.972 79.5079 14.908C79.7159 14.844 79.9319 14.74 80.1559 14.596C80.2679 14.516 80.3719 14.484 80.4679 14.5C80.5799 14.5 80.6679 14.532 80.7319 14.596C80.8119 14.66 80.8599 14.74 80.8759 14.836C80.8919 14.932 80.8759 15.036 80.8279 15.148C80.4439 15.964 79.9319 16.588 79.2919 17.02C78.6679 17.452 77.9479 17.668 77.1319 17.668C76.1239 17.668 75.3159 17.332 74.7079 16.66C74.1159 15.972 73.8199 15.052 73.8199 13.9V7.66H72.7399C72.3399 7.66 72.1399 7.46 72.1399 7.06C72.1399 6.66 72.3399 6.46 72.7399 6.46C73.4599 6.46 74.1319 6.244 74.7559 5.812C75.3959 5.364 75.8599 4.756 76.1479 3.988C76.3239 3.54 76.5799 3.316 76.9159 3.316H77.0359C77.2439 3.316 77.4119 3.38 77.5399 3.508C77.6839 3.636 77.7559 3.796 77.7559 3.988V6.46H80.1319C80.5319 6.46 80.7319 6.66 80.7319 7.06ZM90.1147 9.388C90.1147 10.332 89.7307 11.196 88.9627 11.98C88.2107 12.748 87.1787 13.332 85.8667 13.732C86.3627 14.196 86.9067 14.564 87.4987 14.836C88.0907 15.108 88.7067 15.244 89.3467 15.244C89.6507 15.244 89.9787 15.196 90.3307 15.1C90.5387 15.036 90.6987 15.084 90.8107 15.244C90.9387 15.388 90.9467 15.548 90.8347 15.724C90.4827 16.316 89.9227 16.788 89.1547 17.14C88.4027 17.492 87.5627 17.668 86.6347 17.668C85.7867 17.668 85.0027 17.524 84.2827 17.236C83.5787 16.948 82.9627 16.556 82.4347 16.06C81.9227 15.548 81.5147 14.948 81.2107 14.26C80.9227 13.556 80.7787 12.788 80.7787 11.956C80.7787 11.156 80.9227 10.412 81.2107 9.724C81.4987 9.02 81.8987 8.42 82.4107 7.924C82.9227 7.412 83.5227 7.012 84.2107 6.724C84.9147 6.436 85.6747 6.292 86.4907 6.292C87.0187 6.292 87.4987 6.372 87.9307 6.532C88.3787 6.676 88.7627 6.892 89.0827 7.18C89.4027 7.452 89.6507 7.78 89.8267 8.164C90.0187 8.532 90.1147 8.94 90.1147 9.388ZM85.2667 13.132C85.6507 12.764 85.9387 12.34 86.1307 11.86C86.3387 11.38 86.4427 10.876 86.4427 10.348C86.4427 9.98 86.3947 9.636 86.2987 9.316C86.2187 8.98 86.0987 8.684 85.9387 8.428C85.7947 8.172 85.6267 7.972 85.4347 7.828C85.2427 7.684 85.0347 7.612 84.8107 7.612C84.4747 7.612 84.2107 7.74 84.0187 7.996C83.8427 8.252 83.7547 8.612 83.7547 9.076C83.7547 9.828 83.8907 10.556 84.1627 11.26C84.4347 11.948 84.8027 12.572 85.2667 13.132ZM100.171 8.572C100.171 8.956 100.043 9.276 99.7875 9.532C99.5475 9.788 99.2275 9.916 98.8275 9.916C98.3635 9.916 97.9555 9.74 97.6035 9.388C97.4115 9.196 97.2435 8.98 97.0995 8.74C96.9555 8.5 96.8035 8.276 96.6435 8.068C96.4835 7.844 96.2995 7.66 96.0915 7.516C95.8995 7.372 95.6515 7.3 95.3475 7.3C95.0435 7.3 94.7955 7.388 94.6035 7.564C94.4275 7.724 94.3395 7.94 94.3395 8.212C94.3395 8.644 94.4995 8.988 94.8195 9.244C95.1395 9.484 95.5315 9.7 95.9955 9.892C96.4755 10.068 96.9875 10.252 97.5315 10.444C98.0915 10.62 98.6035 10.86 99.0675 11.164C99.5475 11.452 99.9475 11.836 100.267 12.316C100.587 12.78 100.747 13.396 100.747 14.164C100.747 14.692 100.627 15.172 100.387 15.604C100.163 16.036 99.8355 16.404 99.4035 16.708C98.9715 17.012 98.4595 17.252 97.8675 17.428C97.2755 17.588 96.6195 17.668 95.8995 17.668C95.2275 17.668 94.5955 17.612 94.0035 17.5C93.4115 17.372 92.8915 17.196 92.4435 16.972C92.0115 16.748 91.6675 16.484 91.4115 16.18C91.1555 15.86 91.0275 15.516 91.0275 15.148C91.0275 14.716 91.1635 14.372 91.4355 14.116C91.7075 13.844 92.0595 13.708 92.4915 13.708C93.0675 13.708 93.5315 13.932 93.8835 14.38C94.0595 14.604 94.2115 14.852 94.3395 15.124C94.4835 15.38 94.6275 15.628 94.7715 15.868C94.9315 16.092 95.1155 16.284 95.3235 16.444C95.5475 16.604 95.8275 16.684 96.1635 16.684C96.5315 16.684 96.8355 16.58 97.0755 16.372C97.3155 16.148 97.4355 15.868 97.4355 15.532C97.4355 15.116 97.2835 14.788 96.9795 14.548C96.6755 14.292 96.2915 14.076 95.8275 13.9C95.3635 13.708 94.8675 13.524 94.3395 13.348C93.8115 13.156 93.3155 12.916 92.8515 12.628C92.3875 12.324 92.0035 11.94 91.6995 11.476C91.3955 11.012 91.2435 10.412 91.2435 9.676C91.2435 9.196 91.3635 8.748 91.6035 8.332C91.8435 7.916 92.1715 7.564 92.5875 7.276C93.0035 6.972 93.4915 6.732 94.0515 6.556C94.6115 6.38 95.2195 6.292 95.8755 6.292C96.4835 6.292 97.0435 6.356 97.5555 6.484C98.0835 6.596 98.5395 6.756 98.9235 6.964C99.3075 7.156 99.6115 7.396 99.8355 7.684C100.059 7.956 100.171 8.252 100.171 8.572Z" fill="black"/>
</svg>
