<svg width="40" height="11" viewBox="0 0 40 11" fill="none" xmlns="http://www.w3.org/2000/svg">
<path d="M5.06398 3.20758C3.31844 4.35519 1.72323 6.57244 0.942113 8.88909C0.432368 10.4522 0.619378 11.2253 1.29046 10.4193C1.51416 10.1507 1.98722 9.38091 2.3356 8.67539C3.06537 7.19621 4.66057 5.22737 5.60302 4.66151C7.23854 3.65826 8.34966 4.01379 9.53777 5.90784C9.89346 6.48447 10.4325 7.31735 10.7222 7.78186C11.0119 8.24636 11.6243 8.8588 12.112 9.16285C12.9078 9.65892 13.0471 9.67481 14.0225 9.41344C15.5371 8.99128 16.5932 8.1769 18.9805 5.56622C21.3128 3.02772 22.1049 2.38588 22.6806 2.67381C23.183 2.93377 23.8027 4.33152 24.0777 5.83379C24.6241 8.81828 25.7902 10.0953 27.5944 9.76503C28.8448 9.51541 29.89 8.76515 31.2285 7.13312C32.8457 5.16025 33.9788 4.14546 34.6829 4.01657C35.827 3.80712 36.9821 5.27248 37.7962 7.98025C38.0052 8.74935 38.3499 9.5143 38.5589 9.66235C38.8596 9.93853 38.9256 9.92644 39.186 9.60966C39.6444 9.00821 39.2374 5.79119 38.5443 4.61388C37.4552 2.76381 35.4163 1.81216 33.8432 2.41067C32.7834 2.8324 32.171 3.33784 30.8068 4.95386C28.7129 7.42803 27.3524 8.44304 26.8243 7.91866C26.7143 7.81459 26.3696 6.67701 26.0213 5.39519C25.1045 1.87815 23.9604 0.597093 22.0242 0.951544C20.8141 1.17308 19.9816 1.843 17.576 4.47773C15.4747 6.78763 14.624 7.48161 13.6339 7.66287C12.9958 7.77967 12.6328 7.4114 11.5107 5.50527C9.81651 2.58599 7.35958 1.71087 5.06398 3.20758Z" fill="#FE8329"/>
</svg>
