<svg width="25" height="7" viewBox="0 0 25 7" fill="none" xmlns="http://www.w3.org/2000/svg">
<path d="M3.52216 1.50828C2.45777 2.25205 1.4952 3.70452 1.03455 5.22978C0.734383 6.25908 0.856197 6.77198 1.26224 6.24479C1.39759 6.06905 1.68207 5.56411 1.89036 5.10056C2.32668 4.12868 3.29141 2.8405 3.86655 2.47447C4.86448 1.8252 5.55144 2.06997 6.29915 3.33285C6.52308 3.71728 6.86208 4.27276 7.04442 4.58246C7.22675 4.89216 7.60899 5.3025 7.91181 5.50781C8.40588 5.84278 8.49179 5.8545 9.08989 5.69011C10.0184 5.42408 10.6613 4.89468 12.108 3.18892C13.5215 1.5304 14.0034 1.11282 14.3603 1.30823C14.6717 1.48451 15.0653 2.41425 15.2476 3.41012C15.6098 5.38857 16.3386 6.24322 17.4462 6.04046C18.2136 5.88624 18.8504 5.39915 19.66 4.33148C20.6383 3.04082 21.3269 2.37956 21.7591 2.30043C22.4615 2.17185 23.1852 3.15095 23.7097 4.94873C23.845 5.45916 24.0638 5.96803 24.1938 6.06775C24.3812 6.253 24.4218 6.24559 24.5793 6.03835C24.8562 5.64458 24.5777 3.51357 24.1409 2.72897C23.4546 1.49602 22.1914 0.848978 21.2283 1.23113C20.5797 1.50082 20.2072 1.82976 19.3816 2.88663C18.1143 4.50466 17.2857 5.1641 16.9562 4.81273C16.8876 4.74296 16.6655 3.98766 16.44 3.13694C15.8452 0.80309 15.1299 -0.0540339 13.9413 0.163561C13.1984 0.299558 12.6919 0.735366 11.2341 2.45688C9.96089 3.96622 9.44328 4.41778 8.83546 4.52905C8.44375 4.60076 8.21711 4.35406 7.50993 3.08376C6.44187 1.13846 4.92207 0.538398 3.52216 1.50828Z" fill="#FE8329"/>
</svg>
