<svg width="133" height="23" viewBox="0 0 133 23" fill="none" xmlns="http://www.w3.org/2000/svg">
<path d="M127.758 18.5006C127.337 18.0305 126.979 17.506 126.695 16.9409C126.247 16.0552 125.626 15.2689 124.871 14.6283C124.116 13.9877 123.242 13.5058 122.299 13.211C121.475 12.9543 120.612 12.8453 119.75 12.889C120.377 12.853 120.995 13.0569 121.479 13.4602C121.963 13.8634 122.278 14.4361 122.361 15.0634C122.588 16.4189 123.184 17.6843 124.084 18.718C124.983 19.7518 126.151 20.5133 127.455 20.9175C128.946 21.3793 130.545 21.3544 132.021 20.8464C130.377 20.5762 128.873 19.7487 127.758 18.5006Z" fill="white"/>
<path d="M117.183 12.7551C117.375 13.592 117.712 14.3892 118.18 15.111C117.839 14.5869 117.707 13.9547 117.812 13.3391C117.916 12.7235 118.25 12.1692 118.746 11.7855C119.799 10.9204 120.59 9.78189 121.031 8.49688C121.471 7.21187 121.543 5.83076 121.24 4.50738C120.893 2.99346 120.071 1.62812 118.891 0.608398C119.478 2.16638 119.512 3.87669 118.987 5.45634C118.786 6.05269 118.506 6.62009 118.155 7.14383C117.617 7.96658 117.25 8.88818 117.077 9.85409C116.903 10.82 116.927 11.8106 117.145 12.7674L117.183 12.7551Z" fill="white"/>
<path d="M120.858 15.6689C120.579 16.232 120.101 16.6672 119.52 16.8872C118.939 17.1072 118.297 17.0958 117.724 16.8553C116.46 16.3742 115.089 16.2595 113.765 16.5242C112.441 16.7888 111.215 17.4223 110.225 18.3538C109.096 19.4208 108.33 20.8245 108.037 22.3624C109.088 21.0669 110.542 20.1741 112.159 19.8316C112.767 19.7052 113.388 19.6563 114.007 19.6859C114.979 19.737 115.951 19.5899 116.866 19.2532C117.781 18.9164 118.62 18.3969 119.334 17.7253C119.959 17.1358 120.477 16.4399 120.866 15.6689H120.858Z" fill="white"/>
<path d="M0.686523 22.2646H4.20822V13.6888C4.20822 12.7389 4.46809 11.9772 4.98783 11.4037C5.50758 10.8302 6.18862 10.5435 7.03096 10.5435C7.89122 10.5435 8.57226 10.8302 9.07408 11.4037C9.59382 11.9593 9.85369 12.721 9.85369 13.6888V22.2646H13.3754V13.6888C13.3754 12.7389 13.6353 11.9772 14.155 11.4037C14.6747 10.8302 15.3558 10.5435 16.1981 10.5435C17.0584 10.5435 17.7394 10.8302 18.2412 11.4037C18.761 11.9593 19.0209 12.721 19.0209 13.6888V22.2646H22.5426V12.8554C22.5426 11.7622 22.3006 10.8034 21.8167 9.97893C21.3507 9.13659 20.7145 8.48243 19.908 8.01646C19.1015 7.55048 18.1785 7.3175 17.139 7.3175C16.1712 7.3175 15.2931 7.51464 14.5045 7.90893C13.7338 8.30321 13.0976 8.89464 12.5958 9.68322C12.1656 8.96633 11.5473 8.39282 10.7408 7.96269C9.95226 7.53256 9.06512 7.3175 8.0794 7.3175C7.16537 7.3175 6.34992 7.49672 5.63303 7.85516C4.91615 8.2136 4.36952 8.75127 3.99316 9.46815V7.64009H0.686523L0.686523 22.2646Z" fill="white"/>
<path d="M29.9577 22.5871C31.8574 22.5871 33.3808 21.9599 34.5278 20.7053V22.2646H37.8614V12.5328C37.8614 11.5113 37.6015 10.6062 37.0817 9.81763C36.562 9.02906 35.8451 8.41971 34.9311 7.98958C34.035 7.54152 32.9865 7.3175 31.7858 7.3175C30.3161 7.3175 29.0078 7.66698 27.8608 8.36594C26.7138 9.0649 25.9252 9.98789 25.4951 11.1349L28.3716 12.5328C28.6404 11.8697 29.0616 11.341 29.6351 10.9467C30.2086 10.5345 30.8807 10.3284 31.6513 10.3284C32.4578 10.3284 33.103 10.5435 33.5869 10.9736C34.0888 11.3858 34.3397 11.9056 34.3397 12.5328V13.0167L29.9846 13.7157C28.2641 14.0025 26.9916 14.5491 26.1672 15.3556C25.3428 16.1621 24.9305 17.1747 24.9305 18.3934C24.9305 19.6838 25.3876 20.7053 26.3016 21.4581C27.2156 22.2108 28.4343 22.5871 29.9577 22.5871ZM28.5867 18.259C28.5867 17.2374 29.2767 16.5922 30.6567 16.3234L34.3397 15.7051V16.2965C34.3397 17.3001 33.9902 18.1514 33.2912 18.8504C32.6102 19.5494 31.7141 19.8988 30.6029 19.8988C30.0115 19.8988 29.5276 19.7555 29.1512 19.4687C28.7748 19.164 28.5867 18.7608 28.5867 18.259Z" fill="white"/>
<path d="M41.1163 22.2646H44.638V14.1189C44.638 13.0078 44.9427 12.1475 45.5521 11.5382C46.1793 10.9109 46.9858 10.5972 47.9715 10.5972H49.235V7.4788H48.3748C47.4787 7.4788 46.6901 7.6401 46.0091 7.96269C45.328 8.28529 44.7993 8.86776 44.423 9.7101V7.64009H41.1163V22.2646Z" fill="white"/>
<path d="M58.2321 22.4259C58.8235 22.4259 59.406 22.381 59.9795 22.2914V19.2536C59.639 19.3074 59.3253 19.3343 59.0386 19.3343C58.1783 19.3343 57.5511 19.1371 57.1568 18.7429C56.7625 18.3486 56.5653 17.784 56.5653 17.0492V10.7854H59.9257V7.64009H56.5653V4.30658H53.0436V5.43567C53.0436 6.15256 52.8465 6.69918 52.4522 7.07555C52.0579 7.45191 51.5023 7.64009 50.7855 7.64009H50.5166V10.7854H53.0436V17.2374C53.0436 18.8683 53.4917 20.1408 54.3878 21.0548C55.3018 21.9688 56.5833 22.4259 58.2321 22.4259Z" fill="white"/>
<path d="M62.6701 6.00022H66.1918V2.23657H62.6701V6.00022ZM62.6701 22.2646H66.1918V7.64009L62.6701 7.64009V22.2646Z" fill="white"/>
<path d="M69.4434 22.2646H72.9651V13.6888C72.9651 12.7389 73.234 11.9772 73.7716 11.4037C74.3272 10.8302 75.0441 10.5435 75.9223 10.5435C76.8005 10.5435 77.5084 10.8302 78.0461 11.4037C78.6016 11.9593 78.8794 12.721 78.8794 13.6888V22.2646H82.4011V12.8554C82.4011 11.7622 82.1681 10.8034 81.7022 9.97893C81.2362 9.13659 80.582 8.48243 79.7397 8.01646C78.9153 7.55048 77.9654 7.3175 76.8901 7.3175C75.976 7.3175 75.1516 7.49672 74.4168 7.85516C73.6999 8.2136 73.1444 8.74231 72.7501 9.44127V7.64009H69.4434V22.2646Z" fill="white"/>
<path d="M92.53 22.5871C93.9459 22.5871 95.2362 22.2646 96.4012 21.6194C97.5661 20.9562 98.4981 20.0512 99.197 18.9042C99.896 17.7392 100.245 16.4219 100.245 14.9523C100.245 13.4827 99.896 12.1744 99.197 11.0274C98.516 9.88036 97.593 8.97529 96.4281 8.31217C95.2631 7.64906 93.9638 7.3175 92.53 7.3175C91.0783 7.3175 89.77 7.64906 88.6051 8.31217C87.4401 8.97529 86.5082 9.88036 85.8092 11.0274C85.1282 12.1744 84.7876 13.4827 84.7876 14.9523C84.7876 16.4219 85.1282 17.7303 85.8092 18.8773C86.5082 20.0243 87.4401 20.9294 88.6051 21.5925C89.7879 22.2556 91.0962 22.5871 92.53 22.5871ZM92.53 19.3612C91.7414 19.3612 91.0335 19.173 90.4062 18.7966C89.7969 18.4203 89.313 17.9005 88.9545 17.2374C88.614 16.5564 88.4438 15.7947 88.4438 14.9523C88.4438 14.11 88.614 13.3573 88.9545 12.6941C89.313 12.031 89.7969 11.5113 90.4062 11.1349C91.0335 10.7406 91.7414 10.5435 92.53 10.5435C93.3186 10.5435 94.0086 10.7406 94.6 11.1349C95.2094 11.5113 95.6843 12.031 96.0248 12.6941C96.3833 13.3573 96.5625 14.11 96.5625 14.9523C96.5625 15.7947 96.3833 16.5564 96.0248 17.2374C95.6843 17.9005 95.2094 18.4203 94.6 18.7966C94.0086 19.173 93.3186 19.3612 92.53 19.3612Z" fill="white"/>
</svg>
