<svg width="128" height="25" viewBox="0 0 128 25" fill="none" xmlns="http://www.w3.org/2000/svg">
<path d="M3.60405 23.8274V8.85047L3.43229 5.79325L5.49334 8.85047L16.039 23.8274H18.7184V0.812392H15.7299V15.5145L15.9016 19.0183L13.5314 15.4458L3.26054 0.812392H0.615533V23.8274H3.60405ZM27.3232 24.1709C30.7583 24.1709 32.5445 21.6976 33.0942 19.4992V20.6671C33.0942 23.003 34.3308 23.8274 36.0483 23.8274H37.972V21.1137H36.9071C36.2888 21.1137 35.9796 20.8732 35.9796 20.0832V13.2474C35.9796 9.29703 33.7812 6.85812 29.6934 6.85812C25.9836 6.85812 23.5103 8.95352 22.5141 10.6711L24.5408 12.7665C25.3996 10.9459 26.9797 9.57183 29.3499 9.57183C31.9606 9.57183 32.8881 11.0146 32.9911 12.9726L26.9797 15.6519C24.6095 16.7168 22.9263 18.1252 22.9263 20.358C22.9263 22.5564 24.5065 24.1709 27.3232 24.1709ZM25.9492 19.8771C25.9492 18.8465 26.6706 18.1595 28.2507 17.4038L33.0942 15.1367V17.4382C33.0942 19.8427 31.1018 21.6976 28.2851 21.6976C26.7393 21.6976 25.9492 21.0106 25.9492 19.8771ZM46.5277 24.2053C48.8292 24.2053 50.4094 23.1404 51.1307 22.0068L50.1345 19.0526C49.688 20.0832 48.6575 21.3198 47.1804 21.3198C45.8751 21.3198 44.8789 20.8045 44.8789 18.6748V9.53748H50.3407V7.20163H44.8789V2.87344L41.8904 5.07189V7.20163H39.211V9.53748H41.8904V19.5679C41.8904 22.419 43.814 24.2053 46.5277 24.2053ZM56.2962 23.8274V14.4153C56.2962 11.5642 58.2199 9.05657 60.3496 9.05657C61.5519 9.05657 62.0671 9.88099 62.0671 10.8428C62.0671 11.7703 61.6206 12.8008 61.071 13.2817H64.3343C64.6091 12.8695 64.9869 11.839 64.9869 10.4306C64.9869 8.09475 63.2694 6.82377 61.4832 6.82377C58.6664 6.82377 56.9489 9.05657 56.2962 11.6329V7.20163H53.3077V23.8274H56.2962ZM74.0274 24.1709C78.6304 24.1709 81.8937 20.7702 81.8937 15.5145C81.8937 10.2588 78.6304 6.85812 74.0274 6.85812C69.4244 6.85812 66.1954 10.2588 66.1954 15.5145C66.1954 20.7702 69.4244 24.1709 74.0274 24.1709ZM74.0274 21.6633C71.2106 21.6633 69.2526 19.7053 69.2526 15.5145C69.2526 11.2894 71.2106 9.36573 74.0274 9.36573C76.8785 9.36573 78.8708 11.2894 78.8708 15.5145C78.8708 19.7053 76.8785 21.6633 74.0274 21.6633ZM88.6342 23.8274V14.4153C88.6342 11.6329 89.8021 9.40008 92.3097 9.40008C94.8174 9.40008 95.9509 10.6024 95.9509 13.0413V23.8274H98.9394V14.4153C98.9394 11.6329 100.107 9.40008 102.649 9.40008C105.123 9.40008 106.291 10.6024 106.291 13.0413V23.8274H109.245V12.3199C109.245 8.81612 107.561 6.85812 104.298 6.85812C101.275 6.85812 99.5578 9.09092 98.9051 11.7359C98.7333 8.61001 97.0502 6.85812 93.9929 6.85812C91.0044 6.85812 89.2869 9.05657 88.6342 11.5985V7.20163H85.6457V23.8274H88.6342ZM117.192 24.1709C120.627 24.1709 122.413 21.6976 122.963 19.4992V20.6671C122.963 23.003 124.2 23.8274 125.917 23.8274H127.841V21.1137H126.776C126.158 21.1137 125.848 20.8732 125.848 20.0832V13.2474C125.848 9.29703 123.65 6.85812 119.562 6.85812C115.852 6.85812 113.379 8.95352 112.383 10.6711L114.41 12.7665C115.268 10.9459 116.849 9.57183 119.219 9.57183C121.829 9.57183 122.757 11.0146 122.86 12.9726L116.849 15.6519C114.478 16.7168 112.795 18.1252 112.795 20.358C112.795 22.5564 114.375 24.1709 117.192 24.1709ZM115.818 19.8771C115.818 18.8465 116.539 18.1595 118.119 17.4038L122.963 15.1367V17.4382C122.963 19.8427 120.971 21.6976 118.154 21.6976C116.608 21.6976 115.818 21.0106 115.818 19.8771Z" fill="white"/>
</svg>
