<svg width="124" height="29" viewBox="0 0 124 29" fill="none" xmlns="http://www.w3.org/2000/svg">
<path d="M23.6526 10.9734L23.6361 10.9569C23.6347 10.956 23.6337 10.9547 23.633 10.9533L13.3015 0.621582L2.97019 10.953C2.96901 10.9542 2.96834 10.9558 2.96714 10.9566L2.95009 10.9731C1.37029 12.5618 0.366838 14.633 0.099263 16.8574C-0.168312 19.0819 0.315345 21.332 1.47334 23.25C2.63134 25.1681 4.39723 26.644 6.49029 27.4431C8.58334 28.2421 10.8835 28.3187 13.025 27.6604C13.2052 27.6053 13.3978 27.6053 13.578 27.6604C15.7194 28.3185 18.0193 28.2419 20.1123 27.4427C22.2052 26.6435 23.9709 25.1677 25.1288 23.2497C26.2867 21.3318 26.7704 19.0819 26.503 16.8576C26.2355 14.6332 25.2322 12.5621 23.6526 10.9734ZM6.64389 17.7863C6.5936 17.8366 6.55371 17.8964 6.52651 17.962C6.49929 18.0276 6.48529 18.0981 6.4853 18.1692C6.50368 19.9926 7.01901 21.7765 7.97582 23.3289C7.99755 23.3641 8.00759 23.4053 8.00451 23.4465C8.00143 23.4877 7.98538 23.527 7.95865 23.5586C7.93193 23.5902 7.8959 23.6125 7.85572 23.6223C7.81554 23.6322 7.77326 23.6291 7.73495 23.6135C7.01565 23.311 6.3622 22.8712 5.81115 22.3187C4.68185 21.1892 4.04698 19.6577 4.04595 18.0604C4.04493 16.4632 4.67784 14.9309 5.80569 13.8L13.3015 6.30482L20.797 13.8C21.9251 14.9307 22.5582 16.4631 22.5571 18.0604C22.5562 19.6577 21.9212 21.1892 20.7918 22.3187C20.2407 22.8712 19.5873 23.311 18.8682 23.6135C18.8297 23.6291 18.7875 23.6322 18.7473 23.6223C18.7072 23.6125 18.6711 23.5901 18.6443 23.5586C18.6176 23.527 18.6015 23.4877 18.5984 23.4464C18.5954 23.4052 18.6054 23.3639 18.6271 23.3287C19.5841 21.7765 20.0997 19.9926 20.1184 18.1692C20.1184 18.0981 20.1043 18.0276 20.0769 17.9619C20.0496 17.8961 20.0095 17.8365 19.9591 17.7862L16.4137 14.0256C16.3784 13.9961 16.3339 13.98 16.2879 13.98C16.242 13.98 16.1975 13.9961 16.1623 14.0256C16.1269 14.0549 16.1032 14.0959 16.0949 14.1411C16.0866 14.1863 16.0945 14.2329 16.1172 14.2729C17.4941 16.7647 16.3101 20.3439 14.3355 22.3187L14.3251 22.3291C14.0525 22.5987 13.6846 22.7499 13.3013 22.7498C12.9179 22.7496 12.5501 22.5982 12.2777 22.3285L12.2681 22.3187C10.2928 20.3439 9.10935 16.7651 10.4865 14.2735C10.5092 14.2334 10.5171 14.1869 10.5088 14.1417C10.5006 14.0964 10.4768 14.0555 10.4415 14.0261C10.4062 13.9966 10.3617 13.9805 10.3158 13.9805C10.2698 13.9805 10.2253 13.9966 10.19 14.0261L6.64389 17.7863Z" fill="white"/>
<path d="M49.0702 9.24996H52.4895L48.9428 21.1008H45.035L43.3784 14.0922L41.7006 21.1008H37.7928L34.2461 9.24996H37.8778L39.7255 17.5753L41.552 9.24996H45.396L47.2225 17.5753L49.0702 9.24996Z" fill="white"/>
<path d="M61.3715 17.3416C61.8954 16.8319 62.1573 16.1098 62.1573 15.1754C62.1573 14.2409 61.8954 13.5259 61.3715 13.0303C60.8476 12.5206 60.2459 12.2658 59.5663 12.2658C58.8867 12.2658 58.2849 12.5206 57.761 13.0303C57.2372 13.54 56.9752 14.2621 56.9752 15.1966C56.9752 16.1311 57.2372 16.8532 57.761 17.3629C58.2849 17.8584 58.8867 18.1062 59.5663 18.1062C60.2459 18.1062 60.8476 17.8514 61.3715 17.3416ZM54.8514 19.5504C53.8037 18.4177 53.2798 16.9664 53.2798 15.1966C53.2798 13.4268 53.8037 11.9755 54.8514 10.8428C55.8992 9.69596 57.1735 9.12254 58.6743 9.12254C60.1893 9.12254 61.3503 9.6818 62.1573 10.8003V9.24996H65.789V21.1008H62.1573V19.3805C61.2795 20.6265 60.1043 21.2494 58.6318 21.2494C57.1593 21.2494 55.8992 20.6831 54.8514 19.5504Z" fill="white"/>
<path d="M67.472 9.24996H71.3373L74.0345 18.0637L76.7317 9.24996H80.597L76.3919 21.1008H71.6771L67.472 9.24996Z" fill="white"/>
<path d="M87.3078 21.2494C85.5804 21.2494 84.1645 20.6972 83.0602 19.5929C81.9558 18.4743 81.4036 16.9948 81.4036 15.1541C81.4036 13.3135 81.9487 11.8481 83.0389 10.7579C84.1433 9.66764 85.5662 9.12254 87.3078 9.12254C89.0493 9.12254 90.4934 9.66057 91.6403 10.7366C92.7872 11.8127 93.3606 13.3064 93.3606 15.2178C93.3606 15.6284 93.3323 16.0107 93.2756 16.3647H85.1202C85.191 16.8886 85.4246 17.3204 85.8211 17.6602C86.2175 17.9859 86.6423 18.1487 87.0954 18.1487C87.5626 18.1487 87.9095 18.1062 88.136 18.0213C88.3626 17.9221 88.5254 17.8301 88.6245 17.7452C88.7378 17.6461 88.8794 17.4903 89.0493 17.2779H92.9783C92.6385 18.4673 91.9589 19.43 90.9395 20.1663C89.92 20.8884 88.7095 21.2494 87.3078 21.2494ZM89.5802 14.0922C89.5236 13.54 89.2829 13.094 88.8581 12.7542C88.4334 12.4003 87.9307 12.2233 87.3502 12.2233C86.7697 12.2233 86.2812 12.4003 85.8848 12.7542C85.4884 13.094 85.2406 13.54 85.1415 14.0922H89.5802Z" fill="white"/>
<path d="M99.325 9.24996V11.4587C100.174 9.90126 101.307 9.12254 102.723 9.12254V12.8179H101.831C100.996 12.8179 100.366 13.0162 99.9409 13.4126C99.5303 13.8091 99.325 14.5028 99.325 15.4939V21.1008H95.6933V9.24996H99.325Z" fill="white"/>
<path d="M108.008 7.91197C107.597 8.32257 107.094 8.52787 106.5 8.52787C105.905 8.52787 105.402 8.32257 104.992 7.91197C104.581 7.50137 104.376 6.99874 104.376 6.40407C104.376 5.79525 104.581 5.28554 104.992 4.87493C105.402 4.46433 105.905 4.25903 106.5 4.25903C107.094 4.25903 107.597 4.46433 108.008 4.87493C108.418 5.28554 108.624 5.79525 108.624 6.40407C108.624 6.99874 108.418 7.50137 108.008 7.91197ZM104.695 21.1008V9.24996H108.326V21.1008H104.695Z" fill="white"/>
<path d="M118.633 17.3841C119.114 16.8744 119.355 16.1382 119.355 15.1754C119.355 14.2126 119.107 13.4834 118.612 12.9879C118.116 12.4781 117.528 12.2233 116.849 12.2233C116.169 12.2233 115.582 12.4781 115.086 12.9879C114.605 13.4834 114.364 14.2126 114.364 15.1754C114.364 16.1382 114.612 16.8744 115.107 17.3841C115.617 17.8938 116.212 18.1487 116.891 18.1487C117.571 18.1487 118.151 17.8938 118.633 17.3841ZM112.453 19.5716C111.263 18.4531 110.669 16.9806 110.669 15.1541C110.669 13.3277 111.263 11.8693 112.453 10.7791C113.642 9.67472 115.114 9.12254 116.87 9.12254C118.626 9.12254 120.091 9.67472 121.266 10.7791C122.456 11.8693 123.05 13.3277 123.05 15.1541C123.05 16.9806 122.463 18.4531 121.288 19.5716C120.112 20.6902 118.647 21.2494 116.891 21.2494C115.136 21.2494 113.656 20.6902 112.453 19.5716Z" fill="white"/>
</svg>
