<svg width="136" height="28" viewBox="0 0 136 28" fill="none" xmlns="http://www.w3.org/2000/svg">
<path d="M6.05713 9.5527L9.36723 7.64369L7.51958 4.44521H24.8962L16.2107 19.4941L14.3631 16.2901L11.053 18.2047L16.2107 27.1359L31.5164 0.621582L0.899414 0.621582L6.05713 9.5527Z" fill="white"/>
<path d="M45.2489 22.2776L51.8577 6.5957H48.6989L44.0392 17.9763L39.357 6.5957H36.1982L42.807 22.2776H45.2489Z" fill="white"/>
<path d="M55.5944 6.5957V22.2776H67.2662V19.4996H58.5964V15.736H65.922V12.9581H58.5964V9.37363H67.1542V6.5957H55.5944Z" fill="white"/>
<path d="M71.5738 6.5957V22.2776H74.5757V16.7441H78.2274L81.5206 22.2776H84.8586L81.2741 16.2288C83.0888 15.4224 84.2537 13.6973 84.2537 11.6587C84.2537 10.2249 83.7384 9.01519 82.6855 8.05188C81.655 7.08856 80.378 6.5957 78.8323 6.5957H71.5738ZM78.8323 9.37363C80.154 9.37363 81.1173 10.3369 81.1173 11.6587C81.1173 12.9805 80.154 13.9662 78.8323 13.9662H74.5757V9.37363H78.8323Z" fill="white"/>
<path d="M92.8859 9.37363V22.2776H95.9103V9.37363H101.108V6.5957L87.6885 6.5957V9.37363H92.8859Z" fill="white"/>
<path d="M105.195 6.5957V22.2776H116.867V19.4996H108.197V15.736H115.523V12.9581H108.197V9.37363H116.755V6.5957H105.195Z" fill="white"/>
<path d="M125.902 14.2798L120.077 22.2776H123.684L127.694 16.7441L131.704 22.2776H135.288L129.486 14.2798L135.064 6.5957H131.48L127.694 11.8155L123.908 6.5957H120.301L125.902 14.2798Z" fill="white"/>
</svg>
