<svg width="122" height="24" viewBox="0 0 122 24" fill="none" xmlns="http://www.w3.org/2000/svg">
<path d="M24.327 19.7482C24.1354 19.4433 23.8849 19.1796 23.5903 18.9725C23.2956 18.7655 22.9626 18.6193 22.6107 18.5424C21.2646 18.2293 20.0971 17.3961 19.3634 16.2249C18.6297 15.0536 18.3894 13.6396 18.695 12.2917C18.8125 11.7708 18.7735 11.2267 18.5828 10.7279C18.3921 10.229 18.0583 9.79762 17.6233 9.4879C17.1882 9.17817 16.6714 9.00392 16.1376 8.98696C15.6038 8.97003 15.0769 9.11117 14.6231 9.39269C14.1693 9.67424 13.8088 10.0836 13.5869 10.5693C13.3649 11.0551 13.2915 11.5955 13.3757 12.1229C13.46 12.6502 13.6982 13.141 14.0604 13.5334C14.4226 13.9258 14.8927 14.2025 15.4116 14.3286C16.083 14.48 16.7178 14.7625 17.2798 15.1597C17.8418 15.557 18.3198 16.0613 18.6865 16.6436C19.0532 17.226 19.3014 17.875 19.4168 18.5535C19.5322 19.2319 19.5125 19.9265 19.359 20.5973C19.2681 21.0298 19.2843 21.478 19.4062 21.9027C19.5282 22.3275 19.7522 22.7159 20.0587 23.0343C20.3652 23.3527 20.7449 23.5912 21.1647 23.7292C21.5845 23.8672 22.0317 23.9004 22.4673 23.826C22.9029 23.7515 23.3137 23.5717 23.6639 23.3021C24.0141 23.0325 24.293 22.6814 24.4764 22.2793C24.6597 21.8772 24.742 21.4364 24.716 20.9952C24.6899 20.5541 24.5564 20.126 24.327 19.7482Z" fill="white"/>
<path d="M7.66628 16.74C8.14034 16.9987 8.68084 17.1099 9.21848 17.0592C9.75616 17.0086 10.2664 16.7985 10.6838 16.4558C11.1012 16.1131 11.4067 15.6536 11.5611 15.1361C11.7155 14.6186 11.7118 14.0668 11.5504 13.5514C11.3458 12.8943 11.2729 12.2033 11.3359 11.5179C11.3989 10.8326 11.5966 10.1664 11.9176 9.55759C12.2385 8.94879 12.6765 8.40932 13.2064 7.97011C13.7363 7.53089 14.3476 7.20063 15.0054 6.99816C15.5156 6.83837 15.967 6.53123 16.303 6.11545C16.639 5.69966 16.8446 5.19377 16.8937 4.66144C16.9429 4.1291 16.8335 3.59411 16.5793 3.12384C16.3252 2.65353 15.9376 2.2689 15.4653 2.01838C14.9931 1.76786 14.4573 1.6626 13.9254 1.71589C13.3934 1.76916 12.8891 1.97856 12.4759 2.31778C12.0627 2.65698 11.7591 3.11083 11.6033 3.62219C11.4474 4.13355 11.4463 4.67959 11.6 5.19158C12.0036 6.51338 11.8672 7.94127 11.2205 9.16268C10.5738 10.3841 9.4696 11.2995 8.14953 11.7087C7.62841 11.8599 7.16464 12.1639 6.81828 12.5816C6.47192 12.9993 6.2589 13.5113 6.20683 14.0514C6.15479 14.5915 6.26607 15.1347 6.52628 15.6109C6.78649 16.087 7.18362 16.4741 7.66628 16.7219V16.74Z" fill="white"/>
<path d="M14.6386 16.297C14.2783 16.3097 13.9242 16.3941 13.5969 16.5453C13.2696 16.6965 12.9758 16.9115 12.7327 17.1777C11.7894 18.1867 10.4849 18.7811 9.1046 18.8311C7.72423 18.881 6.38024 18.3824 5.36648 17.4442C5.10454 17.1984 4.79637 17.0072 4.45987 16.8816C4.1234 16.7559 3.76529 16.6985 3.40638 16.7125C2.96461 16.7334 2.53462 16.862 2.15401 17.0873C1.77337 17.3125 1.45369 17.6275 1.22282 18.0047C0.991909 18.3819 0.856876 18.8099 0.829431 19.2513C0.802019 19.6927 0.883026 20.1341 1.06545 20.537C1.24787 20.9399 1.5261 21.2921 1.87592 21.5627C2.22573 21.8333 2.63644 22.0142 3.07223 22.0895C3.50803 22.1649 3.95568 22.1325 4.37604 21.9951C4.79644 21.8576 5.17678 21.6194 5.48389 21.3012C5.95108 20.7954 6.51345 20.3867 7.1388 20.0986C7.76419 19.8104 8.44025 19.6485 9.12829 19.6221C9.81634 19.5957 10.5029 19.7052 11.1485 19.9445C11.7941 20.1838 12.3862 20.5482 12.8908 21.0167C13.2193 21.3135 13.6155 21.5253 14.0448 21.6335C14.4741 21.7418 14.9234 21.7433 15.3534 21.6377C15.7834 21.5322 16.1809 21.3229 16.5113 21.0282C16.8417 20.7335 17.0949 20.3623 17.2487 19.9471C17.4024 19.5319 17.4521 19.0854 17.3934 18.6465C17.3346 18.2077 17.1693 17.79 16.9117 17.4298C16.6542 17.0697 16.3124 16.7781 15.9161 16.5806C15.5198 16.3832 15.0812 16.2858 14.6386 16.297Z" fill="white"/>
<path d="M43.1182 19.9239C44.5733 19.9239 45.4803 19.3957 45.8391 18.3392C45.9586 17.9406 46.0483 17.4323 46.1081 16.8144L45.3308 16.7845C45.2112 18.1598 44.8623 18.8575 44.2843 18.8774C43.8458 18.8375 43.6265 18.3392 43.6265 17.3824V11.1335C43.6265 8.64185 42.4704 7.10702 40.1582 6.52896C39.5602 6.38943 38.9124 6.31967 38.2147 6.31967C35.5038 6.31967 33.7996 6.90769 33.1019 8.08373C32.9225 8.38273 32.8328 8.70165 32.8328 9.04051C32.8328 9.8179 33.2016 10.3063 33.9391 10.5056C34.1185 10.5654 34.3079 10.5953 34.5072 10.5953C35.3643 10.5953 35.9424 10.1767 36.2413 9.33951C36.2812 9.21991 36.341 9.02058 36.4207 8.74152C36.64 7.9442 36.9191 7.44588 37.2579 7.24655C37.4772 7.14688 37.7264 7.09705 38.0054 7.09705C38.9423 7.09705 39.5103 7.66514 39.7097 8.80132C39.7894 9.21991 39.8293 9.71823 39.8293 10.2963V12.2397C34.7065 12.3394 32.1352 13.6948 32.1152 16.3061C32.1152 18.0801 32.8926 19.2163 34.4474 19.7146C34.9058 19.8541 35.4141 19.9239 35.9723 19.9239C37.6666 19.9239 38.9124 19.286 39.7097 18.0103C39.8691 17.7512 39.9987 17.4821 40.0984 17.203C40.517 18.9173 41.5236 19.8242 43.1182 19.9239ZM37.527 18.6382C36.5304 18.5983 36.0221 17.7113 36.0022 15.9772C36.0022 14.6616 36.5403 13.8045 37.6167 13.4058C38.1948 13.2264 38.9323 13.1168 39.8293 13.0769V15.9772C39.4505 17.3725 38.8426 18.2296 38.0054 18.5485C37.826 18.6083 37.6666 18.6382 37.527 18.6382Z" fill="white"/>
<path d="M54.5996 18.8475H52.387V12.3892C52.5265 10.2963 53.0348 9.02058 53.9119 8.56212C54.0514 8.50232 54.181 8.47242 54.3006 8.47242C54.5198 8.47242 54.759 8.70165 55.0182 9.16011C55.377 9.79796 55.7656 10.1966 56.1842 10.3561C56.3836 10.4159 56.6028 10.4458 56.842 10.4458C57.6393 10.4458 58.2074 10.0671 58.5463 9.30961C58.6659 9.05048 58.7257 8.78138 58.7257 8.50232C58.7257 7.50568 58.2373 6.87779 57.2606 6.61866C57.0214 6.55886 56.7723 6.52896 56.5131 6.52896C55.2773 6.52896 54.1909 7.01732 53.2541 7.99403C52.8355 8.47242 52.5166 8.99068 52.2973 9.5488L52.088 6.76816H46.8556V7.54554H48.5898V17.2927C48.5898 18.1698 48.241 18.6681 47.5433 18.7877C47.344 18.8276 47.1148 18.8475 46.8556 18.8475V19.6249H55.3172C55.3172 19.1664 55.1876 18.9173 54.9285 18.8774C54.8288 18.8575 54.7192 18.8475 54.5996 18.8475Z" fill="white"/>
<path d="M63.8684 13.1367C63.8684 10.3461 64.2072 8.56212 64.885 7.78474C65.3035 7.32628 65.8916 7.09705 66.649 7.09705C67.9247 7.09705 68.742 7.74487 69.1008 9.04051C69.34 9.8777 69.4596 11.2032 69.4596 13.0171C69.4596 15.9273 69.0808 17.7612 68.3234 18.5186C67.8849 18.9372 67.3168 19.1465 66.6191 19.1465C65.3833 19.1465 64.586 18.5087 64.2272 17.2329C63.988 16.3758 63.8684 15.0104 63.8684 13.1367ZM66.7985 6.31967C64.3468 6.31967 62.4631 7.15685 61.1475 8.83122C60.2306 10.0272 59.7722 11.4225 59.7722 13.0171C59.7722 15.2696 60.5495 17.0535 62.1043 18.3691C63.3402 19.4056 64.8152 19.9239 66.5294 19.9239C68.8815 19.9239 70.7253 19.0767 72.0608 17.3824C73.0575 16.1067 73.5558 14.6317 73.5558 12.9573C73.5558 10.7248 72.7684 8.98071 71.1937 7.72494C69.9778 6.78809 68.5127 6.31967 66.7985 6.31967Z" fill="white"/>
<path d="M81.1203 18.8475H80.5821L80.612 11.1335C80.7316 9.55877 81.2499 8.53222 82.1668 8.05383C82.4259 7.9143 82.6851 7.84454 82.9442 7.84454C83.6817 7.84454 84.2099 8.30299 84.5289 9.21991C84.6684 9.65843 84.7381 10.1468 84.7381 10.685V17.2927C84.7381 18.11 84.5488 18.5983 84.1701 18.7578C83.9907 18.8176 83.7415 18.8475 83.4226 18.8475V19.6249H89.7612C89.7612 19.1664 89.6317 18.9173 89.3726 18.8774C89.253 18.8575 89.1334 18.8475 89.0138 18.8475H88.5055V11.1933V10.984C88.645 9.32954 89.1832 8.30299 90.12 7.90434C90.3194 7.8246 90.5187 7.78474 90.718 7.78474C91.5751 7.78474 92.1632 8.29303 92.4821 9.30961C92.6017 9.7282 92.6615 10.1867 92.6615 10.685V17.2927C92.6615 18.11 92.4721 18.5983 92.0934 18.7578C91.914 18.8176 91.6648 18.8475 91.3459 18.8475V19.6249H98.163C98.163 19.1664 98.0334 18.9173 97.7743 18.8774C97.6547 18.8575 97.5351 18.8475 97.4155 18.8475H96.4288V11.0438C96.4288 9.09034 95.781 7.70501 94.4853 6.88776C93.8874 6.50903 93.2395 6.31967 92.5419 6.31967C90.6084 6.3396 89.1633 7.26648 88.2065 9.10031C87.7281 7.68507 86.8809 6.79806 85.665 6.43927C85.3461 6.35953 85.0272 6.31967 84.7082 6.31967C82.7947 6.3396 81.3994 7.21665 80.5223 8.95081L80.3728 6.76816H75.0507V7.54554H76.7849V17.2927C76.7849 18.2097 76.3564 18.7179 75.4992 18.8176C75.3597 18.8375 75.2102 18.8475 75.0507 18.8475V19.6249H81.8379C81.8379 19.1664 81.7083 18.9173 81.4492 18.8774C81.3496 18.8575 81.2399 18.8475 81.1203 18.8475Z" fill="white"/>
<path d="M105.997 18.8475H104.89V6.76816H99.3589V7.54554H101.093V17.2927C101.093 18.1698 100.744 18.6681 100.047 18.7877C99.8473 18.8276 99.6181 18.8475 99.3589 18.8475V19.6249H106.714C106.714 19.1664 106.585 18.9173 106.326 18.8774C106.226 18.8575 106.116 18.8475 105.997 18.8475ZM105.159 2.85134C105.159 1.97429 104.771 1.32647 103.993 0.907881C103.654 0.708551 103.296 0.608887 102.917 0.608887C102.06 0.608887 101.412 0.997579 100.974 1.77496C100.794 2.11382 100.704 2.47261 100.704 2.85134C100.704 3.72839 101.093 4.36624 101.87 4.7649C102.209 4.9443 102.558 5.034 102.917 5.034C103.794 5.034 104.442 4.66524 104.86 3.92772C105.06 3.58886 105.159 3.23007 105.159 2.85134Z" fill="white"/>
<path d="M107.462 19.6249H111.976V18.8475H109.884L113.471 14.3626L116.461 18.8475H114.817V19.6249H121.724C121.724 19.1664 121.564 18.9173 121.245 18.8774C121.166 18.8575 121.076 18.8475 120.976 18.8475H120.378L116.013 12.2696L118.973 8.41263C119.372 7.87444 119.88 7.57544 120.498 7.51564C120.797 7.47578 120.976 7.35618 121.036 7.15685C121.056 7.03725 121.066 6.90769 121.066 6.76816H116.641V7.54554H118.584L115.505 11.5222L112.873 7.54554H114.518V6.76816H107.581V7.54554H108.957L113.023 13.645L109.495 17.9804C109.076 18.4788 108.568 18.7777 107.97 18.8774C107.691 18.8973 107.531 19.0169 107.492 19.2362C107.472 19.3558 107.462 19.4854 107.462 19.6249Z" fill="white"/>
</svg>
