<svg width="78" height="24" viewBox="0 0 78 24" fill="none" xmlns="http://www.w3.org/2000/svg">
<path d="M14.5061 5.9506C11.5559 5.9506 5.6463 3.559 5.6463 0.608643H5.60261C5.60261 2.96997 6.54062 5.23458 8.2103 6.90432C9.87998 8.57406 12.1445 9.51216 14.5059 9.51225C15.9227 9.51225 17.2815 10.0751 18.2834 11.0769C19.2852 12.0787 19.8481 13.4375 19.8481 14.8543C19.8484 16.2711 19.2858 17.6301 18.2841 18.6321C17.2825 19.6342 15.9238 20.1973 14.507 20.1976C13.0901 20.1978 11.7312 19.6352 10.7291 18.6336C9.72709 17.6319 9.16398 16.2732 9.1637 14.8564C9.16367 13.6872 8.93334 12.5294 8.48586 11.4492C8.03837 10.3689 7.38251 9.38741 6.5557 8.56065C5.72889 7.73389 4.74734 7.07809 3.66708 6.63067C2.58683 6.18326 1.42901 5.953 0.259766 5.95305V5.99639C3.20957 5.99639 5.60118 11.9034 5.60228 14.8542H5.60172C5.60171 16.6152 6.12386 18.3366 7.10217 19.8008C8.08049 21.265 9.47101 22.4063 11.0979 23.0801C12.7248 23.7541 14.515 23.9306 16.2422 23.587C17.9693 23.2435 19.5558 22.3956 20.8011 21.1505C22.0462 19.9053 22.8943 18.3189 23.238 16.5917C23.5817 14.8647 23.4054 13.0745 22.7316 11.4475C22.0578 9.82055 20.9167 8.42992 19.4526 7.45148C17.9884 6.47304 16.267 5.95073 14.5061 5.9506Z" fill="white"/>
<path d="M32.1244 22.4866C32.1244 22.7629 32.373 23.0115 32.6493 23.0115H34.0308C34.3624 23.0115 34.8045 22.901 34.8045 22.4866V14.2529H40.0818V22.4866C40.0818 22.7629 40.3305 23.0115 40.6068 23.0115H42.1817C42.458 23.0115 42.7066 22.7629 42.7066 22.4866V12.4845C42.7066 12.2082 42.458 11.9596 42.1817 11.9596H34.8045V8.53346C34.8045 6.62699 35.9649 5.82572 37.0977 5.82572C38.3135 5.82572 39.7226 6.57173 39.9713 6.70988C40.2752 6.87566 40.5239 6.90329 40.6896 6.57173L41.3804 5.32838C41.5185 5.10734 41.4633 4.77578 41.2422 4.63763C40.662 4.27845 38.949 3.39429 37.0977 3.39429C34.3624 3.39429 32.1244 5.24549 32.1244 8.53346V11.9596H30.8258C30.5218 11.9596 30.3008 12.1806 30.3008 12.4845V13.7279C30.3008 14.0042 30.5218 14.2529 30.8258 14.2529H32.1244V22.4866Z" fill="white"/>
<path d="M46.297 22.4866C46.297 22.7629 46.5457 23.0115 46.822 23.0115H48.1482C48.5903 23.0115 48.8942 22.9563 48.8942 22.4866V15.4686C49.0047 15.2752 49.7784 14.1147 51.3809 14.1147C51.7401 14.1147 52.1546 14.2252 52.3203 14.3081C52.569 14.4186 52.8453 14.3634 52.9835 14.0594L53.6466 12.7056C53.9505 11.9596 52.6795 11.6833 51.6296 11.6833C49.6126 11.6833 48.5903 13.0095 48.3969 13.2858L48.093 12.3464C48.0377 12.1253 47.8167 11.9596 47.6232 11.9596H46.822C46.5457 11.9596 46.297 12.2082 46.297 12.4845V22.4866Z" fill="white"/>
<path d="M54.6967 17.4856C54.6967 20.663 56.9071 23.2878 60.2503 23.2878C62.1016 23.2878 63.5383 22.5971 64.3396 21.9064C64.6711 21.6301 64.5882 21.409 64.3948 21.188L63.6212 20.138C63.4002 19.8617 63.2068 19.9723 62.8752 20.1657C62.3226 20.5249 61.4108 20.9669 60.4161 20.9669C58.6202 20.9669 57.3216 19.5025 57.2387 18.0105H64.754C65.0027 18.0105 65.2237 17.8171 65.2514 17.5408C65.279 17.3474 65.3066 16.9882 65.3066 16.7948C65.3066 13.8384 63.0962 11.6833 60.2227 11.6833C56.9071 11.6833 54.6967 14.3634 54.6967 17.4856ZM57.3768 16.2698C57.5426 14.8883 58.7031 13.8108 60.1951 13.8108C61.549 13.8108 62.6542 14.9436 62.737 16.2698H57.3768Z" fill="white"/>
<path d="M67.9639 22.4866C67.9639 22.7629 68.2125 23.0115 68.4888 23.0115H70.0637C70.34 23.0115 70.5887 22.7629 70.5887 22.4866V4.19556C70.5887 3.91926 70.34 3.67059 70.0637 3.67059H68.4888C68.2125 3.67059 67.9639 3.91926 67.9639 4.19556V22.4866Z" fill="white"/>
<path d="M75.4408 7.45589C76.3526 7.45589 77.0709 6.73751 77.0709 5.85335C77.0709 4.94156 76.3526 4.22319 75.4408 4.22319C74.5566 4.22319 73.8659 4.94156 73.8659 5.85335C73.8659 6.73751 74.5566 7.45589 75.4408 7.45589ZM74.1698 22.4866C74.1698 22.7629 74.4185 23.0115 74.6948 23.0115H76.2697C76.546 23.0115 76.7946 22.7629 76.7946 22.4866V12.4845C76.7946 12.2082 76.546 11.9596 76.2697 11.9596H74.6948C74.4185 11.9596 74.1698 12.2082 74.1698 12.4845V22.4866Z" fill="white"/>
</svg>
