<svg width="141" height="30" viewBox="0 0 141 30" fill="none" xmlns="http://www.w3.org/2000/svg">
<path d="M16.4507 5.63405L17.5611 4.52357C19.7418 2.34288 23.292 2.2889 25.4853 4.45703C26.3163 5.28041 26.8686 6.34342 27.0646 7.49677C27.2605 8.65013 27.0901 9.83588 26.5775 10.8875C26.3316 11.3898 26.2488 11.9564 26.3405 12.5081C26.4323 13.0598 26.694 13.569 27.0893 13.9647C27.8161 13.2363 28.3921 12.3717 28.7846 11.4206C29.1771 10.4694 29.3785 9.4502 29.377 8.42121C29.3755 7.39223 29.1714 6.37361 28.7762 5.42355C28.3809 4.47348 27.8024 3.6106 27.0735 2.8842C24.0067 -0.165374 19.0286 -0.104688 15.9703 2.95345L5.38555 13.5379L4.51538 12.6678C2.29771 10.4501 2.28357 6.82507 4.54037 4.6468C5.37574 3.84299 6.44001 3.31827 7.5863 3.14506C8.7326 2.97186 9.90438 3.15871 10.94 3.67983C11.4126 3.92204 11.9497 4.00869 12.4746 3.9274C12.9994 3.8461 13.4852 3.60103 13.8624 3.22718L13.8894 3.20034C13.8978 3.192 13.9045 3.18207 13.909 3.17113C13.9136 3.16021 13.9159 3.14849 13.9159 3.13665C13.9159 3.12481 13.9136 3.11309 13.909 3.10217C13.9045 3.09124 13.8978 3.08132 13.8894 3.07297C12.4326 1.65272 10.4803 0.854972 8.44576 0.848522C6.4112 0.842074 4.45391 1.62743 2.9881 3.03841C-0.169429 6.08656 -0.158146 11.1553 2.94526 14.2587L13.5269 24.8404L12.4028 25.9644C10.2221 28.1451 6.6718 28.1991 4.47869 26.0309C3.64763 25.2076 3.09536 24.1445 2.89944 22.9912C2.70353 21.8379 2.87379 20.6522 3.38634 19.6005C3.63224 19.0982 3.71511 18.5316 3.6234 17.98C3.53167 17.4283 3.26992 16.9189 2.87472 16.5232C2.14796 17.2518 1.57185 18.1162 1.17931 19.0673C0.786756 20.0186 0.585463 21.0377 0.586922 22.0668C0.588381 23.0957 0.792562 24.1144 1.18781 25.0644C1.58305 26.0145 2.16161 26.8774 2.89043 27.6038C5.95714 30.6535 10.9354 30.593 13.9937 27.5347L24.5921 16.9361L25.4656 17.8095C27.6463 19.9902 27.7003 23.5404 25.5321 25.7335C24.7088 26.5647 23.6457 27.1169 22.4924 27.3129C21.3391 27.5088 20.1534 27.3385 19.1017 26.8259C18.5992 26.5798 18.0323 26.4969 17.4805 26.5888C16.9286 26.6806 16.4191 26.9427 16.0234 27.3382C16.7519 28.065 17.6164 28.6412 18.5675 29.0337C19.5188 29.4262 20.5379 29.6276 21.567 29.6261C22.5959 29.6246 23.6146 29.4204 24.5646 29.0251C25.5147 28.6299 26.3776 28.0513 27.104 27.3225C30.1537 24.2558 30.093 19.2775 27.0349 16.2194L16.4507 5.63405ZM15.107 23.2595L6.96609 15.1186L14.87 7.21489L23.0109 15.3558L15.107 23.2595Z" fill="white"/>
<path d="M42.8914 24.6849C41.2714 24.6849 40.033 24.2096 39.1761 23.2591C38.326 22.3085 37.8507 21.0098 37.7503 19.3631L40.3208 18.7204C40.448 21.291 41.3049 22.5763 42.8914 22.5763C44.1766 22.5763 44.8193 21.9336 44.8193 20.6483C44.8193 20.2668 44.7657 19.9153 44.6586 19.594C44.5582 19.266 44.4009 18.9681 44.1867 18.7004C43.9725 18.4259 43.7783 18.2083 43.6043 18.0477C43.4302 17.8803 43.1926 17.6761 42.8914 17.4352L39.6782 14.8646C39.0891 14.4027 38.6172 13.817 38.2624 13.1074C37.9143 12.3911 37.7402 11.5778 37.7402 10.6674C37.7402 9.34195 38.1519 8.28762 38.9753 7.50441C39.7987 6.7212 40.8898 6.32959 42.2487 6.32959C43.7081 6.32959 44.8661 6.68773 45.723 7.404C46.5865 8.11358 47.1187 9.12104 47.3195 10.4264C47.3396 10.567 47.3631 10.7611 47.3898 11.0088L44.8193 11.6514C44.8126 11.5376 44.7959 11.3669 44.7691 11.1393C44.6553 10.3226 44.3976 9.66996 43.9959 9.18129C43.6009 8.68593 43.0186 8.43824 42.2487 8.43824C41.6329 8.43824 41.1576 8.61229 40.8229 8.96039C40.4882 9.30179 40.3208 9.78042 40.3208 10.3963C40.3208 11.4071 40.7492 12.2539 41.6061 12.9367L44.8193 15.5072C46.533 16.8929 47.3898 18.5497 47.3898 20.4776C47.3898 21.7964 46.9815 22.8273 46.1648 23.5703C45.3548 24.3134 44.2637 24.6849 42.8914 24.6849Z" fill="white"/>
<path d="M52.7619 22.5763C53.438 22.5763 54.0806 22.4022 54.6898 22.0541V14.1015C54.663 14.0881 54.5961 14.0479 54.489 13.981C54.3819 13.914 54.3049 13.8705 54.258 13.8505C54.2178 13.8237 54.1476 13.7835 54.0471 13.73C53.9467 13.6764 53.8631 13.6396 53.7961 13.6195C53.7359 13.5927 53.6555 13.566 53.5551 13.5392C53.4614 13.5057 53.3677 13.4823 53.274 13.4689C53.187 13.4555 53.0932 13.4488 52.9928 13.4488C52.7786 13.4488 52.5878 13.499 52.4205 13.5994C52.2598 13.6931 52.1259 13.8069 52.0188 13.9408C51.9117 14.0747 51.818 14.2655 51.7377 14.5132C51.664 14.7609 51.6105 14.9818 51.577 15.1759C51.5435 15.3633 51.5168 15.6177 51.4967 15.939C51.4766 16.2536 51.4632 16.498 51.4565 16.672C51.4565 16.8461 51.4565 17.0904 51.4565 17.405C51.4565 17.4184 51.4565 17.4285 51.4565 17.4352C51.4565 17.549 51.4565 17.733 51.4565 17.9874C51.4565 18.2418 51.4565 18.4861 51.4565 18.7204C51.4565 18.9547 51.4565 19.1756 51.4565 19.3832C51.4632 19.8317 51.4833 20.2266 51.5168 20.568C51.5569 20.9027 51.6205 21.2341 51.7075 21.5621C51.8013 21.8834 51.9351 22.1344 52.1092 22.3152C52.2899 22.4892 52.5075 22.5763 52.7619 22.5763ZM54.6898 28.36V23.3494C54.3082 23.7444 53.9133 24.0657 53.5049 24.3134C53.1033 24.5611 52.6414 24.6849 52.1192 24.6849C51.6239 24.6849 51.1821 24.5611 50.7938 24.3134C50.4122 24.059 50.1043 23.7343 49.87 23.3394C49.6424 22.9444 49.4516 22.4792 49.2977 21.9437C49.1504 21.4014 49.0466 20.8693 48.9864 20.3471C48.9328 19.825 48.9061 19.2827 48.9061 18.7204V16.7624C48.9061 16.18 48.9328 15.6478 48.9864 15.1658C49.0399 14.6839 49.137 14.2086 49.2776 13.74C49.4182 13.2714 49.6022 12.8765 49.8298 12.5551C50.0641 12.2271 50.3721 11.9661 50.7536 11.7719C51.1352 11.5711 51.577 11.4707 52.0791 11.4707C52.3669 11.4707 52.6347 11.5109 52.8824 11.5912C53.1367 11.6648 53.3777 11.7853 53.6053 11.9527C53.8396 12.12 54.0204 12.2673 54.1476 12.3945C54.2814 12.515 54.4622 12.6957 54.6898 12.9367V11.6514H57.2603V28.36H54.6898Z" fill="white"/>
<path d="M61.1563 24.6849C60.594 24.6849 60.1422 24.4874 59.8008 24.0925C59.4594 23.6908 59.2887 23.1955 59.2887 22.6064V11.6514H61.8592V21.8232C61.8592 22.0909 61.9395 22.3085 62.1002 22.4758C62.2675 22.6432 62.4818 22.7269 62.7428 22.7269C62.8834 22.7269 63.0206 22.7101 63.1545 22.6767C63.2884 22.6432 63.4189 22.5863 63.5461 22.506C63.68 22.4189 63.7838 22.352 63.8574 22.3051C63.931 22.2516 64.0348 22.1646 64.1687 22.0441C64.3093 21.9236 64.3963 21.8499 64.4298 21.8232V11.6514H67.0003V24.5042H64.4298V23.1185C64.1754 23.3394 63.9879 23.5 63.8674 23.6005C63.7536 23.7009 63.5762 23.8381 63.3353 24.0121C63.0943 24.1795 62.8801 24.3033 62.6926 24.3837C62.5119 24.4573 62.2843 24.5242 62.0098 24.5845C61.7354 24.6514 61.4509 24.6849 61.1563 24.6849Z" fill="white"/>
<path d="M72.764 22.5763C72.9447 22.5763 73.1187 22.5227 73.2861 22.4156C73.4601 22.3085 73.5907 22.2047 73.6777 22.1043C73.7647 22.0039 73.8718 21.87 73.999 21.7027C74.0191 21.6692 74.0358 21.6458 74.0492 21.6324V18.0778C73.9421 18.1514 73.7647 18.2652 73.517 18.4192C73.2694 18.5732 73.0719 18.7004 72.9246 18.8008C72.7773 18.8945 72.5999 19.0284 72.3924 19.2024C72.1849 19.3698 72.0242 19.5338 71.9104 19.6944C71.7966 19.8484 71.6962 20.0392 71.6092 20.2668C71.5222 20.4944 71.4787 20.732 71.4787 20.9797C71.4787 22.0441 71.9071 22.5763 72.764 22.5763ZM71.4787 24.6849C70.7624 24.6849 70.1532 24.377 69.6512 23.7611C69.1558 23.1386 68.9081 22.439 68.9081 21.6625C68.9081 21.04 69.0119 20.4743 69.2194 19.9655C69.4336 19.4568 69.6579 19.0518 69.8922 18.7506C70.1265 18.4426 70.5181 18.128 71.067 17.8067C71.6159 17.4787 72.0309 17.2544 72.3121 17.1339C72.5933 17.0134 73.0819 16.816 73.7781 16.5415C73.8986 16.4946 73.989 16.4578 74.0492 16.431V15.5072C74.0492 14.8579 73.9589 14.3559 73.7781 14.0011C73.5974 13.6396 73.2593 13.4588 72.764 13.4588C72.3221 13.4588 72.0042 13.6128 71.81 13.9207C71.6226 14.222 71.5155 14.6404 71.4887 15.1759C71.482 15.2495 71.4787 15.36 71.4787 15.5072H68.9081C68.9215 14.2755 69.2663 13.2948 69.9424 12.5652C70.6185 11.8355 71.559 11.4707 72.764 11.4707C73.9622 11.4707 74.9027 11.8422 75.5855 12.5853C76.275 13.3216 76.6198 14.2956 76.6198 15.5072V21.291C76.6198 22.6298 76.7302 23.7009 76.9511 24.5042H74.3906L74.0492 22.5763C73.9153 22.844 73.8049 23.0515 73.7179 23.1988C73.6375 23.3461 73.517 23.5302 73.3564 23.7511C73.1957 23.9653 73.0351 24.1326 72.8744 24.2531C72.7137 24.3669 72.5129 24.4673 72.2719 24.5544C72.0309 24.6414 71.7665 24.6849 71.4787 24.6849Z" fill="white"/>
<path d="M78.8389 24.5042V11.6514H81.4094V13.3685C81.6705 12.8597 82.0487 12.4179 82.5441 12.043C83.0461 11.6615 83.6018 11.4707 84.2109 11.4707C84.231 11.4707 84.3682 11.4841 84.6226 11.5109V14.3525C84.1473 14.1651 83.672 14.0714 83.1968 14.0714C82.6612 14.0714 82.2295 14.232 81.9014 14.5533C81.5734 14.8747 81.4094 15.2997 81.4094 15.8286V24.5042H78.8389Z" fill="white"/>
<path d="M89.342 24.6849C88.7194 24.6849 88.1772 24.5778 87.7153 24.3636C87.2601 24.1494 86.8953 23.8716 86.6208 23.5302C86.353 23.1821 86.1355 22.7403 85.9681 22.2047C85.8008 21.6625 85.6836 21.1236 85.6167 20.5881C85.5564 20.0459 85.5196 19.4166 85.5062 18.7004C85.4862 18.138 85.4862 17.5757 85.5062 17.0134C85.5263 16.344 85.5698 15.7516 85.6368 15.2361C85.7104 14.714 85.8342 14.2086 86.0083 13.7199C86.1823 13.2312 86.4066 12.8296 86.6811 12.515C86.9622 12.2003 87.327 11.9493 87.7755 11.7619C88.2308 11.5678 88.7596 11.4707 89.3621 11.4707C89.911 11.4707 90.393 11.5443 90.808 11.6916C91.2297 11.8322 91.5778 12.0497 91.8523 12.3443C92.1334 12.6321 92.3644 12.9534 92.5451 13.3082C92.7326 13.663 92.8731 14.0948 92.9669 14.6035C93.0606 15.1056 93.1242 15.601 93.1576 16.0896C93.1978 16.5783 93.2179 17.1406 93.2179 17.7766V18.0778H88.0768V18.7204C88.0768 18.8075 88.0768 18.9447 88.0768 19.1321C88.0634 19.3798 88.06 19.6375 88.0667 19.9053C88.0801 20.1664 88.0935 20.4241 88.1069 20.6785C88.1203 20.9328 88.1571 21.1772 88.2174 21.4115C88.2776 21.6391 88.3512 21.8399 88.4383 22.0139C88.5253 22.188 88.6458 22.3252 88.7998 22.4256C88.9604 22.5261 89.1478 22.5763 89.3621 22.5763C89.6298 22.5763 89.8507 22.5261 90.0248 22.4256C90.1988 22.3185 90.326 22.1612 90.4063 21.9537C90.4934 21.7462 90.5536 21.5387 90.5871 21.3311C90.6206 21.1236 90.6406 20.8626 90.6473 20.5479V20.0057H93.1978V20.5178C93.1376 21.8901 92.7995 22.9277 92.1836 23.6306C91.5678 24.3335 90.6206 24.6849 89.342 24.6849ZM88.0768 16.7925H90.6273V16.0194C90.6206 15.6779 90.6005 15.3801 90.567 15.1257C90.5335 14.8713 90.4733 14.6169 90.3863 14.3626C90.3059 14.1082 90.1787 13.914 90.0047 13.7802C89.8306 13.6463 89.6164 13.5793 89.3621 13.5793C89.101 13.5793 88.8801 13.6496 88.6993 13.7902C88.5253 13.9308 88.3948 14.135 88.3077 14.4027C88.2274 14.6638 88.1705 14.9215 88.137 15.1759C88.1036 15.4303 88.0835 15.7349 88.0768 16.0896V16.7925Z" fill="white"/>
<path d="M99.8852 24.6849C98.2653 24.6849 97.0268 24.2096 96.17 23.2591C95.3198 22.3085 94.8446 21.0098 94.7441 19.3631L97.3147 18.7204C97.4419 21.291 98.2987 22.5763 99.8852 22.5763C101.171 22.5763 101.813 21.9336 101.813 20.6483C101.813 20.2668 101.76 19.9153 101.652 19.594C101.552 19.266 101.395 18.9681 101.181 18.7004C100.966 18.4259 100.772 18.2083 100.598 18.0477C100.424 17.8803 100.186 17.6761 99.8852 17.4352L96.6721 14.8646C96.083 14.4027 95.611 13.817 95.2562 13.1074C94.9082 12.3911 94.7341 11.5778 94.7341 10.6674C94.7341 9.34195 95.1458 8.28762 95.9692 7.50441C96.7925 6.7212 97.8837 6.32959 99.2426 6.32959C100.702 6.32959 101.86 6.68773 102.717 7.404C103.58 8.11358 104.113 9.12104 104.313 10.4264C104.333 10.567 104.357 10.7611 104.384 11.0088L101.813 11.6514C101.806 11.5376 101.79 11.3669 101.763 11.1393C101.649 10.3226 101.391 9.66996 100.99 9.18129C100.595 8.68593 100.012 8.43824 99.2426 8.43824C98.6267 8.43824 98.1515 8.61229 97.8168 8.96039C97.482 9.30179 97.3147 9.78042 97.3147 10.3963C97.3147 11.4071 97.7431 12.2539 98.6 12.9367L101.813 15.5072C103.527 16.8929 104.384 18.5497 104.384 20.4776C104.384 21.7964 103.975 22.8273 103.159 23.5703C102.349 24.3134 101.258 24.6849 99.8852 24.6849Z" fill="white"/>
<path d="M109.716 24.6849C108.705 24.6849 107.968 24.4272 107.507 23.9117C107.051 23.3963 106.817 22.6164 106.804 21.5721V13.5793H105.518V11.6514H106.804V7.15297H109.374V11.6514H111.302V13.5793H109.374V21.0801C109.374 21.5956 109.444 21.9738 109.585 22.2148C109.726 22.4558 110.01 22.5763 110.439 22.5763C110.626 22.5763 110.914 22.5428 111.302 22.4758V24.5644C110.659 24.6447 110.131 24.6849 109.716 24.6849Z" fill="white"/>
<path d="M119.676 23.48C119.081 24.2833 118.093 24.6849 116.714 24.6849C115.335 24.6849 114.348 24.2833 113.752 23.48C113.156 22.6767 112.858 21.5186 112.858 20.0057V16.1499C112.858 14.637 113.156 13.4789 113.752 12.6756C114.348 11.8723 115.335 11.4707 116.714 11.4707C118.093 11.4707 119.081 11.8723 119.676 12.6756C120.272 13.4789 120.57 14.637 120.57 16.1499V20.0057C120.57 21.5186 120.272 22.6767 119.676 23.48ZM116.232 22.4959C116.373 22.5495 116.534 22.5763 116.714 22.5763C116.895 22.5763 117.052 22.5495 117.186 22.4959C117.327 22.4424 117.441 22.3788 117.528 22.3051C117.621 22.2248 117.698 22.111 117.759 21.9637C117.819 21.8098 117.866 21.6759 117.899 21.5621C117.933 21.4483 117.956 21.2843 117.969 21.0701C117.983 20.8559 117.99 20.6885 117.99 20.568C117.996 20.4408 118 20.2534 118 20.0057V16.1499C118 15.9022 117.996 15.7181 117.99 15.5976C117.99 15.4704 117.983 15.2997 117.969 15.0855C117.956 14.8713 117.933 14.7073 117.899 14.5935C117.866 14.4797 117.819 14.3492 117.759 14.2019C117.698 14.0479 117.621 13.9341 117.528 13.8605C117.441 13.7802 117.327 13.7132 117.186 13.6597C117.052 13.6061 116.895 13.5793 116.714 13.5793C116.534 13.5793 116.373 13.6061 116.232 13.6597C116.098 13.7132 115.985 13.7802 115.891 13.8605C115.804 13.9341 115.73 14.0479 115.67 14.2019C115.61 14.3492 115.563 14.4797 115.529 14.5935C115.496 14.7073 115.473 14.8713 115.459 15.0855C115.446 15.2997 115.436 15.4704 115.429 15.5976C115.429 15.7181 115.429 15.9022 115.429 16.1499V20.0057C115.429 20.2534 115.429 20.4408 115.429 20.568C115.436 20.6885 115.446 20.8559 115.459 21.0701C115.473 21.2843 115.496 21.4483 115.529 21.5621C115.563 21.6759 115.61 21.8098 115.67 21.9637C115.73 22.111 115.804 22.2248 115.891 22.3051C115.985 22.3788 116.098 22.4424 116.232 22.4959Z" fill="white"/>
<path d="M122.679 24.5042V11.6514H125.249V13.0371C125.631 12.689 125.942 12.4246 126.183 12.2439C126.424 12.0564 126.755 11.8824 127.177 11.7217C127.606 11.5544 128.061 11.4707 128.543 11.4707C129.092 11.4707 129.537 11.6715 129.878 12.0732C130.22 12.4748 130.39 12.9668 130.39 13.5492V24.5042H127.82V14.8646C127.82 14.4161 127.756 14.0914 127.629 13.8906C127.502 13.6831 127.244 13.5793 126.856 13.5793C126.635 13.5793 126.414 13.6262 126.193 13.7199C125.979 13.8069 125.818 13.8906 125.711 13.9709C125.604 14.0446 125.45 14.1651 125.249 14.3324V24.5042H122.679Z" fill="white"/>
<path d="M136.275 24.6849C135.652 24.6849 135.11 24.5778 134.648 24.3636C134.193 24.1494 133.828 23.8716 133.553 23.5302C133.286 23.1821 133.068 22.7403 132.901 22.2047C132.733 21.6625 132.616 21.1236 132.549 20.5881C132.489 20.0459 132.452 19.4166 132.439 18.7004C132.419 18.138 132.419 17.5757 132.439 17.0134C132.459 16.344 132.502 15.7516 132.569 15.2361C132.643 14.714 132.767 14.2086 132.941 13.7199C133.115 13.2312 133.339 12.8296 133.614 12.515C133.895 12.2003 134.26 11.9493 134.708 11.7619C135.163 11.5678 135.692 11.4707 136.295 11.4707C136.844 11.4707 137.326 11.5443 137.741 11.6916C138.162 11.8322 138.51 12.0497 138.785 12.3443C139.066 12.6321 139.297 12.9534 139.478 13.3082C139.665 13.663 139.806 14.0948 139.899 14.6035C139.993 15.1056 140.057 15.601 140.09 16.0896C140.13 16.5783 140.15 17.1406 140.15 17.7766V18.0778H135.009V18.7204C135.009 18.8075 135.009 18.9447 135.009 19.1321C134.996 19.3798 134.993 19.6375 134.999 19.9053C135.013 20.1664 135.026 20.4241 135.039 20.6785C135.053 20.9328 135.09 21.1772 135.15 21.4115C135.21 21.6391 135.284 21.8399 135.371 22.0139C135.458 22.188 135.578 22.3252 135.732 22.4256C135.893 22.5261 136.08 22.5763 136.295 22.5763C136.562 22.5763 136.783 22.5261 136.957 22.4256C137.131 22.3185 137.259 22.1612 137.339 21.9537C137.426 21.7462 137.486 21.5387 137.52 21.3311C137.553 21.1236 137.573 20.8626 137.58 20.5479V20.0057H140.13V20.5178C140.07 21.8901 139.732 22.9277 139.116 23.6306C138.5 24.3335 137.553 24.6849 136.275 24.6849ZM135.009 16.7925H137.56V16.0194C137.553 15.6779 137.533 15.3801 137.5 15.1257C137.466 14.8713 137.406 14.6169 137.319 14.3626C137.239 14.1082 137.111 13.914 136.937 13.7802C136.763 13.6463 136.549 13.5793 136.295 13.5793C136.034 13.5793 135.813 13.6496 135.632 13.7902C135.458 13.9308 135.327 14.135 135.24 14.4027C135.16 14.6638 135.103 14.9215 135.07 15.1759C135.036 15.4303 135.016 15.7349 135.009 16.0896V16.7925Z" fill="white"/>
</svg>
