<svg width="141" height="29" viewBox="0 0 141 29" fill="none" xmlns="http://www.w3.org/2000/svg">
<path d="M4.74455 6.99016L6.36566 7.80071C6.66407 7.93105 6.98878 7.98978 7.31389 7.97219C7.63901 7.9546 7.95549 7.86118 8.23805 7.69939L9.77004 6.70241C10.0336 6.51108 10.2482 6.26001 10.3961 5.96979C10.544 5.67957 10.6212 5.35842 10.6211 5.03266L10.5239 3.20485C10.4884 2.88173 10.3775 2.5714 10.2001 2.29897C10.0227 2.02655 9.78374 1.79959 9.50252 1.63642L7.8814 0.805603C7.5836 0.673725 7.2589 0.613825 6.93362 0.630725C6.60834 0.647625 6.29157 0.740839 6.00901 0.90287L4.4771 1.89986C4.21395 2.09167 3.99972 2.34282 3.85188 2.63296C3.70399 2.92306 3.62658 3.244 3.62598 3.5696L3.72324 5.39741C3.75473 5.72496 3.86379 6.04026 4.04139 6.31723C4.21898 6.59424 4.46004 6.82492 4.74455 6.99016Z" fill="white"/>
<path d="M14.5225 9.35658L12.9014 8.52576C12.6037 8.39546 12.2796 8.33678 11.9552 8.35437C11.6307 8.37196 11.3149 8.46537 11.033 8.62708L9.48488 9.62407C9.2227 9.81678 9.00916 10.0681 8.86139 10.3581C8.71363 10.648 8.63565 10.9684 8.63379 11.2938L8.7311 13.1216C8.76656 13.4448 8.87744 13.7551 9.05483 14.0275C9.23227 14.3 9.47118 14.5269 9.75236 14.69L11.3735 15.5006C11.6706 15.6324 11.9946 15.6924 12.3193 15.6755C12.6439 15.6586 12.96 15.5653 13.2418 15.4033L14.7778 14.4064C15.0401 14.2128 15.2536 13.9607 15.4013 13.6701C15.5491 13.3796 15.627 13.0585 15.6289 12.7326L15.5316 10.9088C15.4945 10.5898 15.384 10.2837 15.209 10.0144C15.0339 9.74516 14.799 9.52003 14.5225 9.35658Z" fill="white"/>
<path d="M19.525 17.0654L17.9039 16.2549C17.606 16.1229 17.2814 16.063 16.9561 16.0799C16.6308 16.0968 16.314 16.1901 16.0315 16.3521L14.4996 17.3491C14.2369 17.5413 14.023 17.7926 13.8752 18.0826C13.7273 18.3726 13.6497 18.6933 13.6484 19.0189L13.7457 20.8467C13.7845 21.1646 13.8961 21.4693 14.0719 21.7371C14.2476 22.0049 14.4827 22.2286 14.7589 22.3908L16.3801 23.2013C16.6784 23.3316 17.0031 23.3904 17.3282 23.3728C17.6534 23.3552 17.9698 23.2618 18.2524 23.1L19.7884 22.103C20.0508 21.9108 20.2642 21.6594 20.4114 21.3693C20.5586 21.0792 20.6353 20.7586 20.6355 20.4333L20.5503 18.6379C20.5154 18.3136 20.4043 18.0021 20.2261 17.7288C20.0479 17.4555 19.8077 17.2282 19.525 17.0654Z" fill="white"/>
<path d="M7.5811 12.5259L7.50409 11.1034C7.50596 10.778 7.58389 10.4575 7.7317 10.1676C7.87946 9.87769 8.09296 9.62633 8.35518 9.43362L11.3421 7.49234C11.6239 7.33063 11.9397 7.23722 12.2642 7.21963C12.5887 7.20204 12.9127 7.26076 13.2104 7.39102L14.483 8.03946C14.7808 8.17134 15.1055 8.23128 15.4308 8.21438C15.7561 8.19748 16.0728 8.10423 16.3554 7.9422L17.8873 6.94116C18.1502 6.74914 18.3643 6.49795 18.5121 6.20785C18.66 5.91779 18.7375 5.59701 18.7384 5.27141L18.6412 3.44766C18.6063 3.1238 18.4957 2.81267 18.3182 2.53951C18.1408 2.26631 17.9016 2.03875 17.6199 1.87517L15.9987 1.04435C15.7004 0.914057 15.3757 0.855332 15.0505 0.872921C14.7254 0.89051 14.4089 0.983927 14.1263 1.14567L12.562 2.12645C12.2996 2.31871 12.0861 2.57007 11.939 2.86016C11.7918 3.15026 11.7151 3.47092 11.7149 3.7962L11.7879 5.21872C11.7878 5.54404 11.711 5.8647 11.5638 6.1548C11.4167 6.4449 11.2032 6.69625 10.9409 6.88847L7.95395 8.82976C7.67139 8.99179 7.35467 9.08504 7.02939 9.10194C6.70407 9.11884 6.3794 9.0589 6.08156 8.92703L4.81304 8.28263C4.5152 8.15075 4.19054 8.09085 3.86522 8.10776C3.53994 8.12466 3.22322 8.21787 2.94065 8.3799L1.4087 9.37689C1.14555 9.5687 0.931365 9.81985 0.783479 10.11C0.635593 10.4001 0.558225 10.721 0.557617 11.0466L0.654883 12.8744C0.689413 13.1984 0.799932 13.5097 0.977364 13.7829C1.15484 14.0562 1.39423 14.2836 1.67619 14.4469L3.2973 15.2575C3.59567 15.3878 3.92038 15.4465 4.24549 15.429C4.57061 15.4114 4.88713 15.3179 5.16969 15.1562L6.70164 14.1592C6.96491 13.9738 7.18137 13.7298 7.33404 13.4463C7.48667 13.1628 7.57125 12.8477 7.5811 12.5259Z" fill="white"/>
<path d="M23.6259 11.1564C23.5898 10.8329 23.4787 10.5223 23.3014 10.2493C23.1241 9.97631 22.8855 9.74847 22.6046 9.58396L20.9835 8.77341C20.6851 8.64339 20.3603 8.58483 20.0353 8.60242C19.7102 8.62001 19.3938 8.71326 19.1111 8.87473L17.5791 9.87171C17.3165 10.064 17.1026 10.3152 16.9548 10.6052C16.807 10.8952 16.7293 11.2159 16.7281 11.5415L16.8051 12.968C16.8038 13.2935 16.7262 13.6142 16.5783 13.9042C16.4305 14.1943 16.2167 14.4455 15.954 14.6378L12.9711 16.575C12.6885 16.7368 12.3721 16.8302 12.0469 16.8478C11.7218 16.8654 11.3971 16.8066 11.0987 16.6763L9.82614 16.0279C9.52846 15.8976 9.2044 15.8389 8.87993 15.8565C8.55547 15.8741 8.23967 15.9675 7.9578 16.1292L6.40964 17.1221C6.14746 17.3149 5.93396 17.5662 5.78616 17.8561C5.63839 18.146 5.56046 18.4665 5.55859 18.7919L5.65582 20.6197C5.69132 20.9428 5.80221 21.2532 5.9796 21.5256C6.15703 21.798 6.39594 22.025 6.67716 22.1881L8.29828 23.019C8.59539 23.1508 8.91941 23.2107 9.24404 23.1938C9.56871 23.1769 9.88474 23.0836 10.1666 22.9216L11.7026 21.9247C11.9646 21.7317 12.1779 21.4804 12.3257 21.1905C12.4734 20.9006 12.5515 20.5803 12.5537 20.255L12.4767 18.8283C12.4776 18.5028 12.5551 18.182 12.703 17.8919C12.8508 17.6018 13.0648 17.3506 13.3277 17.1586L16.3106 15.2173C16.5932 15.0553 16.9099 14.9621 17.2352 14.9452C17.5605 14.9283 17.8851 14.9882 18.183 15.12L19.4515 15.7645C19.7493 15.8963 20.0741 15.9562 20.3993 15.9393C20.7246 15.9224 21.0413 15.8292 21.3239 15.6672L22.8599 14.6702C23.1221 14.4777 23.3353 14.2263 23.4825 13.9363C23.6296 13.6462 23.7065 13.3257 23.7069 13.0005L23.6259 11.1564Z" fill="white"/>
<path d="M29.0674 3.85018H35.143L37.9926 15.3831L40.8422 3.85018H47.1867L41.4068 22.3458H34.5516L29.0674 3.85018Z" fill="white"/>
<path d="M53.1514 22.5609C51.6459 22.5609 50.472 22.077 49.6297 21.1092C48.7873 20.1414 48.3662 18.8241 48.3662 17.1574V8.87734H54.0654V16.9154C54.0654 17.3276 54.1729 17.6502 54.388 17.8832C54.621 18.0983 54.9167 18.2058 55.2751 18.2058C55.6336 18.2058 56.001 18.0983 56.3773 17.8832L56.6731 21.62C56.2788 21.9246 55.759 22.1576 55.1138 22.3189C54.4866 22.4802 53.8324 22.5609 53.1514 22.5609ZM51.2158 6.8611C50.3734 6.8611 49.6565 6.60123 49.0651 6.08148C48.4916 5.54382 48.2049 4.88966 48.2049 4.11901C48.2049 3.34836 48.5095 2.70316 49.1189 2.18342C49.7282 1.66368 50.4272 1.40381 51.2158 1.40381C52.0402 1.40381 52.7481 1.67264 53.3395 2.2103C53.9489 2.74797 54.2536 3.3842 54.2536 4.11901C54.2536 4.90759 53.9489 5.56174 53.3395 6.08148C52.7302 6.60123 52.0223 6.8611 51.2158 6.8611Z" fill="white"/>
<path d="M58.2386 9.06552H63.9109V11.8076C64.3232 10.7502 64.8787 9.97059 65.5777 9.46877C66.2946 8.94902 67.128 8.68915 68.0778 8.68915L68.8575 13.0711C67.1548 13.0711 65.9003 13.2593 65.0938 13.6357C64.3052 13.9941 63.9109 14.5676 63.9109 15.3562V22.3458H58.2386V9.06552Z" fill="white"/>
<path d="M77.3065 22.5609C75.8011 22.5609 74.4569 22.2652 73.2741 21.6737C72.1091 21.0823 71.1951 20.2669 70.532 19.2274C69.8868 18.17 69.5642 16.9602 69.5642 15.5981C69.5642 14.2361 69.8957 13.0353 70.5589 11.9958C71.222 10.9384 72.136 10.1229 73.3009 9.54942C74.4838 8.97591 75.828 8.68915 77.3334 8.68915C78.8568 8.68915 80.201 8.98487 81.3659 9.5763C82.5488 10.1498 83.4628 10.9563 84.108 11.9958C84.7532 13.0353 85.0758 14.2361 85.0758 15.5981C85.0758 16.9781 84.7442 18.1968 84.0811 19.2542C83.4359 20.2937 82.5219 21.1092 81.339 21.7006C80.1741 22.2741 78.8299 22.5609 77.3065 22.5609ZM77.3603 18.5284C78.0951 18.5284 78.6955 18.2596 79.1615 17.7219C79.6454 17.1663 79.8873 16.4584 79.8873 15.5981C79.8873 14.7379 79.6454 14.0389 79.1615 13.5012C78.6955 12.9457 78.0951 12.6679 77.3603 12.6679C76.6255 12.6679 76.0162 12.9457 75.5323 13.5012C75.0663 14.0389 74.8333 14.7379 74.8333 15.5981C74.8333 16.4584 75.0663 17.1663 75.5323 17.7219C76.0162 18.2596 76.6255 18.5284 77.3603 18.5284Z" fill="white"/>
<path d="M94.6987 28.5021C93.713 28.5021 92.7721 28.4035 91.876 28.2064L92.3061 24.2276C93.0051 24.3352 93.6503 24.3889 94.2417 24.3889C95.3529 24.3889 96.1952 24.0574 96.7687 23.3943C97.3422 22.7491 97.6827 21.6558 97.7903 20.1145C96.7329 21.602 95.1199 22.3458 92.9513 22.3458C91.7684 22.3458 90.6752 22.0411 89.6715 21.4318C88.6858 20.8224 87.8973 19.998 87.3058 18.9585C86.7323 17.9191 86.4456 16.781 86.4456 15.5444C86.4456 14.2898 86.7323 13.1428 87.3058 12.1033C87.8793 11.0459 88.659 10.2125 89.6447 9.60318C90.6483 8.99383 91.7416 8.68915 92.9244 8.68915C94.0177 8.68915 94.9675 8.97591 95.774 9.54942C96.5985 10.105 97.1361 10.8577 97.387 11.8076V8.68915H103.059V18.9317C103.059 22.068 102.342 24.4427 100.909 26.0557C99.4929 27.6866 97.4229 28.5021 94.6987 28.5021ZM94.6987 18.3133C95.4156 18.3133 96.0339 18.0624 96.5536 17.5606C97.0734 17.0409 97.3512 16.4315 97.387 15.7325V15.5175C97.3512 14.8364 97.0644 14.2361 96.5268 13.7163C96.007 13.1966 95.3977 12.9367 94.6987 12.9367C93.9639 12.9367 93.3366 13.2055 92.8169 13.7432C92.2971 14.2629 92.0373 14.8902 92.0373 15.625C92.0373 16.3598 92.2971 16.9961 92.8169 17.5337C93.3366 18.0535 93.9639 18.3133 94.6987 18.3133Z" fill="white"/>
<path d="M111.724 22.5609C110.559 22.5609 109.466 22.2562 108.444 21.6469C107.441 21.0196 106.634 20.1772 106.025 19.1198C105.416 18.0445 105.111 16.8527 105.111 15.5444C105.111 14.254 105.416 13.089 106.025 12.0496C106.634 10.9921 107.45 10.1677 108.471 9.5763C109.493 8.98487 110.577 8.68915 111.724 8.68915C112.656 8.68915 113.516 8.94902 114.305 9.46877C115.111 9.98851 115.721 10.7681 116.133 11.8076V8.68915H121.778V22.3458H116.133V19.8457C115.237 21.6558 113.767 22.5609 111.724 22.5609ZM113.472 18.3133C114.188 18.3133 114.798 18.0624 115.3 17.5606C115.819 17.0409 116.097 16.4315 116.133 15.7325V15.5175C116.097 14.8006 115.81 14.1912 115.273 13.6894C114.753 13.1876 114.153 12.9367 113.472 12.9367C112.719 12.9367 112.074 13.2055 111.536 13.7432C111.016 14.2629 110.756 14.8902 110.756 15.625C110.756 16.3777 111.025 17.014 111.563 17.5337C112.101 18.0535 112.737 18.3133 113.472 18.3133Z" fill="white"/>
<path d="M124.501 9.06552H129.905V11.8076C130.944 9.72864 132.593 8.68915 134.851 8.68915C136.572 8.68915 137.916 9.30747 138.884 10.5441C139.87 11.7628 140.363 13.4564 140.363 15.625V22.3458H134.717V15.0605C134.717 14.2898 134.547 13.6984 134.206 13.2862C133.884 12.874 133.427 12.6679 132.835 12.6679C132.405 12.6679 131.984 12.8112 131.572 13.098C131.16 13.3668 130.819 13.7611 130.55 14.2809C130.299 14.8006 130.174 15.392 130.174 16.0551V22.3458H124.501V9.06552Z" fill="white"/>
</svg>
