<svg width="40" height="44" viewBox="0 0 40 44" fill="none" xmlns="http://www.w3.org/2000/svg">
<path d="M15.1465 0.229492H24.623C27.2488 0.229492 29.3857 2.36657 29.3857 4.99219V5.72949H30.4619C33.6007 5.72964 36.1542 8.28395 36.1543 11.4229V19.4619C36.1541 20.0357 35.6891 20.501 35.1152 20.501H32.7705V26.2656L32.9443 26.3096L38.752 27.7607C39.2146 27.8764 39.5391 28.2927 39.5391 28.7695V40.1924C39.539 42.1649 37.9343 43.7704 35.9619 43.7705H3.80762C1.83508 43.7704 0.22955 42.1648 0.229492 40.1924V28.7695C0.229492 28.2926 0.555046 27.8763 1.01758 27.7607L6.8252 26.3086L6.99902 26.2656V20.501H4.6543C4.08051 20.501 3.61446 20.0357 3.61426 19.4619V11.4229C3.61439 8.28395 6.16878 5.72956 9.30762 5.72949H10.3838V4.99219C10.3838 2.36657 12.5208 0.229492 15.1465 0.229492ZM6.71387 28.4795L2.48242 29.5371L2.30859 29.5811V40.1924C2.30859 41.0192 2.98079 41.6913 3.80762 41.6914H6.99902V28.4082L6.71387 28.4795ZM9.07812 41.6914H30.6914V20.501H27.6934V22.4229C27.6934 23.6955 26.6574 24.7314 25.3848 24.7314H24.5381C23.2655 24.7312 22.2305 23.6954 22.2305 22.4229V20.501H17.5391V22.4229C17.5391 23.6955 16.5032 24.7314 15.2305 24.7314H14.3848C13.1121 24.7314 12.0762 23.6955 12.0762 22.4229V20.501H9.07812V41.6914ZM14.1543 22.6533H15.4609V16.2705H14.1543V22.6533ZM24.3086 22.6533H25.6143V16.2705H24.3086V22.6533ZM9.30762 7.80859C7.31444 7.80866 5.69349 9.42969 5.69336 11.4229V18.4219H12.0762V16.5C12.0762 15.2274 13.1121 14.1914 14.3848 14.1914H15.2305C16.5032 14.1914 17.539 15.2274 17.5391 16.5V18.4219H22.2305V16.5C22.2305 15.2275 23.2656 14.1917 24.5381 14.1914H25.3848C26.6574 14.1914 27.6933 15.2274 27.6934 16.5V18.4219H34.0762V11.4229C34.076 9.42974 32.455 7.80874 30.4619 7.80859H9.30762ZM15.1465 2.30859C13.6664 2.30859 12.4629 3.51224 12.4629 4.99219V5.72949H27.3066V4.99219C27.3066 3.51223 26.103 2.30859 24.623 2.30859H15.1465ZM37.4609 29.5811L37.2871 29.5371L33.0557 28.4795L32.7705 28.4082V41.6914H35.9619C36.7887 41.6913 37.4609 41.0192 37.4609 40.1924V29.5811Z" fill="black" stroke="#E4FE35" stroke-width="0.459916"/>
<path d="M12.2695 26.8833H27.5C28.074 26.8833 28.5391 27.3495 28.5391 27.9233V38.0767C28.5391 38.6506 28.074 39.1157 27.5 39.1157H12.2695C11.6956 39.1157 11.2295 38.6506 11.2295 38.0767V27.9233C11.2295 27.3494 11.6956 26.8833 12.2695 26.8833ZM13.3086 37.0376H26.4609V28.9624H13.3086V37.0376Z" fill="black" stroke="#E4FE35" stroke-width="0.459916"/>
</svg>
