<svg width="46" height="46" viewBox="0 0 46 46" fill="none" xmlns="http://www.w3.org/2000/svg">
<path d="M29.5137 27.6911C30.3691 26.8357 31.5506 26.3071 32.8558 26.3071C34.1611 26.3071 35.3426 26.8357 36.198 27.6911" stroke="black" stroke-width="2" stroke-miterlimit="10" stroke-linecap="round" stroke-linejoin="round"/>
<path d="M26.1729 23.6193C27.8829 21.9084 30.246 20.8506 32.8564 20.8506C35.4668 20.8506 37.8298 21.9084 39.5399 23.6193" stroke="black" stroke-width="2" stroke-miterlimit="10" stroke-linecap="round" stroke-linejoin="round"/>
<circle cx="32.8566" cy="31.7636" r="1.36929" fill="black"/>
<path d="M44.9993 8.86522C44.9993 6.68466 43.2316 4.91699 41.051 4.91699H38.565H27.5994H24.6601C22.4796 4.91699 20.7119 6.68466 20.7119 8.86522V10.3545H22.7705C24.4117 10.3545 25.9857 11.0064 27.1462 12.167C28.3068 13.3275 29.8807 13.9794 31.5219 13.9794H34.1891C35.8304 13.9794 37.4043 13.3275 38.5649 12.167C39.7254 11.0064 41.2993 10.3545 42.9406 10.3545H44.9992V8.86522H44.9993Z" stroke="black" stroke-width="2" stroke-miterlimit="10" stroke-linecap="round" stroke-linejoin="round"/>
<path d="M20.7119 10.355V41.0518C20.7119 43.2323 22.4796 45 24.66 45H41.0514C43.2319 45 44.9995 43.2323 44.9995 41.0518V10.355" stroke="black" stroke-width="2" stroke-miterlimit="10" stroke-linecap="round" stroke-linejoin="round"/>
<path d="M44.9995 39.1091H20.7119" stroke="black" stroke-width="2" stroke-miterlimit="10" stroke-linecap="round" stroke-linejoin="round"/>
<path d="M12.7084 30.1203H3.53228C2.13378 30.1203 1 28.9865 1 27.588V18.4119C1 17.0134 2.13378 15.8796 3.53228 15.8796H12.7084C14.107 15.8796 15.2407 17.0134 15.2407 18.4119V27.588C15.2407 28.9865 14.1069 30.1203 12.7084 30.1203Z" stroke="black" stroke-width="2" stroke-miterlimit="10" stroke-linecap="round" stroke-linejoin="round"/>
<path d="M12.6843 15.8797L11.2237 1H5.01625L3.55566 15.8797" stroke="black" stroke-width="2" stroke-miterlimit="10" stroke-linecap="round" stroke-linejoin="round"/>
<path d="M12.6843 30.1204L11.2237 45H5.01625L3.55566 30.1204" stroke="black" stroke-width="2" stroke-miterlimit="10" stroke-linecap="round" stroke-linejoin="round"/>
<path d="M6.49609 24.6431H9.74516" stroke="black" stroke-width="2" stroke-miterlimit="10" stroke-linecap="round" stroke-linejoin="round"/>
<path d="M4.28613 35.6887H11.9542" stroke="black" stroke-width="2" stroke-miterlimit="10" stroke-linecap="round" stroke-linejoin="round"/>
</svg>
