<svg width="52" height="52" viewBox="0 0 52 52" fill="none" xmlns="http://www.w3.org/2000/svg">
<path d="M44.2196 9.87939H36.7405V5.19251C36.7405 2.71814 34.7275 0.705078 32.2531 0.705078H20.0872C17.6128 0.705078 15.5997 2.71814 15.5997 5.19251V9.87939H8.12066C3.99671 9.87939 0.641602 13.2345 0.641602 17.3584V41.2914C0.641602 44.9032 3.2152 47.9251 6.62485 48.62V50.2663C6.62485 51.0924 7.29457 51.7621 8.12066 51.7621C8.94675 51.7621 9.61647 51.0924 9.61647 50.2663V48.7705H42.7238V50.2663C42.7238 51.0924 43.3935 51.7621 44.2196 51.7621C45.0457 51.7621 45.7154 51.0924 45.7154 50.2663V48.62C49.1251 47.9252 51.6986 44.9033 51.6986 41.2914V17.3584C51.6986 13.2345 48.3435 9.87939 44.2196 9.87939ZM18.5913 5.19251C18.5913 4.36772 19.2624 3.6967 20.0872 3.6967H32.2531C33.0779 3.6967 33.7489 4.36772 33.7489 5.19251V9.87939H18.5913V5.19251ZM9.61647 45.7789H8.12066C5.64629 45.7789 3.63323 43.7658 3.63323 41.2914V17.3584C3.63323 14.8841 5.64629 12.871 8.12066 12.871H9.61647V45.7789ZM39.7322 45.7789H12.6081V12.871C13.2544 12.871 38.5776 12.871 39.7322 12.871V45.7789ZM48.707 41.2914C48.707 43.7658 46.694 45.7789 44.2196 45.7789H42.7238V12.871H44.2196C46.694 12.871 48.707 14.8841 48.707 17.3584V41.2914Z" fill="black"/>
<path d="M35.2447 21.8459H29.2614C28.4353 21.8459 27.7656 22.5157 27.7656 23.3418V29.325C27.7656 30.1511 28.4353 30.8208 29.2614 30.8208H35.2447C36.0708 30.8208 36.7405 30.1511 36.7405 29.325V23.3418C36.7405 22.5157 36.0708 21.8459 35.2447 21.8459ZM33.7489 27.8292H30.7572V24.8376H33.7489V27.8292Z" fill="black"/>
<path d="M28.8979 37.5734C24.7767 33.696 26.174 35.0481 22.3849 31.259C22.1044 30.9785 21.7239 30.8208 21.3273 30.8208H17.0964C16.2703 30.8208 15.6006 31.4905 15.6006 32.3166V36.5475C15.6006 36.9442 15.7581 37.3246 16.0388 37.6051L22.385 43.9513C22.9691 44.5355 23.9162 44.5355 24.5004 43.9513C27.0692 41.3825 26.1337 42.2785 28.882 39.7671C29.5238 39.1805 29.5322 38.17 28.8979 37.5734ZM23.4426 40.7782L18.5922 35.9278V33.8124H20.7077C24.2528 37.3575 22.8012 35.945 25.673 38.6468C24.1872 40.0045 24.8168 39.404 23.4426 40.7782Z" fill="black"/>
<path d="M20.088 15.8625C17.6136 15.8625 15.6006 17.8756 15.6006 20.35C15.6006 22.8244 17.6136 24.8374 20.088 24.8374C22.5624 24.8374 24.5755 22.8244 24.5755 20.35C24.5755 17.8756 22.5624 15.8625 20.088 15.8625ZM20.088 21.8458C19.2632 21.8458 18.5922 21.1748 18.5922 20.35C18.5922 19.5252 19.2632 18.8542 20.088 18.8542C20.9128 18.8542 21.5838 19.5252 21.5838 20.35C21.5838 21.1748 20.9128 21.8458 20.088 21.8458Z" fill="black"/>
</svg>
