<svg width="43" height="34" viewBox="0 0 43 34" fill="none" xmlns="http://www.w3.org/2000/svg">
<path d="M35.3236 2.87261C32.6395 1.64065 29.8069 0.762184 26.8969 0.25919C26.8703 0.25402 26.8428 0.257415 26.8182 0.268887C26.7938 0.280358 26.7735 0.299312 26.7605 0.323016C26.3983 0.9699 25.9946 1.81344 25.7117 2.4793C22.5747 2.00282 19.3836 2.00282 16.2465 2.4793C15.9317 1.74151 15.5763 1.02165 15.1822 0.323016C15.1686 0.299843 15.1483 0.281338 15.1239 0.269943C15.0996 0.258548 15.0724 0.254798 15.0459 0.25919C12.1355 0.761138 9.3028 1.63965 6.61913 2.87261C6.59641 2.88214 6.57715 2.89839 6.56394 2.91918C1.19566 10.9388 -0.275788 18.7601 0.446997 26.4831C0.448753 26.5023 0.454401 26.5209 0.463596 26.5377C0.472791 26.5546 0.48534 26.5695 0.500473 26.5813C3.62553 28.8966 7.12131 30.6641 10.8385 31.8082C10.8648 31.8158 10.8926 31.8152 10.9185 31.8067C10.9444 31.798 10.967 31.7817 10.9834 31.7598C11.7804 30.673 12.4911 29.526 13.0983 28.3201C13.1068 28.3037 13.1117 28.2857 13.1127 28.2671C13.1137 28.2487 13.1107 28.2301 13.1041 28.2128C13.0974 28.1956 13.0871 28.1799 13.0739 28.1669C13.0607 28.1539 13.045 28.1439 13.0276 28.1373C11.9122 27.7105 10.8324 27.196 9.79835 26.5986C9.77941 26.5877 9.76344 26.5722 9.75192 26.5536C9.74039 26.535 9.73365 26.5137 9.73228 26.4918C9.73092 26.4701 9.73497 26.4482 9.74409 26.4283C9.75322 26.4083 9.76711 26.3911 9.78456 26.3777C10.0023 26.2148 10.2163 26.0469 10.4263 25.8741C10.4446 25.8591 10.4668 25.8497 10.4902 25.8467C10.5137 25.8436 10.5375 25.8471 10.5591 25.8568C17.335 28.9499 24.6697 28.9499 31.3664 25.8568C31.388 25.8467 31.4123 25.8431 31.4361 25.8462C31.4599 25.8493 31.4824 25.8589 31.501 25.8741C31.7079 26.0432 31.9252 26.2156 32.1443 26.3777C32.1616 26.3909 32.1753 26.4079 32.1846 26.4275C32.1937 26.4471 32.198 26.4686 32.197 26.4901C32.196 26.5116 32.1897 26.5327 32.1786 26.5513C32.1678 26.5699 32.1525 26.5856 32.1341 26.5968C31.1023 27.1999 30.0214 27.7146 28.903 28.1355C28.8856 28.1423 28.8697 28.1526 28.8565 28.1657C28.8434 28.1789 28.8331 28.1948 28.8265 28.212C28.8197 28.2295 28.8168 28.2481 28.8178 28.2669C28.819 28.2855 28.8238 28.3037 28.8323 28.3201C29.4534 29.5243 30.1639 30.6697 30.9454 31.7582C30.9615 31.7803 30.9841 31.797 31.0101 31.8055C31.0361 31.8142 31.0641 31.8146 31.0903 31.8065C34.8138 30.6659 38.3152 28.8984 41.4439 26.5796C41.4593 26.5689 41.472 26.555 41.4815 26.5389C41.491 26.5228 41.497 26.505 41.4992 26.4864C42.3616 17.556 40.0536 9.79858 35.3771 2.92262C35.366 2.89944 35.3471 2.88276 35.3236 2.87261ZM14.1109 21.7789C12.0702 21.7789 10.39 19.9072 10.39 17.606C10.39 15.3066 12.0392 13.4332 14.1109 13.4332C16.1982 13.4332 17.8646 15.3238 17.8318 17.6078C17.8318 19.9072 16.1827 21.7789 14.1109 21.7789ZM27.868 21.7789C25.8274 21.7789 24.1471 19.9072 24.1471 17.606C24.1471 15.3066 25.7944 13.4332 27.868 13.4332C29.9553 13.4332 31.6217 15.3238 31.5889 17.6078C31.5889 19.9072 29.9571 21.7789 27.868 21.7789Z" fill="white"/>
</svg>
