<svg width="32" height="36" viewBox="0 0 32 36" fill="none" xmlns="http://www.w3.org/2000/svg">
<path d="M30.8559 9.12373C28.9712 9.12413 27.1378 8.50954 25.6342 7.37329C24.5693 6.57434 23.703 5.54047 23.1027 4.35207C22.5023 3.16368 22.1845 1.85282 22.1734 0.521484H16.5683V15.8465L16.5613 24.236C16.5607 25.3026 16.2232 26.3419 15.597 27.2053C14.9709 28.0687 14.088 28.7125 13.0744 29.0445C12.3825 29.2756 11.6488 29.3546 10.9235 29.2758C10.1983 29.1969 9.4987 28.9622 8.87264 28.5877C8.12946 28.1449 7.51165 27.5197 7.0778 26.7712C6.64393 26.0229 6.40837 25.1759 6.39344 24.311C6.38088 23.5003 6.56284 22.6983 6.92407 21.9722C7.28532 21.2464 7.81529 20.6176 8.46959 20.1387C9.12389 19.6596 9.88348 19.3445 10.6847 19.2196C11.4859 19.0947 12.3053 19.1636 13.0744 19.4206V13.7282C12.5407 13.6468 12.0016 13.606 11.4617 13.6062C9.93586 13.6005 8.42635 13.92 7.0336 14.5431C5.64086 15.1663 4.39679 16.079 3.38422 17.2204C1.81244 18.9762 0.876634 21.2096 0.727178 23.5613C0.629097 25.0709 0.858265 26.5837 1.399 27.9965C1.93973 29.4093 2.77928 30.6886 3.86019 31.7468C4.18098 32.0607 4.51399 32.3536 4.86791 32.6325C6.02247 33.52 7.34498 34.1639 8.75552 34.5255C10.166 34.8874 11.6353 34.9593 13.0744 34.7369C15.3381 34.4049 17.4361 33.357 19.0614 31.7468C20.0555 30.7724 20.8463 29.6103 21.3877 28.3279C21.9291 27.0453 22.2104 25.6682 22.2153 24.2761L22.1804 11.7459C24.6716 13.6677 27.7306 14.7072 30.8768 14.7011V9.11675C30.8768 9.12373 30.8559 9.12373 30.8559 9.12373Z" fill="white"/>
</svg>
