<svg width="40" height="28" viewBox="0 0 40 28" fill="none" xmlns="http://www.w3.org/2000/svg">
<path d="M38.2452 4.449C38.0302 3.63994 37.6053 2.90193 37.0139 2.30945C36.4225 1.71697 35.6852 1.29097 34.8764 1.07444C31.9029 0.270508 19.9698 0.270508 19.9698 0.270508C19.9698 0.270508 8.03689 0.270508 5.06332 1.07444C4.25464 1.29097 3.51735 1.71697 2.92589 2.30945C2.33443 2.90193 1.90971 3.63994 1.69457 4.449C0.892578 7.42258 0.892578 13.6274 0.892578 13.6274C0.892578 13.6274 0.892578 19.8322 1.69457 22.8058C2.13431 24.4562 3.42059 25.7425 5.06332 26.1803C8.03689 26.9843 19.9698 26.9843 19.9698 26.9843C19.9698 26.9843 31.9029 26.9843 34.8764 26.1803C35.6852 25.9637 36.4225 25.5378 37.0139 24.9452C37.6053 24.3528 38.0302 23.6147 38.2452 22.8058C39.0472 19.8322 39.0472 13.6274 39.0472 13.6274C39.0472 13.6274 39.0472 7.42258 38.2452 4.449ZM16.1537 19.3479V7.90687L26.0681 13.6274L16.1537 19.3479Z" fill="white"/>
</svg>
