<svg width="40" height="40" viewBox="0 0 40 40" fill="none" xmlns="http://www.w3.org/2000/svg">
<path d="M30.2489 11.249H27.8838" stroke="black" stroke-width="2" stroke-miterlimit="10" stroke-linecap="round" stroke-linejoin="round"/>
<path d="M9.75098 11.249H12.1161" stroke="black" stroke-width="2" stroke-miterlimit="10" stroke-linecap="round" stroke-linejoin="round"/>
<path d="M27.2476 4.00195L25.5752 5.67435" stroke="black" stroke-width="2" stroke-miterlimit="10" stroke-linecap="round" stroke-linejoin="round"/>
<path d="M12.7529 4.00195L14.4253 5.67435" stroke="black" stroke-width="2" stroke-miterlimit="10" stroke-linecap="round" stroke-linejoin="round"/>
<path d="M20 1V3.36515" stroke="black" stroke-width="2" stroke-miterlimit="10" stroke-linecap="round" stroke-linejoin="round"/>
<path d="M19.9999 27.9629L21.793 31.5961L25.8026 32.1788L22.9012 35.0069L23.5862 39.0002L19.9999 37.1148L16.4136 39.0002L17.0986 35.0069L14.1973 32.1788L18.2068 31.5961L19.9999 27.9629Z" stroke="black" stroke-width="2" stroke-miterlimit="10" stroke-linecap="round" stroke-linejoin="round"/>
<path d="M6.80265 22.4443L8.59582 26.0776L12.6054 26.6602L9.70405 29.4884L10.3889 33.4817L6.80265 31.5963L3.21646 33.4817L3.90132 29.4884L1 26.6602L5.00955 26.0776L6.80265 22.4443Z" stroke="black" stroke-width="2" stroke-miterlimit="10" stroke-linecap="round" stroke-linejoin="round"/>
<path d="M33.1973 22.4443L31.4041 26.0776L27.3945 26.6602L30.2959 29.4884L29.611 33.4817L33.1973 31.5963L36.7834 33.4817L36.0986 29.4884L38.9999 26.6602L34.9904 26.0776L33.1973 22.4443Z" stroke="black" stroke-width="2" stroke-miterlimit="10" stroke-linecap="round" stroke-linejoin="round"/>
<path d="M14.4814 22.2859V20.7091C14.4814 17.6612 16.9522 15.1904 20.0001 15.1904C23.048 15.1904 25.5188 17.6612 25.5188 20.7091V22.2859H14.4814Z" stroke="black" stroke-width="2" stroke-miterlimit="10" stroke-linecap="round" stroke-linejoin="round"/>
<path d="M19.9996 15.1911C18.4756 15.1911 17.2402 13.9557 17.2402 12.4318V10.855C17.2402 9.3311 18.4756 8.0957 19.9996 8.0957C21.5235 8.0957 22.7589 9.3311 22.7589 10.855V12.4318C22.7589 13.9557 21.5235 15.1911 19.9996 15.1911Z" stroke="black" stroke-width="2" stroke-miterlimit="10" stroke-linecap="round" stroke-linejoin="round"/>
</svg>
