<svg width="24" height="23" viewBox="0 0 24 23" fill="none" xmlns="http://www.w3.org/2000/svg">
<g clip-path="url(#clip0_23_1139)">
<path fill-rule="evenodd" clip-rule="evenodd" d="M12.2836 0.79755L15.0249 6.6292L21.4183 7.42629C22.0103 7.50257 22.4434 8.04883 22.3674 8.64114C22.329 8.92982 22.1849 9.18007 21.9798 9.35522L17.3258 13.7136L18.5406 20.0461C18.6542 20.6383 18.2672 21.2078 17.6747 21.3216C17.4167 21.367 17.1586 21.3216 16.9459 21.2001L11.2964 18.0947L5.65515 21.2001C5.12384 21.4962 4.46317 21.299 4.17479 20.7748C4.04541 20.5395 4.0152 20.2812 4.06096 20.0461L5.2679 13.7136L0.568365 9.30183C0.135055 8.89169 0.112172 8.20109 0.522306 7.76807C0.70449 7.57063 0.940361 7.46444 1.18298 7.43393V7.42629L7.57614 6.6292L10.3171 0.79755C10.568 0.250998 11.2137 0.0233412 11.7599 0.273881C12.0028 0.387709 12.1777 0.577521 12.2836 0.79755Z" fill="url(#paint0_linear_23_1139)"/>
</g>
<defs>
<linearGradient id="paint0_linear_23_1139" x1="0.228516" y1="0.172363" x2="0.228516" y2="21.3389" gradientUnits="userSpaceOnUse">
<stop offset="0.230769" stop-color="#E2E2E2"/>
<stop offset="0.956731" stop-color="#E2E2E2"/>
</linearGradient>
<clipPath id="clip0_23_1139">
<rect width="23.4214" height="21.86" fill="white" transform="translate(0.228516 0.172363)"/>
</clipPath>
</defs>
</svg>
