<svg width="50" height="23" viewBox="0 0 50 23" fill="none" xmlns="http://www.w3.org/2000/svg">
<path d="M11.54 22.3C9.16 22.3 7.16 21.86 5.54 20.98C3.92 20.1 2.7 18.85 1.88 17.23C1.06 15.61 0.65 13.69 0.65 11.47C0.65 9.23 1.09 7.3 1.97 5.68C2.85 4.04 4.11 2.78 5.75 1.9C7.41 0.999999 9.4 0.549999 11.72 0.549999C13.26 0.549999 14.61 0.759999 15.77 1.18C16.93 1.58 17.95 2.17 18.83 2.95L17.54 5.95C16.9 5.45 16.29 5.05 15.71 4.75C15.13 4.45 14.53 4.24 13.91 4.12C13.29 3.98 12.57 3.91 11.75 3.91C9.43 3.91 7.67 4.57 6.47 5.89C5.29 7.19 4.7 9.06 4.7 11.5C4.7 13.94 5.26 15.8 6.38 17.08C7.52 18.36 9.3 19 11.72 19C12.54 19 13.36 18.92 14.18 18.76C15.02 18.6 15.84 18.37 16.64 18.07L15.92 19.69V13.36H10.97V10.54H19.13V20.71C18.15 21.21 16.98 21.6 15.62 21.88C14.26 22.16 12.9 22.3 11.54 22.3ZM23.217 22V10.72C23.217 10.08 23.197 9.43 23.157 8.77C23.137 8.11 23.087 7.47 23.007 6.85H26.637L27.057 10.99H26.457C26.657 9.99 26.987 9.16 27.447 8.5C27.927 7.84 28.507 7.35 29.187 7.03C29.867 6.71 30.607 6.55 31.407 6.55C31.767 6.55 32.057 6.57 32.277 6.61C32.497 6.63 32.717 6.68 32.937 6.76L32.907 10.06C32.527 9.9 32.197 9.8 31.917 9.76C31.657 9.72 31.327 9.7 30.927 9.7C30.067 9.7 29.337 9.88 28.737 10.24C28.157 10.6 27.717 11.1 27.417 11.74C27.137 12.38 26.997 13.11 26.997 13.93V22H23.217ZM41.63 22.3C40.07 22.3 38.72 21.98 37.58 21.34C36.44 20.7 35.55 19.79 34.91 18.61C34.29 17.43 33.98 16.03 33.98 14.41C33.98 12.79 34.29 11.4 34.91 10.24C35.55 9.06 36.44 8.15 37.58 7.51C38.72 6.87 40.07 6.55 41.63 6.55C43.19 6.55 44.54 6.87 45.68 7.51C46.84 8.15 47.73 9.06 48.35 10.24C48.99 11.4 49.31 12.79 49.31 14.41C49.31 16.03 48.99 17.43 48.35 18.61C47.73 19.79 46.84 20.7 45.68 21.34C44.54 21.98 43.19 22.3 41.63 22.3ZM41.63 19.42C42.81 19.42 43.75 19.01 44.45 18.19C45.15 17.35 45.5 16.09 45.5 14.41C45.5 12.73 45.15 11.48 44.45 10.66C43.75 9.84 42.81 9.43 41.63 9.43C40.45 9.43 39.51 9.84 38.81 10.66C38.11 11.48 37.76 12.73 37.76 14.41C37.76 16.09 38.11 17.35 38.81 18.19C39.51 19.01 40.45 19.42 41.63 19.42Z" fill="#12A366"/>
</svg>
