<svg width="131" height="23" viewBox="0 0 131 23" fill="none" xmlns="http://www.w3.org/2000/svg">
<path d="M19.13 10.45V20.71C18.15 21.19 16.97 21.57 15.59 21.85C14.21 22.13 12.8 22.27 11.36 22.27C9.16 22.27 7.25 21.83 5.63 20.95C4.01 20.07 2.77 18.81 1.91 17.17C1.05 15.53 0.62 13.57 0.62 11.29C0.62 9.05 1.05 7.11 1.91 5.47C2.77 3.83 3.99 2.57 5.57 1.69C7.17 0.809999 9.04 0.37 11.18 0.37C12.68 0.37 14.08 0.589999 15.38 1.03C16.7 1.47 17.8 2.09 18.68 2.89L17.36 5.71C16.36 4.93 15.38 4.37 14.42 4.03C13.46 3.69 12.41 3.52 11.27 3.52C9.07 3.52 7.4 4.18 6.26 5.5C5.14 6.82 4.58 8.75 4.58 11.29C4.58 13.91 5.16 15.89 6.32 17.23C7.48 18.55 9.21 19.21 11.51 19.21C12.91 19.21 14.29 19.02 15.65 18.64V13.24H11.03V10.45H19.13ZM31.3777 6.49C31.9577 6.49 32.4577 6.57 32.8777 6.73L32.8477 10.15C32.2077 9.89 31.5477 9.76 30.8677 9.76C29.5877 9.76 28.6077 10.13 27.9277 10.87C27.2677 11.61 26.9377 12.59 26.9377 13.81V22H23.2177V11.14C23.2177 9.54 23.1377 8.11 22.9777 6.85H26.4877L26.7877 9.52C27.1677 8.54 27.7677 7.79 28.5877 7.27C29.4077 6.75 30.3377 6.49 31.3777 6.49ZM41.5428 22.24C40.0028 22.24 38.6428 21.92 37.4628 21.28C36.3028 20.64 35.4028 19.73 34.7628 18.55C34.1428 17.35 33.8328 15.95 33.8328 14.35C33.8328 12.75 34.1428 11.36 34.7628 10.18C35.4028 8.98 36.3028 8.06 37.4628 7.42C38.6428 6.78 40.0028 6.46 41.5428 6.46C43.0628 6.46 44.4028 6.78 45.5628 7.42C46.7228 8.06 47.6128 8.98 48.2328 10.18C48.8728 11.36 49.1928 12.75 49.1928 14.35C49.1928 15.95 48.8728 17.35 48.2328 18.55C47.6128 19.73 46.7228 20.64 45.5628 21.28C44.4028 21.92 43.0628 22.24 41.5428 22.24ZM41.5128 19.3C42.7928 19.3 43.7628 18.89 44.4228 18.07C45.1028 17.23 45.4428 15.99 45.4428 14.35C45.4428 12.73 45.1028 11.5 44.4228 10.66C43.7428 9.8 42.7828 9.37 41.5428 9.37C40.2828 9.37 39.3128 9.8 38.6328 10.66C37.9528 11.5 37.6128 12.73 37.6128 14.35C37.6128 15.99 37.9428 17.23 38.6028 18.07C39.2828 18.89 40.2528 19.3 41.5128 19.3Z" fill="#12A366"/>
<path d="M59.1767 22.21C57.6567 22.21 56.3267 21.89 55.1867 21.25C54.0667 20.61 53.2067 19.71 52.6067 18.55C52.0067 17.37 51.7067 16 51.7067 14.44C51.7067 12.88 52.0167 11.5 52.6367 10.3C53.2767 9.1 54.1667 8.17 55.3067 7.51C56.4467 6.85 57.7767 6.52 59.2967 6.52C60.3567 6.52 61.3767 6.7 62.3567 7.06C63.3367 7.4 64.1267 7.87 64.7267 8.47L63.7967 10.66C62.3767 9.54 60.9467 8.98 59.5067 8.98C58.0467 8.98 56.9067 9.46 56.0867 10.42C55.2667 11.36 54.8567 12.69 54.8567 14.41C54.8567 16.13 55.2667 17.46 56.0867 18.4C56.9067 19.32 58.0467 19.78 59.5067 19.78C60.9867 19.78 62.4167 19.22 63.7967 18.1L64.7267 20.29C64.0867 20.89 63.2667 21.36 62.2667 21.7C61.2867 22.04 60.2567 22.21 59.1767 22.21ZM80.4774 14.5H69.6774C69.7774 18.04 71.3874 19.81 74.5074 19.81C76.2474 19.81 77.8374 19.24 79.2774 18.1L80.2074 20.26C79.5274 20.86 78.6574 21.34 77.5974 21.7C76.5574 22.04 75.5074 22.21 74.4474 22.21C72.0274 22.21 70.1274 21.52 68.7474 20.14C67.3674 18.74 66.6774 16.83 66.6774 14.41C66.6774 12.87 66.9774 11.5 67.5774 10.3C68.1974 9.1 69.0574 8.17 70.1574 7.51C71.2574 6.85 72.5074 6.52 73.9074 6.52C75.9474 6.52 77.5474 7.18 78.7074 8.5C79.8874 9.82 80.4774 11.65 80.4774 13.99V14.5ZM73.9674 8.77C72.8274 8.77 71.8974 9.11 71.1774 9.79C70.4574 10.47 69.9974 11.44 69.7974 12.7H77.8074C77.6874 11.42 77.2974 10.45 76.6374 9.79C75.9774 9.11 75.0874 8.77 73.9674 8.77ZM91.4844 6.52C91.9444 6.52 92.4244 6.59 92.9244 6.73L92.8644 9.49C92.3244 9.29 91.7344 9.19 91.0944 9.19C89.7144 9.19 88.6744 9.61 87.9744 10.45C87.2944 11.27 86.9544 12.31 86.9544 13.57V22H83.9544V11.14C83.9544 9.56 83.8744 8.14 83.7144 6.88H86.5344L86.8044 9.61C87.2044 8.61 87.8244 7.85 88.6644 7.33C89.5044 6.79 90.4444 6.52 91.4844 6.52ZM95.2337 6.88H98.2337V22H95.2337V6.88ZM98.4737 0.279999V3.46H94.9637V0.279999H98.4737ZM115.575 14.5H104.775C104.875 18.04 106.485 19.81 109.605 19.81C111.345 19.81 112.935 19.24 114.375 18.1L115.305 20.26C114.625 20.86 113.755 21.34 112.695 21.7C111.655 22.04 110.605 22.21 109.545 22.21C107.125 22.21 105.225 21.52 103.845 20.14C102.465 18.74 101.775 16.83 101.775 14.41C101.775 12.87 102.075 11.5 102.675 10.3C103.295 9.1 104.155 8.17 105.255 7.51C106.355 6.85 107.605 6.52 109.005 6.52C111.045 6.52 112.645 7.18 113.805 8.5C114.985 9.82 115.575 11.65 115.575 13.99V14.5ZM109.065 8.77C107.925 8.77 106.995 9.11 106.275 9.79C105.555 10.47 105.095 11.44 104.895 12.7H112.905C112.785 11.42 112.395 10.45 111.735 9.79C111.075 9.11 110.185 8.77 109.065 8.77ZM124.332 22.21C121.692 22.21 119.612 21.57 118.092 20.29L118.992 18.1C120.572 19.3 122.382 19.9 124.422 19.9C125.462 19.9 126.252 19.73 126.792 19.39C127.332 19.03 127.602 18.53 127.602 17.89C127.602 17.35 127.412 16.93 127.032 16.63C126.672 16.31 126.052 16.04 125.172 15.82L122.652 15.22C121.332 14.94 120.322 14.45 119.622 13.75C118.942 13.03 118.602 12.14 118.602 11.08C118.602 9.72 119.142 8.62 120.222 7.78C121.322 6.94 122.772 6.52 124.572 6.52C125.652 6.52 126.672 6.69 127.632 7.03C128.612 7.37 129.442 7.85 130.122 8.47L129.192 10.6C127.732 9.44 126.192 8.86 124.572 8.86C123.592 8.86 122.832 9.05 122.292 9.43C121.752 9.79 121.482 10.3 121.482 10.96C121.482 11.48 121.652 11.9 121.992 12.22C122.332 12.54 122.872 12.79 123.612 12.97L126.192 13.6C127.632 13.92 128.692 14.43 129.372 15.13C130.072 15.81 130.422 16.7 130.422 17.8C130.422 19.16 129.872 20.24 128.772 21.04C127.692 21.82 126.212 22.21 124.332 22.21Z" fill="white"/>
</svg>
