<svg width="223" height="59" viewBox="0 0 223 59" fill="none" xmlns="http://www.w3.org/2000/svg">
<path d="M0.393358 58V0.783497H10.5094V48.7741H40.2911V58H0.393358ZM72.4938 58.6474C66.613 58.6474 61.5954 57.4065 57.441 54.9247C53.3407 52.4429 50.1845 48.99 47.9724 44.5659C45.8143 40.1418 44.7353 35.0972 44.7353 29.4322C44.7353 23.6593 45.8413 18.5878 48.0533 14.2176C50.2654 9.79354 53.4486 6.34059 57.6029 3.85878C61.7572 1.32302 66.7748 0.0551396 72.6556 0.0551396C78.5364 0.0551396 83.527 1.29604 87.6274 3.77785C91.7817 6.25966 94.9649 9.71262 97.177 14.1367C99.389 18.5069 100.495 23.5514 100.495 29.2704C100.495 34.9354 99.389 39.9799 97.177 44.404C95.0189 48.8281 91.8357 52.308 87.6274 54.8438C83.4731 57.3795 78.4285 58.6474 72.4938 58.6474ZM72.6556 49.2597C76.756 49.2597 80.1011 48.3155 82.6908 46.4272C85.2805 44.5389 87.1688 42.084 88.3558 39.0627C89.5967 36.0414 90.2171 32.8312 90.2171 29.4322C90.2171 26.8425 89.8664 24.3607 89.1651 21.9868C88.5176 19.6129 87.4656 17.4818 86.0088 15.5934C84.6061 13.7051 82.7987 12.2214 80.5866 11.1424C78.3746 10.0094 75.7309 9.44285 72.6556 9.44285C68.6092 9.44285 65.2641 10.387 62.6205 12.2754C60.0308 14.1637 58.1155 16.6185 56.8745 19.6399C55.6336 22.6612 55.0132 25.9253 55.0132 29.4322C55.0132 32.8852 55.6336 36.1223 56.8745 39.1436C58.1155 42.165 60.0308 44.6198 62.6205 46.5081C65.2641 48.3425 68.6092 49.2597 72.6556 49.2597ZM134.756 58.6474C128.929 58.6474 123.992 57.4335 119.946 55.0056C115.899 52.5238 112.824 49.0979 110.72 44.7277C108.67 40.3036 107.645 35.2051 107.645 29.4322C107.645 25.0621 108.211 21.0966 109.344 17.5357C110.531 13.9749 112.258 10.8996 114.524 8.30985C116.843 5.66619 119.676 3.64297 123.021 2.24021C126.366 0.783497 130.224 0.0551396 134.594 0.0551396C138.856 0.0551396 142.66 0.75652 146.005 2.15928C149.404 3.50809 152.182 5.50433 154.34 8.14799C156.552 10.7917 158.036 14.0288 158.791 17.8594H148.352C147.92 16.025 147.084 14.4874 145.843 13.2465C144.656 12.0056 143.145 11.0614 141.311 10.414C139.476 9.76657 137.372 9.44285 134.998 9.44285C131.923 9.44285 129.306 9.98238 127.148 11.0614C124.99 12.1405 123.237 13.6242 121.888 15.5125C120.539 17.3469 119.541 19.478 118.894 21.9059C118.3 24.2798 118.003 26.8155 118.003 29.5131C118.003 33.02 118.57 36.2842 119.703 39.3055C120.89 42.3268 122.724 44.7547 125.206 46.5891C127.742 48.3695 131.033 49.2597 135.079 49.2597C137.939 49.2597 140.448 48.7741 142.606 47.803C144.818 46.8319 146.544 45.4291 147.785 43.5947C149.08 41.7064 149.781 39.3864 149.889 36.6349H133.218V27.8946H160.086V31.6173C160.086 37.1744 159.115 41.9761 157.173 46.0226C155.231 50.069 152.371 53.1982 148.594 55.4103C144.872 57.5684 140.259 58.6474 134.756 58.6474ZM194.993 58.6474C189.112 58.6474 184.095 57.4065 179.94 54.9247C175.84 52.4429 172.684 48.99 170.472 44.5659C168.314 40.1418 167.235 35.0972 167.235 29.4322C167.235 23.6593 168.341 18.5878 170.553 14.2176C172.765 9.79354 175.948 6.34059 180.102 3.85878C184.257 1.32302 189.274 0.0551396 195.155 0.0551396C201.036 0.0551396 206.026 1.29604 210.127 3.77785C214.281 6.25966 217.464 9.71262 219.676 14.1367C221.888 18.5069 222.994 23.5514 222.994 29.2704C222.994 34.9354 221.888 39.9799 219.676 44.404C217.518 48.8281 214.335 52.308 210.127 54.8438C205.972 57.3795 200.928 58.6474 194.993 58.6474ZM195.155 49.2597C199.255 49.2597 202.6 48.3155 205.19 46.4272C207.78 44.5389 209.668 42.084 210.855 39.0627C212.096 36.0414 212.716 32.8312 212.716 29.4322C212.716 26.8425 212.366 24.3607 211.664 21.9868C211.017 19.6129 209.965 17.4818 208.508 15.5934C207.105 13.7051 205.298 12.2214 203.086 11.1424C200.874 10.0094 198.23 9.44285 195.155 9.44285C191.108 9.44285 187.763 10.387 185.12 12.2754C182.53 14.1637 180.615 16.6185 179.374 19.6399C178.133 22.6612 177.512 25.9253 177.512 29.4322C177.512 32.8852 178.133 36.1223 179.374 39.1436C180.615 42.165 182.53 44.6198 185.12 46.5081C187.763 48.3425 191.108 49.2597 195.155 49.2597Z" fill="black"/>
</svg>
