<svg width="122" height="33" viewBox="0 0 122 33" fill="none" xmlns="http://www.w3.org/2000/svg">
<path d="M0.476 32V0.891999H5.976V26.984H22.168V32H0.476ZM39.6762 32.352C36.4789 32.352 33.7509 31.6773 31.4922 30.328C29.2629 28.9787 27.5469 27.1013 26.3442 24.696C25.1709 22.2907 24.5842 19.548 24.5842 16.468C24.5842 13.3293 25.1856 10.572 26.3882 8.196C27.5909 5.79067 29.3216 3.91333 31.5802 2.564C33.8389 1.18533 36.5669 0.495999 39.7642 0.495999C42.9616 0.495999 45.6749 1.17067 47.9042 2.52C50.1629 3.86933 51.8936 5.74667 53.0962 8.152C54.2989 10.528 54.9002 13.2707 54.9002 16.38C54.9002 19.46 54.2989 22.2027 53.0962 24.608C51.9229 27.0133 50.1922 28.9053 47.9042 30.284C45.6456 31.6627 42.9029 32.352 39.6762 32.352ZM39.7642 27.248C41.9936 27.248 43.8122 26.7347 45.2202 25.708C46.6282 24.6813 47.6549 23.3467 48.3002 21.704C48.9749 20.0613 49.3122 18.316 49.3122 16.468C49.3122 15.06 49.1216 13.7107 48.7402 12.42C48.3882 11.1293 47.8162 9.97067 47.0242 8.944C46.2616 7.91733 45.2789 7.11067 44.0762 6.524C42.8736 5.908 41.4362 5.6 39.7642 5.6C37.5642 5.6 35.7456 6.11333 34.3082 7.14C32.9002 8.16667 31.8589 9.50133 31.1842 11.144C30.5096 12.7867 30.1722 14.5613 30.1722 16.468C30.1722 18.3453 30.5096 20.1053 31.1842 21.748C31.8589 23.3907 32.9002 24.7253 34.3082 25.752C35.7456 26.7493 37.5642 27.248 39.7642 27.248ZM73.5273 32.352C70.3593 32.352 67.6753 31.692 65.4753 30.372C63.2753 29.0227 61.6033 27.16 60.4593 24.784C59.3447 22.3787 58.7873 19.6067 58.7873 16.468C58.7873 14.092 59.0953 11.936 59.7113 10C60.3567 8.064 61.2953 6.392 62.5273 4.984C63.7887 3.54666 65.3287 2.44667 67.1473 1.684C68.966 0.891999 71.0633 0.495999 73.4393 0.495999C75.7567 0.495999 77.8247 0.877332 79.6433 1.64C81.4913 2.37333 83.002 3.45867 84.1753 4.896C85.378 6.33333 86.1847 8.09333 86.5953 10.176H80.9193C80.6847 9.17867 80.23 8.34267 79.5553 7.668C78.91 6.99333 78.0887 6.48 77.0913 6.128C76.094 5.776 74.95 5.6 73.6593 5.6C71.9873 5.6 70.5647 5.89333 69.3913 6.48C68.218 7.06667 67.2647 7.87333 66.5313 8.9C65.798 9.89733 65.2553 11.056 64.9033 12.376C64.5807 13.6667 64.4193 15.0453 64.4193 16.512C64.4193 18.4187 64.7273 20.1933 65.3433 21.836C65.9887 23.4787 66.986 24.7987 68.3353 25.796C69.714 26.764 71.5033 27.248 73.7033 27.248C75.258 27.248 76.622 26.984 77.7953 26.456C78.998 25.928 79.9367 25.1653 80.6113 24.168C81.3153 23.1413 81.6967 21.88 81.7553 20.384H72.6913V15.632H87.2993V17.656C87.2993 20.6773 86.7713 23.288 85.7153 25.488C84.6593 27.688 83.1047 29.3893 81.0513 30.592C79.0273 31.7653 76.5193 32.352 73.5273 32.352ZM106.278 32.352C103.08 32.352 100.352 31.6773 98.0938 30.328C95.8644 28.9787 94.1484 27.1013 92.9458 24.696C91.7724 22.2907 91.1858 19.548 91.1858 16.468C91.1858 13.3293 91.7871 10.572 92.9898 8.196C94.1924 5.79067 95.9231 3.91333 98.1818 2.564C100.44 1.18533 103.168 0.495999 106.366 0.495999C109.563 0.495999 112.276 1.17067 114.506 2.52C116.764 3.86933 118.495 5.74667 119.698 8.152C120.9 10.528 121.502 13.2707 121.502 16.38C121.502 19.46 120.9 22.2027 119.698 24.608C118.524 27.0133 116.794 28.9053 114.506 30.284C112.247 31.6627 109.504 32.352 106.278 32.352ZM106.366 27.248C108.595 27.248 110.414 26.7347 111.822 25.708C113.23 24.6813 114.256 23.3467 114.902 21.704C115.576 20.0613 115.914 18.316 115.914 16.468C115.914 15.06 115.723 13.7107 115.342 12.42C114.99 11.1293 114.418 9.97067 113.626 8.944C112.863 7.91733 111.88 7.11067 110.678 6.524C109.475 5.908 108.038 5.6 106.366 5.6C104.166 5.6 102.347 6.11333 100.91 7.14C99.5018 8.16667 98.4604 9.50133 97.7858 11.144C97.1111 12.7867 96.7738 14.5613 96.7738 16.468C96.7738 18.3453 97.1111 20.1053 97.7858 21.748C98.4604 23.3907 99.5018 24.7253 100.91 25.752C102.347 26.7493 104.166 27.248 106.366 27.248Z" fill="black"/>
</svg>
