<svg width="173" height="41" viewBox="0 0 173 41" fill="none" xmlns="http://www.w3.org/2000/svg">
<path d="M38.515 14.5765C31.3528 37.1832 4.4858 44.2919 0.516063 35.1799C-1.95153 29.5157 4.92884 22.2148 10.5819 20.7817C8.55599 22.303 7.8953 25.3183 9.07714 27.122C12.1982 31.885 27.4192 30.2121 38.515 14.5765Z" fill="#0D0E10"/>
<path d="M0 24.4586C7.16212 1.85188 34.0292 -5.25688 37.9989 3.85524C40.4665 9.5194 33.5861 16.8204 27.9331 18.2534C29.959 16.7321 30.6197 13.7168 29.4378 11.9132C26.3168 7.15009 11.0959 8.82308 0 24.4586Z" fill="#C3FF3D"/>
<path d="M59.8592 18.3407H50.0723L49.2123 21.6327H56.33C58.9398 21.6327 59.5033 22.9376 59.0881 24.4501L57.19 31.5382C56.6562 33.5548 54.9657 34.3852 52.8897 34.3852H40.671L41.9463 29.6401H52.4449L53.3346 26.3482H46.2169C43.6071 26.3482 43.0436 25.0136 43.4291 23.5011L45.3272 16.4427C45.861 14.4556 47.5811 13.6252 49.6275 13.6252H61.1344L59.8592 18.3407ZM79.6382 13.6252C82.3963 13.6252 83.0487 15.1674 82.3666 17.7476L80.5279 24.6577C79.8161 27.2082 78.3333 28.7504 75.5455 28.7504H67.8346L66.3221 34.3852H60.6872L66.2628 13.6252H79.6382ZM76.1386 20.4464C76.5538 18.8152 76.6131 18.3407 75.1896 18.3407H70.6224L69.1099 24.0349H73.6771C74.893 24.0349 75.2489 23.768 75.6641 22.1368L76.1386 20.4464ZM102.021 13.6252C104.067 13.6252 105.312 14.4556 104.779 16.4723C104.452 17.7179 104.097 18.9932 103.77 20.2388L101.754 27.7717C101.427 29.0173 101.071 30.2926 100.745 31.5382C100.211 33.5548 98.4913 34.3852 96.445 34.3852H85.5015C83.4551 34.3852 82.1799 33.5548 82.7137 31.5382C83.0696 30.2926 83.3958 29.0173 83.722 27.7717L85.7684 20.2388C86.0946 18.9932 86.4505 17.7179 86.7767 16.4723C87.3106 14.4556 89.001 13.6252 91.077 13.6252H102.021ZM95.7925 29.6401C96.0594 28.6911 96.2967 27.742 96.5636 26.8227L98.0761 21.1582C98.343 20.2091 98.6099 19.2898 98.8472 18.3407H91.6998L88.6748 29.6401H95.7925ZM123.342 13.6252C126.1 13.6252 126.752 15.1674 126.07 17.7476L124.232 24.6577C123.609 26.9116 122.393 28.3648 120.228 28.6911L122.007 34.3852H116.521L114.771 28.7504H111.538L110.026 34.3852H104.391L109.967 13.6252H123.342ZM114.326 18.3407L112.814 24.0349H117.381C118.597 24.0349 118.953 23.768 119.368 22.1368L119.842 20.4464C120.258 18.8152 120.317 18.3407 118.893 18.3407H114.326ZM146.039 13.5956L144.764 18.3111H139.633L135.333 34.3556H129.698L133.999 18.3111H128.838L130.113 13.5956H146.039ZM162.703 18.3407H152.917L152.057 21.6327H159.174C161.784 21.6327 162.348 22.9376 161.932 24.4501L160.034 31.5382C159.5 33.5548 157.81 34.3852 155.734 34.3852H143.515L144.791 29.6401H155.289L156.179 26.3482H149.061C146.451 26.3482 145.888 25.0136 146.273 23.5011L148.171 16.4427C148.705 14.4556 150.425 13.6252 152.472 13.6252H163.979L162.703 18.3407ZM168.569 29.3139C169.162 29.3139 169.518 29.5511 169.37 30.1146L168.45 33.5548C168.302 34.148 167.798 34.3852 167.205 34.3852H164.032C163.438 34.3852 163.053 34.148 163.231 33.5548L164.15 30.1146C164.298 29.5511 164.803 29.3139 165.396 29.3139H168.569Z" fill="#0D0E10"/>
</svg>
