<svg width="173" height="41" viewBox="0 0 173 41" fill="none" xmlns="http://www.w3.org/2000/svg">
<path d="M38.515 14.5765C31.3528 37.1832 4.4858 44.2919 0.516063 35.1799C-1.95153 29.5157 4.92884 22.2148 10.5819 20.7817C8.55599 22.303 7.8953 25.3183 9.07714 27.122C12.1982 31.885 27.4192 30.2121 38.515 14.5765Z" fill="white"/>
<path d="M0.000244141 24.4586C7.16237 1.85188 34.0294 -5.25688 37.9992 3.85524C40.4668 9.5194 33.5864 16.8204 27.9333 18.2534C29.9592 16.7321 30.6199 13.7168 29.4381 11.9132C26.3171 7.15009 11.0961 8.82308 0.000244141 24.4586Z" fill="#C3FF3D"/>
<path d="M59.8587 18.3407H50.0718L49.2118 21.6327H56.3295C58.9393 21.6327 59.5028 22.9376 59.0876 24.4501L57.1895 31.5382C56.6557 33.5548 54.9652 34.3852 52.8892 34.3852H40.6705L41.9458 29.6401H52.4444L53.3341 26.3482H46.2164C43.6066 26.3482 43.0431 25.0136 43.4286 23.5011L45.3267 16.4427C45.8605 14.4556 47.5806 13.6252 49.627 13.6252H61.1339L59.8587 18.3407ZM79.6377 13.6252C82.3958 13.6252 83.0482 15.1674 82.3661 17.7476L80.5274 24.6577C79.8156 27.2082 78.3328 28.7504 75.545 28.7504H67.8341L66.3216 34.3852H60.6868L66.2623 13.6252H79.6377ZM76.1381 20.4464C76.5533 18.8152 76.6126 18.3407 75.1891 18.3407H70.6219L69.1094 24.0349H73.6766C74.8925 24.0349 75.2484 23.768 75.6636 22.1368L76.1381 20.4464ZM102.02 13.6252C104.066 13.6252 105.312 14.4556 104.778 16.4723C104.452 17.7179 104.096 18.9932 103.77 20.2388L101.753 27.7717C101.427 29.0173 101.071 30.2926 100.745 31.5382C100.211 33.5548 98.4908 34.3852 96.4445 34.3852H85.501C83.4546 34.3852 82.1794 33.5548 82.7132 31.5382C83.0691 30.2926 83.3953 29.0173 83.7216 27.7717L85.7679 20.2388C86.0941 18.9932 86.45 17.7179 86.7762 16.4723C87.3101 14.4556 89.0005 13.6252 91.0765 13.6252H102.02ZM95.792 29.6401C96.0589 28.6911 96.2962 27.742 96.5631 26.8227L98.0756 21.1582C98.3425 20.2091 98.6094 19.2898 98.8467 18.3407H91.6993L88.6743 29.6401H95.792ZM123.341 13.6252C126.1 13.6252 126.752 15.1674 126.07 17.7476L124.231 24.6577C123.608 26.9116 122.392 28.3648 120.227 28.6911L122.007 34.3852H116.52L114.771 28.7504H111.538L110.025 34.3852H104.39L109.966 13.6252H123.341ZM114.326 18.3407L112.813 24.0349H117.38C118.596 24.0349 118.952 23.768 119.367 22.1368L119.842 20.4464C120.257 18.8152 120.316 18.3407 118.893 18.3407H114.326ZM146.039 13.5956L144.764 18.3111H139.633L135.333 34.3556H129.698L133.998 18.3111H128.838L130.113 13.5956H146.039ZM162.703 18.3407H152.916L152.056 21.6327H159.174C161.784 21.6327 162.347 22.9376 161.932 24.4501L160.034 31.5382C159.5 33.5548 157.81 34.3852 155.734 34.3852H143.515L144.79 29.6401H155.289L156.178 26.3482H149.061C146.451 26.3482 145.887 25.0136 146.273 23.5011L148.171 16.4427C148.705 14.4556 150.425 13.6252 152.471 13.6252H163.978L162.703 18.3407ZM168.569 29.3139C169.162 29.3139 169.518 29.5511 169.369 30.1146L168.45 33.5548C168.302 34.148 167.797 34.3852 167.204 34.3852H164.031C163.438 34.3852 163.052 34.148 163.23 33.5548L164.15 30.1146C164.298 29.5511 164.802 29.3139 165.395 29.3139H168.569Z" fill="white"/>
</svg>
