<svg width="30" height="29" viewBox="0 0 30 29" fill="none" xmlns="http://www.w3.org/2000/svg">
<path d="M25.8033 5.11328H4.37538C4.02019 5.11328 3.67955 5.25438 3.42839 5.50554C3.17723 5.75669 3.03613 6.09734 3.03613 6.45253V21.6306C3.03613 22.2226 3.2713 22.7903 3.68989 23.2089C4.10849 23.6275 4.67622 23.8627 5.26821 23.8627H24.9105C25.5024 23.8627 26.0702 23.6275 26.4888 23.2089C26.9074 22.7903 27.1425 22.2226 27.1425 21.6306V6.45253C27.1425 6.09734 27.0014 5.75669 26.7503 5.50554C26.4991 5.25438 26.1585 5.11328 25.8033 5.11328ZM15.0893 14.4567L7.81835 7.79177H22.3603L15.0893 14.4567ZM11.1598 14.488L5.71462 19.4789V9.49707L11.1598 14.488ZM13.1418 16.3049L14.1842 17.2613C14.4312 17.4878 14.7542 17.6135 15.0893 17.6135C15.4245 17.6135 15.7474 17.4878 15.9944 17.2613L17.0368 16.3049L22.3603 21.1842H7.81835L13.1418 16.3049ZM19.0189 14.488L24.464 9.49707V19.4789L19.0189 14.488Z" fill="black" fill-opacity="0.4"/>
</svg>
