<svg width="177" height="27" viewBox="0 0 177 27" fill="none" xmlns="http://www.w3.org/2000/svg">
<path d="M15.6977 0.154179C15.6776 0.544193 16.0074 0.410826 16.188 0.459577C21.0905 1.75007 24.3497 4.79418 25.7248 9.66649C27.7709 16.9233 23.1438 24.3164 15.7378 25.7761C15.5557 25.812 15.3507 25.7762 15.2044 25.9296C15.1886 25.9468 15.1628 25.9826 15.1671 25.9869C15.1986 26.0183 15.2321 26.0475 15.2675 26.0744H11.5394C11.5567 26.0587 11.573 26.0419 11.5882 26.0242C11.5997 26.0081 11.6093 25.9908 11.6168 25.9726C11.4949 25.9068 11.3666 25.8535 11.234 25.8134C5.64188 24.6663 2.17333 21.3038 0.766699 15.7906C0.735154 15.6673 0.831225 15.3705 0.5 15.478V10.6029C0.515773 10.6201 0.528687 10.6402 0.545894 10.6559C0.5631 10.6717 0.586036 10.6917 0.593205 10.6874C0.736593 10.6043 0.736597 10.458 0.776746 10.3203C2.10356 5.04273 5.40865 1.74098 10.692 0.415119C10.7995 0.387875 11.1222 0.482531 10.9659 0.148438L15.6977 0.154179ZM18.4823 17.4596C18.8166 17.4396 19.1519 17.4421 19.486 17.4668C20.1169 17.5529 20.1814 17.2445 20.1298 16.7226C19.9649 15.0693 19.1261 13.8792 17.7008 13.0777C16.7172 12.5256 15.6546 12.1787 14.5678 11.8976C13.369 11.5893 12.1517 11.3442 11.0347 10.7792C10.3321 10.425 9.81016 9.9418 9.80443 9.09294C9.80443 8.80617 9.67682 8.71876 9.41585 8.72019C8.60428 8.72019 7.7927 8.73453 6.97826 8.72019C6.62266 8.71302 6.5395 8.87355 6.5481 9.19474C6.56244 10.7347 7.05139 12.0439 8.34475 12.9716C9.41012 13.7359 10.6389 14.1187 11.8807 14.4642C13.0493 14.7869 14.2538 14.9891 15.3707 15.4895C15.9701 15.7576 16.6297 16.0631 16.7487 16.7384C16.882 17.4812 17.285 17.5112 17.8442 17.4654C18.0521 17.4381 18.2672 17.4596 18.4823 17.4596Z" fill="#555555"/>
<path d="M176.269 22.7805C175.195 22.7805 174.118 22.7561 173.046 22.792C172.813 22.8158 172.578 22.7748 172.367 22.6736C172.156 22.5724 171.977 22.4149 171.85 22.2184C170.05 19.8109 168.206 17.4351 166.401 15.0347C166.071 14.6046 165.853 14.4769 165.442 14.9616C164.868 15.633 164.251 16.2671 163.597 16.8601C163.184 17.2372 163.063 17.6458 163.075 18.1807C163.105 19.4927 163.057 20.806 163.098 22.1166C163.113 22.6687 162.924 22.8235 162.401 22.7877C161.805 22.7425 161.207 22.7425 160.611 22.7877C159.967 22.8436 159.767 22.6443 159.77 21.9704C159.8 16.7453 159.787 11.5203 159.787 6.29524C159.787 5.79482 159.811 5.29153 159.78 4.79254C159.751 4.3466 159.934 4.20465 160.353 4.21899C161.021 4.2405 161.692 4.25197 162.361 4.21899C162.907 4.18888 163.102 4.35234 163.095 4.93593C163.063 7.48823 163.082 10.042 163.082 12.5943V13.4775L166.787 9.58881C168.382 7.91309 169.977 6.23596 171.572 4.55736C171.704 4.41398 171.827 4.24906 172.035 4.24762C173.268 4.24046 174.501 4.24762 175.932 4.24762C175.162 5.0506 174.533 5.7174 173.893 6.37555C172.147 8.17267 170.397 9.96597 168.644 11.7555C168.364 12.0422 168.214 12.23 168.526 12.6344C170.997 15.8205 173.44 19.0295 175.895 22.2299C175.988 22.3518 176.051 22.5425 176.271 22.4994L176.269 22.7805Z" fill="#555555"/>
<path d="M113.617 13.6326C113.617 8.15949 117.827 4.04285 123.425 4.04285C128.961 4.04285 133.137 8.0964 133.191 13.5222C133.246 18.948 128.945 23.1506 123.319 23.1478C117.784 23.1449 113.617 19.0584 113.617 13.6326ZM129.694 13.6326C129.694 9.93176 126.931 7.05398 123.375 7.05112C119.819 7.04825 117.083 9.86579 117.083 13.5523C117.083 17.2718 119.817 20.1123 123.402 20.1209C126.987 20.1295 129.694 17.3378 129.694 13.6341V13.6326Z" fill="#555555"/>
<path d="M55.0994 13.5865C55.0994 10.7704 55.1137 7.95427 55.0879 5.13814C55.0879 4.54021 55.2083 4.30936 55.8708 4.31366C60.0032 4.34329 64.1356 4.34329 68.2681 4.31366C68.8832 4.31366 69.0768 4.52009 69.0123 5.09508C68.9334 5.79768 69.3162 6.69817 68.8388 7.15558C68.3971 7.57857 67.5153 7.27891 66.8313 7.28321C64.2991 7.29755 61.7654 7.31328 59.2318 7.27313C58.5564 7.26309 58.3801 7.47963 58.4102 8.12057C58.4589 9.19311 58.4575 10.2714 58.4102 11.3411C58.3844 11.9318 58.6066 12.058 59.1458 12.0465C61.7497 12.0221 64.3536 12.0466 66.9575 12.0236C67.5511 12.0236 67.8537 12.1225 67.7763 12.7964C67.6988 13.4703 68.053 14.3737 67.6415 14.8038C67.1912 15.2871 66.2836 14.9616 65.5781 14.9702C63.5004 14.9931 61.4199 14.9774 59.3436 14.9788C58.4259 14.9788 58.426 14.9788 58.4245 15.9281C58.4245 16.9547 58.4661 17.9828 58.4102 19.0065C58.3715 19.7034 58.5392 19.9415 59.2977 19.9286C62.3089 19.8798 65.32 19.9286 68.3312 19.8927C68.9707 19.8855 69.1915 20.0705 69.127 20.6942C69.0852 21.1713 69.0852 21.6511 69.127 22.1281C69.1685 22.6816 68.975 22.8751 68.4014 22.8694C66.014 22.8422 63.6238 22.8579 61.232 22.8579C59.4168 22.8579 57.6015 22.8422 55.7833 22.8665C55.2557 22.8665 55.085 22.7103 55.0893 22.1726C55.1123 19.3134 55.0994 16.45 55.0994 13.5865Z" fill="#555555"/>
<path d="M41.417 4.03988C43.6051 4.02263 45.7433 4.69325 47.5296 5.95698C47.9411 6.24376 48.0831 6.47744 47.716 6.91477C47.3367 7.37509 46.9907 7.86196 46.6808 8.37161C46.4169 8.80177 46.1861 8.81182 45.776 8.52935C44.2231 7.46398 42.5369 6.80006 40.604 7.01944C39.8971 7.09974 39.2562 7.34493 38.7672 7.87977C37.8868 8.85337 38.1478 10.2973 39.3408 10.9784C40.2828 11.5147 41.3353 11.7584 42.3777 12.0194C43.425 12.255 44.4498 12.5812 45.4405 12.9944C47.6587 13.9795 48.6896 15.4965 48.618 17.6903C48.5405 20.0462 47.3275 21.8486 45.1207 22.5986C41.8859 23.6998 38.8117 23.1549 35.9152 21.4443C34.0584 20.3445 34.0756 20.3158 35.4234 18.7041L35.5138 18.5937C36.1633 17.8151 36.1647 17.8137 36.9763 18.426C38.6568 19.695 40.5237 20.3688 42.6516 20.1867C44.1385 20.0577 45.1179 19.3049 45.277 18.1879C45.3989 17.3276 45.1336 16.6379 44.3737 16.169C43.5492 15.6586 42.6272 15.4119 41.7009 15.1797C40.3766 14.8732 39.0776 14.4662 37.8151 13.9623C33.9436 12.3463 34.2476 7.10546 37.1369 5.21561C38.3055 4.46139 39.6906 4.04274 41.417 4.03988Z" fill="#555555"/>
<path d="M83.8881 4.04262C86.4691 4.02254 88.7633 4.79254 90.7277 6.51893C91.0633 6.81574 91.1393 7.02217 90.798 7.36917C90.3124 7.86216 89.8543 8.38154 89.4258 8.92494C89.139 9.29918 88.921 9.28343 88.5755 8.98088C87.5173 8.0589 86.3229 7.39358 84.9105 7.14982C80.8125 6.44578 77.3611 9.69779 77.701 14.0783C77.9433 17.1927 79.7758 19.3951 82.4815 19.9773C84.7987 20.4763 86.8348 19.8037 88.564 18.2279C89.0114 17.8193 89.291 17.7519 89.6968 18.2552C90.0832 18.71 90.5046 19.1338 90.9572 19.5227C91.2439 19.7837 91.1894 19.9529 90.9486 20.2096C88.2529 23.1289 83.306 24.0266 79.565 22.2586C77.7405 21.3896 76.2425 19.9589 75.2905 18.1762C74.3386 16.3936 73.9828 14.3529 74.2754 12.3534C75.0239 7.30898 78.8008 4.04262 83.8881 4.04262Z" fill="#555555"/>
<path d="M137.339 13.6641C137.339 7.74363 142.279 3.40753 148.143 4.07142C150.301 4.31661 152.205 5.06084 153.849 6.48324C154.203 6.78866 154.309 7.01379 153.93 7.3909C153.443 7.88213 152.985 8.40259 152.561 8.94947C152.284 9.30364 152.095 9.29505 151.765 9.00541C150.439 7.83393 148.917 7.0883 147.112 7.05532C143.883 6.9951 141.278 9.34956 140.876 12.6819C140.458 16.1648 142.491 19.3092 145.67 19.9846C147.964 20.4721 149.971 19.8025 151.692 18.2554C152.184 17.8123 152.505 17.7148 152.921 18.3141C153.163 18.6611 153.516 18.9307 153.82 19.2361C154.464 19.8814 154.472 19.8914 153.777 20.5266C150.857 23.1822 147.442 23.7887 143.774 22.6401C140.197 21.5203 138.171 18.912 137.479 15.2528C137.449 15.0887 137.428 14.9231 137.416 14.7567C137.386 14.3753 137.362 13.9968 137.339 13.6641Z" fill="#555555"/>
<path d="M97.5603 13.5022C97.5603 10.6344 97.5746 7.7753 97.5488 4.91328C97.5488 4.37701 97.7008 4.19633 98.2328 4.22071C98.8764 4.26086 99.522 4.26086 100.166 4.22071C100.755 4.18056 100.871 4.43148 100.868 4.96775C100.85 9.57193 100.855 14.1776 100.86 18.7832C100.86 19.9059 100.729 19.7711 101.852 19.774C104.552 19.774 107.25 19.7898 109.949 19.7654C110.481 19.7654 110.693 19.9088 110.636 20.4493C110.556 21.1993 110.96 22.17 110.465 22.6489C110.008 23.0905 109.053 22.7765 108.314 22.7794C105.064 22.7909 101.814 22.7909 98.564 22.7794C97.4083 22.7794 97.5603 22.9228 97.5603 21.7341C97.556 18.9911 97.5603 16.2466 97.5603 13.5022Z" fill="#555555"/>
</svg>
