<svg width="160" height="29" viewBox="0 0 160 29" fill="none" xmlns="http://www.w3.org/2000/svg">
<path d="M83.4544 22.0943H78.0022V21.1237C78.0022 18.6296 78.0114 16.1318 78.0022 13.6395C77.9956 13.1492 77.9455 12.6604 77.8524 12.1789C77.6675 11.1602 77.1388 10.3929 76.0405 10.2376C74.9127 10.0786 73.8219 10.4225 73.3782 11.4523C72.8688 12.6245 72.5631 13.875 72.4741 15.15C72.3354 17.4186 72.4353 19.7019 72.4353 22.061H66.959C66.959 21.4435 66.959 20.8352 66.959 20.2269C66.9442 17.7643 66.9719 15.2998 66.8961 12.8315C66.8462 11.1898 66.0364 10.2432 64.7496 10.1895C63.6569 10.147 62.6918 10.5797 62.2444 11.5928C61.828 12.4758 61.5773 13.4277 61.5049 14.4012C61.405 16.9194 61.4716 19.4468 61.4716 22.0518H56.0508V6.05553H60.9022V8.6994L61.087 8.85282C62.3628 6.73404 64.2523 5.73198 66.6225 5.63399C69.0389 5.536 70.9359 6.41974 72.0692 8.71971C74.0234 5.83551 76.7209 5.26051 79.8344 5.84659C81.5187 6.16459 82.5374 7.23877 83.0421 8.80475C83.2763 9.47344 83.4103 10.1731 83.4396 10.881C83.4748 14.5898 83.4544 18.2857 83.4544 22.0943Z" fill="#555555"/>
<path d="M92.5458 28.667H87.0898V6.00194C88.6262 6.00194 90.1515 5.98344 91.6731 6.03151C91.8266 6.03151 92.0706 6.44195 92.091 6.67676C92.1483 7.34049 92.1113 8.0135 92.2056 8.7401C93.1763 7.21665 94.5241 6.3366 96.2195 5.87438C99.148 5.08862 101.979 6.10732 103.643 8.6236C105.907 12.0477 105.478 17.4981 102.955 20.3619C100.61 23.0261 95.0048 23.505 92.5458 20.0791V28.667ZM99.6232 14.087C99.3625 13.2014 99.2368 12.2936 98.8411 11.5263C97.6893 9.27813 94.5574 9.22262 93.2539 11.3913C92.2333 13.0923 92.2537 14.8561 93.1726 16.5681C93.7586 17.6626 94.7127 18.3171 96.0142 18.3042C97.2567 18.2913 98.2458 17.7403 98.7875 16.6402C99.1758 15.8674 99.3422 14.98 99.6232 14.087Z" fill="#555555"/>
<path d="M19.3217 1.25965L18.878 5.6118C17.63 5.2143 16.4745 4.73178 15.2653 4.48773C12.9561 4.02182 10.7171 4.23257 8.81282 5.80409C6.5942 7.63445 5.77886 10.9975 6.79388 13.8965C7.25159 15.2005 8.11009 16.3263 9.24651 17.1127C10.3829 17.8991 11.739 18.3058 13.1206 18.2746C14.6663 18.2543 16.2101 17.8716 17.752 17.6275C18.1991 17.5323 18.641 17.4138 19.0758 17.2725C19.1664 18.6351 19.2755 19.9127 19.3124 21.1921C19.3124 21.3769 19.0222 21.7172 18.8114 21.7708C14.7236 22.8246 10.6543 22.9282 6.70144 21.2161C2.89281 19.5743 0.918238 16.5607 0.576201 12.4914C0.319211 9.42787 0.890506 6.54733 2.91684 4.09576C4.74166 1.88638 7.18584 0.849206 9.92953 0.381447C13.0837 -0.149173 16.1638 0.261272 19.3217 1.25965Z" fill="#555555"/>
<path d="M44.2075 22.5641C40.8519 22.3977 38.2191 21.7173 36.2408 19.4765C32.9813 15.7788 33.4805 7.59025 40.9536 5.94847C43.762 5.33096 46.5408 5.48257 49.1014 6.92097C52.2204 8.67368 53.3538 11.5431 53.0949 14.9395C52.8176 18.4985 50.7654 20.8188 47.4171 21.9244C46.2413 22.3145 44.9692 22.4199 44.2075 22.5641ZM39.9016 13.8745C40.0994 14.7989 40.1918 15.6272 40.4562 16.3982C40.985 17.8939 42.2367 18.7037 43.7841 18.6834C44.4971 18.6786 45.1911 18.4531 45.7708 18.038C46.3505 17.6228 46.7874 17.0384 47.0215 16.3649C47.6184 14.7931 47.5746 13.0497 46.8994 11.5098C46.3448 10.199 45.2484 9.4964 43.8692 9.45018C42.4308 9.40211 41.1809 9.94941 40.5967 11.386C40.2861 12.1976 40.1401 13.0832 39.9089 13.8819L39.9016 13.8745Z" fill="#555555"/>
<path d="M131.214 22.5769C127.481 22.3921 124.728 21.7006 122.74 19.249C119.766 15.579 120.268 7.83241 127.209 6.07045C130.515 5.23107 133.699 5.45848 136.566 7.45154C139.106 9.21534 139.986 11.8222 139.776 14.7859C139.546 17.9918 138.001 20.412 134.939 21.5989C133.53 22.1443 131.999 22.3773 131.214 22.5769ZM126.623 13.8264C126.808 14.7194 126.88 15.5218 127.12 16.2724C127.614 17.8236 128.873 18.6962 130.448 18.6907C131.178 18.6978 131.892 18.4735 132.487 18.0501C133.082 17.6266 133.527 17.0257 133.76 16.3334C134.289 14.8399 134.273 13.2073 133.715 11.7242C133.183 10.3006 132.068 9.50557 130.554 9.44826C129.075 9.3891 127.832 10.1194 127.261 11.5135C126.952 12.2659 126.819 13.0924 126.623 13.8264Z" fill="#555555"/>
<path d="M148.181 22.0869H142.725C142.704 21.7689 142.666 21.4473 142.664 21.1237C142.664 16.411 142.684 11.6946 142.642 6.98741C142.642 6.13879 142.919 5.93912 143.701 5.9724C144.984 6.02971 146.273 5.98901 147.65 5.98901V8.73642C148.539 7.52912 149.582 6.63059 150.936 6.11476C155.519 4.3676 159.316 6.74892 159.795 11.6613C159.819 11.9054 159.817 12.1531 159.817 12.4008C159.817 15.5994 159.817 18.7997 159.817 22.0684H154.345C154.345 21.6987 154.345 21.3456 154.345 20.9887C154.297 18.2802 154.326 15.5697 154.16 12.8686C154.062 11.1843 153.182 10.3135 151.88 10.1693C151.168 10.0923 150.451 10.2665 149.853 10.6617C149.255 11.057 148.814 11.6485 148.606 12.3343C148.349 13.1218 148.21 13.9429 148.192 14.771C148.147 17.1764 148.181 19.5781 148.181 22.0869Z" fill="#555555"/>
<path d="M106.53 9.79407C106.53 8.59232 106.497 7.54957 106.561 6.51237C106.574 6.32748 106.979 6.03167 107.22 6.01319C108.041 5.95033 108.867 5.98913 109.808 5.98913C109.808 4.9852 109.845 4.07006 109.793 3.16042C109.76 2.5577 109.978 2.29885 110.549 2.13616C112.075 1.69798 113.582 1.19321 115.221 0.675537V5.95216H119.104V9.79407C118.145 9.79407 117.172 9.82734 116.205 9.78297C115.512 9.75154 115.216 9.92718 115.242 10.7074C115.303 12.4897 115.242 14.2775 115.279 16.0691C115.316 18.4633 116.214 19.1936 118.607 18.8239C118.755 18.7998 118.904 18.7869 119.215 18.748V22.235C117.041 22.6048 114.748 22.8506 112.517 22.0371C110.546 21.3179 109.88 19.6337 109.819 17.7053C109.747 15.3998 109.764 13.0832 109.804 10.7795C109.819 9.99192 109.54 9.74601 108.793 9.79778C108.085 9.8329 107.379 9.79407 106.53 9.79407Z" fill="#555555"/>
<path d="M27.3184 22.0945C26.9745 22.1167 26.7638 22.1425 26.5549 22.1425C25.0203 22.1425 23.4839 22.1425 21.8828 22.1425V6.00393C23.397 6.00393 24.9242 5.98728 26.4476 6.03535C26.5881 6.03535 26.8081 6.46801 26.8285 6.71206C26.8821 7.3647 26.847 8.02473 26.9505 8.73469C28.4148 6.04276 30.602 5.17379 33.586 5.85601C33.501 7.3203 33.4159 8.77536 33.3272 10.3044C32.9167 10.2766 32.5876 10.2711 32.2567 10.2286C29.6683 9.89763 27.7215 11.2824 27.4756 13.8893C27.2685 16.0857 27.3573 18.3099 27.3184 20.5229C27.311 21.0147 27.3184 21.5047 27.3184 22.0945Z" fill="#555555"/>
</svg>
