<svg width="170" height="27" viewBox="0 0 170 27" fill="none" xmlns="http://www.w3.org/2000/svg">
<path d="M106.458 16.6638C106.458 18.2553 106.465 19.8467 106.458 21.4369C106.442 24.2693 105.185 25.6636 102.362 25.9386C99.8954 26.1819 97.4729 26.0602 95.1978 24.9275C94.9763 24.8168 94.7683 24.7341 94.514 24.8898C91.9407 26.463 89.1703 26.115 86.4036 25.6818C85.5924 25.5357 84.7898 25.3452 83.9994 25.1112C83.1101 24.8679 82.7414 24.2778 82.7523 23.341C82.784 20.4647 82.7365 17.5873 82.7816 14.7123C82.7937 13.9665 82.5577 13.7998 81.8569 13.8168C79.8992 13.8618 77.9392 13.8496 75.9815 13.8168C75.4194 13.8095 75.1761 13.9129 75.1895 14.5553C75.2321 16.6042 75.1895 18.6555 75.2102 20.7056C75.2187 21.8566 75.6445 22.3031 76.8137 22.3688C77.3284 22.398 77.8479 22.3214 78.3662 22.2934C78.5804 22.2812 78.8736 22.1717 78.994 22.2764C79.752 22.9066 79.5136 23.8812 79.7484 24.6964C79.8786 25.149 79.505 25.3181 79.1133 25.4264C77.2882 25.9252 75.4292 26.0566 73.5749 25.6855C71.3618 25.2414 70.2644 23.8228 70.223 21.4101C70.1841 19.1771 70.1841 16.9433 70.223 14.7086C70.2376 13.9908 70.0417 13.7608 69.3081 13.7839C67.6582 13.8375 66.0023 13.8399 64.3513 13.7839C63.5471 13.7572 63.2563 13.9385 63.2685 14.823C63.3269 18.0959 63.2685 21.3711 63.3074 24.6452C63.3159 25.3971 63.1152 25.6782 62.334 25.6308C61.2952 25.5675 60.2534 25.5675 59.2145 25.6308C58.4212 25.6806 58.2411 25.3716 58.2509 24.6331C58.2849 21.359 58.2399 18.0849 58.2837 14.8108C58.2947 14.0249 58.1243 13.756 57.286 13.7779C55.461 13.8265 55.6411 14.0699 55.6338 12.1293C55.6265 10.3347 55.6338 10.3042 57.4138 10.3261C58.1134 10.3371 58.336 10.1217 58.2776 9.44162C58.242 8.86148 58.2501 8.27946 58.302 7.70054C58.4553 5.45699 59.717 4.06755 61.9228 3.75121C63.6055 3.50787 65.2735 3.67334 66.9367 3.99454C67.6157 4.12595 67.8006 4.47148 67.6668 5.08956C67.6568 5.15 67.6499 5.21091 67.6461 5.27206C67.4027 7.26133 67.4027 7.26134 65.4098 7.10925C63.6858 6.97664 62.6115 8.50479 63.3098 10.0682C63.4315 10.3359 63.6395 10.3055 63.8427 10.3055C65.7712 10.3116 67.6996 10.3055 69.6268 10.3152C70.0697 10.3152 70.2145 10.1436 70.2072 9.71781C70.1889 8.70796 70.2169 7.69813 70.1962 6.68829C70.1841 6.09455 70.4128 5.79768 71.0224 5.71495C72.1113 5.56286 73.1978 5.37426 74.2745 5.14917C74.9948 4.9983 75.2162 5.27085 75.2004 5.95463C75.1749 7.04964 75.2418 8.16046 75.1773 9.25912C75.1299 10.0658 75.3318 10.3541 76.2103 10.3359C79.6985 10.2799 83.1879 10.3456 86.6737 10.2921C87.6312 10.2775 87.8636 10.6048 87.8527 11.5088C87.8077 14.9653 87.8527 18.4244 87.8186 21.8822C87.8125 22.5574 88.0303 22.8251 88.6824 22.8385C89.1083 22.847 89.5341 22.9394 89.9587 22.9711C91.3701 23.0733 92.0551 22.5039 92.0818 21.1023C92.1244 18.8685 92.1098 16.6346 92.1171 14.4008C92.1171 13.3301 92.1548 12.257 92.1037 11.1888C92.0697 10.4819 92.3471 10.2811 93.0126 10.3055C94.0821 10.3432 95.1564 10.3541 96.2246 10.3055C96.9729 10.2702 97.1578 10.5804 97.153 11.2715C97.1286 14.7597 97.1676 18.2492 97.1225 21.7349C97.1128 22.5355 97.3805 22.8531 98.1433 22.8604C98.4475 22.8604 98.7517 22.9577 99.0534 22.9747C100.608 23.0599 101.416 22.3104 101.42 20.7579C101.428 17.6068 101.443 14.4543 101.409 11.3031C101.4 10.5488 101.624 10.2641 102.396 10.3043C103.464 10.359 104.538 10.3444 105.608 10.3043C106.244 10.2824 106.469 10.5111 106.459 11.1559C106.437 12.9907 106.458 14.8279 106.458 16.6638Z" fill="#555555"/>
<path d="M146.541 19.9925C145.196 19.9925 143.849 20.0108 142.503 19.984C141.945 19.9731 141.813 20.1848 141.918 20.6982C142.13 21.7324 142.824 22.4174 143.969 22.6522C145.718 23.0087 147.437 22.8225 149.14 22.3663C150.308 22.0536 150.385 22.0986 150.654 23.218C151.067 24.9408 151.067 24.9371 149.324 25.4299C146.864 26.1258 144.368 26.1867 141.873 25.7329C138.853 25.1829 137.226 23.3749 136.798 20.0582C136.55 18.2649 136.615 16.4421 136.989 14.6708C137.587 11.9491 139.058 10.5706 141.83 10.1411C143.845 9.82841 145.845 9.85153 147.819 10.4489C149.655 11.0025 150.762 12.2083 151.226 14.0552C151.65 15.7366 151.638 17.4461 151.629 19.1652C151.629 19.8198 151.232 19.9938 150.671 19.9925H146.534H146.541ZM144.314 17.1407C144.955 17.1407 145.596 17.1407 146.237 17.1407C146.468 17.1407 146.785 17.199 146.785 16.834C146.785 15.7731 146.945 14.6331 146.114 13.7984C145.283 12.9638 144.194 13.0794 143.177 13.3446C142.141 13.6135 141.513 15.1587 141.877 16.7246C142.085 17.62 142.951 16.9618 143.494 17.1309C143.744 17.2051 144.039 17.1419 144.314 17.1407Z" fill="#555555"/>
<path d="M39.0237 18.0447C39.0113 17.1656 39.0646 16.2868 39.1831 15.4155C39.5712 12.3446 41.2015 10.6303 44.2566 10.1436C46.1461 9.84191 48.0283 9.85408 49.8959 10.3347C52.0859 10.8992 53.4425 12.2814 53.917 14.503C54.387 16.6913 54.4118 18.9517 53.99 21.1497C53.4693 23.9031 51.9594 25.3047 49.1501 25.7962C47.4308 26.1024 45.6703 26.0949 43.9537 25.7743C41.1419 25.2463 39.5736 23.5612 39.1977 20.7154C39.0673 19.8314 39.0091 18.9382 39.0237 18.0447ZM44.1654 17.9121C44.1556 18.9524 44.1362 19.9939 44.3418 21.0208C44.5851 22.252 45.2567 22.746 46.6535 22.7411C48.0502 22.7363 48.7389 22.2447 48.9311 20.9904C49.2395 18.9914 49.2395 16.957 48.9311 14.9581C48.7425 13.7414 48.0709 13.2669 46.7204 13.2547C45.2506 13.2425 44.6314 13.6684 44.3625 14.8972C44.1398 15.8912 44.1568 16.9023 44.1654 17.9121Z" fill="#555555"/>
<path d="M123.14 18.6117C123.14 20.0182 123.153 21.4258 123.14 22.8323C123.126 24.2388 122.586 25.0041 121.229 25.3874C118.329 26.198 115.275 26.2928 112.329 25.6635C109.145 24.998 107.673 21.3249 109.316 18.4949C110.012 17.2965 111.156 16.8341 112.417 16.6017C113.979 16.3146 115.557 16.115 117.119 15.8279C117.499 15.7586 118.139 15.9703 118.148 15.2281C118.156 14.4859 118.223 13.6939 117.28 13.4311C116.138 13.1123 114.968 13.2108 113.821 13.3714C112.855 13.5077 111.904 13.7474 110.953 13.9798C110.508 14.0868 110.244 14.0017 110.167 13.5247C110.138 13.3435 110.102 13.1597 110.06 12.9845C109.62 11.0634 109.615 11.0378 111.558 10.5937C114.113 10.0012 116.68 9.71652 119.288 10.1691C121.964 10.6327 123.143 12.0452 123.143 14.7633C123.142 16.0441 123.141 17.3269 123.14 18.6117ZM118.151 20.6861C118.151 20.107 118.151 19.5291 118.151 18.9499C118.151 18.6238 118.084 18.4328 117.679 18.5107C116.724 18.6968 115.758 18.8246 114.804 19.0205C114.196 19.1421 113.752 19.5473 113.64 20.1714C113.488 21.0231 113.421 21.9271 114.231 22.5111C115.353 23.3178 116.657 23.1621 117.831 22.7727C118.561 22.5294 118.005 21.6327 118.148 21.0499C118.163 20.9292 118.164 20.807 118.15 20.6861H118.151Z" fill="#555555"/>
<path d="M31.2413 9.95264C32.6767 9.96461 34.1058 10.1439 35.4997 10.4868C36.1555 10.6462 36.3161 10.954 36.1822 11.6012C35.7868 13.5236 35.8051 13.5479 33.8633 13.2486C33.0502 13.1063 32.2226 13.0654 31.3995 13.127C30.6354 13.2012 29.92 13.447 29.8543 14.385C29.7923 15.2768 30.341 15.7136 31.1355 15.9083C32.082 16.1395 33.0444 16.3159 33.9788 16.5884C35.5958 17.058 36.4305 18.2115 36.6458 19.8467C37.1203 23.4493 35.3707 25.6028 31.6574 25.9374C29.5392 26.1284 27.4526 25.8619 25.3903 25.3546C24.7309 25.1915 24.5386 24.8898 24.6603 24.1842C25.0022 22.1158 24.9657 22.1158 26.972 22.5197C27.9612 22.7193 28.9564 22.8945 29.9711 22.8166C31.0466 22.7339 31.6197 22.2241 31.6599 21.3663C31.7 20.5085 31.3204 20.0742 30.2096 19.8077C29.4078 19.6167 28.5853 19.4963 27.7993 19.2566C25.7906 18.6483 24.8611 17.3184 24.7917 15.0676C24.7199 12.7498 25.6361 11.235 27.5584 10.4892C28.7374 10.0269 29.9845 9.95385 31.2413 9.95264Z" fill="#555555"/>
<path d="M0.171109 11.7362C0.109058 9.97079 0.171111 7.85862 1.05929 5.88152C2.76872 2.07574 5.80433 0.284794 9.90697 0.163126C10.8243 0.136359 11.7442 0.180176 12.6615 0.149759C13.1811 0.131509 13.3745 0.299395 13.3112 0.833517C13.1149 2.47198 12.9373 4.11327 12.7783 5.75741C12.7431 6.11025 12.5983 6.23071 12.2625 6.22341C11.6809 6.21124 11.0993 6.22341 10.5177 6.22341C7.75467 6.24531 6.34697 7.63109 6.30439 10.4088C6.27884 12.0002 6.27397 13.5928 6.31047 15.183C6.32507 15.8011 6.17299 16.0505 5.5026 16.0347C4.00486 15.9872 2.50348 15.9933 1.00088 16.0347C0.376728 16.0517 0.123659 15.8863 0.149209 15.2244C0.206393 14.1756 0.171109 13.1329 0.171109 11.7362Z" fill="#555555"/>
<path d="M16.6121 14.0419C16.7009 15.9278 16.5671 18.1421 15.5791 20.2166C13.9974 23.5308 11.3305 25.3424 7.72668 25.7512C6.4881 25.8912 5.22154 25.778 3.96958 25.8169C3.44884 25.834 3.36124 25.6162 3.41356 25.1599C3.60214 23.5782 3.78708 22.0063 3.92578 20.4246C3.96836 19.9452 4.14965 19.781 4.60347 19.8053C4.99889 19.8272 5.39796 19.8053 5.7946 19.8053C9.00055 19.7859 10.4812 18.3088 10.5165 15.0798C10.5323 13.7353 10.5421 12.3897 10.5092 11.0453C10.4958 10.5038 10.6309 10.2909 11.2186 10.3055C12.8075 10.3444 14.3977 10.3323 15.9867 10.3055C16.4527 10.3055 16.6401 10.4272 16.6218 10.9224C16.5853 11.8397 16.6121 12.7583 16.6121 14.0419Z" fill="#555555"/>
<path d="M126.817 18.5436C126.817 16.5872 126.853 14.6295 126.801 12.6743C126.774 11.7217 127.158 11.1705 128.031 10.8992C130.301 10.196 132.64 10.0098 135 9.98547C135.487 9.98547 135.724 10.241 135.768 10.707C135.774 10.7678 135.779 10.8287 135.784 10.8895C136.007 13.5248 136.006 13.5248 133.371 13.6562C133.31 13.6562 133.25 13.6647 133.189 13.6684C131.808 13.7584 131.808 13.7584 131.808 15.1284C131.808 18.3076 131.783 21.4868 131.825 24.6659C131.836 25.4434 131.581 25.6721 130.836 25.632C129.769 25.5748 128.694 25.5833 127.626 25.632C126.964 25.66 126.795 25.4045 126.805 24.7803C126.833 22.701 126.817 20.6217 126.817 18.5436Z" fill="#555555"/>
<path d="M169.71 14.9083C169.71 16.8623 169.682 16.8927 167.746 16.9827C164.523 17.1336 163.416 15.9291 163.853 12.7414C164.066 11.1597 164.729 10.5027 166.313 10.2569C167.301 10.1036 168.26 10.2666 169.221 10.4735C169.69 10.5745 169.694 10.8385 169.636 11.2157C169.569 11.6525 169.287 11.5369 169.016 11.4992C168.286 11.3945 167.564 11.3094 166.826 11.4043C166.132 11.4931 165.731 11.8702 165.559 12.5394C165.433 13.0451 165.392 13.568 165.437 14.087C165.539 15.5325 166.135 16.0337 167.582 15.9413C167.919 15.9194 168.249 15.8877 168.154 15.4546C168.07 15.0762 168.519 14.4679 167.754 14.3596C167.337 14.2975 166.976 14.2695 167.031 13.677C167.095 12.9689 167.618 13.3668 167.927 13.2548C167.958 13.2499 167.989 13.2499 168.019 13.2548C169.71 13.2414 169.71 13.2414 169.71 14.9083Z" fill="#555555"/>
<path d="M161.826 16.9144C161.086 17.1249 160.897 16.5834 160.864 16.0627C160.776 14.6599 159.76 15.0674 158.942 14.9592C158.054 14.8375 157.86 15.3412 157.706 16.0262C157.511 16.8779 156.954 17.1589 156.116 16.9338C155.802 16.8499 155.821 16.6905 155.895 16.4654C156.538 14.5589 157.189 12.6548 157.818 10.747C157.927 10.4124 158.133 10.3698 158.432 10.3467C160.577 10.18 160.576 10.1752 161.231 12.2521C161.637 13.5296 162.012 14.8192 162.472 16.0773C162.736 16.7769 162.613 17.0519 161.826 16.9144ZM159.228 13.9396C160.213 13.9396 160.254 13.9286 160.164 13.5284C160.022 12.9091 159.827 12.3031 159.643 11.6948C159.588 11.5147 159.479 11.3627 159.258 11.3761C159.038 11.3894 158.975 11.5525 158.925 11.7411C158.832 12.1547 158.71 12.5613 158.56 12.9577C158.207 13.7985 158.489 14.0746 159.228 13.9396Z" fill="#555555"/>
</svg>
