<svg width="166" height="29" viewBox="0 0 166 29" fill="none" xmlns="http://www.w3.org/2000/svg">
<path d="M75.1924 12.3302C75.1862 15.4733 75.18 18.6161 75.1738 21.7585C75.1738 22.6778 75.1669 22.6848 74.2325 22.6848C73.5575 22.6848 72.8825 22.6755 72.2075 22.6848C71.7756 22.6917 71.5811 22.5215 71.5811 22.0688C71.5888 17.016 71.5888 11.9639 71.5811 6.91262C71.5811 6.43675 71.7663 6.26191 72.2341 6.27349C73.121 6.29433 74.0091 6.29896 74.8971 6.27349C75.3603 6.25844 75.6381 6.4298 75.8767 6.82115C77.0426 8.72928 78.2306 10.6247 79.4139 12.5224C79.8122 13.1604 79.8203 13.1592 80.2186 12.5224C81.3903 10.6398 82.5736 8.76403 83.7199 6.86632C83.985 6.42981 84.2861 6.25262 84.7909 6.27462C85.6014 6.30936 86.4119 6.27466 87.2224 6.28508C87.99 6.28508 88.0086 6.30473 88.0097 7.05617C88.0097 9.9284 88.0097 12.8014 88.0097 15.6752C88.0097 17.7767 87.9947 19.8793 88.0201 21.9808C88.0201 22.5134 87.8407 22.7114 87.3254 22.6952C86.6122 22.6721 85.8978 22.6663 85.1857 22.6952C84.6161 22.7207 84.41 22.5215 84.4158 21.931C84.4401 18.9426 84.4262 15.9542 84.4262 12.9647V12.2526C84.0788 12.4101 84.0001 12.6613 83.8669 12.8616C82.6643 14.6779 81.4648 16.4969 80.2684 18.3185C79.7774 19.0619 79.767 19.0549 79.2877 18.3324C77.9554 16.3255 76.6192 14.3186 75.2792 12.3116L75.2352 12.2896L75.1924 12.3302Z" fill="#555555"/>
<path d="M91.4638 14.4628C91.4638 12.0143 91.4638 9.56547 91.4638 7.11624C91.4638 6.30575 91.4835 6.28724 92.2569 6.28608C94.5911 6.28608 96.9246 6.28608 99.2572 6.28608C100.361 6.27198 101.453 6.52627 102.437 7.02709C105.038 8.37482 105.1 12.2015 102.973 13.7056C102.448 14.0749 102.459 14.1131 103.034 14.3887C104.801 15.2339 105.529 16.6523 105.375 18.5697C105.228 20.3945 104.202 21.5233 102.543 22.1532C101.517 22.5422 100.448 22.6603 99.3615 22.6626C97.0087 22.668 94.6544 22.668 92.2986 22.6626C91.4881 22.6626 91.465 22.6256 91.458 21.8058C91.458 21.7665 91.458 21.7283 91.458 21.69C91.4611 19.2794 91.463 16.8703 91.4638 14.4628ZM97.561 19.4936C98.1399 19.4936 98.7188 19.4936 99.2978 19.4936C99.7809 19.5009 100.261 19.418 100.714 19.2493C101.434 18.9633 101.787 18.447 101.782 17.6967C101.782 16.973 101.435 16.4705 100.74 16.1822C100.347 16.02 99.926 15.9343 99.5004 15.9298C98.17 15.9124 96.8374 15.9217 95.5116 15.909C95.1515 15.909 94.9732 16.0467 94.9755 16.4161C94.9755 17.2636 94.9825 18.1112 94.9755 18.9633C94.9755 19.3593 95.1515 19.5122 95.5394 19.5041C96.2121 19.4809 96.886 19.4913 97.561 19.4913V19.4936ZM97.084 12.8939V12.8418C97.737 12.8418 98.39 12.8523 99.043 12.836C99.2541 12.8199 99.4618 12.7742 99.6602 12.7005C100.553 12.4134 100.96 11.7963 100.852 10.9151C100.762 10.1926 100.234 9.68784 99.3464 9.54659C98.0473 9.33933 96.7355 9.47132 95.4294 9.45279C95.1226 9.45279 94.9755 9.62764 94.9755 9.92752C94.9755 10.7542 94.9755 11.5809 94.9755 12.4076C94.9755 12.7376 95.1249 12.9009 95.4665 12.8963C96.006 12.8858 96.5456 12.8927 97.084 12.8927V12.8939Z" fill="#555555"/>
<path d="M154.691 12.5711V15.0512C154.691 17.346 154.673 19.6409 154.702 21.9357C154.711 22.5308 154.493 22.7195 153.929 22.6964C153.197 22.6651 152.463 22.679 151.729 22.6894C151.289 22.6964 151.113 22.5077 151.114 22.0619C151.122 17.0098 151.122 11.9578 151.114 6.90572C151.114 6.41942 151.322 6.26428 151.779 6.27817C152.453 6.29901 153.13 6.31175 153.804 6.27817C154.309 6.24923 154.614 6.45766 154.911 6.84669C157.106 9.7552 159.312 12.6564 161.528 15.5502C161.665 15.7297 161.813 15.8976 161.991 16.1291C162.138 15.8455 162.093 15.615 162.093 15.3962C162.093 12.6174 162.093 9.84045 162.093 7.06548C162.093 6.31173 162.111 6.29671 162.878 6.29208C163.573 6.29208 164.267 6.31754 164.962 6.28281C165.517 6.25502 165.694 6.46344 165.692 7.01573C165.672 10.5055 165.682 13.9963 165.682 17.4861C165.682 18.9913 165.661 20.4965 165.693 22.0017C165.703 22.5482 165.488 22.6964 164.982 22.708C162.65 22.7543 162.651 22.7624 161.241 20.9087C159.22 18.2549 157.198 15.6015 155.175 12.9485C155.059 12.8015 154.937 12.6637 154.818 12.5213L154.691 12.5711Z" fill="#555555"/>
<path d="M108.366 14.4329C108.366 11.9852 108.366 9.53715 108.366 7.08869C108.366 6.30714 108.39 6.28515 109.185 6.2782C111.461 6.2782 113.738 6.2782 116.017 6.2782C117.271 6.2782 118.481 6.4947 119.576 7.13036C122.871 9.03733 122.908 14.2685 119.646 16.2773C119.47 16.3953 119.284 16.4976 119.09 16.583C118.668 16.7486 118.643 16.9767 118.89 17.331C119.686 18.4691 120.463 19.6189 121.247 20.764C121.584 21.2572 121.915 21.7551 122.256 22.2461C122.451 22.5239 122.395 22.6802 122.049 22.6791C120.891 22.6791 119.733 22.6594 118.575 22.6501C118.255 22.6501 118.112 22.4185 117.958 22.187C117.016 20.7767 116.061 19.3746 115.135 17.9516C114.887 17.5695 114.602 17.39 114.142 17.4166C113.623 17.4467 113.1 17.4375 112.581 17.4166C112.139 17.4016 111.962 17.5799 111.968 18.0303C111.986 19.3213 111.954 20.6135 111.982 21.9045C111.993 22.4429 111.826 22.6837 111.261 22.6605C110.53 22.6293 109.796 22.635 109.061 22.6605C108.537 22.6767 108.354 22.4637 108.357 21.9427C108.376 19.4417 108.367 16.9385 108.366 14.4329ZM111.975 11.8359C111.975 12.4518 111.98 13.069 111.975 13.6884C111.975 14.0138 112.09 14.2059 112.438 14.2059C113.729 14.2059 115.024 14.3009 116.31 14.1527C117.526 14.0114 118.308 13.1384 118.335 12.0026C118.369 10.5472 117.54 9.6776 115.911 9.57919C114.778 9.51087 113.637 9.56187 112.499 9.54102C112.089 9.53408 111.958 9.7216 111.968 10.1025C111.985 10.678 111.975 11.2569 111.975 11.8359Z" fill="#555555"/>
<path d="M14.5772 28.6374H13.6509C12.7247 28.6374 12.7177 28.6374 12.7791 27.6903C12.935 25.0501 13.7366 22.4886 15.1136 20.2306C16.4906 17.9725 18.4009 16.0871 20.6768 14.7398C21.2557 14.3924 21.2557 14.3646 20.6768 14.0069C15.9497 11.069 13.3217 6.82937 12.793 1.28792C12.6853 0.14976 12.6923 0.14862 13.813 0.14862C14.5078 0.14862 15.2025 0.157883 15.8972 0.14862C16.2723 0.142831 16.4286 0.273676 16.4691 0.678922C16.9983 5.88228 19.5768 9.61396 24.4513 11.661C25.7249 12.196 27.075 12.4218 28.4424 12.5433C28.7979 12.5746 28.9704 12.6788 28.9658 13.0551C28.953 13.942 28.9507 14.8289 28.9658 15.7181C28.9739 16.1211 28.799 16.2369 28.4146 16.2623C22.1623 16.6873 17.6004 20.8509 16.6046 27.0222C16.5745 27.2109 16.5317 27.3996 16.4888 27.586C16.4147 27.901 16.6046 28.3074 16.3383 28.5251C16.0292 28.7775 15.595 28.6096 15.2152 28.6409C15.0021 28.649 14.7891 28.6374 14.5772 28.6374Z" fill="#555555"/>
<path d="M67.2264 22.7335C66.725 22.7335 66.2225 22.7138 65.7212 22.7335C65.3113 22.7555 65.0902 22.6038 64.9547 22.2089C64.6073 21.2062 64.209 20.2233 63.8698 19.2194C63.7123 18.7563 63.4761 18.6486 63.006 18.7493C61.7428 19.0202 60.4727 19.2565 59.2002 19.4799C57.9092 19.7057 57.042 20.3703 56.6136 21.6532C56.1921 22.9152 56.382 22.7103 55.0864 22.7276C54.3535 22.7369 53.6206 22.7276 52.8865 22.7276C52.0633 22.7276 52.0482 22.7056 52.3655 21.9172C53.8205 18.3055 55.277 14.6942 56.7352 11.0832C57.3141 9.65328 57.9034 8.22913 58.4592 6.78993C58.6271 6.35342 58.8494 6.14962 59.3438 6.16815C60.3256 6.20404 61.3121 6.19018 62.294 6.17397C62.6691 6.16703 62.896 6.28048 63.0419 6.64983C65.0936 11.8084 67.1534 16.9639 69.2213 22.1163C69.4112 22.5887 69.2711 22.7497 68.786 22.7312C68.2684 22.7184 67.7463 22.7335 67.2264 22.7335ZM60.827 10.9744L60.651 10.9906C59.9956 12.732 59.3395 14.4734 58.6826 16.2148C58.5032 16.6964 58.8505 16.6327 59.1145 16.5841C60.079 16.4093 61.0377 16.1986 62.0091 16.0388C62.5209 15.9543 62.5881 15.7204 62.4213 15.2792C62.1029 14.4548 61.8111 13.6201 61.5043 12.791C61.2808 12.1843 61.0528 11.5799 60.827 10.9744Z" fill="#555555"/>
<path d="M140.573 6.18416C141.117 6.249 141.896 5.9329 142.426 6.31962C142.929 6.6855 142.995 7.47051 143.236 8.07606C145.089 12.6928 146.934 17.3118 148.772 21.9332C149.082 22.7112 149.068 22.7321 148.232 22.7333C147.269 22.7333 146.303 22.717 145.338 22.7413C144.92 22.7506 144.711 22.5873 144.578 22.2018C144.231 21.2002 143.837 20.2149 143.492 19.2122C143.346 18.785 143.134 18.6484 142.681 18.7491C141.36 19.0281 140.031 19.2643 138.705 19.5167C137.512 19.7483 136.7 20.3793 136.283 21.5673C135.797 22.9567 136.075 22.7159 134.592 22.7367C133.859 22.7471 133.126 22.7437 132.392 22.7367C131.749 22.7298 131.697 22.6638 131.942 22.0663C133.519 18.1505 135.099 14.2354 136.68 10.3211C137.143 9.16329 137.641 8.00546 138.07 6.83025C138.255 6.3289 138.533 6.13553 139.055 6.17952C139.522 6.21657 139.987 6.18416 140.573 6.18416ZM140.475 10.9858L140.291 10.9695C139.617 12.763 138.939 14.5589 138.275 16.3512C138.181 16.6025 138.363 16.6534 138.565 16.6152C139.662 16.4091 140.758 16.1999 141.852 15.9876C142.099 15.939 142.225 15.7873 142.13 15.5245C141.581 14.0116 141.029 12.4998 140.475 10.9892V10.9858Z" fill="#555555"/>
<path d="M35.4473 14.5082C35.4473 9.39055 39.4997 5.64953 44.6232 5.9992C46.61 6.13466 48.3966 6.70778 49.9331 8.01152C50.3545 8.36929 50.4553 8.6472 50.0222 9.07907C49.5229 9.58866 49.0535 10.1268 48.6166 10.6908C48.3028 11.0868 48.0574 11.1539 47.6463 10.788C46.8848 10.0953 45.9454 9.62829 44.9335 9.43915C42.0528 8.92391 39.5275 10.8818 39.2751 13.8274C39.1929 14.7814 39.2751 15.717 39.6514 16.6062C40.7745 19.282 43.6749 20.3623 46.2928 19.084C46.8672 18.8067 47.398 18.447 47.8686 18.0165C48.1859 17.7235 48.4117 17.7687 48.6884 18.0686C49.1724 18.5931 49.6691 19.1106 50.1936 19.5923C50.5409 19.9107 50.4865 20.1319 50.1797 20.4445C48.2252 22.4337 45.8123 23.1538 43.1076 22.9176C38.5954 22.5274 35.4496 19.0331 35.4473 14.5082Z" fill="#555555"/>
<path d="M0.467555 14.3818C0.467555 14.0738 0.467555 13.7647 0.467555 13.4555C0.467555 12.5408 0.467559 12.5292 1.44825 12.447C3.02821 12.3135 4.56686 11.8726 5.97774 11.1491C7.87686 10.18 9.49575 8.74007 10.6797 6.96695C10.7816 6.81643 10.8326 6.54901 11.0572 6.58143C11.232 6.60575 11.2459 6.85118 11.3096 7.00748C11.6697 7.90366 12.0564 8.79058 12.5832 9.5976C12.9121 10.1001 12.8241 10.4324 12.4327 10.8492C11.2984 12.0879 9.99263 13.1578 8.55511 14.0264C7.99471 14.3575 7.99471 14.3795 8.547 14.7095C10.0556 15.6114 11.4149 16.7422 12.5763 18.0615C12.8762 18.3995 12.8692 18.667 12.6423 19.0317C12.1308 19.8716 11.6926 20.7541 11.3328 21.6693C11.2633 21.8407 11.2529 22.1058 11.0456 22.1325C10.8384 22.1591 10.7666 21.9009 10.6635 21.7492C8.81098 19.0642 6.31351 17.3146 3.13754 16.5527C2.46385 16.3839 1.77418 16.2869 1.08006 16.2633C0.58566 16.2517 0.442088 16.0387 0.465244 15.5906C0.484928 15.1923 0.468713 14.787 0.467555 14.3818Z" fill="#555555"/>
<path d="M129.205 14.5174C129.205 16.9659 129.205 19.4143 129.205 21.8628C129.205 22.605 129.153 22.6559 128.422 22.6628C127.728 22.6686 127.033 22.6362 126.338 22.6721C125.759 22.7022 125.539 22.4903 125.556 21.9091C125.584 20.8497 125.562 19.7891 125.562 18.7285C125.562 14.8929 125.562 11.0566 125.562 7.21952C125.562 6.29324 125.574 6.28515 126.497 6.28284C127.094 6.28284 127.692 6.28284 128.289 6.28284C129.199 6.28284 129.203 6.28283 129.203 7.17321C129.206 9.6209 129.207 12.069 129.205 14.5174Z" fill="#555555"/>
<path d="M75.1924 12.3301L75.2271 12.2965L75.2711 12.3185C75.2454 12.3253 75.219 12.3292 75.1924 12.3301Z" fill="#555555"/>
</svg>
