<svg width="91" height="27" viewBox="0 0 91 27" fill="none" xmlns="http://www.w3.org/2000/svg">
<path d="M44.5556 10.9833C46.4472 8.99382 49.642 8.89017 51.5845 9.94776C52.1373 10.2491 52.6526 10.6071 53.0413 11.0994C53.2879 11.4103 53.3993 11.3355 53.6469 11.108C55.6699 9.2558 58.0385 8.79899 60.5836 9.68096C62.6172 10.3863 63.5088 12.0802 63.8331 14.1167C63.9078 14.6546 63.9399 15.1975 63.9291 15.7405C63.9291 19.1609 63.9205 22.5813 63.9358 26.0016C63.9358 26.3634 63.8466 26.4508 63.4905 26.4431C62.2602 26.4191 61.0289 26.4172 59.7986 26.4431C59.3782 26.4517 59.2371 26.3644 59.241 25.9057C59.264 22.7895 59.2534 19.6734 59.2525 16.5562C59.2632 16.1729 59.231 15.7895 59.1565 15.4133C58.8955 14.2616 58.1968 13.5649 57.2064 13.4727C55.9473 13.3547 54.9031 13.9391 54.4473 15.0188C54.3176 15.3277 54.2523 15.6598 54.2553 15.9948C54.262 19.3192 54.2553 22.6436 54.2668 25.968C54.2668 26.3298 54.1949 26.4479 53.8062 26.4431C52.5279 26.4162 51.2476 26.421 49.9674 26.4431C49.6276 26.4488 49.5461 26.3471 49.547 26.017C49.5605 22.9172 49.5557 19.8164 49.5528 16.7156C49.5674 16.2843 49.5369 15.8526 49.4616 15.4276C49.2601 14.4603 48.7831 13.7117 47.7687 13.5082C46.713 13.3009 45.7658 13.5745 45.0815 14.4679C44.7321 14.9087 44.5453 15.4564 44.5528 16.0188C44.5652 19.3432 44.5528 22.6676 44.5671 25.992C44.5671 26.3404 44.499 26.4498 44.1286 26.4421C42.8502 26.4162 41.571 26.422 40.2898 26.4421C39.9807 26.4421 39.8848 26.3702 39.8848 26.0487C39.8956 20.7108 39.8956 15.3726 39.8848 10.0341C39.8848 9.71646 39.9807 9.6349 40.2898 9.6397C41.5844 9.65697 42.881 9.65889 44.1737 9.6397C44.5028 9.63394 44.5854 9.74238 44.5575 10.0437C44.5364 10.3259 44.5556 10.6138 44.5556 10.9833Z" fill="#555555"/>
<path d="M13.0671 10.3835C13.118 9.65313 13.118 9.65312 13.8512 9.65312C15.0028 9.65312 16.1544 9.66175 17.3061 9.64735C17.5988 9.64735 17.7216 9.69438 17.7216 10.0312C17.7101 15.3844 17.7101 20.7377 17.7216 26.0909C17.7216 26.4546 17.5844 26.5016 17.2754 26.4978C16.0767 26.4824 14.8761 26.4642 13.6794 26.5045C13.1851 26.5218 13.0076 26.3797 13.092 25.9009C13.095 25.8232 13.0879 25.7454 13.0709 25.6696C8.40486 27.8442 4.14571 25.6696 2.35491 23.0841C0.166789 19.9267 0.285791 15.538 2.68792 12.5504C4.82997 9.88344 8.94805 8.36713 13.0671 10.3835ZM9.21581 14.0217C6.99506 14.0054 5.24456 15.7491 5.23593 17.991C5.22729 20.2463 6.94324 22.0016 9.1659 22.0112C11.3406 22.0208 13.0613 20.2972 13.0824 18.087C13.1045 15.8029 11.425 14.038 9.21581 14.0217Z" fill="#555555"/>
<path d="M31.6623 24.9132C30.811 25.7885 29.7232 26.3971 28.5318 26.6647C26.1326 27.2155 23.6373 26.3863 22.3552 24.5907C21.6275 23.5633 21.2408 22.3334 21.2496 21.0744C21.216 17.3671 21.2362 13.6588 21.2266 9.95147C21.2266 9.69235 21.3062 9.63285 21.5529 9.63477C22.8792 9.64628 24.2064 9.65683 25.5327 9.62996C25.9387 9.62133 25.9089 9.83053 25.908 10.1012C25.9041 13.2362 25.9041 16.3687 25.908 19.4986C25.8979 19.8339 25.9198 20.1693 25.9732 20.5005C26.2736 22.0226 27.3495 22.7807 28.9378 22.6118C30.503 22.4496 31.6105 21.3182 31.6105 19.8796C31.6105 16.6166 31.6172 13.3593 31.6019 10.0983C31.6019 9.72112 31.6979 9.61844 32.0741 9.62708C33.3361 9.65107 34.6 9.64819 35.863 9.62708C36.2008 9.62132 36.3236 9.67986 36.3227 10.0599C36.3086 15.3824 36.3086 20.7046 36.3227 26.0265C36.3227 26.3249 36.267 26.4362 35.9388 26.4305C34.6441 26.4103 33.3476 26.4123 32.0539 26.4305C31.7391 26.4305 31.6355 26.3489 31.6604 26.0341C31.6835 25.7117 31.6623 25.3767 31.6623 24.9132Z" fill="#555555"/>
<path d="M72.0082 11.1627C74.226 8.93231 77.4583 8.90256 79.4938 9.92273C81.1704 10.7644 82.0188 12.1972 82.3528 13.988C82.4395 14.4919 82.479 15.0027 82.4708 15.5139C82.4708 18.9977 82.4641 22.4814 82.4775 25.9651C82.4775 26.325 82.4084 26.4507 82.0178 26.4449C80.7558 26.4171 79.4919 26.4219 78.2299 26.4449C77.8921 26.4507 77.8096 26.3576 77.8105 26.0236C77.8239 22.8758 77.8191 19.727 77.8182 16.5792C77.8182 16.0168 77.7635 15.4621 77.5303 14.9429C76.9688 13.7155 75.5725 13.2011 74.1089 13.6233C73.0475 13.9304 71.9659 15.0782 71.9976 16.4794C72.0629 19.6416 72.012 22.8067 72.0264 25.9708C72.0264 26.3326 71.9544 26.4555 71.5657 26.4507C70.2874 26.4229 69.0081 26.4305 67.7269 26.4507C67.4265 26.4507 67.3574 26.3681 67.3584 26.0774C67.3674 20.7241 67.3674 15.3706 67.3584 10.0168C67.3584 9.71447 67.4486 9.64536 67.7375 9.6492C69.0484 9.66456 70.3594 9.66264 71.6723 9.6492C71.9391 9.6492 72.0398 9.71735 72.0226 9.99374C71.9909 10.345 72.0082 10.7097 72.0082 11.1627Z" fill="#555555"/>
<path d="M85.8982 18.0034C85.8982 15.3997 85.9126 12.7951 85.8848 10.1904C85.879 9.71058 86.0211 9.62229 86.4606 9.63476C87.6583 9.66739 88.8599 9.66164 90.0556 9.63476C90.4395 9.62613 90.5681 9.70194 90.5672 10.1146C90.5512 15.4038 90.5512 20.6924 90.5672 25.9804C90.5672 26.3249 90.5038 26.4458 90.1267 26.4382C88.881 26.4106 87.6334 26.4106 86.3838 26.4382C85.9999 26.4458 85.8771 26.37 85.8809 25.9583C85.9088 23.3066 85.8982 20.654 85.8982 18.0034Z" fill="#555555"/>
<path d="M85.713 3.43992C85.7226 2.00901 86.8799 0.890966 88.3349 0.907281C89.0183 0.91848 89.6692 1.2007 90.1446 1.69186C90.6199 2.18303 90.8806 2.84288 90.8694 3.52628C90.8582 4.20969 90.576 4.86066 90.0848 5.33599C89.5937 5.81131 88.9338 6.07207 88.2504 6.06087C86.7984 6.03496 85.7034 4.90442 85.713 3.43992Z" fill="#555555"/>
</svg>
