<svg width="176" height="30" viewBox="0 0 176 30" fill="none" xmlns="http://www.w3.org/2000/svg">
<path d="M150.09 14.799C150.09 12.7014 150.104 10.6037 150.079 8.50459C150.073 7.99573 150.208 7.69542 150.676 7.42847C154.539 5.23023 158.39 3.01049 162.228 0.769264C162.659 0.518246 162.968 0.525075 163.394 0.773819C167.236 3.011 171.086 5.23148 174.945 7.43529C175.371 7.67872 175.543 7.93429 175.541 8.44012C175.518 12.7107 175.518 16.9813 175.541 21.2519C175.541 21.7153 175.389 21.9747 174.992 22.2037C171.091 24.4373 167.198 26.6849 163.313 28.9463C162.928 29.17 162.655 29.1435 162.289 28.9312C158.405 26.6743 154.515 24.4298 150.618 22.1976C150.214 21.9701 150.077 21.7024 150.082 21.2406C150.104 19.0952 150.09 16.9467 150.09 14.799ZM173.308 14.8749C173.308 13.1056 173.298 11.3371 173.316 9.5663C173.316 9.19546 173.208 8.97099 172.878 8.78216C169.723 6.97422 166.572 5.15641 163.427 3.32875C163.017 3.09062 162.654 3.05727 162.228 3.30449C159.084 5.13215 155.934 6.94993 152.778 8.75787C152.428 8.95884 152.289 9.18559 152.291 9.59207C152.308 13.0806 152.308 16.569 152.291 20.0575C152.291 20.5012 152.456 20.7302 152.822 20.941C155.98 22.7469 159.13 24.567 162.271 26.4012C162.68 26.6401 162.975 26.6113 163.367 26.383C166.487 24.563 169.616 22.7596 172.754 20.9729C173.199 20.7211 173.325 20.4374 173.317 19.9551C173.291 18.2617 173.308 16.5683 173.308 14.8749Z" fill="#555555"/>
<path d="M55.8552 12.2047C55.8607 15.4141 55.8648 18.6245 55.8673 21.8359C55.8673 22.6329 55.7914 22.6943 54.9952 22.7042C54.5401 22.7103 54.0851 22.7042 53.6301 22.6959C53.3268 22.6959 53.1637 22.5351 53.1554 22.228C53.1501 22.0262 53.1455 21.8238 53.1455 21.6213C53.1455 17.0711 53.1455 12.5224 53.1455 7.97525C53.1455 6.92946 53.1455 6.92872 54.1928 6.92568C54.6478 6.92568 55.1029 6.94386 55.5579 6.92187C55.9962 6.90063 56.2404 7.07356 56.4201 7.48686C57.1838 9.24779 57.9786 10.9958 58.7635 12.7484C59.5795 14.5685 60.3975 16.3885 61.2176 18.2086C61.2858 18.3603 61.3032 18.5613 61.5209 18.6181C61.7924 18.5059 61.8038 18.2223 61.9001 18.0038C63.3857 14.6284 64.8827 11.2544 66.3304 7.86453C66.6338 7.16152 66.9948 6.79521 67.7911 6.91428C68.2112 6.97646 68.6488 6.91429 69.0803 6.93098C69.6111 6.95221 69.665 7.01668 69.6946 7.56726C69.7021 7.71893 69.6946 7.8706 69.6946 8.02228V21.7441C69.6946 21.87 69.6946 21.9967 69.6946 22.1233C69.6703 22.7201 69.6187 22.7831 69.0431 22.8013C68.538 22.8172 68.0322 22.8013 67.5264 22.796C67.1571 22.7907 66.9705 22.6019 66.9758 22.2272C66.9758 22.0255 66.9713 21.823 66.9713 21.6205C66.9713 18.7893 66.9713 15.9581 66.9713 13.1268V12.2926C66.6679 12.3427 66.677 12.5573 66.6186 12.7059C65.425 15.7652 64.2343 18.8259 63.0467 21.8882C62.7396 22.6807 62.7366 22.6913 61.9054 22.6997C61.602 22.7027 61.2987 22.7027 60.9953 22.6997C60.1938 22.6921 60.1748 22.683 59.8821 21.9504C59.2152 20.285 58.5511 18.6186 57.8898 16.9512C57.2687 15.3769 56.6583 13.7987 56.0425 12.2221C56.0023 12.1045 56.0296 11.8998 55.8233 11.9635C55.7368 11.9938 55.8036 12.1273 55.8552 12.2047Z" fill="#555555"/>
<path d="M35.9074 12.094L35.8914 21.5735C35.8914 22.7043 35.8914 22.7111 34.7713 22.7057C33.1105 22.6997 33.2728 22.862 33.2713 21.1959C33.2667 16.8985 33.2667 12.6023 33.2713 8.30744C33.2713 8.10571 33.2713 7.90323 33.2713 7.70075C33.2895 6.98788 33.335 6.94239 34.0638 6.92798C34.5696 6.91963 35.077 6.95299 35.5805 6.91887C36.0841 6.88474 36.3639 7.09482 36.5618 7.55363C37.2747 9.19928 38.0156 10.8328 38.749 12.4701C39.5847 14.3382 40.4222 16.2053 41.2614 18.0714C41.2884 18.1422 41.3191 18.2115 41.3532 18.2792C41.542 18.603 41.7111 18.6144 41.884 18.2678C42.2056 17.6103 42.4968 16.9369 42.7941 16.2657C44.0575 13.3718 45.3255 10.4794 46.5723 7.57788C46.7664 7.12286 47.0136 6.88552 47.5323 6.91813C48.111 6.95453 48.6942 6.93406 49.2766 6.92875C49.6558 6.92496 49.8325 7.1077 49.8234 7.48309C49.8188 7.65979 49.8234 7.83724 49.8234 8.01394V21.6607C49.8234 21.8124 49.8279 21.9641 49.8234 22.1158C49.7938 22.6906 49.7233 22.777 49.1575 22.7983C48.6524 22.818 48.1466 22.7983 47.6408 22.7983C47.2616 22.7983 47.0887 22.6102 47.1016 22.2348C47.1084 22.0323 47.1016 21.8298 47.1016 21.6281C47.1016 18.7969 47.1016 15.9657 47.1016 13.1344V12.2335C46.7891 12.3852 46.7535 12.6256 46.6777 12.819C45.5376 15.7417 44.4026 18.6637 43.2726 21.5849C43.2089 21.7502 43.1209 21.9087 43.0769 22.0778C42.9518 22.5366 42.6727 22.7368 42.1904 22.7057C41.761 22.6811 41.3306 22.6811 40.9012 22.7057C40.4591 22.7285 40.2141 22.5495 40.0518 22.1302C39.3936 20.4345 38.7042 18.7509 38.0323 17.0605C37.4446 15.5809 36.8675 14.0975 36.2812 12.618C36.2054 12.4322 36.1023 12.2585 36.012 12.0796C35.9711 12.0295 35.9354 12.0295 35.9074 12.094Z" fill="#555555"/>
<path d="M23.1925 22.8384C22.062 22.8876 20.9318 22.7334 19.8557 22.3834C18.1031 21.804 16.7912 20.715 16.0783 19.0094C14.9301 16.2641 14.8042 13.4734 15.9372 10.6833C16.591 9.0756 17.7861 7.96765 19.4136 7.40115C21.5924 6.64278 23.8288 6.61244 26.0523 7.18045C28.6452 7.84326 30.1263 9.60721 30.67 12.169C31.078 14.0945 31.0636 16.0366 30.5608 17.9454C29.9192 20.3843 28.3615 21.917 25.9158 22.5502C25.0273 22.7804 24.1095 22.8775 23.1925 22.8384ZM27.8398 14.8271C27.9058 13.8776 27.773 12.9247 27.45 12.0294C26.9381 10.6181 25.9173 9.81275 24.4787 9.50409C23.6363 9.32908 22.7681 9.318 21.9215 9.47147C20.2448 9.75813 19.0678 10.6523 18.5923 12.288C18.0614 14.1225 18.0485 15.9813 18.744 17.7923C19.0626 18.6283 19.6819 19.3153 20.4806 19.7185C21.7334 20.3783 23.059 20.3897 24.396 20.1614C26.0174 19.8846 27.0374 18.8911 27.5326 17.3281C27.7845 16.5197 27.8886 15.6724 27.8398 14.8271Z" fill="#555555"/>
<path d="M115.036 12.4497C115.036 13.9406 115.036 15.4321 115.036 16.924C115.036 17.69 114.884 18.4324 114.657 19.1574C114.17 20.7113 113.135 21.7836 111.614 22.3107C109.371 23.088 107.082 23.1085 104.846 22.3107C102.774 21.5682 101.789 19.9461 101.541 17.8121C101.313 15.8714 101.445 13.9247 101.419 11.981C101.398 10.5659 101.41 9.15002 101.419 7.73415C101.419 6.97123 101.465 6.93712 102.248 6.92802C102.703 6.92296 103.158 6.92296 103.613 6.92802C104.371 6.93939 104.409 6.97503 104.413 7.76222C104.42 8.84895 104.413 9.93569 104.413 11.0232C104.413 12.8938 104.413 14.7645 104.413 16.6351C104.403 16.9889 104.43 17.3429 104.496 17.6907C104.787 19.0027 105.554 19.8475 106.885 20.1334C107.965 20.3655 109.038 20.3753 110.094 19.9817C110.871 19.6943 111.431 19.1915 111.741 18.4127C112.015 17.7042 112.151 16.9496 112.14 16.1899C112.14 13.5356 112.14 10.8814 112.14 8.22709C112.14 8.05039 112.14 7.87293 112.14 7.69623C112.159 6.98413 112.203 6.93787 112.934 6.92498C113.414 6.91664 113.895 6.91285 114.375 6.92498C114.954 6.94242 115.023 7.00459 115.031 7.59384C115.044 8.62977 115.035 9.66646 115.036 10.7031V12.4474V12.4497Z" fill="#555555"/>
<path d="M92.524 10.2094C92.0546 11.0792 91.7558 11.9642 91.4039 12.825C90.1602 15.8645 88.9215 18.9065 87.6879 21.9511C87.3891 22.6845 87.3732 22.6928 86.5731 22.6989C86.0423 22.6989 85.5114 22.711 84.9805 22.6936C84.4633 22.6754 84.4042 22.5874 84.6014 22.0869C84.8782 21.3816 85.18 20.6862 85.4765 19.9892C87.1641 16.0124 88.8535 12.0368 90.5447 8.06242C91.1165 6.72694 90.8821 6.94157 92.2282 6.92109C92.6832 6.91427 93.1383 6.9408 93.5933 6.91502C94.0483 6.88924 94.2918 7.08034 94.4601 7.48228C94.9485 8.64712 95.4573 9.80286 95.9609 10.9616C97.4695 14.4375 98.9779 17.9133 100.486 21.3892C101.062 22.7246 101.162 22.7141 99.6223 22.7027C99.2181 22.7027 98.8131 22.6852 98.4089 22.7027C97.9918 22.7232 97.7711 22.5282 97.6073 22.1582C97.1485 21.1184 96.6434 20.0984 96.1899 19.0565C95.992 18.6014 95.7122 18.4065 95.2041 18.4209C94.1423 18.4513 93.0806 18.4308 92.0189 18.4285C91.8165 18.4329 91.6139 18.4258 91.4122 18.4073C91.1589 18.3785 91.0475 18.2094 91.1339 17.9788C91.3634 17.364 91.6079 16.7548 91.8672 16.1512C91.9863 15.8743 92.2624 15.8705 92.5194 15.869C93.177 15.869 93.8345 15.8797 94.4912 15.8569C94.9659 15.841 95.0448 15.7348 94.856 15.2911C94.153 13.6417 93.4265 12.0021 92.706 10.3618C92.6961 10.3246 92.64 10.3026 92.524 10.2094Z" fill="#555555"/>
<path d="M79.2717 18.7418C79.5174 18.5682 79.5545 18.3043 79.6455 18.0798C81.0394 14.6368 82.4285 11.192 83.8128 7.74553C84.1426 6.9265 84.1426 6.92499 85.0261 6.92196C85.6829 6.92196 86.3404 6.9106 86.9979 6.92729C87.5204 6.94018 87.5765 7.01902 87.3627 7.51954C86.7385 8.98394 86.0962 10.44 85.4584 11.8984C84.0509 15.1161 82.6525 18.3384 81.2275 21.547C80.5927 22.9735 80.8278 22.7907 79.2846 22.8052C78.9304 22.8089 78.5755 22.7847 78.2229 22.8097C77.7132 22.8469 77.4417 22.6125 77.2544 22.1522C76.6075 20.5596 75.9318 18.9807 75.2675 17.3965C73.9389 14.2281 72.6102 11.0593 71.2815 7.89039C70.8781 6.92727 70.8826 6.92499 71.9481 6.92347C72.504 6.92347 73.0622 6.95382 73.6165 6.91514C74.1709 6.87647 74.4788 7.09261 74.6874 7.62574C75.58 9.90842 76.512 12.1759 77.4319 14.4472C77.9531 15.7349 78.4772 17.0219 79.004 18.3081C79.0662 18.4635 79.1003 18.647 79.2717 18.7418Z" fill="#555555"/>
<path d="M9.05181 22.8385C7.45924 22.887 5.96982 22.6792 4.55092 22.0688C2.93636 21.3733 1.78895 20.2062 1.17164 18.5682C0.296484 16.2453 0.261599 13.8625 0.938819 11.4956C1.52352 9.45867 2.92195 8.11411 4.9119 7.43461C6.54537 6.8835 8.27729 6.68572 9.99294 6.85443C10.925 6.93937 11.8532 7.03039 12.7557 7.29431C13.5512 7.52712 13.5982 7.58096 13.6043 8.38634C13.6043 8.81558 13.6043 9.24557 13.5899 9.67557C13.577 10.0032 13.3897 10.12 13.078 10.035C12.9073 9.98803 12.7397 9.92961 12.5706 9.87956C10.9492 9.40331 9.30435 9.23496 7.62836 9.50949C5.56636 9.84696 4.01778 11.0376 3.66211 13.2968C3.45811 14.5928 3.51877 15.8706 3.91692 17.1174C4.44777 18.7919 5.66116 19.752 7.34018 20.0993C9.10413 20.4641 10.859 20.3374 12.5828 19.8157C13.5345 19.5275 13.533 19.5214 13.6445 20.4914C13.8325 22.1287 13.8212 22.1408 12.2286 22.5246C11.1893 22.7758 10.1202 22.8814 9.05181 22.8385Z" fill="#555555"/>
<path d="M134.172 16.1679C134.172 18.0638 134.176 19.9552 134.172 21.8488C134.172 22.6603 134.13 22.6952 133.31 22.7028C132.805 22.7081 132.3 22.6982 131.793 22.6975C131.451 22.6975 131.282 22.5283 131.281 22.1871C131.281 21.9596 131.275 21.7321 131.275 21.5045C131.275 17.8942 131.275 14.2836 131.275 10.6728C131.275 10.4703 131.284 10.2678 131.27 10.0661C131.236 9.58001 131.174 9.50113 130.672 9.49279C129.611 9.47535 128.549 9.4928 127.487 9.48142C126.796 9.4746 126.745 9.42229 126.729 8.75872C126.719 8.3037 126.729 7.84868 126.735 7.39366C126.735 7.08425 126.901 6.93257 127.207 6.92802C127.383 6.92802 127.56 6.92042 127.737 6.92042H137.661C137.812 6.92042 137.964 6.91436 138.116 6.92498C138.612 6.95986 138.684 7.01979 138.705 7.50893C138.724 7.96395 138.723 8.41897 138.705 8.87399C138.684 9.40485 138.621 9.47007 138.063 9.48068C137.103 9.49661 136.144 9.48522 135.185 9.4875C134.172 9.4875 134.169 9.4913 134.168 10.487C134.169 12.3804 134.17 14.274 134.172 16.1679Z" fill="#555555"/>
<path d="M118.062 14.721C118.062 12.4742 118.062 10.2272 118.062 7.9799C118.062 7.77817 118.066 7.57569 118.074 7.3732C118.084 7.10474 118.226 6.94244 118.496 6.9394C119.177 6.93182 119.859 6.93182 120.543 6.9394C120.82 6.9394 120.945 7.11839 120.952 7.38305C120.958 7.61056 120.962 7.83807 120.962 8.06558V18.9724C120.962 19.1491 120.959 19.3258 120.962 19.5032C120.982 20.1706 121.031 20.2328 121.712 20.2358C123.505 20.2449 125.297 20.2358 127.089 20.2404C128.419 20.2404 128.379 20.1297 128.379 21.5053C128.379 22.7946 128.39 22.7035 127.177 22.7043C124.526 22.7043 121.875 22.7043 119.224 22.7043C118.996 22.7043 118.769 22.6997 118.541 22.6944C118.238 22.6869 118.081 22.5238 118.073 22.2205C118.069 22.0187 118.064 21.8163 118.063 21.6138L118.062 14.721Z" fill="#555555"/>
<path d="M55.8545 12.2046C55.803 12.1288 55.7324 11.9938 55.8227 11.9665C56.029 11.9028 56.0017 12.1075 56.0418 12.2251L55.8545 12.2046Z" fill="#555555"/>
<path d="M35.9072 12.094C35.9353 12.0303 35.9709 12.0318 36.0126 12.0811L35.9072 12.094Z" fill="#555555"/>
<path d="M154.362 10.9223C154.585 10.8707 154.737 11.0299 154.905 11.1263C157.114 12.398 159.318 13.6805 161.533 14.9439C161.899 15.1524 162.082 15.3852 162.079 15.8342C162.059 18.3596 162.07 20.8849 162.067 23.4103C162.067 23.5521 162.112 23.7136 161.961 23.8425C161.721 23.8789 161.552 23.7037 161.363 23.5953C159.176 22.3356 156.995 21.0654 154.803 19.8149C154.438 19.6063 154.24 19.3697 154.243 18.9261C154.258 16.4007 154.25 13.8753 154.252 11.35C154.249 11.2021 154.237 11.0436 154.362 10.9223Z" fill="#555555"/>
<path d="M155.418 9.61636C155.557 9.37748 155.784 9.30617 155.975 9.19545C158.028 8.00557 160.091 6.8339 162.134 5.62658C162.602 5.35053 162.983 5.31642 163.461 5.59929C165.504 6.80585 167.565 7.98206 169.619 9.1689C169.708 9.21503 169.795 9.26566 169.879 9.32057C170.176 9.53367 170.183 9.68156 169.898 9.8939C169.815 9.94979 169.728 10.0004 169.638 10.0456C167.583 11.2317 165.521 12.4048 163.479 13.6099C163.005 13.8897 162.635 13.8928 162.158 13.6099C160.074 12.3745 157.968 11.1763 155.87 9.96444C155.719 9.88633 155.551 9.82036 155.418 9.61636Z" fill="#555555"/>
<path d="M170.278 20.1281L163.745 23.8911C163.518 23.7395 163.552 23.5787 163.552 23.4361C163.549 21.2429 163.549 19.0497 163.552 16.8565C163.552 16.2551 163.646 16.1839 164.131 16.4607C166.121 17.5982 168.102 18.7524 170.084 19.9021C170.126 19.9287 170.151 19.9795 170.278 20.1281Z" fill="#555555"/>
</svg>
