<svg width="53" height="35" viewBox="0 0 53 35" fill="none" xmlns="http://www.w3.org/2000/svg">
<path d="M46.2446 14.9279H48.6294C49.3418 14.9224 50.0232 14.6356 50.525 14.1299C51.0269 13.6242 51.3085 12.9406 51.3084 12.2282C51.3084 11.5157 51.0268 10.8322 50.5249 10.3265C50.0231 9.82081 49.3417 9.53401 48.6293 9.52858C47.3181 9.59277 44.7825 9.26886 43.6462 9.98975C41.8907 6.45973 41.6047 0.826912 36.7622 0.765869L15.9972 0.765936C11.165 0.820037 10.8714 6.46315 9.11295 9.98973C8.54504 9.68745 7.91164 9.5291 7.2683 9.52857H4.12989C3.41721 9.53362 2.73543 9.82028 2.23327 10.326C1.7311 10.8318 1.44929 11.5156 1.4493 12.2283C1.44931 12.941 1.73114 13.6247 2.23331 14.1305C2.73549 14.6362 3.41728 14.9228 4.12996 14.9279H6.51466C4.86837 16.8469 0.285533 19.1398 0.50781 22.2393L0.507878 30.2035C0.514241 31.4724 1.02114 32.6876 1.91842 33.5849C2.8157 34.4821 4.03085 34.989 5.29978 34.9954H13.7925L15.7272 30.811C15.8158 30.6167 15.9582 30.4519 16.1377 30.3362C16.3172 30.2206 16.5261 30.1589 16.7396 30.1585H36.1546C36.3753 30.1592 36.5909 30.2246 36.7749 30.3466C36.9588 30.4685 37.1029 30.6417 37.1895 30.8447L38.9668 34.9954H47.4594C48.7283 34.9889 49.9434 34.482 50.8406 33.5847C51.7379 32.6875 52.2448 31.4724 52.2513 30.2035L52.2513 22.2395C52.2543 21.6011 52.1202 20.9695 51.8583 20.3874C51.5963 19.8053 51.2125 19.2861 50.7328 18.8649C49.1131 17.5263 47.3133 15.9515 46.2446 14.9279ZM13.6462 4.57924C13.8377 4.114 14.1638 3.71658 14.5827 3.43798C15.0015 3.15938 15.4941 3.01232 15.9972 3.01567H36.7621C37.2596 3.01106 37.7473 3.15389 38.1637 3.42615C38.5801 3.69841 38.9066 4.08789 39.1019 4.54546C39.3494 5.18664 43.0838 14.4555 43.1401 14.5117H9.61925C9.6755 14.4555 13.3988 5.20916 13.6462 4.57924ZM9.653 23.5556H5.41226C5.11701 23.5509 4.83543 23.4304 4.62829 23.2199C4.42114 23.0095 4.30505 22.726 4.30505 22.4308C4.30505 22.1355 4.42114 21.852 4.62829 21.6416C4.83543 21.4311 5.11701 21.3106 5.41226 21.3059H9.653C9.94825 21.3106 10.2298 21.4311 10.437 21.6416C10.6441 21.852 10.7602 22.1355 10.7602 22.4308C10.7602 22.726 10.6441 23.0095 10.437 23.2199C10.2298 23.4304 9.94825 23.5509 9.653 23.5556ZM38.6181 23.5556H14.1524C13.8572 23.5509 13.5756 23.4304 13.3685 23.2199C13.1613 23.0095 13.0452 22.726 13.0452 22.4308C13.0452 22.1355 13.1613 21.852 13.3685 21.6416C13.5756 21.4311 13.8572 21.3106 14.1524 21.3059H38.6181C38.9134 21.3106 39.195 21.4311 39.4021 21.6416C39.6092 21.852 39.7253 22.1355 39.7253 22.4308C39.7253 22.726 39.6092 23.0095 39.4021 23.2199C39.195 23.4304 38.9134 23.5509 38.6181 23.5556ZM47.347 23.5556H43.1176C42.8198 23.5547 42.5346 23.4357 42.3245 23.2249C42.1143 23.014 41.9963 22.7285 41.9963 22.4308C41.9963 22.133 42.1143 21.8475 42.3245 21.6366C42.5346 21.4258 42.8198 21.3068 43.1176 21.3059H47.347C47.6423 21.3106 47.9239 21.4311 48.131 21.6416C48.3382 21.852 48.4543 22.1355 48.4543 22.4308C48.4543 22.726 48.3382 23.0095 48.131 23.2199C47.9239 23.4304 47.6423 23.5509 47.347 23.5556Z" fill="#3979F1"/>
</svg>
