<svg width="231" height="66" viewBox="0 0 231 66" fill="none" xmlns="http://www.w3.org/2000/svg">
<path d="M8.61814 1.95651V56.1909H35.907V64H0.208372V1.95651H8.61814ZM97.9766 32.9353C97.9766 51.8144 85.6194 65.0298 68.0275 65.0298C50.5215 65.0298 38.3359 51.8144 38.3359 32.9353C38.3359 14.1421 50.6073 0.840928 68.1134 0.840928C85.7052 0.840928 97.9766 14.0563 97.9766 32.9353ZM89.1378 32.9353C89.1378 18.5186 80.728 8.99326 68.1134 8.99326C55.4987 8.99326 47.1747 18.5186 47.1747 32.9353C47.1747 47.3521 55.4987 56.9633 68.1134 56.9633C80.728 56.9633 89.1378 47.2663 89.1378 32.9353ZM135.335 8.82163C121.948 8.82163 113.882 18.6902 113.882 33.3644C113.882 48.3819 122.635 57.0491 135.421 57.0491C145.976 57.0491 154.472 51.6428 154.472 39.114V37.3119H133.705V29.846H162.367V64.0858H155.33L154.729 55.676C151.382 61.0823 143.831 65.0298 134.734 65.0298C117.143 65.0298 105.043 52.3293 105.043 33.1928C105.043 14.3137 117.228 0.926746 135.507 0.926746C149.065 0.926746 159.621 8.73581 161.68 20.664H152.755C150.438 12.7691 143.573 8.82163 135.335 8.82163ZM230.301 32.9353C230.301 51.8144 217.944 65.0298 200.352 65.0298C182.846 65.0298 170.66 51.8144 170.66 32.9353C170.66 14.1421 182.932 0.840928 200.438 0.840928C218.03 0.840928 230.301 14.0563 230.301 32.9353ZM221.462 32.9353C221.462 18.5186 213.052 8.99326 200.438 8.99326C187.823 8.99326 179.499 18.5186 179.499 32.9353C179.499 47.3521 187.823 56.9633 200.438 56.9633C213.052 56.9633 221.462 47.2663 221.462 32.9353Z" fill="white"/>
</svg>
