<svg width="116" height="31" viewBox="0 0 116 31" fill="none" xmlns="http://www.w3.org/2000/svg">
<path d="M2.88 27.9H16.74V30H0.654V0.599998H2.88V27.9ZM32.7571 30.462C24.2731 30.462 17.5951 23.7 17.5951 15.3C17.5951 6.9 24.2731 0.137999 32.7571 0.137999C41.2411 0.137999 47.9191 6.9 47.9191 15.3C47.9191 23.7 41.2411 30.462 32.7571 30.462ZM32.7571 28.32C40.0231 28.32 45.6931 22.524 45.6931 15.3C45.6931 8.076 40.0231 2.28 32.7571 2.28C25.4911 2.28 19.8211 8.076 19.8211 15.3C19.8211 22.524 25.4911 28.32 32.7571 28.32ZM81.5362 16.308V17.442C81.5362 24.54 76.1182 30.462 67.3402 30.462C58.2262 30.462 51.8842 23.7 51.8842 15.3C51.8842 6.9 58.2262 0.137999 67.1722 0.137999C72.6322 0.137999 77.3782 2.994 79.8142 7.236L77.8402 8.412C75.9082 4.716 71.7922 2.28 67.1722 2.28C59.4442 2.28 54.1102 8.076 54.1102 15.3C54.1102 22.524 59.4442 28.32 67.3402 28.32C74.4802 28.32 78.8062 23.91 79.2682 18.408H66.7942V16.308H81.5362ZM100.597 30.462C92.1129 30.462 85.4349 23.7 85.4349 15.3C85.4349 6.9 92.1129 0.137999 100.597 0.137999C109.081 0.137999 115.759 6.9 115.759 15.3C115.759 23.7 109.081 30.462 100.597 30.462ZM100.597 28.32C107.863 28.32 113.533 22.524 113.533 15.3C113.533 8.076 107.863 2.28 100.597 2.28C93.3309 2.28 87.6609 8.076 87.6609 15.3C87.6609 22.524 93.3309 28.32 100.597 28.32Z" fill="white"/>
</svg>
