<svg width="70" height="70" viewBox="0 0 70 70" fill="none" xmlns="http://www.w3.org/2000/svg">
<path d="M60.2188 0.954102C60.8239 0.348842 61.806 0.348844 62.4111 0.954102L69.042 7.58496C69.6471 8.19018 69.647 9.1712 69.042 9.77637L63.7188 15.0996L65.0986 16.4795C65.7039 17.0848 65.7039 18.0656 65.0986 18.6709C64.4935 19.276 63.5123 19.2761 62.9072 18.6709L61.5273 17.291L57.5947 21.2236L58.9746 22.6035C59.5799 23.2088 59.5799 24.1896 58.9746 24.7949C58.3695 25.4002 57.3884 25.4002 56.7832 24.7949L55.4033 23.415L46.5342 32.2842L47.1387 32.8887H47.1064L47.9834 33.7344L47.9902 33.7412L47.9893 33.7393L47.999 33.749C51.9606 37.569 51.2874 44.5353 46.7432 47.5664L46.5234 47.707L46.5146 47.7129C45.0298 48.6807 43.671 49.5735 42.6885 50.2275C41.7998 50.8115 41.2531 51.7977 41.2012 52.8682C40.5939 61.9068 35.0743 67.285 28.2676 68.9453C21.4332 70.6122 13.2757 68.5322 7.46289 62.543L6.90039 61.9805C1.32099 56.2096 -0.564995 48.3329 1.06445 41.7041C2.74002 34.8884 8.13306 29.3686 17.1494 28.793C18.1534 28.746 19.0836 28.2661 19.6738 27.4824L19.7881 27.3213L19.793 27.3125H19.7939C19.7942 27.312 19.7943 27.3105 19.7949 27.3096C19.7961 27.3078 19.7977 27.3051 19.7998 27.3018C19.8044 27.2945 19.8115 27.2835 19.8203 27.2695C19.838 27.2416 19.8645 27.2005 19.8975 27.1484C19.9634 27.0441 20.0579 26.8954 20.1709 26.7168C20.3972 26.359 20.6983 25.8813 21 25.4043C21.0958 25.2528 21.1917 25.1008 21.2852 24.9531V25.0283L22.2031 23.5029C22.2042 23.5012 22.2054 23.5001 22.2061 23.499L22.207 23.4971H22.2061L22.2129 23.4863C25.131 18.6409 32.3786 17.8471 36.2764 21.9463V21.9473L37.751 23.4219L46.5801 14.5928L46.2266 14.2393L44.8662 12.8779C44.261 12.2726 44.261 11.2918 44.8662 10.6865C45.4713 10.0813 46.4525 10.0813 47.0576 10.6865L48.4189 12.0469L48.7725 12.4004L49.126 12.0469L52.3516 8.82227L52.7051 8.46875L52.3516 8.11426L50.9902 6.75391C50.3851 6.14866 50.3852 5.16779 50.9902 4.5625C51.5954 3.95726 52.5765 3.9573 53.1816 4.5625L54.543 5.92285L54.8965 6.27637L60.2188 0.954102ZM34.0811 24.1357C31.4935 21.4334 26.7628 21.9565 24.8271 25.1523L22.4062 28.9795C21.2904 30.7059 19.3705 31.798 17.2773 31.8906C13.6196 32.0524 10.3774 33.3797 7.89551 35.7451L7.65723 35.9766L7.64844 35.9863C2.34589 41.5765 2.58878 49.0342 5.83887 55.1191C9.07987 61.187 15.3663 66.0095 22.3545 66.3926V66.3936C30.7315 67.163 37.8431 61.1256 38.1035 52.7471C38.2374 50.64 39.0323 49.3481 40.209 48.2822C40.8095 47.7382 41.5144 47.2506 42.3018 46.7422C43.0776 46.2412 43.952 45.7092 44.8311 45.1104L44.8301 45.1094C46.3324 44.1264 47.3038 42.5394 47.4932 40.7539C47.6826 38.9656 47.0641 37.2062 45.7969 35.9307L44.3428 34.4766L43.9893 34.8301L39.959 38.8594L39.8311 38.9883L39.8145 39.1689C39.2052 46.0756 30.646 49.175 25.7559 44.2432L25.7529 44.2402L25.5273 44.0088C20.9187 39.0845 24.0271 30.782 30.8271 30.1807L31.0078 30.165L35.5596 25.6133L35.2061 25.2598H35.2051L35.1934 25.248C35.1852 25.2399 35.1734 25.2271 35.1582 25.2119C35.1277 25.1814 35.0835 25.1382 35.0312 25.0859C34.9265 24.9812 34.7871 24.8408 34.6475 24.7012C34.5078 24.5615 34.3675 24.4221 34.2627 24.3174L34.0908 24.1455C34.0899 24.1446 34.0895 24.1432 34.0889 24.1426L34.0869 24.1416L34.0859 24.1396C34.0854 24.1392 34.084 24.1377 34.083 24.1367C34.0829 24.1366 34.0821 24.136 34.0811 24.1357ZM31.5264 33.2461C26.9917 33.2943 24.734 38.8376 27.9385 42.042V42.043C29.8693 44.0553 33.3164 44.0539 35.2471 42.042C36.2002 41.085 36.7329 39.818 36.75 38.4697V38.4512L36.749 38.4326C36.7457 38.3791 36.7449 38.3246 36.7471 38.2705L36.748 38.2529L36.7471 38.2344C36.705 36.9205 36.1739 35.6896 35.2402 34.7559C34.3064 33.8221 33.0754 33.2901 31.7617 33.248H31.7441L31.7256 33.249C31.6704 33.2512 31.6162 33.2504 31.5635 33.2471L31.5449 33.2461H31.5264ZM34.7959 30.7607L35.4053 31.0742C36.8772 31.8315 38.1647 33.1189 38.9219 34.5908L39.2354 35.2002L53.2119 21.2236L48.7725 16.7842L34.7959 30.7607ZM50.9639 14.5928L55.4033 19.0322L59.3359 15.0996L54.8965 10.6602L50.9639 14.5928ZM57.4414 8.11426L57.0879 8.46875L57.4414 8.82227L61.1738 12.5537L61.5273 12.9082L61.8809 12.5537L65.7539 8.68066L61.3145 4.24121L57.4414 8.11426Z" fill="black" fill-opacity="0.6" stroke="#FAFAFA"/>
<path d="M14.5187 42.6641C15.1239 42.0588 16.105 42.0588 16.7101 42.6641L27.3175 53.2715H27.3185C28.7278 54.7949 26.6518 56.8778 25.1261 55.4639L14.5187 44.8555C13.9134 44.2502 13.9134 43.2694 14.5187 42.6641Z" fill="black" fill-opacity="0.6" stroke="#FAFAFA"/>
</svg>
