<svg width="294" height="43" viewBox="0 0 294 43" fill="none" xmlns="http://www.w3.org/2000/svg">
<path d="M58.8262 40.4121C58.7832 40.4408 58.5898 40.541 58.2461 40.7129C57.9023 40.8848 57.4512 41.071 56.8926 41.2715C56.334 41.472 55.6966 41.651 54.9805 41.8086C54.2643 41.9805 53.5195 42.0664 52.7461 42.0664C51.4857 42.0664 50.3542 41.8444 49.3516 41.4004C48.349 40.9564 47.4967 40.3262 46.7949 39.5098C46.1074 38.7077 45.5775 37.7337 45.2051 36.5879C44.8327 35.4564 44.6465 34.196 44.6465 32.8066C44.6465 31.4746 44.8112 30.0137 45.1406 28.4238C45.4701 26.8197 45.8997 25.1725 46.4297 23.4824C46.9596 21.7923 47.554 20.1022 48.2129 18.4121C48.8861 16.722 49.5592 15.1178 50.2324 13.5996C50.9199 12.0671 51.5716 10.6706 52.1875 9.41016C52.8034 8.13542 53.3333 7.07552 53.7773 6.23047C52.9753 7.14714 52.0586 8.20703 51.0273 9.41016C49.9961 10.599 48.8932 11.9095 47.7188 13.3418C46.5586 14.7598 45.3483 16.278 44.0879 17.8965C42.8275 19.5007 41.5527 21.1764 40.2637 22.9238C38.9889 24.6569 37.7214 26.4401 36.4609 28.2734C35.2005 30.0924 33.9974 31.9258 32.8516 33.7734L31.8203 33.4297C32.0352 31.0951 32.3861 28.7819 32.873 26.4902C33.3743 24.1842 33.9329 21.9714 34.5488 19.8516C35.179 17.7174 35.8379 15.7194 36.5254 13.8574C37.2272 11.9811 37.8932 10.3053 38.5234 8.83008C37.5638 10.1478 36.6042 11.5801 35.6445 13.127C34.6992 14.6595 33.7396 16.2422 32.7656 17.875C31.7917 19.4935 30.7891 21.1263 29.7578 22.7734C28.7266 24.4062 27.6523 25.9818 26.5352 27.5C25.418 29.0039 24.2363 30.4147 22.9902 31.7324C21.7585 33.0358 20.4408 34.1673 19.0371 35.127C17.6478 36.1009 16.1582 36.8672 14.5684 37.4258C12.9928 37.9844 11.3027 38.2637 9.49805 38.2637C8.10872 38.2637 6.84831 38.056 5.7168 37.6406C4.58529 37.2253 3.61133 36.6523 2.79492 35.9219C1.99284 35.2057 1.37695 34.3607 0.947266 33.3867C0.503255 32.4128 0.28125 31.36 0.28125 30.2285C0.28125 29.1257 0.460286 28.1302 0.818359 27.2422C1.16211 26.3398 1.6276 25.5449 2.21484 24.8574C2.80208 24.1556 3.48242 23.554 4.25586 23.0527C5.04362 22.5371 5.86719 22.1146 6.72656 21.7852C7.58594 21.4557 8.45247 21.2122 9.32617 21.0547C10.2142 20.8971 11.0592 20.8184 11.8613 20.8184C13.5228 20.8184 15.1126 21.0189 16.6309 21.4199C18.1491 21.8066 19.61 22.5013 21.0137 23.5039L20.2617 24.3418C20.2474 24.3275 20.0612 24.1986 19.7031 23.9551C19.3451 23.6973 18.8294 23.418 18.1562 23.1172C17.4831 22.8164 16.6452 22.5443 15.6426 22.3008C14.6543 22.0573 13.5228 21.9355 12.248 21.9355C11.0163 21.9355 9.82031 22.1003 8.66016 22.4297C7.51432 22.7591 6.4974 23.2604 5.60938 23.9336C4.73568 24.5924 4.03385 25.4303 3.50391 26.4473C2.97396 27.4499 2.70898 28.6315 2.70898 29.9922C2.70898 30.9661 2.89518 31.8685 3.26758 32.6992C3.6543 33.5299 4.18424 34.2461 4.85742 34.8477C5.5306 35.4635 6.33984 35.9434 7.28516 36.2871C8.23047 36.6309 9.27604 36.8027 10.4219 36.8027C12.1406 36.8027 13.7878 36.4375 15.3633 35.707C16.9388 34.9766 18.457 33.9883 19.918 32.7422C21.3789 31.4961 22.7826 30.0423 24.1289 28.3809C25.4896 26.7194 26.793 24.9648 28.0391 23.1172C29.2995 21.2695 30.5169 19.3717 31.6914 17.4238C32.8659 15.4759 34.0046 13.5996 35.1074 11.7949C36.2103 9.97591 37.2845 8.27865 38.3301 6.70312C39.3757 5.11328 40.3997 3.74544 41.4023 2.59961L42.3691 3.17969C41.7389 5.09896 41.1947 6.78906 40.7363 8.25C40.278 9.69661 39.877 10.9714 39.5332 12.0742C39.2038 13.1771 38.9173 14.1296 38.6738 14.9316C38.4447 15.7337 38.2441 16.4499 38.0723 17.0801C37.9004 17.7103 37.7428 18.2832 37.5996 18.7988C37.4707 19.3001 37.3346 19.8014 37.1914 20.3027C37.0625 20.804 36.9121 21.334 36.7402 21.8926C36.5684 22.4512 36.3607 23.1029 36.1172 23.8477C35.8737 24.5781 35.5872 25.4303 35.2578 26.4043C34.9284 27.3639 34.5273 28.5026 34.0547 29.8203C35.2578 28.0013 36.4896 26.2109 37.75 24.4492C39.0247 22.6875 40.2923 20.9831 41.5527 19.3359C42.8132 17.6888 44.0449 16.1133 45.248 14.6094C46.4655 13.1055 47.6113 11.709 48.6855 10.4199C49.7741 9.13086 50.7695 7.96354 51.6719 6.91797C52.5885 5.85807 53.3835 4.95573 54.0566 4.21094C54.7298 3.46615 55.2526 2.88607 55.625 2.4707C56.0117 2.05534 56.2122 1.84049 56.2266 1.82617L57.1289 2.49219C56.2839 4.58333 55.446 6.68164 54.6152 8.78711C53.7845 10.8783 52.9824 12.9193 52.209 14.9102C51.4499 16.901 50.7409 18.8203 50.082 20.668C49.4232 22.5156 48.8503 24.2487 48.3633 25.8672C47.8763 27.4714 47.4896 28.9395 47.2031 30.2715C46.931 31.5892 46.7949 32.7207 46.7949 33.666C46.7949 34.7832 46.9238 35.793 47.1816 36.6953C47.4538 37.5977 47.8405 38.3639 48.3418 38.9941C48.8431 39.6243 49.459 40.1042 50.1895 40.4336C50.9342 40.7773 51.7721 40.9492 52.7031 40.9492C53.4049 40.9492 54.0853 40.8704 54.7441 40.7129C55.4173 40.5553 56.0117 40.3835 56.5273 40.1973C57.043 40.0111 57.4583 39.8392 57.7734 39.6816C58.0885 39.5241 58.2533 39.4453 58.2676 39.4453L58.8262 40.4121ZM56.8281 28.1016C56.7995 28.2734 56.778 28.4453 56.7637 28.6172C56.7493 28.7891 56.7422 28.9609 56.7422 29.1328C56.7422 29.6484 56.8138 30.1426 56.957 30.6152C57.1146 31.0736 57.3366 31.4818 57.623 31.8398C57.9238 32.1836 58.2891 32.4557 58.7188 32.6562C59.1628 32.8568 59.6641 32.957 60.2227 32.957C62.099 32.957 63.9108 32.3197 65.6582 31.0449C67.4056 29.7702 69.1458 27.7507 70.8789 24.9863L71.6094 25.6309C70.6641 27.2064 69.7044 28.5384 68.7305 29.627C67.7565 30.7012 66.7826 31.5749 65.8086 32.248C64.849 32.9212 63.9036 33.4082 62.9727 33.709C62.0417 34.0098 61.1536 34.1602 60.3086 34.1602C59.6927 34.1602 59.041 34.0742 58.3535 33.9023C57.666 33.7305 57.0286 33.444 56.4414 33.043C55.8685 32.6419 55.3958 32.1048 55.0234 31.4316C54.6367 30.7585 54.4434 29.9206 54.4434 28.918C54.4434 27.8438 54.6296 26.8125 55.002 25.8242C55.36 24.8216 55.8327 23.8906 56.4199 23.0312C57.0072 22.1719 57.6803 21.3913 58.4395 20.6895C59.1986 19.9733 59.9648 19.3646 60.7383 18.8633C61.526 18.362 62.2923 17.9753 63.0371 17.7031C63.7819 17.4167 64.4408 17.2734 65.0137 17.2734C65.3861 17.2734 65.7656 17.3307 66.1523 17.4453C66.5391 17.5599 66.8828 17.7389 67.1836 17.9824C67.4987 18.2259 67.7493 18.5482 67.9355 18.9492C68.1361 19.3503 68.2363 19.8301 68.2363 20.3887C68.2363 21.1478 68.0573 21.8639 67.6992 22.5371C67.3555 23.196 66.89 23.8118 66.3027 24.3848C65.7155 24.9434 65.0352 25.4518 64.2617 25.9102C63.4883 26.3542 62.679 26.7337 61.834 27.0488C60.9889 27.3639 60.1367 27.6146 59.2773 27.8008C58.418 27.987 57.6016 28.0872 56.8281 28.1016ZM57 27.1777C57.9596 27.0775 58.862 26.877 59.707 26.5762C60.5521 26.2754 61.3255 25.9102 62.0273 25.4805C62.7292 25.0365 63.3522 24.5566 63.8965 24.041C64.4551 23.5254 64.9206 23.0026 65.293 22.4727C65.6654 21.9427 65.9518 21.4342 66.1523 20.9473C66.3529 20.4603 66.4531 20.0234 66.4531 19.6367C66.4531 19.25 66.3457 18.9421 66.1309 18.7129C65.9303 18.4837 65.6868 18.3691 65.4004 18.3691C64.7702 18.3691 64.0612 18.5983 63.2734 19.0566C62.4857 19.5007 61.6979 20.1237 60.9102 20.9258C60.1224 21.7135 59.3776 22.6445 58.6758 23.7188C57.9883 24.793 57.4297 25.946 57 27.1777ZM86.4336 1.74023C86.9349 1.74023 87.3503 1.86198 87.6797 2.10547C88.0234 2.34896 88.1953 2.79297 88.1953 3.4375C88.1953 3.88151 88.1022 4.41146 87.916 5.02734C87.7441 5.64323 87.5007 6.31641 87.1855 7.04688C86.8848 7.76302 86.5267 8.52214 86.1113 9.32422C85.696 10.112 85.2448 10.8997 84.7578 11.6875C84.2852 12.4753 83.7839 13.2415 83.2539 13.9863C82.7383 14.7311 82.2227 15.4186 81.707 16.0488C80.6758 17.3236 79.7806 18.3978 79.0215 19.2715C78.2767 20.1452 77.6322 20.89 77.0879 21.5059C76.5436 22.1074 76.0853 22.6016 75.7129 22.9883C75.3405 23.3607 75.0111 23.6829 74.7246 23.9551C74.4382 24.2272 74.1732 24.4779 73.9297 24.707C73.6862 24.9219 73.4355 25.1654 73.1777 25.4375C73.0632 25.9818 73.0059 26.5046 73.0059 27.0059C73.0202 27.4928 73.0273 27.944 73.0273 28.3594C73.0273 29.6055 73.2279 30.5293 73.6289 31.1309C74.0299 31.7324 74.5957 32.0332 75.3262 32.0332C75.8132 32.0332 76.3001 31.9115 76.7871 31.668C77.2884 31.4102 77.7826 31.0807 78.2695 30.6797C78.7565 30.2786 79.2292 29.8275 79.6875 29.3262C80.1458 28.8105 80.5755 28.2949 80.9766 27.7793C81.3919 27.2493 81.7643 26.7409 82.0938 26.2539C82.4232 25.7669 82.7096 25.3444 82.9531 24.9863L83.748 25.5879C83.7051 25.6452 83.5618 25.8743 83.3184 26.2754C83.0892 26.6621 82.7812 27.1348 82.3945 27.6934C82.0078 28.252 81.5495 28.8535 81.0195 29.498C80.4896 30.1283 79.9167 30.7155 79.3008 31.2598C78.6849 31.804 78.0332 32.2552 77.3457 32.6133C76.6725 32.9714 75.985 33.1504 75.2832 33.1504C74.696 33.1504 74.1302 33.043 73.5859 32.8281C73.056 32.599 72.5833 32.248 72.168 31.7754C71.7669 31.2884 71.4375 30.6725 71.1797 29.9277C70.9362 29.1829 70.8145 28.2878 70.8145 27.2422C70.8145 25.9388 70.9648 24.5781 71.2656 23.1602C71.5807 21.7279 72.0033 20.2956 72.5332 18.8633C73.0632 17.4167 73.6862 15.9915 74.4023 14.5879C75.1185 13.1842 75.8776 11.8522 76.6797 10.5918C77.4961 9.31706 78.3411 8.14258 79.2148 7.06836C80.1029 5.97982 80.9694 5.04167 81.8145 4.25391C82.6738 3.46615 83.4974 2.85026 84.2852 2.40625C85.0729 1.96224 85.7891 1.74023 86.4336 1.74023ZM73.5645 23.5254C74.7819 22.265 75.9564 20.9902 77.0879 19.7012C78.2337 18.3978 79.3008 17.1159 80.2891 15.8555C81.2917 14.5807 82.2083 13.349 83.0391 12.1602C83.8698 10.957 84.5788 9.82552 85.166 8.76562C85.7533 7.70573 86.2116 6.73893 86.541 5.86523C86.8704 4.99154 87.0352 4.23958 87.0352 3.60938C87.0352 3.49479 86.9779 3.3444 86.8633 3.1582C86.7487 2.95768 86.6126 2.85742 86.4551 2.85742C86.0111 2.85742 85.4238 3.15104 84.6934 3.73828C83.9629 4.32552 83.168 5.1276 82.3086 6.14453C81.4635 7.14714 80.5827 8.32161 79.666 9.66797C78.7637 11.0143 77.9115 12.4538 77.1094 13.9863C76.3073 15.5189 75.5911 17.1016 74.9609 18.7344C74.3307 20.3672 73.8652 21.9642 73.5645 23.5254ZM95.0703 27.1562C95.1276 27.1706 95.1849 27.1777 95.2422 27.1777C95.2995 27.1777 95.3639 27.1777 95.4355 27.1777C95.8366 27.1777 96.2018 27.1419 96.5312 27.0703C96.8607 26.9844 97.1615 26.8555 97.4336 26.6836C97.7201 26.5117 97.9922 26.2897 98.25 26.0176C98.5078 25.7311 98.7585 25.3874 99.002 24.9863L99.7754 25.5879C99.0879 26.5618 98.3789 27.2422 97.6484 27.6289C96.918 28.0156 96.1445 28.209 95.3281 28.209C95.0273 28.209 94.7624 28.1803 94.5332 28.123C93.9173 29.1543 93.2585 30.0352 92.5566 30.7656C91.8548 31.4818 91.1387 32.069 90.4082 32.5273C89.6777 32.9857 88.9544 33.3151 88.2383 33.5156C87.5221 33.7305 86.8561 33.8379 86.2402 33.8379C85.61 33.8379 85.0228 33.7233 84.4785 33.4941C83.9486 33.2793 83.4902 32.9642 83.1035 32.5488C82.7168 32.1335 82.416 31.6393 82.2012 31.0664C81.9863 30.4935 81.8789 29.849 81.8789 29.1328C81.8789 28.4167 81.9935 27.6862 82.2227 26.9414C82.4518 26.1966 82.7598 25.459 83.1465 24.7285C83.5475 23.998 84.013 23.2962 84.543 22.623C85.0729 21.9355 85.6458 21.2982 86.2617 20.7109C86.8776 20.1237 87.515 19.5938 88.1738 19.1211C88.8327 18.6484 89.4915 18.2617 90.1504 17.9609L90.8379 18.8633C90.0788 19.4076 89.3053 20.0951 88.5176 20.9258C87.7441 21.7565 87.0352 22.666 86.3906 23.6543C85.7604 24.6426 85.2376 25.6738 84.8223 26.748C84.4212 27.8079 84.2207 28.8392 84.2207 29.8418C84.2207 30.7441 84.4212 31.446 84.8223 31.9473C85.2233 32.4342 85.832 32.6777 86.6484 32.6777C87.2786 32.6777 87.9017 32.5488 88.5176 32.291C89.1335 32.0332 89.735 31.6823 90.3223 31.2383C90.9095 30.7943 91.4753 30.2715 92.0195 29.6699C92.5638 29.054 93.0794 28.4023 93.5664 27.7148C93.151 27.4714 92.7858 27.1491 92.4707 26.748C92.1556 26.3327 91.8906 25.8672 91.6758 25.3516C91.4609 24.8216 91.2962 24.2559 91.1816 23.6543C91.0814 23.0527 91.0312 22.4368 91.0312 21.8066C91.0312 21.1764 91.11 20.582 91.2676 20.0234C91.4251 19.4648 91.64 18.9779 91.9121 18.5625C92.1986 18.1328 92.528 17.7962 92.9004 17.5527C93.2728 17.3092 93.681 17.1875 94.125 17.1875C94.526 17.1875 94.8841 17.2949 95.1992 17.5098C95.5143 17.7103 95.7793 17.9967 95.9941 18.3691C96.209 18.7272 96.3737 19.1569 96.4883 19.6582C96.6029 20.1595 96.6602 20.6966 96.6602 21.2695C96.6602 21.6992 96.6243 22.1719 96.5527 22.6875C96.4811 23.2031 96.3737 23.7259 96.2305 24.2559C96.1016 24.7715 95.9368 25.2871 95.7363 25.8027C95.5501 26.304 95.3281 26.7552 95.0703 27.1562ZM92.1484 21.8066C92.1484 22.222 92.1842 22.6732 92.2559 23.1602C92.3275 23.6471 92.4421 24.1198 92.5996 24.5781C92.7572 25.0365 92.9577 25.4661 93.2012 25.8672C93.4447 26.2539 93.7454 26.5618 94.1035 26.791C94.3613 26.2897 94.5762 25.7812 94.748 25.2656C94.9342 24.7357 95.0846 24.2272 95.1992 23.7402C95.3281 23.2533 95.4141 22.8021 95.457 22.3867C95.5143 21.957 95.543 21.5846 95.543 21.2695C95.543 20.8398 95.5072 20.446 95.4355 20.0879C95.3639 19.7298 95.2637 19.4219 95.1348 19.1641C95.0202 18.8919 94.8698 18.6842 94.6836 18.541C94.5117 18.3835 94.3184 18.3047 94.1035 18.3047C93.8171 18.3047 93.5521 18.4049 93.3086 18.6055C93.0651 18.7917 92.8574 19.0495 92.6855 19.3789C92.5137 19.694 92.3776 20.0664 92.2773 20.4961C92.1914 20.9115 92.1484 21.3483 92.1484 21.8066ZM122.979 4.76953C122.821 4.9987 122.563 5.37826 122.205 5.9082C121.847 6.43815 121.432 7.06836 120.959 7.79883C120.486 8.5293 119.971 9.33854 119.412 10.2266C118.868 11.1146 118.316 12.0312 117.758 12.9766C117.214 13.9219 116.676 14.8815 116.146 15.8555C115.631 16.8151 115.173 17.7389 114.771 18.627C114.141 20.002 113.618 21.2337 113.203 22.3223C112.802 23.3965 112.48 24.3561 112.236 25.2012C112.007 26.0462 111.842 26.7839 111.742 27.4141C111.656 28.0299 111.613 28.5599 111.613 29.0039C111.613 29.8203 111.735 30.3861 111.979 30.7012C112.236 31.0163 112.58 31.1738 113.01 31.1738C113.454 31.1738 113.876 31.0592 114.277 30.8301C114.693 30.6009 115.087 30.3073 115.459 29.9492C115.846 29.5911 116.204 29.1829 116.533 28.7246C116.877 28.2663 117.192 27.8079 117.479 27.3496C117.779 26.8913 118.051 26.4544 118.295 26.0391C118.538 25.6237 118.753 25.2728 118.939 24.9863L119.713 25.5879C119.555 25.8457 119.355 26.1895 119.111 26.6191C118.882 27.0345 118.617 27.4928 118.316 27.9941C118.016 28.4954 117.672 29.0039 117.285 29.5195C116.898 30.0208 116.469 30.4792 115.996 30.8945C115.538 31.3099 115.022 31.6536 114.449 31.9258C113.891 32.1836 113.282 32.3125 112.623 32.3125C112.308 32.3125 111.971 32.2695 111.613 32.1836C111.27 32.0977 110.947 31.9473 110.646 31.7324C110.346 31.5176 110.081 31.224 109.852 30.8516C109.622 30.4648 109.472 29.9779 109.4 29.3906C108.326 30.5508 107.281 31.4316 106.264 32.0332C105.247 32.6204 104.287 32.9141 103.385 32.9141C102.926 32.9141 102.418 32.8353 101.859 32.6777C101.315 32.5202 100.799 32.248 100.312 31.8613C99.8255 31.4746 99.4173 30.9661 99.0879 30.3359C98.7585 29.6914 98.5938 28.8965 98.5938 27.9512C98.5938 26.8913 98.7585 25.8815 99.0879 24.9219C99.4173 23.9622 99.8613 23.0742 100.42 22.2578C100.979 21.4271 101.616 20.6823 102.332 20.0234C103.062 19.3503 103.822 18.7845 104.609 18.3262C105.397 17.8535 106.185 17.4883 106.973 17.2305C107.775 16.9727 108.527 16.8438 109.229 16.8438C110.16 16.8438 110.89 16.9583 111.42 17.1875C111.95 17.4167 112.351 17.6458 112.623 17.875C112.824 17.474 113.096 16.9655 113.439 16.3496C113.783 15.7194 114.184 15.0247 114.643 14.2656C115.101 13.4922 115.609 12.6758 116.168 11.8164C116.727 10.9427 117.321 10.069 117.951 9.19531C118.581 8.30729 119.24 7.43359 119.928 6.57422C120.63 5.71484 121.339 4.91276 122.055 4.16797L122.979 4.76953ZM109.379 27.7793C109.451 26.7194 109.694 25.4733 110.109 24.041C110.539 22.5944 111.191 20.9329 112.064 19.0566C111.864 18.7559 111.577 18.5267 111.205 18.3691C110.847 18.1973 110.439 18.1113 109.98 18.1113C109.279 18.1113 108.562 18.2546 107.832 18.541C107.116 18.8275 106.421 19.2142 105.748 19.7012C105.089 20.1882 104.466 20.7682 103.879 21.4414C103.292 22.1003 102.776 22.8092 102.332 23.5684C101.902 24.3275 101.559 25.1224 101.301 25.9531C101.057 26.7695 100.936 27.5788 100.936 28.3809C100.936 29.4551 101.158 30.293 101.602 30.8945C102.06 31.4961 102.669 31.7969 103.428 31.7969C103.786 31.7969 104.18 31.7253 104.609 31.582C105.039 31.4388 105.505 31.2096 106.006 30.8945C106.521 30.5651 107.059 30.1497 107.617 29.6484C108.176 29.1328 108.763 28.5098 109.379 27.7793ZM128.607 13.9434C128.607 14.2298 128.536 14.5306 128.393 14.8457C128.249 15.1465 128.063 15.4186 127.834 15.6621C127.619 15.9056 127.376 16.1061 127.104 16.2637C126.831 16.4212 126.559 16.5 126.287 16.5C126.044 16.5 125.857 16.4141 125.729 16.2422C125.6 16.056 125.535 15.834 125.535 15.5762C125.535 15.347 125.578 15.0749 125.664 14.7598C125.75 14.4447 125.879 14.151 126.051 13.8789C126.223 13.5924 126.43 13.349 126.674 13.1484C126.917 12.9479 127.197 12.8477 127.512 12.8477C127.812 12.8477 128.07 12.9622 128.285 13.1914C128.5 13.4206 128.607 13.6712 128.607 13.9434ZM124.59 18.7129C124.404 19.0853 124.139 19.5794 123.795 20.1953C123.465 20.7969 123.107 21.4629 122.721 22.1934C122.334 22.9095 121.94 23.6686 121.539 24.4707C121.138 25.2585 120.773 26.0319 120.443 26.791C120.128 27.5358 119.87 28.2376 119.67 28.8965C119.469 29.5553 119.369 30.1139 119.369 30.5723C119.369 30.9876 119.455 31.2741 119.627 31.4316C119.799 31.5749 120.042 31.6465 120.357 31.6465C120.945 31.6465 121.518 31.4531 122.076 31.0664C122.635 30.6797 123.186 30.1784 123.73 29.5625C124.289 28.9323 124.833 28.2161 125.363 27.4141C125.893 26.612 126.423 25.8027 126.953 24.9863L127.727 25.5879C127.311 26.3327 126.839 27.1276 126.309 27.9727C125.793 28.8177 125.213 29.6055 124.568 30.3359C123.924 31.0521 123.215 31.6465 122.441 32.1191C121.668 32.5918 120.823 32.8281 119.906 32.8281C119.047 32.8281 118.388 32.5703 117.93 32.0547C117.471 31.5391 117.242 30.873 117.242 30.0566C117.242 29.097 117.464 28.0944 117.908 27.0488C118.352 26.0033 118.904 24.972 119.562 23.9551C120.236 22.9238 120.959 21.9355 121.732 20.9902C122.52 20.0449 123.243 19.1855 123.902 18.4121L124.59 18.7129ZM139.07 19.959C139.156 19.7298 139.199 19.4863 139.199 19.2285C139.199 18.7702 139.013 18.4121 138.641 18.1543C138.283 17.8822 137.71 17.7461 136.922 17.7461C136.277 17.7461 135.626 17.8893 134.967 18.1758C134.322 18.4479 133.699 18.8275 133.098 19.3145C132.496 19.8014 131.93 20.3815 131.4 21.0547C130.885 21.7279 130.434 22.4583 130.047 23.2461C129.674 24.0339 129.374 24.8717 129.145 25.7598C128.93 26.6335 128.822 27.5143 128.822 28.4023C128.822 29.1185 128.901 29.7272 129.059 30.2285C129.216 30.7298 129.438 31.138 129.725 31.4531C130.011 31.7682 130.355 31.9974 130.756 32.1406C131.157 32.2695 131.608 32.334 132.109 32.334C133.098 32.334 134.057 32.112 134.988 31.668C135.919 31.224 136.8 30.651 137.631 29.9492C138.476 29.2331 139.249 28.4382 139.951 27.5645C140.667 26.6908 141.298 25.8314 141.842 24.9863L142.637 25.5879C141.863 26.8913 141.04 28.0371 140.166 29.0254C139.292 29.9993 138.397 30.8158 137.48 31.4746C136.564 32.1335 135.633 32.6276 134.688 32.957C133.742 33.2865 132.818 33.4512 131.916 33.4512C131.2 33.4512 130.512 33.3438 129.854 33.1289C129.209 32.9141 128.636 32.5918 128.135 32.1621C127.648 31.7181 127.254 31.1523 126.953 30.4648C126.667 29.7773 126.523 28.9609 126.523 28.0156C126.523 26.8984 126.681 25.8457 126.996 24.8574C127.326 23.8548 127.755 22.931 128.285 22.0859C128.829 21.2409 129.452 20.4818 130.154 19.8086C130.856 19.1211 131.587 18.541 132.346 18.0684C133.119 17.5957 133.893 17.2376 134.666 16.9941C135.454 16.7363 136.191 16.6074 136.879 16.6074C137.581 16.6074 138.154 16.7077 138.598 16.9082C139.042 17.0944 139.393 17.3236 139.65 17.5957C139.908 17.8678 140.08 18.1543 140.166 18.4551C140.266 18.7559 140.316 19.0137 140.316 19.2285C140.316 19.5723 140.266 19.9375 140.166 20.3242C140.066 20.7109 139.923 21.069 139.736 21.3984C139.564 21.7135 139.342 21.9785 139.07 22.1934C138.812 22.4082 138.526 22.5156 138.211 22.5156C137.896 22.5156 137.624 22.4154 137.395 22.2148C137.165 22 137.051 21.735 137.051 21.4199C137.051 21.4056 137.058 21.3197 137.072 21.1621C137.101 21.0046 137.173 20.8398 137.287 20.668C137.402 20.4818 137.574 20.3171 137.803 20.1738C138.046 20.0306 138.383 19.959 138.812 19.959H139.07ZM158.943 18.7129C158.757 19.0853 158.492 19.5723 158.148 20.1738C157.819 20.7754 157.461 21.4414 157.074 22.1719C156.688 22.888 156.294 23.64 155.893 24.4277C155.506 25.2155 155.148 25.9889 154.818 26.748C154.503 27.4928 154.238 28.2018 154.023 28.875C153.823 29.5339 153.723 30.0924 153.723 30.5508C153.723 31.0091 153.809 31.3099 153.98 31.4531C154.167 31.582 154.403 31.6465 154.689 31.6465C155.105 31.6465 155.527 31.5247 155.957 31.2812C156.401 31.0378 156.831 30.7227 157.246 30.3359C157.676 29.9492 158.091 29.5124 158.492 29.0254C158.893 28.5384 159.266 28.0514 159.609 27.5645C159.967 27.0632 160.29 26.5905 160.576 26.1465C160.863 25.6882 161.106 25.3014 161.307 24.9863L162.08 25.5879C161.837 26.0462 161.55 26.5404 161.221 27.0703C160.891 27.6003 160.526 28.1374 160.125 28.6816C159.738 29.2116 159.316 29.7272 158.857 30.2285C158.399 30.7298 157.912 31.1738 157.396 31.5605C156.895 31.9473 156.365 32.2552 155.807 32.4844C155.248 32.7135 154.675 32.8281 154.088 32.8281C153.229 32.8281 152.598 32.5703 152.197 32.0547C151.796 31.5391 151.596 30.873 151.596 30.0566C151.596 29.9993 151.596 29.8776 151.596 29.6914C151.61 29.4909 151.632 29.3333 151.66 29.2188C150.944 30.1211 150.257 30.8659 149.598 31.4531C148.953 32.0404 148.323 32.5059 147.707 32.8496C147.105 33.1934 146.518 33.4297 145.945 33.5586C145.387 33.7018 144.85 33.7734 144.334 33.7734C143.79 33.7734 143.274 33.6803 142.787 33.4941C142.314 33.3223 141.899 33.0645 141.541 32.7207C141.169 32.377 140.882 31.9544 140.682 31.4531C140.467 30.9518 140.359 30.3717 140.359 29.7129C140.359 28.8965 140.546 27.9655 140.918 26.9199C141.276 25.86 141.921 24.7214 142.852 23.5039C143.639 22.4583 144.456 21.5775 145.301 20.8613C146.16 20.1452 146.998 19.5723 147.814 19.1426C148.645 18.6986 149.433 18.3835 150.178 18.1973C150.923 18.0111 151.589 17.918 152.176 17.918C153.493 17.918 154.489 18.14 155.162 18.584C155.835 19.0137 156.243 19.6797 156.387 20.582C156.673 20.224 156.974 19.8659 157.289 19.5078C157.604 19.1497 157.926 18.7845 158.256 18.4121L158.943 18.7129ZM152.348 26.877C152.534 26.5762 152.763 26.1966 153.035 25.7383C153.307 25.2656 153.594 24.7858 153.895 24.2988C154.195 23.7975 154.489 23.3177 154.775 22.8594C155.062 22.401 155.312 22.0143 155.527 21.6992C155.527 21.5703 155.506 21.3626 155.463 21.0762C155.434 20.7897 155.341 20.5033 155.184 20.2168C155.026 19.916 154.775 19.6582 154.432 19.4434C154.088 19.2285 153.608 19.1211 152.992 19.1211C152.548 19.1211 152.047 19.1927 151.488 19.3359C150.944 19.4648 150.357 19.694 149.727 20.0234C149.111 20.3385 148.473 20.7611 147.814 21.291C147.156 21.821 146.497 22.4798 145.838 23.2676C144.85 24.4564 144.083 25.6523 143.539 26.8555C143.009 28.0443 142.744 29.1185 142.744 30.0781C142.744 30.8945 142.93 31.5247 143.303 31.9688C143.675 32.4128 144.205 32.6348 144.893 32.6348C145.68 32.6348 146.418 32.4629 147.105 32.1191C147.793 31.7611 148.438 31.3027 149.039 30.7441C149.641 30.1855 150.214 29.5697 150.758 28.8965C151.302 28.209 151.832 27.5358 152.348 26.877ZM224.342 6.91797C223.626 9.29557 222.838 11.5514 221.979 13.6855C221.119 15.8197 220.303 17.7103 219.529 19.3574C218.641 21.2767 217.746 23.0527 216.844 24.6855C216.113 25.9746 215.497 27.099 214.996 28.0586C214.509 29.0182 214.115 29.8418 213.814 30.5293C213.514 31.2025 213.299 31.7682 213.17 32.2266C213.041 32.6706 212.977 33.0358 212.977 33.3223C212.977 33.623 213.041 33.8522 213.17 34.0098C213.299 34.1816 213.449 34.3105 213.621 34.3965C213.807 34.4824 213.986 34.5326 214.158 34.5469C214.344 34.5755 214.495 34.5898 214.609 34.5898C215.111 34.5898 215.705 34.4466 216.393 34.1602C217.094 33.888 217.846 33.5013 218.648 33C219.465 32.4844 220.317 31.8685 221.205 31.1523C222.093 30.4219 222.974 29.6055 223.848 28.7031C224.721 27.8008 225.566 26.8268 226.383 25.7812C227.214 24.7214 227.973 23.6042 228.66 22.4297C229.763 20.5104 230.644 18.7344 231.303 17.1016C230.887 16.2852 230.579 15.4473 230.379 14.5879C230.178 13.7142 230.078 12.8906 230.078 12.1172C230.078 11 230.25 10.1048 230.594 9.43164C230.952 8.75846 231.446 8.42188 232.076 8.42188C232.42 8.42188 232.706 8.50781 232.936 8.67969C233.179 8.85156 233.372 9.07357 233.516 9.3457C233.659 9.61784 233.759 9.91862 233.816 10.248C233.888 10.5632 233.924 10.8783 233.924 11.1934C233.924 11.8665 233.824 12.64 233.623 13.5137C233.437 14.3874 233.158 15.3327 232.785 16.3496C232.427 17.3522 231.983 18.4193 231.453 19.5508C230.923 20.668 230.314 21.8138 229.627 22.9883C228.939 24.1628 228.173 25.2943 227.328 26.3828C226.497 27.457 225.624 28.4668 224.707 29.4121C223.805 30.3574 222.881 31.224 221.936 32.0117C221.005 32.7852 220.095 33.444 219.207 33.9883C218.333 34.5469 217.495 34.9766 216.693 35.2773C215.906 35.5924 215.211 35.75 214.609 35.75C213.478 35.75 212.59 35.4922 211.945 34.9766C211.301 34.4609 210.979 33.6374 210.979 32.5059C210.979 31.89 211.057 31.2741 211.215 30.6582C211.387 30.0423 211.63 29.3763 211.945 28.6602C212.275 27.944 212.676 27.1634 213.148 26.3184C213.621 25.459 214.165 24.4922 214.781 23.418C213.349 25.3229 211.802 27.1706 210.141 28.9609C208.493 30.737 206.732 32.3268 204.855 33.7305C204.01 34.3607 203.237 34.8835 202.535 35.2988C201.833 35.7285 201.189 36.0723 200.602 36.3301C200.029 36.5879 199.506 36.7669 199.033 36.8672C198.561 36.9818 198.131 37.0391 197.744 37.0391C197.186 37.0391 196.699 36.9603 196.283 36.8027C195.882 36.6452 195.546 36.4303 195.273 36.1582C195.016 35.9004 194.822 35.5853 194.693 35.2129C194.579 34.8548 194.521 34.4609 194.521 34.0312C194.521 33.3151 194.629 32.6348 194.844 31.9902C195.059 31.3457 195.374 30.6868 195.789 30.0137C196.262 29.2689 196.82 28.4453 197.465 27.543C198.124 26.6406 198.804 25.6953 199.506 24.707C200.222 23.7188 200.924 22.709 201.611 21.6777C202.313 20.6465 202.936 19.6224 203.48 18.6055C204.039 17.5885 204.483 16.6003 204.812 15.6406C205.156 14.681 205.328 13.7786 205.328 12.9336C205.328 11.6016 205.063 10.3841 204.533 9.28125C204.018 8.17839 203.273 7.23307 202.299 6.44531C201.325 5.65755 200.143 5.04883 198.754 4.61914C197.379 4.18945 195.832 3.97461 194.113 3.97461C191.75 3.97461 189.58 4.31836 187.604 5.00586C185.627 5.69336 183.923 6.64583 182.49 7.86328C181.072 9.06641 179.962 10.4915 179.16 12.1387C178.372 13.7715 177.979 15.5332 177.979 17.4238C177.979 18.584 178.158 19.6439 178.516 20.6035C178.888 21.5488 179.404 22.3652 180.062 23.0527C180.736 23.7402 181.545 24.2773 182.49 24.6641C183.45 25.0365 184.517 25.2227 185.691 25.2227C187.052 25.2227 188.312 24.9863 189.473 24.5137C190.633 24.0267 191.686 23.3678 192.631 22.5371C193.59 21.7064 194.443 20.7324 195.188 19.6152C195.932 18.4837 196.562 17.2734 197.078 15.9844L198.045 16.3281C196.656 19.7799 194.815 22.3939 192.523 24.1699C190.232 25.9316 187.51 26.8125 184.359 26.8125C183.027 26.8125 181.817 26.5905 180.729 26.1465C179.64 25.6882 178.709 25.0579 177.936 24.2559C177.162 23.4395 176.561 22.4727 176.131 21.3555C175.715 20.224 175.508 18.985 175.508 17.6387C175.508 15.8197 175.809 14.1868 176.41 12.7402C177.012 11.2936 177.807 10.026 178.795 8.9375C179.798 7.83464 180.929 6.89648 182.189 6.12305C183.464 5.34961 184.768 4.7194 186.1 4.23242C187.432 3.74544 188.735 3.39453 190.01 3.17969C191.285 2.95052 192.43 2.83594 193.447 2.83594C195.367 2.83594 197.143 3.07227 198.775 3.54492C200.408 4.00326 201.819 4.69792 203.008 5.62891C204.211 6.54557 205.149 7.68424 205.822 9.04492C206.495 10.4056 206.832 11.9811 206.832 13.7715C206.832 15.0749 206.581 16.5215 206.08 18.1113C205.593 19.6868 204.741 21.3841 203.523 23.2031C202.406 24.8789 201.389 26.3327 200.473 27.5645C199.556 28.7962 198.768 29.8633 198.109 30.7656C197.465 31.6536 196.964 32.3984 196.605 33C196.247 33.6016 196.068 34.1029 196.068 34.5039C196.068 34.9193 196.219 35.2559 196.52 35.5137C196.82 35.7715 197.236 35.9004 197.766 35.9004C198.525 35.9004 199.441 35.6426 200.516 35.127C201.604 34.6113 202.822 33.8522 204.168 32.8496C205.5 31.8613 206.768 30.7728 207.971 29.584C209.188 28.3952 210.334 27.1634 211.408 25.8887C212.497 24.5996 213.521 23.2891 214.48 21.957C215.44 20.625 216.328 19.3216 217.145 18.0469C217.961 16.7578 218.706 15.5189 219.379 14.3301C220.052 13.127 220.646 12.0241 221.162 11.0215C221.678 10.0046 222.115 9.10938 222.473 8.33594C222.831 7.54818 223.103 6.93229 223.289 6.48828L224.342 6.91797ZM231.883 15.6191C232.212 14.7025 232.449 13.8717 232.592 13.127C232.735 12.3822 232.807 11.7448 232.807 11.2148C232.807 11.1146 232.799 10.9714 232.785 10.7852C232.785 10.5846 232.757 10.3984 232.699 10.2266C232.656 10.0404 232.585 9.88281 232.484 9.75391C232.384 9.61068 232.248 9.53906 232.076 9.53906C231.833 9.53906 231.625 9.78255 231.453 10.2695C231.296 10.7565 231.217 11.3509 231.217 12.0527C231.217 12.5827 231.267 13.1556 231.367 13.7715C231.467 14.373 231.639 14.9889 231.883 15.6191ZM245.418 27.1562C245.475 27.1706 245.533 27.1777 245.59 27.1777C245.647 27.1777 245.712 27.1777 245.783 27.1777C246.184 27.1777 246.549 27.1419 246.879 27.0703C247.208 26.9844 247.509 26.8555 247.781 26.6836C248.068 26.5117 248.34 26.2897 248.598 26.0176C248.855 25.7311 249.106 25.3874 249.35 24.9863L250.123 25.5879C249.436 26.5618 248.727 27.2422 247.996 27.6289C247.266 28.0156 246.492 28.209 245.676 28.209C245.375 28.209 245.11 28.1803 244.881 28.123C244.265 29.1543 243.606 30.0352 242.904 30.7656C242.202 31.4818 241.486 32.069 240.756 32.5273C240.025 32.9857 239.302 33.3151 238.586 33.5156C237.87 33.7305 237.204 33.8379 236.588 33.8379C235.958 33.8379 235.37 33.7233 234.826 33.4941C234.296 33.2793 233.838 32.9642 233.451 32.5488C233.064 32.1335 232.764 31.6393 232.549 31.0664C232.334 30.4935 232.227 29.849 232.227 29.1328C232.227 28.4167 232.341 27.6862 232.57 26.9414C232.799 26.1966 233.107 25.459 233.494 24.7285C233.895 23.998 234.361 23.2962 234.891 22.623C235.421 21.9355 235.993 21.2982 236.609 20.7109C237.225 20.1237 237.863 19.5938 238.521 19.1211C239.18 18.6484 239.839 18.2617 240.498 17.9609L241.186 18.8633C240.426 19.4076 239.653 20.0951 238.865 20.9258C238.092 21.7565 237.383 22.666 236.738 23.6543C236.108 24.6426 235.585 25.6738 235.17 26.748C234.769 27.8079 234.568 28.8392 234.568 29.8418C234.568 30.7441 234.769 31.446 235.17 31.9473C235.571 32.4342 236.18 32.6777 236.996 32.6777C237.626 32.6777 238.249 32.5488 238.865 32.291C239.481 32.0332 240.083 31.6823 240.67 31.2383C241.257 30.7943 241.823 30.2715 242.367 29.6699C242.911 29.054 243.427 28.4023 243.914 27.7148C243.499 27.4714 243.133 27.1491 242.818 26.748C242.503 26.3327 242.238 25.8672 242.023 25.3516C241.809 24.8216 241.644 24.2559 241.529 23.6543C241.429 23.0527 241.379 22.4368 241.379 21.8066C241.379 21.1764 241.458 20.582 241.615 20.0234C241.773 19.4648 241.988 18.9779 242.26 18.5625C242.546 18.1328 242.876 17.7962 243.248 17.5527C243.62 17.3092 244.029 17.1875 244.473 17.1875C244.874 17.1875 245.232 17.2949 245.547 17.5098C245.862 17.7103 246.127 17.9967 246.342 18.3691C246.557 18.7272 246.721 19.1569 246.836 19.6582C246.951 20.1595 247.008 20.6966 247.008 21.2695C247.008 21.6992 246.972 22.1719 246.9 22.6875C246.829 23.2031 246.721 23.7259 246.578 24.2559C246.449 24.7715 246.285 25.2871 246.084 25.8027C245.898 26.304 245.676 26.7552 245.418 27.1562ZM242.496 21.8066C242.496 22.222 242.532 22.6732 242.604 23.1602C242.675 23.6471 242.79 24.1198 242.947 24.5781C243.105 25.0365 243.305 25.4661 243.549 25.8672C243.792 26.2539 244.093 26.5618 244.451 26.791C244.709 26.2897 244.924 25.7812 245.096 25.2656C245.282 24.7357 245.432 24.2272 245.547 23.7402C245.676 23.2533 245.762 22.8021 245.805 22.3867C245.862 21.957 245.891 21.5846 245.891 21.2695C245.891 20.8398 245.855 20.446 245.783 20.0879C245.712 19.7298 245.611 19.4219 245.482 19.1641C245.368 18.8919 245.217 18.6842 245.031 18.541C244.859 18.3835 244.666 18.3047 244.451 18.3047C244.165 18.3047 243.9 18.4049 243.656 18.6055C243.413 18.7917 243.205 19.0495 243.033 19.3789C242.861 19.694 242.725 20.0664 242.625 20.4961C242.539 20.9115 242.496 21.3483 242.496 21.8066ZM262.928 25.5879C262.713 25.903 262.455 26.3327 262.154 26.877C261.868 27.4069 261.531 27.987 261.145 28.6172C260.758 29.2331 260.328 29.8633 259.855 30.5078C259.397 31.1523 258.889 31.7324 258.33 32.248C257.786 32.7637 257.191 33.1862 256.547 33.5156C255.902 33.8451 255.215 34.0098 254.484 34.0098C254.083 34.0098 253.704 33.9453 253.346 33.8164C252.988 33.7018 252.673 33.5156 252.4 33.2578C252.128 33 251.913 32.6849 251.756 32.3125C251.598 31.9258 251.52 31.4746 251.52 30.959C251.52 30.2572 251.656 29.5267 251.928 28.7676C252.214 27.9941 252.544 27.2493 252.916 26.5332C253.288 25.8171 253.661 25.1654 254.033 24.5781C254.406 23.9766 254.678 23.4967 254.85 23.1387C255.021 22.7806 255.107 22.4727 255.107 22.2148C255.107 22.0286 255.043 21.8639 254.914 21.7207C254.799 21.5775 254.649 21.4414 254.463 21.3125C254.291 21.1693 254.105 21.026 253.904 20.8828C253.718 20.7253 253.561 20.5391 253.432 20.3242C253.074 20.8971 252.708 21.4772 252.336 22.0645C252.007 22.5658 251.648 23.1315 251.262 23.7617C250.875 24.3776 250.503 24.9863 250.145 25.5879L249.371 24.9863L253.969 17.7891L254.592 18.1113C254.563 18.1973 254.513 18.3333 254.441 18.5195C254.384 18.7057 254.355 18.9062 254.355 19.1211C254.355 19.2786 254.377 19.4362 254.42 19.5938C254.477 19.737 254.585 19.873 254.742 20.002C255.315 20.5176 255.766 20.9186 256.096 21.2051C256.425 21.4772 256.661 21.6992 256.805 21.8711C256.962 22.0286 257.055 22.1647 257.084 22.2793C257.127 22.3796 257.148 22.5156 257.148 22.6875C257.148 22.8594 257.12 23.0671 257.062 23.3105C257.005 23.554 256.905 23.8477 256.762 24.1914C256.633 24.5352 256.447 24.9434 256.203 25.416C255.974 25.8743 255.68 26.4115 255.322 27.0273C255.107 27.3997 254.893 27.7793 254.678 28.166C254.477 28.5384 254.291 28.918 254.119 29.3047C253.962 29.6914 253.833 30.0781 253.732 30.4648C253.632 30.8516 253.582 31.224 253.582 31.582C253.582 31.8542 253.618 32.0762 253.689 32.248C253.775 32.4056 253.883 32.5273 254.012 32.6133C254.141 32.6992 254.277 32.7565 254.42 32.7852C254.577 32.8138 254.728 32.8281 254.871 32.8281C255.344 32.8281 255.809 32.6921 256.268 32.4199C256.74 32.1335 257.199 31.7682 257.643 31.3242C258.101 30.8802 258.538 30.3789 258.953 29.8203C259.383 29.2474 259.791 28.6673 260.178 28.0801C260.564 27.4928 260.923 26.9342 261.252 26.4043C261.581 25.86 261.875 25.3874 262.133 24.9863L262.928 25.5879ZM264.711 25.459C265.456 24.4277 266.243 23.4395 267.074 22.4941C267.919 21.5345 268.771 20.6895 269.631 19.959C270.49 19.2142 271.357 18.6198 272.23 18.1758C273.104 17.7318 273.956 17.5098 274.787 17.5098C275.303 17.5098 275.725 17.5885 276.055 17.7461C276.384 17.9036 276.642 18.1042 276.828 18.3477C277.029 18.5911 277.165 18.8704 277.236 19.1855C277.322 19.4863 277.365 19.7871 277.365 20.0879C277.365 20.5176 277.279 20.9831 277.107 21.4844C276.95 21.9857 276.699 22.4941 276.355 23.0098C276.026 23.5111 275.604 23.998 275.088 24.4707C274.572 24.929 273.956 25.3444 273.24 25.7168C273.398 26.0892 273.477 26.5404 273.477 27.0703C273.477 27.3997 273.434 27.7363 273.348 28.0801C273.262 28.4095 273.169 28.7389 273.068 29.0684C272.968 29.3978 272.875 29.7344 272.789 30.0781C272.703 30.4076 272.66 30.7441 272.66 31.0879C272.66 31.2598 272.667 31.4245 272.682 31.582C272.71 31.7396 272.753 31.8828 272.811 32.0117C272.882 32.1406 272.982 32.248 273.111 32.334C273.255 32.4056 273.448 32.4414 273.691 32.4414C273.978 32.4414 274.307 32.3268 274.68 32.0977C275.052 31.8542 275.446 31.5391 275.861 31.1523C276.277 30.7656 276.699 30.3216 277.129 29.8203C277.573 29.3047 278.003 28.7676 278.418 28.209C278.833 27.6504 279.234 27.099 279.621 26.5547C280.008 25.9961 280.359 25.4733 280.674 24.9863L281.469 25.5879C280.738 26.6764 280.022 27.7148 279.32 28.7031C278.633 29.6914 277.938 30.5579 277.236 31.3027C276.549 32.0475 275.847 32.6419 275.131 33.0859C274.415 33.5299 273.677 33.752 272.918 33.752C272.617 33.752 272.302 33.709 271.973 33.623C271.658 33.5371 271.364 33.3939 271.092 33.1934C270.834 33.0072 270.619 32.7565 270.447 32.4414C270.275 32.1263 270.189 31.7396 270.189 31.2812C270.189 30.737 270.326 30.0996 270.598 29.3691C270.841 28.6816 271.02 28.1087 271.135 27.6504C271.249 27.1777 271.314 26.7839 271.328 26.4688C271.027 26.5404 270.705 26.6048 270.361 26.6621C270.032 26.7194 269.717 26.748 269.416 26.748C269.258 26.748 269.087 26.7337 268.9 26.7051C268.714 26.6621 268.542 26.5977 268.385 26.5117C268.227 26.4258 268.091 26.3184 267.977 26.1895C267.876 26.0462 267.826 25.8672 267.826 25.6523C267.826 25.4375 267.891 25.237 268.02 25.0508C268.163 24.8503 268.349 24.6784 268.578 24.5352C268.822 24.3776 269.108 24.2559 269.438 24.1699C269.767 24.084 270.132 24.041 270.533 24.041C271.278 24.041 271.915 24.2415 272.445 24.6426C272.961 24.2415 273.383 23.8047 273.713 23.332C274.057 22.8594 274.322 22.401 274.508 21.957C274.694 21.513 274.823 21.1191 274.895 20.7754C274.966 20.4173 275.002 20.1523 275.002 19.9805C275.002 19.5078 274.916 19.1855 274.744 19.0137C274.572 18.8275 274.365 18.7344 274.121 18.7344C273.663 18.7344 273.147 18.8848 272.574 19.1855C272.016 19.4863 271.428 19.8945 270.812 20.4102C270.211 20.9258 269.588 21.5202 268.943 22.1934C268.313 22.8665 267.69 23.5755 267.074 24.3203C266.473 25.0651 265.885 25.8171 265.312 26.5762C264.754 27.3353 264.238 28.0514 263.766 28.7246C263.336 29.4408 262.949 30.1068 262.605 30.7227C262.276 31.3385 261.997 31.8685 261.768 32.3125C261.538 32.7565 261.359 33.0931 261.23 33.3223C261.102 33.5514 261.03 33.6302 261.016 33.5586L258.889 33C260.579 29.1471 262.29 25.2943 264.023 21.4414C265.757 17.5885 267.583 13.6927 269.502 9.75391C269.788 9.18099 270.111 8.55794 270.469 7.88477C270.841 7.19727 271.235 6.51693 271.65 5.84375C272.08 5.15625 272.531 4.49023 273.004 3.8457C273.491 3.20117 273.985 2.63542 274.486 2.14844C275.002 1.64714 275.525 1.25326 276.055 0.966797C276.585 0.666016 277.115 0.515625 277.645 0.515625C278.203 0.515625 278.654 0.673177 278.998 0.988281C279.356 1.30339 279.535 1.80469 279.535 2.49219C279.535 3.4375 279.277 4.59049 278.762 5.95117C278.26 7.29753 277.508 8.72982 276.506 10.248C275.503 11.7663 274.25 13.306 272.746 14.8672C271.257 16.4141 269.516 17.8535 267.525 19.1855L264.711 25.459ZM268.471 17.123C270.204 15.7767 271.693 14.3945 272.939 12.9766C274.2 11.5443 275.231 10.1693 276.033 8.85156C276.85 7.53385 277.444 6.31641 277.816 5.19922C278.203 4.06771 278.396 3.1224 278.396 2.36328C278.396 2.14844 278.339 1.97656 278.225 1.84766C278.11 1.71875 277.931 1.6543 277.688 1.6543C277.158 1.6543 276.613 1.91927 276.055 2.44922C275.496 2.96484 274.859 3.82422 274.143 5.02734C273.441 6.23047 272.632 7.82031 271.715 9.79688C270.798 11.7734 269.717 14.2155 268.471 17.123ZM271.221 25.502C271.149 25.3444 271.027 25.2083 270.855 25.0938C270.698 24.9648 270.519 24.9004 270.318 24.9004C269.903 24.9004 269.538 24.9863 269.223 25.1582C268.908 25.3301 268.75 25.4948 268.75 25.6523C268.75 25.7669 268.814 25.8457 268.943 25.8887C269.087 25.9173 269.215 25.9316 269.33 25.9316C269.702 25.9316 270.046 25.8887 270.361 25.8027C270.676 25.7168 270.963 25.6165 271.221 25.502ZM287.592 16.1348C287.52 16.2637 287.427 16.4069 287.312 16.5645C287.198 16.7077 287.083 16.8796 286.969 17.0801C286.868 17.2663 286.775 17.4883 286.689 17.7461C286.618 18.0039 286.582 18.3118 286.582 18.6699C286.582 18.9707 286.654 19.3789 286.797 19.8945C286.954 20.4102 287.119 21.0046 287.291 21.6777C287.463 22.3366 287.62 23.0599 287.764 23.8477C287.921 24.6211 288 25.4232 288 26.2539C288 27.4714 287.835 28.5456 287.506 29.4766C287.176 30.4076 286.74 31.2025 286.195 31.8613C287.312 31.2598 288.408 30.4004 289.482 29.2832C290.557 28.1517 291.638 26.7194 292.727 24.9863L293.457 25.6309C292.841 26.6478 292.139 27.6576 291.352 28.6602C290.578 29.6484 289.726 30.5436 288.795 31.3457C287.864 32.1335 286.861 32.7708 285.787 33.2578C284.713 33.7591 283.574 34.0098 282.371 34.0098C281.297 34.0098 280.395 33.752 279.664 33.2363C278.919 32.735 278.461 31.9759 278.289 30.959L279.062 30.8086C279.062 30.8945 279.105 31.0378 279.191 31.2383C279.263 31.4245 279.385 31.6107 279.557 31.7969C279.729 31.9831 279.965 32.1478 280.266 32.291C280.552 32.4342 280.91 32.5059 281.34 32.5059C281.913 32.5059 282.421 32.377 282.865 32.1191C283.309 31.847 283.696 31.4961 284.025 31.0664C284.355 30.6367 284.634 30.1497 284.863 29.6055C285.092 29.0469 285.271 28.474 285.4 27.8867C285.544 27.2995 285.644 26.7266 285.701 26.168C285.758 25.6094 285.787 25.1009 285.787 24.6426C285.787 24.1842 285.766 23.6758 285.723 23.1172C285.694 22.5586 285.658 22.0286 285.615 21.5273C285.572 21.0117 285.529 20.5677 285.486 20.1953C285.458 19.8086 285.443 19.5579 285.443 19.4434V19.4004C285.257 19.6009 285.035 19.8945 284.777 20.2812C284.52 20.668 284.24 21.0905 283.939 21.5488C283.653 22.0072 283.359 22.4727 283.059 22.9453C282.772 23.418 282.507 23.8477 282.264 24.2344C282.035 24.6211 281.841 24.9434 281.684 25.2012C281.54 25.4447 281.469 25.5736 281.469 25.5879L280.695 24.9863C280.71 24.972 280.889 24.6641 281.232 24.0625C281.576 23.4609 282.027 22.7018 282.586 21.7852C283.159 20.8542 283.803 19.8301 284.52 18.7129C285.236 17.5814 285.973 16.4857 286.732 15.4258L287.592 16.1348Z" fill="black"/>
</svg>
