<svg width="27" height="26" viewBox="0 0 27 26" fill="none" xmlns="http://www.w3.org/2000/svg">
<path d="M22.9427 4.875H3.89346C3.5777 4.875 3.27487 5.00044 3.05159 5.22371C2.82832 5.44699 2.70288 5.74982 2.70288 6.06558V19.5588C2.70288 20.0851 2.91194 20.5898 3.28407 20.9619C3.6562 21.3341 4.16091 21.5431 4.68718 21.5431H22.149C22.6753 21.5431 23.18 21.3341 23.5521 20.9619C23.9243 20.5898 24.1333 20.0851 24.1333 19.5588V6.06558C24.1333 5.74982 24.0079 5.44699 23.7846 5.22371C23.5613 5.00044 23.2585 4.875 22.9427 4.875ZM13.4181 13.1813L6.95424 7.25616H19.882L13.4181 13.1813ZM9.92474 13.2091L5.08404 17.6459V8.77216L9.92474 13.2091ZM11.6868 14.8243L12.6135 15.6745C12.8331 15.8759 13.1202 15.9876 13.4181 15.9876C13.716 15.9876 14.0031 15.8759 14.2227 15.6745L15.1494 14.8243L19.882 19.162H6.95424L11.6868 14.8243ZM16.9115 13.2091L21.7522 8.77216V17.6459L16.9115 13.2091Z" fill="black" fill-opacity="0.4"/>
</svg>
