<svg width="27" height="27" viewBox="0 0 27 27" fill="none" xmlns="http://www.w3.org/2000/svg">
<path d="M24.021 22.0999L19.3067 17.3837C20.7202 15.5417 21.3801 13.231 21.1526 10.9204C20.9251 8.60976 19.8271 6.47217 18.0815 4.94126C16.3359 3.41035 14.0734 2.60076 11.7528 2.6767C9.43221 2.75265 7.22741 3.70845 5.58564 5.35022C3.94387 6.99199 2.98807 9.19679 2.91212 11.5174C2.83618 13.8379 3.64577 16.1005 5.17668 17.8461C6.70759 19.5917 8.84518 20.6896 11.1558 20.9171C13.4665 21.1447 15.7771 20.4847 17.6191 19.0712L22.3374 23.7905C22.4482 23.9013 22.5797 23.9892 22.7245 24.0492C22.8693 24.1091 23.0244 24.14 23.1811 24.14C23.3378 24.14 23.493 24.1091 23.6378 24.0492C23.7826 23.9892 23.9141 23.9013 24.0249 23.7905C24.1357 23.6797 24.2236 23.5481 24.2836 23.4034C24.3436 23.2586 24.3744 23.1034 24.3744 22.9467C24.3744 22.79 24.3436 22.6348 24.2836 22.4901C24.2236 22.3453 24.1357 22.2137 24.0249 22.1029L24.021 22.0999ZM5.30971 11.8246C5.30971 10.4895 5.70561 9.18441 6.44735 8.07433C7.18908 6.96425 8.24333 6.09904 9.47679 5.58813C10.7102 5.07722 12.0675 4.94354 13.3769 5.204C14.6864 5.46446 15.8892 6.10737 16.8332 7.05141C17.7772 7.99546 18.4202 9.19825 18.6806 10.5077C18.9411 11.8171 18.8074 13.1744 18.2965 14.4078C17.7856 15.6413 16.9204 16.6955 15.8103 17.4373C14.7002 18.179 13.3951 18.5749 12.06 18.5749C10.2703 18.5731 8.55439 17.8613 7.28886 16.5957C6.02334 15.3302 5.31155 13.6143 5.30971 11.8246Z" fill="black" fill-opacity="0.4"/>
</svg>
