<svg width="37" height="24" viewBox="0 0 37 24" fill="none" xmlns="http://www.w3.org/2000/svg">
<path opacity="0.07" d="M33.2046 0.305664H2.87011C1.25859 0.305664 0.0262451 1.538 0.0262451 3.14953V20.2127C0.0262451 21.8242 1.35338 23.0566 2.87011 23.0566H33.2046C34.8162 23.0566 36.0485 21.8242 36.0485 20.2127V3.14953C36.0485 1.538 34.7214 0.305664 33.2046 0.305664Z" fill="#E8E8E8"/>
<path d="M33.2059 1.25293C34.2486 1.25293 35.1018 2.10609 35.1018 3.14884V20.212C35.1018 21.2548 34.2486 22.1079 33.2059 22.1079H2.87137C1.82862 22.1079 0.975464 21.2548 0.975464 20.212V3.14884C0.975464 2.10609 1.82862 1.25293 2.87137 1.25293H33.2059Z" fill="#E8E8E8"/>
<path d="M3.41199 7.09325H1.92371V12.307H3.41199C4.1988 12.307 4.76757 12.1174 5.26998 11.7098C5.8672 11.2168 6.21794 10.4774 6.21794 9.7096C6.20846 8.16444 5.06143 7.09325 3.41199 7.09325ZM4.60642 11.0178C4.28411 11.3022 3.87649 11.4349 3.21292 11.4349H2.93802V7.98432H3.21292C3.86701 7.98432 4.26515 8.09808 4.60642 8.40142C4.95716 8.71425 5.16571 9.19771 5.16571 9.70012C5.16571 10.2025 4.95716 10.705 4.60642 11.0178ZM6.68244 7.09325H7.69675V12.307H6.68244V7.09325ZM10.1804 9.09343C9.5737 8.86592 9.39359 8.71425 9.39359 8.43934C9.39359 8.10756 9.71589 7.86109 10.1519 7.86109C10.4553 7.86109 10.7112 7.98432 10.9672 8.28767L11.498 7.59566C11.062 7.21648 10.5406 7.01741 9.96236 7.01741C9.04284 7.01741 8.33188 7.66202 8.33188 8.51518C8.33188 9.23562 8.66366 9.60533 9.61162 9.94659C10.0098 10.0888 10.2088 10.1836 10.3131 10.2405C10.5122 10.3732 10.6164 10.5628 10.6164 10.7808C10.6164 11.2074 10.2847 11.5202 9.82965 11.5202C9.34619 11.5202 8.95753 11.2737 8.72054 10.8282L8.06645 11.4633C8.53095 12.1553 9.09972 12.4587 9.86756 12.4587C10.9198 12.4587 11.6687 11.7572 11.6687 10.7429C11.6876 9.89919 11.3369 9.52001 10.1804 9.09343ZM12.0005 9.7096C12.0005 11.2453 13.2044 12.4302 14.7495 12.4302C15.1856 12.4302 15.5648 12.3449 16.0198 12.1269V10.9325C15.6122 11.3401 15.2519 11.5012 14.7969 11.5012C13.7731 11.5012 13.0432 10.7618 13.0432 9.70012C13.0432 8.69529 13.7921 7.90849 14.7495 7.90849C15.233 7.90849 15.6027 8.07912 16.0198 8.49622V7.3018C15.5742 7.07429 15.2045 6.97949 14.7685 6.97949C13.2423 6.97949 12.0005 8.19287 12.0005 9.7096ZM24.0964 10.6007L22.7029 7.09325H21.5938L23.8025 12.4397H24.3523L26.599 7.09325H25.4993L24.0964 10.6007ZM27.0635 12.307H29.9452V11.4254H28.0778V10.0224H29.8789V9.14083H28.0778V7.98432H29.9452V7.09325H27.0635V12.307ZM33.974 8.63841C33.974 7.66202 33.301 7.10273 32.1255 7.10273H30.6183V12.3165H31.6326V10.2215H31.7653L33.1683 12.3165H34.4196L32.7796 10.1172C33.5475 9.95607 33.974 9.43469 33.974 8.63841ZM31.9265 9.50105H31.6326V7.91797H31.9454C32.5805 7.91797 32.9218 8.18339 32.9218 8.69529C32.9218 9.21666 32.5805 9.50105 31.9265 9.50105Z" fill="#231F20"/>
<path d="M19.1387 12.4964C19.8756 12.4964 20.5823 12.2036 21.1033 11.6826C21.6244 11.1615 21.9171 10.4548 21.9171 9.71791C21.9171 8.98101 21.6244 8.2743 21.1033 7.75324C20.5823 7.23218 19.8756 6.93945 19.1387 6.93945C18.4018 6.93945 17.6951 7.23218 17.174 7.75324C16.653 8.2743 16.3602 8.98101 16.3602 9.71791C16.3602 10.4548 16.653 11.1615 17.174 11.6826C17.6951 12.2036 18.4018 12.4964 19.1387 12.4964Z" fill="url(#paint0_linear_1994_194)"/>
<path opacity="0.65" d="M19.1387 12.4964C19.8756 12.4964 20.5823 12.2036 21.1033 11.6826C21.6244 11.1615 21.9171 10.4548 21.9171 9.71791C21.9171 8.98101 21.6244 8.2743 21.1033 7.75324C20.5823 7.23218 19.8756 6.93945 19.1387 6.93945C18.4018 6.93945 17.6951 7.23218 17.174 7.75324C16.653 8.2743 16.3602 8.98101 16.3602 9.71791C16.3602 10.4548 16.653 11.1615 17.174 11.6826C17.6951 12.2036 18.4018 12.4964 19.1387 12.4964Z" fill="url(#paint1_linear_1994_194)"/>
<path d="M34.6937 7.42169C34.6937 7.32676 34.6273 7.2793 34.5229 7.2793H34.371V7.73496H34.4849V7.55459L34.6178 7.73496H34.7507L34.5988 7.5451C34.6558 7.5356 34.6937 7.48814 34.6937 7.42169ZM34.5039 7.48814H34.4849V7.36473H34.5039C34.5608 7.36473 34.5893 7.38372 34.5893 7.42169C34.5893 7.46915 34.5608 7.48814 34.5039 7.48814Z" fill="#231F20"/>
<path d="M34.5403 7.1084C34.3224 7.1084 34.1425 7.28839 34.1425 7.50628C34.1425 7.72417 34.3224 7.90417 34.5403 7.90417C34.7582 7.90417 34.9382 7.72417 34.9382 7.50628C34.9382 7.28839 34.7582 7.1084 34.5403 7.1084ZM34.5403 7.83785C34.3698 7.83785 34.2182 7.69575 34.2182 7.50628C34.2182 7.32629 34.3603 7.17471 34.5403 7.17471C34.7109 7.17471 34.853 7.32629 34.853 7.50628C34.853 7.68628 34.7109 7.83785 34.5403 7.83785Z" fill="#231F20"/>
<path d="M35.1015 12.6143C35.1015 12.6143 25.7073 19.1447 8.53601 22.109H33.2046C33.7048 22.109 34.1848 21.9113 34.5399 21.559C34.895 21.2068 35.0965 20.7284 35.1005 20.2282L35.1233 17.3654L35.1015 12.6143Z" fill="#F48120"/>
<defs>
<linearGradient id="paint0_linear_1994_194" x1="20.5578" y1="11.9418" x2="18.6382" y2="8.93584" gradientUnits="userSpaceOnUse">
<stop stop-color="#F89F20"/>
<stop offset="0.25" stop-color="#F79A20"/>
<stop offset="0.533" stop-color="#F68D20"/>
<stop offset="0.62" stop-color="#F58720"/>
<stop offset="0.723" stop-color="#F48120"/>
<stop offset="1" stop-color="#F37521"/>
</linearGradient>
<linearGradient id="paint1_linear_1994_194" x1="20.2554" y1="11.901" x2="17.4494" y2="6.41618" gradientUnits="userSpaceOnUse">
<stop stop-color="#F58720"/>
<stop offset="0.359" stop-color="#E16F27"/>
<stop offset="0.703" stop-color="#D4602C"/>
<stop offset="0.982" stop-color="#D05B2E"/>
</linearGradient>
</defs>
</svg>
