<svg width="35" height="22" viewBox="0 0 35 22" fill="none" xmlns="http://www.w3.org/2000/svg">
<path d="M32.2319 0.25293C33.2747 0.25293 34.1278 1.10609 34.1278 2.14884V19.212C34.1278 20.2548 33.2747 21.1079 32.2319 21.1079H1.89737C0.854623 21.1079 0.00146484 20.2548 0.00146484 19.212V2.14884C0.00146484 1.10609 0.854623 0.25293 1.89737 0.25293H32.2319Z" fill="#E8E8E8"/>
<path d="M16.2039 10.6598V13.6933H15.2389V6.20443H17.7898C18.0955 6.19926 18.3991 6.25455 18.6833 6.36713C18.9676 6.4797 19.2267 6.64735 19.4459 6.86042C19.6535 7.05417 19.821 7.28695 19.9386 7.54545C20.0562 7.80394 20.1217 8.08308 20.1314 8.36691C20.1411 8.65074 20.0948 8.9337 19.995 9.19961C19.8953 9.46552 19.7441 9.70916 19.5502 9.91662L19.4459 10.0266C19.0004 10.4503 18.4051 10.6807 17.7898 10.6655L16.2039 10.6598ZM16.2039 7.12205V9.76495H17.8135C18.1709 9.77632 18.516 9.63698 18.7662 9.38198C18.9452 9.19539 19.0654 8.96029 19.1119 8.70593C19.1583 8.45156 19.129 8.18916 19.0274 7.95135C18.9259 7.71355 18.7567 7.51084 18.5409 7.36845C18.325 7.22605 18.0721 7.15026 17.8135 7.15049L16.2039 7.12205ZM22.3504 8.3999C22.9666 8.37146 23.5695 8.57811 24.0359 8.98099C24.4577 9.38861 24.6824 9.95738 24.6521 10.5442V13.7046H23.7335V12.9785H23.6871C23.5223 13.2509 23.2894 13.4755 23.0112 13.6303C22.7331 13.7851 22.4194 13.8646 22.1011 13.8611C21.5816 13.8779 21.0749 13.6974 20.683 13.3558C20.4973 13.2043 20.3485 13.0126 20.2478 12.7952C20.1472 12.5778 20.0973 12.3403 20.1019 12.1007C20.091 11.8586 20.138 11.6174 20.239 11.3971C20.3401 11.1768 20.4923 10.9838 20.683 10.8342C21.1507 10.4979 21.7168 10.3262 22.2926 10.346C22.7827 10.3271 23.269 10.4342 23.7051 10.6598V10.4626C23.7083 10.2996 23.6743 10.138 23.6059 9.99003C23.5374 9.84206 23.4361 9.7116 23.3098 9.60854C23.056 9.37786 22.7236 9.25304 22.3808 9.25969C22.1318 9.25734 21.8863 9.31852 21.6675 9.43745C21.4487 9.55638 21.2639 9.72913 21.1304 9.93937L20.282 9.40473C20.5124 9.07465 20.8234 8.80903 21.1855 8.63314C21.5475 8.45725 21.9486 8.37696 22.3504 8.3999ZM21.1304 12.1235C21.1281 12.2462 21.1561 12.3677 21.2118 12.4771C21.2675 12.5866 21.3493 12.6806 21.4499 12.751C21.6613 12.9178 21.9239 13.006 22.194 13.0003C22.6007 12.9994 22.9903 12.8392 23.2804 12.5529C23.5695 12.2818 23.7335 11.9035 23.7335 11.5073C23.3686 11.2478 22.9252 11.1226 22.4784 11.1528C22.1316 11.1391 21.7894 11.2368 21.502 11.4315C21.3882 11.5076 21.2948 11.6105 21.23 11.7312C21.1652 11.8518 21.131 11.9865 21.1304 12.1235ZM29.9331 8.56863L26.7196 15.9532H25.7261L26.9404 13.3672L24.8322 8.56863H25.8778L27.4059 12.2514L28.8932 8.56863H29.9331Z" fill="#5F6368"/>
<path d="M12.314 10.002C12.314 9.71003 12.2913 9.41806 12.2448 9.12988H8.1781V10.786H10.5015C10.4542 11.0492 10.3543 11.3001 10.2077 11.5237C10.0611 11.7474 9.87085 11.9391 9.64838 12.0875V13.1625H11.0362C11.4582 12.7542 11.7899 12.262 12.01 11.7176C12.2301 11.1733 12.3337 10.5888 12.314 10.002Z" fill="#4285F4"/>
<path d="M8.18144 14.2083C9.23018 14.2371 10.2505 13.8652 11.0348 13.1684L9.64508 12.0877C9.31117 12.3018 8.93283 12.4369 8.53884 12.4828C8.14485 12.5287 7.74558 12.4842 7.3714 12.3526C6.99722 12.2209 6.65797 12.0057 6.37947 11.7233C6.10096 11.4409 5.89052 11.0986 5.76416 10.7227H4.34033V11.8318C4.69662 12.5456 5.24472 13.1461 5.92318 13.5658C6.60164 13.9856 7.38363 14.2081 8.18144 14.2083Z" fill="#34A853"/>
<path d="M5.76691 10.7294C5.5866 10.196 5.5866 9.6181 5.76691 9.08469V7.97559H4.34308C4.03954 8.57418 3.88135 9.23588 3.88135 9.90704C3.88135 10.5782 4.03954 11.2399 4.34308 11.8385L5.76691 10.7294Z" fill="#FBBC04"/>
<path d="M8.18144 7.30566C8.79478 7.29446 9.38767 7.52617 9.83088 7.95027L11.0632 6.72457C10.2775 5.98707 9.23524 5.5848 8.15774 5.60314C7.36465 5.60712 6.58816 5.83065 5.91435 6.24896C5.24053 6.66727 4.69573 7.26401 4.34033 7.97302L5.76416 9.08308C5.93064 8.57126 6.25339 8.12452 6.687 7.80568C7.12061 7.48685 7.64327 7.31198 8.18144 7.30566Z" fill="#EA4335"/>
</svg>
