<svg width="36" height="22" viewBox="0 0 36 22" fill="none" xmlns="http://www.w3.org/2000/svg">
<path d="M33.2059 0.25293C34.2486 0.25293 35.1018 1.10609 35.1018 2.14884V19.212C35.1018 20.2548 34.2486 21.1079 33.2059 21.1079H2.87137C1.82862 21.1079 0.975464 20.2548 0.975464 19.212V2.14884C0.975464 1.10609 1.82862 0.25293 2.87137 0.25293H33.2059Z" fill="#E8E8E8"/>
<path d="M3.41199 6.09325H1.92371V11.307H3.41199C4.1988 11.307 4.76757 11.1174 5.26998 10.7098C5.8672 10.2168 6.21794 9.47744 6.21794 8.7096C6.20846 7.16444 5.06143 6.09325 3.41199 6.09325ZM4.60642 10.0178C4.28411 10.3022 3.87649 10.4349 3.21292 10.4349H2.93802V6.98432H3.21292C3.86701 6.98432 4.26515 7.09808 4.60642 7.40142C4.95716 7.71425 5.16571 8.19771 5.16571 8.70012C5.16571 9.20254 4.95716 9.70495 4.60642 10.0178ZM6.68244 6.09325H7.69675V11.307H6.68244V6.09325ZM10.1804 8.09343C9.5737 7.86592 9.39359 7.71425 9.39359 7.43934C9.39359 7.10756 9.71589 6.86109 10.1519 6.86109C10.4553 6.86109 10.7112 6.98432 10.9672 7.28767L11.498 6.59566C11.062 6.21648 10.5406 6.01741 9.96236 6.01741C9.04284 6.01741 8.33188 6.66202 8.33188 7.51518C8.33188 8.23562 8.66366 8.60533 9.61162 8.94659C10.0098 9.08878 10.2088 9.18358 10.3131 9.24045C10.5122 9.37317 10.6164 9.56276 10.6164 9.78079C10.6164 10.2074 10.2847 10.5202 9.82965 10.5202C9.34619 10.5202 8.95753 10.2737 8.72054 9.82819L8.06645 10.4633C8.53095 11.1553 9.09972 11.4587 9.86756 11.4587C10.9198 11.4587 11.6687 10.7572 11.6687 9.74287C11.6876 8.89919 11.3369 8.52001 10.1804 8.09343ZM12.0005 8.7096C12.0005 10.2453 13.2044 11.4302 14.7495 11.4302C15.1856 11.4302 15.5648 11.3449 16.0198 11.1269V9.93246C15.6122 10.3401 15.2519 10.5012 14.7969 10.5012C13.7731 10.5012 13.0432 9.76183 13.0432 8.70012C13.0432 7.69529 13.7921 6.90849 14.7495 6.90849C15.233 6.90849 15.6027 7.07912 16.0198 7.49622V6.3018C15.5742 6.07429 15.2045 5.97949 14.7685 5.97949C13.2423 5.97949 12.0005 7.19287 12.0005 8.7096ZM24.0964 9.60068L22.7029 6.09325H21.5938L23.8025 11.4397H24.3523L26.599 6.09325H25.4993L24.0964 9.60068ZM27.0635 11.307H29.9452V10.4254H28.0778V9.02243H29.8789V8.14083H28.0778V6.98432H29.9452V6.09325H27.0635V11.307ZM33.974 7.63841C33.974 6.66202 33.301 6.10273 32.1255 6.10273H30.6183V11.3165H31.6326V9.2215H31.7653L33.1683 11.3165H34.4196L32.7796 9.11722C33.5475 8.95607 33.974 8.43469 33.974 7.63841ZM31.9265 8.50105H31.6326V6.91797H31.9454C32.5805 6.91797 32.9218 7.18339 32.9218 7.69529C32.9218 8.21666 32.5805 8.50105 31.9265 8.50105Z" fill="#231F20"/>
<path d="M19.1387 11.4964C19.8756 11.4964 20.5823 11.2036 21.1033 10.6826C21.6244 10.1615 21.9171 9.4548 21.9171 8.71791C21.9171 7.98101 21.6244 7.2743 21.1033 6.75324C20.5823 6.23218 19.8756 5.93945 19.1387 5.93945C18.4018 5.93945 17.6951 6.23218 17.174 6.75324C16.653 7.2743 16.3602 7.98101 16.3602 8.71791C16.3602 9.4548 16.653 10.1615 17.174 10.6826C17.6951 11.2036 18.4018 11.4964 19.1387 11.4964Z" fill="url(#paint0_linear_1991_145)"/>
<path opacity="0.65" d="M19.1387 11.4964C19.8756 11.4964 20.5823 11.2036 21.1033 10.6826C21.6244 10.1615 21.9171 9.4548 21.9171 8.71791C21.9171 7.98101 21.6244 7.2743 21.1033 6.75324C20.5823 6.23218 19.8756 5.93945 19.1387 5.93945C18.4018 5.93945 17.6951 6.23218 17.174 6.75324C16.653 7.2743 16.3602 7.98101 16.3602 8.71791C16.3602 9.4548 16.653 10.1615 17.174 10.6826C17.6951 11.2036 18.4018 11.4964 19.1387 11.4964Z" fill="url(#paint1_linear_1991_145)"/>
<path d="M34.6937 6.42169C34.6937 6.32676 34.6273 6.2793 34.5229 6.2793H34.371V6.73496H34.4849V6.55459L34.6178 6.73496H34.7507L34.5988 6.5451C34.6558 6.5356 34.6937 6.48814 34.6937 6.42169ZM34.5039 6.48814H34.4849V6.36473H34.5039C34.5608 6.36473 34.5893 6.38372 34.5893 6.42169C34.5893 6.46915 34.5608 6.48814 34.5039 6.48814Z" fill="#231F20"/>
<path d="M34.5403 6.1084C34.3224 6.1084 34.1425 6.28839 34.1425 6.50628C34.1425 6.72417 34.3224 6.90417 34.5403 6.90417C34.7582 6.90417 34.9382 6.72417 34.9382 6.50628C34.9382 6.28839 34.7582 6.1084 34.5403 6.1084ZM34.5403 6.83785C34.3698 6.83785 34.2182 6.69575 34.2182 6.50628C34.2182 6.32629 34.3603 6.17471 34.5403 6.17471C34.7109 6.17471 34.853 6.32629 34.853 6.50628C34.853 6.68628 34.7109 6.83785 34.5403 6.83785Z" fill="#231F20"/>
<path d="M35.1015 11.6143C35.1015 11.6143 25.7073 18.1447 8.53601 21.109H33.2046C33.7048 21.109 34.1848 20.9113 34.5399 20.559C34.895 20.2068 35.0965 19.7284 35.1005 19.2282L35.1233 16.3654L35.1015 11.6143Z" fill="#F48120"/>
<defs>
<linearGradient id="paint0_linear_1991_145" x1="20.5578" y1="10.9418" x2="18.6382" y2="7.93584" gradientUnits="userSpaceOnUse">
<stop stop-color="#F89F20"/>
<stop offset="0.25" stop-color="#F79A20"/>
<stop offset="0.533" stop-color="#F68D20"/>
<stop offset="0.62" stop-color="#F58720"/>
<stop offset="0.723" stop-color="#F48120"/>
<stop offset="1" stop-color="#F37521"/>
</linearGradient>
<linearGradient id="paint1_linear_1991_145" x1="20.2554" y1="10.901" x2="17.4494" y2="5.41618" gradientUnits="userSpaceOnUse">
<stop stop-color="#F58720"/>
<stop offset="0.359" stop-color="#E16F27"/>
<stop offset="0.703" stop-color="#D4602C"/>
<stop offset="0.982" stop-color="#D05B2E"/>
</linearGradient>
</defs>
</svg>
