<svg width="35" height="22" viewBox="0 0 35 22" fill="none" xmlns="http://www.w3.org/2000/svg">
<path d="M32.3991 0.25293C33.4419 0.25293 34.295 1.10609 34.295 2.14884V19.212C34.295 20.2548 33.4419 21.1079 32.3991 21.1079H2.06461C1.02186 21.1079 0.168701 20.2548 0.168701 19.212V2.14884C0.168701 1.10609 1.02186 0.25293 2.06461 0.25293H32.3991Z" fill="#E8E8E8"/>
<path d="M26.0491 8.88035H25.7647C25.3856 9.82831 25.1012 10.3023 24.8168 11.7242H26.6179C26.3335 10.3023 26.3335 9.63872 26.0491 8.88035ZM28.7982 14.4733H27.1867C27.0919 14.4733 27.0919 14.4733 26.9971 14.3785L26.8075 13.5253L26.7127 13.3357H24.4376C24.3428 13.3357 24.248 13.3357 24.248 13.5253L23.9636 14.3785C23.9636 14.4733 23.8688 14.4733 23.8688 14.4733H21.8781L22.0677 13.9993L24.8168 7.55322C24.8168 7.07924 25.1012 6.88965 25.5751 6.88965H26.9971C27.0919 6.88965 27.1867 6.88965 27.1867 7.07924L28.5138 13.2409C28.6086 13.6201 28.7034 13.9045 28.7034 14.2837C28.7982 14.3785 28.7982 14.3785 28.7982 14.4733ZM16.0956 14.1889L16.4748 12.4826C16.5696 12.4826 16.6644 12.5774 16.6644 12.5774C17.3279 12.8618 17.9915 13.0514 18.6551 12.9566C18.8447 12.9566 19.1291 12.8618 19.3186 12.767C19.7926 12.5774 19.7926 12.1034 19.4134 11.7242C19.2239 11.5346 18.9395 11.4398 18.6551 11.2502C18.2759 11.0606 17.8967 10.8711 17.6123 10.5867C16.4748 9.63872 16.854 8.31158 17.5175 7.64801C18.0863 7.26883 18.3707 6.88965 19.1291 6.88965C20.2666 6.88965 21.4989 6.88965 22.0677 7.07924H22.1625C22.0677 7.64801 21.9729 8.12199 21.7833 8.69076C21.3094 8.50117 20.8354 8.31158 20.3614 8.31158C20.077 8.31158 19.7926 8.31158 19.5082 8.40638C19.3186 8.40638 19.2239 8.50117 19.1291 8.59597C18.9395 8.78556 18.9395 9.06994 19.1291 9.25953L19.603 9.63872C19.9822 9.82831 20.3614 10.0179 20.6458 10.2075C21.1198 10.4919 21.5937 10.9659 21.6885 11.5346C21.8781 12.3878 21.5937 13.1461 20.8354 13.7149C20.3614 14.0941 20.1718 14.2837 19.5082 14.2837C18.1811 14.2837 17.1384 14.3785 16.2852 14.0941C16.1904 14.2837 16.1904 14.2837 16.0956 14.1889ZM12.7778 14.4733C12.8726 13.8097 12.8726 13.8097 12.9674 13.5253C13.4413 11.4398 13.9153 9.25953 14.2945 7.17403C14.3893 6.98444 14.3893 6.88965 14.5789 6.88965H16.2852C16.0956 8.02719 15.906 8.88035 15.6216 9.9231C15.3372 11.345 15.0529 12.767 14.6737 14.1889C14.6737 14.3785 14.5789 14.3785 14.3893 14.3785M3.96179 7.07924C3.96179 6.98444 4.15138 6.88965 4.24618 6.88965H7.46922C7.9432 6.88965 8.32238 7.17403 8.41718 7.64801L9.27034 11.819C9.27034 11.9138 9.27033 11.9138 9.36513 12.0086C9.36513 11.9138 9.45993 11.9138 9.45993 11.9138L11.4506 7.07924C11.3558 6.98444 11.4506 6.88965 11.5454 6.88965H13.5361C13.5361 6.98444 13.5361 6.98444 13.4413 7.07924L10.5027 13.9993C10.4079 14.1889 10.4079 14.2837 10.3131 14.3785C10.2183 14.4733 10.0287 14.3785 9.83911 14.3785H8.41718C8.32238 14.3785 8.22759 14.3785 8.22759 14.1889L6.71086 8.31158C6.52127 8.12199 6.23688 7.8376 5.8577 7.74281C5.28893 7.45842 4.24618 7.26883 4.05659 7.26883L3.96179 7.07924Z" fill="#142688"/>
</svg>
