<svg width="37" height="24" viewBox="0 0 37 24" fill="none" xmlns="http://www.w3.org/2000/svg">
<path d="M34.1889 0.305664C35.2894 0.305664 36.19 1.23655 36.19 2.3741V20.9881C36.19 22.1257 35.2894 23.0566 34.1889 23.0566H2.16791C1.06828 23.0566 0.167725 22.1257 0.167725 20.9881V2.3741C0.167725 1.23655 1.06828 0.305664 2.16886 0.305664H34.1889Z" fill="#5A31F4"/>
<path d="M9.0277 11.0808C8.06363 10.8694 7.63421 10.7869 7.63421 10.4125C7.63421 10.0598 7.92428 9.88351 8.50633 9.88351C9.01822 9.88351 9.39172 10.1091 9.66757 10.5509C9.6773 10.5673 9.69291 10.5793 9.71123 10.5846C9.72955 10.5899 9.74919 10.588 9.76616 10.5793L10.8525 10.0257C10.8618 10.0208 10.8699 10.014 10.8765 10.0058C10.8831 9.99766 10.8879 9.98824 10.8907 9.97814C10.8936 9.96805 10.8943 9.95748 10.893 9.94708C10.8916 9.93669 10.8882 9.92667 10.8828 9.91764C10.4326 9.12989 9.60027 8.69857 8.50348 8.69857C7.06259 8.69857 6.16772 9.41427 6.16772 10.5528C6.16772 11.7614 7.25787 12.0666 8.22479 12.278C9.1917 12.4885 9.62207 12.5719 9.62207 12.9464C9.62207 13.3217 9.30735 13.4981 8.68075 13.4981C8.1006 13.4981 7.67118 13.2307 7.41049 12.7113C7.40137 12.6935 7.38559 12.68 7.3666 12.6738C7.34761 12.6676 7.32693 12.6691 7.30906 12.6781L6.22555 13.2184C6.20716 13.2279 6.19326 13.2443 6.18687 13.264C6.18049 13.2837 6.18212 13.3051 6.19142 13.3236C6.62179 14.1958 7.50339 14.6858 8.6817 14.6858C10.1823 14.6858 11.0886 13.9825 11.0886 12.8089C11.0886 11.6353 9.99367 11.2941 9.02865 11.0836L9.0277 11.0808ZM14.8481 8.69857C14.232 8.69857 13.6878 8.91849 13.2973 9.31095C13.2919 9.31662 13.285 9.3205 13.2773 9.32206C13.2697 9.32362 13.2618 9.32279 13.2546 9.31968C13.2475 9.31658 13.2414 9.31134 13.2374 9.30469C13.2333 9.29803 13.2314 9.29029 13.2319 9.28251V6.77991C13.232 6.76987 13.2301 6.75991 13.2264 6.7506C13.2226 6.74129 13.2171 6.73281 13.21 6.72567C13.203 6.71853 13.1945 6.71286 13.1853 6.70899C13.176 6.70512 13.1661 6.70312 13.156 6.70313H11.7957C11.7856 6.70312 11.7756 6.70514 11.7663 6.70907C11.7569 6.713 11.7485 6.71876 11.7414 6.726C11.7344 6.73325 11.7288 6.74183 11.7251 6.75125C11.7214 6.76067 11.7196 6.77074 11.7199 6.78086V14.5484C11.7196 14.5585 11.7214 14.5686 11.7251 14.578C11.7288 14.5874 11.7344 14.596 11.7414 14.6032C11.7485 14.6105 11.7569 14.6162 11.7663 14.6202C11.7756 14.6241 11.7856 14.6261 11.7957 14.6261H13.1541C13.1643 14.6263 13.1745 14.6243 13.1839 14.6205C13.1933 14.6166 13.2019 14.6108 13.2091 14.6036C13.2162 14.5963 13.2219 14.5877 13.2256 14.5782C13.2294 14.5687 13.2312 14.5586 13.2309 14.5484V11.1414C13.2309 10.4826 13.7315 9.97831 14.4054 9.97831C15.0785 9.97831 15.5676 10.4722 15.5676 11.1414V14.5484C15.5674 14.5586 15.5692 14.5687 15.5729 14.5782C15.5767 14.5877 15.5823 14.5963 15.5895 14.6036C15.5967 14.6108 15.6052 14.6166 15.6147 14.6205C15.6241 14.6243 15.6342 14.6263 15.6444 14.6261H17.0028C17.013 14.6263 17.0232 14.6243 17.0326 14.6205C17.042 14.6166 17.0506 14.6108 17.0578 14.6036C17.0649 14.5963 17.0706 14.5877 17.0743 14.5782C17.0781 14.5687 17.0799 14.5586 17.0796 14.5484V11.1414C17.0796 9.71004 16.1506 8.69857 14.8481 8.69857ZM19.8372 8.4758C19.0997 8.4758 18.4087 8.70331 17.9129 9.0332C17.8963 9.04393 17.8844 9.06059 17.8796 9.07979C17.8749 9.09899 17.8776 9.11928 17.8873 9.13652L18.4864 10.1679C18.4913 10.1767 18.4979 10.1844 18.5059 10.1906C18.5138 10.1968 18.5229 10.2013 18.5326 10.204C18.5423 10.2066 18.5524 10.2073 18.5624 10.206C18.5724 10.2047 18.582 10.2014 18.5907 10.1963C18.9668 9.96678 19.3994 9.84664 19.8401 9.84939C21.025 9.84939 21.8971 10.694 21.8971 11.8098C21.8971 12.7606 21.1994 13.4639 20.315 13.4639C19.5945 13.4639 19.094 13.0411 19.094 12.443C19.094 12.1008 19.2381 11.8202 19.6135 11.6221C19.6228 11.6173 19.6311 11.6107 19.6377 11.6026C19.6443 11.5946 19.6492 11.5852 19.6521 11.5751C19.6549 11.5651 19.6557 11.5545 19.6543 11.5442C19.6528 11.5338 19.6493 11.5239 19.6438 11.5149L19.0789 10.5499C19.0699 10.5342 19.0556 10.5222 19.0385 10.5162C19.0215 10.5101 19.0029 10.5103 18.986 10.5167C18.2285 10.8002 17.6977 11.4818 17.6977 12.3975C17.6977 13.7815 18.7897 14.8148 20.314 14.8148C22.0934 14.8148 23.3731 13.5701 23.3731 11.7861C23.3731 9.87308 21.8848 8.4758 19.8372 8.4758ZM27.3469 8.68719C26.6606 8.68719 26.0454 8.94314 25.5979 9.39437C25.5733 9.41996 25.5325 9.401 25.5325 9.36688V8.82465C25.5328 8.81453 25.531 8.80446 25.5273 8.79504C25.5236 8.78562 25.5181 8.77704 25.511 8.76979C25.5039 8.76255 25.4955 8.75679 25.4862 8.75286C25.4768 8.74893 25.4668 8.74691 25.4567 8.74691H24.1324C24.1223 8.74691 24.1123 8.74893 24.1029 8.75286C24.0936 8.75679 24.0852 8.76255 24.0781 8.76979C24.071 8.77704 24.0655 8.78562 24.0618 8.79504C24.0581 8.80446 24.0563 8.81453 24.0566 8.82465V16.5808C24.0564 16.5908 24.0583 16.6008 24.0621 16.6101C24.0658 16.6194 24.0714 16.6279 24.0784 16.635C24.0855 16.6422 24.0939 16.6479 24.1032 16.6517C24.1124 16.6556 24.1224 16.6576 24.1324 16.6576H25.4908C25.5009 16.6577 25.511 16.6558 25.5204 16.652C25.5297 16.6482 25.5382 16.6425 25.5454 16.6354C25.5526 16.6282 25.5582 16.6197 25.562 16.6103C25.5658 16.601 25.5677 16.5909 25.5676 16.5808V14.0374C25.5676 14.0033 25.6084 13.9863 25.633 14.009C26.0974 14.4429 26.7114 14.6806 27.3469 14.6726C28.9414 14.6726 30.1841 13.371 30.1841 11.6799C30.1841 9.98873 28.9395 8.68719 27.3469 8.68719ZM27.09 13.3597C26.1838 13.3597 25.4965 12.6316 25.4965 11.6695C25.4965 10.7073 26.1819 9.97925 27.09 9.97925C27.9982 9.97925 28.6826 10.695 28.6826 11.6695C28.6826 12.643 28.0076 13.3597 27.09 13.3597Z" fill="#E8E8E8"/>
</svg>
