<svg width="35" height="22" viewBox="0 0 35 22" fill="none" xmlns="http://www.w3.org/2000/svg">
<path d="M32.3161 0.25293C33.3589 0.25293 34.212 1.10609 34.212 2.14884V19.212C34.212 20.2548 33.3589 21.1079 32.3161 21.1079H1.9816C0.938852 21.1079 0.0856934 20.2548 0.0856934 19.212V2.14884C0.0856934 1.10609 0.938852 0.25293 1.9816 0.25293H32.3161Z" fill="#E8E8E8"/>
<path d="M21.7956 7.17415C21.9852 6.22619 21.7956 5.56263 21.2269 4.99385C20.6581 4.33028 19.6153 4.0459 18.2882 4.0459H14.4016C14.1172 4.0459 13.9276 4.23549 13.8328 4.51988L12.4109 14.0942C12.4109 14.2838 12.5057 14.4734 12.6953 14.4734H15.2548L15.6339 11.2504L17.3403 9.16485L21.7956 7.17415Z" fill="#003087"/>
<path d="M21.7948 7.1748L21.6052 7.3644C21.1313 10.0187 19.5197 10.9666 17.2446 10.9666H16.2019C15.9175 10.9666 15.7279 11.1562 15.6331 11.4406L15.0643 15.1376L14.8748 16.0856C14.8748 16.2752 14.9696 16.4648 15.1591 16.4648H17.1498C17.4342 16.4648 17.6238 16.2752 17.6238 16.0856V15.9908L18.003 13.7157V13.6209C18.003 13.4313 18.2874 13.2417 18.477 13.2417H18.7614C20.7521 13.2417 22.2688 12.4833 22.648 10.2083C22.8376 9.2603 22.7428 8.50194 22.2688 7.93317C22.174 7.45919 21.9844 7.2696 21.7948 7.1748Z" fill="#3086C8"/>
<path d="M21.2245 6.98458C21.1297 6.88979 21.0349 6.88979 20.9401 6.88979C20.8453 6.88979 20.7505 6.88979 20.6558 6.79499C20.3714 6.7002 19.9922 6.7002 19.613 6.7002H16.7691C16.6743 6.7002 16.5795 6.7002 16.5795 6.79499C16.39 6.88979 16.2952 6.98458 16.2952 7.17417L15.6316 11.3452V11.44C15.6316 11.1556 15.916 10.966 16.2004 10.966H17.4327C19.8026 10.966 21.3193 10.018 21.7933 7.36376V7.17417C21.6985 7.07938 21.5089 6.98458 21.3193 6.98458H21.2245Z" fill="#012169"/>
</svg>
