<svg width="37" height="24" viewBox="0 0 37 24" fill="none" xmlns="http://www.w3.org/2000/svg">
<path d="M16.9729 0.305664V23.0566H10.1476C8.91527 23.0566 8.15691 22.1086 8.44129 20.8763L12.6123 2.48596C12.8967 1.25362 14.4134 0.305664 15.6457 0.305664H16.9729ZM28.9171 0.305664C27.6848 0.305664 26.168 1.25362 25.8836 2.48596L21.6179 20.8763C21.3335 22.1086 22.0918 23.0566 23.3242 23.0566H18.6792V0.305664H28.9171Z" fill="#005B9A"/>
<path d="M15.6448 0.305664C14.4125 0.305664 12.8958 1.34841 12.6114 2.48596L8.44037 20.8763C8.15599 22.1086 8.91435 23.0566 10.1467 23.0566H1.7099C0.951532 23.0566 0.287964 22.4878 0.287964 21.7294V1.82239C0.287964 1.06403 0.951532 0.305664 1.7099 0.305664H15.6448Z" fill="#E9292D"/>
<path d="M28.9181 0.305664C27.6857 0.305664 26.169 1.34841 25.8846 2.48596L21.7136 20.8763C21.4292 22.1086 22.1876 23.0566 23.4199 23.0566H9.67461H10.1486C8.91624 23.0566 8.15788 22.1086 8.44227 20.8763L12.6133 2.48596C12.8977 1.25362 14.4144 0.305664 15.6467 0.305664H28.9181Z" fill="#0E73B9"/>
<path d="M36.2156 1.82239V21.7294C36.2156 22.4878 35.6468 23.0566 34.7936 23.0566H23.3234C22.091 23.0566 21.3327 22.0138 21.6171 20.8763L25.8829 2.48596C26.1673 1.25362 27.684 0.305664 28.9163 0.305664H34.7936C35.6468 0.305664 36.2156 0.969232 36.2156 1.82239Z" fill="#059DA4"/>
<path d="M14.2957 13.2392H14.4284C14.5611 13.2392 14.6938 13.1729 14.6938 13.1065L15.092 12.5093H16.22L16.0209 12.8411H17.3481L17.149 13.4383H15.5564C15.3574 13.7037 15.1583 13.8364 14.8929 13.8364H14.0966L14.2957 13.2392ZM14.0966 14.1019H16.9499L16.7509 14.7654H15.6228L15.4237 15.429H16.5518L16.3527 16.0926H15.2247L14.9592 17.0879C14.8929 17.2206 14.9592 17.3534 15.2247 17.287H16.1537L15.9546 17.9506H14.163C13.8312 17.9506 13.6985 17.7515 13.8312 17.3534L14.163 16.0926H13.433L13.6321 15.429H14.362L14.5611 14.7654H13.8975L14.0966 14.1019ZM18.6752 12.443V12.8411C18.6752 12.8411 19.2061 12.443 19.7369 12.443H21.5949L20.865 14.9645C20.7986 15.2299 20.5332 15.429 20.1351 15.429H18.0116L17.5472 17.2206C17.5472 17.287 17.5472 17.3534 17.6799 17.3534H18.078L17.9453 17.8842H16.8836C16.4854 17.8842 16.3527 17.7515 16.4191 17.5524L17.8126 12.443H18.6752ZM20.2678 13.1729H18.6089L18.4098 13.8364C18.4098 13.8364 18.6752 13.6374 19.1397 13.6374H20.1351L20.2678 13.1729ZM19.6706 14.7654C19.8033 14.7654 19.8696 14.7654 19.8696 14.6327L20.0024 14.3009H18.3434L18.2107 14.8318L19.6706 14.7654ZM18.5425 15.5617H19.4715V15.9599H19.7369C19.8696 15.9599 19.936 15.8935 19.936 15.8271L20.0024 15.5617H20.7986L20.6659 16.0262C20.5996 16.358 20.3341 16.4907 19.936 16.5571H19.4051V17.287C19.4051 17.4197 19.4715 17.4861 19.7369 17.4861H20.2014L20.0687 18.0169H18.9406C18.6089 18.0169 18.4761 17.8842 18.4761 17.5524L18.5425 15.5617ZM22.5239 13.2392L22.723 12.443H23.851L23.7847 12.7084C23.7847 12.7084 24.3155 12.443 24.78 12.443H26.1735L25.9745 13.2392H25.7754L24.7137 16.8889H24.9128L24.7137 17.6188H24.5146L24.4483 17.9506H23.3202L23.3866 17.6188H21.3295L21.5286 16.8889H21.7276L22.7893 13.2392H22.5239ZM23.7183 13.2392L23.4529 14.2346C23.4529 14.2346 23.9174 14.0355 24.3155 13.9692C24.3819 13.6374 24.5146 13.2392 24.5146 13.2392H23.7183ZM23.2538 14.6991L22.9884 15.7608C22.9884 15.7608 23.5193 15.4954 23.9174 15.4954C24.0501 15.0972 24.1165 14.7654 24.1165 14.7654L23.2538 14.6991ZM23.4529 16.8889L23.652 16.1589H22.8557L22.6566 16.8889H23.4529ZM26.1735 12.443H27.2352L27.3016 12.8411C27.3016 12.9074 27.368 12.9738 27.5007 12.9738H27.6997L27.5007 13.6374H26.7707C26.5053 13.6374 26.3062 13.571 26.3062 13.3056L26.1735 12.443ZM25.8417 13.8364H29.2259L29.0269 14.5664H27.8988L27.6997 15.2299H28.7614L28.5624 15.9599H27.368L27.1025 16.358H27.6997L27.8325 17.1543C27.8325 17.2206 27.8988 17.287 28.0315 17.287H28.2306L28.0315 17.9506H27.368C27.0362 17.9506 26.8371 17.8842 26.8371 17.6188L26.7044 16.8889L26.1735 17.6851C26.0408 17.8842 25.8418 18.0169 25.5763 18.0169H24.581L24.78 17.3534H25.1118C25.2445 17.3534 25.3109 17.287 25.4436 17.1543L26.2399 15.9599H25.2445L25.4436 15.2299H26.5717L26.7707 14.5664H25.6427L25.8417 13.8364ZM7.12914 9.05875C6.99642 9.72232 6.73099 10.1868 6.2665 10.5186C5.802 10.8504 5.20479 11.0495 4.47486 11.0495C3.81129 11.0495 3.28044 10.8504 3.01501 10.5186C2.81594 10.2532 2.68323 9.98775 2.68323 9.58961C2.68323 9.45689 2.68323 9.25782 2.74959 9.05875L3.54587 5.34277H4.67393L3.94401 9.05875V9.32418C3.94401 9.52325 4.01036 9.65597 4.07672 9.78868C4.20943 9.98775 4.40851 10.0541 4.74029 10.0541C5.07207 10.0541 5.40386 9.98775 5.60293 9.78868C5.802 9.58961 6.00107 9.39054 6.06743 9.05875L6.79735 5.34277H7.92542L7.12914 9.05875ZM8.19084 7.5989H8.98712L8.92077 8.0634L9.05348 7.93069C9.31891 7.66526 9.65069 7.53255 10.0488 7.53255C10.3806 7.53255 10.646 7.66526 10.7788 7.86433C10.9115 8.0634 10.9778 8.32883 10.9115 8.72697L10.447 10.9831H9.58434L9.98248 8.92604C10.0488 8.66061 10.0488 8.46154 9.98248 8.39519C9.91612 8.26247 9.78341 8.26247 9.65069 8.26247C9.45162 8.26247 9.25255 8.32883 9.11984 8.46154C8.98712 8.59426 8.85441 8.79333 8.85441 9.05875L8.45627 10.9831H7.59363L8.19084 7.5989ZM17.4808 7.5989H18.2771L18.2107 8.0634L18.3434 7.93069C18.6089 7.66526 18.9406 7.53255 19.3388 7.53255C19.6706 7.53255 19.936 7.66526 20.0687 7.86433C20.2014 8.0634 20.2678 8.32883 20.2014 8.72697L19.7369 10.9831H18.8743L19.2724 8.85968C19.3388 8.66061 19.2724 8.46154 19.2061 8.39519C19.1397 8.26247 19.007 8.26247 18.8743 8.26247C18.6752 8.26247 18.4761 8.32883 18.3434 8.46154C18.2107 8.59426 18.078 8.79333 18.078 9.05875L17.6799 10.9831H16.8172L17.4808 7.5989ZM11.9732 7.5989H12.9022L12.1723 10.9167H11.2433L11.9732 7.5989ZM12.305 6.33812H13.234L13.0349 7.13441H12.1059L12.305 6.33812ZM13.6321 10.6513C13.433 10.4522 13.3003 10.1205 13.3003 9.72232V9.52325C13.3003 9.45689 13.3003 9.32418 13.3667 9.25782C13.4994 8.72697 13.6985 8.26247 14.0302 7.99705C14.362 7.66526 14.8265 7.53255 15.291 7.53255C15.6892 7.53255 16.0209 7.66526 16.2864 7.86433C16.4854 8.0634 16.6182 8.39519 16.6182 8.79333V8.9924C16.6182 9.05875 16.6182 9.19147 16.5518 9.25782C16.4191 9.78868 16.22 10.1868 15.8882 10.5186C15.5564 10.8504 15.092 10.9831 14.6275 10.9831C14.2957 10.9831 13.9639 10.8504 13.6321 10.6513ZM15.4237 9.98775C15.5564 9.78868 15.6892 9.52325 15.7555 9.19147V8.85968C15.7555 8.66061 15.6892 8.5279 15.6228 8.39519C15.5644 8.33032 15.4927 8.27892 15.4125 8.24454C15.3323 8.21017 15.2455 8.19365 15.1583 8.19612C14.8929 8.19612 14.6938 8.26247 14.5611 8.46154C14.4284 8.66061 14.2957 8.92604 14.2293 9.25782V9.52325C14.2293 9.72232 14.2957 9.85504 14.362 9.98775C14.4947 10.1205 14.6275 10.1868 14.8265 10.1868C15.0919 10.2532 15.2247 10.1868 15.4237 9.98775ZM21.5949 5.54184H23.9838C24.4483 5.54184 24.78 5.67456 25.0455 5.87363C25.3109 6.0727 25.3773 6.40448 25.3773 6.73627V7.00169C25.3773 7.06805 25.3773 7.20076 25.3109 7.26712C25.2445 7.73162 24.9791 8.19611 24.6473 8.46154C24.2492 8.79333 23.851 8.92604 23.3202 8.92604H21.9931L21.5949 10.8504H20.4669L21.5949 5.54184ZM22.1258 7.99705H23.1875C23.4529 7.99705 23.652 7.93069 23.851 7.79797C23.9838 7.66526 24.1165 7.46619 24.1828 7.20076V6.93534C24.1828 6.73627 24.1165 6.60355 23.9838 6.5372C23.851 6.47084 23.652 6.40448 23.3202 6.40448H22.4576L22.1258 7.99705ZM30.354 11.514C30.0222 12.2439 29.6904 12.7084 29.4914 12.9074C29.2923 13.1065 28.8942 13.571 27.9652 13.571L28.0315 12.9738C28.8278 12.7084 29.2259 11.6467 29.4914 11.1158L29.2259 7.53255H30.354L30.4204 9.78868L31.283 7.5989H32.2784L30.354 11.514ZM27.567 7.86433L27.1689 8.12976C26.7707 7.79798 26.3726 7.5989 25.709 7.93069C24.78 8.39518 23.9174 11.8457 26.5717 10.7177L26.7044 10.9167H27.7661L28.4297 7.79797L27.567 7.86433ZM27.0362 9.58961C26.8371 10.1205 26.5053 10.3859 26.1735 10.3195C25.9081 10.1868 25.8418 9.72232 25.9745 9.19147C26.1735 8.66061 26.5053 8.39519 26.8371 8.46154C27.1025 8.59426 27.1689 9.05875 27.0362 9.58961Z" fill="#E8E8E8"/>
</svg>
