<svg width="35" height="22" viewBox="0 0 35 22" fill="none" xmlns="http://www.w3.org/2000/svg">
<path d="M32.2878 0.25293C33.3306 0.25293 34.1837 1.10609 34.1837 2.14884V19.212C34.1837 20.2548 33.3306 21.1079 32.2878 21.1079H1.95328C0.910532 21.1079 0.057373 20.2548 0.057373 19.212V2.14884C0.057373 1.10609 0.910532 0.25293 1.95328 0.25293H32.2878Z" fill="#E8E8E8"/>
<path d="M13.3307 17.3173C16.9955 17.3173 19.9664 14.3464 19.9664 10.6816C19.9664 7.01679 16.9955 4.0459 13.3307 4.0459C9.66596 4.0459 6.69507 7.01679 6.69507 10.6816C6.69507 14.3464 9.66596 17.3173 13.3307 17.3173Z" fill="#EB001B"/>
<path d="M20.9108 17.3173C24.5756 17.3173 27.5465 14.3464 27.5465 10.6816C27.5465 7.01679 24.5756 4.0459 20.9108 4.0459C17.246 4.0459 14.2751 7.01679 14.2751 10.6816C14.2751 14.3464 17.246 17.3173 20.9108 17.3173Z" fill="#F79E1B"/>
<path d="M19.9629 10.6817C19.9629 8.40657 18.8253 6.41587 17.119 5.27832C15.4127 6.51066 14.2751 8.50136 14.2751 10.6817C14.2751 12.862 15.4127 14.9475 17.119 16.085C18.8253 14.9475 19.9629 12.9567 19.9629 10.6817Z" fill="#FF5F00"/>
</svg>
