<svg width="36" height="22" viewBox="0 0 36 22" fill="none" xmlns="http://www.w3.org/2000/svg">
<path d="M33.1787 0.25293C34.2214 0.25293 35.0746 1.10609 35.0746 2.14884V19.212C35.0746 20.2548 34.2214 21.1079 33.1787 21.1079H2.84415C1.8014 21.1079 0.948242 20.2548 0.948242 19.212V2.14884C0.948242 1.10609 1.8014 0.25293 2.84415 0.25293H33.1787Z" fill="#E8E8E8"/>
<path d="M11.3759 10.6816V14.189C11.3759 14.4734 11.1863 14.4734 10.9019 14.3786C9.10083 13.6202 8.05808 11.2503 8.72165 9.25965C9.10083 8.2169 9.8592 7.36374 10.9019 6.98456C11.2811 6.79497 11.3759 6.88976 11.3759 7.17415V10.6816ZM13.2718 10.6816V7.17415C13.2718 6.88976 13.2718 6.88976 13.5562 6.98456C15.5469 7.74292 16.5897 10.1128 15.8313 12.1035C15.4521 13.1463 14.6938 13.9994 13.651 14.3786C13.2718 14.5682 13.2718 14.4734 13.2718 14.189V10.6816ZM20.0971 4.0459H12.3239C15.9261 4.0459 18.77 6.98456 18.77 10.6816C18.77 14.3786 15.9261 17.3173 12.3239 17.3173H20.0971C23.6993 17.3173 26.5432 14.3786 26.5432 10.6816C26.5432 6.98456 23.6993 4.0459 20.0971 4.0459Z" fill="#3086C8"/>
</svg>
