<svg width="35" height="22" viewBox="0 0 35 22" fill="none" xmlns="http://www.w3.org/2000/svg">
<path d="M32.2614 0.25293C33.3042 0.25293 34.1574 1.10609 34.1574 2.14884V19.212C34.1574 20.2548 33.3042 21.1079 32.2614 21.1079H1.92691C0.884165 21.1079 0.0310059 20.2548 0.0310059 19.212V2.14884C0.0310059 1.10609 0.884165 0.25293 1.92691 0.25293H32.2614Z" fill="#E8E8E8"/>
<path d="M13.3034 17.3173C16.9682 17.3173 19.9391 14.3464 19.9391 10.6816C19.9391 7.01679 16.9682 4.0459 13.3034 4.0459C9.63862 4.0459 6.66772 7.01679 6.66772 10.6816C6.66772 14.3464 9.63862 17.3173 13.3034 17.3173Z" fill="#EB001B"/>
<path d="M20.8845 17.3173C24.5492 17.3173 27.5201 14.3464 27.5201 10.6816C27.5201 7.01679 24.5492 4.0459 20.8845 4.0459C17.2197 4.0459 14.2488 7.01679 14.2488 10.6816C14.2488 14.3464 17.2197 17.3173 20.8845 17.3173Z" fill="#00A2E5"/>
<path d="M19.9367 10.6817C19.9367 8.40657 18.7992 6.41587 17.0929 5.27832C15.3866 6.51066 14.249 8.50136 14.249 10.6817C14.249 12.862 15.3866 14.9475 17.0929 16.085C18.7992 14.9475 19.9367 12.9567 19.9367 10.6817Z" fill="#7375CF"/>
</svg>
