<svg width="80" height="80" viewBox="0 0 80 80" fill="none" xmlns="http://www.w3.org/2000/svg">
<mask id="mask0_10_9745" style="mask-type:luminance" maskUnits="userSpaceOnUse" x="0" y="0" width="80" height="80">
<path d="M0 0H80V80H0V0Z" fill="white"/>
</mask>
<g mask="url(#mask0_10_9745)">
<path d="M31.4063 72.9688H22.0031L25.7531 54.0625" stroke="black" stroke-width="3.2" stroke-miterlimit="10" stroke-linecap="round" stroke-linejoin="round"/>
<path d="M35.3125 54.0625L30.625 77.6562H49.375L44.6875 54.0625" stroke="black" stroke-width="3.2" stroke-miterlimit="10" stroke-linecap="round" stroke-linejoin="round"/>
<path d="M54.247 54.0625L57.997 72.9688H48.5938" stroke="black" stroke-width="3.2" stroke-miterlimit="10" stroke-linecap="round" stroke-linejoin="round"/>
<path d="M22.9405 68.2812H11.875C11.875 40.1173 27.4791 35.0842 31.4783 28.8189C31.4783 21.0937 25.9375 21.607 25.9375 16.4062" stroke="black" stroke-width="3.2" stroke-miterlimit="10" stroke-linecap="round" stroke-linejoin="round"/>
<path d="M57.0595 68.2812H68.125C68.125 40.1173 52.5209 35.0842 48.5217 28.8189C48.5217 21.0937 54.0625 21.607 54.0625 16.4062" stroke="black" stroke-width="3.2" stroke-miterlimit="10" stroke-linecap="round" stroke-linejoin="round"/>
<path d="M25.9375 16.4062C25.9375 11.7187 30.625 7.03125 30.625 7.03125C30.625 7.03125 40 9.75125 40 16.4062C40 9.75125 49.375 7.03125 49.375 7.03125C49.375 7.03125 54.0625 11.7187 54.0625 16.4062" stroke="black" stroke-width="3.2" stroke-miterlimit="10" stroke-linecap="round" stroke-linejoin="round"/>
<path d="M30.625 2.34375V7.03125" stroke="black" stroke-width="3.2" stroke-miterlimit="10" stroke-linecap="round" stroke-linejoin="round"/>
<path d="M49.375 2.34375V7.03125" stroke="black" stroke-width="3.2" stroke-miterlimit="10" stroke-linecap="round" stroke-linejoin="round"/>
</g>
</svg>
