<svg width="428" height="39" viewBox="0 0 428 39" fill="none" xmlns="http://www.w3.org/2000/svg">
<path d="M22.3479 38.3057H9.63468L0.62711 0.108987H10.2048L14.8226 21.7728L16.1338 30.1532H16.7609L18.5282 21.7728L24.9134 0.108987H37.6266L43.9547 21.7728L45.722 30.1532H46.3491L47.6603 21.7728L52.2781 0.108987H61.6278L52.5632 38.3057H39.85L34.149 19.2073L31.4695 8.2044H30.8424L28.1629 19.2073L22.3479 38.3057ZM78.6608 38.8758C68.9121 38.8758 62.356 33.0607 62.356 24.0532C62.356 14.9316 68.9121 9.17357 78.6608 9.17357C88.4095 9.17357 94.9657 14.9316 94.9657 24.0532C94.9657 33.0607 88.4095 38.8758 78.6608 38.8758ZM78.6608 31.2934C84.4188 31.2934 86.4712 29.07 86.4712 24.0532C86.4712 19.0363 84.4188 16.6989 78.6608 16.6989C72.8458 16.6989 70.8505 19.0363 70.8505 24.0532C70.8505 29.07 72.8458 31.2934 78.6608 31.2934ZM105.869 38.3057H97.3178V9.74367H105.242V18.4092H105.698C106.382 13.6203 109.233 9.17357 116.416 9.17357C123.029 9.17357 126.393 13.2213 127.02 18.5232H127.533C128.217 13.6774 131.125 9.17357 138.479 9.17357C145.833 9.17357 149.425 14.0194 149.425 20.5186V38.3057H140.873V23.3691C140.873 18.6372 139.22 16.8699 134.317 16.8699C129.129 16.8699 127.647 18.9223 127.647 23.8821V38.3057H119.096V23.3691C119.096 18.6372 117.442 16.8699 112.539 16.8699C107.352 16.8699 105.869 18.9223 105.869 23.8821V38.3057ZM161.41 38.8758C155.253 38.8758 151.548 36.0253 151.548 31.2364C151.548 27.0177 154.683 24.3952 160.783 23.7681L173.04 22.5139V21.4307C173.04 17.7251 171.387 16.6989 166.826 16.6989C162.494 16.6989 160.726 17.8391 160.726 21.0887V21.3167H152.118V21.1457C152.118 14.0764 158.047 9.17357 167.453 9.17357C176.974 9.17357 181.478 14.0764 181.478 21.5447V38.3057H173.496V31.7495H173.04C171.729 36.1963 167.738 38.8758 161.41 38.8758ZM160.156 30.6663C160.156 32.2056 161.353 32.8327 163.862 32.8327C169.677 32.8327 172.812 31.4645 173.04 27.4168L163.121 28.557C161.068 28.728 160.156 29.2981 160.156 30.6663ZM193.224 38.3057H184.672V9.74367H192.597V18.5232H193.11C193.851 13.7344 197.271 9.17357 204.74 9.17357C212.55 9.17357 216.256 14.1904 216.256 20.5186V38.3057H207.704V23.3691C207.704 18.8083 205.823 16.8699 200.578 16.8699C195.162 16.8699 193.224 19.0363 193.224 23.8821V38.3057ZM247.165 38.3057H234.452L225.445 0.108987H235.022L239.64 21.7728L240.951 30.1532H241.578L243.346 21.7728L249.731 0.108987H262.444L268.772 21.7728L270.539 30.1532H271.167L272.478 21.7728L277.096 0.108987H286.445L277.381 38.3057H264.667L258.966 19.2073L256.287 8.2044H255.66L252.98 19.2073L247.165 38.3057ZM303.478 38.8758C293.73 38.8758 287.173 33.0607 287.173 24.0532C287.173 14.9316 293.73 9.17357 303.478 9.17357C313.227 9.17357 319.783 14.9316 319.783 24.0532C319.783 33.0607 313.227 38.8758 303.478 38.8758ZM303.478 31.2934C309.236 31.2934 311.289 29.07 311.289 24.0532C311.289 19.0363 309.236 16.6989 303.478 16.6989C297.663 16.6989 295.668 19.0363 295.668 24.0532C295.668 29.07 297.663 31.2934 303.478 31.2934ZM330.687 38.3057H322.135V9.74367H330.06V17.326H330.573C331.371 12.7082 334.392 9.17357 340.15 9.17357C346.535 9.17357 349.158 13.5633 349.158 19.1503V23.8821H340.606V20.9176C340.606 17.7821 339.352 16.4138 335.875 16.4138C332.055 16.4138 330.687 18.1811 330.687 21.7728V38.3057ZM359.666 38.3057H351.115V0.108987H359.666V38.3057ZM375.772 38.8758C366.879 38.8758 361.976 33.0607 361.976 24.0532C361.976 14.9316 366.822 9.17357 375.316 9.17357C382.1 9.17357 385.578 12.5372 386.547 17.326H387.06V0.108987H395.612V38.3057H387.63V30.3813H387.174C386.091 36.0253 382.328 38.8758 375.772 38.8758ZM370.641 24.0532C370.641 29.2411 373.207 31.0654 378.68 31.0654C384.096 31.0654 387.06 29.1841 387.06 24.2242V23.7681C387.06 18.8083 384.153 16.9839 378.68 16.9839C373.207 16.9839 370.641 18.8083 370.641 24.0532ZM413.42 38.8758C403.785 38.8758 398.483 35.1131 398.483 28.4999V28.3289H407.035V28.842C407.035 31.4075 408.631 32.0916 413.477 32.0916C418.038 32.0916 419.121 31.3504 419.121 29.6401C419.121 28.0439 418.266 27.5878 414.902 27.1317L406.864 26.1625C401.163 25.5354 397.97 22.97 397.97 18.1811C397.97 13.1643 402.246 9.17357 412.052 9.17357C421.401 9.17357 426.703 12.7082 426.703 19.6634V19.8344H418.152V19.4924C418.152 17.155 417.011 15.9578 411.766 15.9578C407.491 15.9578 406.408 16.6989 406.408 18.5232C406.408 20.0055 407.206 20.6326 410.968 21.0887L417.068 21.8298C424.708 22.6849 427.558 25.2504 427.558 29.9822C427.558 35.3411 422.256 38.8758 413.42 38.8758Z" fill="black"/>
</svg>
