<svg width="300" height="28" viewBox="0 0 300 28" fill="none" xmlns="http://www.w3.org/2000/svg">
<path d="M15.68 27H6.76L0.44 0.199999H7.16L10.4 15.4L11.32 21.28H11.76L13 15.4L17.48 0.199999H26.4L30.84 15.4L32.08 21.28H32.52L33.44 15.4L36.68 0.199999H43.24L36.88 27H27.96L23.96 13.6L22.08 5.88H21.64L19.76 13.6L15.68 27ZM55.1909 27.4C48.3509 27.4 43.7509 23.32 43.7509 17C43.7509 10.6 48.3509 6.56 55.1909 6.56C62.0309 6.56 66.6309 10.6 66.6309 17C66.6309 23.32 62.0309 27.4 55.1909 27.4ZM55.1909 22.08C59.2309 22.08 60.6709 20.52 60.6709 17C60.6709 13.48 59.2309 11.84 55.1909 11.84C51.1109 11.84 49.7109 13.48 49.7109 17C49.7109 20.52 51.1109 22.08 55.1909 22.08ZM74.2813 27H68.2813V6.96H73.8413V13.04H74.1613C74.6413 9.68 76.6413 6.56 81.6813 6.56C86.3213 6.56 88.6813 9.4 89.1213 13.12H89.4813C89.9613 9.72 92.0013 6.56 97.1613 6.56C102.321 6.56 104.841 9.96 104.841 14.52V27H98.8413V16.52C98.8413 13.2 97.6813 11.96 94.2413 11.96C90.6013 11.96 89.5613 13.4 89.5613 16.88V27H83.5613V16.52C83.5613 13.2 82.4013 11.96 78.9613 11.96C75.3213 11.96 74.2813 13.4 74.2813 16.88V27ZM113.251 27.4C108.931 27.4 106.331 25.4 106.331 22.04C106.331 19.08 108.531 17.24 112.811 16.8L121.411 15.92V15.16C121.411 12.56 120.251 11.84 117.051 11.84C114.011 11.84 112.771 12.64 112.771 14.92V15.08H106.731V14.96C106.731 10 110.891 6.56 117.491 6.56C124.171 6.56 127.331 10 127.331 15.24V27H121.731V22.4H121.411C120.491 25.52 117.691 27.4 113.251 27.4ZM112.371 21.64C112.371 22.72 113.211 23.16 114.971 23.16C119.051 23.16 121.251 22.2 121.411 19.36L114.451 20.16C113.011 20.28 112.371 20.68 112.371 21.64ZM135.572 27H129.572V6.96H135.132V13.12H135.492C136.012 9.76 138.412 6.56 143.652 6.56C149.132 6.56 151.732 10.08 151.732 14.52V27H145.732V16.52C145.732 13.32 144.412 11.96 140.732 11.96C136.932 11.96 135.572 13.48 135.572 16.88V27ZM173.419 27H164.499L158.179 0.199999H164.899L168.139 15.4L169.059 21.28H169.499L170.739 15.4L175.219 0.199999H184.139L188.579 15.4L189.819 21.28H190.259L191.179 15.4L194.419 0.199999H200.979L194.619 27H185.699L181.699 13.6L179.819 5.88H179.379L177.499 13.6L173.419 27ZM212.93 27.4C206.09 27.4 201.49 23.32 201.49 17C201.49 10.6 206.09 6.56 212.93 6.56C219.77 6.56 224.37 10.6 224.37 17C224.37 23.32 219.77 27.4 212.93 27.4ZM212.93 22.08C216.97 22.08 218.41 20.52 218.41 17C218.41 13.48 216.97 11.84 212.93 11.84C208.85 11.84 207.45 13.48 207.45 17C207.45 20.52 208.85 22.08 212.93 22.08ZM232.02 27H226.02V6.96H231.58V12.28H231.94C232.5 9.04 234.62 6.56 238.66 6.56C243.14 6.56 244.98 9.64 244.98 13.56V16.88H238.98V14.8C238.98 12.6 238.1 11.64 235.66 11.64C232.98 11.64 232.02 12.88 232.02 15.4V27ZM252.353 27H246.353V0.199999H252.353V27ZM263.654 27.4C257.414 27.4 253.974 23.32 253.974 17C253.974 10.6 257.374 6.56 263.334 6.56C268.094 6.56 270.534 8.92 271.214 12.28H271.574V0.199999H277.574V27H271.974V21.44H271.654C270.894 25.4 268.254 27.4 263.654 27.4ZM260.054 17C260.054 20.64 261.854 21.92 265.694 21.92C269.494 21.92 271.574 20.6 271.574 17.12V16.8C271.574 13.32 269.534 12.04 265.694 12.04C261.854 12.04 260.054 13.32 260.054 17ZM290.068 27.4C283.308 27.4 279.588 24.76 279.588 20.12V20H285.588V20.36C285.588 22.16 286.708 22.64 290.108 22.64C293.308 22.64 294.068 22.12 294.068 20.92C294.068 19.8 293.468 19.48 291.108 19.16L285.468 18.48C281.468 18.04 279.228 16.24 279.228 12.88C279.228 9.36 282.228 6.56 289.108 6.56C295.668 6.56 299.388 9.04 299.388 13.92V14.04H293.388V13.8C293.388 12.16 292.588 11.32 288.908 11.32C285.908 11.32 285.148 11.84 285.148 13.12C285.148 14.16 285.708 14.6 288.348 14.92L292.628 15.44C297.988 16.04 299.988 17.84 299.988 21.16C299.988 24.92 296.268 27.4 290.068 27.4Z" fill="black"/>
</svg>
