<svg width="68" height="57" viewBox="0 0 68 57" fill="none" xmlns="http://www.w3.org/2000/svg">
<g clip-path="url(#clip0_45_2575)">
<g style="mix-blend-mode:luminosity">
<path d="M39.1853 30.3103C39.132 30.3236 38.919 30.3236 38.8259 30.3236H31.9571V31.921H38.9457C38.9989 31.921 39.4116 31.921 39.4914 31.9077C40.9158 31.7746 41.568 30.5898 41.568 29.5515C41.568 28.4866 40.8891 27.3418 39.5979 27.222C39.345 27.1954 39.132 27.1954 39.0388 27.1954H34.473C34.2733 27.1954 34.047 27.1821 33.9672 27.1555C33.6077 27.0623 33.4746 26.7428 33.4746 26.4766C33.4746 26.237 33.6078 25.9175 33.9805 25.811C34.087 25.7844 34.2068 25.7711 34.4597 25.7711H41.0489V24.2003H34.3532C34.0737 24.2003 33.8607 24.2136 33.6876 24.2403C32.5428 24.4 31.7441 25.3185 31.7441 26.4899C31.7441 27.4483 32.3432 28.5665 33.661 28.7528C33.9006 28.7795 34.2334 28.7795 34.3798 28.7795H38.8259C38.9057 28.7795 39.1054 28.7795 39.1453 28.7928C39.6512 28.8593 39.8242 29.2321 39.8242 29.5648C39.8242 29.8843 39.6245 30.2304 39.1853 30.3103Z" fill="white"/>
<path d="M26.1667 30.3103C26.1135 30.3236 25.9005 30.3236 25.8206 30.3236H18.9386V31.921H25.9271C25.9804 31.921 26.393 31.921 26.4729 31.9077C27.8972 31.7746 28.5495 30.5898 28.5495 29.5515C28.5495 28.4866 27.8706 27.3418 26.5794 27.222C26.3264 27.1954 26.1135 27.1954 26.0203 27.1954H21.4544C21.2548 27.1954 21.0285 27.1821 20.9486 27.1555C20.5892 27.0623 20.4561 26.7428 20.4561 26.4766C20.4561 26.237 20.5892 25.9175 20.9619 25.811C21.0684 25.7844 21.1882 25.7711 21.4411 25.7711H28.0303V24.2003H21.3346C21.0551 24.2003 20.8421 24.2136 20.6691 24.2403C19.5243 24.4 18.7256 25.3185 18.7256 26.4899C18.7256 27.4483 19.3246 28.5665 20.6424 28.7528C20.882 28.7795 21.2148 28.7795 21.3613 28.7795H25.8073C25.8872 28.7795 26.0868 28.7795 26.1268 28.7928C26.6326 28.8593 26.8057 29.2321 26.8057 29.5648C26.8057 29.8843 26.6193 30.2304 26.1667 30.3103Z" fill="white"/>
<path d="M15.3584 24.1471H13.6279V31.9609H15.3584V24.1471Z" fill="white"/>
<path d="M9.80723 31.9609V24.1471H8.07674V29.9775L2.31286 24.1471H0.0898438V31.9609H1.82034V26.1039L7.62415 31.9609H9.80723Z" fill="white"/>
<path d="M65.4625 24.1471V29.9775L59.6986 24.1471H57.4756V31.9609H59.2061V26.1039L64.9966 31.9609H67.1797V24.1471H65.4625Z" fill="white"/>
<path d="M48.4638 24.1471L43.5918 31.9609H45.695L46.5603 30.5632H52.2443L53.1095 31.9609H55.1994L50.3274 24.1471H48.4638ZM51.3524 29.0857H47.4521L49.4089 25.9441L51.3524 29.0857Z" fill="white"/>
<path d="M9.71368 19.7143C13.2013 9.53103 22.8122 2.68892 33.6477 2.68892C44.4833 2.68892 54.1075 9.53103 57.5818 19.7143L57.6084 19.7942H65.2359V18.8757L62.0678 18.503C60.111 18.2767 59.6983 17.4114 59.1659 16.3199L59.0328 16.0537C54.4536 6.30965 44.4833 0 33.6477 0C22.7989 0 12.8419 6.30965 8.26273 16.0803L8.12961 16.3465C7.59715 17.4381 7.18449 18.3033 5.22771 18.5296L2.05957 18.9023V19.8208H9.67374L9.71368 19.7143Z" fill="white"/>
<path d="M57.6088 36.327L57.5822 36.4069C54.0946 46.5902 44.4837 53.419 33.6481 53.419C22.8125 53.419 13.1883 46.5769 9.71404 36.3936L9.68742 36.3137H2.07324V37.2322L5.24138 37.6049C7.19817 37.8312 7.61082 38.6965 8.14328 39.788L8.2764 40.0543C12.8556 49.8249 22.8259 56.1345 33.6614 56.1345C44.497 56.1345 54.4673 49.8249 59.0464 40.0676L59.1796 39.8013C59.712 38.7098 60.1247 37.8445 62.0815 37.6182L65.2496 37.2455V36.327H57.6088Z" fill="white"/>
</g>
</g>
<defs>
<clipPath id="clip0_45_2575">
<rect width="67.0897" height="56.1346" fill="white" transform="translate(0.0898438)"/>
</clipPath>
</defs>
</svg>
