<svg width="101" height="39" viewBox="0 0 101 39" fill="none" xmlns="http://www.w3.org/2000/svg">
<g style="mix-blend-mode:luminosity" clip-path="url(#clip0_45_2858)">
<path d="M50.3592 0.584229C22.931 0.584229 0.944336 8.7983 0.944336 19.0969C0.944336 29.3327 23.1121 37.6102 50.3592 37.6102C77.607 37.6102 99.7748 29.3049 99.7748 19.0969C99.7748 8.88878 77.607 0.584229 50.3592 0.584229Z" fill="#003478"/>
<path d="M69.8239 23.0185C69.8371 23.1033 69.9485 23.1846 70.0563 23.223C70.0961 23.2362 70.1156 23.2628 70.074 23.3528C69.7664 24.0118 69.4834 24.3917 69.0978 24.9642C68.7428 25.4932 68.3432 25.9059 67.8593 26.3029C67.1295 26.9064 66.1159 27.5632 65.2779 27.1217C64.9057 26.9287 64.7446 26.4082 64.7518 25.9868C64.7695 24.802 65.2971 23.5856 66.2713 22.3901C67.4589 20.9293 68.7718 20.1716 69.6335 20.5858C70.5249 21.0106 70.2405 22.0418 69.8412 22.8512C69.8103 22.9139 69.8103 22.9669 69.8235 23.0181M79.39 13.7862C79.4541 13.6731 79.3866 13.5906 79.2437 13.5906C78.4991 13.5906 77.5221 13.5923 76.7463 13.5923C76.5615 13.5923 76.4661 13.6143 76.379 13.7865C76.0926 14.3347 72.6027 19.5603 71.9532 20.5751C71.8435 20.7297 71.71 20.708 71.6946 20.5309C71.6287 19.9282 71.1077 19.2354 70.2869 18.9038C69.6614 18.6504 69.0499 18.6044 68.4141 18.6888C67.2662 18.8429 66.2436 19.4478 65.3446 20.1301C63.9896 21.1593 62.8205 22.4933 61.3113 23.4789C60.4874 24.0155 59.3592 24.4834 58.6043 23.7849C57.9211 23.152 57.9983 21.7464 59.0436 20.6593C59.1537 20.5453 59.2858 20.6416 59.265 20.7427C59.1665 21.2344 59.2871 21.7233 59.6611 22.0661C60.1171 22.4746 60.7698 22.5207 61.3284 22.2481C61.9876 21.9217 62.375 21.2916 62.4879 20.5764C62.6625 19.467 61.8078 18.4885 60.7382 18.41C59.8694 18.349 59.0362 18.6511 58.2243 19.3206C57.8172 19.6579 57.5861 19.9072 57.234 20.4074C57.1483 20.5306 57.0165 20.5429 57.0205 20.361C57.0603 18.9406 56.4728 18.1414 55.2975 18.1154C54.3852 18.0933 53.4106 18.5881 52.6509 19.1933C51.8181 19.8615 51.0899 20.747 50.3093 21.5791C50.212 21.6815 50.1276 21.6767 50.1002 21.4779C50.0781 20.5368 49.8399 19.6253 49.404 18.978C49.2497 18.7527 48.925 18.6414 48.6522 18.7933C48.5262 18.8622 48.088 19.0636 47.7689 19.3203C47.6107 19.4506 47.5488 19.6392 47.6191 19.8809C48.0398 21.2869 47.9475 22.8854 47.3764 24.2356C46.8521 25.4722 45.8333 26.5874 44.6357 26.9649C43.8468 27.2149 43.0267 27.0926 42.5192 26.3938C41.8223 25.4294 42.1037 23.7522 43.1427 22.3595C44.0595 21.1332 45.3859 20.3543 46.7087 19.8527C46.8643 19.7926 46.8965 19.6928 46.8523 19.5608C46.7807 19.3435 46.6658 19.0476 46.6194 18.9125C46.4978 18.5897 46.1582 18.5376 45.7434 18.5826C44.7822 18.6944 43.9151 19.0234 43.0586 19.4816C40.8158 20.6815 39.6913 23.0039 39.1985 24.2464C38.9612 24.8432 38.7583 25.2155 38.4961 25.5457C38.1425 25.9897 37.6986 26.3939 36.8871 27.106C36.8137 27.1714 36.7589 27.3074 36.8208 27.4341C36.9034 27.6055 37.3256 28.2011 37.4446 28.2542C37.5768 28.3191 37.7301 28.2277 37.7916 28.1844C38.3595 27.7997 39.0389 27.1901 39.3714 26.7767C39.4881 26.6349 39.6079 26.6945 39.6698 26.9096C39.9801 28.0156 40.7925 28.9187 41.916 29.2965C43.9725 29.9894 46.1055 28.9865 47.7155 27.2405C48.7387 26.1307 49.108 25.4169 49.5002 24.9318C50.1649 24.109 51.476 22.2683 53.0377 21.0865C53.6104 20.6506 54.288 20.3182 54.6288 20.539C54.9024 20.7161 54.9908 21.1276 54.5519 21.925C52.9597 24.83 50.6171 28.2429 50.1875 29.0706C50.1088 29.2141 50.1786 29.3271 50.328 29.3271C51.1612 29.323 51.9871 29.3251 52.7434 29.3251C52.8694 29.3207 52.9256 29.2615 52.9888 29.1727C54.2107 27.2617 55.3606 25.4429 56.5931 23.5625C56.6621 23.4516 56.7257 23.5359 56.7284 23.5845C56.7549 24.0208 56.861 24.6175 57.1204 25.0094C57.5864 25.7338 58.2466 26.0451 58.9789 26.0499C59.5615 26.0587 59.8563 25.9682 60.4846 25.7337C60.9959 25.5442 61.4063 25.2956 61.7213 25.0706C61.9052 24.9425 61.9374 25.1567 61.933 25.1894C61.6501 26.7065 61.9993 28.504 63.5084 29.2493C65.3144 30.139 67.2985 28.8885 68.4401 27.7597C68.5519 27.651 68.6717 27.6625 68.6832 27.897C68.7097 28.328 68.9024 28.8394 69.2593 29.1974C70.216 30.1566 72.1465 29.7765 74.0839 28.2782C75.3278 27.319 76.6293 25.9637 77.805 24.5286C77.8492 24.473 77.881 24.3838 77.7961 24.2933C77.6171 24.106 77.3581 23.8918 77.1806 23.7269C77.0997 23.658 76.9808 23.6779 76.9127 23.7293C75.7076 24.8744 74.6228 26.1802 73.0551 27.2601C72.5262 27.6289 71.6835 27.9264 71.305 27.4143C71.1574 27.2156 71.1742 26.9408 71.3183 26.5801C71.7754 25.4412 79.0127 14.4323 79.3884 13.783" fill="white"/>
<path d="M45.339 15.1147C45.37 15.2781 45.4337 15.3099 45.5079 15.2962C45.8765 15.2224 46.28 14.9195 46.5188 14.5683C46.7363 14.2499 46.8384 13.7904 46.6222 13.6063C46.4295 13.4407 46.1157 13.4875 45.8831 13.6928C45.4198 14.1018 45.2792 14.682 45.3389 15.115M26.8931 29.2859C24.1946 29.3036 21.8173 27.6386 21.5445 24.7542C21.3929 23.1559 21.8451 21.7315 22.7503 20.5579C23.5536 19.5122 24.9129 18.6435 26.0634 18.4313C26.4378 18.3628 26.9408 18.4048 27.1488 18.6538C27.475 19.0332 27.3812 19.4499 27.055 19.6162C26.1773 20.0639 25.1211 20.8305 24.5984 21.8772C24.1746 22.7315 24.0889 23.7611 24.7364 24.742C25.82 26.3766 28.8407 26.4216 31.6494 23.8146C32.3449 23.1766 32.9674 22.5636 33.6001 21.8374C34.8372 20.4243 35.2486 19.9093 36.893 17.6305C36.9106 17.604 36.9195 17.5695 36.9106 17.5527C36.8974 17.5218 36.8753 17.5174 36.8263 17.5129C35.7285 17.5439 34.7715 17.8703 33.8412 18.5648C33.5734 18.76 33.1878 18.7326 33.019 18.4756C32.8312 18.185 32.966 17.8067 33.275 17.5931C34.7714 16.5533 36.4061 16.3647 38.0755 16.0832C38.0742 16.0832 38.1914 16.0876 38.2868 15.9622C38.9721 15.0835 39.4896 14.2909 40.2201 13.4022C40.9562 12.5006 41.907 11.6726 42.6334 11.0507C43.6474 10.1796 44.2978 9.88643 44.9586 9.52714C45.1328 9.43617 44.9365 9.32755 44.8835 9.32755C41.1937 8.63466 37.3583 7.73806 33.6939 9.09345C31.156 10.0397 30.0438 12.0505 30.5787 13.3941C30.9593 14.3472 32.2139 14.5021 33.3885 13.9278C34.364 13.4503 35.2668 12.6806 35.9068 11.6898C36.2648 11.1395 37.0193 11.5365 36.6116 12.492C35.5393 15.0101 33.4907 17.0076 30.9953 17.0919C28.8716 17.1608 27.5014 15.5999 27.5059 13.6741C27.5147 9.87582 31.7469 7.37379 36.1947 6.99975C41.5512 6.55747 46.6246 7.98302 51.943 8.62755C56.0178 9.12057 59.9246 9.13083 64.0203 8.19077C64.5045 8.08566 64.8442 8.39434 64.8127 8.88294C64.7729 9.58921 64.2252 10.2694 62.8763 11.0045C61.3421 11.8451 59.7371 12.1002 58.0609 12.1139C54.0077 12.1492 50.232 10.5691 46.325 9.72087C46.3294 9.89177 46.3745 10.0953 46.2313 10.2032C44.0671 11.7981 42.1109 13.4177 40.8008 15.6925C40.7566 15.745 40.7786 15.795 40.8569 15.7897C41.9944 15.7292 43.0174 15.7 44.0794 15.6152C44.265 15.5975 44.272 15.5534 44.2557 15.4182C44.1615 14.6342 44.3909 13.74 45.0813 13.125C45.7878 12.4921 46.6724 12.4201 47.2589 12.8759C47.9256 13.395 47.8666 14.3285 47.502 15.0286C47.1307 15.7389 46.5175 16.1189 45.929 16.3033C45.929 16.3033 45.8053 16.3298 45.8238 16.442C45.8459 16.6213 46.6488 17.0652 46.7174 17.1835C46.7837 17.2961 46.7484 17.4706 46.6277 17.6044C46.5428 17.7015 46.4098 17.7925 46.2396 17.7894C46.1021 17.7867 46.0186 17.7391 45.8427 17.6441C45.4829 17.4494 45.0333 17.1292 44.7333 16.7517C44.6312 16.6241 44.579 16.6215 44.324 16.6356C43.1748 16.7018 41.3829 16.875 40.1689 17.0264C39.8745 17.0618 39.8312 17.1178 39.7706 17.2198C37.8349 20.4089 35.7682 23.848 33.4989 26.1505C31.065 28.6193 29.0419 29.2693 26.8941 29.2861" fill="white"/>
<path d="M50.3584 3.61154C25.1252 3.61154 4.67177 10.5781 4.67177 19.1028C4.67177 27.6282 25.1252 34.5954 50.3584 34.5954C75.5912 34.5954 96.0433 27.6282 96.0433 19.1028C96.0433 10.5781 75.5912 3.61154 50.3584 3.61154ZM50.3584 35.9993C24.2066 35.9993 3.00684 28.4346 3.00684 19.1028C3.00684 9.76969 24.2066 2.2063 50.3584 2.2063C76.5078 2.2063 97.7062 9.76969 97.7062 19.1028C97.7062 28.4346 76.5078 35.9993 50.3584 35.9993Z" fill="white"/>
</g>
<defs>
<clipPath id="clip0_45_2858">
<rect width="100" height="38.1944" fill="white" transform="translate(0.359375)"/>
</clipPath>
</defs>
</svg>
