<svg width="81" height="40" viewBox="0 0 81 40" fill="none" xmlns="http://www.w3.org/2000/svg">
<g style="mix-blend-mode:luminosity" clip-path="url(#clip0_45_2611)">
<path d="M8.30776 7.79921C8.66495 6.99626 8.97175 6.34411 11.2193 6.34411H24.1941C24.9095 6.34411 25.6242 5.99277 25.6242 4.99007V1.42955C25.6242 1.02587 26.0333 0.473467 27.1057 0.473467H53.9751C54.7409 0.473467 55.3548 0.875332 55.3548 1.82855V4.63873C55.3548 5.39089 55.712 6.19357 56.8358 6.19357H78.3923C79.1581 6.19357 80.1798 6.39359 79.7205 7.34786C79.2602 8.30004 72.2626 22.2436 71.788 23.1752C71.6058 23.5323 71.4639 24.0084 70.0471 24.0084H56.796C56.1678 24.0084 55.1358 24.0084 55.1358 25.2015V28.52C55.1358 28.9972 54.7722 29.7131 53.6185 29.7131H27.0333C26.2033 29.7131 25.5966 29.2943 25.5966 28.4802V25.5585C25.5966 24.9225 25.2521 23.9894 24.2814 23.9894H1.96515C1.25635 23.9894 0.588917 23.4523 1.01399 22.42C1.43905 21.3857 8.30776 7.79921 8.30776 7.79921Z" fill="#C7D6EE"/>
<path d="M2.71973 20.8687L3.33996 20.8705L9.43729 8.95522L8.81679 8.9534L2.71973 20.8687Z" fill="url(#paint0_linear_45_2611)"/>
<path d="M24.3341 22.5513H3.46254C2.73438 22.5513 2.47902 22.2247 2.76249 21.6687C4.34291 18.5814 9.53998 8.42853 9.67469 8.15897C9.83273 7.84201 10.2154 7.45447 10.922 7.45447H24.9278C26.3807 7.45447 26.6284 6.83071 26.6284 5.70404V2.34849C26.6284 1.89714 26.933 1.59711 27.4692 1.59711H53.1215C53.8104 1.59711 54.1157 1.82083 54.1157 2.27218V4.75108C54.1157 5.728 53.9276 7.30472 56.1445 7.30472H77.3414C78.2934 7.30472 78.5405 7.93525 78.0367 8.93327C76.1609 12.6498 71.545 21.4619 71.4016 21.7609C71.2197 22.1409 70.6551 22.4753 69.7533 22.4753H55.8395C54.6916 22.4753 53.5453 23.2264 53.5453 24.3538V27.2174C53.5453 27.7391 53.2263 28.1086 52.6591 28.1086H27.7683C26.9983 28.1086 26.7045 27.6802 26.7045 27.1088V24.5036C26.7045 23.6027 26.0927 22.5513 24.3341 22.5513Z" fill="#E9CF98"/>
<path d="M52.168 21.8791L55.0915 24.8718C55.0915 24.8718 55.3002 24.2158 56.0928 24.053L52.819 21.0535C52.819 21.0535 52.2931 21.3457 52.168 21.8791Z" fill="white"/>
<path d="M24.4023 24.0111C24.4023 24.0111 25.5717 24.053 25.5717 25.5698L28.2855 21.6324L27.534 21.0991L24.4023 24.0111Z" fill="white"/>
<path d="M53.2471 9.10168L56.3298 6.15061C56.3298 6.15061 55.9118 6.10034 55.4931 5.43283L52.4365 8.48652L53.2471 9.10168Z" fill="white"/>
<path d="M51.9141 3.07214L54.762 0.686742C54.762 0.686742 55.0757 0.865667 55.2062 1.14851L52.2278 3.84253L51.9141 3.07214Z" fill="white"/>
<path d="M25.6445 1.55034C25.6445 1.05628 26.1118 0.473409 26.8768 0.473409L29.0374 3.09685C29.0374 3.09685 28.3906 3.09685 28.2891 3.33099C28.1862 3.56539 28.0844 4.06726 28.0844 4.06726L25.6445 1.55034Z" fill="white"/>
<path d="M24.7119 6.27548C24.7119 6.27548 25.6352 6.13172 25.6352 5.16235L27.777 7.63734L26.4119 8.60645L24.7119 6.27548Z" fill="white"/>
<path d="M40.5486 0.473528L40.4502 1.60203H52.792C53.1969 1.60203 53.4247 1.70204 53.5775 2.00024L54.9441 0.806894C54.9441 0.806894 54.6007 0.473528 53.9752 0.473528H40.5486Z" fill="url(#paint1_linear_45_2611)"/>
<path d="M26.8764 0.473468C26.5473 0.473468 26.1673 0.63338 25.9658 0.881061L26.8515 1.82568C26.8515 1.82568 27.0284 1.60197 27.7372 1.60197H40.4502L40.5486 0.473468H26.8764Z" fill="url(#paint2_linear_45_2611)"/>
<path d="M25.6442 1.55062V4.99003C25.6442 5.52993 25.5342 5.66224 25.5342 5.66224L26.5113 6.68213C26.5113 6.68213 26.6511 6.33001 26.6511 6.11359V2.70568C26.6511 2.49056 26.6707 2.17699 26.6707 2.17699L25.7532 1.06099C25.7532 1.06099 25.6442 1.25606 25.6442 1.55062Z" fill="url(#paint3_linear_45_2611)"/>
<path d="M54.1359 2.07227C54.1359 2.07227 54.1094 2.47231 54.1094 2.68744C54.1094 2.90256 54.1359 5.8078 54.1359 6.02345C54.1359 6.23857 54.4549 6.63757 54.4549 6.63757L55.6243 5.62132C55.6243 5.62132 55.3469 5.5299 55.3469 4.99001V1.5506C55.3469 1.25604 55.1016 1.06096 55.1016 1.06096L54.1359 2.07227Z" fill="url(#paint4_linear_45_2611)"/>
<path d="M24.2686 6.348C23.9021 6.348 11.3115 6.36232 10.6407 6.36232C9.66723 6.36232 9.09473 6.78398 9.09473 6.78398L9.89554 7.84216C9.89554 7.84216 10.2159 7.45436 10.9228 7.45436H25.1298C25.6246 7.45436 25.9964 7.23455 25.9964 7.23455L25.0681 6.13939C25.0681 6.13939 24.6122 6.348 24.2686 6.348Z" fill="url(#paint5_linear_45_2611)"/>
<path d="M2.34364 21.761L0.891833 22.7608C0.891833 22.7608 0.776745 23.1742 0.993655 23.5008C1.21109 23.8263 1.54309 23.8768 1.54309 23.8768L3.43269 22.5512C3.43269 22.5512 2.36326 22.5017 2.80822 21.7237C3.25317 20.9458 3.22904 20.6525 3.22904 20.6525C3.22904 20.6525 2.70984 20.7364 2.34364 21.761Z" fill="url(#paint6_linear_45_2611)"/>
<path d="M6.33008 11.9691C5.17235 14.3095 1.28389 21.8277 1.14786 22.0962C1.01156 22.3637 0.875 22.8314 0.875 22.8314L2.37348 21.761L9.39492 8.02211C9.39492 8.02211 7.48808 9.62748 6.33008 11.9691Z" fill="url(#paint7_linear_45_2611)"/>
<path d="M3.46304 22.5837L1.53711 23.9445C1.53711 23.9445 23.4747 23.9976 24.0289 23.9976C24.5823 23.9976 24.8148 24.1016 24.8148 24.1016L25.8029 22.9988C25.8029 22.9988 24.8591 22.5837 24.3349 22.5837H3.46304Z" fill="url(#paint8_linear_45_2611)"/>
<path d="M25.377 24.7045C25.377 24.7045 25.579 25.1032 25.579 25.4215V28.2705C25.579 28.6781 25.7408 29.0315 25.7408 29.0315L26.7047 27.9163V24.5034C26.7047 23.9588 26.3989 23.5007 26.3989 23.5007L25.377 24.7045Z" fill="url(#paint9_linear_45_2611)"/>
<path d="M53.543 24.1511V27.5639L55.0555 28.8638C55.0555 28.8638 55.0931 28.5171 55.0931 28.1106V25.2603C55.0931 24.9425 55.1868 24.7425 55.1868 24.7425L53.8644 23.4437C53.8644 23.4437 53.543 23.6054 53.543 24.1511Z" fill="url(#paint10_linear_45_2611)"/>
<path d="M52.4109 28.1334H40.5186V29.7188H53.6782C54.1255 29.7188 54.6471 29.4265 54.7463 29.3523L53.255 27.9631C53.255 27.9631 53.1566 28.1334 52.4109 28.1334Z" fill="url(#paint11_linear_45_2611)"/>
<path d="M26.1943 29.5208C26.1943 29.5208 26.5006 29.7341 27.3566 29.7341C28.2118 29.7341 40.5186 29.7188 40.5186 29.7188V28.1334H27.8164C27.5865 28.1334 27.4327 28.0915 27.4327 28.0915L26.1943 29.5208Z" fill="url(#paint12_linear_45_2611)"/>
<path d="M29.6105 3.06454C28.9215 3.06454 28.2337 3.44062 28.2337 4.192V7.87258C28.2337 8.62292 27.7744 8.92372 27.2393 8.92372H12.0106C11.3919 8.92372 10.9133 9.17714 10.6383 9.68839C10.4132 10.1085 6.61011 17.5949 5.38105 20.0144C5.11455 20.5392 5.34737 20.8583 6.03125 20.8583H27.3165C28.2337 20.8583 28.387 21.6849 28.387 22.5105V25.3707C28.387 25.8976 28.9218 26.4984 29.5338 26.4984H40.2417V3.06454H29.6105Z" fill="url(#paint13_linear_45_2611)"/>
<path d="M54.5449 22.8979L55.7711 24.1357C55.7711 24.1357 56.0771 23.9693 57.5079 23.9693H70.5848C70.8566 23.9693 71.2313 23.8352 71.2313 23.8352L64.3188 22.464C64.3188 22.464 56.3157 22.4694 55.9413 22.464C55.9273 22.4637 55.9132 22.4634 55.8991 22.4634C55.0877 22.4634 54.5449 22.8979 54.5449 22.8979Z" fill="url(#paint14_linear_45_2611)"/>
<path d="M55.0059 7.08581C55.0059 7.08581 55.6036 7.28192 56.0917 7.28192H76.6814C77.308 7.28192 77.6737 7.32776 77.6737 7.32776L79.3376 6.3537C79.3376 6.3537 78.8036 6.20395 78.2698 6.20395H56.8864C56.3521 6.20395 56.1294 6.08128 56.1294 6.08128L55.0059 7.08581Z" fill="url(#paint15_linear_45_2611)"/>
<path d="M78.2796 7.85444C78.2796 7.85444 78.3738 8.36751 78.1958 8.71624C78.0184 9.06472 71.7952 21.086 71.5144 21.6381C71.2325 22.1897 70.5977 22.3934 70.5977 22.3934L71.3067 23.7863C71.3067 23.7863 71.5581 23.5987 71.7063 23.4094C71.854 23.2208 79.5114 7.91721 79.7482 7.38043C79.9842 6.84314 79.7768 6.64885 79.7768 6.64885L78.2796 7.85444Z" fill="url(#paint16_linear_45_2611)"/>
<path d="M69.9372 22.497C69.12 22.497 64.5225 22.5314 64.5225 22.5314L71.0608 23.8352C71.0608 23.8352 71.4697 23.6693 71.6741 23.3333C71.8788 22.9989 71.6736 22.8989 71.4355 23.0992C71.1976 23.301 70.789 22.9666 70.9926 22.7322C71.1976 22.4971 71.4012 21.761 71.4012 21.761C71.4012 21.761 70.755 22.497 69.9372 22.497Z" fill="url(#paint17_linear_45_2611)"/>
<path d="M9.11235 21.462C4.83038 21.7428 3.46289 22.5379 3.46289 22.5379H23.9107C26.236 22.5379 25.9706 22.8502 25.9576 22.8642L27.6223 21.1351C27.6223 21.1351 23.5779 21.1351 21.0084 21.0888C20.6817 21.0828 20.3153 21.0799 19.9151 21.0799C17.1688 21.0799 12.8502 21.2174 9.11235 21.462ZM25.957 22.8647C25.957 22.8647 25.9573 22.8645 25.9576 22.8642L25.957 22.8647Z" fill="url(#paint18_linear_45_2611)"/>
<path d="M57.3419 21.0887C55.5226 21.1351 52.6582 21.1351 52.6582 21.1351L54.5672 22.9006C54.5672 22.9006 54.7637 22.4876 56.448 22.4876C58.1334 22.4876 70.2788 22.4464 70.2788 22.4464C70.2788 22.4464 70.4835 21.7943 66.9074 21.5437C64.0902 21.3461 59.839 21.0838 57.7839 21.0838C57.6225 21.0838 57.4748 21.0853 57.3419 21.0887Z" fill="url(#paint19_linear_45_2611)"/>
<path d="M53.0146 9.10837C53.0146 9.10837 55.8795 9.10837 57.6994 9.15499C59.5187 9.20161 70.548 8.71041 73.5818 8.42965C76.6148 8.14942 77.5827 7.35455 77.5827 7.35455C77.5827 7.35455 58.2984 7.4556 56.6135 7.4556C54.9297 7.4556 55.1647 7.1277 55.1647 7.1277L53.0146 9.10837Z" fill="url(#paint20_linear_45_2611)"/>
<path d="M26.501 23.5512C26.501 23.5512 26.7054 24.2026 26.7054 24.7045V26.9622C26.7054 27.5639 26.9101 27.8657 26.9101 27.8657L28.6467 26.1593C28.6467 26.1593 28.3874 25.5577 28.3874 25.1061V22.5608C28.3874 21.9722 28.2378 21.4935 28.2378 21.4935L26.501 23.5512Z" fill="url(#paint21_linear_45_2611)"/>
<path d="M51.9843 22.5464C51.9843 23.135 51.9437 24.7099 51.9437 25.1623C51.9437 25.6126 51.8379 26.1593 51.8379 26.1593L53.5745 27.8657C53.5745 27.8657 53.7795 27.5639 53.7795 26.9622V24.7045C53.7795 24.2026 53.9839 23.5512 53.9839 23.5512L52.124 21.4458C52.124 21.4458 51.9843 21.9591 51.9843 22.5464Z" fill="url(#paint22_linear_45_2611)"/>
<path d="M27.4717 28.0658L40.1397 28.1658L40.1908 28.1647V26.4984L29.1571 26.4593L27.4717 28.0658Z" fill="url(#paint23_linear_45_2611)"/>
<path d="M40.2413 26.4985H40.1904V28.1648L53.2161 28.0163L51.1221 26.4594L40.2413 26.4985Z" fill="url(#paint24_linear_45_2611)"/>
<path d="M27.6427 1.59264C27.285 1.59264 26.9541 1.78198 26.9541 1.78198L28.6332 3.40454C28.6332 3.40454 28.7986 3.05216 29.9818 3.05216H40.2418V1.59264H27.6427Z" fill="url(#paint25_linear_45_2611)"/>
<path d="M40.2422 1.59256V3.05208H50.5019C51.6851 3.05208 51.9301 3.55786 51.9301 3.55786L53.6086 1.93609C53.6086 1.93609 53.1992 1.59256 52.8415 1.59256H40.2422Z" fill="url(#paint26_linear_45_2611)"/>
<path d="M26.6337 3.0101V5.95648C26.6337 6.306 26.4775 6.7201 26.4775 6.7201L28.1219 8.5531C28.1219 8.5531 28.233 8.40074 28.233 7.63739C28.233 6.87351 28.2993 3.8844 28.2993 3.8844L26.6555 2.07329C26.6555 2.07329 26.6337 2.55224 26.6337 3.0101Z" fill="url(#paint27_linear_45_2611)"/>
<path d="M51.998 3.91956V7.58296C51.998 8.34658 52.3619 8.5531 52.3619 8.5531L54.3713 6.56489C54.3713 6.56489 54.1093 6.14895 54.1093 5.80048C54.1093 5.45096 54.0924 3.3208 54.0924 2.86268C54.0924 2.40456 54.1128 1.98083 54.1128 1.98083L51.998 3.91956Z" fill="url(#paint28_linear_45_2611)"/>
<path d="M25.2748 7.49521H11.1767C10.7681 7.49521 10.1036 7.64575 9.89941 7.84681L11.1767 9.15137C11.1767 9.15137 11.5339 8.90082 12.4026 8.90082H27.0626C27.4717 8.90082 27.8798 8.7495 27.8798 8.7495L26.2458 7.09439C26.2458 7.09439 25.8367 7.49521 25.2748 7.49521Z" fill="url(#paint29_linear_45_2611)"/>
<path d="M69.1855 20.9135C69.1855 20.9135 69.975 20.622 70.2218 21.543C70.2218 21.543 70.4189 21.8344 70.9617 21.058C71.5042 20.2832 76.636 9.91497 76.5854 9.76834C76.5358 9.62354 75.4998 9.42925 75.4998 9.42925L69.1855 20.9135Z" fill="url(#paint30_linear_45_2611)"/>
<path d="M75.6479 9.5274C75.8953 9.67221 76.1416 9.86649 75.7964 10.5929C75.4514 11.3185 71.5043 18.8783 70.6661 20.3313C69.8274 21.7846 70.5664 22.3665 70.5664 22.3665C70.5664 22.3665 71.2087 22.075 71.4014 21.7609C71.5958 21.4458 77.6221 9.72065 78.0368 8.93333C78.4518 8.14575 78.1638 7.83061 78.1638 7.83061L75.6479 9.5274Z" fill="url(#paint31_linear_45_2611)"/>
<path d="M40.2422 3.06454V26.4984H50.7923C51.4035 26.4984 51.9391 26.2729 51.9391 25.5957V22.1008C51.9391 21.425 52.3973 20.9002 52.9332 20.9002H68.8485C69.4072 20.9002 69.9086 20.5793 70.1998 20.0509C71.5002 17.6892 75.0819 10.8403 75.3529 10.2882C75.6835 9.61416 75.4788 9.22375 74.7122 9.22375H53.6214C52.7041 9.22375 52.0147 8.54843 52.0147 7.72204V3.89118C52.0147 3.36535 51.7092 3.06454 51.0211 3.06454H40.2422Z" fill="url(#paint32_linear_45_2611)"/>
<path d="M3.29004 21.8857L5.33185 20.6697C5.33185 20.6697 5.09797 20.5697 5.4655 19.847C5.83355 19.1243 9.28103 12.2204 9.28103 12.2204L8.51177 12.0569L3.29004 21.8857Z" fill="url(#paint33_linear_45_2611)"/>
<path d="M3.10505 20.9917C2.59407 21.8952 2.69696 22.2457 2.69696 22.2457L3.92258 21.443C3.92258 21.443 9.388 11.0579 9.9499 9.85333C10.5121 8.64956 9.67439 8.15915 9.67439 8.15915C9.67439 8.15915 3.61604 20.089 3.10505 20.9917Z" fill="url(#paint34_linear_45_2611)"/>
<path d="M3.93242 22.5808C3.85128 22.6342 3.10429 22.7246 2.95845 22.5808C2.81207 22.4381 2.56785 22.3266 2.76302 22.1667C2.95845 22.0066 5.36089 20.6041 5.36089 20.6041C5.36089 20.6041 5.0692 20.7632 7.53767 20.7632H27.2844C27.8041 20.7632 28.291 21.1135 28.3562 21.3372C28.4214 21.5609 28.2912 21.6563 28.129 21.6248C27.9672 21.5925 27.5443 21.4648 27.4469 21.3049C27.3496 21.1458 27.5769 21.0182 26.1476 21.0182C24.7186 21.0182 13.806 21.1781 11.3381 21.401C8.86962 21.6248 5.62076 21.4648 3.93242 22.5808Z" fill="white"/>
<path d="M76.8697 7.39634C76.9506 7.34399 77.6984 7.25362 77.8442 7.39634C77.9901 7.54011 78.2343 7.65158 78.0391 7.81149C77.8442 7.97062 75.441 9.37415 75.441 9.37415C75.441 9.37415 75.7324 9.21501 73.2645 9.21501H53.5172C52.9975 9.21501 52.5106 8.86472 52.4459 8.641C52.3807 8.41702 52.5104 8.32091 52.6721 8.35347C52.8355 8.38576 53.2574 8.51338 53.3552 8.67225C53.4525 8.83242 53.2247 8.959 54.6543 8.959C56.0838 8.959 66.995 8.80013 69.4646 8.57719C71.9323 8.35347 75.1814 8.51338 76.8697 7.39634Z" fill="white"/>
<path d="M10.3076 9.24182C10.3076 9.01602 10.4352 8.58967 10.3334 8.46492C10.231 8.33913 10.5375 8.18859 10.742 8.31334C10.9462 8.43914 11.3802 8.53915 11.4312 8.63994C11.4823 8.73995 11.4057 8.9905 11.1249 9.09129C10.8438 9.1913 10.5885 9.4171 10.1544 10.3445C9.72002 11.2738 7.24226 15.9894 7.24226 15.9894C7.24226 15.9894 7.60024 15.2372 7.44698 15.2114C7.29371 15.1867 6.93652 15.8141 6.93652 15.8141L10.3076 9.24182Z" fill="white"/>
<path d="M27.3857 8.79809C27.1743 8.81893 27.1152 8.59156 27.2955 8.56187C27.4769 8.53218 27.7169 8.51812 27.9272 7.70475C28.1385 6.89165 27.9882 4.42447 27.9577 3.98146C27.9272 3.53793 27.7172 3.00636 28.0184 2.77014C28.3188 2.53314 28.5296 3.03605 29.3122 3.03605C30.0941 3.03605 31.8697 2.97693 31.8697 2.97693C31.8697 2.97693 29.3723 3.15325 28.9505 3.21315C28.5294 3.27227 28.1682 3.59679 28.2281 4.18825C28.2889 4.77946 28.1385 7.82377 28.0184 8.14855C27.8977 8.47332 27.6867 8.7684 27.3857 8.79809Z" fill="white"/>
<path d="M44.2346 2.99515C43.9034 3.01026 50.579 3.07224 50.9999 3.07224C51.4212 3.07224 51.9025 3.19778 51.9932 3.6111C52.0834 4.02547 52.0195 5.38159 52.0195 5.38159C52.0195 5.38159 52.2268 3.64079 52.5278 3.31602C52.8285 2.9902 52.7383 2.51802 52.3472 2.60553C51.9558 2.69512 48.8578 2.79045 44.2346 2.99515Z" fill="white"/>
<path d="M53.149 21.1126C52.939 21.0821 52.6987 21.0534 52.638 21.2305C52.5778 21.4066 52.908 21.5248 52.5778 21.7009C52.2485 21.878 52.0029 21.9866 52.0029 21.8392C52.0029 21.6915 52.1732 20.9344 52.8037 20.9344C53.4341 20.9344 68.9945 20.905 69.2361 20.905C69.4753 20.905 69.776 20.9344 69.8956 21.1706C70.0154 21.4066 70.1652 21.9962 70.2559 22.1733C70.3456 22.3504 70.1957 22.3504 69.9253 21.9962C69.6553 21.642 68.9653 21.4954 68.4255 21.5248C67.8848 21.5543 53.149 21.1126 53.149 21.1126Z" fill="white"/>
<path d="M70.3156 21.6134C70.3156 21.6134 70.1658 21.2897 70.0757 21.0821C69.9855 20.8763 69.7158 20.7888 69.7158 20.7888C69.7158 20.7888 70.0155 20.4336 70.4355 19.6679C70.8561 18.9025 72.8369 15.2458 73.0469 14.7447C73.0469 14.7447 72.5964 16.1019 73.4672 14.981C73.4672 14.981 70.6458 20.2271 70.4655 20.5813C70.2859 20.9355 70.3156 21.6134 70.3156 21.6134Z" fill="white"/>
<path d="M28.5743 25.7394C28.5743 25.7394 28.6101 26.1631 28.3595 26.3392C28.1084 26.5155 28.0007 26.8325 28.216 26.9736C28.4314 27.1145 28.5748 27.0439 28.7183 26.8325C28.8617 26.6212 29.3645 26.4449 29.6872 26.5155C29.6872 26.5155 28.5743 26.6554 28.5743 25.7394Z" fill="white"/>
<path d="M44.041 26.4946C44.041 26.4946 50.0975 26.8079 50.4563 26.8241C50.814 26.8402 51.0662 26.8517 51.0662 26.8517C51.0662 26.8517 50.4234 26.7517 50.6135 26.5488L44.041 26.4946Z" fill="white"/>
<path d="M51.2194 26.4451C51.2194 26.4451 51.0401 26.7269 51.327 26.867C51.6145 27.0079 51.9019 27.1488 52.0812 26.9373C52.2602 26.7261 51.9377 26.1622 51.9732 25.7747C51.9732 25.7747 52.1167 26.3745 51.2194 26.4451Z" fill="white"/>
<path d="M58.6064 26.9555H58.271V27.5137H58.6064C58.7772 27.5137 58.8278 27.447 58.8278 27.3373V27.1308C58.8278 26.9899 58.761 26.9555 58.6064 26.9555ZM58.6064 27.6944H58.271V28.1536H58.0668V26.7717H58.6064C58.9119 26.7717 59.032 26.905 59.032 27.1308V27.3373C59.032 27.4871 58.9793 27.5879 58.8278 27.6546L59.2065 28.1536H58.9647L58.6064 27.6944ZM58.5436 28.5744C59.2638 28.5744 59.6419 28.0895 59.6419 27.4944C59.6419 26.8993 59.2638 26.407 58.5436 26.407C57.8226 26.407 57.4357 26.8993 57.4357 27.4944C57.4357 28.0895 57.8226 28.5744 58.5436 28.5744ZM58.5436 26.2242C59.3417 26.2242 59.8291 26.7909 59.8291 27.4918C59.8291 28.183 59.3417 28.7581 58.5436 28.7581C57.7406 28.7581 57.249 28.183 57.249 27.4918C57.249 26.7909 57.7406 26.2242 58.5436 26.2242Z" fill="white"/>
<path d="M17.4885 35.334H15.2599V32.5484H13.1094V39.4736H15.2599V36.4876H17.4885V39.4736H19.6412V32.5484H17.4885V35.334Z" fill="white"/>
<path d="M57.0526 38.3206V32.5479H54.9014V39.4731H60.1312V38.3206H57.0526Z" fill="white"/>
<path d="M69.2822 32.5481V33.703H71.2399V39.4734H73.3902V33.703H75.3494V32.5481H69.2822Z" fill="white"/>
<path d="M5.34961 33.9898C5.34961 33.1243 5.88193 32.5479 6.6804 32.5479H10.9944V33.7018H7.9016C7.66112 33.7018 7.50299 33.8767 7.50299 34.1352V37.8859C7.50299 38.1464 7.66112 38.3206 7.9016 38.3206H10.9944V39.4731H6.6804C5.88193 39.4731 5.34961 38.8954 5.34961 38.0309V33.9898Z" fill="white"/>
<path d="M42.767 36.664L44.6267 39.4734H42.3399L40.6935 36.6167V35.7139H41.5821C41.8217 35.7139 41.9811 35.5386 41.9811 35.2805V34.1354C41.9811 33.8769 41.8217 33.703 41.5821 33.703H40.0772V39.4734H37.9248V32.5481H42.8024C43.6034 32.5481 44.1329 33.1246 44.1329 33.9901L44.1351 35.3898C44.1351 36.1524 43.6663 36.664 42.9599 36.664H42.767Z" fill="white"/>
<path d="M50.2254 38.3206C50.4634 38.3206 50.6237 38.1467 50.6237 37.8872V34.1352C50.6237 33.877 50.4634 33.7018 50.2254 33.7018H48.7249C48.4857 33.7018 48.325 33.877 48.325 34.1352V37.8872C48.325 38.1467 48.4857 38.3206 48.7249 38.3206H50.2254ZM46.1738 33.9898C46.1738 33.1243 46.7043 32.5479 47.5034 32.5479H51.4453C52.2432 32.5479 52.7768 33.1243 52.7768 33.9898V38.0312C52.7768 38.8957 52.2432 39.4731 51.4453 39.4731H47.5034C46.7043 39.4731 46.1738 38.8957 46.1738 38.0312V33.9898Z" fill="white"/>
<path d="M29.2148 32.5481H31.5223L32.8991 37.9021C32.9094 37.9506 32.9448 37.9792 32.9946 37.9792C33.0435 37.9792 33.0817 37.9506 33.0907 37.9021L34.4294 32.5481H36.2352L34.5671 38.4911C34.3652 39.1677 34.0004 39.4734 33.2345 39.4734H32.1608C31.6682 39.4734 31.2665 39.2237 31.025 38.486L29.2148 32.5481Z" fill="white"/>
<path d="M23.9672 38.1024C23.9672 38.2352 24.0468 38.3198 24.1676 38.3198H27.7035V39.4736H23.1453C22.3471 39.4736 21.8154 38.8958 21.8154 38.0327V33.9903C21.8154 33.1248 22.3471 32.5484 23.1453 32.5484H27.7035V33.7033H24.1676C24.0468 33.7033 23.9672 33.7892 23.9672 33.9196V35.333H27.2977V36.4879H23.9672V38.1024Z" fill="white"/>
<path d="M63.7819 38.1021C63.7819 38.2349 63.8608 38.3195 63.9794 38.3195H67.5172V39.4734H62.9586C62.1608 39.4734 61.626 38.8956 61.626 38.0325V33.9901C61.626 33.1246 62.1608 32.5481 62.9586 32.5481H67.5172V33.703H63.9794C63.8608 33.703 63.7819 33.789 63.7819 33.9194V35.3328H67.1101V36.4877H63.7819V38.1021Z" fill="white"/>
</g>
<defs>
<linearGradient id="paint0_linear_45_2611" x1="9.0231" y1="9.15717" x2="8.99185" y2="20.9344" gradientUnits="userSpaceOnUse">
<stop stop-color="#C7D6EE"/>
<stop offset="0.185394" stop-color="#91AFC8"/>
<stop offset="1" stop-color="#002334"/>
</linearGradient>
<linearGradient id="paint1_linear_45_2611" x1="43.7507" y1="-2.67159" x2="50.9857" y2="4.69471" gradientUnits="userSpaceOnUse">
<stop stop-color="#E1E8F5"/>
<stop offset="0.89888" stop-color="#92A5C1"/>
<stop offset="0.955063" stop-color="#476886"/>
<stop offset="1" stop-color="#E1E8F5"/>
</linearGradient>
<linearGradient id="paint2_linear_45_2611" x1="29.7305" y1="4.65342" x2="37.1318" y2="-2.88226" gradientUnits="userSpaceOnUse">
<stop stop-color="#E1E8F5"/>
<stop offset="0.0393219" stop-color="#476886"/>
<stop offset="0.0898895" stop-color="#92A5C1"/>
<stop offset="1" stop-color="#E1E8F5"/>
</linearGradient>
<linearGradient id="paint3_linear_45_2611" x1="24.903" y1="4.99764" x2="27.3159" y2="2.70676" gradientUnits="userSpaceOnUse">
<stop stop-color="#E1E8F5"/>
<stop offset="0.157303" stop-color="#C7D6EE"/>
<stop offset="1" stop-color="#E1E8F5"/>
</linearGradient>
<linearGradient id="paint4_linear_45_2611" x1="56.131" y1="5.08766" x2="53.5762" y2="2.66201" gradientUnits="userSpaceOnUse">
<stop stop-color="#E1E8F5"/>
<stop offset="0.157303" stop-color="#C7D6EE"/>
<stop offset="1" stop-color="#E1E8F5"/>
</linearGradient>
<linearGradient id="paint5_linear_45_2611" x1="13.2966" y1="11.1825" x2="21.5977" y2="2.73076" gradientUnits="userSpaceOnUse">
<stop stop-color="#476886"/>
<stop offset="0.129211" stop-color="#92A5C1"/>
<stop offset="1" stop-color="#E1E8F5"/>
</linearGradient>
<linearGradient id="paint6_linear_45_2611" x1="2.7049" y1="22.9096" x2="1.73807" y2="21.5037" gradientUnits="userSpaceOnUse">
<stop stop-color="#002334"/>
<stop offset="0.106735" stop-color="white"/>
<stop offset="0.185394" stop-color="#91AFC8"/>
<stop offset="0.241577" stop-color="#002334"/>
<stop offset="0.533707" stop-color="#5E738F"/>
<stop offset="0.758423" stop-color="#002334"/>
<stop offset="1" stop-color="#002334"/>
</linearGradient>
<linearGradient id="paint7_linear_45_2611" x1="9.77828" y1="13.1057" x2="2.207" y2="17.0288" gradientUnits="userSpaceOnUse">
<stop stop-color="#91AFC8"/>
<stop offset="1" stop-color="#002334"/>
</linearGradient>
<linearGradient id="paint8_linear_45_2611" x1="13.9298" y1="24.9181" x2="13.3651" y2="21.657" gradientUnits="userSpaceOnUse">
<stop stop-color="#A5B9CC"/>
<stop offset="1" stop-color="#002334"/>
</linearGradient>
<linearGradient id="paint9_linear_45_2611" x1="25.6163" y1="26.2661" x2="26.5881" y2="26.2661" gradientUnits="userSpaceOnUse">
<stop stop-color="#5E738F"/>
<stop offset="0.48877" stop-color="#91AFC8"/>
<stop offset="1" stop-color="#91AFC8"/>
</linearGradient>
<linearGradient id="paint10_linear_45_2611" x1="54.8902" y1="26.1536" x2="53.687" y2="26.1536" gradientUnits="userSpaceOnUse">
<stop stop-color="#5E738F"/>
<stop offset="0.320221" stop-color="#91AFC8"/>
<stop offset="1" stop-color="#91AFC8"/>
</linearGradient>
<linearGradient id="paint11_linear_45_2611" x1="45.8497" y1="31.7756" x2="49.0529" y2="26.1268" gradientUnits="userSpaceOnUse">
<stop stop-color="#A5B9CC"/>
<stop offset="1" stop-color="#002334"/>
</linearGradient>
<linearGradient id="paint12_linear_45_2611" x1="31.9805" y1="26.4863" x2="35.2086" y2="32.179" gradientUnits="userSpaceOnUse">
<stop stop-color="#002334"/>
<stop offset="0.775284" stop-color="#A5B9CC"/>
<stop offset="1" stop-color="#A5B9CC"/>
</linearGradient>
<linearGradient id="paint13_linear_45_2611" x1="18.803" y1="5.0589" x2="33.2189" y2="30.4811" gradientUnits="userSpaceOnUse">
<stop stop-color="#FFEFCF"/>
<stop offset="0.460678" stop-color="#FFE4A6"/>
<stop offset="1" stop-color="#BC956E"/>
</linearGradient>
<linearGradient id="paint14_linear_45_2611" x1="60.0577" y1="26.4651" x2="64.1297" y2="21.8437" gradientUnits="userSpaceOnUse">
<stop stop-color="#5E738F"/>
<stop offset="0.606735" stop-color="#91AFC8"/>
<stop offset="1" stop-color="#C7DFF4"/>
</linearGradient>
<linearGradient id="paint15_linear_45_2611" x1="64.209" y1="1.67926" x2="69.5773" y2="11.1463" gradientUnits="userSpaceOnUse">
<stop stop-color="#E1E8F5"/>
<stop offset="0.814606" stop-color="#7F97B4"/>
<stop offset="0.904495" stop-color="#476886"/>
<stop offset="1" stop-color="#002334"/>
</linearGradient>
<linearGradient id="paint16_linear_45_2611" x1="70.6053" y1="23.097" x2="79.354" y2="7.66877" gradientUnits="userSpaceOnUse">
<stop stop-color="#8CA0B5"/>
<stop offset="0.140442" stop-color="#E1E8F5"/>
<stop offset="0.814606" stop-color="#7F97B4"/>
<stop offset="0.904495" stop-color="#476886"/>
<stop offset="1" stop-color="#002334"/>
</linearGradient>
<linearGradient id="paint17_linear_45_2611" x1="67.4964" y1="23.3552" x2="70.6513" y2="21.5007" gradientUnits="userSpaceOnUse">
<stop stop-color="#002334"/>
<stop offset="0.814606" stop-color="#A5B9CC"/>
<stop offset="0.887634" stop-color="#002334"/>
<stop offset="1" stop-color="#002334"/>
</linearGradient>
<linearGradient id="paint18_linear_45_2611" x1="10.1122" y1="16.503" x2="20.3384" y2="26.9149" gradientUnits="userSpaceOnUse">
<stop stop-color="#D4BC7B"/>
<stop offset="0.331467" stop-color="#7F5F39"/>
<stop offset="1" stop-color="#D4BC7B"/>
</linearGradient>
<linearGradient id="paint19_linear_45_2611" x1="65.3688" y1="17.96" x2="58.0644" y2="25.3969" gradientUnits="userSpaceOnUse">
<stop stop-color="#D4BC7B"/>
<stop offset="0.331467" stop-color="#7F5F39"/>
<stop offset="1" stop-color="#D4BC7B"/>
</linearGradient>
<linearGradient id="paint20_linear_45_2611" x1="71.5957" y1="2.0465" x2="59.7893" y2="14.0672" gradientUnits="userSpaceOnUse">
<stop stop-color="#D4BC7B"/>
<stop offset="0.331467" stop-color="#7F5F39"/>
<stop offset="1" stop-color="#D4BC7B"/>
</linearGradient>
<linearGradient id="paint21_linear_45_2611" x1="26.8882" y1="24.6796" x2="28.4586" y2="24.6796" gradientUnits="userSpaceOnUse">
<stop stop-color="#D3BD8B"/>
<stop offset="1" stop-color="#7F5F39"/>
</linearGradient>
<linearGradient id="paint22_linear_45_2611" x1="53.5967" y1="24.6558" x2="52.026" y2="24.6558" gradientUnits="userSpaceOnUse">
<stop stop-color="#D3BD8B"/>
<stop offset="1" stop-color="#7F5F39"/>
</linearGradient>
<linearGradient id="paint23_linear_45_2611" x1="32.6782" y1="25.3204" x2="35.519" y2="30.3302" gradientUnits="userSpaceOnUse">
<stop stop-color="#7F5F39"/>
<stop offset="0.646072" stop-color="#D3BD8B"/>
<stop offset="0.887634" stop-color="#FFE4A6"/>
<stop offset="1" stop-color="#FFE4A6"/>
</linearGradient>
<linearGradient id="paint24_linear_45_2611" x1="47.8274" y1="25.3452" x2="44.724" y2="30.818" gradientUnits="userSpaceOnUse">
<stop stop-color="#7F5F39"/>
<stop offset="0.455063" stop-color="#D3BD8B"/>
<stop offset="0.887634" stop-color="#FFE4A6"/>
<stop offset="1" stop-color="#FFE4A6"/>
</linearGradient>
<linearGradient id="paint25_linear_45_2611" x1="30.5995" y1="5.36245" x2="37.2186" y2="-1.37688" gradientUnits="userSpaceOnUse">
<stop stop-color="#D4BC7B"/>
<stop offset="0.0393219" stop-color="#7F5F39"/>
<stop offset="0.106735" stop-color="#D1AC75"/>
<stop offset="1" stop-color="#D4BC7B"/>
</linearGradient>
<linearGradient id="paint26_linear_45_2611" x1="49.9829" y1="5.49729" x2="43.2481" y2="-1.35977" gradientUnits="userSpaceOnUse">
<stop stop-color="#D4BC7B"/>
<stop offset="0.0393219" stop-color="#7F5F39"/>
<stop offset="0.106735" stop-color="#D1AC75"/>
<stop offset="1" stop-color="#D4BC7B"/>
</linearGradient>
<linearGradient id="paint27_linear_45_2611" x1="26.1355" y1="6.46106" x2="28.5999" y2="4.12123" gradientUnits="userSpaceOnUse">
<stop stop-color="#FFE292"/>
<stop offset="0.157303" stop-color="#D1AC75"/>
<stop offset="1" stop-color="#FFE292"/>
</linearGradient>
<linearGradient id="paint28_linear_45_2611" x1="54.501" y1="6.4285" x2="51.9319" y2="3.98931" gradientUnits="userSpaceOnUse">
<stop stop-color="#FFE292"/>
<stop offset="0.157303" stop-color="#D1AC75"/>
<stop offset="1" stop-color="#FFE292"/>
</linearGradient>
<linearGradient id="paint29_linear_45_2611" x1="14.7884" y1="12.3265" x2="22.4775" y2="4.49791" gradientUnits="userSpaceOnUse">
<stop stop-color="#7F5F39"/>
<stop offset="1" stop-color="#BD9B6A"/>
</linearGradient>
<linearGradient id="paint30_linear_45_2611" x1="71.2665" y1="13.747" x2="74.5378" y2="17.0777" gradientUnits="userSpaceOnUse">
<stop stop-color="#7F5F39"/>
<stop offset="1" stop-color="#D4BC7B"/>
</linearGradient>
<linearGradient id="paint31_linear_45_2611" x1="70.1602" y1="22.0121" x2="77.3047" y2="8.00073" gradientUnits="userSpaceOnUse">
<stop stop-color="#A78A5E"/>
<stop offset="0.764038" stop-color="#7F5F39"/>
<stop offset="0.915726" stop-color="#674C2B"/>
<stop offset="1" stop-color="#674C2B"/>
</linearGradient>
<linearGradient id="paint32_linear_45_2611" x1="63.979" y1="25.1776" x2="43.5251" y2="0.359196" gradientUnits="userSpaceOnUse">
<stop stop-color="#FFEFCF"/>
<stop offset="0.460678" stop-color="#FFE4A6"/>
<stop offset="1" stop-color="#BC956E"/>
</linearGradient>
<linearGradient id="paint33_linear_45_2611" x1="2.46964" y1="20.7361" x2="9.56228" y2="13.5147" gradientUnits="userSpaceOnUse">
<stop stop-color="#7F5F39"/>
<stop offset="1" stop-color="#E9CF98"/>
</linearGradient>
<linearGradient id="paint34_linear_45_2611" x1="1.19309" y1="20.3063" x2="10.7443" y2="10.5817" gradientUnits="userSpaceOnUse">
<stop stop-color="#7F5F39"/>
<stop offset="1" stop-color="#E4CB90"/>
</linearGradient>
<clipPath id="clip0_45_2611">
<rect width="80" height="40" fill="white" transform="translate(0.269531)"/>
</clipPath>
</defs>
</svg>
