<svg width="68" height="67" viewBox="0 0 68 67" fill="none" xmlns="http://www.w3.org/2000/svg">
<g style="mix-blend-mode:luminosity">
<path d="M33.5483 66.8033L42.934 14.0174C51.8803 14.0174 54.7022 14.9984 55.1096 19.0026C55.1096 19.0026 61.111 16.7649 64.1379 12.2202C52.3261 6.74682 40.4579 6.49998 40.4579 6.49998L33.5327 14.9349L33.5483 14.9338L26.623 6.49866C26.623 6.49866 14.7546 6.74576 2.94434 12.2191C5.96859 16.7638 11.9724 19.0015 11.9724 19.0015C12.3822 14.997 15.2006 14.016 24.0869 14.0097L33.5483 66.8033Z" fill="url(#paint0_linear_45_2572)"/>
<path d="M33.5448 4.06373C43.093 3.99071 54.022 5.5408 65.2099 10.417C66.7053 7.72559 67.0897 6.5361 67.0897 6.5361C54.8596 1.69746 43.4063 0.0415368 33.5435 0C23.6813 0.0415368 12.2285 1.69772 0 6.5361C0 6.5361 0.545534 8.00127 1.87842 10.417C13.0643 5.5408 23.9951 3.99071 33.5435 4.06373H33.5448Z" fill="url(#paint1_linear_45_2572)"/>
</g>
<defs>
<linearGradient id="paint0_linear_45_2572" x1="72.1016" y1="26.7333" x2="-39.4273" y2="11.5323" gradientUnits="userSpaceOnUse">
<stop stop-color="white"/>
<stop offset="1" stop-color="white" stop-opacity="0"/>
</linearGradient>
<linearGradient id="paint1_linear_45_2572" x1="75.8207" y1="3.49534" x2="4.58273" y2="-58.1292" gradientUnits="userSpaceOnUse">
<stop stop-color="white"/>
<stop offset="1" stop-color="white" stop-opacity="0"/>
</linearGradient>
</defs>
</svg>
