<svg width="68" height="68" viewBox="0 0 68 68" fill="none" xmlns="http://www.w3.org/2000/svg">
<path fill-rule="evenodd" clip-rule="evenodd" d="M48.6936 5.29088C58.8401 10.627 65.7713 21.2658 65.7713 33.5289C65.7713 45.7921 58.8401 56.4644 48.6936 61.7678V58.1215C52.5739 55.8002 55.8563 52.5522 58.2447 48.708L48.6936 44.831V38.9313L59.1722 47.1179C61.361 43.0741 62.5879 38.4667 62.5879 33.5281C62.5879 23.1208 57.0161 13.974 48.6936 8.93553V5.29088ZM33.9373 1.6781C39.2432 1.6781 44.2498 2.97125 48.6936 5.29088V8.9372C44.6146 6.4834 39.8395 5.02588 34.7994 4.85983L38.4465 30.9443L48.6936 38.9322V44.8319L33.8702 38.8324L19.1465 44.8646V38.9976L29.4599 30.9435L33.0743 4.85899C27.9671 5.02504 23.2256 6.4834 19.1465 8.93553V5.29088C23.5577 2.97125 28.5978 1.6781 33.9373 1.6781ZM48.6936 61.7678C44.2498 64.0874 39.2424 65.4125 33.9373 65.4125C28.5986 65.4125 23.5585 64.0874 19.1474 61.8005V58.1215C23.4587 60.7388 28.5315 62.2307 33.9373 62.2307C39.3095 62.2307 44.3504 60.7388 48.6936 58.1215V61.7678ZM19.1474 61.8005C8.9665 56.4644 2.03613 45.7921 2.03613 33.5289C2.03613 21.2658 8.9665 10.627 19.1474 5.29088V8.9372C10.7905 13.9748 5.21954 23.0889 5.21954 33.5289C5.21954 38.4667 6.47999 43.1412 8.66879 47.1842L19.1474 38.9976V44.8646L9.62985 48.7742C12.0174 52.5874 15.2671 55.801 19.1474 58.1215V61.8005Z" fill="url(#paint0_linear_45_2864)"/>
<defs>
<linearGradient id="paint0_linear_45_2864" x1="2.50024" y1="37.0583" x2="80.001" y2="2.55835" gradientUnits="userSpaceOnUse">
<stop stop-color="white"/>
<stop offset="1" stop-color="white" stop-opacity="0"/>
</linearGradient>
</defs>
</svg>
