<svg width="111" height="32" viewBox="0 0 111 32" fill="none" xmlns="http://www.w3.org/2000/svg">
<path d="M3.20241 0.927999V28.228H17.0204V31H0.178414V0.927999H3.20241ZM46.867 15.964C46.867 25.078 40.945 31.504 32.545 31.504C24.103 31.504 18.223 25.078 18.223 15.964C18.223 6.85 24.145 0.381999 32.545 0.381999C40.987 0.381999 46.867 6.808 46.867 15.964ZM43.759 15.964C43.759 8.446 39.181 3.322 32.545 3.322C25.909 3.322 21.373 8.446 21.373 15.964C21.373 23.482 25.909 28.606 32.545 28.606C39.181 28.606 43.759 23.44 43.759 15.964ZM64.9503 3.28C58.0203 3.28 53.6523 8.404 53.6523 16.09C53.6523 23.902 58.2723 28.648 65.0343 28.648C70.0743 28.648 74.9883 26.212 74.9883 18.988V17.434H64.1103V14.746H77.8443V31.042H75.4503L75.1563 26.254C73.5603 29.236 69.7803 31.504 64.9083 31.504C56.3823 31.504 50.5023 25.372 50.5023 16.09C50.5023 6.892 56.3823 0.423998 64.9923 0.423998C71.3343 0.423998 76.2483 4.036 77.4243 9.496H74.1483C72.8883 5.38 69.3603 3.28 64.9503 3.28ZM110.646 15.964C110.646 25.078 104.724 31.504 96.3243 31.504C87.8823 31.504 82.0023 25.078 82.0023 15.964C82.0023 6.85 87.9243 0.381999 96.3243 0.381999C104.766 0.381999 110.646 6.808 110.646 15.964ZM107.538 15.964C107.538 8.446 102.96 3.322 96.3243 3.322C89.6883 3.322 85.1523 8.446 85.1523 15.964C85.1523 23.482 89.6883 28.606 96.3243 28.606C102.96 28.606 107.538 23.44 107.538 15.964Z" fill="white"/>
</svg>
