<svg width="26" height="26" viewBox="0 0 26 26" fill="none" xmlns="http://www.w3.org/2000/svg">
<path d="M13 1C6.37258 1 1 6.37258 1 13C1 19.6274 6.37258 25 13 25C19.6274 25 25 19.6274 25 13C25 6.37258 19.6274 1 13 1Z" stroke="white" stroke-width="1.5" stroke-linecap="round" stroke-linejoin="round"/>
<path d="M3.72559 20.6148C3.72559 20.6148 6.40041 17.2 13.0004 17.2C19.6004 17.2 22.2753 20.6148 22.2753 20.6148" stroke="white" stroke-width="1.5" stroke-linecap="round" stroke-linejoin="round"/>
<path d="M13.0004 13C14.9887 13 16.6004 11.3883 16.6004 9.40005C16.6004 7.41183 14.9887 5.80005 13.0004 5.80005C11.0121 5.80005 9.40039 7.41183 9.40039 9.40005C9.40039 11.3883 11.0121 13 13.0004 13Z" stroke="white" stroke-width="1.5" stroke-linecap="round" stroke-linejoin="round"/>
</svg>
