<svg width="64" height="64" viewBox="0 0 64 64" fill="none" xmlns="http://www.w3.org/2000/svg">
<g clip-path="url(#clip0_3323_172)">
<path d="M7.75349 9.92002H24.6668V22.3H28.2668V8.74002C28.2677 8.42372 28.2061 8.11037 28.0854 7.81798C27.9648 7.5256 27.7875 7.25994 27.5639 7.03628C27.3402 6.81263 27.0746 6.63539 26.7822 6.51475C26.4898 6.39412 26.1765 6.33247 25.8602 6.33335H6.58016C6.26299 6.33159 5.9486 6.39255 5.65507 6.51271C5.36154 6.63286 5.09465 6.80986 4.86976 7.03351C4.64487 7.25717 4.4664 7.52307 4.34462 7.81594C4.22284 8.1088 4.16015 8.42284 4.16016 8.74002V22.3H7.75349V9.92002Z" fill="#3979F1"/>
<path d="M8.15334 57.04C7.79764 56.7965 7.50629 56.4703 7.30426 56.0894C7.10223 55.7086 6.99554 55.2845 6.99334 54.8534V52.38C6.99151 51.9482 7.09645 51.5226 7.29883 51.1411C7.50121 50.7596 7.79475 50.434 8.15334 50.1934V47.5267C8.15334 46.3285 8.62842 45.1791 9.47446 44.3306C10.3205 43.482 11.4684 43.0036 12.6667 43H32.4333V25.9534C32.4342 25.6528 32.3757 25.3551 32.2611 25.0773C32.1465 24.7994 31.9781 24.547 31.7656 24.3345C31.553 24.122 31.3006 23.9536 31.0228 23.839C30.745 23.7244 30.4472 23.6658 30.1467 23.6667H29.6333V31.14C29.6333 32.1414 29.236 33.1018 28.5286 33.8105C27.8211 34.5192 26.8614 34.9183 25.86 34.92H6.58668C5.58354 34.92 4.6214 34.522 3.91145 33.8133C3.20151 33.1046 2.80178 32.1432 2.80001 31.14V23.6667H2.28668C1.98614 23.6658 1.6884 23.7244 1.41057 23.839C1.13274 23.9536 0.880309 24.122 0.667797 24.3345C0.455285 24.547 0.286884 24.7994 0.172279 25.0773C0.0576754 25.3551 -0.000870277 25.6528 9.77609e-06 25.9534V60.5734C-0.000867341 60.8742 0.0576318 61.1723 0.172155 61.4505C0.286678 61.7287 0.454973 61.9815 0.667397 62.1946C0.879821 62.4076 1.1322 62.5767 1.41006 62.692C1.68793 62.8073 1.98583 62.8667 2.28668 62.8667H9.45334C9.04058 62.4533 8.71332 61.9626 8.49026 61.4227C8.2672 60.8828 8.15271 60.3042 8.15334 59.72V57.04Z" fill="#3979F1"/>
<path d="M6.58682 33.56H25.8602C26.1773 33.56 26.4914 33.4973 26.7842 33.3756C27.0771 33.2538 27.343 33.0753 27.5667 32.8504C27.7903 32.6255 27.9673 32.3587 28.0875 32.0651C28.2076 31.7716 28.2686 31.4572 28.2668 31.14V23.66H4.16016V31.14C4.16016 31.4584 4.22297 31.7736 4.345 32.0677C4.46704 32.3617 4.64589 32.6288 4.87131 32.8536C5.09674 33.0784 5.3643 33.2565 5.65868 33.3777C5.95306 33.499 6.26846 33.5609 6.58682 33.56ZM10.9402 27.9267H21.4935C21.6703 27.9267 21.8399 27.9969 21.9649 28.122C22.0899 28.247 22.1602 28.4166 22.1602 28.5934C22.1602 28.7702 22.0899 28.9397 21.9649 29.0648C21.8399 29.1898 21.6703 29.26 21.4935 29.26H10.9402C10.7633 29.26 10.5938 29.1898 10.4688 29.0648C10.3437 28.9397 10.2735 28.7702 10.2735 28.5934C10.2735 28.4166 10.3437 28.247 10.4688 28.122C10.5938 27.9969 10.7633 27.9267 10.9402 27.9267Z" fill="#3979F1"/>
<path d="M42.9403 49.7334H50.9403V47.5068C50.9403 47.0939 50.8589 46.685 50.7007 46.3036C50.5425 45.9222 50.3106 45.5758 50.0183 45.2841C49.726 44.9924 49.3791 44.7613 48.9973 44.6039C48.6156 44.4465 48.2066 44.3659 47.7937 44.3668H12.667C12.2538 44.3659 11.8444 44.4464 11.4623 44.6037C11.0802 44.7611 10.7328 44.9921 10.44 45.2837C10.1472 45.5753 9.91469 45.9217 9.75575 46.3031C9.5968 46.6845 9.51455 47.0935 9.51367 47.5068V49.7401H17.5137C17.551 48.9297 17.8991 48.1649 18.4858 47.6046C19.0724 47.0444 19.8525 46.7317 20.6637 46.7317C21.4749 46.7317 22.2549 47.0444 22.8416 47.6046C23.4282 48.1649 23.7764 48.9297 23.8137 49.7401H36.667C36.667 48.9056 36.9985 48.1052 37.5886 47.5151C38.1788 46.925 38.9791 46.5934 39.8137 46.5934C40.6482 46.5934 41.4486 46.925 42.0387 47.5151C42.6288 48.1052 42.9603 48.9056 42.9603 49.7401L42.9403 49.7334Z" fill="#3979F1"/>
<path d="M42.9466 57.4934V57.8134C42.9361 58.5243 42.6463 59.2025 42.1398 59.7015C41.6333 60.2004 40.9509 60.4801 40.2399 60.48H20.2399C19.5354 60.4714 18.8621 60.1877 18.3639 59.6894C17.8656 59.1912 17.5819 58.5179 17.5732 57.8134V57.4934C9.45324 57.4934 9.65324 57.4934 9.57324 57.4934V59.7267C9.57658 60.5504 9.9021 61.3401 10.4802 61.9269C11.0583 62.5137 11.843 62.851 12.6666 62.8667H47.7799C48.1931 62.8667 48.6023 62.7853 48.9841 62.6272C49.3659 62.469 49.7127 62.2372 50.0049 61.9451C50.2971 61.6529 50.5289 61.306 50.687 60.9242C50.8452 60.5424 50.9266 60.1333 50.9266 59.72V57.4867C50.8599 57.5 50.2732 57.4934 42.9466 57.4934Z" fill="#3979F1"/>
<path d="M8.35353 52.38V54.8534C8.35353 55.1911 8.48769 55.515 8.72648 55.7538C8.96528 55.9926 9.28916 56.1267 9.62687 56.1267H17.5069V51.1H9.62687C9.45909 51.1 9.29296 51.1332 9.13804 51.1976C8.98311 51.262 8.84245 51.3564 8.72412 51.4753C8.60579 51.5943 8.51214 51.7354 8.44854 51.8907C8.38494 52.046 8.35265 52.2123 8.35353 52.38Z" fill="#3979F1"/>
<path d="M23.8203 51.0999H36.6336V54.1999H23.8203V51.0999Z" fill="#3979F1"/>
<path d="M50.8196 51.0999H42.9463V56.1266H50.8196C50.9874 56.1275 51.1537 56.0952 51.309 56.0316C51.4642 55.968 51.6054 55.8743 51.7243 55.756C51.8433 55.6377 51.9377 55.497 52.0021 55.3421C52.0665 55.1872 52.0996 55.021 52.0996 54.8533V52.3799C52.1005 52.2116 52.068 52.0447 52.004 51.8891C51.94 51.7334 51.8457 51.5919 51.7267 51.4729C51.6077 51.3538 51.4662 51.2596 51.3105 51.1956C51.1548 51.1316 50.988 51.099 50.8196 51.0999Z" fill="#3979F1"/>
<path d="M20.6662 48.0802C20.4301 48.0793 20.1962 48.125 19.9779 48.2147C19.7595 48.3045 19.5611 48.4364 19.3938 48.603C19.2266 48.7697 19.0939 48.9676 19.0034 49.1857C18.9128 49.4037 18.8662 49.6374 18.8662 49.8735V57.8068C18.8662 58.1604 19.0067 58.4996 19.2567 58.7496C19.5068 58.9997 19.8459 59.1401 20.1995 59.1401H40.1995C40.5532 59.1401 40.8923 58.9997 41.1424 58.7496C41.3924 58.4996 41.5329 58.1604 41.5329 57.8068V49.8735C41.505 49.4159 41.3036 48.9862 40.9697 48.672C40.6358 48.3579 40.1946 48.183 39.7362 48.183C39.2778 48.183 38.8366 48.3579 38.5027 48.672C38.1689 48.9862 37.9674 49.4159 37.9395 49.8735V55.5601H22.4595V49.8735C22.4595 49.3979 22.2706 48.9417 21.9343 48.6054C21.598 48.2691 21.1418 48.0802 20.6662 48.0802Z" fill="#3979F1"/>
<path d="M60.4069 19.5067C60.4069 27.44 55.6336 31.24 51.4336 33.6467V37.7467C56.1936 35.2267 64.0003 30.6 64.0003 19.5067V7.76666L60.4069 10.4733V19.5067Z" fill="#3979F1"/>
<path d="M47.5069 37.7401V33.6334C43.1869 31.1334 38.5269 27.4267 38.5269 19.5067V10.4734L34.9336 7.76007V19.5067C34.9336 30.5667 42.4936 35.0534 47.5069 37.7401Z" fill="#3979F1"/>
<path d="M47.5131 5.44003V1.69336L37.2998 4.64003L40.8998 7.34003L47.5131 5.44003Z" fill="#3979F1"/>
<path d="M61.6536 4.64009L51.4336 1.69342V5.44009L58.0536 7.34675L61.6536 4.64009Z" fill="#3979F1"/>
<path d="M50.0664 34.3934L49.4797 34.7068C49.2797 34.6001 49.073 34.5001 48.873 34.3868V38.4601L49.473 38.7801C49.653 38.6868 49.8597 38.5801 50.0664 38.4601V34.3934Z" fill="#3979F1"/>
<path d="M63.2865 5.10669L59.6865 7.81336L60.4065 8.02002V8.76669L63.9999 6.06002V5.32002L63.2865 5.10669Z" fill="#3979F1"/>
<path d="M38.5269 8.02008L39.2603 7.80675L35.6536 5.10675L34.9336 5.32008V6.06008L38.5269 8.76008V8.02008Z" fill="#3979F1"/>
<path d="M50.073 5.0467V1.3067L49.473 1.13336L48.873 1.3067V5.0467L49.473 4.87336L50.073 5.0467Z" fill="#3979F1"/>
<path d="M59.0469 19.5067V9.04667L49.4736 6.29333L39.8936 9.04667V19.5067C39.8936 27.0933 44.3536 30.3733 49.4869 33.1667C54.4136 30.5067 59.0469 27.1467 59.0469 19.5067ZM48.8469 23.2867C48.5952 23.5768 48.2413 23.7587 47.859 23.7947C47.4766 23.8307 47.095 23.718 46.7936 23.48L42.3802 20.0533C42.0664 19.8085 41.8627 19.4489 41.8139 19.0539C41.7652 18.6588 41.8753 18.2605 42.1202 17.9467C42.3651 17.6328 42.7246 17.4291 43.1197 17.3804C43.5148 17.3316 43.913 17.4418 44.2269 17.6867L47.5069 20.2467L54.4936 12.14C54.6218 11.9912 54.7781 11.8691 54.9536 11.7806C55.129 11.6922 55.3202 11.6392 55.5161 11.6247C55.712 11.6101 55.9089 11.6343 56.0955 11.6959C56.2821 11.7574 56.4547 11.8551 56.6036 11.9833C56.7524 12.1116 56.8745 12.2679 56.9629 12.4434C57.0513 12.6188 57.1043 12.81 57.1189 13.0059C57.1334 13.2018 57.1092 13.3987 57.0477 13.5853C56.9862 13.7719 56.8885 13.9445 56.7602 14.0933L48.8469 23.2867Z" fill="#3979F1"/>
</g>
<defs>
<clipPath id="clip0_3323_172">
<rect width="64" height="64" fill="white"/>
</clipPath>
</defs>
</svg>
