<svg width="57" height="57" viewBox="0 0 57 57" fill="none" xmlns="http://www.w3.org/2000/svg">
<mask id="mask0_68_3028" style="mask-type:luminance" maskUnits="userSpaceOnUse" x="0" y="0" width="57" height="57">
<path d="M0 3.8147e-06H56.9391V56.9391H0V3.8147e-06Z" fill="white"/>
</mask>
<g mask="url(#mask0_68_3028)">
<path d="M33.8269 46.2151C33.5522 47.4369 33.084 48.5856 32.4562 49.6272C30.4339 52.982 26.7553 55.2256 22.5527 55.2256H8.73739C4.79647 55.2256 1.61956 51.9952 1.68973 48.0547C1.84921 39.0932 4.4128 21.7549 9.95958 10.8019L13.4786 1.6681H28.6447L33.5943 7.71766C34.4145 8.71999 34.0368 10.2295 32.8413 10.7276L26.4465 13.3921L17.8366 11.5603C17.8366 11.5603 14.8508 28.3427 16.0037 35.3481L16.428 34.967C18.4458 33.2455 21.0634 32.2064 23.9237 32.2064C26.8148 32.2064 29.4579 33.2681 31.4845 35.023" fill="#E4F45E"/>
<path d="M28.1897 37.215C32.7198 32.5489 40.3419 29.8771 46.7356 31.5741C54.2876 33.5784 57.2697 41.9668 53.8867 48.7894C49.2607 58.1185 36.3838 55.003 28.1897 53.7593" fill="#E4F45E"/>
<path d="M33.8269 46.2151C33.5522 47.4369 33.084 48.5856 32.4562 49.6272C30.4339 52.982 26.7553 55.2256 22.5527 55.2256H8.73739C4.79647 55.2256 1.61956 51.9952 1.68973 48.0547C1.84921 39.0932 4.4128 21.7549 9.95958 10.8019L13.4786 1.6681H28.6447L33.5943 7.71766C34.4145 8.71999 34.0368 10.2295 32.8413 10.7276L26.4465 13.3921L17.8366 11.5603C17.8366 11.5603 14.8508 28.3427 16.0037 35.3481L16.428 34.967C18.4458 33.2455 21.0634 32.2064 23.9237 32.2064C26.8148 32.2064 29.4579 33.2681 31.4845 35.023" stroke="#E4F45E" stroke-width="4.05273" stroke-miterlimit="10"/>
<path d="M28.1897 37.215C32.7198 32.5489 40.3419 29.8771 46.7356 31.5741C54.2876 33.5784 57.2697 41.9668 53.8867 48.7894C49.2607 58.1185 36.3838 55.003 28.1897 53.7593" stroke="#E4F45E" stroke-width="4.05273" stroke-miterlimit="10"/>
</g>
</svg>
