<svg width="340" height="68" viewBox="0 0 340 68" fill="none" xmlns="http://www.w3.org/2000/svg">
<mask id="mask0_1990_189" style="mask-type:luminance" maskUnits="userSpaceOnUse" x="0" y="0" width="57" height="57">
<path d="M0 3.8147e-06H56.9391V56.9391H0V3.8147e-06Z" fill="white"/>
</mask>
<g mask="url(#mask0_1990_189)">
<path d="M33.8269 46.2151C33.5522 47.4369 33.084 48.5856 32.4562 49.6272C30.4339 52.982 26.7553 55.2256 22.5527 55.2256H8.73739C4.79647 55.2256 1.61956 51.9952 1.68973 48.0547C1.84921 39.0932 4.4128 21.7549 9.95958 10.8019L13.4786 1.6681H28.6447L33.5943 7.71766C34.4145 8.71999 34.0368 10.2295 32.8413 10.7276L26.4465 13.3921L17.8366 11.5603C17.8366 11.5603 14.8508 28.3427 16.0037 35.3481L16.428 34.967C18.4458 33.2455 21.0634 32.2064 23.9237 32.2064C26.8148 32.2064 29.4579 33.2681 31.4845 35.023" fill="#E4F45E"/>
<path d="M28.1897 37.215C32.7198 32.5489 40.3419 29.8771 46.7356 31.5741C54.2876 33.5784 57.2697 41.9668 53.8867 48.7894C49.2607 58.1185 36.3838 55.003 28.1897 53.7593" fill="#E4F45E"/>
<path d="M33.8269 46.2151C33.5522 47.4369 33.084 48.5856 32.4562 49.6272C30.4339 52.982 26.7553 55.2256 22.5527 55.2256H8.73739C4.79647 55.2256 1.61956 51.9952 1.68973 48.0547C1.84921 39.0932 4.4128 21.7549 9.95958 10.8019L13.4786 1.6681H28.6447L33.5943 7.71766C34.4145 8.71999 34.0368 10.2295 32.8413 10.7276L26.4465 13.3921L17.8366 11.5603C17.8366 11.5603 14.8508 28.3427 16.0037 35.3481L16.428 34.967C18.4458 33.2455 21.0634 32.2064 23.9237 32.2064C26.8148 32.2064 29.4579 33.2681 31.4845 35.023" stroke="#E4F45E" stroke-width="4.05273" stroke-miterlimit="10"/>
<path d="M28.1897 37.215C32.7198 32.5489 40.3419 29.8771 46.7356 31.5741C54.2876 33.5784 57.2697 41.9668 53.8867 48.7894C49.2607 58.1185 36.3838 55.003 28.1897 53.7593" stroke="#E4F45E" stroke-width="4.05273" stroke-miterlimit="10"/>
</g>
<path d="M73.2991 54.3974H66.6991V24.9174H91.6471V30.8574H73.2991V37.5014H90.9871V43.3974H73.2991V54.3974ZM99.7369 30.1094H93.1369V24.9174H99.7369V30.1094ZM99.7369 54.3974H93.1369V32.3534H99.7369V54.3974ZM117.404 54.3974H111.948C106.8 54.3974 103.676 51.9774 103.676 46.4334V37.8094H100.2V32.3534H103.676V28.0854H110.276V32.3534H117.404V37.8094H110.276V45.6854C110.276 47.8854 111.112 48.4574 113.444 48.4574H117.404V54.3974ZM125.156 54.3974H118.556V32.3534H124.672V39.1294H125.068C125.64 35.4334 128.28 31.9134 134.044 31.9134C140.072 31.9134 142.932 35.7854 142.932 40.6694V54.3974H136.332V42.8694C136.332 39.3494 134.88 37.8534 130.832 37.8534C126.652 37.8534 125.156 39.5254 125.156 43.2654V54.3974ZM156.654 54.8374C149.306 54.8374 144.29 51.2294 144.29 43.3974C144.29 36.3574 149.262 31.9134 156.522 31.9134C163.738 31.9134 168.534 35.6974 168.534 42.6054C168.534 43.3974 168.446 43.9694 168.358 44.7174H150.406C150.582 48.1054 152.166 49.5574 156.434 49.5574C160.35 49.5574 161.714 48.5454 161.714 46.6534V46.2134H168.314V46.6974C168.314 51.4934 163.65 54.8374 156.654 54.8374ZM156.39 37.0614C152.474 37.0614 150.802 38.3814 150.494 41.2414H162.198C162.022 38.3374 160.262 37.0614 156.39 37.0614ZM181.145 54.8374C173.709 54.8374 169.617 51.9334 169.617 46.8294V46.6974H176.217V47.0934C176.217 49.0734 177.449 49.6014 181.189 49.6014C184.709 49.6014 185.545 49.0294 185.545 47.7094C185.545 46.4774 184.885 46.1254 182.289 45.7734L176.085 45.0254C171.685 44.5414 169.221 42.5614 169.221 38.8654C169.221 34.9934 172.521 31.9134 180.089 31.9134C187.305 31.9134 191.397 34.6414 191.397 40.0094V40.1414H184.797V39.8774C184.797 38.0734 183.917 37.1494 179.869 37.1494C176.569 37.1494 175.733 37.7214 175.733 39.1294C175.733 40.2734 176.349 40.7574 179.253 41.1094L183.961 41.6814C189.857 42.3414 192.057 44.3214 192.057 47.9734C192.057 52.1094 187.965 54.8374 181.145 54.8374ZM204.532 54.8374C197.096 54.8374 193.004 51.9334 193.004 46.8294V46.6974H199.604V47.0934C199.604 49.0734 200.836 49.6014 204.576 49.6014C208.096 49.6014 208.932 49.0294 208.932 47.7094C208.932 46.4774 208.272 46.1254 205.676 45.7734L199.472 45.0254C195.072 44.5414 192.608 42.5614 192.608 38.8654C192.608 34.9934 195.908 31.9134 203.476 31.9134C210.692 31.9134 214.784 34.6414 214.784 40.0094V40.1414H208.184V39.8774C208.184 38.0734 207.304 37.1494 203.256 37.1494C199.956 37.1494 199.12 37.7214 199.12 39.1294C199.12 40.2734 199.736 40.7574 202.64 41.1094L207.348 41.6814C213.244 42.3414 215.444 44.3214 215.444 47.9734C215.444 52.1094 211.352 54.8374 204.532 54.8374ZM235.632 54.8374C226.7 54.8374 221.684 51.3174 221.684 44.4534V44.1894H228.284V44.9814C228.284 47.7094 229.648 48.8094 235.632 48.8094C240.912 48.8094 242.144 48.0174 242.144 46.0374C242.144 44.2334 241.132 43.5734 238.096 43.0454L229.824 41.8574C224.544 41.0214 221.42 38.3814 221.42 33.5854C221.42 29.1414 225.028 24.4774 234.928 24.4774C243.992 24.4774 248.216 28.6574 248.216 34.8614V35.1254H241.572V34.5094C241.572 31.6934 240.12 30.5054 234.268 30.5054C229.516 30.5054 228.064 31.4294 228.064 33.3214C228.064 35.0374 229.032 35.6534 231.496 36.0934L239.768 37.4134C246.368 38.4694 248.744 41.6814 248.744 45.7294C248.744 50.5254 245.004 54.8374 235.632 54.8374ZM265.644 54.3974H260.188C255.04 54.3974 251.916 51.9774 251.916 46.4334V37.8094H248.44V32.3534H251.916V28.0854H258.516V32.3534H265.644V37.8094H258.516V45.6854C258.516 47.8854 259.352 48.4574 261.684 48.4574H265.644V54.3974ZM278.544 54.8374C271.02 54.8374 265.96 50.3494 265.96 43.3974C265.96 36.3574 271.02 31.9134 278.544 31.9134C286.068 31.9134 291.128 36.3574 291.128 43.3974C291.128 50.3494 286.068 54.8374 278.544 54.8374ZM278.544 48.9854C282.988 48.9854 284.572 47.2694 284.572 43.3974C284.572 39.5254 282.988 37.7214 278.544 37.7214C274.056 37.7214 272.516 39.5254 272.516 43.3974C272.516 47.2694 274.056 48.9854 278.544 48.9854ZM299.103 54.3974H292.503V32.3534H298.619V38.2054H299.015C299.631 34.6414 301.963 31.9134 306.407 31.9134C311.335 31.9134 313.359 35.3014 313.359 39.6134V43.2654H306.759V40.9774C306.759 38.5574 305.791 37.5014 303.107 37.5014C300.159 37.5014 299.103 38.8654 299.103 41.6374V54.3974ZM326.133 54.8374C318.785 54.8374 313.769 51.2294 313.769 43.3974C313.769 36.3574 318.741 31.9134 326.001 31.9134C333.217 31.9134 338.013 35.6974 338.013 42.6054C338.013 43.3974 337.925 43.9694 337.837 44.7174H319.885C320.061 48.1054 321.645 49.5574 325.913 49.5574C329.829 49.5574 331.193 48.5454 331.193 46.6534V46.2134H337.793V46.6974C337.793 51.4934 333.129 54.8374 326.133 54.8374ZM325.869 37.0614C321.953 37.0614 320.281 38.3814 319.973 41.2414H331.677C331.501 38.3374 329.741 37.0614 325.869 37.0614Z" fill="white"/>
</svg>
