<svg width="454" height="91" viewBox="0 0 454 91" fill="none" xmlns="http://www.w3.org/2000/svg">
<mask id="mask0_31_2618" style="mask-type:luminance" maskUnits="userSpaceOnUse" x="0" y="0" width="77" height="78">
<path d="M0 0.989449H76.1238V77.1133H0V0.989449Z" fill="white"/>
</mask>
<g mask="url(#mask0_31_2618)">
<path d="M45.2243 62.7807C44.857 64.4142 44.2311 65.9499 43.3918 67.3425C40.6881 71.8277 35.77 74.8271 30.1515 74.8271H11.6813C6.41256 74.8271 2.16524 70.5083 2.25906 65.2402C2.47226 53.2593 5.89962 30.0791 13.3153 15.4357L18.02 3.22435H38.2961L44.9134 11.3122C46.0099 12.6523 45.505 14.6704 43.9067 15.3364L35.3572 18.8986L23.8464 16.4495C23.8464 16.4495 19.8545 38.8866 21.3959 48.2523L21.9631 47.7428C24.6609 45.4413 28.1603 44.052 31.9844 44.052C35.8496 44.052 39.3833 45.4714 42.0926 47.8176" fill="#FE6731"/>
<path d="M37.6877 50.7481C43.7442 44.5099 53.9344 40.9378 62.4824 43.2065C72.5789 45.8862 76.5658 57.1009 72.0429 66.2223C65.8583 78.6947 48.6427 74.5294 37.6877 72.8667" fill="#FE6731"/>
<path d="M45.2243 62.7807C44.857 64.4142 44.2311 65.9499 43.3918 67.3425C40.6881 71.8277 35.77 74.8271 30.1515 74.8271H11.6813C6.41256 74.8271 2.16524 70.5083 2.25906 65.2402C2.47226 53.2593 5.89962 30.0791 13.3153 15.4357L18.02 3.22435H38.2961L44.9134 11.3122C46.0099 12.6523 45.505 14.6704 43.9067 15.3364L35.3572 18.8986L23.8464 16.4495C23.8464 16.4495 19.8545 38.8866 21.3959 48.2523L21.9631 47.7428C24.6609 45.4413 28.1603 44.052 31.9844 44.052C35.8496 44.052 39.3833 45.4714 42.0926 47.8176" stroke="#FE6731" stroke-width="5.41823" stroke-miterlimit="10"/>
<path d="M37.6877 50.7482C43.7442 44.5099 53.9344 40.9378 62.4824 43.2065C72.5789 45.8862 76.5658 57.1009 72.0429 66.2223C65.8583 78.6947 48.6427 74.5294 37.6877 72.8667" stroke="#FE6731" stroke-width="5.41823" stroke-miterlimit="10"/>
</g>
<path d="M97.9961 73.9033H89.1723V34.4905H122.526V42.4319H97.9961V51.3145H121.644V59.197H97.9961V73.9033ZM133.342 41.4319H124.518V34.4905H133.342V41.4319ZM133.342 73.9033H124.518V44.4319H133.342V73.9033ZM156.961 73.9033H149.667C142.784 73.9033 138.607 70.6679 138.607 63.256V51.7263H133.96V44.4319H138.607V38.7259H147.431V44.4319H156.961V51.7263H147.431V62.256C147.431 65.1972 148.549 65.9619 151.667 65.9619H156.961V73.9033ZM167.325 73.9033H158.501V44.4319H166.678V53.491H167.207C167.972 48.5497 171.501 43.8437 179.207 43.8437C187.266 43.8437 191.09 49.0203 191.09 55.5499V73.9033H182.266V58.4911C182.266 53.7851 180.325 51.7851 174.913 51.7851C169.325 51.7851 167.325 54.0204 167.325 59.0206V73.9033ZM209.437 74.4916C199.613 74.4916 192.907 69.6679 192.907 59.197C192.907 49.785 199.554 43.8437 209.26 43.8437C218.907 43.8437 225.319 48.9027 225.319 58.1382C225.319 59.197 225.202 59.9618 225.084 60.9618H201.083C201.319 65.4913 203.436 67.4326 209.142 67.4326C214.378 67.4326 216.201 66.0796 216.201 63.5501V62.9619H225.025V63.6089C225.025 70.0209 218.79 74.4916 209.437 74.4916ZM209.084 50.7262C203.848 50.7262 201.613 52.491 201.201 56.3146H216.848C216.613 52.4322 214.26 50.7262 209.084 50.7262ZM242.179 74.4916C232.238 74.4916 226.767 70.6091 226.767 63.7854V63.6089H235.591V64.1384C235.591 66.7855 237.238 67.4914 242.238 67.4914C246.944 67.4914 248.062 66.7267 248.062 64.9619C248.062 63.3148 247.179 62.8442 243.709 62.3736L235.414 61.3736C229.532 60.7265 226.238 58.0794 226.238 53.1381C226.238 47.9615 230.649 43.8437 240.767 43.8437C250.415 43.8437 255.885 47.4909 255.885 54.6675V54.844H247.062V54.491C247.062 52.0792 245.885 50.8439 240.473 50.8439C236.061 50.8439 234.944 51.6086 234.944 53.491C234.944 55.0205 235.767 55.6675 239.65 56.1381L245.944 56.9029C253.826 57.7852 256.768 60.4324 256.768 65.3149C256.768 70.8444 251.297 74.4916 242.179 74.4916ZM273.446 74.4916C263.505 74.4916 258.034 70.6091 258.034 63.7854V63.6089H266.858V64.1384C266.858 66.7855 268.505 67.4914 273.505 67.4914C278.211 67.4914 279.329 66.7267 279.329 64.9619C279.329 63.3148 278.446 62.8442 274.976 62.3736L266.681 61.3736C260.799 60.7265 257.504 58.0794 257.504 53.1381C257.504 47.9615 261.916 43.8437 272.034 43.8437C281.682 43.8437 287.152 47.4909 287.152 54.6675V54.844H278.329V54.491C278.329 52.0792 277.152 50.8439 271.74 50.8439C267.328 50.8439 266.211 51.6086 266.211 53.491C266.211 55.0205 267.034 55.6675 270.917 56.1381L277.211 56.9029C285.093 57.7852 288.035 60.4324 288.035 65.3149C288.035 70.8444 282.564 74.4916 273.446 74.4916ZM315.025 74.4916C303.083 74.4916 296.377 69.7856 296.377 60.6088V60.2559H305.201V61.3147C305.201 64.9619 307.025 66.4325 315.025 66.4325C322.084 66.4325 323.731 65.3737 323.731 62.7266C323.731 60.3147 322.378 59.4323 318.319 58.7264L307.26 57.1382C300.201 56.0205 296.024 52.491 296.024 46.0791C296.024 40.1377 300.848 33.9023 314.084 33.9023C326.202 33.9023 331.849 39.4906 331.849 47.785V48.1379H322.966V47.3144C322.966 43.5496 321.025 41.9613 313.201 41.9613C306.848 41.9613 304.907 43.1966 304.907 45.7261C304.907 48.0203 306.201 48.8438 309.495 49.4321L320.554 51.1968C329.378 52.6086 332.555 56.9029 332.555 62.3148C332.555 68.7267 327.555 74.4916 315.025 74.4916ZM355.149 73.9033H347.854C340.972 73.9033 336.795 70.6679 336.795 63.256V51.7263H332.148V44.4319H336.795V38.7259H345.619V44.4319H355.149V51.7263H345.619V62.256C345.619 65.1972 346.737 65.9619 349.854 65.9619H355.149V73.9033ZM372.395 74.4916C362.336 74.4916 355.571 68.4914 355.571 59.197C355.571 49.785 362.336 43.8437 372.395 43.8437C382.454 43.8437 389.219 49.785 389.219 59.197C389.219 68.4914 382.454 74.4916 372.395 74.4916ZM372.395 66.6678C378.336 66.6678 380.454 64.3737 380.454 59.197C380.454 54.0204 378.336 51.6086 372.395 51.6086C366.395 51.6086 364.336 54.0204 364.336 59.197C364.336 64.3737 366.395 66.6678 372.395 66.6678ZM399.881 73.9033H391.058V44.4319H399.234V52.2557H399.764C400.587 47.4909 403.705 43.8437 409.646 43.8437C416.235 43.8437 418.941 48.3732 418.941 54.1381V59.0206H410.117V55.9617C410.117 52.7263 408.823 51.3145 405.234 51.3145C401.293 51.3145 399.881 53.1381 399.881 56.844V73.9033ZM436.019 74.4916C426.195 74.4916 419.489 69.6679 419.489 59.197C419.489 49.785 426.136 43.8437 435.842 43.8437C445.49 43.8437 451.902 48.9027 451.902 58.1382C451.902 59.197 451.784 59.9618 451.666 60.9618H427.666C427.901 65.4913 430.019 67.4326 435.725 67.4326C440.96 67.4326 442.784 66.0796 442.784 63.5501V62.9619H451.608V63.6089C451.608 70.0209 445.372 74.4916 436.019 74.4916ZM435.666 50.7262C430.43 50.7262 428.195 52.491 427.783 56.3146H443.431C443.196 52.4322 440.843 50.7262 435.666 50.7262Z" fill="black"/>
</svg>
