<svg width="83" height="99" viewBox="0 0 83 99" fill="none" xmlns="http://www.w3.org/2000/svg">
<path d="M37.5797 51.6769C38.0371 51.0058 38.4573 50.3166 38.8462 49.6124C41.8974 51.7075 44.8001 54.0123 47.5334 56.51C58.2896 66.2994 66.6238 78.3698 74.5747 90.4619C74.8648 90.9032 75.1551 91.3416 75.4454 91.777C74.4447 91.1532 73.4449 90.5303 72.4461 89.9083L67.9385 87.1052L65.6265 85.6635C64.8369 85.171 64.0328 84.5239 63.1232 84.2919C62.0258 84.0116 61.4346 85.2993 62.0949 86.0881C62.658 86.7668 63.5698 87.1951 64.308 87.6679L66.6051 89.1352C68.1365 90.1134 69.668 91.0912 71.1995 92.0685C74.2619 94.0249 77.3153 95.9985 80.4045 97.9079C81.3095 98.4674 82.6227 97.5165 82.2537 96.4647C81.3054 93.7584 80.3731 91.0452 79.3582 88.3622L77.8344 84.3334L77.124 82.4527C76.8647 81.7695 76.6614 81.0225 76.2495 80.4159C75.8531 79.8313 74.7776 80.0031 74.8272 80.8121C74.9111 82.1731 75.5371 83.5674 75.9329 84.8736L77.0933 88.7066C73.9432 83.7482 70.5604 78.9154 67.0788 74.2077C62.4755 67.9825 57.5357 61.9733 51.9667 56.5858C48.3132 53.0212 44.3522 49.7877 40.13 46.9233C42.273 41.7076 42.7158 35.8928 41.652 30.2823C40.2015 22.6441 36.0005 15.5331 30.1362 10.4691C24.1246 5.27683 16.3833 1.75073 8.53338 0.570558C6.61128 0.281252 4.67493 0.0966399 2.73288 0.0175343C1.95045 -0.0144242 1.99241 1.12932 2.73934 1.21256C10.256 2.05169 17.7693 4.3714 24.1225 8.5397C30.2581 12.5683 35.1942 18.3956 37.7519 25.3229C40.122 31.7401 40.5288 39.073 37.8858 45.4743C36.5739 44.6618 35.2368 43.8892 33.8728 43.1681C30.2696 41.2636 26.4549 39.586 22.5078 38.528C18.3687 37.4158 13.7557 37.0192 9.67036 38.5764C6.159 39.9206 3.06856 42.4633 1.62905 46.0081C0.360037 49.1332 0.730132 52.6628 2.45827 55.5396C6.03149 61.5045 13.5829 64.1006 20.2023 63.1219C27.3108 62.0787 33.5763 57.5506 37.5797 51.6769ZM15.2166 60.4872C12.2496 60.0464 9.31696 58.7706 7.08197 56.7503C5.05922 54.9259 3.62922 52.5006 3.6813 49.7943C3.74026 46.6436 5.8233 43.9392 8.44565 42.3359C15.1944 38.2122 23.7928 41.4686 30.2603 44.6072C32.439 45.6668 34.5577 46.8464 36.6067 48.1404C33.8704 53.0636 29.5285 57.1747 24.2654 59.212C21.4265 60.3105 18.2525 60.938 15.2166 60.4872Z" fill="#191919"/>
</svg>
