<svg width="157" height="36" viewBox="0 0 157 36" fill="none" xmlns="http://www.w3.org/2000/svg">
<g clip-path="url(#clip0_15_338)">
<path d="M141.794 11.2934L141.502 11.3855C140.369 9.04204 138.749 7.17651 136.644 5.78893C134.571 4.40133 131.964 3.70752 128.822 3.70752C127.073 3.70752 125.405 4.06211 123.818 4.77129C122.231 5.44972 120.838 6.42104 119.64 7.68525C118.474 8.91865 117.534 10.4142 116.822 12.1718C116.109 13.9294 115.753 15.872 115.753 17.9997C115.753 20.1273 116.109 22.0699 116.822 23.8275C117.534 25.5851 118.474 27.096 119.64 28.3603C120.838 29.5937 122.231 30.5496 123.818 31.228C125.405 31.9063 127.073 32.2455 128.822 32.2455C131.931 32.2455 134.458 31.783 136.401 30.8579C138.377 29.9021 140.045 28.4528 141.405 26.5102L141.697 26.6024L141.6 29.5626C140.855 30.3026 139.997 30.9656 139.025 31.5514C138.053 32.1065 137.001 32.5844 135.867 32.9853C134.766 33.3553 133.616 33.6328 132.418 33.8178C131.219 34.0339 130.021 34.1419 128.822 34.1419C126.328 34.1419 123.948 33.7564 121.681 32.9855C119.413 32.2146 117.421 31.1354 115.705 29.7478C113.988 28.3294 112.628 26.6335 111.624 24.66C110.62 22.6558 110.118 20.4356 110.118 17.9996C110.118 15.5636 110.62 13.3589 111.624 11.3855C112.628 9.38116 113.988 7.6698 115.705 6.25142C117.421 4.83298 119.413 3.75374 121.681 3.01369C123.948 2.24279 126.328 1.85734 128.822 1.85734C130.021 1.85734 131.219 1.94984 132.418 2.13486C133.616 2.31987 134.766 2.61281 135.867 3.01369C137.001 3.38372 138.053 3.86167 139.025 4.44757C139.997 5.0026 140.855 5.65013 141.6 6.39017L141.794 11.2934ZM34.7337 20.1277C34.3777 20.2817 34.0376 20.4822 33.7135 20.7293C33.3894 20.9758 33.2274 21.315 33.2274 21.7469V27.4359C31.6727 29.5636 29.6807 31.2133 27.2515 32.385C24.8223 33.5568 22.134 34.1427 19.1865 34.1427C16.6926 34.1427 14.312 33.7572 12.0447 32.9863C9.77748 32.2154 7.78553 31.1362 6.06888 29.7486C4.35226 28.3302 2.9919 26.6343 1.9878 24.6608C0.983768 22.6566 0.48175 20.4364 0.48175 18.0004C0.48175 15.5644 0.983768 13.3597 1.9878 11.3863C2.9919 9.38192 4.35226 7.67056 6.06888 6.25218C7.78553 4.83374 9.77748 3.75451 12.0447 3.01449C14.312 2.24356 16.6926 1.8581 19.1865 1.8581C20.385 1.8581 21.5834 1.9506 22.7818 2.13561C23.9802 2.32062 25.13 2.61357 26.2313 3.01445C27.3649 3.38447 28.4175 3.86243 29.3892 4.44832C30.3609 5.00335 31.2192 5.65089 31.9642 6.39093L32.1588 11.2937L31.8673 11.3859C30.7337 9.04238 29.1143 7.17683 27.009 5.78925C24.936 4.40165 22.3287 3.70784 19.1869 3.70784C17.4379 3.70784 15.7699 4.06245 14.1828 4.77165C12.5957 5.45005 11.203 6.42136 10.0045 7.68557C8.8385 8.919 7.89923 10.4145 7.18673 12.1721C6.47411 13.9297 6.1178 15.8724 6.1178 18C6.1178 20.0968 6.4579 22.024 7.1381 23.7816C7.85069 25.5392 8.78999 27.0501 9.956 28.3144C11.1544 29.5478 12.5471 30.5191 14.1342 31.2283C15.7213 31.9067 17.4055 32.2459 19.1869 32.2459C22.5554 32.2459 25.4381 31.6292 27.8349 30.3958V21.7465C27.8349 21.315 27.6569 20.9758 27.3008 20.7289C26.9767 20.4824 26.6528 20.2819 26.329 20.1273L26.3734 19.8963C26.5352 19.9245 26.8267 19.9553 27.248 19.9885C27.6693 20.0167 28.1065 20.0475 28.5598 20.0807H32.7382C33.1269 20.0525 33.4994 20.0218 33.8557 19.9885C34.2118 19.9603 34.487 19.9296 34.6813 19.8963L34.7337 20.1277ZM69.9237 2.82908C69.5996 2.98307 69.2757 3.18359 68.952 3.43065C68.628 3.67714 68.45 4.13967 68.418 4.81822C68.3883 5.55827 68.356 6.49875 68.3211 7.63967C68.3211 8.74976 68.3063 10.014 68.2766 11.4323C68.2766 12.8508 68.2618 14.3926 68.2322 16.0577V21.2381C68.2026 23.2423 67.9434 24.9537 67.4546 26.3721C66.9687 27.7905 66.3209 28.9776 65.5112 29.9335C64.7339 30.8895 63.8594 31.6449 62.8877 32.2C61.9484 32.755 61.0091 33.1713 60.0698 33.4488C59.1629 33.7573 58.3046 33.9423 57.4949 34.0038C56.6852 34.0963 56.0536 34.1426 55.6001 34.1426C53.7539 34.1426 51.9725 33.9113 50.2558 33.4488C48.5392 33.0173 47.0331 32.3081 45.7375 31.3211C44.442 30.3344 43.4055 29.0547 42.6282 27.4822C41.8508 25.9096 41.4622 23.9978 41.4622 21.7468V16.5203V11.7099C41.4622 10.2298 41.4473 8.90384 41.4177 7.73214C41.4177 6.52954 41.4029 5.55823 41.3733 4.81818C41.3437 4.13979 41.1656 3.67726 40.8392 3.43061C40.5151 3.18411 40.1912 2.98359 39.8675 2.82904L39.9119 2.59806C40.0737 2.62626 40.3329 2.65699 40.6896 2.69025C41.0783 2.71845 41.4669 2.74918 41.8556 2.78243C42.2769 2.78243 42.6817 2.79653 43.0702 2.82473H44.8193C45.2079 2.79653 45.6128 2.78243 46.0338 2.78243C46.4551 2.75423 46.8437 2.7235 47.1998 2.69025C47.5885 2.66204 47.8637 2.63132 48.0254 2.59806L48.0699 2.82904C47.7138 2.98303 47.3737 3.18355 47.0496 3.43061C46.7581 3.6771 46.5961 4.13963 46.5635 4.81818C46.5339 5.55823 46.5016 6.52954 46.4667 7.73214V21.7468C46.4667 25.1078 47.2926 27.59 48.9444 29.1935C50.5963 30.7969 53.0417 31.5986 56.2806 31.5986C57.2199 31.5986 58.2887 31.4906 59.4872 31.2746C60.6856 31.0281 61.803 30.5347 62.8395 29.7945C63.9083 29.0544 64.799 28.0061 65.5116 26.6493C66.2566 25.2925 66.629 23.4887 66.629 21.2377C66.629 18.8017 66.6142 16.7204 66.5846 14.9936C66.5846 13.236 66.5698 11.7405 66.5402 10.5071C66.5402 9.24282 66.5254 8.16358 66.4957 7.26933C66.4661 6.37514 66.4338 5.55801 66.3988 4.81795C66.3692 4.13955 66.1911 3.67702 65.8647 3.43037C65.5406 3.18387 65.2167 2.98334 64.893 2.82876L64.9375 2.59782C65.2936 2.65928 65.6984 2.72104 66.152 2.78311C66.6053 2.81131 67.0264 2.82541 67.4153 2.82541C67.7713 2.82541 68.1762 2.81131 68.6298 2.78311C69.1157 2.72165 69.5367 2.65989 69.8931 2.59782L69.9237 2.82908ZM105.178 11.2934L104.886 11.3855C103.753 9.04204 102.133 7.17651 100.028 5.78893C97.955 4.40133 95.3477 3.70752 92.206 3.70752C90.4569 3.70752 88.7888 4.06211 87.2018 4.77129C85.6147 5.44972 84.2219 6.42104 83.0236 7.68525C81.8575 8.91865 80.9182 10.4142 80.2057 12.1718C79.4931 13.9294 79.1368 15.8721 79.1368 17.9997C79.1368 20.1273 79.4931 22.0699 80.2057 23.8275C80.9183 25.5851 81.8576 27.096 83.0236 28.3603C84.222 29.5937 85.6147 30.5496 87.2018 31.228C88.7889 31.9063 90.457 32.2455 92.206 32.2455C95.3154 32.2455 97.8417 31.783 99.7851 30.8579C101.761 29.9021 103.429 28.4528 104.789 26.5102L105.081 26.6024L104.984 29.5626C104.239 30.3026 103.381 30.9656 102.409 31.5514C101.437 32.1064 100.384 32.5844 99.2509 32.9853C98.1497 33.3553 96.9998 33.6328 95.8014 33.8178C94.603 34.0338 93.4046 34.1419 92.2062 34.1419C89.7122 34.1419 87.3316 33.7564 85.0644 32.9855C82.7971 32.2146 80.8051 31.1354 79.0885 29.7478C77.3718 28.3294 76.0115 26.6335 75.0075 24.66C74.0034 22.6557 73.5014 20.4356 73.5014 17.9996C73.5014 15.5636 74.0034 13.3589 75.0075 11.3855C76.0115 9.38112 77.3718 7.66976 79.0885 6.25138C80.8051 4.83294 82.7971 3.7537 85.0644 3.01365C87.3316 2.24275 89.7122 1.8573 92.2062 1.8573C93.4046 1.8573 94.603 1.94981 95.8014 2.13482C96.9998 2.31983 98.1497 2.61277 99.2509 3.01365C100.384 3.38368 101.437 3.86163 102.409 4.44753C103.381 5.00256 104.239 5.65009 104.984 6.39013L105.178 11.2934ZM156.437 33.356C156.276 33.3278 156 33.297 155.612 33.2638C155.256 33.2638 154.867 33.2497 154.446 33.2215C154.024 33.2215 153.62 33.2074 153.231 33.1792H150.316C149.928 33.2074 149.539 33.2381 149.15 33.2714C148.794 33.2996 148.519 33.3303 148.325 33.3635L148.28 33.1782C148.604 33.0242 148.928 32.8237 149.252 32.5766C149.576 32.3302 149.754 31.8676 149.786 31.1891C149.816 30.449 149.83 29.6782 149.83 28.8764C149.86 28.0747 149.875 27.165 149.875 26.1475V22.6785V18.007V13.3355V9.82025C149.875 8.80269 149.86 7.90846 149.83 7.13756C149.83 6.33585 149.816 5.56497 149.786 4.82493C149.756 4.14653 149.578 3.68401 149.252 3.43735C148.928 3.15984 148.604 2.94407 148.28 2.79005L148.325 2.6048C148.519 2.66626 148.794 2.71251 149.15 2.74356C149.539 2.74356 149.928 2.75766 150.316 2.78586C150.738 2.81406 151.142 2.82817 151.531 2.82817H153.231C153.62 2.79996 154.025 2.78586 154.446 2.78586C154.867 2.75766 155.256 2.72693 155.612 2.69368C156 2.66548 156.276 2.63475 156.437 2.60149L156.482 2.78682C156.126 2.94081 155.786 3.15656 155.462 3.43408C155.17 3.68057 155.008 4.1431 154.975 4.82166C154.946 5.5617 154.913 6.33257 154.879 7.13429V28.8732C154.908 29.6749 154.94 30.4458 154.975 31.1858C155.005 31.8642 155.167 32.3267 155.462 32.5734C155.786 32.8199 156.126 33.0204 156.482 33.1749L156.437 33.356Z" fill="black"/>
</g>
<defs>
<clipPath id="clip0_15_338">
<rect width="156" height="36" fill="white" transform="translate(0.48175)"/>
</clipPath>
</defs>
</svg>
