<svg width="92" height="38" viewBox="0 0 92 38" fill="none" xmlns="http://www.w3.org/2000/svg">
<g clip-path="url(#clip0_15_336)">
<path d="M86.8142 36.8682L73.3319 0.0321946L73.3227 0.0078125H73.0566L70.2803 7.57747L65.2259 21.3582L65.2141 21.3473C63.4623 19.8134 60.9908 18.8546 57.8783 18.4975L56.929 18.4002L57.8707 18.2804C63.0037 17.3651 66.454 14.1481 66.454 10.2722C66.454 4.95729 61.4165 1.24751 54.2007 1.24751H39.187V1.51661H43.5495V28.9799L32.9545 0.0321043L32.9449 0.0078125H32.6788L29.9024 7.57747L19.1941 36.7734L19.1282 36.7809C18.9452 36.8033 18.7642 36.8211 18.5851 36.8346C18.3157 36.8555 18.0479 36.8681 17.7793 36.8681H6.9594L27.5266 1.51652L27.6795 1.25085H2.52497V12.1867H2.79188C2.8392 6.86 5.96523 1.51652 12.8719 1.51652H21.2044L0.48175 37.1329H28.3991V26.6557H28.1322C28.0958 31.2984 25.4437 35.7081 19.6765 36.7038L19.4931 36.7349L23.8853 24.7547H36.1892L40.6228 36.8682H36.2493V37.133H53.4151V36.8682H49.0229V18.5956H54.0909C59.2483 18.5956 62.2062 20.8821 62.2062 24.8668V28.1081C62.2062 28.4653 62.2307 28.9874 62.2577 29.4241V29.44L59.5337 36.8665H55.9752V37.1313H63.3414V36.8665H59.821L62.3017 30.1039C62.3068 30.1693 62.3093 30.2087 62.3093 30.2087L62.3778 30.8181L62.4437 31.2212C62.8575 33.7148 63.8187 35.5479 65.2994 36.6694L65.5123 36.8228C66.6373 37.599 68.0352 37.9921 69.6696 37.9921C71.8345 37.9921 73.2779 37.4565 74.4698 36.1959L74.3135 36.05C73.2154 37.0558 72.2939 37.4633 71.1393 37.4633C69.1721 37.4633 68.1425 35.0953 68.1425 32.7601V28.2188C68.153 27.0919 67.9752 25.9712 67.6163 24.9021L67.5673 24.7613V24.7562H76.5668L81.0004 36.8698H76.6269V37.1347H91.4818V36.8698L86.8142 36.8682ZM23.9832 24.4897L30.0445 7.96479L36.0921 24.4897H23.9832ZM49.0255 18.3298V1.51652H52.8939C58.0615 1.51652 60.7897 4.56501 60.7897 10.3293C60.7897 16.4598 59.2237 18.3298 54.0909 18.3298H49.0255ZM67.4625 24.4897L67.4363 24.4244C67.0363 23.4577 66.4541 22.5758 65.7207 21.8259L65.4674 21.5744L65.4404 21.5493L70.4187 7.96479L76.4664 24.4897H67.4625Z" fill="black"/>
</g>
<defs>
<clipPath id="clip0_15_336">
<rect width="91" height="38" fill="white" transform="translate(0.48175)"/>
</clipPath>
</defs>
</svg>
