<svg width="436" height="65" viewBox="0 0 436 65" fill="none" xmlns="http://www.w3.org/2000/svg">
<path d="M31.892 51.1455H0.738V1.56551H30.486C40.624 1.56551 46.1 5.8575 46.1 13.6275C46.1 19.7695 42.844 24.2095 34.556 24.8015V25.4675C43.732 26.1335 48.172 30.7215 48.172 37.3815C48.172 45.8175 42.992 51.1455 31.892 51.1455ZM11.838 11.5555V21.2495H29.228C33.298 21.2495 35 19.8435 35 16.4395C35 13.0355 33.224 11.5555 29.08 11.5555H11.838ZM11.838 30.4255V41.1555H30.56C35.074 41.1555 36.924 39.7495 36.924 35.7535C36.924 31.8315 35.074 30.4255 30.56 30.4255H11.838ZM61.4446 51.8855C53.4526 51.8855 48.6426 48.1855 48.6426 41.9695C48.6426 36.4935 52.7126 33.0895 60.6306 32.2755L76.5406 30.6475V29.2415C76.5406 24.4315 74.3946 23.0995 68.4746 23.0995C62.8506 23.0995 60.5566 24.5795 60.5566 28.7975V29.0935H49.3826V28.8715C49.3826 19.6955 57.0786 13.3315 69.2886 13.3315C81.6466 13.3315 87.4926 19.6955 87.4926 29.3895V51.1455H77.1326V42.6355H76.5406C74.8386 48.4075 69.6586 51.8855 61.4446 51.8855ZM59.8166 41.2295C59.8166 43.2275 61.3706 44.0415 64.6266 44.0415C72.1746 44.0415 76.2446 42.2655 76.5406 37.0115L63.6646 38.4915C61.0006 38.7135 59.8166 39.4535 59.8166 41.2295ZM107.179 47.3715C96.1529 47.3715 89.7889 40.7855 89.7889 30.3515C89.7889 19.9915 96.5229 13.3315 107.623 13.3315C115.171 13.3315 120.573 16.5875 121.757 23.0255H122.349V14.0715H132.709V45.7435C132.709 58.6935 124.865 64.4655 111.619 64.4655C99.6309 64.4655 92.0829 59.1375 92.0829 49.8135H103.183C103.183 53.9575 104.811 55.2155 112.359 55.2155C119.463 55.2155 121.609 53.7355 121.609 46.4835V38.1215H121.017C119.833 43.5975 115.467 47.3715 107.179 47.3715ZM100.963 30.3515C100.963 35.8275 104.071 37.8255 111.027 37.8255C118.131 37.8255 121.609 35.8275 121.609 30.7215V29.9075C121.609 24.8755 118.057 22.9515 111.175 22.9515C104.071 22.9515 100.963 24.8755 100.963 30.3515ZM155.096 51.8855C142.59 51.8855 135.708 47.0015 135.708 38.4175V38.1955H146.808V38.8615C146.808 42.1915 148.88 43.0795 155.17 43.0795C161.09 43.0795 162.496 42.1175 162.496 39.8975C162.496 37.8255 161.386 37.2335 157.02 36.6415L146.586 35.3835C139.186 34.5695 135.042 31.2395 135.042 25.0235C135.042 18.5115 140.592 13.3315 153.32 13.3315C165.456 13.3315 172.338 17.9195 172.338 26.9475V27.1695H161.238V26.7255C161.238 23.6915 159.758 22.1375 152.95 22.1375C147.4 22.1375 145.994 23.0995 145.994 25.4675C145.994 27.3915 147.03 28.2055 151.914 28.7975L159.832 29.7595C169.748 30.8695 173.448 34.1995 173.448 40.3415C173.448 47.2975 166.566 51.8855 155.096 51.8855ZM207.401 51.8855C192.379 51.8855 183.943 45.9655 183.943 34.4215V33.9775H195.043V35.3095C195.043 39.8975 197.337 41.7475 207.401 41.7475C216.281 41.7475 218.353 40.4155 218.353 37.0855C218.353 34.0515 216.651 32.9415 211.545 32.0535L197.633 30.0555C188.753 28.6495 183.499 24.2095 183.499 16.1435C183.499 8.66951 189.567 0.825507 206.217 0.825507C221.461 0.825507 228.565 7.8555 228.565 18.2895V18.7335H217.391V17.6975C217.391 12.9615 214.949 10.9635 205.107 10.9635C197.115 10.9635 194.673 12.5175 194.673 15.6995C194.673 18.5855 196.301 19.6215 200.445 20.3615L214.357 22.5815C225.457 24.3575 229.453 29.7595 229.453 36.5675C229.453 44.6335 223.163 51.8855 207.401 51.8855ZM257.875 51.1455H248.699C240.041 51.1455 234.787 47.0755 234.787 37.7515V23.2475H228.941V14.0715H234.787V6.8935H245.887V14.0715H257.875V23.2475H245.887V36.4935C245.887 40.1935 247.293 41.1555 251.215 41.1555H257.875V51.1455ZM279.571 51.8855C266.917 51.8855 258.407 44.3375 258.407 32.6455C258.407 20.8055 266.917 13.3315 279.571 13.3315C292.225 13.3315 300.735 20.8055 300.735 32.6455C300.735 44.3375 292.225 51.8855 279.571 51.8855ZM279.571 42.0435C287.045 42.0435 289.709 39.1575 289.709 32.6455C289.709 26.1335 287.045 23.0995 279.571 23.0995C272.023 23.0995 269.433 26.1335 269.433 32.6455C269.433 39.1575 272.023 42.0435 279.571 42.0435ZM314.148 51.1455H303.048V14.0715H313.334V23.9135H314C315.036 17.9195 318.958 13.3315 326.432 13.3315C334.72 13.3315 338.124 19.0295 338.124 26.2815V32.4235H327.024V28.5755C327.024 24.5055 325.396 22.7295 320.882 22.7295C315.924 22.7295 314.148 25.0235 314.148 29.6855V51.1455ZM359.607 51.8855C347.249 51.8855 338.813 45.8175 338.813 32.6455C338.813 20.8055 347.175 13.3315 359.385 13.3315C371.521 13.3315 379.587 19.6955 379.587 31.3135C379.587 32.6455 379.439 33.6075 379.291 34.8655H349.099C349.395 40.5635 352.059 43.0055 359.237 43.0055C365.823 43.0055 368.117 41.3035 368.117 38.1215V37.3815H379.217V38.1955C379.217 46.2615 371.373 51.8855 359.607 51.8855ZM359.163 21.9895C352.577 21.9895 349.765 24.2095 349.247 29.0195H368.931C368.635 24.1355 365.675 21.9895 359.163 21.9895ZM385.7 24.9495H381.778V18.0675H385.404C386.884 18.0675 387.624 17.6235 387.624 15.7735V14.5155H381.334V1.56551H395.616V15.6995C395.616 21.9155 391.99 24.9495 385.7 24.9495ZM417.293 51.8855C404.787 51.8855 397.905 47.0015 397.905 38.4175V38.1955H409.005V38.8615C409.005 42.1915 411.077 43.0795 417.367 43.0795C423.287 43.0795 424.693 42.1175 424.693 39.8975C424.693 37.8255 423.583 37.2335 419.217 36.6415L408.783 35.3835C401.383 34.5695 397.239 31.2395 397.239 25.0235C397.239 18.5115 402.789 13.3315 415.517 13.3315C427.653 13.3315 434.535 17.9195 434.535 26.9475V27.1695H423.435V26.7255C423.435 23.6915 421.955 22.1375 415.147 22.1375C409.597 22.1375 408.191 23.0995 408.191 25.4675C408.191 27.3915 409.227 28.2055 414.111 28.7975L422.029 29.7595C431.945 30.8695 435.645 34.1995 435.645 40.3415C435.645 47.2975 428.763 51.8855 417.293 51.8855Z" fill="white"/>
</svg>
