<svg width="220" height="36" viewBox="0 0 220 36" fill="none" xmlns="http://www.w3.org/2000/svg">
<path fill-rule="evenodd" clip-rule="evenodd" d="M18.5387 32.2654C10.869 32.2654 4.32247 25.309 4.32247 17.7213C4.32247 10.1618 10.732 3.06716 18.4836 3.06716C23.5791 3.06716 27.2482 5.53236 30.2346 9.3947H33.9869C32.8638 7.3675 31.6587 5.50542 29.8235 4.05323C26.6732 1.50605 22.5919 0 18.5387 0C8.81487 0 0.899292 8.02566 0.899292 17.6944C0.899292 27.3901 8.92496 35.3338 18.5937 35.3338C22.538 35.3338 26.4004 33.8827 29.4956 31.4445C31.4408 29.8834 32.8099 27.8562 34.125 25.7739H30.3728C27.4134 29.6363 23.6342 32.2654 18.5387 32.2654ZM57.4338 13.777C55.0787 10.7368 51.8733 8.81968 47.9021 8.81968C40.7805 8.81968 34.9191 14.6003 34.9191 21.7219C34.9191 28.8423 40.8086 34.6768 47.9021 34.6768C52.0384 34.6768 54.9135 32.9505 57.4338 29.7733V34.1006H60.529V9.42163H57.4338V13.777ZM47.7381 31.8274C42.2866 31.8274 37.9862 27.0891 37.9862 21.7488C37.9862 16.4343 42.2596 11.669 47.7381 11.669C53.1885 11.669 57.4338 16.4354 57.4338 21.7488C57.4338 27.0891 53.1604 31.8274 47.7381 31.8274ZM64.2813 34.1006H67.5967V0.71087H64.2813V34.1006ZM80.1136 30.1832L71.7319 9.42163H68.4446L78.4975 34.1006H81.8387L91.8646 9.42163H88.6323L80.1136 30.1832ZM93.2337 34.1006H96.5479V9.42163H93.2337V34.1006ZM93.2337 6.24439H96.5479V0.71087H93.2337V6.24439ZM110.819 8.81851C107.696 8.81851 105.478 10.4628 103.424 12.6539V9.42163H100.355V34.1006H103.614V19.0623C103.587 15.091 106.874 11.6678 110.873 11.6678C115.884 11.6678 118.404 16.0232 118.404 20.5156V34.1017H121.472V20.5156C121.473 14.1061 117.722 8.81851 110.819 8.81851ZM152.233 0.71087L137.168 19.8575V0.71087H133.909V34.1006H137.168V24.9249L141.441 19.6115L152.315 34.1006H156.453L143.523 16.9812L156.453 0.71087H152.233ZM157.657 34.1006H160.89V0.71087H157.657V34.1006ZM187.65 15.6391C185.404 11.4477 180.912 8.81851 176.172 8.81851C169.107 8.81851 163.134 14.7081 163.134 21.7746C163.134 28.895 169.161 34.6756 176.23 34.6756C179.596 34.6756 182.913 33.3335 185.349 31.0053C186.829 29.6082 187.705 27.855 188.498 26.0199H185.021C183.267 29.4442 180.171 31.8263 176.171 31.8263C173.735 31.8263 171.352 30.8402 169.545 29.169C167.68 27.472 166.859 25.3886 166.502 22.9246H189.266C189.268 20.3505 188.91 17.8853 187.65 15.6391ZM166.613 20.0764C167.602 15.4482 171.243 11.6678 176.23 11.6678C180.42 11.6678 184.912 14.2431 185.898 20.0764H166.613ZM191.678 34.1006H194.936V9.42163H191.678V34.1006ZM191.678 6.35448H194.936V0.71087H191.678V6.35448ZM209.263 8.81851C206.084 8.81851 203.866 10.4628 201.783 12.6539V9.42163H198.661V34.1006H201.948V19.0623C201.921 15.0641 205.291 11.6678 209.316 11.6678C214.303 11.6678 216.933 16.0232 216.933 20.5156V34.1017H220V20.5156C220 14.1061 216.192 8.81851 209.263 8.81851Z" fill="white"/>
</svg>
