<svg width="177" height="36" viewBox="0 0 177 36" fill="none" xmlns="http://www.w3.org/2000/svg">
<path fill-rule="evenodd" clip-rule="evenodd" d="M159.122 0.694696H176.395V3.44708C175.893 3.27861 175.368 3.19176 174.839 3.18987H164.909V16.0512H174.568C175.262 16.0512 175.879 15.975 176.394 15.8452V18.5856C175.956 18.483 175.353 18.4309 174.606 18.4309H164.909V31.7297H174.542C175.07 31.7297 175.7 31.6528 176.394 31.4853V34.4436H159.146C159.284 33.9234 159.354 33.3873 159.353 32.8491V2.32772C159.353 1.65943 159.275 1.10653 159.122 0.694696ZM155.122 9.45344L150.132 9.41573C149.888 6.6113 148.28 3.89663 144.743 3.39654C137.167 2.71467 135.032 11.0352 135.225 17.1192C135.419 22.9838 136.356 31.9997 144.177 31.9997C147.457 31.9997 150.608 28.6296 150.505 25.7875L155.122 25.7498C154.787 31.6143 148.061 35.0093 144.859 35.1255C133.914 35.4989 129.334 28.2057 129.103 17.7996C128.898 8.37406 132.756 0 143.573 0C152.833 0.128983 154.621 5.6081 155.122 9.45344ZM77.284 30.6104L80.59 27.8452C82.3128 30.688 83.7278 31.9862 87.1492 31.9862C90.6212 31.9862 93.5418 29.8772 93.5418 26.148C93.5418 24.3083 92.7951 22.8035 91.3167 21.6721C90.6469 21.1441 88.9497 20.2314 86.2743 18.9582C82.2743 17.0423 78.3777 14.5464 78.3777 9.53113C78.3777 3.20269 83.7535 0.411839 89.4249 0.205165C92.7822 0.076937 96.9497 1.93021 98.634 4.01279L95.2774 6.59772C94.6787 5.48054 93.7887 4.54632 92.7019 3.89425C91.615 3.24218 90.3718 2.89659 89.1043 2.89419C84.8208 2.89419 81.4257 7.85889 84.9754 11.2803C85.8753 12.1545 87.7157 13.2347 90.5194 14.5207C94.9946 16.6176 98.8142 19.1249 98.8142 24.6689C98.8142 26.5847 98.3127 28.3724 97.3223 30.0062C95.3295 33.2986 91.9978 34.9452 87.3423 34.9452C81.9914 34.9452 80.9377 33.7233 77.284 30.6104ZM30.1857 0.694696H47.4445V3.44708C46.9431 3.27867 46.418 3.19183 45.8891 3.18987H35.9605V16.0512H45.6191C46.3138 16.0512 46.9316 15.975 47.4452 15.8452V18.5856C47.0077 18.483 46.4036 18.4309 45.6712 18.4309H35.9605V31.7297H45.5935C46.1207 31.7297 46.7513 31.6528 47.4452 31.4853V34.4436H30.2121C30.3381 33.9214 30.4026 33.3863 30.4044 32.8491V2.32772C30.4044 1.65943 30.3268 1.10653 30.1857 0.694696ZM0 0.694696H6.2764V1.00395C6.2764 1.28681 6.36616 1.65943 6.52079 2.13538L15.3685 28.7714L24.4494 2.01922C24.5904 1.56967 24.6681 1.13218 24.6681 0.694696H27.7162C27.4077 1.23476 27.1761 1.71147 27.0343 2.13538L16.6674 33.0678C16.5648 33.3635 16.4751 33.8266 16.3981 34.4444H11.2532C11.1754 33.9768 11.0594 33.5164 10.9062 33.0678L0.745987 2.37977C0.511288 1.8138 0.26661 1.25202 0.0120685 0.694696H0ZM66.6606 18.2899C70.776 17.479 73.9274 14.3284 73.9274 9.82681C73.9274 3.92228 68.9883 0.693941 63.4579 0.693941H53.349C53.4901 1.20912 53.5678 1.74918 53.5678 2.3149V32.8219C53.5678 33.4781 53.4901 34.031 53.349 34.4429H59.3682C59.221 33.9152 59.1474 33.3697 59.1495 32.8219V18.8043L61.0782 19.0102L71.1622 34.4429H77.2198L66.6606 18.2899ZM65.619 15.7178C64.526 16.4886 63.2135 16.8741 61.7087 16.8741H59.1366V3.15291H61.4387C63.4074 3.15291 64.9371 3.64093 66.0308 4.61773C67.5228 5.9694 68.2816 7.79553 68.2816 10.0848C68.2816 12.5543 67.3938 14.4325 65.619 15.7185M128.1 33.0422L116.86 1.81405C116.735 1.45299 116.661 1.0762 116.641 0.694696H111.778C111.778 1.09371 111.714 1.51762 111.559 1.94228L100.667 33.0422C100.524 33.491 100.293 33.9549 99.9849 34.4436H103.123C103.111 33.9292 103.175 33.4533 103.317 33.0422L106.543 23.8708H118.955L122.145 33.0429C122.312 33.543 122.389 34.0061 122.389 34.4436H128.898C128.524 33.9164 128.255 33.4404 128.1 33.0422ZM107.393 21.3885L112.64 6.14817L118.03 21.3885H107.393Z" fill="white"/>
</svg>
