<svg width="58" height="58" viewBox="0 0 58 58" fill="none" xmlns="http://www.w3.org/2000/svg">
<path d="M21.7955 20.156C24.3342 17.6174 28.2374 17.366 30.8864 19.7605L31.1383 20.0007C32.4911 21.3537 33.102 23.1089 32.9127 25.1111L32.8893 25.3562L33.1354 25.3337C35.0125 25.1564 36.6722 25.6813 37.9869 26.8621L38.2457 27.1072C40.7379 29.5995 40.7599 33.5269 38.3326 36.196L38.0895 36.45C36.6754 37.8639 34.9152 38.4697 32.7487 38.6414C31.1175 38.7706 29.2685 38.6533 27.1793 38.4548L25.0094 38.2351C24.4796 38.18 23.9404 38.1238 23.3864 38.0681L21.6735 37.9041C21.0107 37.8436 20.4772 37.3471 20.36 36.7029L20.3424 36.572C20.2889 35.983 20.2331 35.4141 20.1774 34.8601L20.0104 33.2361C19.6979 30.2323 19.4328 27.6713 19.6051 25.4968C19.7661 23.4659 20.3077 21.7919 21.5397 20.4255L21.7955 20.156ZM29.0582 22.0808C27.5747 20.5972 25.4456 20.7898 24.0123 22.1052L23.8766 22.2361C22.9266 23.1861 22.5651 24.5677 22.4996 26.3357C22.4505 27.662 22.5671 29.2319 22.7438 31.0417L22.9371 32.9314L23.1403 34.9226L23.1569 35.0886L23.3239 35.1052L25.3141 35.3093C27.9399 35.5825 30.1413 35.8113 31.9098 35.7458C33.5674 35.6844 34.8857 35.3635 35.8268 34.5408L36.0094 34.3699C37.2476 33.1316 37.7733 30.9699 36.3131 29.3435L36.1656 29.1873C35.2071 28.2289 34.0055 28.1491 33.068 28.2986C32.3662 28.4106 31.7938 28.6536 31.5416 28.7732L31.403 28.8425H31.402C30.8645 29.1397 30.2033 29.07 29.7408 28.6785L29.651 28.5955C29.2179 28.1625 29.1012 27.5104 29.3463 26.9587L29.4 26.8503L29.401 26.8484C29.4415 26.7726 29.8143 26.0548 29.9528 25.1257C30.0828 24.2529 30.0088 23.1659 29.2252 22.2595L29.0582 22.0808Z" fill="white" stroke="#EF5927" stroke-width="0.408374"/>
<path d="M44.1743 2.37158C45.995 0.550879 48.9229 0.493672 50.813 2.20068L50.9927 2.37158L55.731 7.10889C57.553 8.93074 57.6138 11.8435 55.9106 13.7378L55.7407 13.9175L55.7388 13.9194L52.3608 17.4058L52.2485 17.5229L52.3364 17.6587C53.2985 19.1455 53.3773 21.0778 52.4937 22.6479L52.3042 22.9565L47.1069 30.7534L47.0776 30.7974L47.0728 30.8501C46.7657 34.5964 45.3256 38.11 42.9175 40.9917L42.7983 41.1353L44.1685 42.5054C44.7067 43.044 44.7404 43.8965 44.269 44.4741L44.1685 44.5854C43.6299 45.124 42.7774 45.1573 42.1997 44.686L42.0884 44.5854L40.8501 43.3472L40.7173 43.2153L40.5747 43.3354C37.693 45.7436 34.1785 47.1837 30.4321 47.4907L30.3794 47.4946L22.5396 52.7212C20.9266 53.7964 18.8365 53.7852 17.2427 52.7544L17.106 52.6655L16.9897 52.7788L13.3345 56.3237L13.3335 56.3247C11.5133 58.1351 8.59171 58.1923 6.70361 56.4868L6.52393 56.3159L1.78662 51.5776C-0.0342934 49.7567 -0.0916026 46.829 1.61572 44.939L1.78662 44.7603L1.80225 44.7446V44.7437L5.43604 41.2202L5.55518 41.105L5.46631 40.9644C4.52784 39.482 4.45883 37.5689 5.33643 36.0122L5.52393 35.7065L10.7329 27.894L10.7612 27.8501L10.7661 27.7974C11.1023 23.784 12.7583 19.8621 15.7368 16.7456L16.0288 16.4468C19.1105 13.365 23.1014 11.5243 27.396 11.1724L27.4487 11.1685L35.2886 5.94189C36.8943 4.87156 38.9657 4.88302 40.5464 5.8833L40.686 5.97217L40.8022 5.85205L44.1587 2.38818V2.38721L44.1743 2.37158ZM7.43311 43.3813L3.86084 46.8452L3.85791 46.8481C3.17887 47.5359 3.13865 48.6215 3.73779 49.356L3.8667 49.4976L8.604 54.2358C9.29111 54.9231 10.3822 54.966 11.1196 54.3647L11.2622 54.2358L11.2778 54.2202L14.8237 50.7808L14.9731 50.6362L7.57764 43.2407L7.43311 43.3813ZM10.7515 33.1685L7.97217 37.3384C7.50788 38.0348 7.56519 38.9538 8.09424 39.5864L8.20654 39.7095L18.5356 50.0396H18.5366C19.1287 50.631 20.0414 50.7547 20.7651 50.3599L20.9077 50.2739L25.0649 47.5024L25.4653 47.2358L24.9956 47.1333C21.8352 46.4442 18.916 44.9219 16.5044 42.6753L16.0288 42.2163C13.4741 39.6615 11.838 36.5312 11.1206 33.2388L11.0181 32.7681L10.7515 33.1685ZM39.7183 18.5269C33.8394 12.6482 24.3823 12.5568 18.3921 18.2515L18.1089 18.5269C12.2444 24.3916 12.1532 33.8761 17.8345 39.854L18.1089 40.1362C23.9878 46.0152 33.4457 46.1065 39.436 40.4116L39.7183 40.1362C45.5972 34.2572 45.6895 24.7996 39.9946 18.8091L39.7183 18.5269ZM39.1694 8.51221C38.5788 8.01784 37.7378 7.93435 37.062 8.30322L36.9204 8.38916L32.7632 11.1606L32.3628 11.4282L32.8325 11.5308C35.993 12.2199 38.9121 13.7411 41.3237 15.9878L41.7983 16.4468C44.2974 18.9458 45.9803 22.0417 46.7153 25.4126L46.8179 25.8833L47.0845 25.4829L49.856 21.3247C50.3201 20.6282 50.2631 19.7091 49.7339 19.0767L49.6216 18.9536L39.2915 8.62451L39.1694 8.51221ZM48.9126 4.45166C48.2284 3.76753 47.1441 3.72166 46.4067 4.31494L46.2632 4.44287L46.2603 4.4458L42.9624 7.8501L42.8228 7.99463L42.9644 8.13623C43.7176 8.88957 49.3175 14.4903 50.0708 15.2437L50.2183 15.3901L50.3628 15.2407L53.6343 11.8638L53.6489 11.8481L53.6509 11.8472C54.3392 11.1587 54.3819 10.071 53.7798 9.33252L53.6509 9.18896L48.9126 4.45166Z" fill="white" stroke="#EF5927" stroke-width="0.408374"/>
</svg>
