<svg width="127" height="114" viewBox="0 0 127 114" fill="none" xmlns="http://www.w3.org/2000/svg">
<path d="M27.4634 111.767C33.0885 111.767 37.6486 107.207 37.6486 101.582C37.6486 95.9565 33.0885 91.3965 27.4634 91.3965C21.8383 91.3965 17.2782 95.9565 17.2782 101.582C17.2782 107.207 21.8383 111.767 27.4634 111.767Z" stroke="black" stroke-width="3.17419" stroke-miterlimit="10" stroke-linecap="round" stroke-linejoin="round"/>
<path d="M99.2682 111.767C104.893 111.767 109.453 107.207 109.453 101.582C109.453 95.9565 104.893 91.3965 99.2682 91.3965C93.6431 91.3965 89.083 95.9565 89.083 101.582C89.083 107.207 93.6431 111.767 99.2682 111.767Z" stroke="black" stroke-width="3.17419" stroke-miterlimit="10" stroke-linecap="round" stroke-linejoin="round"/>
<path d="M89.083 101.581H37.6478" stroke="black" stroke-width="3.17419" stroke-miterlimit="10" stroke-linecap="round" stroke-linejoin="round"/>
<path d="M17.2778 101.58H2V76.1172H124.731V101.58H109.454" stroke="black" stroke-width="3.17419" stroke-miterlimit="10" stroke-linecap="round" stroke-linejoin="round"/>
<path d="M68.6569 27.4844H83.9907V76.1186H2V27.4844H17.0792" stroke="black" stroke-width="3.17419" stroke-miterlimit="10" stroke-linecap="round" stroke-linejoin="round"/>
<path d="M33.7751 27.4891L40.3682 34.0823L51.6529 22.7979" stroke="black" stroke-width="3.17419" stroke-miterlimit="10" stroke-linecap="round" stroke-linejoin="round"/>
<path d="M42.9949 52.4379C56.9874 52.4379 68.3305 41.0947 68.3305 27.1022C68.3305 13.1098 56.9874 1.7666 42.9949 1.7666C29.0024 1.7666 17.6593 13.1098 17.6593 27.1022C17.6593 41.0947 29.0024 52.4379 42.9949 52.4379Z" stroke="black" stroke-width="3.17419" stroke-miterlimit="10" stroke-linecap="round" stroke-linejoin="round"/>
<path d="M124.731 76.1188H83.9907V47.3457H106.907L124.731 76.1188Z" stroke="black" stroke-width="3.17419" stroke-miterlimit="10" stroke-linecap="round" stroke-linejoin="round"/>
<path d="M99.2688 65.9072V76.1181" stroke="black" stroke-width="3.17419" stroke-miterlimit="10" stroke-linecap="round" stroke-linejoin="round"/>
</svg>
