<svg width="102" height="115" viewBox="0 0 102 115" fill="none" xmlns="http://www.w3.org/2000/svg">
<path d="M99.5806 24.9035V44.0732C99.5806 75.1728 79.9516 102.809 50.7903 112.767C21.6291 102.809 2 75.1728 2 44.0732V24.9035L7.68769 23.4669C17.0891 21.0923 23.6846 12.5577 23.6846 2.7666H77.8961C77.8961 12.5577 84.4916 21.0923 93.893 23.4669L99.5806 24.9035Z" stroke="black" stroke-width="4" stroke-miterlimit="10" stroke-linecap="round" stroke-linejoin="round"/>
<path d="M50.7904 83.3266C66.7585 83.3266 79.7032 70.2481 79.7032 54.1149C79.7032 37.9818 66.7585 24.9033 50.7904 24.9033C34.8223 24.9033 21.8776 37.9818 21.8776 54.1149C21.8776 70.2481 34.8223 83.3266 50.7904 83.3266Z" stroke="black" stroke-width="4" stroke-miterlimit="10" stroke-linecap="round" stroke-linejoin="round"/>
<path d="M55.7003 43.4459C55.7003 43.4459 52.9918 40.9219 48.8171 42.1926C44.9836 43.3592 44.0315 48.6586 46.6366 50.7228C48.1324 51.9082 50.3831 52.8827 53.4162 53.966C60.2051 56.3906 57.6955 66.0635 50.7899 66.11C48.0949 66.1281 46.8352 65.9553 44.4677 64.3907" stroke="black" stroke-width="4" stroke-miterlimit="10" stroke-linecap="round" stroke-linejoin="round"/>
<path d="M50.7902 68.7212V66.1113" stroke="black" stroke-width="4" stroke-miterlimit="10" stroke-linecap="round" stroke-linejoin="round"/>
<path d="M50.7902 41.8443V39.5088" stroke="black" stroke-width="4" stroke-miterlimit="10" stroke-linecap="round" stroke-linejoin="round"/>
</svg>
