<svg width="105" height="111" viewBox="0 0 105 111" fill="none" xmlns="http://www.w3.org/2000/svg">
<path fill-rule="evenodd" clip-rule="evenodd" d="M45.976 2.82794L37.2906 9.20924H26.5551C21.9307 9.20924 17.8323 12.2203 16.4035 16.6676L13.0859 26.9925L4.40081 33.3738C0.659447 36.1222 -0.905895 40.9944 0.523269 45.4418L3.84058 55.7667L0.523269 66.0915C-0.905895 70.5389 0.659447 75.4107 4.40081 78.1595L13.0859 84.5405L16.4035 94.8654C17.8323 99.3127 21.9307 102.324 26.5551 102.324H37.2906L45.976 108.705C49.717 111.454 54.7828 111.454 58.5242 108.705L67.2092 102.324H77.9451C82.5691 102.324 86.6675 99.3127 88.0967 94.8654L91.414 84.5405L100.099 78.1595C103.84 75.4107 105.406 70.5389 103.977 66.0915L100.659 55.7667L103.977 45.4418C105.406 40.9944 103.84 36.1222 100.099 33.3738L91.414 26.9925L88.0967 16.6676C86.6675 12.2203 82.5691 9.20924 77.9451 9.20924H67.2092L58.5242 2.82794C54.7828 0.0794889 49.717 0.0794889 45.976 2.82794ZM47.704 5.23319C50.4149 3.24178 54.0853 3.24178 56.7958 5.23319C60.9098 8.25563 65.8676 11.8985 65.8676 11.8985C66.1187 12.0829 66.4214 12.1821 66.7319 12.1821H77.9451C81.2955 12.1821 84.265 14.364 85.3004 17.5862C86.8718 22.477 88.7656 28.3706 88.7656 28.3706C88.8615 28.6692 89.0485 28.9293 89.2997 29.1137C89.2997 29.1137 94.2575 32.7562 98.3714 35.779C101.082 37.7704 102.216 41.3005 101.181 44.5231C99.6094 49.4135 97.7159 55.3072 97.7159 55.3072C97.62 55.6058 97.62 55.9276 97.7159 56.2258C97.7159 56.2258 99.6094 62.1198 101.181 67.0102C102.216 70.2328 101.082 73.7629 98.3714 75.7543C94.2575 78.7767 89.2997 82.4192 89.2997 82.4192C89.0485 82.6036 88.8615 82.8641 88.7656 83.1627C88.7656 83.1627 86.8718 89.0563 85.3004 93.9467C84.265 97.1693 81.2955 99.3509 77.9451 99.3509C72.8599 99.3509 66.7319 99.3509 66.7319 99.3509C66.4214 99.3509 66.1187 99.4504 65.8676 99.6348C65.8676 99.6348 60.9098 103.277 56.7958 106.3C54.0853 108.292 50.4149 108.292 47.704 106.3C43.5901 103.277 38.6323 99.6348 38.6323 99.6348C38.3811 99.4504 38.0788 99.3509 37.7683 99.3509C37.7683 99.3509 31.6403 99.3509 26.5551 99.3509C23.2043 99.3509 20.2349 97.1693 19.1994 93.9467C17.6281 89.0563 15.7343 83.1627 15.7343 83.1627C15.6387 82.8641 15.4517 82.6036 15.2005 82.4192C15.2005 82.4192 10.2427 78.7767 6.12879 75.7543C3.41793 73.7629 2.28371 70.2328 3.31915 67.0102C4.89049 62.1198 6.78428 56.2258 6.78428 56.2258C6.88024 55.9276 6.88024 55.6058 6.78428 55.3072C6.78428 55.3072 4.89049 49.4135 3.31915 44.5231C2.28371 41.3005 3.41793 37.7704 6.12879 35.779C10.2427 32.7562 15.2005 29.1137 15.2005 29.1137C15.4517 28.9293 15.6387 28.6692 15.7343 28.3706C15.7343 28.3706 17.6281 22.477 19.1994 17.5862C20.2349 14.364 23.2043 12.1821 26.5551 12.1821H37.7683C38.0788 12.1821 38.3811 12.0829 38.6323 11.8985L47.704 5.23319Z" fill="black"/>
<path fill-rule="evenodd" clip-rule="evenodd" d="M37.5154 42.268C39.9468 49.6942 47.0817 54.7023 55.6443 52.4826C62.0733 50.8162 66.3089 46.2411 69.0448 41.3111C73.0293 34.1314 73.7941 26.2482 73.7941 26.2482C73.847 25.7055 73.6019 25.1772 73.1552 24.8718C72.7086 24.5661 72.1325 24.5322 71.6537 24.7833C66.5326 27.4726 62.2229 26.8914 58.0211 26.297C54.8929 25.854 51.8144 25.4019 48.5518 25.9389C43.2289 26.8147 39.7224 30.6691 38.1271 34.6797C37.0299 37.4382 36.8588 40.263 37.515 42.268H37.5154ZM40.306 41.3336C39.8258 39.8659 40.0516 37.8078 40.8546 35.7893C42.1098 32.6341 44.8362 29.5621 49.0238 28.8732C52.7758 28.2556 56.2593 29.1258 59.9029 29.5414C63.2174 29.9195 66.6476 29.9681 70.4581 28.5614C69.9314 31.2702 68.7922 35.6911 66.4811 39.8563C64.1093 44.1299 60.4878 48.158 54.9144 49.6029C48.0071 51.3934 42.2675 47.3239 40.3063 41.3336H40.306Z" fill="black"/>
<path fill-rule="evenodd" clip-rule="evenodd" d="M26.0173 40.2931C30.8382 42.179 35.2731 43.0687 39.2957 43.2788C49.2123 43.7979 56.6453 40.1947 61.2288 37.026C61.8984 36.5629 62.0706 35.6371 61.6126 34.96C61.1547 34.2825 60.2392 34.1088 59.5696 34.5718C55.3643 37.479 48.5455 40.7858 39.4474 40.3099C35.7 40.114 31.5695 39.2771 27.0778 37.5204C26.3214 37.2243 25.4694 37.6053 25.1766 38.3706C24.8841 39.1358 25.2605 39.9974 26.0173 40.2931Z" fill="black"/>
<path fill-rule="evenodd" clip-rule="evenodd" d="M19.5429 68.6012L23.7856 66.3657V82.4294C23.7856 83.2499 24.4443 83.916 25.2553 83.916C26.0668 83.916 26.7254 83.2499 26.7254 82.4294V63.9152C26.7254 63.3957 26.4573 62.9137 26.0177 62.6444C25.5785 62.3747 25.032 62.3569 24.5762 62.5969L18.1843 65.9644C17.465 66.3436 17.1852 67.2419 17.5599 67.9693C17.9349 68.6971 18.8232 68.98 19.5429 68.6012Z" fill="black"/>
<path fill-rule="evenodd" clip-rule="evenodd" d="M82.0725 63.8061L68.7655 80.7003C68.2603 81.3421 68.3651 82.2783 68.9998 82.7895C69.6341 83.3004 70.5599 83.1944 71.0654 82.5526L84.372 65.6584C84.8776 65.0166 84.7728 64.0808 84.1381 63.5696C83.5035 63.0584 82.5777 63.1647 82.0725 63.8061Z" fill="black"/>
<path fill-rule="evenodd" clip-rule="evenodd" d="M70.9113 62.335C69.0588 62.335 67.5544 63.8562 67.5544 65.7295C67.5544 67.6028 69.0588 69.124 70.9113 69.124C72.7638 69.124 74.2681 67.6028 74.2681 65.7295C74.2681 63.8562 72.7638 62.335 70.9113 62.335ZM70.9113 65.3082C71.1413 65.3082 71.3279 65.4969 71.3279 65.7295C71.3279 65.9621 71.1413 66.1508 70.9113 66.1508C70.6812 66.1508 70.4946 65.9621 70.4946 65.7295C70.4946 65.4969 70.6812 65.3082 70.9113 65.3082Z" fill="black"/>
<path fill-rule="evenodd" clip-rule="evenodd" d="M81.9086 76.9287C80.0561 76.9287 78.5518 78.4496 78.5518 80.3229C78.5518 82.1966 80.0561 83.7174 81.9086 83.7174C83.7612 83.7174 85.2655 82.1966 85.2655 80.3229C85.2655 78.4496 83.7612 76.9287 81.9086 76.9287ZM81.9086 79.9016C82.1387 79.9016 82.3253 80.0903 82.3253 80.3229C82.3253 80.5555 82.1387 80.7446 81.9086 80.7446C81.6786 80.7446 81.492 80.5555 81.492 80.3229C81.492 80.0903 81.6786 79.9016 81.9086 79.9016Z" fill="black"/>
<path fill-rule="evenodd" clip-rule="evenodd" d="M44.5718 76.9894V69.3555C44.5718 65.53 41.505 62.4287 37.722 62.4287C37.722 62.4287 37.722 62.4287 37.7217 62.4287C33.939 62.4287 30.8722 65.53 30.8722 69.3555V76.9894C30.8722 80.8149 33.939 83.9161 37.7217 83.9161H37.722C41.505 83.9161 44.5718 80.8149 44.5718 76.9894ZM41.6317 69.3555V76.9894C41.6317 79.1731 39.8815 80.9433 37.722 80.9433H37.7217C35.5626 80.9433 33.812 79.1731 33.812 76.9897C33.812 76.9894 33.812 69.3555 33.812 69.3555C33.812 67.1718 35.5626 65.4019 37.7217 65.4019H37.722C39.8815 65.4019 41.6317 67.1718 41.6317 69.3555Z" fill="black"/>
<path fill-rule="evenodd" clip-rule="evenodd" d="M62.4182 76.9894V69.3555C62.4182 65.53 59.3517 62.4287 55.5687 62.4287H55.5683C51.7853 62.4287 48.7189 65.53 48.7185 69.3555V76.9894C48.7189 80.8149 51.7853 83.9161 55.5683 83.9161H55.5687C59.3517 83.9161 62.4182 80.8149 62.4182 76.9894ZM59.4783 69.3555V76.9894C59.4783 79.1731 57.7278 80.9433 55.5687 80.9433H55.5683C53.4092 80.9433 51.6587 79.1731 51.6587 76.9897C51.6587 76.9894 51.6587 69.3555 51.6587 69.3555C51.6587 67.1718 53.4092 65.4019 55.5683 65.4019H55.5687C57.7278 65.4019 59.4783 67.1718 59.4783 69.3555Z" fill="black"/>
</svg>
