<svg width="48" height="52" viewBox="0 0 48 52" fill="none" xmlns="http://www.w3.org/2000/svg">
<path d="M37.6061 28.1736C33.9446 24.545 29.0893 22.5465 23.9343 22.5465C13.2252 22.5465 4.5127 31.2592 4.5127 41.9685V45.2734C4.5127 45.4927 4.51623 45.7152 4.52368 45.9341C4.59626 48.0966 5.85991 50.0005 7.82188 50.9025C8.58022 51.2517 9.38447 51.4227 10.1832 51.4227C11.4382 51.4227 12.6791 50.9994 13.7046 50.1783C16.64 47.8267 20.1837 46.5838 23.9531 46.5838C27.7197 46.5838 31.2619 47.8251 34.1961 50.174C35.8764 51.5184 38.1341 51.7958 40.0879 50.897C42.0475 49.9954 43.3096 48.095 43.3821 45.9376C43.3853 45.8494 43.3876 45.7611 43.3892 45.6724L43.39 45.6501L43.3555 41.7947C43.3092 36.64 41.2672 31.8026 37.6061 28.1736Z" fill="black"/>
<path d="M23.9543 19.1446C25.999 19.1446 27.8876 18.0818 29.2713 16.1524C30.5456 14.3755 31.2474 12.0385 31.2474 9.57231C31.2474 7.10616 30.5456 4.76948 29.2713 2.99225C27.8876 1.06281 25.999 0 23.9543 0C21.9091 0 20.0205 1.06281 18.6368 2.99225C17.3626 4.76948 16.6611 7.10616 16.6611 9.57231C16.6611 12.0385 17.3626 14.3755 18.6368 16.1524C20.0205 18.0822 21.9091 19.1446 23.9543 19.1446Z" fill="black"/>
<path d="M12.6102 22.5214C13.8844 20.7445 14.5863 18.4075 14.5863 15.9413C14.5863 13.4752 13.8844 11.1385 12.6102 9.36127C11.2265 7.43182 9.33829 6.36902 7.29315 6.36902C5.248 6.36902 3.35979 7.43182 1.97609 9.36127C0.701853 11.1385 0 13.4752 0 15.9413C0 18.4075 0.701853 20.7445 1.97609 22.5214C3.35979 24.4512 5.248 25.5136 7.29315 25.5136C9.33829 25.5136 11.2265 24.4512 12.6102 22.5214Z" fill="black"/>
<path d="M45.9334 9.36127C44.5497 7.43182 42.6615 6.36902 40.6164 6.36902C38.5712 6.36902 36.683 7.43182 35.2993 9.36127C34.0251 11.1385 33.3232 13.4752 33.3232 15.9413C33.3232 18.4075 34.0251 20.7445 35.2993 22.5214C36.683 24.4512 38.5712 25.5136 40.6164 25.5136C42.6615 25.5136 44.5497 24.4512 45.9334 22.5214C47.2077 20.7445 47.9095 18.4075 47.9095 15.9413C47.9095 13.4752 47.2077 11.1385 45.9334 9.36127Z" fill="black"/>
</svg>
