<svg width="283" height="74" viewBox="0 0 283 74" fill="none" xmlns="http://www.w3.org/2000/svg">
<path d="M46.7605 35.032C42.2078 30.5201 36.1706 28.0352 29.7607 28.0352C16.4447 28.0352 5.61133 38.8687 5.61133 52.1848V56.2942C5.61133 56.5669 5.61572 56.8435 5.62499 57.1157C5.71523 59.8046 7.28649 62.172 9.72606 63.2935C10.669 63.7276 11.669 63.9403 12.6622 63.9403C14.2227 63.9403 15.7657 63.414 17.0409 62.393C20.6907 59.469 25.0971 57.9235 29.7841 57.9235C34.4676 57.9235 38.8721 59.467 42.5205 62.3876C44.6098 64.0594 47.4171 64.4043 49.8465 63.2867C52.2831 62.1656 53.8524 59.8026 53.9427 57.1201C53.9466 57.0103 53.9495 56.9006 53.9514 56.7903L53.9524 56.7625L53.9095 51.9687C53.8519 45.5592 51.3128 39.5443 46.7605 35.032Z" fill="white"/>
<path d="M29.7853 23.8047C32.3278 23.8047 34.6761 22.4832 36.3967 20.0841C37.9811 17.8748 38.8538 14.9688 38.8538 11.9024C38.8538 8.83592 37.9811 5.93045 36.3967 3.72062C34.6761 1.32151 32.3278 0 29.7853 0C27.2423 0 24.894 1.32151 23.1734 3.72062C21.589 5.93045 20.7168 8.83592 20.7168 11.9024C20.7168 14.9688 21.589 17.8748 23.1734 20.0841C24.894 22.4837 27.2423 23.8047 29.7853 23.8047Z" fill="white"/>
<path d="M15.6799 28.0041C17.2643 25.7947 18.137 22.8887 18.137 19.8223C18.137 16.7558 17.2643 13.8504 15.6799 11.6405C13.9593 9.24143 11.6115 7.91992 9.0685 7.91992C6.52551 7.91992 4.17766 9.24143 2.45713 11.6405C0.872703 13.8504 0 16.7558 0 19.8223C0 22.8887 0.872703 25.7947 2.45713 28.0041C4.17766 30.4036 6.52551 31.7247 9.0685 31.7247C11.6115 31.7247 13.9593 30.4036 15.6799 28.0041Z" fill="white"/>
<path d="M57.1149 11.6405C55.3944 9.24143 53.0465 7.91992 50.5036 7.91992C47.9606 7.91992 45.6127 9.24143 43.8922 11.6405C42.3078 13.8504 41.4351 16.7558 41.4351 19.8223C41.4351 22.8887 42.3078 25.7947 43.8922 28.0041C45.6127 30.4036 47.9606 31.7247 50.5036 31.7247C53.0465 31.7247 55.3944 30.4036 57.1149 28.0041C58.6994 25.7947 59.5721 22.8887 59.5721 19.8223C59.5721 16.7558 58.6994 13.8504 57.1149 11.6405Z" fill="white"/>
<path d="M79.2725 56C79.074 56 78.9747 55.9007 78.9747 55.7021L79.0938 14.7763C79.0938 14.6175 79.1732 14.538 79.3321 14.538H90.7699C94.4236 14.538 97.3029 15.65 99.4078 17.874C101.552 20.0981 102.625 23.1164 102.625 26.929C102.625 29.7487 102.069 32.1911 100.957 34.2563C99.8447 36.3214 98.3951 37.91 96.6079 39.022C94.8208 40.134 92.8748 40.69 90.7699 40.69H86.2424V55.7021C86.2424 55.9007 86.1431 56 85.9446 56H79.2725ZM86.2424 33.4819H90.7699C92.0408 33.4819 93.1329 32.8861 94.0463 31.6947C94.9995 30.4636 95.4761 28.875 95.4761 26.929C95.4761 25.3801 95.0591 24.1092 94.225 23.1164C93.391 22.1235 92.2393 21.6271 90.7699 21.6271L86.2424 21.6866V33.4819ZM105.248 56C105.089 56 105.009 55.9007 105.009 55.7021L105.069 14.7763C105.069 14.6175 105.148 14.538 105.307 14.538H124.43C124.589 14.538 124.668 14.6373 124.668 14.8359V21.5079C124.668 21.6668 124.589 21.7462 124.43 21.7462H112.218V31.0394H124.43C124.589 31.0394 124.668 31.1188 124.668 31.2777L124.728 38.0093C124.728 38.1682 124.648 38.2476 124.489 38.2476H112.218V48.6727H124.489C124.648 48.6727 124.728 48.772 124.728 48.9705V55.7617C124.728 55.9206 124.648 56 124.489 56H105.248ZM134.791 56C134.632 56 134.552 55.9007 134.552 55.7021V21.7462H126.808C126.609 21.7462 126.51 21.6469 126.51 21.4484L126.57 14.7763C126.57 14.6175 126.649 14.538 126.808 14.538H149.445C149.644 14.538 149.743 14.6175 149.743 14.7763V21.4484C149.743 21.6469 149.664 21.7462 149.505 21.7462H141.701L141.761 55.7021C141.761 55.9007 141.681 56 141.522 56H134.791ZM169.272 56.5957C167.128 56.5957 165.162 56.0596 163.375 54.9873C161.627 53.8753 160.218 52.4257 159.145 50.6385C158.113 48.8117 157.596 46.8061 157.596 44.6218V41.8815C157.596 41.6829 157.696 41.5836 157.894 41.5836H164.566C164.725 41.5836 164.805 41.6829 164.805 41.8815V44.6218C164.805 45.9324 165.241 47.0642 166.115 48.0174C166.989 48.9308 168.041 49.3875 169.272 49.3875C170.504 49.3875 171.556 48.911 172.43 47.9578C173.304 47.0047 173.74 45.8927 173.74 44.6218C173.74 43.1523 172.787 41.8815 170.881 40.8092C170.245 40.4518 169.253 39.8958 167.902 39.1412C166.552 38.3866 165.281 37.6717 164.09 36.9966C161.905 35.7257 160.277 34.1371 159.205 32.2309C158.172 30.2848 157.656 28.1005 157.656 25.678C157.656 23.4539 158.192 21.4682 159.264 19.7208C160.337 17.9336 161.747 16.5238 163.494 15.4912C165.281 14.4586 167.207 13.9423 169.272 13.9423C171.377 13.9423 173.304 14.4785 175.051 15.5507C176.838 16.5833 178.248 17.9932 179.281 19.7803C180.353 21.5278 180.889 23.4937 180.889 25.678V30.5628C180.889 30.7217 180.81 30.8011 180.651 30.8011H173.979C173.82 30.8011 173.74 30.7217 173.74 30.5628L173.681 25.678C173.681 24.2879 173.244 23.1561 172.37 22.2824C171.496 21.4086 170.464 20.9718 169.272 20.9718C168.041 20.9718 166.989 21.4484 166.115 22.4015C165.241 23.3149 164.805 24.4071 164.805 25.678C164.805 26.9885 165.083 28.0807 165.639 28.9544C166.195 29.8281 167.207 30.6621 168.677 31.4564C168.875 31.5756 169.253 31.794 169.809 32.1117C170.404 32.3897 171.04 32.7273 171.715 33.1244C172.39 33.4819 172.986 33.7996 173.502 34.0776C174.058 34.3556 174.396 34.5343 174.515 34.6137C176.501 35.7257 178.069 37.0959 179.221 38.7242C180.373 40.3128 180.949 42.2786 180.949 44.6218C180.949 46.8855 180.412 48.9308 179.34 50.7577C178.308 52.5448 176.898 53.9746 175.111 55.0469C173.363 56.0794 171.417 56.5957 169.272 56.5957ZM189.566 56C189.408 56 189.328 55.9007 189.328 55.7021V21.7462H181.584C181.385 21.7462 181.286 21.6469 181.286 21.4484L181.346 14.7763C181.346 14.6175 181.425 14.538 181.584 14.538H204.221C204.42 14.538 204.519 14.6175 204.519 14.7763V21.4484C204.519 21.6469 204.44 21.7462 204.281 21.7462H196.477L196.536 55.7021C196.536 55.9007 196.457 56 196.298 56H189.566ZM216.709 56.5957C214.564 56.5957 212.598 56.0596 210.811 54.9873C209.064 53.8753 207.654 52.4257 206.582 50.6385C205.509 48.8117 204.973 46.8061 204.973 44.6218L205.033 25.7375C205.033 23.5532 205.549 21.5675 206.582 19.7803C207.654 17.9932 209.084 16.5635 210.871 15.4912C212.658 14.4189 214.604 13.8827 216.709 13.8827C218.853 13.8827 220.799 14.4189 222.547 15.4912C224.294 16.5635 225.684 17.9932 226.717 19.7803C227.789 21.5675 228.325 23.5532 228.325 25.7375L228.385 44.6218C228.385 46.8061 227.849 48.8117 226.776 50.6385C225.744 52.4257 224.334 53.8753 222.547 54.9873C220.799 56.0596 218.853 56.5957 216.709 56.5957ZM216.709 49.3875C217.9 49.3875 218.933 48.911 219.807 47.9578C220.72 46.9649 221.177 45.8529 221.177 44.6218L221.117 25.7375C221.117 24.4269 220.7 23.3149 219.866 22.4015C219.032 21.4881 217.98 21.0314 216.709 21.0314C215.478 21.0314 214.425 21.4881 213.552 22.4015C212.678 23.2752 212.241 24.3872 212.241 25.7375V44.6218C212.241 45.9324 212.678 47.0642 213.552 48.0174C214.425 48.9308 215.478 49.3875 216.709 49.3875ZM231.961 56C231.802 56 231.723 55.9007 231.723 55.7021L231.842 14.7763C231.842 14.6175 231.921 14.538 232.08 14.538H244.114C246.258 14.538 248.224 15.0742 250.011 16.1465C251.838 17.179 253.288 18.5889 254.36 20.3761C255.432 22.1235 255.969 24.1092 255.969 26.3332C255.969 27.8027 255.75 29.1331 255.313 30.3246C254.876 31.4763 254.36 32.4691 253.764 33.3031C253.169 34.0974 252.633 34.6932 252.156 35.0903C254.301 37.4732 255.373 40.273 255.373 43.4899L255.432 55.7021C255.432 55.9007 255.333 56 255.135 56H248.403C248.244 56 248.165 55.9404 248.165 55.8213V43.4899C248.165 42.0602 247.648 40.829 246.616 39.7965C245.623 38.7242 244.392 38.188 242.922 38.188H238.991L238.931 55.7021C238.931 55.9007 238.852 56 238.693 56H231.961ZM238.991 31.0394H244.114C245.345 31.0394 246.437 30.5827 247.39 29.6693C248.343 28.7558 248.82 27.6438 248.82 26.3332C248.82 25.0624 248.343 23.9702 247.39 23.0568C246.477 22.1434 245.385 21.6866 244.114 21.6866H238.991V31.0394ZM259.508 56C259.35 56 259.27 55.9007 259.27 55.7021L259.33 14.7763C259.33 14.6175 259.409 14.538 259.568 14.538H278.691C278.849 14.538 278.929 14.6373 278.929 14.8359V21.5079C278.929 21.6668 278.849 21.7462 278.691 21.7462H266.478V31.0394H278.691C278.849 31.0394 278.929 31.1188 278.929 31.2777L278.988 38.0093C278.988 38.1682 278.909 38.2476 278.75 38.2476H266.478V48.6727H278.75C278.909 48.6727 278.988 48.772 278.988 48.9705V55.7617C278.988 55.9206 278.909 56 278.75 56H259.508Z" fill="white"/>
</svg>
