<svg width="228" height="60" viewBox="0 0 228 60" fill="none" xmlns="http://www.w3.org/2000/svg">
<path d="M37.6061 28.1736C33.9446 24.545 29.0893 22.5465 23.9343 22.5465C13.2252 22.5465 4.5127 31.2592 4.5127 41.9685V45.2734C4.5127 45.4927 4.51623 45.7152 4.52368 45.9341C4.59626 48.0966 5.85991 50.0005 7.82188 50.9025C8.58022 51.2517 9.38447 51.4227 10.1832 51.4227C11.4382 51.4227 12.6791 50.9994 13.7046 50.1783C16.64 47.8267 20.1837 46.5838 23.9531 46.5838C27.7197 46.5838 31.2619 47.8251 34.1961 50.174C35.8764 51.5184 38.1341 51.7958 40.0879 50.897C42.0475 49.9954 43.3096 48.095 43.3821 45.9376C43.3853 45.8494 43.3876 45.7611 43.3892 45.6724L43.39 45.6501L43.3555 41.7947C43.3092 36.64 41.2672 31.8026 37.6061 28.1736Z" fill="black"/>
<path d="M23.9543 19.1446C25.999 19.1446 27.8876 18.0818 29.2713 16.1524C30.5456 14.3755 31.2474 12.0385 31.2474 9.57231C31.2474 7.10616 30.5456 4.76948 29.2713 2.99225C27.8876 1.06281 25.999 0 23.9543 0C21.9091 0 20.0205 1.06281 18.6368 2.99225C17.3626 4.76948 16.6611 7.10616 16.6611 9.57231C16.6611 12.0385 17.3626 14.3755 18.6368 16.1524C20.0205 18.0822 21.9091 19.1446 23.9543 19.1446Z" fill="black"/>
<path d="M12.6102 22.5214C13.8844 20.7445 14.5863 18.4075 14.5863 15.9413C14.5863 13.4752 13.8844 11.1385 12.6102 9.36127C11.2265 7.43182 9.33829 6.36902 7.29315 6.36902C5.248 6.36902 3.35979 7.43182 1.97609 9.36127C0.701853 11.1385 0 13.4752 0 15.9413C0 18.4075 0.701853 20.7445 1.97609 22.5214C3.35979 24.4512 5.248 25.5136 7.29315 25.5136C9.33829 25.5136 11.2265 24.4512 12.6102 22.5214Z" fill="black"/>
<path d="M45.9334 9.36127C44.5497 7.43182 42.6615 6.36902 40.6164 6.36902C38.5712 6.36902 36.683 7.43182 35.2993 9.36127C34.0251 11.1385 33.3232 13.4752 33.3232 15.9413C33.3232 18.4075 34.0251 20.7445 35.2993 22.5214C36.683 24.4512 38.5712 25.5136 40.6164 25.5136C42.6615 25.5136 44.5497 24.4512 45.9334 22.5214C47.2077 20.7445 47.9095 18.4075 47.9095 15.9413C47.9095 13.4752 47.2077 11.1385 45.9334 9.36127Z" fill="black"/>
<path d="M63.7536 46C63.5939 46 63.514 45.9202 63.514 45.7605L63.6099 12.8466C63.6099 12.7188 63.6737 12.655 63.8015 12.655H73.0001C75.9386 12.655 78.2542 13.5493 79.947 15.3379C81.6718 17.1265 82.5341 19.5539 82.5341 22.6201C82.5341 24.8879 82.087 26.8521 81.1927 28.513C80.2984 30.1739 79.1326 31.4515 77.6953 32.3458C76.258 33.2401 74.6929 33.6872 73.0001 33.6872H69.359V45.7605C69.359 45.9202 69.2792 46 69.1195 46H63.7536ZM69.359 27.8902H73.0001C74.0222 27.8902 74.9005 27.4111 75.6352 26.4529C76.4017 25.4628 76.785 24.1852 76.785 22.6201C76.785 21.3745 76.4496 20.3524 75.7789 19.5539C75.1081 18.7554 74.1819 18.3562 73.0001 18.3562L69.359 18.4041V27.8902ZM84.6436 46C84.5159 46 84.452 45.9202 84.452 45.7605L84.4999 12.8466C84.4999 12.7188 84.5638 12.655 84.6916 12.655H100.071C100.198 12.655 100.262 12.7348 100.262 12.8945V18.2604C100.262 18.3881 100.198 18.452 100.071 18.452H90.2491V25.9259H100.071C100.198 25.9259 100.262 25.9898 100.262 26.1175L100.31 31.5313C100.31 31.6591 100.246 31.723 100.118 31.723H90.2491V40.1071H100.118C100.246 40.1071 100.31 40.187 100.31 40.3467V45.8084C100.31 45.9361 100.246 46 100.118 46H84.6436ZM108.403 46C108.275 46 108.211 45.9202 108.211 45.7605V18.452H101.983C101.823 18.452 101.744 18.3722 101.744 18.2125L101.792 12.8466C101.792 12.7188 101.855 12.655 101.983 12.655H120.189C120.348 12.655 120.428 12.7188 120.428 12.8466V18.2125C120.428 18.3722 120.364 18.452 120.237 18.452H113.961L114.008 45.7605C114.008 45.9202 113.945 46 113.817 46H108.403ZM136.134 46.4791C134.41 46.4791 132.829 46.0479 131.391 45.1855C129.986 44.2912 128.852 43.1254 127.99 41.6881C127.159 40.2189 126.744 38.606 126.744 36.8493V34.6454C126.744 34.4857 126.824 34.4059 126.984 34.4059H132.35C132.477 34.4059 132.541 34.4857 132.541 34.6454V36.8493C132.541 37.9033 132.893 38.8136 133.595 39.5801C134.298 40.3147 135.144 40.682 136.134 40.682C137.125 40.682 137.971 40.2988 138.674 39.5322C139.376 38.7657 139.728 37.8713 139.728 36.8493C139.728 35.6675 138.961 34.6454 137.428 33.7831C136.917 33.4956 136.118 33.0485 135.033 32.4416C133.947 31.8347 132.924 31.2598 131.966 30.7169C130.21 29.6948 128.9 28.4172 128.038 26.8841C127.207 25.319 126.792 23.5624 126.792 21.614C126.792 19.8254 127.223 18.2284 128.086 16.8231C128.948 15.3858 130.082 14.2519 131.487 13.4215C132.924 12.5911 134.474 12.1759 136.134 12.1759C137.827 12.1759 139.376 12.607 140.782 13.4694C142.219 14.2998 143.353 15.4337 144.183 16.871C145.046 18.2763 145.477 19.8574 145.477 21.614V25.5426C145.477 25.6704 145.413 25.7343 145.285 25.7343H139.919C139.792 25.7343 139.728 25.6704 139.728 25.5426L139.68 21.614C139.68 20.4961 139.328 19.5859 138.626 18.8832C137.923 18.1805 137.093 17.8292 136.134 17.8292C135.144 17.8292 134.298 18.2125 133.595 18.979C132.893 19.7136 132.541 20.592 132.541 21.614C132.541 22.668 132.765 23.5464 133.212 24.2491C133.659 24.9517 134.474 25.6225 135.655 26.2613C135.815 26.3571 136.118 26.5328 136.566 26.7883C137.045 27.0118 137.556 27.2833 138.099 27.6027C138.642 27.8902 139.121 28.1457 139.536 28.3693C139.983 28.5929 140.255 28.7366 140.35 28.8005C141.947 29.6948 143.209 30.7967 144.135 32.1062C145.062 33.3838 145.525 34.9648 145.525 36.8493C145.525 38.6698 145.094 40.3147 144.231 41.784C143.401 43.2212 142.267 44.3711 140.83 45.2334C139.424 46.0639 137.859 46.4791 136.134 46.4791ZM152.455 46C152.328 46 152.264 45.9202 152.264 45.7605V18.452H146.036C145.876 18.452 145.796 18.3722 145.796 18.2125L145.844 12.8466C145.844 12.7188 145.908 12.655 146.036 12.655H164.241C164.401 12.655 164.481 12.7188 164.481 12.8466V18.2125C164.481 18.3722 164.417 18.452 164.289 18.452H158.013L158.061 45.7605C158.061 45.9202 157.997 46 157.869 46H152.455ZM174.284 46.4791C172.56 46.4791 170.979 46.0479 169.541 45.1855C168.136 44.2912 167.002 43.1254 166.14 41.6881C165.277 40.2189 164.846 38.606 164.846 36.8493L164.894 21.6619C164.894 19.9053 165.309 18.3083 166.14 16.871C167.002 15.4337 168.152 14.2839 169.589 13.4215C171.026 12.5591 172.591 12.1279 174.284 12.1279C176.009 12.1279 177.574 12.5591 178.979 13.4215C180.385 14.2839 181.503 15.4337 182.333 16.871C183.195 18.3083 183.627 19.9053 183.627 21.6619L183.675 36.8493C183.675 38.606 183.243 40.2189 182.381 41.6881C181.551 43.1254 180.417 44.2912 178.979 45.1855C177.574 46.0479 176.009 46.4791 174.284 46.4791ZM174.284 40.682C175.242 40.682 176.073 40.2988 176.776 39.5322C177.51 38.7337 177.878 37.8394 177.878 36.8493L177.83 21.6619C177.83 20.6079 177.494 19.7136 176.823 18.979C176.153 18.2444 175.306 17.8771 174.284 17.8771C173.294 17.8771 172.448 18.2444 171.745 18.979C171.042 19.6817 170.691 20.576 170.691 21.6619V36.8493C170.691 37.9033 171.042 38.8136 171.745 39.5801C172.448 40.3147 173.294 40.682 174.284 40.682ZM186.551 46C186.423 46 186.359 45.9202 186.359 45.7605L186.455 12.8466C186.455 12.7188 186.519 12.655 186.646 12.655H196.324C198.049 12.655 199.63 13.0861 201.067 13.9485C202.536 14.7789 203.702 15.9128 204.565 17.3501C205.427 18.7554 205.858 20.3524 205.858 22.141C205.858 23.3228 205.683 24.3928 205.331 25.351C204.98 26.2772 204.565 27.0757 204.086 27.7465C203.606 28.3853 203.175 28.8643 202.792 29.1837C204.517 31.1001 205.379 33.3519 205.379 35.939L205.427 45.7605C205.427 45.9202 205.347 46 205.187 46H199.774C199.646 46 199.582 45.9521 199.582 45.8563V35.939C199.582 34.7892 199.167 33.799 198.336 32.9686C197.538 32.1062 196.548 31.675 195.366 31.675H192.204L192.156 45.7605C192.156 45.9202 192.092 46 191.964 46H186.551ZM192.204 25.9259H196.324C197.314 25.9259 198.193 25.5586 198.959 24.824C199.726 24.0894 200.109 23.1951 200.109 22.141C200.109 21.119 199.726 20.2406 198.959 19.506C198.225 18.7714 197.346 18.4041 196.324 18.4041H192.204V25.9259ZM208.705 46C208.577 46 208.513 45.9202 208.513 45.7605L208.561 12.8466C208.561 12.7188 208.625 12.655 208.753 12.655H224.132C224.26 12.655 224.324 12.7348 224.324 12.8945V18.2604C224.324 18.3881 224.26 18.452 224.132 18.452H214.31V25.9259H224.132C224.26 25.9259 224.324 25.9898 224.324 26.1175L224.371 31.5313C224.371 31.6591 224.308 31.723 224.18 31.723H214.31V40.1071H224.18C224.308 40.1071 224.371 40.187 224.371 40.3467V45.8084C224.371 45.9361 224.308 46 224.18 46H208.705Z" fill="black"/>
</svg>
