<svg width="202" height="202" viewBox="0 0 202 202" fill="none" xmlns="http://www.w3.org/2000/svg">
<path d="M56.7027 44.2974L87.4969 77.0617L75.3841 33.7597L95.1528 74.1451L96.3416 29.1966L103.328 73.6147L117.713 31.0135L111.297 75.5176L137.599 39.049L118.35 79.6847L154.234 52.5892L123.862 85.7458L166.138 70.4309L127.343 93.1623L172.255 90.9888L128.483 101.275L172.04 112.436L127.181 109.364L165.513 132.868L123.552 116.709L153.254 150.467L117.92 122.659L136.351 163.672L110.784 126.684L116.308 171.307L102.779 128.427L94.9046 172.696L94.6162 127.733L74.0427 167.714L87.0203 124.663L55.5761 156.804L80.6665 119.491L41.1455 140.936L76.1195 112.676L32.0333 121.519L73.7832 104.824L29.0491 100.28L73.8652 96.6318L32.4581 79.1037L76.3583 88.8278L41.9573 59.8734L81.0409 82.1053L56.7027 44.2974Z" fill="#FFC416"/>
<path d="M76.2426 105.783C76.1881 105.783 76.1609 105.756 76.1609 105.702L76.1936 94.4843C76.1936 94.4407 76.2154 94.419 76.2589 94.419H79.3939C80.3953 94.419 81.1845 94.7238 81.7614 95.3333C82.3492 95.9429 82.6431 96.7702 82.6431 97.8152C82.6431 98.588 82.4907 99.2575 82.1859 99.8235C81.8811 100.39 81.4838 100.825 80.994 101.13C80.5042 101.435 79.9708 101.587 79.3939 101.587H78.1529V105.702C78.1529 105.756 78.1257 105.783 78.0713 105.783H76.2426ZM78.1529 99.6112H79.3939C79.7422 99.6112 80.0415 99.448 80.2919 99.1214C80.5531 98.784 80.6838 98.3486 80.6838 97.8152C80.6838 97.3907 80.5695 97.0423 80.3409 96.7702C80.1123 96.4981 79.7966 96.362 79.3939 96.362L78.1529 96.3783V99.6112ZM86.4845 105.946C85.8967 105.946 85.3579 105.8 84.868 105.506C84.3891 105.201 84.0027 104.804 83.7088 104.314C83.4149 103.813 83.2679 103.263 83.2679 102.665L83.2842 97.4886C83.2842 96.8899 83.4257 96.3457 83.7088 95.8558C84.0027 95.366 84.3945 94.9741 84.8844 94.6802C85.3742 94.3863 85.9076 94.2394 86.4845 94.2394C87.0723 94.2394 87.6057 94.3863 88.0846 94.6802C88.5636 94.9741 88.9446 95.366 89.2276 95.8558C89.5215 96.3457 89.6685 96.8899 89.6685 97.4886L89.6848 102.665C89.6848 103.263 89.5378 103.813 89.2439 104.314C88.9609 104.804 88.5745 105.201 88.0846 105.506C87.6057 105.8 87.0723 105.946 86.4845 105.946ZM86.4845 103.971C86.8111 103.971 87.0941 103.84 87.3336 103.579C87.5839 103.307 87.7091 103.002 87.7091 102.665L87.6928 97.4886C87.6928 97.1294 87.5785 96.8246 87.3499 96.5743C87.1213 96.3239 86.8328 96.1987 86.4845 96.1987C86.1471 96.1987 85.8586 96.3239 85.6191 96.5743C85.3797 96.8137 85.2599 97.1185 85.2599 97.4886V102.665C85.2599 103.024 85.3797 103.334 85.6191 103.595C85.8586 103.846 86.1471 103.971 86.4845 103.971ZM91.0079 105.783C90.9534 105.783 90.9262 105.756 90.9262 105.702L90.9589 94.4843C90.9589 94.4407 90.9806 94.419 91.0242 94.419H94.1591C95.1606 94.419 95.9498 94.7238 96.5267 95.3333C97.1145 95.9429 97.4084 96.7702 97.4084 97.8152C97.4084 98.588 97.256 99.2575 96.9512 99.8235C96.6464 100.39 96.2491 100.825 95.7593 101.13C95.2694 101.435 94.7361 101.587 94.1591 101.587H92.9182V105.702C92.9182 105.756 92.891 105.783 92.8366 105.783H91.0079ZM92.9182 99.6112H94.1591C94.5075 99.6112 94.8068 99.448 95.0572 99.1214C95.3184 98.784 95.449 98.3486 95.449 97.8152C95.449 97.3907 95.3348 97.0423 95.1062 96.7702C94.8776 96.4981 94.5619 96.362 94.1591 96.362L92.9182 96.3783V99.6112ZM101.52 105.946C100.944 105.946 100.41 105.8 99.9203 105.506C99.4305 105.201 99.0386 104.798 98.7447 104.297C98.4617 103.797 98.3202 103.247 98.3202 102.648L98.3529 94.4843C98.3529 94.4407 98.3746 94.419 98.4182 94.419H100.247C100.29 94.419 100.312 94.4407 100.312 94.4843V102.648C100.312 103.018 100.427 103.334 100.655 103.595C100.895 103.846 101.183 103.971 101.52 103.971C101.869 103.971 102.157 103.846 102.386 103.595C102.625 103.334 102.745 103.018 102.745 102.648V94.4843C102.745 94.4407 102.767 94.419 102.81 94.419H104.639C104.683 94.419 104.704 94.4407 104.704 94.4843L104.737 102.648C104.737 103.258 104.59 103.813 104.296 104.314C104.013 104.814 103.627 105.212 103.137 105.506C102.658 105.8 102.119 105.946 101.52 105.946ZM106.092 105.783C106.048 105.783 106.026 105.756 106.026 105.702L106.043 94.5006C106.043 94.4462 106.07 94.419 106.124 94.419H107.937C107.991 94.419 108.018 94.4462 108.018 94.5006L108.002 103.775H111.366C111.42 103.775 111.447 103.802 111.447 103.857V105.702C111.447 105.756 111.42 105.783 111.366 105.783H106.092ZM111.961 105.702L113.986 94.4843C113.996 94.4407 114.024 94.419 114.067 94.419H116.435C116.478 94.419 116.506 94.4407 116.516 94.4843L118.459 105.702C118.47 105.756 118.449 105.783 118.394 105.783H116.582C116.538 105.783 116.511 105.756 116.5 105.702L116.32 104.51H114.1L113.92 105.702C113.909 105.756 113.882 105.783 113.839 105.783H112.026C111.983 105.783 111.961 105.756 111.961 105.702ZM114.426 102.763H115.994L115.324 98.1744L115.226 97.5703L115.161 98.1744L114.426 102.763ZM119.549 105.783C119.506 105.783 119.484 105.756 119.484 105.702L119.517 94.4843C119.517 94.4407 119.539 94.419 119.582 94.419H122.88C123.468 94.419 124.007 94.5659 124.497 94.8598C124.998 95.1428 125.395 95.5293 125.689 96.0191C125.983 96.4981 126.13 97.0423 126.13 97.6519C126.13 98.0547 126.07 98.4193 125.95 98.7459C125.83 99.0615 125.689 99.3337 125.525 99.5623C125.362 99.78 125.215 99.9433 125.085 100.052C125.672 100.705 125.966 101.473 125.966 102.354L125.983 105.702C125.983 105.756 125.955 105.783 125.901 105.783H124.056C124.012 105.783 123.991 105.767 123.991 105.734V102.354C123.991 101.962 123.849 101.625 123.566 101.342C123.294 101.048 122.957 100.901 122.554 100.901H121.476L121.46 105.702C121.46 105.756 121.438 105.783 121.394 105.783H119.549ZM121.476 98.9418H122.88C123.218 98.9418 123.517 98.8166 123.778 98.5663C124.04 98.3159 124.17 98.0111 124.17 97.6519C124.17 97.3036 124.04 97.0042 123.778 96.7539C123.528 96.5035 123.229 96.3783 122.88 96.3783H121.476V98.9418Z" fill="black"/>
</svg>
