<svg width="156" height="42" viewBox="0 0 156 42" fill="none" xmlns="http://www.w3.org/2000/svg">
<path d="M10.36 31.6401C8.41329 31.6401 6.65329 31.3068 5.07996 30.6401C3.53329 29.9734 2.30663 29.0134 1.39996 27.7601C0.493294 26.5068 0.0266277 25.0268 -3.89516e-05 23.3201H5.99996C6.07996 24.4668 6.47996 25.3734 7.19996 26.0401C7.94663 26.7068 8.95996 27.0401 10.24 27.0401C11.5466 27.0401 12.5733 26.7334 13.32 26.1201C14.0666 25.4801 14.44 24.6534 14.44 23.6401C14.44 22.8134 14.1866 22.1334 13.68 21.6001C13.1733 21.0668 12.5333 20.6534 11.76 20.3601C11.0133 20.0401 9.97329 19.6934 8.63996 19.3201C6.82663 18.7868 5.34663 18.2668 4.19996 17.7601C3.07996 17.2268 2.10663 16.4401 1.27996 15.4001C0.479961 14.3334 0.0799611 12.9201 0.0799611 11.1601C0.0799611 9.50677 0.493294 8.06677 1.31996 6.84011C2.14663 5.61344 3.30663 4.68011 4.79996 4.04011C6.29329 3.37344 7.99996 3.04011 9.91996 3.04011C12.8 3.04011 15.1333 3.74677 16.92 5.16011C18.7333 6.54677 19.7333 8.49344 19.92 11.0001H13.76C13.7066 10.0401 13.2933 9.25344 12.52 8.64011C11.7733 8.00011 10.7733 7.68011 9.51996 7.68011C8.42663 7.68011 7.54663 7.96011 6.87996 8.52011C6.23996 9.08011 5.91996 9.89344 5.91996 10.9601C5.91996 11.7068 6.15996 12.3334 6.63996 12.8401C7.14663 13.3201 7.75996 13.7201 8.47996 14.0401C9.22663 14.3334 10.2666 14.6801 11.6 15.0801C13.4133 15.6134 14.8933 16.1468 16.04 16.6801C17.1866 17.2134 18.1733 18.0134 19 19.0801C19.8266 20.1468 20.24 21.5468 20.24 23.2801C20.24 24.7734 19.8533 26.1601 19.08 27.4401C18.3066 28.7201 17.1733 29.7468 15.68 30.5201C14.1866 31.2668 12.4133 31.6401 10.36 31.6401ZM30.815 13.8001V24.5201C30.815 25.2668 30.9883 25.8134 31.335 26.1601C31.7083 26.4801 32.3216 26.6401 33.175 26.6401H35.775V31.3601H32.255C27.535 31.3601 25.175 29.0668 25.175 24.4801V13.8001H22.535V9.20011H25.175V3.72011H30.815V9.20011H35.775V13.8001H30.815ZM60.2028 9.20011L46.4828 41.8401H40.5228L45.3228 30.8001L36.4428 9.20011H42.7228L48.4428 24.6801L54.2428 9.20011H60.2028ZM68.0215 1.76011V31.3601H62.4215V1.76011H68.0215ZM75.5943 6.56011C74.6077 6.56011 73.781 6.25344 73.1143 5.64011C72.4743 5.00011 72.1543 4.21344 72.1543 3.28011C72.1543 2.34677 72.4743 1.57344 73.1143 0.960105C73.781 0.320106 74.6077 0.000105858 75.5943 0.000105858C76.581 0.000105858 77.3943 0.320106 78.0343 0.960105C78.701 1.57344 79.0343 2.34677 79.0343 3.28011C79.0343 4.21344 78.701 5.00011 78.0343 5.64011C77.3943 6.25344 76.581 6.56011 75.5943 6.56011ZM78.3543 9.20011V31.3601H72.7543V9.20011H78.3543ZM81.6471 20.2401C81.6471 18.0268 82.1005 16.0668 83.0071 14.3601C83.9405 12.6268 85.1938 11.2801 86.7671 10.3201C88.3405 9.36011 90.0738 8.88011 91.9671 8.88011C93.5405 8.88011 94.9271 9.18677 96.1271 9.80011C97.3538 10.3868 98.3405 11.1468 99.0871 12.0801V9.20011H104.727V41.9201H99.0871V28.3201C98.3405 29.2801 97.3405 30.0801 96.0871 30.7201C94.8338 31.3601 93.4205 31.6801 91.8471 31.6801C89.9805 31.6801 88.2605 31.2001 86.6871 30.2401C85.1405 29.2534 83.9138 27.8934 83.0071 26.1601C82.1005 24.4268 81.6471 22.4534 81.6471 20.2401ZM99.0871 20.2801C99.0871 18.9201 98.8071 17.7468 98.2471 16.7601C97.6871 15.7734 96.9538 15.0268 96.0471 14.5201C95.1671 14.0134 94.2205 13.7601 93.2071 13.7601C92.2205 13.7601 91.2738 14.0134 90.3671 14.5201C89.4871 15.0268 88.7671 15.7734 88.2071 16.7601C87.6471 17.7201 87.3671 18.8801 87.3671 20.2401C87.3671 21.6001 87.6471 22.7868 88.2071 23.8001C88.7671 24.7868 89.4871 25.5334 90.3671 26.0401C91.2738 26.5468 92.2205 26.8001 93.2071 26.8001C94.2205 26.8001 95.1671 26.5468 96.0471 26.0401C96.9538 25.5334 97.6871 24.7868 98.2471 23.8001C98.8071 22.8134 99.0871 21.6401 99.0871 20.2801ZM130.317 9.20011V31.3601H124.677V28.5601C123.957 29.5201 123.01 30.2801 121.837 30.8401C120.69 31.3734 119.437 31.6401 118.077 31.6401C116.343 31.6401 114.81 31.2801 113.477 30.5601C112.143 29.8134 111.09 28.7334 110.317 27.3201C109.57 25.8801 109.197 24.1734 109.197 22.2001V9.20011H114.797V21.4001C114.797 23.1601 115.237 24.5201 116.117 25.4801C116.997 26.4134 118.197 26.8801 119.717 26.8801C121.263 26.8801 122.477 26.4134 123.357 25.4801C124.237 24.5201 124.677 23.1601 124.677 21.4001V9.20011H130.317ZM155.642 19.8001C155.642 20.6001 155.588 21.3201 155.482 21.9601H139.282C139.415 23.5601 139.975 24.8134 140.962 25.7201C141.948 26.6268 143.162 27.0801 144.602 27.0801C146.682 27.0801 148.162 26.1868 149.042 24.4001H155.082C154.442 26.5334 153.215 28.2934 151.402 29.6801C149.588 31.0401 147.362 31.7201 144.722 31.7201C142.588 31.7201 140.668 31.2534 138.962 30.3201C137.282 29.3601 135.962 28.0134 135.002 26.2801C134.068 24.5468 133.602 22.5468 133.602 20.2801C133.602 17.9868 134.068 15.9734 135.002 14.2401C135.935 12.5068 137.242 11.1734 138.922 10.2401C140.602 9.30677 142.535 8.84011 144.722 8.84011C146.828 8.84011 148.708 9.29344 150.362 10.2001C152.042 11.1068 153.335 12.4001 154.242 14.0801C155.175 15.7334 155.642 17.6401 155.642 19.8001ZM149.842 18.2001C149.815 16.7601 149.295 15.6134 148.282 14.7601C147.268 13.8801 146.028 13.4401 144.562 13.4401C143.175 13.4401 142.002 13.8668 141.042 14.7201C140.108 15.5468 139.535 16.7068 139.322 18.2001H149.842Z" fill="white"/>
</svg>