<svg width="98" height="41" viewBox="0 0 98 41" fill="none" xmlns="http://www.w3.org/2000/svg">
<g clip-path="url(#clip0_13_500)">
<path d="M92.1789 39.0633L77.8938 0.0340126L77.8841 0.00817871H77.6021L74.6605 8.02856L69.3051 22.6299L69.2926 22.6183C67.4366 20.9931 64.8179 19.9771 61.52 19.5988L60.5142 19.4958L61.512 19.3688C66.9506 18.399 70.6064 14.9904 70.6064 10.8838C70.6064 5.25237 65.269 1.32169 57.6235 1.32169H41.7158V1.60682H46.3381V30.7054L35.1122 0.033917L35.1021 0.00817871H34.8201L31.8784 8.02856L20.5325 38.9629L20.4627 38.9709C20.2688 38.9946 20.077 39.0135 19.8872 39.0277C19.6018 39.0499 19.3181 39.0632 19.0334 39.0632H7.56929L29.3611 1.60672L29.5231 1.32523H2.87082V12.9122H3.15361C3.20375 7.26837 6.51592 1.60672 13.8339 1.60672H22.6624L0.705933 39.3439H30.2856V28.2427H30.0028C29.9642 33.1619 27.1542 37.8342 21.0436 38.8892L20.8493 38.9221L25.503 26.2286H38.5396L43.2371 39.0633H38.6032V39.344H56.7911V39.0633H52.1374V19.7027H57.5071C62.9716 19.7027 66.1057 22.1254 66.1057 26.3474V29.7817C66.1057 30.1601 66.1316 30.7133 66.1603 31.176V31.1929L63.2741 39.0615H59.5036V39.3421H67.3084V39.0615H63.5785L66.2068 31.8963C66.2122 31.9656 66.2149 32.0073 66.2149 32.0073L66.2874 32.653L66.3573 33.0801C66.7958 35.7222 67.8141 37.6645 69.383 38.8527L69.6086 39.0153C70.8006 39.8377 72.2818 40.2542 74.0135 40.2542C76.3073 40.2542 77.8366 39.6867 79.0994 38.3511L78.9339 38.1965C77.7704 39.2622 76.7941 39.6939 75.5707 39.6939C73.4863 39.6939 72.3955 37.1849 72.3955 34.7107V29.8989C72.4065 28.705 72.2181 27.5175 71.8379 26.3847L71.786 26.2355V26.2302H81.3214L86.0189 39.0651H81.385V39.3457H97.1244V39.0651L92.1789 39.0633ZM25.6068 25.9478L32.0289 8.43894L38.4367 25.9478H25.6068ZM52.1402 19.4211V1.60672H56.2389C61.7142 1.60672 64.6048 4.83673 64.6048 10.9443C64.6048 17.4398 62.9456 19.4211 57.5071 19.4211H52.1402ZM71.6749 25.9478L71.6471 25.8786C71.2234 24.8544 70.6065 23.9199 69.8295 23.1254L69.561 22.859L69.5324 22.8324L74.8072 8.43894L81.2149 25.9478H71.6749Z" fill="white"/>
</g>
<defs>
<clipPath id="clip0_13_500">
<rect width="96.4184" height="40.2626" fill="white" transform="translate(0.705933)"/>
</clipPath>
</defs>
</svg>
