<svg width="166" height="39" viewBox="0 0 166 39" fill="none" xmlns="http://www.w3.org/2000/svg">
<g clip-path="url(#clip0_13_502)">
<path d="M150.162 11.9658L149.853 12.0635C148.652 9.58044 146.936 7.60383 144.706 6.13363C142.509 4.6634 139.747 3.92829 136.418 3.92829C134.565 3.92829 132.797 4.30399 131.116 5.0554C129.434 5.77422 127.959 6.80337 126.689 8.14286C125.453 9.4497 124.458 11.0343 123.703 12.8965C122.948 14.7588 122.571 16.8171 122.571 19.0714C122.571 21.3257 122.948 23.384 123.703 25.2463C124.458 27.1086 125.453 28.7094 126.689 30.049C127.959 31.3558 129.434 32.3686 131.116 33.0874C132.797 33.8062 134.565 34.1655 136.418 34.1655C139.712 34.1655 142.389 33.6754 144.448 32.6953C146.542 31.6825 148.309 30.147 149.75 28.0887L150.059 28.1864L149.957 31.3229C149.167 32.107 148.258 32.8094 147.229 33.4301C146.199 34.0182 145.084 34.5246 143.883 34.9494C142.716 35.3414 141.497 35.6355 140.228 35.8315C138.958 36.0604 137.688 36.1748 136.418 36.1748C133.776 36.1748 131.254 35.7664 128.851 34.9496C126.449 34.1328 124.339 32.9893 122.52 31.5191C120.701 30.0163 119.259 28.2194 118.196 26.1284C117.132 24.0048 116.6 21.6524 116.6 19.0714C116.6 16.4903 117.132 14.1544 118.196 12.0634C119.259 9.93975 120.701 8.12649 122.52 6.62365C124.338 5.12075 126.449 3.97725 128.851 3.19315C131.254 2.37634 133.776 1.96794 136.418 1.96794C137.688 1.96794 138.958 2.06595 140.228 2.26198C141.497 2.458 142.716 2.76839 143.883 3.19315C145.084 3.5852 146.199 4.09161 147.229 4.71239C148.258 5.30047 149.167 5.98657 149.957 6.77067L150.162 11.9658ZM36.7274 21.3262C36.3501 21.4894 35.9898 21.7018 35.6464 21.9636C35.303 22.2247 35.1313 22.5841 35.1313 23.0418V29.0696C33.4841 31.3239 31.3735 33.0718 28.7996 34.3133C26.2258 35.5549 23.3774 36.1756 20.2544 36.1756C17.612 36.1756 15.0897 35.7672 12.6874 34.9504C10.2851 34.1336 8.17459 32.9902 6.35572 31.52C4.53688 30.0171 3.09552 28.2202 2.03164 26.1292C0.967822 24.0056 0.435913 21.6533 0.435913 19.0722C0.435913 16.4911 0.967822 14.1552 2.03164 12.0642C3.09552 9.94056 4.53688 8.1273 6.35572 6.62446C8.17459 5.12156 10.2851 3.97807 12.6874 3.19399C15.0896 2.37716 17.612 1.96874 20.2544 1.96874C21.5242 1.96874 22.794 2.06675 24.0638 2.26278C25.3335 2.45881 26.5518 2.7692 27.7187 3.19395C28.9198 3.586 30.0351 4.09242 31.0646 4.7132C32.0941 5.30128 33.0036 5.98737 33.793 6.77148L33.9992 11.9662L33.6903 12.0639C32.4892 9.5808 30.7733 7.60417 28.5427 6.13397C26.3463 4.66374 23.5837 3.92863 20.2548 3.92863C18.4017 3.92863 16.6343 4.30434 14.9528 5.05578C13.2712 5.77457 11.7955 6.80371 10.5257 8.1432C9.29025 9.45007 8.29506 11.0346 7.54013 12.8969C6.78508 14.7592 6.40755 16.8175 6.40755 19.0718C6.40755 21.2934 6.7679 23.3354 7.4886 25.1976C8.24362 27.0599 9.23885 28.6608 10.4743 30.0004C11.744 31.3072 13.2197 32.3363 14.9013 33.0878C16.5829 33.8065 18.3674 34.1659 20.2548 34.1659C23.8239 34.1659 26.8782 33.5125 29.4178 32.2057V23.0413C29.4178 22.5841 29.2291 22.2247 28.8518 21.9632C28.5084 21.702 28.1652 21.4895 27.8222 21.3258L27.8693 21.081C28.0407 21.1109 28.3495 21.1435 28.7959 21.1787C29.2422 21.2086 29.7055 21.2411 30.1858 21.2764H34.613C35.0248 21.2465 35.4195 21.2139 35.797 21.1787C36.1743 21.1488 36.4659 21.1163 36.6719 21.081L36.7274 21.3262ZM74.0127 2.99754C73.6693 3.1607 73.3261 3.37316 72.9831 3.63492C72.6398 3.8961 72.4512 4.38616 72.4173 5.10512C72.3859 5.88923 72.3517 6.88571 72.3146 8.09457C72.3146 9.27076 72.2989 10.6103 72.2675 12.1131C72.2675 13.616 72.2518 15.2496 72.2205 17.0138V22.5026C72.1891 24.6262 71.9144 26.4395 71.3965 27.9424C70.8817 29.4452 70.1954 30.7031 69.3375 31.7159C68.5139 32.7287 67.5873 33.5292 66.5577 34.1173C65.5625 34.7053 64.5673 35.1464 63.572 35.4404C62.6111 35.7674 61.7017 35.9634 60.8438 36.0285C59.9859 36.1265 59.3166 36.1755 58.8362 36.1755C56.8801 36.1755 54.9926 35.9305 53.1737 35.4404C51.3548 34.9832 49.7591 34.2318 48.3864 33.1861C47.0137 32.1406 45.9155 30.7848 45.0919 29.1185C44.2683 27.4523 43.8564 25.4267 43.8564 23.0417V17.5039V12.4071C43.8564 10.8389 43.8407 9.43402 43.8093 8.19254C43.8093 6.91834 43.7937 5.88919 43.7623 5.10508C43.7309 4.38629 43.5422 3.89622 43.1963 3.63488C42.8529 3.37371 42.5098 3.16125 42.1668 2.9975L42.2139 2.75276C42.3853 2.78264 42.66 2.8152 43.0379 2.85044C43.4497 2.88032 43.8615 2.91288 44.2733 2.94811C44.7196 2.94811 45.1486 2.96305 45.5603 2.99293H47.4134C47.8252 2.96305 48.2542 2.94811 48.7003 2.94811C49.1466 2.91823 49.5584 2.88567 49.9357 2.85044C50.3475 2.82056 50.6391 2.788 50.8105 2.75276L50.8576 2.9975C50.4803 3.16066 50.12 3.37312 49.7766 3.63488C49.4678 3.89605 49.2961 4.38612 49.2615 5.10508C49.2301 5.88919 49.1959 6.91834 49.1589 8.19254V23.0416C49.1589 26.6028 50.034 29.2329 51.7842 30.9317C53.5344 32.6306 56.1254 33.4801 59.5572 33.4801C60.5524 33.4801 61.6849 33.3656 62.9547 33.1368C64.2245 32.8756 65.4085 32.3528 66.5066 31.5685C67.6391 30.7844 68.5828 29.6736 69.3379 28.2361C70.1272 26.7985 70.5218 24.8873 70.5218 22.5023C70.5218 19.9213 70.5061 17.716 70.4747 15.8864C70.4747 14.0241 70.459 12.4396 70.4277 11.1327C70.4277 9.79317 70.412 8.64967 70.3806 7.70218C70.3492 6.75475 70.315 5.88896 70.2779 5.10483C70.2465 4.38604 70.0579 3.89597 69.712 3.63463C69.3686 3.37346 69.0254 3.16098 68.6824 2.9972L68.7296 2.75251C69.1068 2.81763 69.5358 2.88307 70.0164 2.94883C70.4967 2.97871 70.9428 2.99365 71.3549 2.99365C71.7322 2.99365 72.1611 2.97871 72.6417 2.94883C73.1565 2.88371 73.6027 2.81827 73.9802 2.75251L74.0127 2.99754ZM111.366 11.9658L111.057 12.0635C109.856 9.58044 108.14 7.60383 105.909 6.13363C103.713 4.6634 100.95 3.92829 97.6217 3.92829C95.7685 3.92829 94.0011 4.30399 92.3195 5.0554C90.6379 5.77422 89.1622 6.80337 87.8925 8.14286C86.6571 9.4497 85.6618 11.0343 84.9068 12.8965C84.1519 14.7589 83.7744 16.8171 83.7744 19.0714C83.7744 21.3257 84.1519 23.384 84.9069 25.2463C85.6619 27.1086 86.6572 28.7094 87.8926 30.049C89.1623 31.3558 90.638 32.3686 92.3195 33.0874C94.0012 33.8062 95.7685 34.1655 97.6217 34.1655C100.916 34.1655 103.593 33.6754 105.652 32.6953C107.745 31.6825 109.513 30.147 110.954 28.0887L111.263 28.1864L111.16 31.3229C110.371 32.1069 109.462 32.8093 108.432 33.4301C107.403 34.0182 106.287 34.5246 105.086 34.9493C103.919 35.3414 102.701 35.6354 101.431 35.8314C100.161 36.0603 98.8917 36.1748 97.6219 36.1748C94.9794 36.1748 92.4571 35.7664 90.0548 34.9496C87.6526 34.1328 85.542 32.9893 83.7232 31.5191C81.9043 30.0162 80.4629 28.2193 79.3992 26.1283C78.3353 24.0047 77.8033 21.6524 77.8033 19.0713C77.8033 16.4903 78.3353 14.1543 79.3992 12.0634C80.4629 9.93971 81.9043 8.12645 83.7232 6.62361C85.542 5.12071 87.6526 3.97721 90.0548 3.1931C92.4571 2.3763 94.9795 1.9679 97.6219 1.9679C98.8917 1.9679 100.161 2.06591 101.431 2.26194C102.701 2.45796 103.919 2.76835 105.086 3.1931C106.287 3.58516 107.403 4.09157 108.432 4.71235C109.462 5.30043 110.371 5.98652 111.16 6.77063L111.366 11.9658ZM165.678 35.3421C165.506 35.3122 165.215 35.2797 164.803 35.2445C164.425 35.2445 164.014 35.2295 163.567 35.1996C163.121 35.1996 162.692 35.1847 162.28 35.1548H159.192C158.78 35.1847 158.368 35.2172 157.957 35.2525C157.579 35.2823 157.288 35.3149 157.082 35.3501L157.035 35.1538C157.378 34.9906 157.721 34.7781 158.064 34.5164C158.408 34.2552 158.596 33.7651 158.63 33.0462C158.662 32.2621 158.677 31.4453 158.677 30.5958C158.709 29.7464 158.724 28.7825 158.724 27.7044V24.0289V19.0792V14.1295V10.405C158.724 9.32684 158.709 8.37936 158.677 7.56256C158.677 6.71311 158.662 5.89633 158.63 5.11223C158.599 4.39344 158.41 3.90337 158.064 3.64203C157.721 3.34799 157.378 3.11938 157.035 2.95619L157.082 2.75991C157.288 2.82503 157.579 2.87403 157.957 2.90693C158.368 2.90693 158.78 2.92187 159.192 2.95175C159.638 2.98163 160.067 2.99657 160.479 2.99657H162.28C162.692 2.96669 163.121 2.95175 163.567 2.95175C164.014 2.92187 164.425 2.88931 164.803 2.85407C165.215 2.82419 165.506 2.79164 165.678 2.7564L165.725 2.95276C165.347 3.11592 164.987 3.34452 164.644 3.63856C164.335 3.89973 164.163 4.3898 164.129 5.10876C164.097 5.89287 164.063 6.70964 164.026 7.55909V30.5924C164.057 31.4418 164.092 32.2586 164.129 33.0427C164.16 33.7615 164.332 34.2516 164.644 34.5129C164.987 34.7741 165.347 34.9865 165.725 35.1503L165.678 35.3421Z" fill="white"/>
</g>
<defs>
<clipPath id="clip0_13_502">
<rect width="165.289" height="38.1436" fill="white" transform="translate(0.435913)"/>
</clipPath>
</defs>
</svg>
