<svg width="206" height="34" viewBox="0 0 206 34" fill="none" xmlns="http://www.w3.org/2000/svg">
<g clip-path="url(#clip0_13_504)">
<path fill-rule="evenodd" clip-rule="evenodd" d="M0.0362854 0.95542L3.14304 4.45904V30.1023L0.840451 33.4575L14.9424 33.4792L12.4006 30.3918L12.1367 21.1568L25.734 21.2306C29.8554 19.8585 34.0922 16.933 34.2958 11.0188C34.2307 5.28743 30.7316 1.6114 26.669 0.880038L0.0362854 0.95542ZM11.6328 2.59536V19.0694L22.0653 19.1447C24.4391 17.2305 26.2386 15.7646 26.1666 11.1688C26.1326 7.42136 25.3416 4.15351 21.8494 2.59616L11.6328 2.59536ZM40.822 0.768571L43.9287 4.27299V29.9162L41.6261 33.2731L55.7273 33.2932L53.1855 30.2057L52.9216 20.9707H52.9781L67.5467 33.3974L79.6371 33.2988L68.6024 23.7542H59.3905L56.1437 20.9884L66.5189 21.0445C70.6403 19.6724 74.8763 16.747 75.0807 10.8328C75.0164 5.10219 71.5172 1.42535 67.4538 0.694793L40.822 0.768571ZM52.4177 2.40851V18.8825L62.8502 18.9579C65.2248 17.0437 67.0235 15.5778 66.9515 10.9811C66.9175 7.23451 66.1265 3.96586 62.6343 2.40851H52.4177ZM91.277 0.731682H103.436L119.264 30.1023C119.949 32.3701 121.998 32.0903 123.365 33.0846H108.041L110.343 32.3645L110.199 30.1777L106.242 23.8408L92.7878 23.9162L89.9101 30.0293C89.8141 30.7246 89.0703 31.2522 89.6222 32.1159L90.7019 33.1592L84.0828 33.0101L86.9613 32.1159L97.8241 9.23051V7.66435L93.2344 1.54163L91.277 0.731682ZM93.6384 21.824L99.2265 11.2442L105.045 21.7646L93.6384 21.824ZM173.499 0.795836H185.658L201.486 30.1664C202.171 32.4343 204.22 32.1544 205.588 33.1488H190.262L192.565 32.4271L192.421 30.2402L188.464 23.905L175.01 23.9804L172.132 30.0919C172.036 30.7887 171.293 31.3164 171.844 32.1801L172.923 33.2234L166.305 33.0742L169.184 32.1801L180.046 9.29467V7.7277L175.457 1.60578L173.499 0.795836ZM175.861 21.8889L181.449 11.3091L187.268 21.828L175.861 21.8889ZM127.57 0.426147L149.231 0.545635C156.206 2.17916 160.644 6.4406 162.02 13.8745L161.962 19.6724C160.691 26.2963 156.524 30.8665 149.174 33.1801L127.455 33.241L127.452 32.5393C130.754 32.2899 131.018 31.913 131.026 29.9531V3.53362C130.989 2.08453 130.7 1.18237 127.512 1.08293L127.57 0.426147ZM139.883 2.68678L139.862 31.2707C142.719 31.2803 145.197 31.5482 146.597 30.8336C149.77 29.3846 151.243 27.1592 151.378 25.0686L151.302 8.19041C151.303 5.49032 148.373 3.58414 146.681 3.08775C145.471 2.63947 143.057 2.62102 139.883 2.68678Z" fill="white" stroke="white" stroke-width="1.08517" stroke-miterlimit="2.613"/>
</g>
<defs>
<clipPath id="clip0_13_504">
<rect width="205.551" height="33.9054" fill="white" transform="translate(0.0363159)"/>
</clipPath>
</defs>
</svg>
