<svg width="65" height="57" viewBox="0 0 65 57" fill="none" xmlns="http://www.w3.org/2000/svg">
<path d="M60.8332 2.15507C55.2008 -2.26627 44.6287 1.21286 37.213 2.911C34.9229 -0.952122 29.3493 -0.955636 27.0572 2.911C19.2415 1.12009 8.99935 -2.21129 3.43708 2.15507C1.15636 3.94548 0 6.79257 0 10.6172C0 20.5165 7.57059 28.955 14.3773 34.5404C13.2932 38.6724 16.844 42.562 21.0647 41.8534C21.2882 43.2351 21.9296 44.5614 22.9926 45.6245L30.8035 53.4356C31.5409 54.1728 32.7337 54.1686 33.4664 53.4356C33.4792 53.4228 41.3003 45.6017 41.2861 45.6158C42.344 44.5544 42.9824 43.2313 43.2052 41.8534C47.443 42.5648 50.9729 38.6571 49.8928 34.5405C56.6996 28.955 64.2703 20.5168 64.2703 10.6172C64.2703 6.79257 63.1139 3.94548 60.8332 2.15507ZM32.1351 3.77589C33.3118 3.77589 34.2691 4.73316 34.2691 5.90986C34.2691 7.08656 33.3118 8.04384 32.1351 8.04384C30.9584 8.04384 30.0012 7.08656 30.0012 5.90986C30.0012 4.73316 30.9584 3.77589 32.1351 3.77589ZM17.9505 36.0366C17.9505 34.8599 18.9078 33.9026 20.0845 33.9026C21.2612 33.9026 22.2184 34.8599 22.2184 36.0366C22.2184 37.2133 21.2612 38.1705 20.0845 38.1705C18.9078 38.1705 17.9505 37.2133 17.9505 36.0366ZM38.6148 42.9617L32.1351 49.4414L25.6555 42.9618C24.432 41.7382 24.432 39.7474 25.6555 38.5238C26.879 37.3004 28.8699 37.3 30.0936 38.5238L30.8037 39.2339C31.5388 39.9688 32.7315 39.9692 33.4665 39.2339L34.1766 38.5238C35.4001 37.3004 37.3909 37.3004 38.6146 38.5238C39.8383 39.7473 39.8383 41.738 38.6148 42.9617ZM44.1858 38.1705C43.0091 38.1705 42.0519 37.2133 42.0519 36.0366C42.0519 34.8599 43.0091 33.9026 44.1858 33.9026C45.3625 33.9026 46.3198 34.8599 46.3198 36.0366C46.3198 37.2133 45.3625 38.1705 44.1858 38.1705ZM47.8044 31.3819C44.6079 28.8909 39.8662 30.2972 38.5819 34.1949C36.4291 33.4802 33.9916 33.8516 32.1351 35.3095C30.2785 33.8512 27.8411 33.4799 25.6883 34.1949C24.4053 30.3007 19.6647 28.889 16.4657 31.3819C10.3824 26.3311 3.76584 18.927 3.76584 10.6172C3.76584 7.9709 4.41896 6.17184 5.76248 5.11728C9.7977 1.94933 20.0714 5.17816 26.2765 6.59549C26.6174 9.5267 29.1139 11.8097 32.1351 11.8097C35.1564 11.8097 37.6529 9.52657 37.9938 6.59549C44.5802 5.09104 54.5237 1.9895 58.5078 5.11728C59.8513 6.17184 60.5045 7.9709 60.5045 10.6172C60.5045 18.9271 53.8879 26.3311 47.8044 31.3819Z" fill="white"/>
<path d="M16.8496 45.4834C16.5207 44.4969 15.4549 43.9641 14.4679 44.2926L11.4552 45.2968C10.4687 45.6257 9.93555 46.6919 10.2643 47.6785C10.5274 48.4676 11.262 48.9666 12.0504 48.9666C12.4647 48.9666 12.3707 48.9613 15.6589 47.8653C16.6454 47.5363 17.1785 46.4701 16.8496 45.4834Z" fill="white"/>
<path d="M19.0401 51.5417L16.0274 53.5502C15.1621 54.127 14.9283 55.296 15.5051 56.1613C16.0838 57.0293 17.2536 57.2588 18.1162 56.6835L21.1289 54.675C21.9941 54.0982 22.228 52.9292 21.6512 52.0639C21.0743 51.1985 19.9051 50.9646 19.0401 51.5417Z" fill="white"/>
<path d="M52.815 45.2968L49.8024 44.2926C48.8161 43.964 47.7495 44.4971 47.4206 45.4835C47.0918 46.47 47.6249 47.5364 48.6115 47.8652L51.6241 48.8695C52.6105 49.1982 53.6769 48.6651 54.0059 47.6786C54.3348 46.6919 53.8017 45.6257 52.815 45.2968Z" fill="white"/>
<path d="M48.2429 53.5502L45.2302 51.5418C44.3648 50.965 43.1958 51.1987 42.6191 52.064C42.0422 52.9292 42.2761 54.0983 43.1413 54.6751L46.154 56.6835C47.0179 57.2594 48.1873 57.0282 48.7651 56.1613C49.342 55.2961 49.1083 54.127 48.2429 53.5502Z" fill="white"/>
<path d="M28.9003 23.3905C28.5714 22.4041 27.5054 21.8709 26.5185 22.1996C25.532 22.5285 24.9989 23.5947 25.3277 24.5813L26.3319 27.594C26.595 28.3831 27.3296 28.8821 28.118 28.8821C29.3995 28.8821 30.3114 27.6238 29.9045 26.4033L28.9003 23.3905Z" fill="white"/>
<path d="M37.7516 22.1995C36.7652 21.871 35.6987 22.4039 35.3699 23.3904L34.3656 26.4031C33.958 27.6262 34.8734 28.8819 36.1521 28.8819C36.9405 28.8819 37.6752 28.3828 37.9383 27.5939L38.9425 24.5812C39.2714 23.5947 38.7383 22.5284 37.7516 22.1995Z" fill="white"/>
</svg>
