<svg width="57" height="57" viewBox="0 0 57 57" fill="none" xmlns="http://www.w3.org/2000/svg">
<path d="M55.5387 6.1887L50.8149 1.465C48.8614 -0.48839 45.6827 -0.488278 43.7294 1.465L40.254 4.94056C38.658 3.83481 36.5502 3.72659 34.8538 4.73769C32.0573 6.40437 29.3295 8.24932 26.7359 10.2225C22.6371 10.6153 18.6458 12.3778 15.5135 15.5101C12.3813 18.6422 10.6189 22.6334 10.2261 26.7323C8.25362 29.325 6.40868 32.0528 4.74143 34.8501C3.73022 36.5466 3.83834 38.6543 4.9443 40.2504L1.46863 43.7259C-0.489433 45.6839 -0.489656 48.853 1.46863 50.8113L6.19223 55.535C8.1455 57.4883 11.3242 57.4884 13.2777 55.535L16.7552 52.0574C18.3749 53.1798 20.4808 53.2595 22.1557 52.2609C24.9514 50.5946 27.6784 48.7501 30.2714 46.7775C34.3703 46.3847 38.3615 44.6222 41.4938 41.4899C44.626 38.3578 46.3884 34.3667 46.7812 30.2677C48.7544 27.6741 50.5994 24.9463 52.2661 22.1496C53.2772 20.4533 53.169 18.3455 52.0632 16.7494L55.5386 13.274C57.4968 11.3161 57.497 8.147 55.5387 6.1887ZM10.9159 53.1733C10.2648 53.8247 9.20515 53.8244 8.55402 53.1733L3.83043 48.4496C3.17763 47.7968 3.17763 46.7407 3.83043 46.0878L7.24719 42.6711L14.3327 49.7566L10.9159 53.1733ZM20.4454 49.392C19.8101 49.7708 18.9546 49.6514 18.4114 49.1084L7.89454 38.5945C7.35108 38.0513 7.23172 37.1958 7.61039 36.5602C8.51795 35.0378 9.48117 33.5373 10.4889 32.0687C11.1679 35.5232 12.8422 38.8192 15.5133 41.4904C18.1845 44.1616 21.4804 45.836 24.9351 46.5148C23.4669 47.5221 21.9671 48.4851 20.4454 49.392ZM39.1319 39.1284C33.2715 44.9888 23.7359 44.9889 17.8753 39.1284C12.0149 33.2678 12.0149 23.7324 17.8753 17.8719C23.736 12.0111 33.2717 12.0118 39.1319 17.8719C44.9922 23.7324 44.9922 33.2678 39.1319 39.1284ZM49.3969 20.44C48.4895 21.9623 47.5262 23.4628 46.5181 24.9319C45.8393 21.4772 44.1649 18.1812 41.4937 15.5101C38.8225 12.8389 35.5265 11.1645 32.0719 10.4856C33.5408 9.47754 35.0414 8.51431 36.5637 7.60698C37.1992 7.22831 38.0548 7.34756 38.5979 7.8908L49.1127 18.4056C49.6562 18.949 49.7755 19.8044 49.3969 20.44ZM53.1767 10.9124L49.76 14.3291L42.6745 7.24356L46.0912 3.8268C46.7425 3.17556 47.8019 3.17556 48.4531 3.8268L53.1767 8.5505C53.8295 9.20341 53.8294 10.2596 53.1767 10.9124Z" fill="white"/>
<path d="M36.77 20.2336C36.1178 19.5813 35.0603 19.5813 34.4082 20.2336L27.3227 27.3191C26.671 27.9706 26.6705 29.0287 27.3227 29.6809L32.0464 34.4045C32.6985 35.0567 33.7561 35.0567 34.4082 34.4045C35.0605 33.7522 35.0605 32.6949 34.4082 32.0427L30.8655 28.5L36.7701 22.5954C37.4223 21.9431 37.4223 20.8858 36.77 20.2336Z" fill="white"/>
</svg>
