<svg width="102" height="115" viewBox="0 0 102 115" fill="none" xmlns="http://www.w3.org/2000/svg">
<path d="M99.5806 24.9641V44.1337C99.5806 75.2334 79.9516 102.87 50.7903 112.827C21.6291 102.87 2 75.2334 2 44.1337V24.9641L7.68769 23.5275C17.0891 21.1529 23.6846 12.6183 23.6846 2.82715H77.8961C77.8961 12.6183 84.4916 21.1529 93.893 23.5275L99.5806 24.9641Z" stroke="white" stroke-width="4" stroke-miterlimit="10" stroke-linecap="round" stroke-linejoin="round"/>
<path d="M50.7905 83.3871C66.7586 83.3871 79.7033 70.3086 79.7033 54.1755C79.7033 38.0424 66.7586 24.9639 50.7905 24.9639C34.8224 24.9639 21.8777 38.0424 21.8777 54.1755C21.8777 70.3086 34.8224 83.3871 50.7905 83.3871Z" stroke="white" stroke-width="4" stroke-miterlimit="10" stroke-linecap="round" stroke-linejoin="round"/>
<path d="M55.7004 43.5065C55.7004 43.5065 52.9918 40.9824 48.8171 42.2531C44.9837 43.4198 44.0316 48.7192 46.6367 50.7834C48.1325 51.9687 50.3831 52.9432 53.4163 54.0265C60.2051 56.4511 57.6956 66.124 50.79 66.1706C48.095 66.1886 46.8352 66.0159 44.4678 64.4512" stroke="white" stroke-width="4" stroke-miterlimit="10" stroke-linecap="round" stroke-linejoin="round"/>
<path d="M50.7903 68.7818V66.1719" stroke="white" stroke-width="4" stroke-miterlimit="10" stroke-linecap="round" stroke-linejoin="round"/>
<path d="M50.79 41.9049V39.5693" stroke="white" stroke-width="4" stroke-miterlimit="10" stroke-linecap="round" stroke-linejoin="round"/>
</svg>