<svg width="127" height="114" viewBox="0 0 127 114" fill="none" xmlns="http://www.w3.org/2000/svg">
<path d="M27.4635 111.827C33.0886 111.827 37.6487 107.267 37.6487 101.642C37.6487 96.0171 33.0886 91.457 27.4635 91.457C21.8384 91.457 17.2783 96.0171 17.2783 101.642C17.2783 107.267 21.8384 111.827 27.4635 111.827Z" stroke="white" stroke-width="3.17419" stroke-miterlimit="10" stroke-linecap="round" stroke-linejoin="round"/>
<path d="M99.2682 111.827C104.893 111.827 109.453 107.267 109.453 101.642C109.453 96.0171 104.893 91.457 99.2682 91.457C93.6431 91.457 89.083 96.0171 89.083 101.642C89.083 107.267 93.6431 111.827 99.2682 111.827Z" stroke="white" stroke-width="3.17419" stroke-miterlimit="10" stroke-linecap="round" stroke-linejoin="round"/>
<path d="M89.0829 101.642H37.6477" stroke="white" stroke-width="3.17419" stroke-miterlimit="10" stroke-linecap="round" stroke-linejoin="round"/>
<path d="M17.2778 101.641H2V76.1777H124.731V101.641H109.454" stroke="white" stroke-width="3.17419" stroke-miterlimit="10" stroke-linecap="round" stroke-linejoin="round"/>
<path d="M68.6569 27.5449H83.9907V76.1792H2V27.5449H17.0792" stroke="white" stroke-width="3.17419" stroke-miterlimit="10" stroke-linecap="round" stroke-linejoin="round"/>
<path d="M33.7749 27.5497L40.368 34.1428L51.6527 22.8584" stroke="white" stroke-width="3.17419" stroke-miterlimit="10" stroke-linecap="round" stroke-linejoin="round"/>
<path d="M42.9948 52.4984C56.9873 52.4984 68.3305 41.1553 68.3305 27.1628C68.3305 13.1703 56.9873 1.82715 42.9948 1.82715C29.0023 1.82715 17.6592 13.1703 17.6592 27.1628C17.6592 41.1553 29.0023 52.4984 42.9948 52.4984Z" stroke="white" stroke-width="3.17419" stroke-miterlimit="10" stroke-linecap="round" stroke-linejoin="round"/>
<path d="M124.731 76.1794H83.9907V47.4062H106.907L124.731 76.1794Z" stroke="white" stroke-width="3.17419" stroke-miterlimit="10" stroke-linecap="round" stroke-linejoin="round"/>
<path d="M99.2688 65.9678V76.1787" stroke="white" stroke-width="3.17419" stroke-miterlimit="10" stroke-linecap="round" stroke-linejoin="round"/>
</svg>
