<svg width="105" height="111" viewBox="0 0 105 111" fill="none" xmlns="http://www.w3.org/2000/svg">
<path fill-rule="evenodd" clip-rule="evenodd" d="M45.976 2.88849L37.2906 9.26979H26.5551C21.9307 9.26979 17.8323 12.2808 16.4035 16.7281L13.0859 27.053L4.40081 33.4343C0.659447 36.1828 -0.905895 41.055 0.523269 45.5023L3.84058 55.8272L0.523269 66.1521C-0.905895 70.5994 0.659447 75.4713 4.40081 78.2201L13.0859 84.601L16.4035 94.9259C17.8323 99.3732 21.9307 102.385 26.5551 102.385H37.2906L45.976 108.766C49.717 111.514 54.7828 111.514 58.5242 108.766L67.2092 102.385H77.9451C82.5691 102.385 86.6675 99.3732 88.0967 94.9259L91.414 84.601L100.099 78.2201C103.84 75.4713 105.406 70.5994 103.977 66.1521L100.659 55.8272L103.977 45.5023C105.406 41.055 103.84 36.1828 100.099 33.4343L91.414 27.053L88.0967 16.7281C86.6675 12.2808 82.5691 9.26979 77.9451 9.26979H67.2092L58.5242 2.88849C54.7828 0.140036 49.717 0.140036 45.976 2.88849ZM47.704 5.29374C50.4149 3.30232 54.0853 3.30232 56.7958 5.29374C60.9098 8.31618 65.8676 11.959 65.8676 11.959C66.1187 12.1435 66.4214 12.2426 66.7319 12.2426H77.9451C81.2955 12.2426 84.265 14.4246 85.3004 17.6468C86.8718 22.5376 88.7656 28.4312 88.7656 28.4312C88.8615 28.7298 89.0485 28.9898 89.2997 29.1743C89.2997 29.1743 94.2575 32.8168 98.3714 35.8396C101.082 37.831 102.216 41.3611 101.181 44.5837C99.6094 49.4741 97.7159 55.3677 97.7159 55.3677C97.62 55.6663 97.62 55.9881 97.7159 56.2863C97.7159 56.2863 99.6094 62.1803 101.181 67.0707C102.216 70.2933 101.082 73.8234 98.3714 75.8148C94.2575 78.8373 89.2997 82.4797 89.2997 82.4797C89.0485 82.6642 88.8615 82.9246 88.7656 83.2232C88.7656 83.2232 86.8718 89.1168 85.3004 94.0073C84.265 97.2298 81.2955 99.4114 77.9451 99.4114C72.8599 99.4114 66.7319 99.4114 66.7319 99.4114C66.4214 99.4114 66.1187 99.5109 65.8676 99.6954C65.8676 99.6954 60.9098 103.338 56.7958 106.36C54.0853 108.352 50.4149 108.352 47.704 106.36C43.5901 103.338 38.6323 99.6954 38.6323 99.6954C38.3811 99.5109 38.0788 99.4114 37.7683 99.4114C37.7683 99.4114 31.6403 99.4114 26.5551 99.4114C23.2043 99.4114 20.2349 97.2298 19.1994 94.0073C17.6281 89.1168 15.7343 83.2232 15.7343 83.2232C15.6387 82.9246 15.4517 82.6642 15.2005 82.4797C15.2005 82.4797 10.2427 78.8373 6.12879 75.8148C3.41793 73.8234 2.28371 70.2933 3.31915 67.0707C4.89049 62.1803 6.78428 56.2863 6.78428 56.2863C6.88024 55.9881 6.88024 55.6663 6.78428 55.3677C6.78428 55.3677 4.89049 49.4741 3.31915 44.5837C2.28371 41.3611 3.41793 37.831 6.12879 35.8396C10.2427 32.8168 15.2005 29.1743 15.2005 29.1743C15.4517 28.9898 15.6387 28.7298 15.7343 28.4312C15.7343 28.4312 17.6281 22.5376 19.1994 17.6468C20.2349 14.4246 23.2043 12.2426 26.5551 12.2426H37.7683C38.0788 12.2426 38.3811 12.1435 38.6323 11.959L47.704 5.29374Z" fill="white"/>
<path fill-rule="evenodd" clip-rule="evenodd" d="M37.5154 42.3285C39.9468 49.7547 47.0817 54.7629 55.6443 52.5432C62.0733 50.8767 66.3089 46.3017 69.0448 41.3717C73.0293 34.192 73.7941 26.3087 73.7941 26.3087C73.847 25.7661 73.6019 25.2377 73.1552 24.9324C72.7086 24.6266 72.1325 24.5927 71.6537 24.8439C66.5326 27.5331 62.2229 26.9519 58.0211 26.3576C54.8929 25.9145 51.8144 25.4625 48.5518 25.9994C43.2289 26.8752 39.7224 30.7296 38.1271 34.7403C37.0299 37.4987 36.8588 40.3235 37.515 42.3285H37.5154ZM40.306 41.3942C39.8258 39.9265 40.0516 37.8683 40.8546 35.8498C42.1098 32.6947 44.8362 29.6226 49.0238 28.9337C52.7758 28.3162 56.2593 29.1863 59.9029 29.6019C63.2174 29.9801 66.6476 30.0286 70.4581 28.6219C69.9314 31.3308 68.7922 35.7517 66.4811 39.9168C64.1093 44.1904 60.4878 48.2185 54.9144 49.6634C48.0071 51.454 42.2675 47.3845 40.3063 41.3942H40.306Z" fill="white"/>
<path fill-rule="evenodd" clip-rule="evenodd" d="M26.0173 40.3537C30.8382 42.2395 35.2731 43.1292 39.2957 43.3394C49.2123 43.8585 56.6453 40.2552 61.2288 37.0865C61.8984 36.6234 62.0706 35.6977 61.6126 35.0205C61.1547 34.3431 60.2392 34.1693 59.5696 34.6324C55.3643 37.5396 48.5455 40.8464 39.4474 40.3705C35.7 40.1746 31.5695 39.3376 27.0778 37.581C26.3214 37.2849 25.4694 37.6659 25.1766 38.4311C24.8841 39.1964 25.2605 40.0579 26.0173 40.3537Z" fill="white"/>
<path fill-rule="evenodd" clip-rule="evenodd" d="M19.5429 68.6617L23.7856 66.4263V82.4899C23.7856 83.3105 24.4443 83.9765 25.2553 83.9765C26.0668 83.9765 26.7254 83.3105 26.7254 82.4899V63.9757C26.7254 63.4563 26.4573 62.9743 26.0177 62.7049C25.5785 62.4352 25.032 62.4174 24.5762 62.6575L18.1843 66.0249C17.465 66.4041 17.1852 67.3025 17.5599 68.0299C17.9349 68.7577 18.8232 69.0406 19.5429 68.6617Z" fill="white"/>
<path fill-rule="evenodd" clip-rule="evenodd" d="M82.0725 63.8667L68.7655 80.7609C68.2603 81.4027 68.3651 82.3388 68.9998 82.8501C69.6341 83.3609 70.5599 83.255 71.0654 82.6132L84.372 65.719C84.8776 65.0772 84.7728 64.1414 84.1381 63.6302C83.5035 63.1189 82.5777 63.2252 82.0725 63.8667Z" fill="white"/>
<path fill-rule="evenodd" clip-rule="evenodd" d="M70.9113 62.3955C69.0588 62.3955 67.5544 63.9167 67.5544 65.79C67.5544 67.6634 69.0588 69.1846 70.9113 69.1846C72.7638 69.1846 74.2681 67.6634 74.2681 65.79C74.2681 63.9167 72.7638 62.3955 70.9113 62.3955ZM70.9113 65.3687C71.1413 65.3687 71.3279 65.5574 71.3279 65.79C71.3279 66.0226 71.1413 66.2114 70.9113 66.2114C70.6812 66.2114 70.4946 66.0226 70.4946 65.79C70.4946 65.5574 70.6812 65.3687 70.9113 65.3687Z" fill="white"/>
<path fill-rule="evenodd" clip-rule="evenodd" d="M81.9086 76.9893C80.0561 76.9893 78.5518 78.5101 78.5518 80.3834C78.5518 82.2571 80.0561 83.778 81.9086 83.778C83.7611 83.778 85.2654 82.2571 85.2654 80.3834C85.2654 78.5101 83.7611 76.9893 81.9086 76.9893ZM81.9086 79.9621C82.1386 79.9621 82.3252 80.1508 82.3252 80.3834C82.3252 80.616 82.1386 80.8051 81.9086 80.8051C81.6786 80.8051 81.4919 80.616 81.4919 80.3834C81.4919 80.1508 81.6786 79.9621 81.9086 79.9621Z" fill="white"/>
<path fill-rule="evenodd" clip-rule="evenodd" d="M44.572 77.0499V69.416C44.572 65.5905 41.5051 62.4893 37.7221 62.4893C37.7221 62.4893 37.7221 62.4893 37.7218 62.4893C33.9391 62.4893 30.8723 65.5905 30.8723 69.416V77.0499C30.8723 80.8754 33.9391 83.9767 37.7218 83.9767H37.7221C41.5051 83.9767 44.572 80.8754 44.572 77.0499ZM41.6318 69.416V77.0499C41.6318 79.2336 39.8816 81.0038 37.7221 81.0038H37.7218C35.5627 81.0038 33.8121 79.2336 33.8121 77.0503C33.8121 77.0499 33.8121 69.416 33.8121 69.416C33.8121 67.2323 35.5627 65.4625 37.7218 65.4625H37.7221C39.8816 65.4625 41.6318 67.2323 41.6318 69.416Z" fill="white"/>
<path fill-rule="evenodd" clip-rule="evenodd" d="M62.4182 77.0499V69.416C62.4182 65.5905 59.3517 62.4893 55.5687 62.4893H55.5683C51.7853 62.4893 48.7189 65.5905 48.7185 69.416V77.0499C48.7189 80.8754 51.7853 83.9767 55.5683 83.9767H55.5687C59.3517 83.9767 62.4182 80.8754 62.4182 77.0499ZM59.4783 69.416V77.0499C59.4783 79.2336 57.7278 81.0038 55.5687 81.0038H55.5683C53.4092 81.0038 51.6587 79.2336 51.6587 77.0503C51.6587 77.0499 51.6587 69.416 51.6587 69.416C51.6587 67.2323 53.4092 65.4625 55.5683 65.4625H55.5687C57.7278 65.4625 59.4783 67.2323 59.4783 69.416Z" fill="white"/>
</svg>
