<svg width="88" height="75" viewBox="0 0 88 75" fill="none" xmlns="http://www.w3.org/2000/svg">
<path d="M46.4702 41.5282C45.851 41.123 45.216 40.7519 44.5678 40.4096C46.4245 37.594 48.4748 34.9102 50.7038 32.3776C59.439 22.4113 70.2936 14.6127 81.1746 7.16287C81.5716 6.89098 81.966 6.6191 82.3578 6.34721C81.8065 7.26953 81.2561 8.19098 80.7065 9.11155L78.2295 13.2659L76.9555 15.3969C76.5203 16.1247 75.9445 16.8682 75.7486 17.7009C75.5119 18.7054 76.6952 19.2221 77.4025 18.6071C78.0112 18.0825 78.386 17.2445 78.804 16.564L80.1017 14.4461C80.9668 13.0342 81.8315 11.6223 82.6957 10.2105C84.4259 7.38711 86.1719 4.57164 87.8588 1.72469C88.3531 0.890669 87.4643 -0.289537 86.5125 0.0645283C84.0631 0.974608 81.6071 1.87025 79.1801 2.84065L75.5356 4.29758L73.8343 4.97685C73.2163 5.2247 72.5392 5.42269 71.9936 5.80823C71.4677 6.17934 71.6426 7.15631 72.3788 7.0973C73.6173 6.99764 74.8769 6.4036 76.0602 6.02068L79.5324 4.89816C75.0688 7.85264 70.7236 11.0169 66.494 14.2691C60.901 18.569 55.5105 23.1719 50.6972 28.3373C47.5119 31.7266 44.6337 35.3903 42.0961 39.2858C37.3077 37.4223 32.0027 37.1181 26.9093 38.1829C19.9753 39.6346 13.5685 43.5831 9.05491 49.0121C4.42696 54.5775 1.34649 61.6903 0.405123 68.862C0.174319 70.6181 0.0391388 72.3853 0.000177464 74.156C-0.0155996 74.8694 1.02569 74.8116 1.0888 74.1297C1.72514 67.2674 3.71042 60.3829 7.39963 54.5237C10.9652 48.8652 16.1901 44.2689 22.4575 41.8206C28.2635 39.552 34.9372 39.0563 40.8142 41.3551C40.0963 42.5642 39.4153 43.7955 38.7815 45.0505C37.1079 48.3656 35.6445 51.8695 34.7479 55.4836C33.8052 59.2734 33.5225 63.4829 35.0108 67.1783C36.2953 70.3544 38.6645 73.1266 41.9186 74.3776C44.7874 75.4804 47.9967 75.0831 50.5881 73.4597C55.9615 70.1026 58.1979 63.1786 57.1934 57.1648C56.1219 50.7064 51.8897 45.0754 46.4702 41.5282ZM54.8781 61.7519C54.5271 64.4625 53.4148 67.156 51.6123 69.2266C49.9846 71.1005 47.7995 72.4447 45.333 72.4434C42.4616 72.4434 39.9622 70.5917 38.4568 68.23C34.5848 62.1518 37.405 54.2628 40.1542 48.3171C41.0824 46.3141 42.1209 44.3637 43.2649 42.475C47.7968 44.8839 51.6162 48.7695 53.562 53.5297C54.6112 56.0973 55.237 58.9784 54.8781 61.7519Z" fill="#191919"/>
</svg>
