<svg width="101" height="104" viewBox="0 0 101 104" fill="none" xmlns="http://www.w3.org/2000/svg">
<path d="M32.246 16.1493C38.3052 27.1924 49.8827 34.0883 62.1998 33.9803C51.4641 40.0172 44.8952 51.7966 45.1993 64.4362C39.1316 53.3846 27.5365 46.4869 15.2057 46.6119C25.9866 40.5395 32.5443 28.7613 32.246 16.1493Z" stroke="black" stroke-width="2"/>
<path d="M67.1996 56.2804C71.7411 63.8936 79.8235 68.7084 88.5029 68.9529C81.0974 73.4875 76.5116 81.7134 76.4067 90.6101C71.8586 82.99 63.7633 78.1733 55.0729 77.9408C62.5089 73.3839 67.0905 65.1597 67.1996 56.2804Z" stroke="black" stroke-width="2"/>
<path d="M19.3815 64.4587C21.8921 67.9526 25.7491 70.2446 29.9529 70.7275C26.5479 73.243 24.3563 77.1651 23.9392 81.4619C21.4253 77.9656 17.5637 75.6731 13.355 75.1945C16.772 72.6706 18.9624 68.7486 19.3815 64.4587Z" stroke="black" stroke-width="2"/>
</svg>
