<svg width="49" height="48" viewBox="0 0 49 48" fill="none" xmlns="http://www.w3.org/2000/svg">
<ellipse cx="24.1683" cy="24" rx="24.1683" ry="24" fill="#E5F33C"/>
<path d="M35.3563 29.2441L32.602 28.0533H30.2518C29.3466 28.0533 28.4737 27.7069 27.81 27.0797C22.3453 21.9159 18.5059 13.7144 12.076 13.7144C12.076 13.7144 10.3579 16.8075 10.3579 23.3426V24C10.3579 24 12.2537 27.709 12.2537 34.2858H14.9045L15.521 24.9395L16.2822 25.0781C20.6304 25.8693 22.8881 30.8241 26.4283 33.5157C27.0859 34.0157 27.8843 34.2858 28.7047 34.2858H37.9788V33.2808C37.9788 31.5209 36.9462 29.9315 35.3563 29.2441Z" fill="black"/>
</svg>
