<svg width="1512" height="990" viewBox="0 0 1512 990" fill="none" xmlns="http://www.w3.org/2000/svg">
<g clip-path="url(#clip0_5_3359)">
<rect width="1512" height="990" fill="white"/>
<g opacity="0.15">
<path d="M-174.087 1110.06C-181.924 1088.38 -177.425 1060.15 -163.142 1032.14C-148.852 1004.11 -124.735 976.232 -93.206 955.219L-89.7683 952.921C55.1321 855.881 119.557 782.822 181.041 665.655L181.446 664.869C185.529 656.805 186.324 650.62 184.632 645.807C182.886 640.843 178.44 637.191 171.823 634.418C165.209 631.648 156.511 629.793 146.403 628.374C136.301 626.956 124.828 625.979 112.677 624.949C88.3916 622.892 61.4087 620.628 37.4442 614.21C13.4825 607.792 -7.55113 597.199 -19.855 578.416C-32.1868 559.59 -30.0837 539.212 -21.6396 519.084C-13.2018 498.97 1.60684 479.009 14.82 460.941C21.434 451.896 27.648 443.328 32.488 435.432C37.3325 427.528 40.7706 420.345 41.8717 414.072C42.9674 407.829 41.7464 402.521 37.3004 398.262C32.8181 393.968 24.9993 390.683 12.7562 388.682L9.27755 388.107C-63.4799 375.947 -117.551 358.348 -155.635 337.28C-194.324 315.876 -216.555 290.868 -225.071 264.309L-225.459 263.067C-233.396 236.96 -228.141 209.485 -212.478 182.646C-196.57 155.386 -169.915 128.754 -135.37 104.801L-133.852 103.754C-69.878 59.835 20.732 25.0314 120.383 12.1625L122.757 11.861C236.801 -2.44674 308.726 19.9608 375.145 42.1146L381.556 44.2559L383.349 44.856C427.854 59.7323 462.615 41.3635 507.858 12.6904C552.724 -15.744 607.78 -54.2251 692.59 -79.9193L694.599 -80.5242C780.571 -106.223 829.694 -98.4658 872.241 -94.2685C893.5 -92.1711 913.083 -90.9673 934.817 -95.25C956.548 -99.5321 980.464 -109.307 1010.36 -129.215L1014.74 -132.125C1198.21 -253.91 1335.77 -319.993 1433.13 -346.629L1435.44 -347.257C1487.47 -361.249 1527.92 -363.874 1557.65 -357.617C1587.4 -351.355 1606.43 -336.19 1615.53 -314.632C1624.62 -293.102 1623.76 -265.285 1613.94 -233.774C1604.28 -202.748 1585.92 -168.088 1559.73 -132.215L1558.48 -130.506C1499.25 -50.0487 1436.61 14.4653 1384.83 69.5173L1379.85 74.8154C1370.61 84.6646 1365.57 93.2344 1363.8 100.796C1362.03 108.336 1363.49 114.914 1367.36 120.831C1371.24 126.768 1377.54 132.055 1385.46 136.95C1393.37 141.842 1402.87 146.322 1413.1 150.663C1433.52 159.33 1456.9 167.453 1476.17 177.141C1495.14 186.672 1510.35 197.817 1514.94 212.713L1515.15 213.426C1522.65 239.981 1515.33 262.896 1501.98 283.17C1488.65 303.423 1469.27 321.094 1452.61 337.17C1444.27 345.217 1436.61 352.861 1430.7 360.245C1424.79 367.633 1420.66 374.715 1419.33 381.633C1418.01 388.519 1419.45 395.287 1424.76 402.099C1429.93 408.719 1438.76 415.389 1452.3 422.207L1453.62 422.867C1496.72 444.127 1548.44 466.747 1609.87 491.223L1615.84 493.597C1758.03 549.956 1826.04 611.426 1842.94 670.861L1843.33 672.264C1859.55 732.12 1824.02 789.57 1761.06 837.193C1698.08 884.833 1607.51 922.765 1513.26 943.616L1510.74 944.169C1404.07 967.408 1292.87 968.734 1211.74 937.381L1209.7 936.585C1188.65 928.263 1167.42 917.003 1145.44 904.887C1122.75 892.376 1099.27 878.953 1074.34 866.877C1024.48 842.73 968.899 823.996 902.528 828.815L901.348 828.91C876.596 831.091 854.025 845.159 831.164 865.507C807.935 886.182 784.499 913.252 758.205 940.771C705.652 995.771 641.812 1052.42 546.08 1062.31L543.227 1062.59C483.47 1068.15 433.813 1053.25 388.321 1040.07C342.076 1026.67 300.194 1015.08 256.236 1028.32L247.261 1031.03C156.593 1058.63 83.4924 1085.49 41.1009 1105.53L39.0407 1106.51C-27.2396 1138.25 -76.5519 1149.99 -111.277 1148.39C-146.03 1146.78 -166.23 1131.78 -174.087 1110.06Z" stroke="#686868"/>
<path d="M593.987 541.379C591.873 538.129 591.14 534.225 592.192 530.305C593.244 526.388 596.066 522.502 600.976 519.243L602.758 518.036C620.984 505.635 633.525 495.142 641.606 486.112C649.953 476.786 653.499 469.071 653.706 462.469C653.913 455.887 650.803 450.295 645.564 445.197C640.317 440.091 632.979 435.525 624.833 431.008L624.415 430.781C622.263 429.645 619.254 428.446 615.855 427.166C612.244 425.806 608.201 424.358 604.362 422.814C600.523 421.27 596.854 419.619 593.977 417.84C591.125 416.076 588.941 414.122 588.238 411.929L588.12 411.537C586.956 407.481 587.826 403.241 590.243 399.139C592.735 394.91 596.885 390.799 602.225 387.114L602.706 386.788C607.769 383.406 616.061 379.545 625.251 378.262C634.599 376.957 644.917 378.317 653.683 385.612L654.098 385.964C663.29 393.858 677.471 394.565 694.285 390.807C711.073 387.055 730.338 378.884 749.544 369.238C768.746 359.594 787.859 348.49 804.347 338.887C820.815 329.294 834.698 321.178 843.391 317.543L843.968 317.306C849.914 314.917 855.083 314.337 859.266 315.195C863.596 316.084 866.844 318.511 868.756 322C872.508 328.848 871.046 339.606 863.066 350.626L862.681 351.151C853.257 363.845 843.282 373.953 835.184 382.526C830.55 388.442 825.571 398.14 825.611 408.033C825.632 412.973 826.902 417.958 830.089 422.561C833.278 427.166 838.407 431.419 846.193 434.853L846.21 434.861C852.16 437.764 859.191 440.835 867.425 444.128L871.028 445.553C892.655 454.017 903.242 463.337 905.972 472.521L906.096 472.959C908.629 482.331 902.97 491.256 893.253 498.568C883.513 505.898 869.548 511.735 855.043 514.96L853.491 515.295C837.697 518.596 821.338 518.786 809.156 514.343L808.56 514.121C791.084 507.47 777.774 502.595 762.434 501.403C747.1 500.211 729.698 502.697 704.068 510.854L702.822 511.259C689.924 515.526 676.005 522.587 662.028 529.622C647.622 536.873 633.155 544.098 619.771 548.125L619.216 548.288C607.596 551.579 598.151 547.779 593.987 541.379Z" stroke="#686868"/>
<path d="M-105.084 1058.83C-112.174 1038.92 -107.991 1013.05 -94.8663 987.394C-81.7344 961.722 -59.6173 936.19 -30.7082 916.922L-27.4189 914.723C41.3274 868.636 89.9299 828.632 127.927 786.812C165.921 744.994 193.326 701.345 219.661 647.951L220.914 645.401L220.918 645.392L221.282 644.674C224.945 637.317 225.609 631.676 224.018 627.285C222.376 622.755 218.279 619.408 212.194 616.858C206.113 614.309 198.129 612.592 188.857 611.271C179.591 609.951 169.074 609.031 157.936 608.063C135.678 606.128 110.952 604.003 88.9685 598.095C66.9884 592.188 47.6626 582.477 36.2858 565.305L35.7606 564.497C24.9367 547.508 26.744 529.173 34.1541 511.062C41.6751 492.68 55.0054 474.435 66.8974 457.917C72.8508 449.647 78.4432 441.812 82.7912 434.589C87.1435 427.358 90.219 420.786 91.1772 415.045C92.1302 409.333 90.9866 404.474 86.923 400.565C82.8243 396.623 75.697 393.591 64.5468 391.725L61.3754 391.184C-4.93354 379.76 -54.0627 363.366 -88.5036 343.82C-123.492 323.964 -143.36 300.831 -150.633 276.317L-150.632 276.318C-158.135 252.057 -153.122 226.473 -138.29 201.516C-123.46 176.562 -98.8002 152.208 -66.9434 130.354L-66.9425 130.354L-65.5418 129.398C-6.0258 89.005 78.194 57.2872 170.499 46.4836L170.51 46.4827C281.923 35.8718 359.01 50.7273 424.72 70.3406L424.731 70.3437C465.759 83.6451 497.846 66.8864 539.387 40.8778C580.257 15.2894 630.166 -19.1706 706.472 -42.2479L710.126 -43.3383C788.523 -66.4163 833.275 -58.9586 871.904 -54.6912C891.206 -52.559 908.941 -51.2291 928.596 -54.8816C948.247 -58.5333 969.851 -67.1728 996.858 -85.0304L1004.77 -90.2529C1170.2 -199.132 1293.86 -257.676 1381.15 -280.576C1428.39 -293.172 1465.09 -295.403 1492.04 -289.532C1519.02 -283.657 1536.25 -269.658 1544.45 -249.825C1552.64 -230.021 1551.79 -204.487 1542.81 -175.591C1533.83 -146.688 1516.71 -114.368 1492.27 -80.9437L1492.27 -80.9441C1436.65 -4.46463 1378.18 56.5834 1331.65 108.35L1331.64 108.355C1323.32 117.351 1318.82 125.178 1317.28 132.085C1315.76 138.97 1317.17 144.983 1320.76 150.399C1324.37 155.834 1330.19 160.68 1337.48 165.172C1344.77 169.662 1353.5 173.778 1362.9 177.769C1381.66 185.735 1403.13 193.21 1420.88 202.111C1438.61 211.005 1452.84 221.423 1457 235.406L1457 235.408C1464.08 259.683 1457.65 280.646 1445.71 299.201C1433.8 317.735 1416.36 333.918 1401.39 348.644C1393.89 356.017 1387.02 363.022 1381.73 369.788C1376.44 376.558 1372.77 383.046 1371.64 389.381C1370.51 395.685 1371.89 401.884 1376.79 408.126C1381.7 414.389 1390.17 420.703 1403.23 427.167L1403.23 427.167C1444.22 447.551 1493.35 469.259 1551.74 492.774L1551.74 492.775C1682.58 546.11 1742.03 604.055 1754.18 659.142L1754.18 659.143C1768.56 713.707 1735.83 766.049 1678.19 809.417C1620.51 852.808 1537.73 887.341 1451.62 906.308L1451.62 906.309L1449.31 906.812C1351.55 927.946 1249.7 929.048 1175.31 900.298L1173.38 899.545C1153.47 891.68 1133.48 881.18 1112.83 869.96C1091.51 858.374 1069.49 846.02 1046.12 834.977C999.371 812.895 947.229 796.074 884.536 801.192L884.534 801.193L883.446 801.283C860.643 803.36 839.814 816.265 818.712 834.9C797.269 853.836 775.634 878.601 751.391 903.788C702.939 954.127 644.199 1006.01 556.435 1015.34L553.808 1015.61C498.792 1020.99 452.966 1007.74 410.948 996.038C368.233 984.139 329.512 973.85 288.928 986.068L280.664 988.567C195.808 1014.35 127.665 1038.84 89.0403 1056.61L89.0394 1056.61C28.6442 1085.35 -16.2901 1095.87 -47.9218 1094.25C-79.5839 1092.62 -97.9737 1078.79 -105.084 1058.83Z" stroke="#686868"/>
<path d="M-33.4053 1005.31C-39.7382 987.199 -35.9012 963.734 -23.9897 940.48C-12.0713 917.212 7.96332 894.085 34.153 876.611L37.2805 874.516C102.638 830.608 147.593 792.932 181.714 754.023C215.289 715.736 238.389 676.237 260.109 628.394L262.208 623.738L262.212 623.727L262.218 623.717C265.729 616.763 266.344 611.475 264.809 607.384C263.273 603.292 259.534 600.255 253.998 597.928C248.466 595.602 241.221 594.02 232.813 592.794C224.41 591.568 214.882 590.701 204.792 589.789C184.628 587.967 162.234 585.971 142.297 580.571C122.362 575.171 104.796 566.347 94.3718 550.807C83.92 535.226 85.2923 518.377 91.8699 501.743C98.4404 485.127 110.24 468.637 120.765 453.704C126.034 446.226 130.985 439.14 134.823 432.604C138.666 426.061 141.365 420.114 142.175 414.914C142.979 409.743 141.913 405.339 138.242 401.785C134.537 398.199 128.122 395.421 118.099 393.687L118.097 393.687L115.245 393.181C55.58 382.471 11.5322 367.281 -19.1721 349.271C-50.3595 330.977 -67.8174 309.749 -73.841 287.322L-74.1377 286.29C-80.1988 264.587 -75.3133 241.755 -61.8329 219.507C-48.3551 197.263 -26.2715 175.575 2.13286 156.112L3.48976 155.187L3.49068 155.187L6.05774 153.467C60.3202 117.464 136.392 89.5127 219.468 80.6671L219.48 80.6659L219.491 80.665C323.198 74.4253 404.051 79.257 466.514 95.5052L466.525 95.5093L466.537 95.5124C503.966 107.241 533.272 92.1384 570.968 68.8622C608.054 45.9626 653.155 15.228 721.842 -5.15346L725.131 -6.11534C795.699 -26.489 835.949 -19.3172 870.545 -14.9645C887.831 -12.7898 903.664 -11.325 921.178 -14.3298C938.686 -17.3339 957.908 -24.8118 981.935 -40.5734L988.989 -45.2059C1136.54 -141.784 1246.57 -193.375 1324.14 -213.076C1366.43 -224.227 1399.28 -226.041 1423.38 -220.551C1447.51 -215.055 1462.9 -202.234 1470.19 -184.156C1477.46 -166.106 1476.64 -142.9 1468.54 -116.672C1460.44 -90.4376 1445.05 -61.1291 1423.13 -30.8332L1420.79 -27.5744C1371.63 40.6561 1320.67 95.5487 1281.12 142.024L1281.11 142.03L1281.11 142.036C1273.73 150.158 1269.78 157.227 1268.5 163.466C1267.22 169.684 1268.58 175.123 1271.9 180.032C1275.23 184.957 1280.54 189.359 1287.19 193.446C1293.83 197.53 1301.77 201.28 1310.31 204.919C1327.36 212.181 1346.87 219.01 1363.03 227.119C1379.18 235.221 1392.21 244.699 1396.2 257.389L1396.2 257.394C1402.85 279.351 1397.34 298.322 1386.87 315.122C1376.42 331.899 1360.99 346.56 1347.76 359.903C1341.14 366.585 1335.07 372.933 1330.42 379.067C1325.77 385.205 1322.57 391.084 1321.65 396.825C1320.72 402.536 1322.04 408.157 1326.52 413.823C1331 419.508 1338.68 425.244 1350.48 431.121L1350.48 431.122C1387.85 449.933 1432.29 469.946 1484.85 491.58L1484.85 491.582C1602.84 541.433 1653.64 595.261 1661.72 645.476C1674.26 694.669 1644.47 741.801 1592.33 780.812C1540.15 819.848 1465.45 850.877 1387.75 867.879L1387.75 867.879L1383.56 868.773C1295.66 887.277 1204.4 887.876 1137.5 861.941L1135.69 861.231C1116.97 853.824 1098.27 844.09 1079.01 833.772C1059.12 823.117 1038.63 811.842 1016.88 801.835C973.374 781.828 924.828 766.916 866.014 772.286L866.008 772.287L865.017 772.372C844.235 774.328 825.221 786.035 805.953 802.915C786.374 820.067 766.622 842.473 744.519 865.273C700.349 910.836 646.919 957.827 567.398 966.528L565.007 966.786C514.905 971.944 473.043 960.361 434.622 950.123C395.564 939.714 360.118 930.718 323.041 941.875L315.516 944.148C238.244 967.579 176.194 989.178 141.131 1004.53L138.595 1005.72C85.5556 1030.46 45.9545 1039.42 17.9533 1037.78C-10.5224 1036.12 -27.0533 1023.48 -33.4053 1005.31Z" stroke="#686868"/>
<path d="M35.6056 954.094C30.0207 937.75 33.5405 916.648 44.2942 895.749C55.0547 874.837 73.0899 854.06 96.6599 838.332L99.6376 836.334C161.85 794.484 203.332 759.041 233.717 722.953C263.616 687.442 282.788 651.286 300.385 607.741L302.083 603.505L302.09 603.486L302.099 603.469C305.158 597.257 305.633 592.535 304.203 588.879C302.772 585.219 299.379 582.486 294.374 580.382C289.374 578.278 282.844 576.836 275.273 575.707C267.706 574.578 259.134 573.768 250.058 572.918C231.922 571.22 211.783 569.362 193.828 564.473C175.875 559.585 160.019 551.645 150.522 537.718L150.084 537.062C141.031 523.279 142.1 508.417 147.672 493.747C153.326 478.863 163.648 464.09 172.852 450.707C177.461 444.005 181.79 437.653 185.136 431.789C188.487 425.919 190.825 420.584 191.491 415.916C192.154 411.275 191.164 407.319 187.873 404.114C184.552 400.88 178.83 398.357 169.9 396.759L169.898 396.758L167.353 396.287C114.138 386.313 75.0313 372.33 47.9705 355.843C20.4827 339.097 5.3864 319.744 0.609047 299.361C-4.91088 279.571 -0.241535 258.707 12.3729 238.419C24.9872 218.13 45.5641 198.385 71.9346 180.785L71.9355 180.785L74.2685 179.248C123.568 147.083 192.368 122.384 267.229 115.341L267.247 115.338L267.266 115.338C315.443 114.363 360.76 112.572 401.431 112.631C442.103 112.69 478.178 114.599 507.888 121.035L507.907 121.04L507.925 121.045C541.877 131.198 568.51 117.703 602.504 97.0934C635.948 76.8172 676.415 49.7248 737.731 31.9572L740.666 31.1183C803.659 13.3658 839.539 20.2391 870.219 24.6617C885.547 26.8713 899.533 28.4615 914.967 26.0867C930.395 23.7127 947.305 17.3698 968.445 3.65926L968.446 3.66017C1101.83 -83.5151 1200.64 -129.485 1269.86 -146.338L1269.86 -146.337C1307.36 -156.09 1336.45 -157.513 1357.79 -152.41C1379.15 -147.3 1392.73 -135.645 1399.12 -119.294C1405.5 -102.972 1404.68 -82.0503 1397.42 -58.4395C1390.15 -34.8222 1376.43 -8.4643 1356.93 18.7725L1356.93 18.7722C1312.58 81.9366 1266.93 132.829 1232.93 175.597L1232.92 175.608L1232.91 175.618C1226.44 182.885 1223.04 189.211 1222 194.794C1220.96 200.357 1222.26 205.231 1225.31 209.639C1228.37 214.064 1233.2 218.025 1239.22 221.709C1245.23 225.391 1252.4 228.777 1260.12 232.064C1275.51 238.625 1293.1 244.808 1307.73 252.127C1322.35 259.441 1334.22 267.987 1338.05 279.403L1338.05 279.411C1344.28 299.085 1339.66 316.103 1330.61 331.184C1321.57 346.241 1308.08 359.415 1296.54 371.408C1290.77 377.415 1285.48 383.122 1281.45 388.638C1277.42 394.158 1274.68 399.443 1273.95 404.6C1273.23 409.731 1274.48 414.783 1278.54 419.88C1282.62 424.995 1289.52 430.159 1300.09 435.45L1300.09 435.451C1333.96 452.7 1373.85 471.024 1420.74 490.782L1420.75 490.784C1526.25 537.16 1568.56 586.93 1572.57 632.357C1583.26 676.256 1556.29 718.281 1509.45 753.038C1462.58 787.823 1395.66 815.452 1326.1 830.57L1326.1 830.571L1322.34 831.366C1243.28 847.811 1161.27 848.213 1101.06 824.863L1099.36 824.196C1081.78 817.246 1064.32 808.271 1046.39 798.85C1027.87 789.121 1008.86 778.915 988.655 769.942C948.262 752.001 903.159 739.003 848.024 744.673L848.014 744.673L847.116 744.755C828.283 746.606 811.011 757.151 793.501 772.317C775.708 787.728 757.757 807.83 737.705 828.297C697.636 869.196 649.304 911.415 577.752 919.554C531.437 925.098 492.755 915.004 457.257 906.101C421.73 897.192 389.444 889.494 355.74 899.636L348.924 901.692C278.941 922.864 222.748 941.662 191.12 954.642L191.12 954.643C142.697 977.28 106.663 985.337 81.3128 983.651C55.9282 981.963 41.2092 970.492 35.6056 954.094Z" stroke="#686868"/>
<path d="M104.197 901.701C99.3707 887.154 102.584 868.444 112.19 849.928C121.802 831.398 137.846 812.995 158.799 799.024L161.628 797.126C220.712 757.362 258.734 724.184 285.398 690.956C311.633 658.263 326.889 625.498 340.38 586.312L341.681 582.499L341.69 582.471L341.703 582.445C344.311 576.984 344.648 572.835 343.327 569.621C342.004 566.399 338.959 563.979 334.488 562.102C330.022 560.227 324.21 558.928 317.477 557.902C310.748 556.878 303.135 556.131 295.075 555.349C278.97 553.786 261.095 552.083 245.128 547.723C229.164 543.364 215.024 536.33 206.465 524.042C197.878 511.716 198.54 498.388 203.291 485.235C208.035 472.103 216.883 459.064 224.771 447.248C228.722 441.329 232.432 435.719 235.289 430.536C238.15 425.346 240.129 420.631 240.656 416.501C241.179 412.398 240.27 408.895 237.362 406.048C234.426 403.172 229.398 400.91 221.565 399.455L221.562 399.454L219.327 399.02C172.578 389.828 138.429 377.094 115.028 362.171C91.2579 347.013 78.5413 329.573 75.0237 311.272C70.5062 293.733 75.0295 275.24 86.5736 257.287C98.1195 239.332 116.708 221.884 140.396 206.398L140.395 206.397L142.495 205.044C186.839 176.739 248.367 155.293 315.001 150.022L315.027 150.02L315.053 150.021C359.559 151.164 404.009 147.91 444.39 145.544C484.748 143.18 521.071 141.7 549.247 146.418L549.273 146.422L549.299 146.429C579.762 154.973 603.728 143.092 634.024 125.162C663.829 107.522 699.668 84.092 753.607 68.9325L756.189 68.2167C811.602 53.0786 843.1 59.6222 869.854 64.0915C883.219 66.3242 895.353 68.0288 908.705 66.2789C922.048 64.53 936.644 59.325 954.898 47.6774L960.299 44.201C1073.23 -28.256 1156.83 -66.2542 1215.53 -79.743C1248.23 -88.1045 1273.57 -89.1473 1292.12 -84.4499C1310.7 -79.7459 1322.48 -69.2812 1327.96 -54.6867C1333.42 -40.1217 1332.6 -21.518 1326.16 -0.557268C1319.72 20.4092 1307.65 43.783 1290.57 67.9281L1288.75 70.57C1269.91 97.7887 1251.01 122.501 1233.41 145.073C1215.23 168.378 1198.44 189.39 1184.51 208.538L1184.5 208.555L1184.49 208.571C1178.93 214.976 1176.06 220.549 1175.26 225.468C1174.46 230.367 1175.71 234.668 1178.48 238.568C1181.27 242.482 1185.61 245.995 1191 249.267C1196.39 252.537 1202.79 255.55 1209.66 258.476C1223.39 264.317 1239.07 269.832 1252.16 276.343C1265.24 282.849 1275.94 290.443 1279.6 300.564L1279.6 300.576C1285.4 317.931 1281.66 332.971 1274.02 346.315C1266.39 359.634 1254.84 371.308 1244.99 381.938C1240.05 387.264 1235.55 392.325 1232.14 397.217C1228.72 402.111 1226.44 406.793 1225.91 411.36C1225.37 415.901 1226.57 420.378 1230.21 424.895C1233.86 429.43 1239.99 434.009 1249.33 438.701L1249.33 438.704C1279.68 454.344 1315 470.927 1356.21 488.751L1356.22 488.755C1449.19 531.526 1482.96 577.145 1482.85 617.716C1491.68 656.245 1467.49 693.107 1425.96 723.578C1384.37 754.083 1325.25 778.307 1263.84 791.556L1263.83 791.556L1260.49 792.252C1190.28 806.657 1117.56 806.905 1064.07 786.212L1062.48 785.59C1046.04 779.118 1029.83 770.927 1013.24 762.428C996.102 753.65 978.562 744.541 959.923 736.627C922.656 720.804 881.012 709.765 829.56 715.758L829.546 715.76L829.501 715.261L829.546 715.759C812.351 717.296 796.576 726.755 780.57 740.407C764.558 754.064 748.399 771.838 730.391 789.951C694.409 826.144 651.163 863.551 587.592 871.156C546.131 876.479 511.363 868.117 479.407 860.747C447.424 853.37 418.308 847.003 387.977 856.132L375.845 859.793C315.985 877.909 267.98 893.215 240.688 903.48C198.139 923.109 166.479 929.962 144.226 928.272C121.939 926.579 109.041 916.303 104.197 901.701Z" stroke="#686868"/>
<path d="M210.182 871.812C191.035 870.098 179.978 861.011 175.894 848.207C171.826 835.458 174.715 819.149 183.14 803.027C191.571 786.892 205.578 770.878 223.864 758.684L226.538 756.887C282.346 719.266 316.809 688.391 339.674 658.057C362.169 628.213 373.46 598.865 382.793 564.061L383.69 560.676L383.701 560.634L383.719 560.595C385.868 555.889 386.066 552.317 384.855 549.542C383.638 546.757 380.946 544.645 377.016 542.994C373.091 541.345 368.006 540.187 362.125 539.261C356.247 538.336 349.606 537.647 342.578 536.928C328.537 535.49 312.959 533.929 299.009 530.088C285.063 526.249 272.664 520.11 265.05 509.461C257.41 498.775 257.708 487.226 261.529 475.83C265.344 464.456 272.692 453.161 279.24 442.921C282.522 437.79 285.601 432.926 287.96 428.427C290.322 423.922 291.935 419.828 292.319 416.237C292.7 412.673 291.869 409.624 289.348 407.131C286.8 404.613 282.476 402.61 275.755 401.293L275.749 401.292L273.827 400.892C233.631 392.451 204.499 380.947 184.792 367.574C164.78 353.995 154.457 338.467 152.192 322.253C148.671 306.966 153.028 290.848 163.468 275.242C173.583 260.122 189.43 245.448 209.454 232.406L211.405 231.149L211.406 231.149L213.265 229.981C252.547 205.575 306.665 187.431 364.936 183.979L364.971 183.977L365.006 183.98C405.734 187.265 449.248 182.583 489.244 177.825C529.204 173.071 565.703 168.231 592.288 171.247L592.323 171.252L592.356 171.26C619.278 178.215 640.521 167.965 667.046 152.74C693.141 137.762 724.263 118.025 770.708 105.516L772.932 104.926C820.645 92.4445 847.703 98.6791 870.482 103.212C881.861 105.477 892.119 107.303 903.361 106.187C914.591 105.072 926.84 101.014 942.163 91.4447L946.722 88.5524C1042.07 28.2919 1112.25 -2.83205 1161.39 -13.1801L1161.39 -13.1813C1189.22 -20.1292 1210.77 -20.7757 1226.51 -16.4712C1242.28 -12.1597 1252.23 -2.87899 1256.79 9.95696C1261.35 22.7633 1260.53 39.0422 1254.94 57.3418C1249.36 75.649 1238.98 96.026 1224.36 117.063L1224.36 117.063C1207.73 141.976 1191.18 164.601 1176.09 185.217C1161 205.838 1147.37 224.442 1136.57 241.325L1136.56 241.351L1136.54 241.376C1131.91 246.911 1129.58 251.728 1129.02 255.98C1128.47 260.214 1129.65 263.943 1132.16 267.336C1134.67 270.742 1138.51 273.807 1143.26 276.671C1148.01 279.532 1153.63 282.174 1159.66 284.744C1171.7 289.872 1185.44 294.73 1196.96 300.44C1208.48 306.145 1217.99 312.791 1221.49 321.614L1221.5 321.631C1226.86 336.665 1224.02 349.719 1217.81 361.318C1211.62 372.89 1202.04 383.053 1193.9 392.31C1189.83 396.95 1186.11 401.358 1183.33 405.621C1180.54 409.886 1178.72 413.963 1178.38 417.937C1177.72 425.798 1182.87 433.577 1199.06 441.783L1199.07 441.785C1225.85 455.833 1256.54 470.697 1291.99 486.61L1292.01 486.617C1372.29 525.833 1397.5 567.316 1393.3 603.02C1400.26 636.172 1378.94 667.84 1342.81 693.987C1306.63 720.175 1255.43 740.945 1202.29 752.278L1202.29 752.279L1199.38 752.875C1138.17 765.186 1074.87 765.229 1028.18 747.161L1026.71 746.584C1011.44 740.581 996.504 733.166 981.277 725.579C965.554 717.744 949.522 709.724 932.478 702.858C898.402 689.132 860.291 680.026 812.629 686.303L812.611 686.305C797.44 687.766 783.468 696.032 769.285 707.914C755.096 719.801 740.776 735.234 724.86 750.975C693.062 782.425 655.014 814.982 599.557 822.005C563.037 827.075 532.245 820.423 503.89 814.563C475.51 808.698 449.617 803.64 422.724 811.733L381.686 824.059C343.084 835.648 312.189 844.965 293.06 851.324C256.499 867.899 229.292 873.521 210.182 871.812Z" stroke="#686868"/>
<path d="M273.556 817.703C257.501 815.967 248.261 808.049 244.929 797.018C241.613 786.041 244.186 772.099 251.453 758.336C258.727 744.56 270.734 730.899 286.399 720.453L286.4 720.454C340.613 684.097 372.283 654.984 391.714 627.041C410.529 599.985 417.89 573.993 423.094 543.494L423.591 540.529L423.601 540.469L423.624 540.414C425.319 536.455 425.383 533.449 424.279 531.106C423.168 528.75 420.818 526.943 417.419 525.515C410.605 522.65 399.926 521.444 387.872 520.126C375.86 518.812 362.541 517.39 350.575 514.063C338.613 510.736 327.926 505.484 321.241 496.454L320.931 496.029C314.529 487.084 314.511 477.444 317.368 467.93C320.264 458.29 326.132 448.714 331.359 440.028C333.979 435.673 336.437 431.544 338.304 427.719C340.173 423.888 341.426 420.407 341.668 417.349C341.909 414.314 341.156 411.709 339.013 409.564C336.847 407.397 333.213 405.649 327.588 404.469L327.582 404.468L324.368 403.734C291.459 396.074 267.783 385.916 251.978 374.255C235.667 362.22 227.716 348.562 226.709 334.397C224.188 321.336 228.392 307.568 237.75 294.284C246.823 281.404 260.764 268.942 278.225 257.948L279.927 256.888L279.928 256.887L281.553 255.904C315.871 235.34 362.715 220.451 412.769 218.803L412.814 218.802L412.858 218.809C449.904 224.232 492.582 218.113 532.297 210.946C552.138 207.366 571.254 203.521 588.514 200.739C605.773 197.958 621.23 196.229 633.775 196.888L633.818 196.89L633.86 196.9C657.309 202.278 675.886 193.633 698.707 181.078C721.158 168.726 747.644 152.637 786.711 142.745L788.581 142.278C828.715 132.421 851.401 138.356 870.263 142.961C879.685 145.261 888.093 147.211 897.252 146.723C906.396 146.236 916.326 143.315 928.754 135.803L932.486 133.489C1010.5 85.2745 1067.46 60.9454 1107.15 53.7142C1130.19 48.1664 1147.98 47.912 1160.95 51.8306C1173.95 55.758 1182.08 63.8743 1185.74 74.9765C1189.4 86.0496 1188.58 100.037 1183.83 115.715C1179.08 131.397 1170.38 148.816 1158.18 166.786L1155.58 170.818C1142.62 190.866 1129.97 209.259 1118.68 226.113C1106.63 244.098 1096.13 260.33 1088.42 274.983L1088.4 275.024L1088.37 275.06C1084.66 279.737 1082.87 283.808 1082.55 287.402C1082.23 290.98 1083.36 294.147 1085.6 297.042C1087.84 299.948 1091.2 302.573 1095.32 305.034C1099.44 307.492 1104.3 309.768 1109.5 311.987C1119.88 316.411 1131.7 320.619 1141.69 325.539C1151.68 330.454 1160.02 336.163 1163.36 343.703L1163.36 343.715L1163.37 343.726C1168.31 356.468 1166.37 367.563 1161.58 377.444C1156.8 387.295 1149.17 395.971 1142.73 403.875C1139.49 407.839 1136.56 411.605 1134.4 415.247C1132.23 418.891 1130.87 422.372 1130.73 425.764C1130.45 432.473 1134.97 439.137 1148.71 446.168L1148.72 446.172C1172 458.654 1198.14 471.825 1227.92 485.857L1227.94 485.866C1261.88 503.76 1283.01 522.071 1294.61 539.784C1306.19 557.469 1308.26 574.547 1304.12 589.954C1309.22 617.794 1290.71 644.336 1259.9 666.216C1229.02 688.146 1185.62 705.515 1140.62 714.964L1140.62 714.964L1138.13 715.461C1085.77 725.713 1031.73 725.56 991.751 710.085L989.014 709.011C931.658 686.17 881.268 645.759 794.629 658.722L794.619 658.723L794.607 658.724C781.421 660.115 769.217 667.209 756.819 677.349C744.416 687.494 731.896 700.619 718.032 714.024C690.551 740.594 657.904 768.145 611.019 774.889L609.909 775.045C578.241 779.877 551.352 774.927 526.529 770.569C501.683 766.208 478.947 762.451 455.424 769.53L446.144 772.307C400.372 785.936 363.663 795.807 343.069 801.46C312.397 815.025 289.571 819.434 273.556 817.703Z" stroke="#686868"/>
<path d="M336.494 762.371C323.538 760.628 316.128 753.901 313.561 744.673C311.008 735.496 313.276 723.953 319.395 712.575C325.52 701.186 335.532 689.901 348.579 681.215L348.579 681.216C399.648 646.975 427.811 620.165 443.46 595.151C458.608 570.938 462.058 548.365 463.15 522.243L463.249 519.704L463.252 519.62L463.283 519.542C464.526 516.341 464.46 513.909 463.465 512.003C462.461 510.079 460.456 508.581 457.59 507.381C451.844 504.974 442.966 503.888 432.949 502.707C422.972 501.53 411.917 500.263 401.944 497.466C391.973 494.671 383.007 490.327 377.261 482.944L376.736 482.247C371.467 475.029 371.128 467.268 373.054 459.601C375.035 451.715 379.427 443.875 383.336 436.758C385.297 433.188 387.136 429.802 388.513 426.659C389.892 423.511 390.787 420.65 390.892 418.13C390.996 415.631 390.324 413.475 388.56 411.683C386.777 409.873 383.836 408.39 379.31 407.355L379.301 407.352L376.705 406.693C350.121 399.818 331.309 390.894 319.111 380.768C306.523 370.318 300.967 358.571 301.23 346.495C299.719 335.689 303.781 324.297 312.068 313.354C320.106 302.738 332.147 292.506 347.051 283.57L348.502 282.709L348.504 282.709L349.894 281.909C379.255 265.208 418.821 253.571 460.64 253.691L460.695 253.691L460.748 253.703C494.093 261.212 535.936 253.635 575.384 244.038C585.24 241.64 594.94 239.118 604.315 236.676C613.689 234.235 622.741 231.873 631.293 229.799C648.386 225.653 663.527 222.642 675.308 222.436L675.36 222.435L675.41 222.444C695.38 226.216 711.294 219.177 730.414 209.301C749.222 199.586 771.074 187.162 802.753 179.879L804.269 179.536C836.816 172.295 855.116 177.901 870.049 182.555C877.51 184.879 884.061 186.939 891.135 187.071C898.185 187.203 905.789 185.417 915.318 179.971L918.221 178.238C978.898 142.129 1022.61 124.608 1052.85 120.478C1071.08 116.324 1085.12 116.449 1095.3 119.966C1105.52 123.493 1111.83 130.423 1114.58 139.76C1117.31 149.069 1116.5 160.732 1112.57 173.755C1108.64 186.78 1101.59 201.208 1091.81 216.08L1087.67 222.873C1067.07 256.478 1048.71 284.731 1040.04 307.98L1040.02 308.046L1039.98 308.103C1037.18 311.91 1035.93 315.224 1035.84 318.151C1035.75 321.067 1036.82 323.665 1038.79 326.055C1042.75 330.872 1050.3 334.757 1059.07 338.483C1067.78 342.185 1077.69 345.725 1086.13 349.833C1094.58 353.939 1101.74 358.69 1104.91 364.922L1104.92 364.937L1104.93 364.952C1113.95 385.797 1100.71 401.388 1091.21 414.442C1088.82 417.722 1086.67 420.838 1085.12 423.853C1083.58 426.867 1082.66 429.745 1082.71 432.547C1082.81 438.095 1086.71 443.626 1097.98 449.454L1097.99 449.46C1117.75 460.327 1139.31 471.754 1163.4 483.847L1163.41 483.854L1163.42 483.861C1191.1 499.953 1206.96 516.335 1214.33 531.975C1221.68 547.582 1220.55 562.403 1214.34 575.352C1217.55 597.807 1201.84 619.169 1176.35 636.754C1150.77 654.4 1115.17 668.359 1078.33 675.938L1078.33 675.939L1076.26 676.337C1032.76 684.549 988.01 684.244 954.753 671.431L952.238 670.451C899.576 649.664 855.542 616.252 776.148 629.858L776.135 629.861L776.122 629.862C764.92 631.19 754.48 637.107 743.864 645.492C733.244 653.881 722.516 664.681 710.698 675.728C687.091 697.796 659.235 720.753 619.746 726.683C592.939 731.293 569.968 728.08 548.688 725.256C527.385 722.429 507.814 720 487.658 726.068L483.7 727.253C443.095 739.338 410.475 746.886 392.615 750.362C367.839 760.906 349.403 764.107 336.494 762.371Z" stroke="#686868"/>
<path d="M399.716 707.816C389.851 706.029 384.264 700.446 382.449 692.977C380.645 685.556 382.587 676.363 387.54 667.327C392.499 658.281 400.502 649.338 410.92 642.394L413.148 640.89C459.602 609.412 483.643 585.241 495.287 563.409C506.73 541.956 506.232 522.706 503.156 500.834L502.85 498.709L502.834 498.594L502.869 498.484C503.657 496.033 503.464 494.16 502.575 492.672C501.672 491.162 500.003 489.961 497.665 488.978C492.977 487.006 485.892 486.018 477.906 484.95C469.955 483.886 461.161 482.748 453.17 480.451C445.182 478.154 437.929 474.683 433.107 468.906L432.664 468.361C428.215 462.713 427.49 456.645 428.512 450.642C429.562 444.474 432.461 438.34 435.041 432.766C436.336 429.967 437.55 427.311 438.433 424.838C439.316 422.361 439.852 420.107 439.815 418.11C439.779 416.13 439.183 414.406 437.789 412.951C436.383 411.484 434.126 410.251 430.699 409.348L430.685 409.345L428.703 408.752C408.422 402.577 394.449 394.807 385.839 386.137C376.951 377.187 373.783 367.279 375.306 357.243C374.796 348.643 378.7 339.587 385.897 330.953C392.887 322.568 403.016 314.538 415.354 307.647L416.555 306.983L416.557 306.982L417.712 306.366C442.103 293.5 474.394 285.132 508.001 287.103L508.066 287.107L508.127 287.127C522.949 291.966 540.621 292.147 559.512 289.604C578.398 287.062 598.464 281.803 618.053 275.799C637.65 269.792 656.73 263.052 673.694 257.537C690.633 252.032 705.47 247.745 716.495 246.691L716.552 246.685L716.609 246.694C733.127 248.913 746.381 243.47 761.791 236.263C776.951 229.172 794.154 220.397 818.443 215.749L819.605 215.531C844.568 210.934 858.501 216.277 869.523 221.036C875.035 223.416 879.734 225.607 884.729 226.37C889.688 227.128 894.958 226.477 901.572 223.091C945.948 198.228 977.032 187.19 998.155 186.193C1011.57 183.452 1021.85 183.986 1029.26 187.14C1036.71 190.308 1041.2 196.099 1043.04 203.713C1044.88 211.304 1044.07 220.691 1040.99 231.112C1037.91 241.538 1032.54 253.034 1025.2 264.866C1016.87 279.888 1009.22 293.776 1003.27 306.464C997.319 319.158 993.091 330.618 991.583 340.776L991.567 340.881L991.51 340.971C989.632 343.919 988.916 346.487 989.064 348.764C989.212 351.037 990.225 353.086 991.93 354.989C995.365 358.824 1001.52 361.969 1008.63 365.004C1015.68 368.018 1023.68 370.922 1030.6 374.255C1037.51 377.586 1043.5 381.412 1046.52 386.364L1046.54 386.382L1046.54 386.4C1054.75 402.696 1045.98 415.046 1039.86 425.427C1036.77 430.671 1034.4 435.338 1034.89 439.826C1035.37 444.255 1038.68 448.69 1047.49 453.364L1047.5 453.368L1047.5 453.372L1048.44 453.908C1064.42 463.089 1081.14 472.689 1099.21 482.753L1099.23 482.763L1099.25 482.775C1120.7 497.2 1131.32 511.776 1134.46 525.45C1137.59 539.072 1133.26 551.692 1125.02 562.222C1126.37 579.397 1113.5 595.646 1093.35 608.971C1073.08 622.369 1045.3 632.92 1016.61 638.598L1016.61 638.6L1014.96 638.897C980.311 645.029 944.833 644.489 918.264 634.218L915.968 633.322C867.923 614.392 830.154 587.739 757.959 601.923L757.93 601.928C748.705 603.179 740.033 607.933 731.208 614.584C722.378 621.238 713.456 629.743 703.697 638.465C684.206 655.883 661.469 674.08 629.967 679.436C608.016 683.799 588.945 682.269 571.189 680.929C553.412 679.588 536.985 678.442 520.191 683.495L516.944 684.462C483.656 694.273 456.898 699.004 442.443 700.095C423.577 707.62 409.529 709.593 399.716 707.816Z" stroke="#686868"/>
<path d="M465.762 651.436C459.035 649.621 455.313 645.222 454.271 639.575C453.237 633.968 454.852 627.194 458.626 620.561C462.404 613.921 468.37 607.378 476.114 602.217L478.186 600.816C521.331 571.518 541.779 549.695 549.631 530.813C557.586 511.685 552.648 495.486 545.033 477.334L544.973 477.193L545.004 477.043C545.342 475.366 545.038 474.059 544.256 472.989C543.458 471.898 542.128 471.003 540.33 470.246C536.723 468.727 531.461 467.852 525.548 466.914C519.664 465.98 513.173 464.987 507.208 463.215C501.245 461.444 495.748 458.878 491.881 454.762L491.524 454.372C484.194 446.177 487.242 436.793 489.688 428.948C490.949 424.904 492.035 421.316 491.686 418.358C491.515 416.904 490.996 415.617 489.976 414.508C488.949 413.391 487.385 412.423 485.074 411.665L485.063 411.662L485.054 411.658C470.404 406.15 460.91 399.404 455.781 392.016C450.649 384.624 449.919 376.632 452.705 368.727C453.214 362.406 456.947 355.758 463.026 349.492C468.943 343.394 477.119 337.618 486.839 332.809L487.784 332.346L487.788 332.345L488.704 331.916C508.022 322.958 532.894 317.89 558.132 321.67L558.201 321.68L558.265 321.709C571.169 327.577 587.625 327.937 605.746 325.007C623.859 322.079 643.572 315.875 662.948 308.685C682.325 301.495 701.337 293.329 718.066 286.477C734.772 279.635 749.231 274.09 759.442 272.183L759.499 272.172L759.558 272.175C772.555 272.809 783.102 268.986 794.74 264.483C806.008 260.123 818.276 255.137 834.665 253.073L836.265 252.883C853.537 250.943 863.038 255.979 870.096 260.813C873.639 263.24 876.464 265.533 879.381 266.917C882.24 268.273 885.131 268.72 888.751 267.424C915.094 255.136 932.531 251.105 943.989 253.3C952.522 251.983 959.005 252.916 963.601 255.688C968.228 258.479 970.861 263.084 971.776 268.903C973.596 280.487 968.633 297.028 958.888 314.418C953.361 326.068 948.714 336.976 945.845 346.948C942.973 356.926 941.895 365.927 943.464 373.776L943.496 373.937L943.427 374.085C942.472 376.142 942.28 377.945 942.652 379.563C943.025 381.187 943.98 382.679 945.417 384.083C948.305 386.908 953.034 389.284 958.444 391.599C963.812 393.895 969.86 396.134 975.207 398.658C980.557 401.183 985.332 404.049 988.177 407.67L988.194 407.69L988.207 407.711C991.856 413.49 992.644 418.638 992.158 423.321C991.675 427.972 989.93 432.163 988.574 435.973C987.204 439.823 986.241 443.26 987.108 446.581C987.968 449.877 990.672 453.189 996.974 456.663L996.983 456.668L996.993 456.674C1009.69 464.41 1022.08 472.453 1034.74 480.785L1034.76 480.8L1034.78 480.819C1049.91 493.469 1055.22 506.149 1054.06 517.755C1052.91 529.266 1045.42 539.574 1035.18 547.621C1034.64 559.375 1024.66 570.397 1009.94 579.385C995.076 588.453 975.232 595.548 954.828 599.313L954.818 599.314L952.377 599.699C927.548 603.466 902.44 602.724 883.134 595.553L882.189 595.194C860.034 586.654 841.208 577.272 819.635 571.875C798.102 566.488 773.86 565.087 741 572.574L740.984 572.577L740.97 572.58C733.76 573.756 726.889 577.321 719.889 582.2C712.885 587.081 705.801 593.24 698.14 599.58C682.843 612.24 665.318 625.56 641.956 630.335C624.968 634.444 609.896 634.63 595.751 634.804C581.589 634.978 568.379 635.141 555.017 639.161L552.495 639.907C526.687 647.404 505.904 649.32 494.897 648.025C482.024 652.493 472.429 653.235 465.762 651.436Z" stroke="#686868"/>
<path d="M528.657 595.638C525.062 593.769 523.226 590.542 522.964 586.725C522.444 579.156 528.086 569.276 538.246 562.509L540.164 561.21C559.803 547.845 573.883 536.328 583.608 526.167C593.648 515.676 599.022 506.656 601.101 498.568C605.247 482.443 596.347 469.792 584.433 456.187L584.325 456.064L584.311 455.901C584.152 454.094 582.71 452.782 580.15 451.703C577.606 450.631 574.144 449.869 570.288 449.058C566.453 448.252 562.25 447.402 558.297 446.153C554.345 444.903 550.601 443.242 547.689 440.787L547.156 440.322C541.815 435.499 541.511 430.056 541.355 425.309C541.275 422.842 541.232 420.622 540.608 418.694C539.996 416.808 538.821 415.196 536.419 413.983L536.404 413.975L536.388 413.966C528.382 409.188 523.965 403.638 522.612 397.767C521.262 391.911 522.988 385.849 527.025 380.082C528.549 376.045 532.104 371.793 537.082 367.871C541.781 364.17 547.779 360.737 554.624 358.035L556.005 357.504L556.008 357.502L556.009 357.504C570.431 352.24 588.255 350.3 605.472 355.988L605.529 356.007L605.58 356.04C616.594 362.922 631.86 363.463 649.254 360.14C666.633 356.82 686.035 349.664 705.24 341.279C724.442 332.896 743.419 323.298 759.952 315.101C776.463 306.914 790.572 300.107 799.988 297.347L800.033 297.334L800.079 297.33C809.628 296.379 817.508 294.158 825.431 292.335C833.099 290.572 840.776 289.191 849.928 289.759L850.818 289.82C860.479 290.546 865.577 295.325 868.675 300.274C870.215 302.733 871.26 305.235 872.126 307.266C872.562 308.288 872.947 309.18 873.329 309.903C873.671 310.552 873.988 311.022 874.3 311.321C878.529 311.419 881.646 312.224 883.925 313.724C886.153 315.191 887.526 317.287 888.374 319.893C891.992 320.051 894.629 321.426 896.354 323.796C898.118 326.218 898.88 329.612 898.872 333.623C898.856 341.64 895.76 352.382 890.904 363.574C885.415 380.196 884.261 395.302 893.47 406.502L893.594 406.652L893.583 406.847C893.45 409.161 894.748 411.136 897.106 412.969C899.467 414.803 902.798 416.42 906.524 418.019C910.22 419.605 914.333 421.184 918.122 422.904C921.922 424.629 925.484 426.534 928.141 428.822L928.16 428.84L928.179 428.859C931.38 432.283 933.072 435.402 934.044 438.307C935.012 441.197 935.26 443.866 935.591 446.32C935.923 448.788 936.338 451.052 937.597 453.269C938.854 455.481 940.977 457.69 944.801 459.976L944.813 459.983L944.824 459.99C953.991 466.142 961.791 472.478 968.746 478.914L968.772 478.938L968.794 478.966C973.216 484.431 975.424 489.877 975.831 495.16C976.237 500.442 974.839 505.52 972.118 510.244C966.712 519.628 956.066 527.654 943.792 533.268C941.398 539.61 934.327 545.446 924.958 550.149C915.461 554.915 903.495 558.575 891.312 560.441L891.304 560.443L891.297 560.443C874.338 562.535 857.342 561.658 844.169 556.581L840.509 555.164C822.408 548.111 807.248 541.655 790.005 538.563C771.637 535.27 750.892 535.798 721.762 543.583L721.75 543.586L721.737 543.589C711.255 545.805 701.349 553.181 690.166 561.148C679.02 569.088 666.666 577.563 651.389 581.767C639.322 585.626 628.214 587.521 617.638 589.204C607.046 590.889 597.007 592.359 587.023 595.362L586.116 595.63C576.776 598.356 568.327 599.525 561.243 599.557C554.036 599.589 548.209 598.445 544.291 596.541C537.37 597.969 532.195 597.478 528.657 595.638Z" stroke="#686868"/>
</g>
</g>
<defs>
<clipPath id="clip0_5_3359">
<rect width="1512" height="990" fill="white"/>
</clipPath>
</defs>
</svg>
