<svg width="393" height="105" viewBox="0 0 393 105" fill="none" xmlns="http://www.w3.org/2000/svg">
<ellipse cx="52.4758" cy="52.1105" rx="52.4758" ry="52.1105" fill="#E5F33C"/>
<path d="M76.768 63.4966L70.7878 60.9111H65.6847C63.7194 60.9111 61.824 60.1589 60.3829 58.7972C48.5175 47.5851 40.1811 29.7773 26.2202 29.7773C26.2202 29.7773 22.4897 36.4935 22.4897 50.6829V52.1104C22.4897 52.1104 26.6059 60.1636 26.6059 74.4435H32.3615L33.7002 54.1502L35.353 54.451C44.7942 56.169 49.6962 66.9271 57.3829 72.7715C58.8106 73.8571 60.5442 74.4435 62.3256 74.4435H82.4621V72.2615C82.4621 68.4402 80.2201 64.9891 76.768 63.4966Z" fill="black"/>
<path d="M147.21 72.7435C144.195 72.7435 141.635 72.1987 139.529 71.1093C137.422 70.0198 135.534 68.4219 133.864 66.3156L138.112 62.0667C139.166 63.5919 140.419 64.7904 141.871 65.6619C143.324 66.4972 145.176 66.9148 147.427 66.9148C149.534 66.9148 151.204 66.479 152.439 65.6075C153.71 64.7359 154.346 63.5375 154.346 62.0122C154.346 60.7412 154.019 59.7062 153.365 58.9072C152.711 58.1083 151.84 57.4546 150.75 56.9462C149.697 56.4015 148.517 55.9294 147.21 55.5299C145.938 55.0941 144.649 54.622 143.342 54.1136C142.071 53.5689 140.891 52.897 139.801 52.0981C138.748 51.2991 137.895 50.2641 137.241 48.9931C136.587 47.7221 136.26 46.106 136.26 44.145C136.26 41.8934 136.805 39.9869 137.895 38.4253C139.02 36.8274 140.527 35.6108 142.416 34.7756C144.304 33.9403 146.411 33.5227 148.735 33.5227C151.241 33.5227 153.474 34.0129 155.435 34.9935C157.432 35.974 159.048 37.2269 160.283 38.7521L156.034 43.001C154.945 41.7663 153.801 40.8584 152.602 40.2774C151.44 39.66 150.097 39.3513 148.571 39.3513C146.683 39.3513 145.194 39.7326 144.105 40.4953C143.051 41.2579 142.525 42.3292 142.525 43.7092C142.525 44.8713 142.852 45.8155 143.505 46.5418C144.159 47.2318 145.012 47.831 146.066 48.3394C147.155 48.8115 148.335 49.2655 149.606 49.7013C150.914 50.137 152.203 50.6273 153.474 51.172C154.781 51.7168 155.962 52.4249 157.015 53.2965C158.104 54.1318 158.976 55.2212 159.629 56.5649C160.283 57.9086 160.61 59.5972 160.61 61.6309C160.61 65.0446 159.393 67.7501 156.96 69.7474C154.563 71.7448 151.313 72.7435 147.21 72.7435ZM181.691 72.1987V57.1096C181.691 55.3665 181.128 53.932 180.002 52.8062C178.913 51.6805 177.497 51.1176 175.753 51.1176C174.591 51.1176 173.556 51.3718 172.648 51.8802C171.741 52.3886 171.032 53.0968 170.524 54.0046C170.016 54.9125 169.761 55.9475 169.761 57.1096L167.419 55.8023C167.419 53.8049 167.855 52.0436 168.726 50.5184C169.598 48.9568 170.796 47.7402 172.322 46.8686C173.883 45.9608 175.626 45.5068 177.551 45.5068C179.512 45.5068 181.255 45.9426 182.78 46.8142C184.306 47.6857 185.504 48.9023 186.376 50.4639C187.247 51.9891 187.683 53.7686 187.683 55.8023V72.1987H181.691ZM163.769 72.1987V32.978H169.761V72.1987H163.769ZM203.487 72.7435C200.944 72.7435 198.638 72.1443 196.568 70.9458C194.498 69.7111 192.846 68.0588 191.611 65.9888C190.413 63.9188 189.814 61.6128 189.814 59.0707C189.814 56.5286 190.413 54.2407 191.611 52.207C192.846 50.1734 194.498 48.5573 196.568 47.3589C198.638 46.1242 200.944 45.5068 203.487 45.5068C206.065 45.5068 208.389 46.106 210.459 47.3044C212.529 48.5028 214.163 50.137 215.362 52.207C216.596 54.2407 217.214 56.5286 217.214 59.0707C217.214 61.6128 216.596 63.9188 215.362 65.9888C214.163 68.0588 212.529 69.7111 210.459 70.9458C208.389 72.1443 206.065 72.7435 203.487 72.7435ZM203.487 66.9693C204.975 66.9693 206.283 66.6425 207.409 65.9888C208.571 65.2988 209.46 64.3546 210.078 63.1562C210.731 61.9578 211.058 60.5959 211.058 59.0707C211.058 57.5454 210.731 56.2017 210.078 55.0396C209.424 53.8775 208.534 52.9697 207.409 52.316C206.283 51.626 204.975 51.281 203.487 51.281C202.034 51.281 200.727 51.626 199.564 52.316C198.439 52.9697 197.549 53.8775 196.895 55.0396C196.278 56.2017 195.969 57.5454 195.969 59.0707C195.969 60.5959 196.278 61.9578 196.895 63.1562C197.549 64.3546 198.439 65.2988 199.564 65.9888C200.727 66.6425 202.034 66.9693 203.487 66.9693ZM232.075 72.7435C229.46 72.7435 227.099 72.1624 224.993 71.0003C222.923 69.8019 221.271 68.1677 220.036 66.0977C218.838 64.0277 218.238 61.7035 218.238 59.1251C218.238 56.5467 218.838 54.2407 220.036 52.207C221.234 50.137 222.851 48.5028 224.884 47.3044C226.954 46.106 229.242 45.5068 231.748 45.5068C234.181 45.5068 236.324 46.0697 238.176 47.1955C240.064 48.3213 241.535 49.8647 242.588 51.8257C243.677 53.7868 244.222 56.0202 244.222 58.5259C244.222 58.9617 244.186 59.4157 244.113 59.8878C244.077 60.3236 244.004 60.8138 243.895 61.3585H222.433V56.4559H240.79L238.557 58.417C238.484 56.8191 238.176 55.4754 237.631 54.386C237.086 53.2965 236.305 52.4612 235.289 51.8802C234.308 51.2991 233.091 51.0086 231.639 51.0086C230.114 51.0086 228.788 51.3355 227.662 51.9891C226.537 52.6428 225.665 53.5689 225.048 54.7673C224.43 55.9294 224.122 57.3275 224.122 58.9617C224.122 60.5959 224.448 62.0304 225.102 63.2651C225.756 64.4998 226.682 65.4622 227.88 66.1522C229.079 66.8059 230.459 67.1327 232.02 67.1327C233.364 67.1327 234.599 66.8967 235.724 66.4246C236.886 65.9525 237.867 65.2625 238.666 64.3546L242.479 68.2222C241.208 69.7111 239.665 70.8369 237.849 71.5995C236.033 72.3622 234.108 72.7435 232.075 72.7435ZM266.014 72.1987L253.485 34.0674H259.64L269.064 63.4285H267.43L276.636 34.0674H280.994L290.2 63.4285H288.566L297.99 34.0674H304.145L291.616 72.1987H287.258L277.998 42.8921H279.632L270.372 72.1987H266.014ZM314.792 72.7435C312.249 72.7435 309.943 72.1443 307.873 70.9458C305.803 69.7111 304.151 68.0588 302.916 65.9888C301.718 63.9188 301.119 61.6128 301.119 59.0707C301.119 56.5286 301.718 54.2407 302.916 52.207C304.151 50.1734 305.803 48.5573 307.873 47.3589C309.943 46.1242 312.249 45.5068 314.792 45.5068C317.37 45.5068 319.694 46.106 321.764 47.3044C323.834 48.5028 325.468 50.137 326.667 52.207C327.901 54.2407 328.519 56.5286 328.519 59.0707C328.519 61.6128 327.901 63.9188 326.667 65.9888C325.468 68.0588 323.834 69.7111 321.764 70.9458C319.694 72.1443 317.37 72.7435 314.792 72.7435ZM314.792 66.9693C316.28 66.9693 317.588 66.6425 318.714 65.9888C319.876 65.2988 320.765 64.3546 321.383 63.1562C322.036 61.9578 322.363 60.5959 322.363 59.0707C322.363 57.5454 322.036 56.2017 321.383 55.0396C320.729 53.8775 319.839 52.9697 318.714 52.316C317.588 51.626 316.28 51.281 314.792 51.281C313.339 51.281 312.032 51.626 310.869 52.316C309.744 52.9697 308.854 53.8775 308.2 55.0396C307.583 56.2017 307.274 57.5454 307.274 59.0707C307.274 60.5959 307.583 61.9578 308.2 63.1562C308.854 64.3546 309.744 65.2988 310.869 65.9888C312.032 66.6425 313.339 66.9693 314.792 66.9693ZM331.232 72.1987V46.0515H337.224V72.1987H331.232ZM337.224 57.6544L335.154 56.6194C335.154 53.3147 335.88 50.6455 337.333 48.6118C338.822 46.5418 341.055 45.5068 344.033 45.5068C345.341 45.5068 346.521 45.7429 347.574 46.215C348.627 46.6871 349.608 47.4497 350.516 48.5028L346.594 52.5339C346.121 52.0255 345.595 51.6623 345.014 51.4444C344.433 51.2265 343.761 51.1176 342.998 51.1176C341.328 51.1176 339.948 51.6441 338.858 52.6973C337.769 53.7504 337.224 55.4028 337.224 57.6544ZM351.145 72.1987V32.978H357.137V72.1987H351.145ZM372.486 72.7435C370.125 72.7435 367.982 72.1443 366.058 70.9458C364.169 69.7474 362.662 68.1314 361.536 66.0977C360.447 64.0277 359.902 61.7217 359.902 59.1796C359.902 56.6012 360.447 54.2952 361.536 52.2615C362.662 50.1915 364.169 48.5573 366.058 47.3589C367.982 46.1242 370.125 45.5068 372.486 45.5068C374.483 45.5068 376.244 45.9426 377.769 46.8142C379.331 47.6494 380.566 48.8115 381.474 50.3005C382.382 51.7894 382.835 53.4781 382.835 55.3665V62.8838C382.835 64.7722 382.382 66.4609 381.474 67.9498C380.602 69.4388 379.385 70.619 377.824 71.4906C376.262 72.3258 374.483 72.7435 372.486 72.7435ZM373.466 67.0782C374.955 67.0782 376.244 66.7514 377.334 66.0977C378.459 65.4077 379.331 64.4635 379.948 63.2651C380.566 62.0667 380.874 60.6867 380.874 59.1251C380.874 57.5636 380.566 56.1836 379.948 54.9852C379.331 53.7868 378.459 52.8607 377.334 52.207C376.244 51.517 374.955 51.172 373.466 51.172C372.013 51.172 370.724 51.517 369.598 52.207C368.509 52.8607 367.637 53.7868 366.984 54.9852C366.366 56.1836 366.058 57.5636 366.058 59.1251C366.058 60.6867 366.366 62.0667 366.984 63.2651C367.637 64.4635 368.509 65.4077 369.598 66.0977C370.724 66.7514 372.013 67.0782 373.466 67.0782ZM386.485 72.1987H380.493V65.1717L381.528 58.7983L380.493 52.4794V32.978H386.485V72.1987Z" fill="white"/>
</svg>
