<svg width="181" height="48" viewBox="0 0 181 48" fill="none" xmlns="http://www.w3.org/2000/svg">
<ellipse cx="24.1683" cy="24" rx="24.1683" ry="24" fill="#E5F33C"/>
<path d="M35.3563 29.2441L32.602 28.0533H30.2518C29.3466 28.0533 28.4737 27.7069 27.81 27.0797C22.3453 21.9159 18.5059 13.7144 12.076 13.7144C12.076 13.7144 10.3579 16.8075 10.3579 23.3426V24C10.3579 24 12.2537 27.709 12.2537 34.2858H14.9045L15.521 24.9395L16.2822 25.0781C20.6304 25.8693 22.8881 30.8241 26.4283 33.5157C27.0859 34.0157 27.8843 34.2858 28.7047 34.2858H37.9788V33.2808C37.9788 31.5209 36.9462 29.9315 35.3563 29.2441Z" fill="black"/>
<path d="M67.7989 33.2509C66.4107 33.2509 65.2315 33 64.2615 32.4982C63.2914 31.9965 62.4217 31.2606 61.6523 30.2905L63.6092 28.3336C64.0942 29.0361 64.6712 29.588 65.3403 29.9894C66.0093 30.3741 66.8623 30.5664 67.8993 30.5664C68.8693 30.5664 69.6387 30.3657 70.2074 29.9643C70.7928 29.5629 71.0855 29.011 71.0855 28.3085C71.0855 27.7231 70.9349 27.2464 70.6339 26.8785C70.3328 26.5105 69.9314 26.2095 69.4296 25.9753C68.9446 25.7244 68.401 25.507 67.7989 25.323C67.2135 25.1223 66.6198 24.9049 66.0176 24.6707C65.4323 24.4198 64.8887 24.1104 64.3869 23.7425C63.9019 23.3745 63.5088 22.8978 63.2078 22.3124C62.9067 21.727 62.7562 20.9827 62.7562 20.0796C62.7562 19.0426 63.0071 18.1645 63.5088 17.4453C64.0273 16.7094 64.7214 16.1491 65.5911 15.7644C66.4609 15.3797 67.4309 15.1874 68.5014 15.1874C69.6554 15.1874 70.684 15.4132 71.5872 15.8648C72.5071 16.3163 73.2514 16.8934 73.8201 17.5958L71.8632 19.5527C71.3614 18.9841 70.8346 18.5659 70.2826 18.2983C69.7474 18.014 69.1286 17.8718 68.4261 17.8718C67.5564 17.8718 66.8706 18.0474 66.3689 18.3987C65.8838 18.7499 65.6413 19.2433 65.6413 19.8789C65.6413 20.4141 65.7918 20.8489 66.0929 21.1835C66.394 21.5012 66.787 21.7772 67.2721 22.0114C67.7738 22.2288 68.3174 22.4379 68.9028 22.6386C69.5049 22.8393 70.0987 23.0651 70.684 23.316C71.2862 23.5668 71.8297 23.893 72.3148 24.2944C72.8165 24.6791 73.218 25.1808 73.519 25.7997C73.8201 26.4185 73.9706 27.1963 73.9706 28.1329C73.9706 29.7051 73.4103 30.9511 72.2897 31.871C71.1858 32.7909 69.6889 33.2509 67.7989 33.2509ZM83.6797 33V26.0506C83.6797 25.2477 83.4204 24.5871 82.9019 24.0686C82.4002 23.5501 81.7479 23.2909 80.9451 23.2909C80.4098 23.2909 79.9332 23.4079 79.515 23.6421C79.0969 23.8763 78.7707 24.2024 78.5366 24.6205C78.3024 25.0387 78.1854 25.5154 78.1854 26.0506L77.1066 25.4484C77.1066 24.5285 77.3073 23.7174 77.7087 23.0149C78.1101 22.2957 78.662 21.7354 79.3645 21.334C80.0837 20.9158 80.8865 20.7068 81.773 20.7068C82.6761 20.7068 83.479 20.9075 84.1814 21.3089C84.8839 21.7103 85.4358 22.2706 85.8373 22.9898C86.2387 23.6923 86.4394 24.5118 86.4394 25.4484V33H83.6797ZM75.4257 33V14.9365H78.1854V33H75.4257ZM93.7178 33.2509C92.547 33.2509 91.485 32.9749 90.5316 32.423C89.5783 31.8543 88.8173 31.0933 88.2486 30.1399C87.6967 29.1866 87.4207 28.1245 87.4207 26.9537C87.4207 25.783 87.6967 24.7293 88.2486 23.7926C88.8173 22.856 89.5783 22.1117 90.5316 21.5598C91.485 20.9911 92.547 20.7068 93.7178 20.7068C94.9053 20.7068 95.9758 20.9827 96.9291 21.5347C97.8825 22.0866 98.6351 22.8393 99.1871 23.7926C99.7557 24.7293 100.04 25.783 100.04 26.9537C100.04 28.1245 99.7557 29.1866 99.1871 30.1399C98.6351 31.0933 97.8825 31.8543 96.9291 32.423C95.9758 32.9749 94.9053 33.2509 93.7178 33.2509ZM93.7178 30.5915C94.4036 30.5915 95.0057 30.441 95.5242 30.1399C96.0594 29.8222 96.4692 29.3873 96.7535 28.8354C97.0546 28.2834 97.2051 27.6562 97.2051 26.9537C97.2051 26.2513 97.0546 25.6324 96.7535 25.0972C96.4524 24.562 96.0427 24.1439 95.5242 23.8428C95.0057 23.525 94.4036 23.3661 93.7178 23.3661C93.0488 23.3661 92.4467 23.525 91.9115 23.8428C91.393 24.1439 90.9832 24.562 90.6822 25.0972C90.3978 25.6324 90.2557 26.2513 90.2557 26.9537C90.2557 27.6562 90.3978 28.2834 90.6822 28.8354C90.9832 29.3873 91.393 29.8222 91.9115 30.1399C92.4467 30.441 93.0488 30.5915 93.7178 30.5915ZM106.884 33.2509C105.68 33.2509 104.593 32.9833 103.623 32.4481C102.67 31.8961 101.909 31.1435 101.34 30.1901C100.788 29.2368 100.512 28.1663 100.512 26.9788C100.512 25.7913 100.788 24.7293 101.34 23.7926C101.892 22.8393 102.636 22.0866 103.573 21.5347C104.526 20.9827 105.58 20.7068 106.734 20.7068C107.854 20.7068 108.841 20.966 109.694 21.4845C110.564 22.003 111.241 22.7138 111.726 23.617C112.228 24.5202 112.479 25.5488 112.479 26.7029C112.479 26.9036 112.462 27.1126 112.429 27.3301C112.412 27.5308 112.379 27.7566 112.329 28.0074H102.444V25.7495H110.898L109.87 26.6527C109.836 25.9168 109.694 25.2979 109.443 24.7962C109.192 24.2944 108.833 23.9097 108.365 23.6421C107.913 23.3745 107.353 23.2407 106.684 23.2407C105.981 23.2407 105.371 23.3912 104.852 23.6923C104.334 23.9933 103.932 24.4198 103.648 24.9718C103.364 25.507 103.221 26.1509 103.221 26.9036C103.221 27.6562 103.372 28.3169 103.673 28.8855C103.974 29.4542 104.401 29.8974 104.953 30.2152C105.505 30.5163 106.14 30.6668 106.859 30.6668C107.478 30.6668 108.047 30.5581 108.565 30.3406C109.1 30.1232 109.552 29.8054 109.92 29.3873L111.676 31.1686C111.091 31.8543 110.38 32.3728 109.544 32.724C108.707 33.0753 107.821 33.2509 106.884 33.2509ZM122.515 33L116.745 15.4383H119.58L123.92 28.9608H123.168L127.408 15.4383H129.415L133.655 28.9608H132.902L137.242 15.4383H140.077L134.307 33H132.3L128.035 19.5025H128.787L124.522 33H122.515ZM144.98 33.2509C143.81 33.2509 142.748 32.9749 141.794 32.423C140.841 31.8543 140.08 31.0933 139.511 30.1399C138.959 29.1866 138.683 28.1245 138.683 26.9537C138.683 25.783 138.959 24.7293 139.511 23.7926C140.08 22.856 140.841 22.1117 141.794 21.5598C142.748 20.9911 143.81 20.7068 144.98 20.7068C146.168 20.7068 147.238 20.9827 148.192 21.5347C149.145 22.0866 149.898 22.8393 150.45 23.7926C151.018 24.7293 151.303 25.783 151.303 26.9537C151.303 28.1245 151.018 29.1866 150.45 30.1399C149.898 31.0933 149.145 31.8543 148.192 32.423C147.238 32.9749 146.168 33.2509 144.98 33.2509ZM144.98 30.5915C145.666 30.5915 146.268 30.441 146.787 30.1399C147.322 29.8222 147.732 29.3873 148.016 28.8354C148.317 28.2834 148.468 27.6562 148.468 26.9537C148.468 26.2513 148.317 25.6324 148.016 25.0972C147.715 24.562 147.305 24.1439 146.787 23.8428C146.268 23.525 145.666 23.3661 144.98 23.3661C144.311 23.3661 143.709 23.525 143.174 23.8428C142.656 24.1439 142.246 24.562 141.945 25.0972C141.66 25.6324 141.518 26.2513 141.518 26.9537C141.518 27.6562 141.66 28.2834 141.945 28.8354C142.246 29.3873 142.656 29.8222 143.174 30.1399C143.709 30.441 144.311 30.5915 144.98 30.5915ZM152.552 33V20.9577H155.312V33H152.552ZM155.312 26.3014L154.359 25.8248C154.359 24.3028 154.693 23.0734 155.362 22.1368C156.048 21.1835 157.077 20.7068 158.448 20.7068C159.05 20.7068 159.594 20.8155 160.079 21.0329C160.564 21.2504 161.015 21.6016 161.434 22.0866L159.627 23.9432C159.41 23.709 159.167 23.5417 158.9 23.4414C158.632 23.341 158.323 23.2909 157.971 23.2909C157.202 23.2909 156.566 23.5334 156.065 24.0184C155.563 24.5035 155.312 25.2645 155.312 26.3014ZM161.724 33V14.9365H164.483V33H161.724ZM171.552 33.2509C170.465 33.2509 169.478 32.9749 168.592 32.423C167.722 31.871 167.028 31.1267 166.509 30.1901C166.007 29.2368 165.757 28.1747 165.757 27.0039C165.757 25.8164 166.007 24.7543 166.509 23.8177C167.028 22.8644 167.722 22.1117 168.592 21.5598C169.478 20.9911 170.465 20.7068 171.552 20.7068C172.472 20.7068 173.283 20.9075 173.986 21.3089C174.705 21.6936 175.273 22.2288 175.692 22.9145C176.11 23.6003 176.319 24.378 176.319 25.2477V28.7099C176.319 29.5796 176.11 30.3574 175.692 31.0431C175.29 31.7289 174.73 32.2724 174.011 32.6739C173.291 33.0585 172.472 33.2509 171.552 33.2509ZM172.004 30.6417C172.689 30.6417 173.283 30.4912 173.785 30.1901C174.303 29.8723 174.705 29.4375 174.989 28.8855C175.273 28.3336 175.416 27.698 175.416 26.9788C175.416 26.2596 175.273 25.6241 174.989 25.0721C174.705 24.5202 174.303 24.0937 173.785 23.7926C173.283 23.4748 172.689 23.316 172.004 23.316C171.335 23.316 170.741 23.4748 170.222 23.7926C169.721 24.0937 169.319 24.5202 169.018 25.0721C168.734 25.6241 168.592 26.2596 168.592 26.9788C168.592 27.698 168.734 28.3336 169.018 28.8855C169.319 29.4375 169.721 29.8723 170.222 30.1901C170.741 30.4912 171.335 30.6417 172.004 30.6417ZM178 33H175.24V29.7636L175.717 26.8283L175.24 23.9181V14.9365H178V33Z" fill="black"/>
</svg>
