<svg width="220" height="59" viewBox="0 0 220 59" fill="none" xmlns="http://www.w3.org/2000/svg">
<ellipse cx="29.3758" cy="29.1713" rx="29.3758" ry="29.1713" fill="#E5F33C"/>
<path d="M42.9746 35.5454L39.6269 34.098H36.7702C35.67 34.098 34.609 33.6769 33.8023 32.9146C27.1601 26.6381 22.4934 16.6694 14.6781 16.6694C14.6781 16.6694 12.5898 20.4291 12.5898 28.3723V29.1714C12.5898 29.1714 14.8941 33.6795 14.8941 41.6734H18.116L18.8654 30.3133L19.7906 30.4817C25.0758 31.4434 27.8199 37.4658 32.1229 40.7374C32.9222 41.3451 33.8926 41.6734 34.8898 41.6734H46.1622V40.4519C46.1622 38.3127 44.9071 36.3808 42.9746 35.5454Z" fill="black"/>
<path d="M82.4074 40.8132C80.7201 40.8132 79.2869 40.5083 78.1078 39.8984C76.9287 39.2885 75.8715 38.3941 74.9364 37.215L77.3149 34.8364C77.9045 35.6903 78.6058 36.3611 79.419 36.849C80.2322 37.3166 81.269 37.5504 82.5294 37.5504C83.7085 37.5504 84.6436 37.3064 85.3348 36.8185C86.0464 36.3306 86.4021 35.6598 86.4021 34.8059C86.4021 34.0944 86.2192 33.515 85.8532 33.0678C85.4873 32.6205 84.9994 32.2546 84.3895 31.97C83.8 31.6651 83.1393 31.4008 82.4074 31.1772C81.6959 30.9332 80.9742 30.6689 80.2423 30.3843C79.5308 30.0794 78.8701 29.7033 78.2602 29.256C77.6707 28.8088 77.193 28.2294 76.827 27.5179C76.4611 26.8064 76.2781 25.9017 76.2781 24.8039C76.2781 23.5435 76.5831 22.4762 77.193 21.602C77.8232 20.7076 78.6668 20.0265 79.7239 19.559C80.7811 19.0914 81.9602 18.8576 83.2612 18.8576C84.664 18.8576 85.9142 19.132 87.012 19.6809C88.1301 20.2298 89.0348 20.9312 89.726 21.785L87.3474 24.1635C86.7376 23.4723 86.0972 22.9641 85.4263 22.6388C84.7758 22.2932 84.0236 22.1204 83.1698 22.1204C82.1126 22.1204 81.2791 22.3339 80.6693 22.7608C80.0797 23.1877 79.7849 23.7874 79.7849 24.56C79.7849 25.2105 79.9679 25.7391 80.3338 26.1456C80.6998 26.5319 81.1775 26.8673 81.767 27.1519C82.3769 27.4162 83.0376 27.6703 83.7492 27.9143C84.481 28.1582 85.2027 28.4327 85.9142 28.7376C86.6461 29.0426 87.3068 29.439 87.8963 29.9269C88.5062 30.3945 88.9941 31.0044 89.36 31.7565C89.726 32.5087 89.9089 33.454 89.9089 34.5925C89.9089 36.5034 89.2279 38.018 87.8658 39.1361C86.5241 40.2542 84.7046 40.8132 82.4074 40.8132ZM101.71 40.5083V32.0615C101.71 31.0857 101.395 30.2827 100.765 29.6525C100.155 29.0222 99.362 28.7071 98.3862 28.7071C97.7356 28.7071 97.1562 28.8494 96.648 29.1341C96.1398 29.4187 95.7434 29.8151 95.4588 30.3233C95.1741 30.8316 95.0318 31.4109 95.0318 32.0615L93.7206 31.3296C93.7206 30.2115 93.9645 29.2255 94.4524 28.3717C94.9404 27.4975 95.6112 26.8165 96.4651 26.3286C97.3392 25.8204 98.315 25.5663 99.3925 25.5663C100.49 25.5663 101.466 25.8102 102.32 26.2981C103.174 26.786 103.845 27.4671 104.332 28.3412C104.82 29.195 105.064 30.1912 105.064 31.3296V40.5083H101.71ZM91.6775 40.5083V18.5527H95.0318V40.5083H91.6775ZM113.911 40.8132C112.488 40.8132 111.197 40.4778 110.038 39.8069C108.88 39.1157 107.955 38.1908 107.263 37.032C106.593 35.8732 106.257 34.5823 106.257 33.1593C106.257 31.7362 106.593 30.4555 107.263 29.317C107.955 28.1786 108.88 27.2739 110.038 26.6031C111.197 25.9119 112.488 25.5663 113.911 25.5663C115.354 25.5663 116.656 25.9017 117.814 26.5726C118.973 27.2434 119.888 28.1582 120.559 29.317C121.25 30.4555 121.596 31.7362 121.596 33.1593C121.596 34.5823 121.25 35.8732 120.559 37.032C119.888 38.1908 118.973 39.1157 117.814 39.8069C116.656 40.4778 115.354 40.8132 113.911 40.8132ZM113.911 37.5809C114.745 37.5809 115.476 37.3979 116.107 37.032C116.757 36.6457 117.255 36.1172 117.601 35.4463C117.967 34.7754 118.15 34.0131 118.15 33.1593C118.15 32.3054 117.967 31.5532 117.601 30.9027C117.235 30.2522 116.737 29.7439 116.107 29.378C115.476 28.9918 114.745 28.7986 113.911 28.7986C113.098 28.7986 112.366 28.9918 111.716 29.378C111.085 29.7439 110.587 30.2522 110.221 30.9027C109.876 31.5532 109.703 32.3054 109.703 33.1593C109.703 34.0131 109.876 34.7754 110.221 35.4463C110.587 36.1172 111.085 36.6457 111.716 37.032C112.366 37.3979 113.098 37.5809 113.911 37.5809ZM129.915 40.8132C128.451 40.8132 127.13 40.488 125.95 39.8374C124.792 39.1666 123.867 38.2517 123.175 37.093C122.505 35.9342 122.169 34.6331 122.169 33.1898C122.169 31.7464 122.505 30.4555 123.175 29.317C123.846 28.1582 124.751 27.2434 125.889 26.5726C127.048 25.9017 128.329 25.5663 129.732 25.5663C131.094 25.5663 132.293 25.8814 133.33 26.5116C134.387 27.1418 135.21 28.0058 135.8 29.1036C136.41 30.2013 136.715 31.4516 136.715 32.8543C136.715 33.0983 136.694 33.3524 136.654 33.6167C136.633 33.8606 136.593 34.1351 136.532 34.44H124.517V31.6955H134.794L133.543 32.7933C133.503 31.8988 133.33 31.1467 133.025 30.5368C132.72 29.9269 132.283 29.4593 131.714 29.1341C131.165 28.8088 130.484 28.6462 129.671 28.6462C128.817 28.6462 128.075 28.8291 127.445 29.195C126.814 29.561 126.326 30.0794 125.981 30.7502C125.635 31.4008 125.462 32.1835 125.462 33.0983C125.462 34.0131 125.645 34.8161 126.011 35.5073C126.377 36.1985 126.896 36.7372 127.567 37.1235C128.237 37.4894 129.01 37.6724 129.884 37.6724C130.636 37.6724 131.328 37.5402 131.958 37.2759C132.608 37.0117 133.157 36.6254 133.604 36.1172L135.739 38.2822C135.027 39.1157 134.163 39.746 133.147 40.1729C132.131 40.5998 131.053 40.8132 129.915 40.8132ZM148.914 40.5083L141.9 19.1625H145.346L150.621 35.5988H149.706L154.86 19.1625H157.299L162.453 35.5988H161.538L166.814 19.1625H170.259L163.246 40.5083H160.806L155.622 24.1026H156.537L151.353 40.5083H148.914ZM176.219 40.8132C174.796 40.8132 173.505 40.4778 172.346 39.8069C171.188 39.1157 170.263 38.1908 169.572 37.032C168.901 35.8732 168.565 34.5823 168.565 33.1593C168.565 31.7362 168.901 30.4555 169.572 29.317C170.263 28.1786 171.188 27.2739 172.346 26.6031C173.505 25.9119 174.796 25.5663 176.219 25.5663C177.663 25.5663 178.964 25.9017 180.122 26.5726C181.281 27.2434 182.196 28.1582 182.867 29.317C183.558 30.4555 183.904 31.7362 183.904 33.1593C183.904 34.5823 183.558 35.8732 182.867 37.032C182.196 38.1908 181.281 39.1157 180.122 39.8069C178.964 40.4778 177.663 40.8132 176.219 40.8132ZM176.219 37.5809C177.053 37.5809 177.785 37.3979 178.415 37.032C179.065 36.6457 179.563 36.1172 179.909 35.4463C180.275 34.7754 180.458 34.0131 180.458 33.1593C180.458 32.3054 180.275 31.5532 179.909 30.9027C179.543 30.2522 179.045 29.7439 178.415 29.378C177.785 28.9918 177.053 28.7986 176.219 28.7986C175.406 28.7986 174.674 28.9918 174.024 29.378C173.393 29.7439 172.895 30.2522 172.529 30.9027C172.184 31.5532 172.011 32.3054 172.011 33.1593C172.011 34.0131 172.184 34.7754 172.529 35.4463C172.895 36.1172 173.393 36.6457 174.024 37.032C174.674 37.3979 175.406 37.5809 176.219 37.5809ZM185.423 40.5083V25.8712H188.777V40.5083H185.423ZM188.777 32.3664L187.618 31.787C187.618 29.9371 188.025 28.4429 188.838 27.3044C189.671 26.1456 190.922 25.5663 192.589 25.5663C193.321 25.5663 193.981 25.6984 194.571 25.9627C195.16 26.227 195.709 26.6539 196.217 27.2434L194.022 29.5C193.758 29.2154 193.463 29.0121 193.138 28.8901C192.812 28.7681 192.436 28.7071 192.009 28.7071C191.074 28.7071 190.302 29.0019 189.692 29.5915C189.082 30.181 188.777 31.106 188.777 32.3664ZM196.57 40.5083V18.5527H199.924V40.5083H196.57ZM208.516 40.8132C207.195 40.8132 205.995 40.4778 204.918 39.8069C203.861 39.1361 203.017 38.2314 202.387 37.093C201.777 35.9342 201.472 34.6433 201.472 33.2202C201.472 31.7769 201.777 30.486 202.387 29.3475C203.017 28.1887 203.861 27.2739 204.918 26.6031C205.995 25.9119 207.195 25.5663 208.516 25.5663C209.634 25.5663 210.62 25.8102 211.474 26.2981C212.348 26.7657 213.039 27.4162 213.548 28.2497C214.056 29.0832 214.31 30.0285 214.31 31.0857V35.2938C214.31 36.351 214.056 37.2963 213.548 38.1298C213.06 38.9633 212.379 39.624 211.505 40.1119C210.63 40.5795 209.634 40.8132 208.516 40.8132ZM209.065 37.6419C209.899 37.6419 210.62 37.4589 211.23 37.093C211.86 36.7067 212.348 36.1782 212.694 35.5073C213.039 34.8364 213.212 34.0639 213.212 33.1898C213.212 32.3156 213.039 31.5431 212.694 30.8722C212.348 30.2013 211.86 29.6829 211.23 29.317C210.62 28.9308 209.899 28.7376 209.065 28.7376C208.252 28.7376 207.53 28.9308 206.9 29.317C206.29 29.6829 205.802 30.2013 205.436 30.8722C205.091 31.5431 204.918 32.3156 204.918 33.1898C204.918 34.0639 205.091 34.8364 205.436 35.5073C205.802 36.1782 206.29 36.7067 206.9 37.093C207.53 37.4589 208.252 37.6419 209.065 37.6419ZM216.353 40.5083H212.999V36.5746L213.578 33.0068L212.999 29.4695V18.5527H216.353V40.5083Z" fill="black"/>
</svg>
