<svg width="90" height="90" viewBox="0 0 90 90" fill="none" xmlns="http://www.w3.org/2000/svg">
<mask id="mask0_28_1973" style="mask-type:luminance" maskUnits="userSpaceOnUse" x="0" y="0" width="90" height="90">
<path d="M89.25 89.25V0.75H0.75V89.25H89.25Z" fill="white" stroke="white" stroke-width="1.5"/>
</mask>
<g mask="url(#mask0_28_1973)">
<mask id="path-2-inside-1_28_1973" fill="white">
<path d="M78.0365 62.6083C75.3519 63.9638 72.4006 64.0378 70.2922 62.8862C70.8363 60.2114 72.8783 57.6411 75.6899 56.2215C78.3747 54.866 81.3259 54.7919 83.4342 55.9438C82.89 58.6184 80.8481 61.1887 78.0365 62.6083ZM63.6518 74.5899C60.7018 75.1749 57.839 74.4542 56.1172 72.7787C57.3591 70.3483 60.0162 68.4205 63.1058 67.8078C66.0557 67.2226 68.9185 67.9436 70.6401 69.619C69.3982 72.0494 66.7411 73.9772 63.6518 74.5899ZM26.3483 74.5899C23.2588 73.9772 20.6017 72.0494 19.3598 69.619C21.0816 67.9436 23.9442 67.2235 26.8941 67.8078C29.9837 68.4205 32.6408 70.3483 33.8827 72.7787C32.1611 74.4544 29.2981 75.1748 26.3483 74.5899ZM6.56591 55.9436C8.67405 54.7919 11.6252 54.8659 14.31 56.2215C17.1216 57.6411 19.1636 60.2114 19.7077 62.8862C17.5993 64.038 14.6482 63.9638 11.9635 62.6083C9.15201 61.1887 7.10995 58.6184 6.56591 55.9436ZM5.69228 37.267C8.0938 37.3238 10.6127 38.8636 12.26 41.3797C13.9851 44.0151 14.4683 47.2617 13.6021 49.8503C11.2006 49.7935 8.68179 48.2537 7.03454 45.7374C5.30943 43.1022 4.82603 39.8554 5.69228 37.267ZM35.9954 46.2751H37.1638C37.6873 50.1333 41.0006 53.1174 45.0001 53.1174C48.9995 53.1174 52.3128 50.1333 52.8361 46.2751H54.0045C56.7047 46.2751 59.1308 47.4651 60.7906 49.3465C56.906 53.9796 51.1096 56.707 45.0001 56.707C38.8703 56.707 33.0931 53.9857 29.2083 49.3477C30.868 47.4656 33.2947 46.2751 35.9954 46.2751ZM45.0001 16.474C49.7606 16.474 53.8664 19.3194 55.7138 23.3973C54.8492 23.7572 53.9184 23.9445 52.9616 23.9445C50.6626 23.9445 48.486 22.8287 47.1392 20.9596C46.6437 20.2718 45.8477 19.8643 45.0001 19.8643C44.1523 19.8643 43.3564 20.2718 42.8609 20.9594C41.514 22.8287 39.3375 23.9445 37.0385 23.9445C36.0806 23.9445 35.1502 23.7579 34.2861 23.3982C36.1334 19.3197 40.2394 16.474 45.0001 16.474ZM54.319 9.93653C56.814 9.83141 59.5631 11.4256 60.5819 13.556C60.6717 13.7439 60.7633 13.9378 60.8574 14.1367C61.8129 16.158 63.0019 18.6736 64.8979 20.6239C66.6246 22.4001 68.6657 23.3854 70.9092 23.5476C70.671 24.6881 70.0307 25.7927 69.0386 26.7129C67.8756 27.7917 66.4375 28.4779 65.1176 28.3911C63.0643 28.2563 62.0238 27.7433 62.0238 27.7433C61.8166 20.4208 56.9647 14.2414 50.3168 12.0514C51.3949 10.7239 52.7461 10.0003 54.319 9.93653ZM42.3632 45.0587C43.223 45.1928 44.1035 45.2629 45.0001 45.2629C45.8968 45.2629 46.7771 45.1928 47.6368 45.0587V45.2072C47.6368 46.6611 46.454 47.8439 45 47.8439C43.5461 47.8439 42.3632 46.6611 42.3632 45.2072V45.0587ZM45.0001 39.9895C38.6511 39.9895 33.4647 34.9305 33.2525 28.6323C34.4643 29.0186 35.7372 29.218 37.0385 29.218C39.97 29.218 42.786 28.1735 45.0001 26.3338C47.2139 28.1733 50.0301 29.218 52.9616 29.218C54.2619 29.218 55.5352 29.019 56.7478 28.6321C56.5356 34.9303 51.3492 39.9895 45.0001 39.9895ZM51.1755 70.891C47.1111 71.5217 42.8879 71.5196 38.8239 70.8897C36.9511 66.7719 32.8408 63.6112 27.9202 62.6352C27.5908 62.5698 27.262 62.5162 26.9347 62.4719C26.9395 62.4071 26.9551 54.8894 26.9706 54.6737C31.7485 59.3117 38.2018 61.9804 45.0001 61.9804C51.7761 61.9804 58.2472 59.3079 63.0293 54.6729C63.0448 54.8889 63.0555 55.1062 63.0555 55.3261C63.0555 55.3261 63.0606 62.4071 63.0653 62.4719C62.7379 62.5162 62.4093 62.5698 62.0797 62.6352C57.1587 63.6113 53.0481 66.7724 51.1755 70.891ZM77.7399 41.3797C79.3873 38.8634 81.9059 37.3236 84.3076 37.267C85.1739 39.8554 84.6905 43.1022 82.9655 45.7374C81.3181 48.2539 78.7995 49.7937 76.3978 49.8503C75.5316 47.2617 76.015 44.0151 77.7399 41.3797ZM87.9656 52.7233C87.1999 52.0425 86.3497 51.4828 85.4393 51.0423C86.1451 50.3212 86.7962 49.5137 87.3775 48.6258C90.471 43.9001 90.8702 37.9684 88.3945 33.5137C88.0214 32.8426 87.3741 32.3673 86.622 32.2122C81.7064 31.2001 76.4882 33.6644 73.328 38.4915C70.4998 42.8113 69.925 48.1387 71.7384 52.4246C70.4445 53.2701 69.2973 54.2814 68.3289 55.4118V55.3261C68.3289 48.1331 62.9989 42.1634 56.0816 41.154C58.5539 39.0308 60.4119 36.2121 61.3497 33.0043C61.3497 33.0043 63.113 33.6644 65.1204 33.6686C67.7592 33.6742 70.4568 32.5902 72.625 30.5789C75.6943 27.7317 76.9435 23.792 75.9663 20.0401C75.6038 18.6479 74.1918 17.8033 72.794 18.142C69.581 18.9209 67.9225 16.7438 65.6251 11.8831C65.5275 11.6769 65.4324 11.4758 65.3394 11.2813C63.418 7.26308 58.6916 4.48292 54.1056 4.66749C50.0695 4.83096 46.6911 7.18696 44.625 11.2053C35.4065 11.4055 27.9689 18.9662 27.9689 28.2318C27.9689 33.3949 30.2788 38.0281 33.9187 41.154C27.0012 42.1632 21.6711 48.1329 21.6711 55.3261V55.412C20.7026 54.2816 19.5554 53.2701 18.2615 52.4246C20.0749 48.1387 19.5001 42.8113 16.6719 38.4915C13.5119 33.6642 8.29314 31.1997 3.37794 32.2122C2.62577 32.3673 1.97854 32.8426 1.60536 33.5137C-0.870342 37.9684 -0.471141 43.9001 2.62243 48.6258C3.20374 49.5137 3.85484 50.3212 4.5606 51.0423C3.65023 51.483 2.79997 52.0425 2.03427 52.7233C1.46034 53.2336 1.13744 53.9689 1.14992 54.7368C1.23324 59.8324 4.54495 64.7699 9.58671 67.3156C10.9476 68.0027 12.3502 68.4743 13.7467 68.7359C13.6835 69.1237 13.7044 69.5248 13.8186 69.9101C15.2666 74.7963 19.782 78.6637 25.3223 79.7625C26.3671 79.9699 27.4035 80.0706 28.4162 80.0706C32.2231 80.0706 35.6929 78.6452 38.0081 76.0995C38.8738 76.2342 39.7455 76.3448 40.6212 76.429L37.8291 81.4176C37.1177 82.6882 37.5713 84.295 38.842 85.0062C40.1125 85.7178 41.7193 85.2642 42.4307 83.9932L45 79.4028L47.5692 83.9932C48.0524 84.8564 48.9489 85.3426 49.8724 85.3426C50.3084 85.3426 50.7505 85.2344 51.1579 85.0062C52.4286 84.295 52.8822 82.6882 52.1709 81.4176L49.3781 76.4281C50.2544 76.3437 51.1272 76.2356 51.9931 76.1009C54.3083 78.6461 57.7771 80.0706 61.5837 80.0706C62.5962 80.0706 63.6331 79.9697 64.6776 79.7625C70.2179 78.6637 74.7334 74.7963 76.1813 69.9101C76.2955 69.5248 76.3164 69.1237 76.2532 68.7359C77.6499 68.4743 79.0525 68.0025 80.4132 67.3156C85.4551 64.7699 88.7667 59.8324 88.85 54.7368C88.8625 53.9689 88.5396 53.2336 87.9656 52.7233Z"/>
</mask>
<path d="M78.0365 62.6083C75.3519 63.9638 72.4006 64.0378 70.2922 62.8862C70.8363 60.2114 72.8783 57.6411 75.6899 56.2215C78.3747 54.866 81.3259 54.7919 83.4342 55.9438C82.89 58.6184 80.8481 61.1887 78.0365 62.6083ZM63.6518 74.5899C60.7018 75.1749 57.839 74.4542 56.1172 72.7787C57.3591 70.3483 60.0162 68.4205 63.1058 67.8078C66.0557 67.2226 68.9185 67.9436 70.6401 69.619C69.3982 72.0494 66.7411 73.9772 63.6518 74.5899ZM26.3483 74.5899C23.2588 73.9772 20.6017 72.0494 19.3598 69.619C21.0816 67.9436 23.9442 67.2235 26.8941 67.8078C29.9837 68.4205 32.6408 70.3483 33.8827 72.7787C32.1611 74.4544 29.2981 75.1748 26.3483 74.5899ZM6.56591 55.9436C8.67405 54.7919 11.6252 54.8659 14.31 56.2215C17.1216 57.6411 19.1636 60.2114 19.7077 62.8862C17.5993 64.038 14.6482 63.9638 11.9635 62.6083C9.15201 61.1887 7.10995 58.6184 6.56591 55.9436ZM5.69228 37.267C8.0938 37.3238 10.6127 38.8636 12.26 41.3797C13.9851 44.0151 14.4683 47.2617 13.6021 49.8503C11.2006 49.7935 8.68179 48.2537 7.03454 45.7374C5.30943 43.1022 4.82603 39.8554 5.69228 37.267ZM35.9954 46.2751H37.1638C37.6873 50.1333 41.0006 53.1174 45.0001 53.1174C48.9995 53.1174 52.3128 50.1333 52.8361 46.2751H54.0045C56.7047 46.2751 59.1308 47.4651 60.7906 49.3465C56.906 53.9796 51.1096 56.707 45.0001 56.707C38.8703 56.707 33.0931 53.9857 29.2083 49.3477C30.868 47.4656 33.2947 46.2751 35.9954 46.2751ZM45.0001 16.474C49.7606 16.474 53.8664 19.3194 55.7138 23.3973C54.8492 23.7572 53.9184 23.9445 52.9616 23.9445C50.6626 23.9445 48.486 22.8287 47.1392 20.9596C46.6437 20.2718 45.8477 19.8643 45.0001 19.8643C44.1523 19.8643 43.3564 20.2718 42.8609 20.9594C41.514 22.8287 39.3375 23.9445 37.0385 23.9445C36.0806 23.9445 35.1502 23.7579 34.2861 23.3982C36.1334 19.3197 40.2394 16.474 45.0001 16.474ZM54.319 9.93653C56.814 9.83141 59.5631 11.4256 60.5819 13.556C60.6717 13.7439 60.7633 13.9378 60.8574 14.1367C61.8129 16.158 63.0019 18.6736 64.8979 20.6239C66.6246 22.4001 68.6657 23.3854 70.9092 23.5476C70.671 24.6881 70.0307 25.7927 69.0386 26.7129C67.8756 27.7917 66.4375 28.4779 65.1176 28.3911C63.0643 28.2563 62.0238 27.7433 62.0238 27.7433C61.8166 20.4208 56.9647 14.2414 50.3168 12.0514C51.3949 10.7239 52.7461 10.0003 54.319 9.93653ZM42.3632 45.0587C43.223 45.1928 44.1035 45.2629 45.0001 45.2629C45.8968 45.2629 46.7771 45.1928 47.6368 45.0587V45.2072C47.6368 46.6611 46.454 47.8439 45 47.8439C43.5461 47.8439 42.3632 46.6611 42.3632 45.2072V45.0587ZM45.0001 39.9895C38.6511 39.9895 33.4647 34.9305 33.2525 28.6323C34.4643 29.0186 35.7372 29.218 37.0385 29.218C39.97 29.218 42.786 28.1735 45.0001 26.3338C47.2139 28.1733 50.0301 29.218 52.9616 29.218C54.2619 29.218 55.5352 29.019 56.7478 28.6321C56.5356 34.9303 51.3492 39.9895 45.0001 39.9895ZM51.1755 70.891C47.1111 71.5217 42.8879 71.5196 38.8239 70.8897C36.9511 66.7719 32.8408 63.6112 27.9202 62.6352C27.5908 62.5698 27.262 62.5162 26.9347 62.4719C26.9395 62.4071 26.9551 54.8894 26.9706 54.6737C31.7485 59.3117 38.2018 61.9804 45.0001 61.9804C51.7761 61.9804 58.2472 59.3079 63.0293 54.6729C63.0448 54.8889 63.0555 55.1062 63.0555 55.3261C63.0555 55.3261 63.0606 62.4071 63.0653 62.4719C62.7379 62.5162 62.4093 62.5698 62.0797 62.6352C57.1587 63.6113 53.0481 66.7724 51.1755 70.891ZM77.7399 41.3797C79.3873 38.8634 81.9059 37.3236 84.3076 37.267C85.1739 39.8554 84.6905 43.1022 82.9655 45.7374C81.3181 48.2539 78.7995 49.7937 76.3978 49.8503C75.5316 47.2617 76.015 44.0151 77.7399 41.3797ZM87.9656 52.7233C87.1999 52.0425 86.3497 51.4828 85.4393 51.0423C86.1451 50.3212 86.7962 49.5137 87.3775 48.6258C90.471 43.9001 90.8702 37.9684 88.3945 33.5137C88.0214 32.8426 87.3741 32.3673 86.622 32.2122C81.7064 31.2001 76.4882 33.6644 73.328 38.4915C70.4998 42.8113 69.925 48.1387 71.7384 52.4246C70.4445 53.2701 69.2973 54.2814 68.3289 55.4118V55.3261C68.3289 48.1331 62.9989 42.1634 56.0816 41.154C58.5539 39.0308 60.4119 36.2121 61.3497 33.0043C61.3497 33.0043 63.113 33.6644 65.1204 33.6686C67.7592 33.6742 70.4568 32.5902 72.625 30.5789C75.6943 27.7317 76.9435 23.792 75.9663 20.0401C75.6038 18.6479 74.1918 17.8033 72.794 18.142C69.581 18.9209 67.9225 16.7438 65.6251 11.8831C65.5275 11.6769 65.4324 11.4758 65.3394 11.2813C63.418 7.26308 58.6916 4.48292 54.1056 4.66749C50.0695 4.83096 46.6911 7.18696 44.625 11.2053C35.4065 11.4055 27.9689 18.9662 27.9689 28.2318C27.9689 33.3949 30.2788 38.0281 33.9187 41.154C27.0012 42.1632 21.6711 48.1329 21.6711 55.3261V55.412C20.7026 54.2816 19.5554 53.2701 18.2615 52.4246C20.0749 48.1387 19.5001 42.8113 16.6719 38.4915C13.5119 33.6642 8.29314 31.1997 3.37794 32.2122C2.62577 32.3673 1.97854 32.8426 1.60536 33.5137C-0.870342 37.9684 -0.471141 43.9001 2.62243 48.6258C3.20374 49.5137 3.85484 50.3212 4.5606 51.0423C3.65023 51.483 2.79997 52.0425 2.03427 52.7233C1.46034 53.2336 1.13744 53.9689 1.14992 54.7368C1.23324 59.8324 4.54495 64.7699 9.58671 67.3156C10.9476 68.0027 12.3502 68.4743 13.7467 68.7359C13.6835 69.1237 13.7044 69.5248 13.8186 69.9101C15.2666 74.7963 19.782 78.6637 25.3223 79.7625C26.3671 79.9699 27.4035 80.0706 28.4162 80.0706C32.2231 80.0706 35.6929 78.6452 38.0081 76.0995C38.8738 76.2342 39.7455 76.3448 40.6212 76.429L37.8291 81.4176C37.1177 82.6882 37.5713 84.295 38.842 85.0062C40.1125 85.7178 41.7193 85.2642 42.4307 83.9932L45 79.4028L47.5692 83.9932C48.0524 84.8564 48.9489 85.3426 49.8724 85.3426C50.3084 85.3426 50.7505 85.2344 51.1579 85.0062C52.4286 84.295 52.8822 82.6882 52.1709 81.4176L49.3781 76.4281C50.2544 76.3437 51.1272 76.2356 51.9931 76.1009C54.3083 78.6461 57.7771 80.0706 61.5837 80.0706C62.5962 80.0706 63.6331 79.9697 64.6776 79.7625C70.2179 78.6637 74.7334 74.7963 76.1813 69.9101C76.2955 69.5248 76.3164 69.1237 76.2532 68.7359C77.6499 68.4743 79.0525 68.0025 80.4132 67.3156C85.4551 64.7699 88.7667 59.8324 88.85 54.7368C88.8625 53.9689 88.5396 53.2336 87.9656 52.7233Z" fill="black" stroke="white" stroke-width="3" mask="url(#path-2-inside-1_28_1973)"/>
</g>
</svg>
