<svg width="90" height="90" viewBox="0 0 90 90" fill="none" xmlns="http://www.w3.org/2000/svg">
<mask id="mask0_28_1922" style="mask-type:luminance" maskUnits="userSpaceOnUse" x="0" y="0" width="90" height="90">
<path d="M0 -1.52588e-05H90V90H0V-1.52588e-05Z" fill="white"/>
</mask>
<g mask="url(#mask0_28_1922)">
<path d="M17.4217 41.667C16.0921 44.2385 16.0436 47.4045 17.5985 50.0977C19.1535 52.791 21.9192 54.3317 24.8112 54.4662C24.9455 57.3581 26.4864 60.124 29.1797 61.679C31.873 63.234 35.0388 63.1854 37.6105 61.8558C39.1727 64.2929 41.8901 65.918 45 65.918C48.1099 65.918 50.8275 64.2929 52.3897 61.8558C54.9612 63.1854 58.127 63.2338 60.8203 61.679C63.5136 60.124 65.0545 57.3581 65.1888 54.4662C68.0808 54.3317 70.8467 52.7908 72.4015 50.0977C73.9565 47.4045 73.908 44.2385 72.5783 41.667C75.0156 40.1048 76.6406 37.3873 76.6406 34.2773C76.6406 31.1676 75.0156 28.45 72.5783 26.8878C73.908 24.3162 73.9565 21.1502 72.4015 18.457C70.8467 15.7639 68.0808 14.223 65.1888 14.0885C65.0545 11.1967 63.5136 8.43062 60.8203 6.87566C58.127 5.3207 54.9612 5.36939 52.3897 6.699C50.8275 4.26197 48.1099 2.6367 45 2.6367C41.8901 2.6367 39.1727 4.26197 37.6105 6.699C35.0388 5.36939 31.873 5.3207 29.1797 6.87584C26.4864 8.43062 24.9455 11.1967 24.8112 14.0885C21.9192 14.223 19.1535 15.7639 17.5985 18.457C16.0436 21.1503 16.0921 24.3162 17.4217 26.8878C14.9845 28.45 13.3594 31.1676 13.3594 34.2773C13.3594 37.3873 14.9845 40.1048 17.4217 41.667Z" stroke="black" stroke-width="2.5" stroke-miterlimit="10" stroke-linecap="round" stroke-linejoin="round"/>
<path d="M49.0854 64.8997C51.7055 77.7192 63.0465 87.3633 76.6404 87.3633H80.156L74.8826 80.332L80.156 73.3008H76.6404C69.2316 73.3008 63.1655 67.5701 62.6218 60.3005" stroke="black" stroke-width="2.5" stroke-miterlimit="10" stroke-linecap="round" stroke-linejoin="round"/>
<path d="M27.3779 60.3005C26.8344 67.5701 20.7682 73.3008 13.3594 73.3008H9.84375L15.1172 80.332L9.84375 87.3633H13.3594C26.9532 87.3633 38.2945 77.7192 40.9143 64.8997" stroke="black" stroke-width="2.5" stroke-miterlimit="10" stroke-linecap="round" stroke-linejoin="round"/>
<path d="M33.7781 17.6961C33.7781 17.6961 25.9505 32.4122 36.283 42.7446C43.8917 50.3531 57.5743 49.0066 57.5743 49.0066C57.5743 49.0066 62.3649 38.7682 54.7562 31.1595C46.9905 23.7709 39.7265 25.5243 33.7781 17.6961Z" stroke="black" stroke-width="2.5" stroke-miterlimit="10" stroke-linecap="round" stroke-linejoin="round"/>
<path d="M57.574 49.0068L45.0498 36.4826" stroke="black" stroke-width="2.5" stroke-miterlimit="10" stroke-linecap="round" stroke-linejoin="round"/>
</g>
</svg>
