<svg width="45" height="55" viewBox="0 0 45 55" fill="none" xmlns="http://www.w3.org/2000/svg">
<path d="M22.0873 23.8448C25.9665 23.8448 29.1165 27.7821 29.1165 32.6313C29.1165 37.4805 25.9665 41.4178 22.0873 41.4178C18.2081 41.4178 15.0581 37.4805 15.0581 32.6313C15.0581 27.7821 18.2081 23.8448 22.0873 23.8448Z" stroke="#F3C63C" stroke-width="2" stroke-miterlimit="10" stroke-linecap="round" stroke-linejoin="round"/>
<path d="M22.0874 41.4177C19.6623 38.9927 19.6623 35.0564 22.0874 32.6313C24.5124 30.2062 24.5124 26.2698 22.0874 23.8448" stroke="#F3C63C" stroke-width="2" stroke-miterlimit="10" stroke-linecap="round" stroke-linejoin="round"/>
<path d="M39.6606 15.0583H4.51465L8.0293 53.7188H36.1459L39.6606 15.0583Z" stroke="#F3C63C" stroke-width="2" stroke-miterlimit="10" stroke-linecap="round" stroke-linejoin="round"/>
<path d="M41.4177 8.02918H2.75722L1 15.0584H43.1749L41.4177 8.02918Z" stroke="#F3C63C" stroke-width="2" stroke-miterlimit="10" stroke-linecap="round" stroke-linejoin="round"/>
<path d="M36.1459 1.00003H8.0293L6.27197 8.02924H37.9031L36.1459 1.00003Z" stroke="#F3C63C" stroke-width="2" stroke-miterlimit="10" stroke-linecap="round" stroke-linejoin="round"/>
</svg>
