<svg width="194" height="52" viewBox="0 0 194 52" fill="none" xmlns="http://www.w3.org/2000/svg">
<path d="M26 3L13 25.5166H26L38.4371 3.975C38.6873 3.54166 39.3127 3.54166 39.5629 3.975L52 25.5167L39.9382 46.4083C39.3576 47.4139 38.2847 48.0333 37.1236 48.0333H26L39 25.5167L26 25.5166L13.5629 47.0583C13.3127 47.4916 12.6873 47.4916 12.4371 47.0583L0 25.5167L12.0618 4.625C12.6424 3.61945 13.7153 3 14.8764 3L26 3Z" fill="url(#paint0_linear_2537_47)"/>
<path d="M26 3L13 25.5166H26C26 25.5 26 25.5 26 25.5166C25.4194 26.5221 26 25.5 26 25.5166L13.5629 47.0583C13.3127 47.4916 12.6873 47.4916 12.4371 47.0583L0 25.5167L12.0618 4.625C12.6424 3.61945 13.7153 3 14.8764 3L26 3Z" fill="url(#paint1_linear_2537_47)"/>
<path d="M26 3L13 25.5166H26C26 25.5 26 25.5 26 25.5166C25.4194 26.5221 26 25.5 26 25.5166L13.5629 47.0583C13.3127 47.4916 12.6873 47.4916 12.4371 47.0583L0 25.5167L12.0618 4.625C12.6424 3.61945 13.7153 3 14.8764 3L26 3Z" fill="url(#paint2_linear_2537_47)"/>
<path d="M63.6 40V12.44H80.2V16.36H67.84V24.52H78.64V28.4H67.84V36.12H80.6V40H63.6ZM85.38 40V11.16H89.5V40H85.38ZM113.023 30.6C113.023 31.04 113.023 31.68 112.983 32.12H98.1428C98.5828 35 100.823 36.8 103.863 36.8C105.943 36.8 107.983 35.84 108.943 34.12L112.303 35.6C110.703 38.92 107.143 40.4 103.663 40.4C98.3828 40.4 94.0628 36.52 94.0628 30.6C94.0628 24.68 98.3828 20.92 103.663 20.92C108.943 20.92 113.023 24.68 113.023 30.6ZM98.1428 29.12H108.983C108.543 26.2 106.503 24.52 103.663 24.52C100.783 24.52 98.5828 26.24 98.1428 29.12ZM122.5 40L114.7 21.32H119.06L124.42 34.76L129.7 21.32H134.1L126.3 40H122.5ZM151.659 40V37.32C150.379 39.36 147.779 40.4 145.379 40.4C140.379 40.4 135.899 36.6 135.899 30.64C135.899 24.68 140.379 20.92 145.379 20.92C147.619 20.92 150.379 21.84 151.659 23.96V21.32H155.739V40H151.659ZM140.139 30.6C140.139 34.04 142.779 36.4 145.859 36.4C148.899 36.4 151.619 34.28 151.619 30.6C151.619 26.96 148.659 24.92 145.859 24.92C142.779 24.92 140.139 27.16 140.139 30.6ZM167.113 14.24V21.32H171.073V24.72H167.113V40H162.993V24.72H159.633V21.32H162.993V14.24H167.113ZM192.437 30.6C192.437 31.04 192.437 31.68 192.397 32.12H177.557C177.997 35 180.237 36.8 183.277 36.8C185.357 36.8 187.397 35.84 188.357 34.12L191.717 35.6C190.117 38.92 186.557 40.4 183.077 40.4C177.797 40.4 173.477 36.52 173.477 30.6C173.477 24.68 177.797 20.92 183.077 20.92C188.357 20.92 192.437 24.68 192.437 30.6ZM177.557 29.12H188.397C187.957 26.2 185.917 24.52 183.077 24.52C180.197 24.52 177.997 26.24 177.557 29.12Z" fill="#232323"/>
<defs>
<linearGradient id="paint0_linear_2537_47" x1="18.5" y1="6" x2="36" y2="48" gradientUnits="userSpaceOnUse">
<stop stop-color="#EFC878"/>
<stop offset="1" stop-color="#E83B59"/>
</linearGradient>
<linearGradient id="paint1_linear_2537_47" x1="25" y1="5" x2="13" y2="48" gradientUnits="userSpaceOnUse">
<stop stop-color="#888FFF"/>
<stop offset="1" stop-color="#6214F2"/>
</linearGradient>
<linearGradient id="paint2_linear_2537_47" x1="15.5057" y1="3" x2="-9.45403" y2="17.8379" gradientUnits="userSpaceOnUse">
<stop stop-color="#8DCBF5"/>
<stop offset="1" stop-color="#6F8DF1"/>
</linearGradient>
</defs>
</svg>
