<svg width="6" height="4" viewBox="0 0 6 4" fill="none" xmlns="http://www.w3.org/2000/svg">
<path d="M5.88458 0.789189L3.27675 3.86433C3.24041 3.90733 3.19723 3.94145 3.14968 3.96473C3.10214 3.98802 3.05116 4 2.99967 4C2.94819 4 2.89721 3.98802 2.84966 3.96473C2.80212 3.94145 2.75893 3.90733 2.72259 3.86433L0.114771 0.789189C0.0412843 0.702534 -1.09503e-09 0.585004 0 0.462456C1.09503e-09 0.339907 0.0412843 0.222377 0.114771 0.135722C0.188257 0.0490667 0.287926 0.000384476 0.391852 0.000384475C0.495777 0.000384473 0.595446 0.0490667 0.668933 0.135722L3 2.88451L5.33107 0.135338C5.40455 0.0486826 5.50422 0 5.60815 0C5.71207 0 5.81174 0.0486826 5.88523 0.135338C5.95871 0.221993 6 0.339522 6 0.462071C6 0.58462 5.95871 0.70215 5.88523 0.788805L5.88458 0.789189Z" fill="black"/>
</svg>
