<svg width="46" height="50" viewBox="0 0 46 50" fill="none" xmlns="http://www.w3.org/2000/svg">
<path d="M17.2119 0.25H27.9805C30.9705 0.25 33.4042 2.68299 33.4043 5.67285V6.5H34.6152C38.1885 6.5 41.0956 9.4072 41.0957 12.9805V22.1152C41.0957 22.7735 40.5626 23.3074 39.9043 23.3076H37.25V29.8389L37.4395 29.8857L44.0391 31.5361C44.5698 31.6688 44.9424 32.1453 44.9424 32.6924V45.6729C44.9424 47.9207 43.113 49.75 40.8652 49.75H4.32715C2.07928 49.75 0.25 47.9206 0.25 45.6729V32.6924C0.25 32.1794 0.577411 31.728 1.05566 31.5645L1.15332 31.5361L7.75293 29.8857L7.94238 29.8379V23.3076H5.28809C4.62984 23.3074 4.09668 22.7736 4.09668 22.1152V12.9805C4.09685 9.40726 7.00399 6.5 10.5771 6.5H11.7881V5.67285C11.7882 2.68298 14.2219 0.25 17.2119 0.25ZM7.63184 32.374L2.82422 33.5762L2.63477 33.623V45.6729C2.63477 46.6062 3.39376 47.3652 4.32715 47.3652H7.94238V32.2959L7.63184 32.374ZM10.3271 47.3652H34.8652V23.3076H31.4805V25.4805C31.4805 26.9328 30.2989 28.115 28.8467 28.1152H27.8848C26.4322 28.1152 25.25 26.9329 25.25 25.4805V23.3076H19.9424V25.4805C19.9424 26.9329 18.7602 28.1152 17.3076 28.1152H16.3457C14.8934 28.115 13.7119 26.9328 13.7119 25.4805V23.3076H10.3271V47.3652ZM16.0967 25.7305H17.5576V18.5H16.0967V25.7305ZM27.6348 25.7305H29.0967V18.5H27.6348V25.7305ZM10.5771 8.88477C8.31838 8.88477 6.48064 10.7217 6.48047 12.9805V20.9229H13.7119V18.75C13.7119 17.2976 14.8942 16.1152 16.3467 16.1152H17.3076C18.7602 16.1152 19.9424 17.2976 19.9424 18.75V20.9229H25.25V18.75C25.25 17.2976 26.4322 16.1152 27.8848 16.1152H28.8467C30.2989 16.1155 31.4804 17.2977 31.4805 18.75V20.9229H38.7119V12.9805C38.7117 10.7217 36.874 8.88477 34.6152 8.88477H10.5771ZM17.2119 2.63477C15.5363 2.63477 14.173 3.99738 14.1729 5.67285V6.5H31.0195V5.67285C31.0194 3.99737 29.656 2.63477 27.9805 2.63477H17.2119ZM42.5576 33.623L42.3682 33.5762L37.5605 32.374L37.25 32.2959V47.3652H40.8652C41.7986 47.3652 42.5576 46.6062 42.5576 45.6729V33.623Z" fill="white" stroke="#FF8335" stroke-width="0.5"/>
<path d="M13.9424 30.5386H31.25C31.9085 30.5386 32.4424 31.0726 32.4424 31.731V43.269C32.4424 43.9275 31.9085 44.4614 31.25 44.4614H13.9424C13.284 44.4614 12.75 43.9275 12.75 43.269V31.731L12.7559 31.6089C12.8169 31.0077 13.3251 30.5386 13.9424 30.5386ZM15.1348 42.0767H30.0576V32.9233H15.1348V42.0767Z" fill="white" stroke="#FF8335" stroke-width="0.5"/>
</svg>
