<svg width="44" height="44" viewBox="0 0 44 44" fill="none" xmlns="http://www.w3.org/2000/svg">
<path d="M43.0181 18.0888L39.5116 17.2121C39.6904 17.0548 39.8663 16.8931 40.0367 16.7228C45.4897 11.2698 43.755 1.74973 43.6786 1.3472C43.5797 0.827185 43.173 0.420355 42.653 0.321612C42.2504 0.245127 32.7302 -1.48944 27.2774 3.9634C27.1074 4.13339 26.9442 4.30759 26.7873 4.48582L25.9113 0.981959C25.7679 0.408237 25.2523 0.005704 24.6609 0.005704H19.5053C18.9139 0.005704 18.3984 0.408237 18.2549 0.981959L17.0099 5.96249C16.1028 6.25004 15.2251 6.6127 14.3867 7.04651L9.98676 4.40684C9.47973 4.10245 8.83055 4.18237 8.41229 4.60072L4.76681 8.24621C4.34863 8.66438 4.26871 9.31356 4.57293 9.82076L7.21286 14.2205C6.78016 15.0569 6.41793 15.9328 6.13064 16.838L0.985021 18.0868C0.406916 18.227 0 18.7445 0 19.3392V24.4948C0 25.0894 0.406916 25.607 0.984935 25.7473L6.13056 26.9961C6.41793 27.9013 6.77999 28.7772 7.21269 29.6135L4.57284 34.0132C4.26854 34.5203 4.34846 35.1694 4.76672 35.5877L8.41212 39.2333C8.83021 39.6515 9.47939 39.7315 9.98668 39.4272L14.3864 36.7873C15.2227 37.22 16.0987 37.5822 17.0039 37.8695L18.2526 43.0152C18.393 43.5931 18.9104 44 19.5052 44H24.6608C25.2555 44 25.773 43.5931 25.9133 43.0151L27.162 37.8694C28.0672 37.5821 28.9431 37.2199 29.7796 36.7872L34.1792 39.4271C34.6863 39.7313 35.3355 39.6515 35.7538 39.2332L39.3993 35.5876C39.8175 35.1694 39.8974 34.5203 39.5932 34.0131L36.9533 29.6134C37.3869 28.7754 37.7497 27.8976 38.0373 26.9902L43.0178 25.7451C43.5916 25.6016 43.994 25.0861 43.994 24.4947V19.3391C43.9944 18.7477 43.5919 18.2322 43.0181 18.0888ZM29.1001 5.78606C32.7181 2.16816 38.9572 2.47006 41.2726 2.72951C41.5359 5.04459 41.8438 11.2702 38.2139 14.9C35.2812 17.8328 30.4949 18.344 27.4834 18.3395L30.5454 15.2776H33.657C34.3688 15.2776 34.9459 14.7005 34.9459 13.9887C34.9459 13.2768 34.3688 12.6998 33.657 12.6998H33.1231L36.0138 9.80925H39.1254C39.8372 9.80925 40.4143 9.23217 40.4143 8.52035C40.4143 7.80853 39.8372 7.23145 39.1254 7.23145H36.7688V4.87478C36.7688 4.16295 36.1917 3.58588 35.4799 3.58588C34.7681 3.58588 34.191 4.16295 34.191 4.87478V7.98642L31.3004 10.877V10.3432C31.3004 9.63136 30.7233 9.05428 30.0115 9.05428C29.2997 9.05428 28.7226 9.63136 28.7226 10.3432V13.4548L25.6569 16.5206C25.649 13.5122 26.1571 8.72909 29.1001 5.78606ZM27.5499 20.9264C28.5657 20.9264 29.7574 20.8702 31.0235 20.7013C31.0774 21.1029 31.1054 21.5094 31.1054 21.917C31.1054 26.8918 27.058 30.9392 22.0831 30.9392C17.1083 30.9392 13.0608 26.8918 13.0608 21.917C13.0608 16.9421 17.1083 12.8947 22.0831 12.8947C22.4906 12.8947 22.8969 12.9227 23.2984 12.9767C22.9485 15.5979 23.0858 17.8968 23.1916 18.9859L20.8787 21.2987C20.3754 21.8021 20.3754 22.6181 20.8787 23.1215C21.382 23.6248 22.1981 23.6249 22.7015 23.1215L25.0143 20.8086C25.5772 20.8632 26.4629 20.9264 27.5499 20.9264ZM41.4166 23.4885L36.6955 24.6688C36.2411 24.7824 35.8842 25.1334 35.763 25.5859C35.441 26.7889 34.9663 27.9367 34.3525 28.9978C34.1178 29.4034 34.1217 29.9045 34.3629 30.3064L36.8651 34.4767L34.6427 36.6991L30.4725 34.1971C30.0706 33.9558 29.5694 33.9519 29.1639 34.1866C28.1027 34.8005 26.9546 35.275 25.7517 35.5971C25.2963 35.719 24.9437 36.08 24.8325 36.5382L23.6472 41.4226H20.5186L19.3334 36.5382C19.2222 36.08 18.8697 35.719 18.4141 35.5971C17.2112 35.2751 16.0633 34.8005 15.0019 34.1866C14.5964 33.952 14.0953 33.9558 13.6934 34.1971L9.52313 36.6991L7.30077 34.4767L9.80294 30.3064C10.0442 29.9045 10.0481 29.4034 9.81334 28.9978C9.1994 27.9367 8.72494 26.7888 8.40301 25.586C8.28107 25.1305 7.92013 24.7779 7.46182 24.6667L2.57745 23.4813V20.3528L7.46182 19.1675C7.92004 19.0563 8.28107 18.7037 8.40301 18.2482C8.72494 17.0455 9.19949 15.8975 9.81343 14.8362C10.048 14.4306 10.0441 13.9295 9.80294 13.5276L7.30077 9.35721L9.52313 7.13486L13.6936 9.63703C14.0953 9.87817 14.5964 9.88212 15.0021 9.64751C16.064 9.03323 17.2121 8.55868 18.4139 8.23701C18.8664 8.11593 19.2177 7.75894 19.3312 7.3045L20.5115 2.58333H23.6543L24.8349 7.30467C24.8449 7.34498 24.8576 7.38425 24.8713 7.42292C24.4027 8.40493 24.0506 9.42639 23.7881 10.4421C23.2253 10.3592 22.655 10.3169 22.0832 10.3169C15.6869 10.3169 10.4831 15.5207 10.4831 21.917C10.4831 28.3132 15.6869 33.517 22.0832 33.517C28.4795 33.517 33.6833 28.3132 33.6833 21.917C33.6833 21.345 33.641 20.7744 33.558 20.2114C34.5735 19.9489 35.5945 19.5969 36.5761 19.1284C36.6152 19.1424 36.6548 19.1551 36.6955 19.1652L41.4167 20.3456V23.4885H41.4166Z" fill="white"/>
</svg>
