<svg width="35" height="36" viewBox="0 0 35 36" fill="none" xmlns="http://www.w3.org/2000/svg">
<path d="M17.4346 0.256836C12.6982 0.256836 12.1069 0.278629 10.2472 0.361444C8.39041 0.448617 7.1264 0.740647 6.01494 1.17215C4.86862 1.61674 3.89518 2.21387 2.92611 3.18295C1.95704 4.15202 1.35845 5.124 0.915317 6.27178C0.483811 7.38324 0.190328 8.64725 0.104608 10.504C0.0174346 12.3637 0 12.955 0 17.6915C0 22.4279 0.0217933 23.0193 0.104608 24.879C0.191781 26.7342 0.483811 27.9998 0.915317 29.1111C1.35306 30.2746 2.03927 31.3288 2.92611 32.2C3.79679 33.0874 4.85103 33.7737 6.01494 34.2108C7.12785 34.6408 8.39186 34.9358 10.2472 35.0215C12.1069 35.1086 12.6982 35.1261 17.4346 35.1261C22.171 35.1261 22.7624 35.1044 24.6221 35.0215C26.4774 34.9343 27.7429 34.6408 28.8543 34.2108C30.0176 33.7726 31.0716 33.0864 31.9431 32.2C32.8309 31.3296 33.5173 30.2752 33.9539 29.1111C34.384 27.9998 34.679 26.7342 34.7646 24.879C34.8518 23.0193 34.8692 22.4279 34.8692 17.6915C34.8692 12.955 34.8475 12.3637 34.7646 10.504C34.6774 8.6487 34.384 7.38178 33.9539 6.27178C33.5159 5.10833 32.8298 4.05429 31.9431 3.18295C31.0731 2.29471 30.0187 1.60829 28.8543 1.17215C27.7429 0.740647 26.4774 0.447164 24.6221 0.361444C22.7624 0.274271 22.171 0.256836 17.4346 0.256836ZM17.4346 3.39507C22.0883 3.39507 22.6433 3.41831 24.4811 3.49822C26.181 3.57813 27.1037 3.85999 27.7166 4.10117C28.5331 4.41644 29.1115 4.7942 29.7245 5.40295C30.3333 6.01316 30.7111 6.59287 31.0264 7.40939C31.2645 8.0225 31.5493 8.94509 31.6264 10.645C31.7091 12.4843 31.7281 13.0364 31.7281 17.6915C31.7281 22.3465 31.7064 22.9001 31.6206 24.7379C31.5321 26.4378 31.2486 27.3605 31.0088 27.9734C30.7252 28.7301 30.2795 29.4155 29.7028 29.9813C29.1392 30.5586 28.4545 31.0034 27.6978 31.2833C27.0876 31.5214 26.1506 31.8061 24.4505 31.8832C22.5997 31.9659 22.0548 31.9849 17.391 31.9849C12.7258 31.9849 12.181 31.9632 10.3315 31.8774C8.63013 31.7889 7.69302 31.5055 7.08281 31.2657C6.32572 30.9855 5.64109 30.5392 5.07928 29.9596C4.49608 29.4 4.04878 28.714 3.77169 27.9546C3.53196 27.3444 3.2501 26.4074 3.16148 24.7073C3.0961 22.8769 3.07285 22.3116 3.07285 17.6697C3.07285 13.0262 3.0961 12.4596 3.16148 10.6072C3.2501 8.90731 3.53196 7.97165 3.77169 7.36144C4.07679 6.5333 4.46762 5.96667 5.07928 5.35501C5.68804 4.74625 6.25612 4.35397 7.08281 4.05032C7.69302 3.80914 8.60979 3.52583 10.3097 3.43865C12.1621 3.37327 12.7069 3.35148 17.3692 3.35148L17.4346 3.39507ZM17.4346 8.73878C16.2589 8.73878 15.0948 8.97035 14.0086 9.42026C12.9224 9.87017 11.9354 10.5296 11.1041 11.361C10.2728 12.1923 9.61333 13.1792 9.16342 14.2654C8.71351 15.3516 8.48194 16.5158 8.48194 17.6915C8.48194 18.8671 8.71351 20.0314 9.16342 21.1175C9.61333 22.2037 10.2728 23.1905 11.1041 24.022C11.9354 24.8532 12.9224 25.5128 14.0086 25.9626C15.0948 26.4126 16.2589 26.6441 17.4346 26.6441C19.809 26.6441 22.0862 25.7009 23.7651 24.022C25.4441 22.343 26.3873 20.0659 26.3873 17.6915C26.3873 15.3171 25.4441 13.0399 23.7651 11.361C22.0862 9.68201 19.809 8.73878 17.4346 8.73878ZM17.4346 23.503C14.2237 23.503 11.6231 20.9023 11.6231 17.6915C11.6231 14.4806 14.2237 11.8799 17.4346 11.8799C20.6455 11.8799 23.2462 14.4806 23.2462 17.6915C23.2462 20.9023 20.6455 23.503 17.4346 23.503ZM28.8339 8.38573C28.8138 8.92711 28.5844 9.43959 28.1943 9.81546C27.8041 10.1914 27.2836 10.4013 26.7418 10.4013C26.2 10.4013 25.6794 10.1914 25.2893 9.81546C24.8992 9.43959 24.6698 8.92711 24.6496 8.38573C24.6496 7.83086 24.8701 7.2987 25.2624 6.90634C25.6548 6.514 26.187 6.29357 26.7418 6.29357C27.2966 6.29357 27.8287 6.514 28.2212 6.90634C28.6135 7.2987 28.8339 7.83086 28.8339 8.38573Z" fill="black"/>
</svg>
