<svg width="40" height="40" viewBox="0 0 40 40" fill="none" xmlns="http://www.w3.org/2000/svg">
<path d="M39.5076 6.71302C39.5076 3.40694 36.8168 0.717285 33.5093 0.717285C30.5648 0.717285 28.1107 2.84979 27.6073 5.65049H20.0702C19.7689 5.65049 19.48 5.76979 19.2665 5.98222L0.967938 24.1971C0.521864 24.6413 0.520877 25.3637 0.966344 25.8088L14.4055 39.2422C14.8506 39.6871 15.5733 39.6867 16.0178 39.2406L34.2404 20.9499C34.453 20.7364 34.5723 20.4477 34.5723 20.1465V12.6125C37.3742 12.1093 39.5076 9.65632 39.5076 6.71302ZM32.2945 19.6763L15.2091 36.8257L3.38395 25.0056L20.5405 7.92735H27.6342C27.8672 9.06563 28.427 10.112 29.2679 10.9526C29.7126 11.3971 30.4337 11.3971 30.8786 10.9527C31.3233 10.5081 31.3234 9.78732 30.8787 9.34264C30.4729 8.93706 30.1731 8.45406 29.9917 7.92735H32.2946V19.6763H32.2945ZM34.5723 10.2764V6.78892C34.5723 6.1602 34.0624 5.65049 33.4334 5.65049H29.9445C30.4031 4.11611 31.8272 2.99415 33.5093 2.99415C35.5608 2.99415 37.2298 4.6624 37.2298 6.71302C37.2298 8.39441 36.1073 9.81805 34.5723 10.2764Z" fill="white"/>
<path d="M12.3709 22.3778C11.9262 21.9333 11.2051 21.9333 10.7603 22.3778C10.3156 22.8223 10.3156 23.5431 10.7603 23.9877L16.2267 29.4517C16.6715 29.8963 17.3925 29.8963 17.8372 29.4517C18.282 29.0072 18.282 28.2864 17.8372 27.8419L12.3709 22.3778Z" fill="white"/>
<path d="M15.408 19.3417C14.9633 18.8972 14.2422 18.8972 13.7974 19.3417C13.3527 19.7862 13.3527 20.507 13.7974 20.9515L19.2638 26.4156C19.7086 26.8602 20.4296 26.8602 20.8744 26.4156C21.3191 25.9711 21.3191 25.2503 20.8744 24.8057L15.408 19.3417Z" fill="white"/>
<path d="M18.4451 16.306C18.0004 15.8615 17.2793 15.8615 16.8345 16.306C16.3898 16.7505 16.3898 17.4713 16.8345 17.9159L22.3009 23.38C22.7457 23.8245 23.4667 23.8245 23.9115 23.38C24.3562 22.9355 24.3562 22.2147 23.9115 21.7701L18.4451 16.306Z" fill="white"/>
</svg>
