<svg width="36" height="38" viewBox="0 0 36 38" fill="none" xmlns="http://www.w3.org/2000/svg">
<path d="M32.5695 0H3.34511C1.50062 0 0 1.50062 0 3.34511V29.5401C0 31.3846 1.50062 32.8853 3.34511 32.8853H13.9504L17.0296 37.504C17.4696 38.1641 18.4434 38.1666 18.8851 37.504L21.9643 32.8853H32.5695C34.414 32.8853 35.9147 31.3846 35.9147 29.5401V3.34511C35.9146 1.50062 34.414 0 32.5695 0ZM33.6845 29.5401C33.6845 30.155 33.1843 30.6552 32.5695 30.6552H21.3675C20.9946 30.6552 20.6465 30.8415 20.4398 31.1517L17.9574 34.8754L15.4748 31.1517C15.2681 30.8415 14.9199 30.6552 14.5471 30.6552H3.34511C2.73028 30.6552 2.23007 30.155 2.23007 29.5401V3.34511C2.23007 2.73028 2.73028 2.23007 3.34511 2.23007H32.5695C33.1844 2.23007 33.6846 2.73028 33.6846 3.34511V29.5401H33.6845Z" fill="white"/>
<path d="M27.605 5.90172L9.04689 12.176C8.06202 12.5091 8.03184 13.8971 9.00184 14.2723L17.3999 17.5203L20.6478 25.9183C21.0236 26.89 22.4102 26.8607 22.7441 25.8732L29.0185 7.31514C29.3154 6.43552 28.4719 5.60943 27.605 5.90172ZM17.987 15.3563L12.6772 13.3027L23.8015 9.54172L17.987 15.3563ZM19.5638 16.9332L25.3784 11.1187L21.6173 22.243L19.5638 16.9332Z" fill="white"/>
<path d="M11.4945 18.4897C11.0592 18.0542 10.3532 18.0542 9.91766 18.4897L6.91546 21.4918C6.48 21.9272 6.48 22.6332 6.91546 23.0687C7.35085 23.5041 8.05689 23.5041 8.49235 23.0687L11.4945 20.0666C11.9301 19.6311 11.9301 18.9251 11.4945 18.4897Z" fill="white"/>
<path d="M16.112 20.3849C16.5475 19.9495 16.5475 19.2435 16.112 18.808C15.6766 18.3726 14.9706 18.3726 14.5351 18.808L10.2358 23.1074C9.80031 23.5429 9.80031 24.2488 10.2358 24.6843C10.6712 25.1197 11.3772 25.1198 11.8127 24.6843L16.112 20.3849Z" fill="white"/>
<path d="M14.8542 23.4253L11.852 26.4274C11.4165 26.8628 11.4165 27.5688 11.852 28.0043C12.2874 28.4397 12.9934 28.4397 13.4289 28.0043L16.4311 25.0021C16.8665 24.5668 16.8665 23.8607 16.4311 23.4253C15.9957 22.9898 15.2896 22.9897 14.8542 23.4253Z" fill="white"/>
</svg>
