<svg width="49" height="44" viewBox="0 0 49 44" fill="none" xmlns="http://www.w3.org/2000/svg">
<path d="M6.09473 0.25H11.6533C11.8112 0.250071 11.9255 0.32694 12.0127 0.472656C12.1052 0.627398 12.1553 0.847733 12.1553 1.07324C12.1553 1.33533 12.0945 1.56156 11.998 1.71387C11.9054 1.8601 11.7899 1.92864 11.6533 1.92871H7.25488V5.13574H9.92285C10.0715 5.13574 10.1886 5.20283 10.2764 5.32617C10.3684 5.45565 10.4258 5.64675 10.4258 5.8623C10.4258 6.04079 10.3785 6.22532 10.29 6.35742C10.2075 6.4806 10.0921 6.55762 9.92285 6.55762H7.25488V10.9395C7.25488 11.0746 7.17824 11.1962 6.99414 11.2969C6.80653 11.3995 6.53806 11.459 6.25488 11.459C5.9718 11.4589 5.70414 11.3994 5.5166 11.2969C5.33243 11.1961 5.25586 11.0746 5.25586 10.9395V0.768555C5.25595 0.616666 5.33146 0.497207 5.47949 0.404297C5.63441 0.307116 5.85716 0.250028 6.09473 0.25Z" fill="white" stroke="#FF8335" stroke-width="0.5"/>
<path d="M15.625 0.25H18.9414C20.0146 0.250051 20.9356 0.451622 21.584 0.935547C22.2187 1.40933 22.6309 2.18379 22.6309 3.42773C22.6308 4.28659 22.4356 4.94208 22.1221 5.42871C21.8092 5.91427 21.3695 6.24721 20.8535 6.44629L20.5859 6.54883L20.7246 6.7998L22.6787 10.3398L22.6836 10.3496L22.6895 10.3584C22.7157 10.3976 22.7275 10.4538 22.7275 10.5068C22.7275 10.7133 22.5822 10.9744 22.3105 11.1973C22.044 11.4158 21.7052 11.5547 21.4072 11.5547C21.1905 11.5546 21.0051 11.4831 20.8789 11.3066L20.8281 11.2236L18.6348 6.96484L18.5645 6.83008H17.1055V10.9395C17.1055 11.0745 17.029 11.1961 16.8447 11.2969C16.657 11.3995 16.3886 11.459 16.1055 11.459C15.8225 11.4589 15.5548 11.3994 15.3672 11.2969C15.1829 11.1961 15.1064 11.0745 15.1064 10.9395V0.75293C15.1064 0.483754 15.3056 0.250141 15.625 0.25ZM17.1055 5.4082H18.9414C19.4171 5.40815 19.8535 5.31064 20.1689 5.01562C20.4875 4.71753 20.6328 4.26462 20.6328 3.66797C20.6328 3.0712 20.4876 2.61841 20.1689 2.32031C19.8535 2.02524 19.4171 1.92877 18.9414 1.92871H17.1055V5.4082Z" fill="white" stroke="#FF8335" stroke-width="0.5"/>
<path d="M26.9023 0.25H32.6045C32.7622 0.250154 32.8767 0.327008 32.9639 0.472656C33.0565 0.627408 33.1074 0.847799 33.1074 1.07324C33.1074 1.33537 33.0457 1.56157 32.9492 1.71387C32.8566 1.85997 32.7412 1.92855 32.6045 1.92871H28.0615V5.13574H30.7139C30.8622 5.13574 30.9786 5.20297 31.0664 5.32617C31.1585 5.45568 31.2168 5.64682 31.2168 5.8623C31.2168 6.04075 31.1695 6.22533 31.0811 6.35742C30.9985 6.4806 30.8831 6.55762 30.7139 6.55762H28.0615V9.78027H32.6045C32.7412 9.78043 32.8567 9.84847 32.9492 9.99414C33.0457 10.1464 33.1074 10.3734 33.1074 10.6357C33.1074 10.8609 33.0564 11.0807 32.9639 11.2354C32.8767 11.3811 32.7623 11.4588 32.6045 11.459H26.9023C26.6645 11.459 26.4411 11.4018 26.2861 11.3047C26.138 11.2118 26.0625 11.0917 26.0625 10.9395V0.768555C26.0626 0.616673 26.1381 0.497207 26.2861 0.404297C26.4411 0.307085 26.6645 0.25 26.9023 0.25Z" fill="white" stroke="#FF8335" stroke-width="0.5"/>
<path d="M37.1367 0.25H42.8398C42.9976 0.250155 43.1121 0.326945 43.1992 0.472656C43.2917 0.627398 43.3418 0.847732 43.3418 1.07324C43.3418 1.33526 43.281 1.56156 43.1846 1.71387C43.092 1.86001 42.9763 1.92855 42.8398 1.92871H38.2969V5.13574H40.9492C41.0975 5.13578 41.214 5.2029 41.3018 5.32617C41.3939 5.45568 41.4521 5.64682 41.4521 5.8623C41.4521 6.04067 41.4047 6.22534 41.3164 6.35742C41.2339 6.48057 41.1184 6.55758 40.9492 6.55762H38.2969V9.78027H42.8398C42.9763 9.78043 43.0921 9.8483 43.1846 9.99414C43.281 10.1464 43.3418 10.3734 43.3418 10.6357C43.3418 10.861 43.2917 11.0816 43.1992 11.2363C43.1121 11.3818 42.9975 11.4588 42.8398 11.459H37.1367C36.8988 11.459 36.6754 11.4019 36.5205 11.3047C36.3726 11.2118 36.2977 11.0916 36.2979 10.9395V0.768555C36.2979 0.6166 36.3735 0.49717 36.5215 0.404297C36.6763 0.307169 36.899 0.250028 37.1367 0.25Z" fill="white" stroke="#FF8335" stroke-width="0.5"/>
<path d="M8.29102 17.4824H35.5078C36.4818 17.4826 37.3753 18.0221 37.834 18.873L37.9199 19.0479L40.9971 25.9219L41.0381 26.0127L41.1309 26.0508L44.7783 27.5439C46.7293 28.3423 47.9902 30.2234 47.9902 32.3379V38.3779C47.99 39.0202 47.4695 39.5409 46.8271 39.541H44.2969L44.2871 39.7812C44.1987 41.985 42.3833 43.75 40.166 43.75C37.9493 43.7498 36.1343 41.9848 36.0459 39.7812L36.0361 39.541H18.6055L18.5967 39.7812C18.5087 41.9848 16.6934 43.7498 14.4766 43.75C12.2593 43.75 10.4438 41.985 10.3555 39.7812L10.3467 39.541H8.29102C7.6486 39.541 7.12717 39.0203 7.12695 38.3779V35.249H4.42773C3.78518 35.249 3.26465 34.7285 3.26465 34.0859C3.26477 33.4435 3.78526 32.9229 4.42773 32.9229H7.12695V29.5967H4.42773C3.78523 29.5967 3.26465 29.0748 3.26465 28.4326C3.26488 27.7903 3.78532 27.2695 4.42773 27.2695H7.12695V23.9434H1.41309C0.770713 23.9432 0.25 23.4219 0.25 22.7793C0.250137 22.1373 0.770754 21.6163 1.41309 21.6162H7.12695V18.6465C7.12695 18.0439 7.58515 17.5478 8.17188 17.4883L8.29102 17.4824ZM14.4766 37.8037C13.4833 37.8037 12.6788 38.6169 12.6787 39.6133C12.6787 40.6097 13.4832 41.4229 14.4766 41.4229C15.4699 41.4227 16.2734 40.6091 16.2734 39.6133C16.2734 38.6171 15.4698 37.8039 14.4766 37.8037ZM40.166 37.8037C39.1733 37.804 38.3692 38.6171 38.3691 39.6133C38.3691 40.6095 39.1728 41.4226 40.166 41.4229C41.1594 41.4229 41.9648 40.6093 41.9648 39.6133C41.9648 38.617 41.1597 37.8037 40.166 37.8037ZM9.4541 27.2695H11.7764C12.4188 27.2695 12.9402 27.7903 12.9404 28.4326C12.9404 29.0748 12.4189 29.5967 11.7764 29.5967H9.4541V37.2139H11.1162L11.1914 37.1152C11.9463 36.1196 13.1383 35.4766 14.4766 35.4766C15.8147 35.4767 17.0063 36.1198 17.7607 37.1152L17.8359 37.2139H36.8076L36.8818 37.1152C37.6362 36.1198 38.828 35.4767 40.166 35.4766C41.5042 35.4766 42.6963 36.1197 43.4512 37.1152L43.5264 37.2139H45.6641V32.3379C45.6641 31.2467 45.0545 30.2661 44.0938 29.7861L43.8975 29.6973L39.9834 28.0957L39.9375 28.0771H31.3154C30.6729 28.0771 30.1514 27.5556 30.1514 26.9131V19.8096H9.4541V27.2695ZM32.4785 25.75H38.3711L38.2139 25.3984L35.7959 19.998C35.7479 19.8908 35.6394 19.8097 35.5078 19.8096H32.4785V25.75Z" fill="white" stroke="#FF8335" stroke-width="0.5"/>
</svg>
