<svg width="44" height="45" viewBox="0 0 44 45" fill="none" xmlns="http://www.w3.org/2000/svg">
<mask id="mask0_30_1080" style="mask-type:luminance" maskUnits="userSpaceOnUse" x="0" y="0" width="44" height="45">
<path d="M43 43.3066V1.30664H1V43.3066H43Z" fill="white" stroke="white" stroke-width="2"/>
</mask>
<g mask="url(#mask0_30_1080)">
<path d="M36.6449 36.9514C35.6422 37.954 34.0015 37.9541 32.9988 36.9515L31.4549 35.4075C29.4573 36.8517 27.1165 37.8498 24.5781 38.2572V40.4395C24.5781 41.8574 23.4181 43.0176 22.0001 43.0176C20.5821 43.0176 19.4219 41.8574 19.4219 40.4395V38.2572C16.8835 37.8501 14.5429 36.8511 12.5453 35.4072L11.0012 36.9514C9.99858 37.9541 8.35786 37.9541 7.35522 36.9515L7.35514 36.9514C6.35251 35.9488 6.35251 34.3081 7.35514 33.3054L8.89918 31.7614C7.45465 29.764 6.45563 27.4233 6.04854 24.8847H3.86719C2.44922 24.8847 1.28906 23.7246 1.28906 22.3066C1.28906 20.8886 2.44922 19.7285 3.86719 19.7285H6.04863C6.45597 17.1901 7.45491 14.8494 8.89909 12.8517L7.35514 11.3078C6.35251 10.3052 6.35251 8.66446 7.35514 7.66182L7.35522 7.66173C8.35786 6.6591 9.99858 6.6591 11.0012 7.66173L12.5451 9.20569C14.5425 7.76134 16.8835 6.76335 19.4219 6.356V4.17379C19.4219 2.75582 20.5821 1.59566 22 1.59566C23.418 1.59566 24.5781 2.75582 24.5781 4.17379V6.356C27.1166 6.76317 29.4572 7.76194 31.4546 9.20595L32.9988 7.66173C34.0015 6.6591 35.6422 6.6591 36.6449 7.66173C37.6475 8.66445 37.6475 10.3051 36.6449 11.3078L35.1009 12.8517C36.5453 14.8493 37.5444 17.1898 37.9516 19.7285H40.1329C41.5508 19.7285 42.711 20.8886 42.711 22.3066C42.711 23.7246 41.5508 24.8847 40.1329 24.8847H37.9515C37.5442 27.4233 36.5453 29.764 35.1009 31.7615L36.6449 33.3054C37.6475 34.3081 37.6475 35.9488 36.6449 36.9514Z" stroke="white" stroke-width="2" stroke-miterlimit="22.926" stroke-linecap="round" stroke-linejoin="round"/>
<path d="M28.6126 16.6159C29.6696 20.4256 29.1407 24.0549 26.8144 26.3813C24.4881 28.7076 20.8588 29.2364 17.0491 28.1794C15.9922 24.3698 16.5209 20.7405 18.8473 18.4142C21.1736 16.0877 24.803 15.559 28.6126 16.6159Z" stroke="white" stroke-width="2" stroke-miterlimit="22.926" stroke-linecap="round" stroke-linejoin="round"/>
<path d="M22.8306 22.3978L15.292 29.9365" stroke="white" stroke-width="2" stroke-miterlimit="22.926" stroke-linecap="round" stroke-linejoin="round"/>
</g>
</svg>
