<svg width="16" height="16" viewBox="0 0 16 16" fill="none" xmlns="http://www.w3.org/2000/svg">
<path d="M12.4734 6.47357C12.4114 6.41108 12.3376 6.36148 12.2564 6.32764C12.1752 6.29379 12.088 6.27637 12 6.27637C11.912 6.27637 11.8249 6.29379 11.7436 6.32764C11.6624 6.36148 11.5887 6.41108 11.5267 6.47357L8.47335 9.5269C8.41138 9.58939 8.33764 9.63898 8.2564 9.67283C8.17516 9.70667 8.08803 9.7241 8.00002 9.7241C7.91201 9.7241 7.82487 9.70667 7.74363 9.67283C7.66239 9.63898 7.58866 9.58939 7.52669 9.5269L4.47335 6.47357C4.41138 6.41108 4.33764 6.36148 4.2564 6.32764C4.17516 6.29379 4.08803 6.27637 4.00002 6.27637C3.91201 6.27637 3.82487 6.29379 3.74364 6.32764C3.6624 6.36148 3.58866 6.41108 3.52669 6.47357C3.40252 6.59847 3.33282 6.76744 3.33282 6.94357C3.33282 7.11969 3.40252 7.28866 3.52669 7.41357L6.58669 10.4736C6.96169 10.8481 7.47002 11.0585 8.00002 11.0585C8.53002 11.0585 9.03835 10.8481 9.41335 10.4736L12.4734 7.41357C12.5975 7.28866 12.6672 7.11969 12.6672 6.94357C12.6672 6.76744 12.5975 6.59847 12.4734 6.47357Z" fill="#0D0E10"/>
</svg>
