<svg width="20" height="20" viewBox="0 0 20 20" fill="none" xmlns="http://www.w3.org/2000/svg">
<path d="M15.5917 6.8422C15.5142 6.76409 15.422 6.7021 15.3205 6.65979C15.2189 6.61748 15.11 6.5957 15 6.5957C14.89 6.5957 14.7811 6.61748 14.6795 6.65979C14.578 6.7021 14.4858 6.76409 14.4083 6.8422L10.5917 10.6589C10.5142 10.737 10.422 10.799 10.3205 10.8413C10.2189 10.8836 10.11 10.9054 10 10.9054C9.89 10.9054 9.78108 10.8836 9.67953 10.8413C9.57798 10.799 9.48581 10.737 9.40834 10.6589L5.59168 6.8422C5.51421 6.76409 5.42204 6.7021 5.32049 6.65979C5.21894 6.61748 5.11002 6.5957 5.00001 6.5957C4.89 6.5957 4.78108 6.61748 4.67953 6.65979C4.57798 6.7021 4.48581 6.76409 4.40834 6.8422C4.25313 6.99834 4.16602 7.20955 4.16602 7.4297C4.16602 7.64986 4.25313 7.86107 4.40834 8.0172L8.23334 11.8422C8.70209 12.3104 9.33751 12.5733 10 12.5733C10.6625 12.5733 11.2979 12.3104 11.7667 11.8422L15.5917 8.0172C15.7469 7.86107 15.834 7.64986 15.834 7.4297C15.834 7.20955 15.7469 6.99834 15.5917 6.8422Z" fill="#818195"/>
</svg>
