<svg width="14" height="14" viewBox="0 0 14 14" fill="none" xmlns="http://www.w3.org/2000/svg">
<path d="M5.66413 3.08581C5.60945 3.14004 5.56605 3.20456 5.53644 3.27564C5.50682 3.34673 5.49158 3.42297 5.49158 3.49998C5.49158 3.57698 5.50682 3.65323 5.53644 3.72431C5.56605 3.7954 5.60945 3.85991 5.66413 3.91414L8.33579 6.58581C8.39047 6.64004 8.43386 6.70456 8.46348 6.77564C8.49309 6.84672 8.50834 6.92297 8.50834 6.99998C8.50834 7.07698 8.49309 7.15323 8.46348 7.22431C8.43386 7.2954 8.39047 7.35991 8.33579 7.41414L5.66413 10.0858C5.60945 10.14 5.56605 10.2046 5.53644 10.2756C5.50682 10.3467 5.49158 10.423 5.49158 10.5C5.49158 10.577 5.50682 10.6532 5.53644 10.7243C5.56605 10.7954 5.60945 10.8599 5.66413 10.9141C5.77342 11.0228 5.92127 11.0838 6.07538 11.0838C6.22948 11.0838 6.37733 11.0228 6.48663 10.9141L9.16413 8.23664C9.49184 7.90852 9.67592 7.46373 9.67592 6.99998C9.67592 6.53622 9.49184 6.09144 9.16413 5.76331L6.48663 3.08581C6.37733 2.97716 6.22948 2.91618 6.07538 2.91618C5.92127 2.91618 5.77342 2.97716 5.66413 3.08581Z" fill="#818195"/>
</svg>
