<svg width="10" height="10" viewBox="0 0 10 10" fill="none" xmlns="http://www.w3.org/2000/svg">
<path d="M6.5615 7.60555C6.5615 6.98055 6.13187 6.12639 5.35305 5.20014C5.30994 5.14872 5.25596 5.10751 5.195 5.07948C5.13404 5.05145 5.06761 5.0373 5.00051 5.03805C4.93292 5.03774 4.86608 5.05216 4.80462 5.08029C4.74317 5.10843 4.68858 5.14961 4.64465 5.20097C3.79207 6.19972 3.37536 7.08305 3.44745 7.76014C3.47582 7.97421 3.54924 8.17985 3.66287 8.36349C3.77649 8.54714 3.92776 8.70461 4.10668 8.82555C4.35978 9.03307 4.67349 9.15269 5.00051 9.16639C5.41438 9.16595 5.81116 9.00136 6.10381 8.70874C6.39645 8.41613 6.56106 8.01938 6.5615 7.60555Z" fill="#EF4A4A"/>
<path d="M6.92919 1.20845C6.60166 0.930116 6.25788 0.63845 5.90784 0.320116C5.77512 0.199629 5.61766 0.109605 5.44649 0.0563446C5.27532 0.00308439 5.09458 -0.0121244 4.91691 0.011783C4.74473 0.0345856 4.57964 0.0949161 4.43333 0.188513C4.28702 0.282109 4.16304 0.406688 4.07017 0.55345C3.57362 1.38338 3.22243 2.29199 3.03173 3.24012C2.95713 3.1321 2.89082 3.01858 2.83338 2.90053C2.7744 2.77628 2.68558 2.66855 2.57484 2.58696C2.4641 2.50537 2.33488 2.45246 2.19872 2.43295C2.06255 2.41343 1.92368 2.42792 1.79448 2.47512C1.66527 2.52232 1.54976 2.60076 1.45825 2.70345C0.759561 3.41778 0.372257 4.37973 0.381065 5.37887C0.371402 6.39946 0.703357 7.39398 1.32412 8.20419C1.94488 9.0144 2.81879 9.59377 3.80681 9.85012C4.18511 9.9453 4.5735 9.99454 4.96359 9.99678C4.46509 9.97821 3.98596 9.79902 3.59762 9.48595C3.3286 9.29663 3.1024 9.05287 2.93369 8.77047C2.76499 8.48808 2.65755 8.17338 2.61836 7.84678C2.52252 6.92595 2.99048 5.85387 4.00933 4.66053C4.13155 4.51727 4.2835 4.40232 4.45462 4.32368C4.62574 4.24504 4.81193 4.20458 5.00026 4.20512H5.00442C5.1922 4.20527 5.37769 4.24636 5.54796 4.32551C5.71824 4.40467 5.8692 4.51999 5.99035 4.66345C6.63125 5.4247 7.3959 6.55303 7.3959 7.60553C7.39498 8.21208 7.16397 8.79569 6.7495 9.23857C6.33504 9.68146 5.76798 9.95064 5.16277 9.99178C6.35941 9.95324 7.49404 9.45042 8.32631 8.58983C9.15859 7.72925 9.62313 6.57851 9.62153 5.38137C9.61945 3.49387 8.37266 2.43553 6.92919 1.20845Z" fill="#EF4A4A"/>
</svg>
