<svg width="14" height="15" viewBox="0 0 14 15" fill="none" xmlns="http://www.w3.org/2000/svg">
    <path d="M12.3393 6.07823L10.7472 7.61265C10.5285 7.82301 10.3801 8.24374 10.4254 8.54485L10.6729 10.3433C10.8338 11.4941 10.1202 11.9932 9.089 11.457L7.34009 10.5412C7.04723 10.3886 6.56875 10.3969 6.28414 10.566L4.75384 11.4611C3.54528 12.1664 2.82344 11.6343 3.14517 10.2731L3.59478 8.37161C3.67727 8.02513 3.52466 7.55078 3.26479 7.31566L1.81699 6.0081C0.781671 5.07178 1.07041 4.22207 2.46458 4.11483L4.22999 3.98283C4.55998 3.95808 4.96008 3.69822 5.1127 3.40536L6.0284 1.6482C6.56875 0.62113 7.43908 0.625255 7.96293 1.66058L8.77964 3.27749C8.91988 3.54973 9.27461 3.81372 9.57572 3.85909L11.7619 4.21382C12.9415 4.41181 13.2014 5.24914 12.3393 6.07823Z" fill="#FBBF27"/>
</svg>