<svg xmlns="http://www.w3.org/2000/svg" width="16" height="16" viewBox="0 0 16 16" fill="none">
    <path d="M11.7968 5.96773L11.797 5.96755C12.1985 5.58137 12.2721 5.25849 12.2084 5.05289C12.1447 4.84721 11.9012 4.62231 11.3521 4.53C11.3519 4.52997 11.3516 4.52993 11.3514 4.52989L9.16792 4.17559C8.96666 4.14493 8.76593 4.04607 8.60027 3.92435C8.43383 3.80205 8.28043 3.64027 8.18834 3.4615L8.18742 3.45973L8.18743 3.45973L7.3708 1.84296C7.37078 1.84293 7.37077 1.8429 7.37075 1.84286C7.37074 1.84284 7.37073 1.84283 7.37072 1.84281C7.12863 1.36442 6.84703 1.20178 6.63133 1.20051C6.41521 1.19923 6.13066 1.35904 5.88082 1.8337C5.88074 1.83384 5.88067 1.83398 5.88059 1.83412L4.96534 3.59042C4.864 3.78489 4.69094 3.95243 4.50545 4.07351C4.31983 4.19467 4.09721 4.28533 3.87964 4.30165L3.87958 4.30166L2.1147 4.43361C2.11462 4.43362 2.11453 4.43362 2.11444 4.43363C1.43959 4.48559 1.16273 4.70907 1.09726 4.90084C1.03177 5.09272 1.11437 5.43883 1.6155 5.89209L11.7968 5.96773ZM11.7968 5.96773L10.2048 7.50202M11.7968 5.96773L4.25877 11.3147L5.78738 10.4206C5.78766 10.4204 5.78795 10.4203 5.78823 10.4201C5.97737 10.308 6.21321 10.2573 6.43459 10.2525C6.6565 10.2478 6.89353 10.2885 7.08656 10.3891L7.08699 10.3893L8.83528 11.3047C8.83538 11.3047 8.83547 11.3048 8.83557 11.3048C9.31253 11.5528 9.63816 11.522 9.81529 11.3976C9.99191 11.2737 10.1306 10.9794 10.0563 10.4474L10.0562 10.4469L9.8089 8.64986C9.77895 8.44847 9.81451 8.22662 9.8821 8.03216C9.94996 7.83691 10.0597 7.64159 10.2048 7.50202M10.2048 7.50202L10.3781 7.68217M10.2048 7.50202L10.2046 7.50216L10.3781 7.68217M10.3781 7.68217L11.9703 6.14775L10.0564 8.61437C10.011 8.31326 10.1595 7.89253 10.3781 7.68217ZM3.0633 7.19965L1.61563 5.8922L4.25857 11.3148C3.67319 11.6564 3.31786 11.6306 3.15505 11.5104C2.99256 11.3905 2.86358 11.0595 3.01941 10.4002C3.01941 10.4002 3.01941 10.4002 3.01941 10.4002L3.46892 8.49903C3.46894 8.49894 3.46897 8.49884 3.46899 8.49874C3.52317 8.2709 3.49769 8.01866 3.42754 7.7962C3.35735 7.57365 3.23401 7.3541 3.06347 7.1998L3.0633 7.19965Z" stroke="#FBBF27" stroke-width="0.5"/>
</svg>