<svg width="14" height="14" viewBox="0 0 14 14" fill="none" xmlns="http://www.w3.org/2000/svg">
<path d="M12.3384 6.00553L10.7462 7.53995C10.5276 7.75032 10.3791 8.17105 10.4245 8.47216L10.6719 10.2706C10.8328 11.4214 10.1192 11.9205 9.08802 11.3843L7.33911 10.4686C7.04625 10.3159 6.56777 10.3242 6.28316 10.4933L4.75287 11.3884C3.5443 12.0937 2.82246 11.5616 3.1442 10.2004L3.5938 8.29892C3.6763 7.95243 3.52368 7.47808 3.26382 7.24297L1.81602 5.93541C0.780694 4.99908 1.06943 4.14938 2.46361 4.04213L4.22902 3.91014C4.559 3.88539 4.95911 3.62553 5.11172 3.33267L6.02743 1.57551C6.56777 0.548437 7.4381 0.552562 7.96195 1.58788L8.77866 3.2048C8.9189 3.47704 9.27364 3.74102 9.57474 3.7864L11.7609 4.14113C12.9406 4.33912 13.2004 5.17645 12.3384 6.00553Z" fill="#FBBF27"/>
</svg>
