<svg width="16" height="16" viewBox="0 0 16 16" fill="none" xmlns="http://www.w3.org/2000/svg">
<path d="M14.1021 6.86343L12.2825 8.61706C12.0326 8.85747 11.8629 9.3383 11.9148 9.68243L12.1976 11.7378C12.3815 13.053 11.5659 13.6234 10.3874 13.0105L8.38867 11.964C8.05398 11.7896 7.50715 11.799 7.18188 11.9923L5.43297 13.0153C4.05175 13.8214 3.22679 13.2132 3.59449 11.6576L4.10832 9.48444C4.2026 9.08846 4.02818 8.54635 3.7312 8.27764L2.07657 6.78329C0.893343 5.7132 1.22333 4.74211 2.81667 4.61955L4.83428 4.4687C5.21141 4.44041 5.66867 4.14343 5.84309 3.80873L6.88961 1.80055C7.50715 0.62675 8.50181 0.631464 9.10049 1.81469L10.0339 3.66259C10.1942 3.97372 10.5996 4.27542 10.9437 4.32728L13.4421 4.73268C14.7903 4.95896 15.0873 5.91591 14.1021 6.86343Z" fill="#FBBF27"/>
</svg>
