<svg width="16" height="16" viewBox="0 0 16 16" fill="none" xmlns="http://www.w3.org/2000/svg">
<path d="M6.47357 3.52784C6.41108 3.58982 6.36148 3.66355 6.32764 3.74479C6.29379 3.82603 6.27637 3.91317 6.27637 4.00118C6.27637 4.08918 6.29379 4.17632 6.32764 
4.25756C6.36148 4.3388 6.41108 4.41253 6.47357 4.47451L9.5269 7.52784C9.58938 7.58982 9.63898 7.66355 9.67283 7.74479C9.70667 7.82603 9.7241 7.91317 9.7241 8.00117C9.7241
 8.08918 9.70667 8.17632 9.67283 8.25756C9.63898 8.3388 9.58938 8.41253 9.5269 8.47451L6.47357 11.5278C6.41108 11.5898 6.36148 11.6635 6.32764 11.7448C6.29379 11.826 6.27637
 11.9132 6.27637 12.0012C6.27637 12.0892 6.29379 12.1763 6.32764 12.2576C6.36148 12.3388 6.41108 12.4125 6.47357 12.4745C6.59847 12.5987 6.76744 12.6684 6.94357 
 12.6684C7.11969 12.6684 7.28866 12.5987 7.41357 12.4745L10.4736 9.41451C10.8481 9.03951 11.0585 8.53118 11.0585 8.00117C11.0585 7.47117 10.8481 6.96284 10.4736 
 6.58784L7.41357 3.52784C7.28866 3.40368 7.11969 3.33398 6.94357 3.33398C6.76744 3.33398 6.59847 3.40368 6.47357 3.52784Z" fill="#000"/>
</svg>
