<svg width="79" height="62" viewBox="0 0 79 62" fill="none" xmlns="http://www.w3.org/2000/svg">
<path d="M39.2208 40.0448C49.9184 40.0448 58.5905 31.3728 58.5905 20.6753C58.5905 9.97772 49.9184 1.30566 39.2208 1.30566C28.5232 1.30566 19.8511 9.97772 19.8511 20.6753C19.8511 31.3728 28.5232 40.0448 39.2208 40.0448Z" stroke="black" stroke-width="2" stroke-miterlimit="10" stroke-linecap="round" stroke-linejoin="round"/>
<path d="M48.0602 14.2344L37.2412 25.8852L31.6135 19.9316" stroke="black" stroke-width="2" stroke-miterlimit="10" stroke-linecap="round" stroke-linejoin="round"/>
<path d="M16.4277 41.117C18.4765 38.8309 17.2903 34.4262 13.7783 31.2788C10.2663 28.1313 5.75844 27.433 3.70965 29.7191C1.66087 32.0052 2.84704 36.4099 6.35904 39.5573C9.87104 42.7048 14.379 43.403 16.4277 41.117Z" stroke="black" stroke-width="2" stroke-miterlimit="22.9256" stroke-linecap="round" stroke-linejoin="round"/>
<path d="M26.2638 47.9179C26.6257 44.8696 23.1228 41.9478 18.4399 41.3917C13.7569 40.8357 9.66716 42.8561 9.30523 45.9044C8.9433 48.9527 12.4462 51.8746 17.1292 52.4306C21.8122 52.9866 25.9019 50.9662 26.2638 47.9179Z" stroke="black" stroke-width="2" stroke-miterlimit="22.9256" stroke-linecap="round" stroke-linejoin="round"/>
<path d="M29.5401 59.8989C34.1915 59.1217 37.5521 56.0372 37.0462 53.0095C36.5403 49.9818 32.3595 48.1574 27.7081 48.9346C23.0567 49.7118 19.6961 52.7963 20.202 55.824C20.7079 58.8517 24.8887 60.6761 29.5401 59.8989Z" stroke="black" stroke-width="2" stroke-miterlimit="22.9256" stroke-linecap="round" stroke-linejoin="round"/>
<path d="M72.0825 39.5562C75.5945 36.4088 76.7807 32.004 74.7319 29.718C72.6832 27.4319 68.1752 28.1302 64.6632 31.2776C61.1512 34.4251 59.9651 38.8298 62.0139 41.1158C64.0626 43.4019 68.5705 42.7036 72.0825 39.5562Z" stroke="black" stroke-width="2" stroke-miterlimit="22.9256" stroke-linecap="round" stroke-linejoin="round"/>
<path d="M61.3102 52.4286C65.9932 51.8726 69.4961 48.9507 69.1342 45.9024C68.7722 42.8541 64.6825 40.8337 59.9996 41.3897C55.3166 41.9457 51.8137 44.8676 52.1756 47.9159C52.5375 50.9642 56.6272 52.9846 61.3102 52.4286Z" stroke="black" stroke-width="2" stroke-miterlimit="22.9256" stroke-linecap="round" stroke-linejoin="round"/>
<path d="M58.2339 55.8225C58.7398 52.7948 55.3793 49.7103 50.7279 48.9331C46.0765 48.1559 41.8957 49.9803 41.3898 53.0081C40.8839 56.0358 44.2444 59.1203 48.8958 59.8975C53.5472 60.6747 57.728 58.8502 58.2339 55.8225Z" stroke="black" stroke-width="2" stroke-miterlimit="22.9256" stroke-linecap="round" stroke-linejoin="round"/>
</svg>
