<svg width="56" height="57" viewBox="0 0 56 57" fill="none" xmlns="http://www.w3.org/2000/svg">
<mask id="path-1-inside-1_32_765" fill="white">
<path d="M54.7427 11.8996C55.5239 11.0281 56 9.87804 56 8.61839C56 5.90449 53.7921 3.69657 51.0781 3.69657H38.2311C35.6978 3.69657 33.3889 4.93107 31.9881 6.97778H31.6647C30.3232 5.48089 28.231 4.95557 26.3595 5.61936V5.2278C26.3595 2.51391 24.1516 0.305979 21.4377 0.305979C20.178 0.305979 19.028 0.782083 18.1565 1.56323C16.2847 -0.114454 13.4636 -0.112595 11.594 1.56323C10.7225 0.782192 9.57243 0.305979 8.31277 0.305979C5.59886 0.305979 3.39092 2.51391 3.39092 5.2278V18.0747C3.39092 20.6082 4.62543 22.9169 6.67215 24.3178V24.6411C5.17525 25.9828 4.65004 28.0749 5.31372 29.9463H4.92216C2.20826 29.9463 0.000314563 32.1542 0.000314563 34.8681C0.000314563 36.1278 0.476531 37.2778 1.25757 38.1493C-0.420121 40.021 -0.418261 42.8421 1.25757 44.7117C0.476421 45.5832 0.000314563 46.7333 0.000314563 47.9929C0.000314563 50.7068 2.20826 52.9148 4.92216 52.9148H17.7692C20.3025 52.9148 22.6114 51.6803 24.0123 49.6336H24.3356C25.6772 51.1304 27.7693 51.6558 29.6408 50.992V51.3835C29.6408 54.0974 31.8487 56.3054 34.5626 56.3054C35.8223 56.3054 36.9724 55.8293 37.8438 55.0481C39.7156 56.7258 42.5367 56.7239 44.4063 55.0481C45.2778 55.8291 46.4279 56.3054 47.6875 56.3054C50.4014 56.3054 52.6094 54.0974 52.6094 51.3835V38.5366C52.6094 36.0032 51.3749 33.6944 49.3282 32.2935V31.9702C50.8251 30.6285 51.3503 28.5364 50.6866 26.6651H51.0781C53.7921 26.6651 56 24.4571 56 21.7432C56 20.4836 55.5238 19.3335 54.7427 18.462C55.5239 17.5905 56 16.4405 56 15.1808C56 13.9212 55.5239 12.771 54.7427 11.8996ZM9.04645 21.9164C7.58193 21.1841 6.67215 19.7121 6.67215 18.0746V5.2278C6.67215 4.32317 7.40813 3.58719 8.31277 3.58719C9.2174 3.58719 9.95338 4.32317 9.95338 5.2278V5.33717C9.95338 6.24322 10.6879 6.97778 11.594 6.97778C12.5001 6.97778 13.2346 6.24322 13.2346 5.33717V5.2278C13.2346 4.32317 13.9706 3.58719 14.8752 3.58719C15.7799 3.58719 16.5158 4.32317 16.5158 5.2278C16.5158 6.13385 17.2504 6.8684 18.1565 6.8684C19.0625 6.8684 19.7971 6.13385 19.7971 5.2278C19.7971 4.32317 20.5331 3.58719 21.4377 3.58719C22.3423 3.58719 23.0783 4.32317 23.0783 5.2278V10.259V13.5402C23.0783 14.4463 23.8129 15.1808 24.7189 15.1808C25.625 15.1808 26.3595 14.4463 26.3595 13.5402V10.259C26.3595 9.35436 27.0955 8.61839 28.0002 8.61839C28.9048 8.61839 29.6408 9.35436 29.6408 10.259V14.9788C29.6408 17.2414 28.1077 19.2049 25.9125 19.7536L24.3209 20.1515C23.5906 20.3341 23.0783 20.9903 23.0783 21.7431V29.9462H22.7187L22.6314 29.5973C21.7168 25.9388 18.4443 23.3837 14.6732 23.3837H9.95338C9.95338 22.7624 9.60229 22.1943 9.04645 21.9164ZM29.6408 29.9463H26.3595V26.6651H29.6408V29.9463ZM21.6109 47.2592C20.8787 48.7237 19.4066 49.6334 17.7692 49.6334H4.92216C4.01753 49.6334 3.28155 48.8975 3.28155 47.9928C3.28155 47.0882 4.01753 46.3522 4.92216 46.3522H5.03154C5.93759 46.3522 6.67215 45.6177 6.67215 44.7116C6.67215 43.8056 5.93759 43.071 5.03154 43.071H4.92216C4.01753 43.071 3.28155 42.335 3.28155 41.4304C3.28155 40.5258 4.01753 39.7898 4.92216 39.7898C5.82822 39.7898 6.56278 39.0553 6.56278 38.1492C6.56278 37.2431 5.82822 36.5086 4.92216 36.5086C4.01753 36.5086 3.28155 35.7726 3.28155 34.868C3.28155 33.9634 4.01753 33.2274 4.92216 33.2274H13.2346C14.1407 33.2274 14.8752 32.4928 14.8752 31.5868C14.8752 30.6807 14.1407 29.9462 13.2346 29.9462H9.95338C9.04875 29.9462 8.31277 29.2102 8.31277 28.3056C8.31277 27.4009 9.04875 26.6649 9.95338 26.6649H14.6732C16.936 26.6649 18.8994 28.198 19.4482 30.393L19.8461 31.9846C20.0286 32.715 20.6849 33.2273 21.4377 33.2273H29.6408V33.587L29.292 33.6742C25.6335 34.5888 23.0783 37.8612 23.0783 41.6323V46.3521C22.457 46.3523 21.8889 46.7034 21.6109 47.2592ZM46.9539 34.6948C48.4184 35.4271 49.3282 36.8992 49.3282 38.5366V51.3835C49.3282 52.2882 48.5922 53.0241 47.6875 53.0241C46.7829 53.0241 46.0469 52.2882 46.0469 51.3835V51.2742C46.0469 50.3681 45.3124 49.6336 44.4063 49.6336C43.5003 49.6336 42.7657 50.3681 42.7657 51.2742V51.3835C42.7657 52.2882 42.0297 53.0241 41.1251 53.0241C40.2204 53.0241 39.4845 52.2882 39.4845 51.3835C39.4845 50.4775 38.7499 49.7429 37.8438 49.7429C36.9378 49.7429 36.2032 50.4775 36.2032 51.3835C36.2032 52.2882 35.4673 53.0241 34.5626 53.0241C33.658 53.0241 32.922 52.2882 32.922 51.3835C32.922 49.3991 32.922 44.6817 32.922 43.0711C32.922 42.1651 32.1874 41.4305 31.2814 41.4305C30.3753 41.4305 29.6408 42.1651 29.6408 43.0711V46.3523C29.6408 47.257 28.9048 47.9929 28.0002 47.9929C27.0955 47.9929 26.3595 47.257 26.3595 46.3523V41.6325C26.3595 39.3699 27.8926 37.4064 30.0878 36.8577L31.6794 36.4598C32.4097 36.2773 32.922 35.621 32.922 34.8682V26.6652H33.2816L33.3689 27.0141C34.2835 30.6725 37.556 33.2276 41.3271 33.2276H46.0469C46.0469 33.8488 46.398 34.4169 46.9539 34.6948ZM51.0781 23.3838H46.0469H42.7657C41.8596 23.3838 41.1251 24.1184 41.1251 25.0245C41.1251 25.9305 41.8596 26.6651 42.7657 26.6651H46.0469C46.9516 26.6651 47.6875 27.401 47.6875 28.3057C47.6875 29.2103 46.9516 29.9463 46.0469 29.9463H41.3271C39.0644 29.9463 37.1009 28.4132 36.5521 26.2183L36.1542 24.6267C35.9717 23.8963 35.3154 23.384 34.5626 23.384H26.3595V23.0242L26.7083 22.9371C30.3668 22.0225 32.922 18.75 32.922 14.9789V10.259C33.5435 10.259 34.1115 9.9079 34.3894 9.35207C35.1216 7.88755 36.5937 6.97778 38.2311 6.97778H51.0781C51.9828 6.97778 52.7188 7.71376 52.7188 8.61839C52.7188 9.52302 51.9828 10.259 51.0781 10.259H50.9688C50.0627 10.259 49.3282 10.9935 49.3282 11.8996C49.3282 12.8057 50.0627 13.5402 50.9688 13.5402H51.0781C51.9828 13.5402 52.7188 14.2762 52.7188 15.1808C52.7188 16.0854 51.9828 16.8214 51.0781 16.8214C50.1721 16.8214 49.4375 17.556 49.4375 18.462C49.4375 19.3681 50.1721 20.1026 51.0781 20.1026C51.9828 20.1026 52.7188 20.8386 52.7188 21.7432C52.7188 22.6479 51.9829 23.3838 51.0781 23.3838Z"/>
</mask>
<path d="M54.7427 11.8996C55.5239 11.0281 56 9.87804 56 8.61839C56 5.90449 53.7921 3.69657 51.0781 3.69657H38.2311C35.6978 3.69657 33.3889 4.93107 31.9881 6.97778H31.6647C30.3232 5.48089 28.231 4.95557 26.3595 5.61936V5.2278C26.3595 2.51391 24.1516 0.305979 21.4377 0.305979C20.178 0.305979 19.028 0.782083 18.1565 1.56323C16.2847 -0.114454 13.4636 -0.112595 11.594 1.56323C10.7225 0.782192 9.57243 0.305979 8.31277 0.305979C5.59886 0.305979 3.39092 2.51391 3.39092 5.2278V18.0747C3.39092 20.6082 4.62543 22.9169 6.67215 24.3178V24.6411C5.17525 25.9828 4.65004 28.0749 5.31372 29.9463H4.92216C2.20826 29.9463 0.000314563 32.1542 0.000314563 34.8681C0.000314563 36.1278 0.476531 37.2778 1.25757 38.1493C-0.420121 40.021 -0.418261 42.8421 1.25757 44.7117C0.476421 45.5832 0.000314563 46.7333 0.000314563 47.9929C0.000314563 50.7068 2.20826 52.9148 4.92216 52.9148H17.7692C20.3025 52.9148 22.6114 51.6803 24.0123 49.6336H24.3356C25.6772 51.1304 27.7693 51.6558 29.6408 50.992V51.3835C29.6408 54.0974 31.8487 56.3054 34.5626 56.3054C35.8223 56.3054 36.9724 55.8293 37.8438 55.0481C39.7156 56.7258 42.5367 56.7239 44.4063 55.0481C45.2778 55.8291 46.4279 56.3054 47.6875 56.3054C50.4014 56.3054 52.6094 54.0974 52.6094 51.3835V38.5366C52.6094 36.0032 51.3749 33.6944 49.3282 32.2935V31.9702C50.8251 30.6285 51.3503 28.5364 50.6866 26.6651H51.0781C53.7921 26.6651 56 24.4571 56 21.7432C56 20.4836 55.5238 19.3335 54.7427 18.462C55.5239 17.5905 56 16.4405 56 15.1808C56 13.9212 55.5239 12.771 54.7427 11.8996ZM9.04645 21.9164C7.58193 21.1841 6.67215 19.7121 6.67215 18.0746V5.2278C6.67215 4.32317 7.40813 3.58719 8.31277 3.58719C9.2174 3.58719 9.95338 4.32317 9.95338 5.2278V5.33717C9.95338 6.24322 10.6879 6.97778 11.594 6.97778C12.5001 6.97778 13.2346 6.24322 13.2346 5.33717V5.2278C13.2346 4.32317 13.9706 3.58719 14.8752 3.58719C15.7799 3.58719 16.5158 4.32317 16.5158 5.2278C16.5158 6.13385 17.2504 6.8684 18.1565 6.8684C19.0625 6.8684 19.7971 6.13385 19.7971 5.2278C19.7971 4.32317 20.5331 3.58719 21.4377 3.58719C22.3423 3.58719 23.0783 4.32317 23.0783 5.2278V10.259V13.5402C23.0783 14.4463 23.8129 15.1808 24.7189 15.1808C25.625 15.1808 26.3595 14.4463 26.3595 13.5402V10.259C26.3595 9.35436 27.0955 8.61839 28.0002 8.61839C28.9048 8.61839 29.6408 9.35436 29.6408 10.259V14.9788C29.6408 17.2414 28.1077 19.2049 25.9125 19.7536L24.3209 20.1515C23.5906 20.3341 23.0783 20.9903 23.0783 21.7431V29.9462H22.7187L22.6314 29.5973C21.7168 25.9388 18.4443 23.3837 14.6732 23.3837H9.95338C9.95338 22.7624 9.60229 22.1943 9.04645 21.9164ZM29.6408 29.9463H26.3595V26.6651H29.6408V29.9463ZM21.6109 47.2592C20.8787 48.7237 19.4066 49.6334 17.7692 49.6334H4.92216C4.01753 49.6334 3.28155 48.8975 3.28155 47.9928C3.28155 47.0882 4.01753 46.3522 4.92216 46.3522H5.03154C5.93759 46.3522 6.67215 45.6177 6.67215 44.7116C6.67215 43.8056 5.93759 43.071 5.03154 43.071H4.92216C4.01753 43.071 3.28155 42.335 3.28155 41.4304C3.28155 40.5258 4.01753 39.7898 4.92216 39.7898C5.82822 39.7898 6.56278 39.0553 6.56278 38.1492C6.56278 37.2431 5.82822 36.5086 4.92216 36.5086C4.01753 36.5086 3.28155 35.7726 3.28155 34.868C3.28155 33.9634 4.01753 33.2274 4.92216 33.2274H13.2346C14.1407 33.2274 14.8752 32.4928 14.8752 31.5868C14.8752 30.6807 14.1407 29.9462 13.2346 29.9462H9.95338C9.04875 29.9462 8.31277 29.2102 8.31277 28.3056C8.31277 27.4009 9.04875 26.6649 9.95338 26.6649H14.6732C16.936 26.6649 18.8994 28.198 19.4482 30.393L19.8461 31.9846C20.0286 32.715 20.6849 33.2273 21.4377 33.2273H29.6408V33.587L29.292 33.6742C25.6335 34.5888 23.0783 37.8612 23.0783 41.6323V46.3521C22.457 46.3523 21.8889 46.7034 21.6109 47.2592ZM46.9539 34.6948C48.4184 35.4271 49.3282 36.8992 49.3282 38.5366V51.3835C49.3282 52.2882 48.5922 53.0241 47.6875 53.0241C46.7829 53.0241 46.0469 52.2882 46.0469 51.3835V51.2742C46.0469 50.3681 45.3124 49.6336 44.4063 49.6336C43.5003 49.6336 42.7657 50.3681 42.7657 51.2742V51.3835C42.7657 52.2882 42.0297 53.0241 41.1251 53.0241C40.2204 53.0241 39.4845 52.2882 39.4845 51.3835C39.4845 50.4775 38.7499 49.7429 37.8438 49.7429C36.9378 49.7429 36.2032 50.4775 36.2032 51.3835C36.2032 52.2882 35.4673 53.0241 34.5626 53.0241C33.658 53.0241 32.922 52.2882 32.922 51.3835C32.922 49.3991 32.922 44.6817 32.922 43.0711C32.922 42.1651 32.1874 41.4305 31.2814 41.4305C30.3753 41.4305 29.6408 42.1651 29.6408 43.0711V46.3523C29.6408 47.257 28.9048 47.9929 28.0002 47.9929C27.0955 47.9929 26.3595 47.257 26.3595 46.3523V41.6325C26.3595 39.3699 27.8926 37.4064 30.0878 36.8577L31.6794 36.4598C32.4097 36.2773 32.922 35.621 32.922 34.8682V26.6652H33.2816L33.3689 27.0141C34.2835 30.6725 37.556 33.2276 41.3271 33.2276H46.0469C46.0469 33.8488 46.398 34.4169 46.9539 34.6948ZM51.0781 23.3838H46.0469H42.7657C41.8596 23.3838 41.1251 24.1184 41.1251 25.0245C41.1251 25.9305 41.8596 26.6651 42.7657 26.6651H46.0469C46.9516 26.6651 47.6875 27.401 47.6875 28.3057C47.6875 29.2103 46.9516 29.9463 46.0469 29.9463H41.3271C39.0644 29.9463 37.1009 28.4132 36.5521 26.2183L36.1542 24.6267C35.9717 23.8963 35.3154 23.384 34.5626 23.384H26.3595V23.0242L26.7083 22.9371C30.3668 22.0225 32.922 18.75 32.922 14.9789V10.259C33.5435 10.259 34.1115 9.9079 34.3894 9.35207C35.1216 7.88755 36.5937 6.97778 38.2311 6.97778H51.0781C51.9828 6.97778 52.7188 7.71376 52.7188 8.61839C52.7188 9.52302 51.9828 10.259 51.0781 10.259H50.9688C50.0627 10.259 49.3282 10.9935 49.3282 11.8996C49.3282 12.8057 50.0627 13.5402 50.9688 13.5402H51.0781C51.9828 13.5402 52.7188 14.2762 52.7188 15.1808C52.7188 16.0854 51.9828 16.8214 51.0781 16.8214C50.1721 16.8214 49.4375 17.556 49.4375 18.462C49.4375 19.3681 50.1721 20.1026 51.0781 20.1026C51.9828 20.1026 52.7188 20.8386 52.7188 21.7432C52.7188 22.6479 51.9829 23.3838 51.0781 23.3838Z" fill="black" stroke="white" stroke-width="1.2" mask="url(#path-1-inside-1_32_765)"/>
</svg>
