<svg width="60" height="57" viewBox="0 0 60 57" fill="none" xmlns="http://www.w3.org/2000/svg">
<path d="M1.73145 18.541H37.1377C38.5635 18.5411 39.7236 19.7021 39.7236 21.1279V23.7578H44.1152C48.5437 23.7579 52.4281 26.0698 54.0371 29.6064L58.5732 39.5771L58.582 39.5957L58.5928 39.6133C58.7317 39.8342 58.8125 40.0939 58.8125 40.373V40.375L58.8115 40.3945L58.8125 40.4141V49.1514C58.8125 49.9418 58.1717 50.583 57.3809 50.583H54.2002L54.1836 50.8652C54.0109 53.7283 51.6268 56.0049 48.7217 56.0049C45.8162 56.0048 43.4325 53.7282 43.2598 50.8652L43.2432 50.584L42.9609 50.583L23.8105 50.5254L23.5244 50.5244L23.5098 50.8105C23.3644 53.6991 20.968 56.0048 18.0439 56.0049C15.1198 56.0049 12.723 53.6991 12.5781 50.8105L12.5635 50.5254H7.3584C6.56759 50.5254 5.92676 49.8842 5.92676 49.0938V35.1113H1.73145C0.94074 35.1111 0.299805 34.4704 0.299805 33.6797C0.299946 32.8891 0.940827 32.2482 1.73145 32.248H5.92676V28.332H4.15625C3.36548 28.332 2.72461 27.6908 2.72461 26.9004C2.72476 26.1097 3.36552 25.4688 4.15625 25.4688H5.92676V21.4053H1.73145C0.940842 21.4051 0.299805 20.7635 0.299805 19.9727C0.299997 19.1825 0.94091 18.5412 1.73145 18.541ZM18.0439 47.9238C16.6052 47.9238 15.4347 49.0935 15.4346 50.5322C15.4346 51.9715 16.6051 53.1416 18.0439 53.1416C19.4827 53.1416 20.6533 51.9715 20.6533 50.5322C20.6531 49.0936 19.4826 47.9239 18.0439 47.9238ZM48.7217 47.9238C47.2826 47.9239 46.1125 49.0936 46.1123 50.5322C46.1123 51.9715 47.2826 53.1415 48.7217 53.1416C50.1605 53.1416 51.3311 51.9715 51.3311 50.5322C51.3309 49.0935 50.1604 47.9238 48.7217 47.9238ZM39.7236 47.7197H44.0283L44.1162 47.582C45.0914 46.0655 46.7914 45.0596 48.7217 45.0596C50.652 45.0596 52.3519 46.0655 53.3271 47.582L53.416 47.7197H55.9492V41.8047H45.2197C44.4292 41.8047 43.7881 41.1639 43.7881 40.373V33.9912C43.7883 31.6137 45.9531 29.626 48.6836 29.626H50.7705L50.2939 29.1201C48.832 27.5696 46.5542 26.6212 44.1152 26.6211H39.7236V47.7197ZM8.79004 25.4688H19.6807C20.4714 25.4688 21.1122 26.1097 21.1123 26.9004C21.1123 27.6908 20.4714 28.3319 19.6807 28.332H8.79004V32.248H14.0029C14.7937 32.248 15.4344 32.8889 15.4346 33.6797C15.4346 34.4705 14.7938 35.1113 14.0029 35.1113H8.79004V47.6621H13.3848L13.4736 47.5273C14.4544 46.0412 16.1366 45.0596 18.0439 45.0596C19.9512 45.0596 21.6335 46.0412 22.6143 47.5273L22.7031 47.6621H36.8604V21.4053H8.79004V25.4688ZM48.6836 32.4893C48.1643 32.4893 47.6713 32.6472 47.3008 32.9043C46.9352 33.1581 46.6515 33.5387 46.6514 33.9912V38.9414H55.1377L54.9453 38.5166L52.2822 32.665L52.2021 32.4893H48.6836ZM11.918 21.4053C11.8937 21.4054 11.8725 21.4084 11.8555 21.4121C11.8384 21.4158 11.8244 21.4201 11.8145 21.4238C11.8045 21.4276 11.7964 21.4315 11.792 21.4336C11.7963 21.4316 11.8038 21.4275 11.8135 21.4238C11.8234 21.4201 11.8374 21.4158 11.8545 21.4121C11.8717 21.4083 11.8932 21.4053 11.918 21.4053Z" fill="black" stroke="white" stroke-width="0.6"/>
<path d="M17.9697 0.899414C19.8787 0.899414 21.7051 2.08847 21.7051 4.18457C21.7051 5.9033 20.4859 7.07103 19.1523 8.04199C18.8223 8.2823 18.4923 8.50528 18.1768 8.72168C17.8637 8.93639 17.5634 9.14581 17.3037 9.35059C17.0454 9.55424 16.8133 9.76413 16.6445 9.98535C16.475 10.2075 16.3535 10.4623 16.3535 10.748V11.2031H21.1904C21.2769 11.2031 21.3998 11.2597 21.5146 11.4229C21.6264 11.5817 21.705 11.8104 21.7051 12.0635C21.7051 12.3176 21.6263 12.5582 21.5117 12.7275C21.3928 12.9032 21.2692 12.959 21.1904 12.959H15.0254C14.8411 12.9589 14.6013 12.8931 14.4131 12.7764C14.2195 12.6562 14.1477 12.5288 14.1475 12.4277V10.748C14.1475 10.1748 14.434 9.6365 14.9219 9.09961C15.4104 8.56198 16.0687 8.05961 16.7529 7.55566C17.4258 7.06007 18.1301 6.55905 18.6602 6.04297C19.1853 5.53167 19.6025 4.94703 19.6025 4.27051C19.6025 3.93587 19.4988 3.55397 19.2344 3.25098C18.963 2.94008 18.5479 2.74131 17.9873 2.74121C17.5958 2.74121 17.1918 2.83885 16.8818 3.10645C16.5641 3.38085 16.3878 3.7964 16.3877 4.33984C16.3877 4.60258 16.0703 5.02725 15.2686 5.02734C14.9615 5.02734 14.7506 4.95808 14.6133 4.82227C14.476 4.6864 14.3565 4.42819 14.3564 3.9248C14.3564 2.97078 14.7899 2.22353 15.4561 1.70703C16.1284 1.18584 17.04 0.899419 17.9697 0.899414Z" fill="black" stroke="white" stroke-width="0.6"/>
<path d="M29.019 0.899414C29.1861 0.899414 29.4696 0.977432 29.7095 1.12988C29.9541 1.28546 30.0698 1.46169 30.0698 1.62109C30.0698 1.66074 30.0557 1.71663 30.0063 1.83203L26.9497 7.96387L26.7329 8.39844H29.0073V6.88574C29.0074 6.74524 29.0803 6.62815 29.2681 6.53027C29.4642 6.42805 29.7496 6.37207 30.0581 6.37207C30.3667 6.37209 30.652 6.42809 30.8481 6.53027C31.036 6.62815 31.1088 6.74526 31.1089 6.88574V8.39844H32.1538C32.2977 8.39847 32.4191 8.47195 32.519 8.64062C32.6232 8.81642 32.6851 9.07159 32.6851 9.34473C32.6851 9.5942 32.5999 9.84895 32.4751 10.0361C32.3417 10.236 32.2132 10.2919 32.1538 10.292H31.1089V12.4277C31.1087 12.5591 31.036 12.6816 30.8433 12.7871C30.6459 12.895 30.3609 12.958 30.0581 12.958C29.7555 12.958 29.4703 12.895 29.2729 12.7871C29.0803 12.6816 29.0075 12.5591 29.0073 12.4277V10.292H24.6548C24.469 10.2919 24.3228 10.2318 24.2251 10.1367C24.1294 10.0435 24.0542 9.89119 24.0542 9.65625C24.0542 9.56382 24.0786 9.42331 24.1567 9.28027L24.1606 9.27344L28.1606 1.42871L28.1597 1.42773C28.3614 1.03906 28.6838 0.899488 29.019 0.899414Z" fill="black" stroke="white" stroke-width="0.6"/>
<path d="M36.7947 0.605469C37.1175 0.605469 37.4009 0.679135 37.5925 0.790039C37.7858 0.901986 37.8455 1.02338 37.8455 1.12012V6.22852L38.4177 6.35352C38.6855 5.77456 39.3471 5.21209 40.2927 5.21191C41.6488 5.21191 42.9372 6.66321 42.9373 8.54883V12.4287C42.9371 12.5599 42.8638 12.6824 42.6707 12.7881C42.4732 12.896 42.1889 12.959 41.8865 12.959C41.6126 12.959 41.3307 12.8977 41.1287 12.7881C40.9276 12.679 40.8534 12.5542 40.8533 12.4287V8.54883C40.8533 7.74384 40.1654 6.95047 39.3064 6.9502C38.5639 6.9502 37.8455 7.57463 37.8455 8.54883V12.4287C37.8452 12.4856 37.7924 12.6137 37.5828 12.7461C37.3861 12.8703 37.1042 12.959 36.7947 12.959C36.4564 12.959 36.1826 12.8685 36.0017 12.749C35.814 12.6249 35.7617 12.4988 35.7615 12.4287V1.12012C35.7615 1.00929 35.8196 0.891002 35.991 0.787109C36.1671 0.68037 36.4427 0.605488 36.7947 0.605469Z" fill="black" stroke="white" stroke-width="0.6"/>
</svg>
