<svg width="120" height="87" viewBox="0 0 120 87" fill="none" xmlns="http://www.w3.org/2000/svg">
<path d="M5.89005 82.5062C2.12259 78.883 0.4464 73.2891 0.901517 68.1378L0.952539 67.6416C1.61046 61.9642 4.52467 56.8735 8.32404 52.6729L8.69412 52.2698L8.69422 52.2684C9.86766 50.9968 11.1387 49.8179 12.4937 48.742L12.5859 48.6678L12.5875 48.5496C12.6341 45.4575 13.4995 42.3641 14.8363 39.4983L15.1096 38.9282C19.902 29.2131 29.4092 21.4487 39.8312 18.2276L39.9514 18.1899L39.9932 18.0702C41.4826 13.764 44.7451 10.2985 48.7333 7.65018C52.4714 5.16803 56.8328 3.4137 60.927 2.36396L61.7425 2.16287C71.2986 -0.0884721 81.5327 0.691052 90.7901 4.02828L91.6823 4.35964L91.683 4.359C96.1775 6.05357 100.422 8.35286 104.301 11.1913L105.071 11.7665C106.873 13.1406 108.581 14.6326 110.185 16.2329L110.865 16.9252C111.068 17.1386 111.265 17.3432 111.451 17.5553L112.056 18.2468L111.885 17.3433C111.737 16.569 111.594 15.7935 111.454 15.017L111.044 12.683C110.932 12.0244 111.324 11.5156 111.842 11.3229C112.321 11.1445 112.876 11.2481 113.204 11.77L113.266 11.8793L113.266 11.88C116.204 17.5989 118.126 23.7768 118.95 30.1356L119.099 31.41L119.099 31.4114L119.114 31.6428C119.115 32.1342 118.931 32.5554 118.535 32.8022L118.44 32.8554L118.439 32.8561C118.21 32.9737 117.909 33.0178 117.618 32.9716C117.363 32.9313 117.137 32.8256 116.979 32.6641L116.916 32.592C114.847 29.9105 112.42 27.5267 109.704 25.5084L109.156 25.1093L109.155 25.1086C107.647 24.0406 106.063 23.0859 104.415 22.2518L104.415 22.2532C103.615 21.8468 102.795 21.4909 101.982 21.1411C101.37 20.878 100.763 20.6175 100.166 20.3385L99.571 20.0519C99.3188 19.9271 99.1522 19.6875 99.0776 19.3962C99.0119 19.1395 99.0224 18.8603 99.0999 18.6253L99.1375 18.5275L99.1376 18.5261C99.3656 17.993 99.8966 17.7748 100.486 17.8601L100.605 17.8812C102.255 18.2233 103.823 18.9462 105.352 19.7301L106.006 20.0691C107.417 20.8111 108.781 21.6401 110.089 22.552L110.646 22.9482L110.647 22.949C111.413 23.5013 112.157 24.0794 112.879 24.6837L113.435 25.1498L113.284 24.4408L113.209 24.0849L113.198 24.035L113.169 23.9929C112.272 22.7182 111.242 21.494 110.19 20.3295L109.133 19.1852C103.191 12.8465 95.5128 8.30373 87.2172 5.81477L86.4126 5.5806C78.0785 3.22438 69.1677 2.93774 60.7979 5.14645L59.9893 5.36877C53.7317 7.14938 46.4836 11.0019 43.247 16.9005L42.9909 17.3686L43.5147 17.2658C48.8967 16.2118 54.9003 16.9298 58.6155 21.2903L58.9028 21.6423C61.6855 25.1966 61.8307 29.9878 58.7485 33.287L58.4293 33.6118C55.5933 36.3611 51.0141 37.5251 47.2218 36.2985L46.8572 36.1725C42.1849 34.4473 39.6241 29.6243 39.1952 24.8304L39.1603 24.3665C39.1028 23.4423 39.1212 22.5151 39.2161 21.595L39.2817 20.9627L38.8202 21.3666C33.9947 23.1805 29.5599 25.8837 25.7435 29.3346L24.986 30.0365C21.3533 33.4904 18.0847 37.7459 16.3143 42.5172L16.1472 42.9801C15.7646 44.0772 15.4828 45.2079 15.3058 46.3574L15.2279 46.8616L15.6742 46.6138C17.8754 45.3919 20.2643 44.5893 22.801 44.4929L23.3103 44.4832C25.6973 44.4833 28.2116 45.3538 30.1998 46.8539C32.0628 48.2595 33.45 50.2063 33.8533 52.4889L33.9202 52.9494L33.9209 52.9501C34.4522 57.5146 30.8643 61.362 26.561 62.3893L26.1424 62.4805C21.0429 63.4707 16.322 60.1179 14.1157 55.5878L13.9098 55.1464C13.463 54.1388 13.1294 53.0851 12.9139 52.0053L12.8293 51.5824L12.5038 51.8659C10.1515 53.92 8.11234 56.3062 6.44955 58.949L6.1221 59.4809C3.62129 63.632 2.31816 68.5097 3.24509 73.3645L3.34187 73.834C4.33353 78.3168 7.19282 82.3583 11.6201 83.9451L12.0532 84.0915C16.0901 85.3664 20.9603 84.4815 23.7381 81.1259L24.0011 80.7932C24.1731 80.5655 24.4396 80.5547 24.6426 80.6795C24.7432 80.7414 24.812 80.8284 24.8384 80.9195C24.863 81.0041 24.8578 81.1143 24.7723 81.2473C23.615 83.0169 21.9514 84.3903 20.0016 85.1929L19.6087 85.346L19.6059 85.3472C17.4384 86.1629 15.092 86.3848 12.8069 85.995L12.3516 85.9094C9.9241 85.4066 7.6833 84.2257 5.89014 82.5049L5.89005 82.5062ZM41.7455 25.9635C42.3831 29.681 44.8223 33.5943 48.8597 34.2746L49.2553 34.3307C52.4212 34.6881 55.9992 33.3448 57.731 30.5971L57.8929 30.3269C59.002 28.379 58.7306 26.3002 57.7584 24.5281C56.8497 22.8716 55.3205 21.4623 53.6849 20.6299L53.3563 20.471C49.834 18.8572 45.7296 19.285 42.0466 20.3052L41.9028 20.3454L41.8695 20.4913C41.4635 22.2868 41.4215 24.1477 41.7461 25.9642L41.7455 25.9635ZM17.6368 56.5668C18.8914 58.1545 20.6079 59.5021 22.6315 59.9858L23.0404 60.0705C24.8263 60.3857 26.7063 59.923 28.2327 59.0146L28.533 58.827L28.5338 58.8264C29.8567 57.959 30.992 56.6084 31.3582 55.0087L31.4212 54.6862L31.4213 54.6849C31.7187 52.8142 30.9143 51.0518 29.6883 49.7362L29.4376 49.4779C25.9401 46.0543 20.8773 46.6212 16.9912 48.725C16.4015 49.0421 15.8224 49.3899 15.257 49.7626L15.1347 49.8437L15.1456 49.9912C15.318 52.1877 15.9995 54.327 17.3569 56.1966L17.6368 56.5668Z" fill="white" stroke="#0E0806" stroke-width="0.5"/>
</svg>
