<svg width="75" height="69" viewBox="0 0 75 69" fill="none" xmlns="http://www.w3.org/2000/svg">
<path d="M16.8329 2.87236C17.6955 2.82348 18.5613 2.79193 19.4256 2.77617C20.3691 2.75882 21.3174 2.89127 22.1673 2.42459C22.9919 1.97209 22.8666 0.77859 22.1166 0.340289C21.3427 -0.109052 20.3802 0.0107756 19.5112 0.0249662C18.5947 0.0365246 17.6791 0.0654399 16.7647 0.111682C14.9871 0.201556 13.2079 0.349757 11.4446 0.584673C7.89279 1.06488 4.38108 1.80261 0.937498 2.79195C0.00508694 3.05998 -0.342165 4.34966 0.407888 4.99922C2.1522 6.52698 3.89648 8.06103 5.66141 9.56198L8.25727 11.7693C8.66639 12.1161 9.08342 12.5796 9.55439 12.8429C9.82554 13.0006 10.0935 12.9675 10.3631 13.0747C10.5693 13.1784 10.7648 13.3019 10.9467 13.4436C11.6206 13.8851 12.155 12.9218 11.7157 12.3999L11.3399 11.9521C11.1813 11.0062 10.2013 10.3755 9.53692 9.76221L7.15832 7.55493C7.0394 7.44299 6.91887 7.33419 6.79995 7.22383C7.29152 7.26639 7.78311 7.30741 8.2731 7.36732C9.71189 7.54391 11.139 7.78352 12.5546 8.08624C15.3349 8.67306 18.0596 9.4954 20.6989 10.5442C26.0535 12.6858 31.0237 15.676 35.4161 19.3985C39.814 23.11 43.5617 27.5214 46.5067 32.453C47.2821 33.7616 48.0179 35.1223 48.6887 36.5254C40.936 37.7442 33.8129 42.5702 31.1267 50.2815C29.9881 53.5562 30.0167 57.1808 31.4438 60.3593C32.787 63.3439 35.2892 65.7829 38.5194 66.6295C44.5087 68.2062 50.9975 64.0928 53.4252 58.7086C56.2938 52.3311 55.0031 45.0503 52.5959 38.7043C54.3917 38.6814 56.1834 38.8827 57.9288 39.3035C63.2854 40.6026 67.635 44.109 70.3276 48.8578C72.9694 53.5152 73.8907 59.1958 72.657 64.4176C72.3385 65.7305 71.937 67.0222 71.4551 68.285C71.2093 68.9409 72.2305 69.2751 72.5651 68.7186C75.578 63.7159 75.5542 57.072 73.8035 51.6421C71.9752 45.9663 68.0219 41.0125 62.5686 38.4142C59.1405 36.811 55.3701 36.0651 51.5858 36.2416C49.1978 30.8487 45.9234 25.8886 41.897 21.5648C33.3768 12.3668 21.5584 5.94362 9.0422 4.32443C8.33496 4.23298 7.62615 4.15468 6.91574 4.08951C8.53953 3.77419 10.1749 3.51612 11.822 3.31536C13.4838 3.12617 15.1552 2.9638 16.8329 2.87236ZM52.2915 49.963C52.3977 53.1384 51.8332 56.4398 50.0572 59.1359C48.6058 61.3105 46.4655 62.9408 43.9759 63.768C41.5402 64.5563 38.8508 64.3797 36.7433 62.8362C34.5011 61.1933 33.1992 58.4043 33.0549 55.6751C32.7378 49.5973 37.1937 44.2068 42.2839 41.3925C44.6004 40.1223 47.1321 39.2865 49.7527 38.9266C51.1973 42.4662 52.1662 46.2059 52.2915 49.963Z" fill="white"/>
</svg>
