<svg width="100" height="67" viewBox="0 0 100 67" fill="none" xmlns="http://www.w3.org/2000/svg">
<path d="M34.7184 55.162C35.1403 58.6782 36.9883 61.7601 39.8438 63.8546C42.4376 65.7541 45.923 66.7037 49.0348 65.5898C55.4336 63.288 56.2446 55.2015 54.5191 49.5674C52.7935 43.9334 49.0517 39.1082 44.2959 35.6794C47.656 31.3304 51.6083 27.4694 56.0382 24.208C61.2659 20.353 67.0747 17.3508 73.2467 15.3141C78.9951 13.4006 85.0024 12.3756 91.0597 12.2747C90.8601 12.3497 90.6589 12.4227 90.4589 12.5015C89.2079 12.9886 87.9831 13.5398 86.7892 14.1531C85.5464 14.7917 84.3221 15.4488 83.2672 16.3708C82.4262 17.1031 83.4126 18.3518 84.3632 17.906C85.5439 17.352 86.633 16.6345 87.7866 16.0245C88.9394 15.4148 90.1221 14.8629 91.3302 14.3709C93.2338 13.6011 95.1965 12.9854 97.199 12.53L97.3007 12.5393C97.4222 12.5556 97.5459 12.5477 97.6644 12.5161C97.783 12.4844 97.8941 12.4296 97.9912 12.3549C98.2545 12.3028 98.5178 12.2507 98.7811 12.1987C99.4867 12.0591 99.8092 11.0979 99.2846 10.589C97.5128 8.87031 95.7238 7.17304 93.9177 5.49715L91.2889 3.06565C90.3831 2.22455 89.5029 1.33176 88.5085 0.590465C87.9928 0.201365 87.4993 0.952123 87.837 1.39483C88.5571 2.33772 89.4308 3.16673 90.2474 4.03037L92.788 6.70766C93.9626 7.9486 95.1472 9.17366 96.3418 10.3828C89.7431 9.88839 83.1063 10.4907 76.7028 12.1653C69.9726 13.9167 63.5719 16.748 57.7519 20.5481C51.939 24.3249 46.8054 29.0504 42.5668 34.526C36.9989 31.0847 30.2793 29.4341 23.7505 30.3558C17.2575 31.2717 11.3756 34.8905 7.20495 39.8786C3.0553 44.8355 0.296617 51.2987 0.47668 57.8228C0.519192 59.3959 0.709179 60.9613 1.04414 62.4987C1.16793 63.0623 1.98703 62.861 1.91157 62.305C1.08281 56.2456 2.62498 49.8561 5.76817 44.6329C8.88708 39.4489 13.7207 35.1277 19.4935 33.1253C25.324 31.1029 31.6976 31.5648 37.3588 33.8889C38.7852 34.4745 40.1606 35.1765 41.4708 35.9877C37.4473 41.5078 33.8886 48.225 34.7184 55.162ZM50.8126 45.731C52.2082 48.2947 53.1973 51.1523 53.3267 54.0807C53.4384 56.708 52.9788 59.6054 51.2209 61.6768C49.3486 63.8801 46.4504 64.4791 43.7635 63.5668C40.9415 62.6074 38.5992 60.2912 37.4774 57.5665C36.1798 54.4076 36.6504 50.6682 37.6699 47.5053C38.745 44.1682 40.5043 41.0947 42.4729 38.2069C42.713 37.8549 42.9571 37.5063 43.2051 37.1609C46.3215 39.4285 48.9716 42.3481 50.8126 45.731Z" fill="white"/>
</svg>
