<svg width="45" height="50" viewBox="0 0 45 50" fill="none" xmlns="http://www.w3.org/2000/svg">
<path fill-rule="evenodd" clip-rule="evenodd" d="M17.7862 10.0095C17.6539 9.20189 17.5542 8.40344 17.4898 7.6049C17.3927 6.40708 17.4527 5.20011 17.4183 4.0023C17.4033 3.49414 17.3442 2.1693 17.368 1.97874C17.5842 0.318132 18.8874 0.0640196 19.2685 0.0186478C19.4529 -0.00857519 21.3464 -0.226262 21.7549 1.93343C22.2561 4.57407 22.4166 7.23281 22.2393 9.83715C22.6531 12.0513 23.3607 14.2563 24.2951 16.2527C28.0132 24.1927 35.0982 24.9641 42.7743 24.8915C43.9549 24.8733 44.9352 25.8261 44.9969 27.033C45.0587 28.249 44.1799 29.3016 43.0047 29.4105C38.714 29.837 31.1013 33.376 28.4693 37.0602C27.9188 37.8315 27.5985 39.6918 27.175 41.5157C26.5838 44.0475 25.8806 46.552 25.0927 47.6046C24.9745 47.7679 23.5372 49.4376 23.1084 49.6826C22.0778 50.2634 21.2529 49.9276 20.7844 49.6191C20.3159 49.3105 19.7856 48.7025 19.5738 47.6953C19.3524 46.6427 19.5394 44.4829 19.505 44.0201C19.3797 42.3414 19.0533 39.0474 18.3871 36.2162C18.028 34.6917 17.6451 33.2852 17.0116 32.5865C14.6664 30.0003 10.9165 30.3815 7.75872 30.808C7.39609 30.8533 7.03346 30.9078 6.67171 30.9532C5.38618 31.3434 4.0212 31.6337 2.57861 31.8061C0.400168 32.0693 0.0419713 30.0094 0.0225604 29.8733C-0.0180262 29.5738 -0.168918 28.0312 1.47307 27.4142C1.65218 27.3506 2.97391 27.0512 3.48301 26.9332C4.19239 26.7698 4.9097 26.6429 5.62967 26.5249C13.0667 24.1474 17.106 17.4686 17.7862 10.0095ZM20.3388 18.2582C23.1463 24.2291 27.407 27.1147 32.4574 28.4214H32.4566C29.3031 30.1183 26.4347 32.2417 24.9145 34.3742C24.3374 35.1818 23.8081 36.8061 23.3307 38.63C23.0722 36.9331 22.7228 35.1273 22.2614 33.5846C21.7364 31.8242 21.0296 30.3634 20.2408 29.4922C18.718 27.8135 16.8069 26.8788 14.7519 26.416C17.2118 24.1746 19.0771 21.3797 20.3388 18.2582Z" fill="white"/>
</svg>
