<svg width="100" height="101" viewBox="0 0 100 101" fill="none" xmlns="http://www.w3.org/2000/svg">
<mask id="mask0_44_1660" style="mask-type:luminance" maskUnits="userSpaceOnUse" x="0" y="0" width="100" height="101">
<path d="M0 0.19873H100V100.199H0V0.19873Z" fill="white"/>
</mask>
<g mask="url(#mask0_44_1660)">
<path d="M37.9287 58.4019L44.0893 42.2269C44.2152 41.9188 44.6508 41.9185 44.7773 42.2261L50.8818 58.4019" stroke="white" stroke-width="3" stroke-miterlimit="10" stroke-linecap="round" stroke-linejoin="round"/>
<path d="M39.8496 54.3735H48.9912" stroke="white" stroke-width="3" stroke-miterlimit="10" stroke-linecap="round" stroke-linejoin="round"/>
<path d="M57.4727 41.9955V58.3881C57.6539 58.4191 63.2176 58.3881 63.2176 58.3881" stroke="white" stroke-width="3" stroke-miterlimit="10" stroke-linecap="round" stroke-linejoin="round"/>
<path d="M76.5441 42.0704H69.6943V58.3267H76.5441" stroke="white" stroke-width="3" stroke-miterlimit="10" stroke-linecap="round" stroke-linejoin="round"/>
<path d="M76.0391 50.1987H69.6943" stroke="white" stroke-width="3" stroke-miterlimit="10" stroke-linecap="round" stroke-linejoin="round"/>
<path d="M31.81 43.6821C31.81 43.6821 28.866 41.2075 25.3945 42.2534C22.2068 43.2138 21.7609 46.8892 24.0672 48.3927C24.0672 48.3927 26.3301 49.4022 28.84 50.328C34.882 52.5567 32.2793 58.4019 27.4154 58.4019C24.9797 58.4019 22.9355 57.3353 21.6982 55.97" stroke="white" stroke-width="3" stroke-miterlimit="10" stroke-linecap="round" stroke-linejoin="round"/>
<path d="M2.92969 50.1987C2.92969 46.3356 11.1494 43.6038 12.1016 40.0409C13.0869 36.3544 7.36367 29.8853 9.23105 26.6575C11.1254 23.3835 19.6064 25.1194 22.2637 22.4622C24.9207 19.8052 23.1848 11.3241 26.459 9.42979C29.6865 7.5624 36.1559 13.2858 39.8422 12.3005C43.4051 11.3481 46.1369 3.12842 50 3.12842C53.8631 3.12842 56.5949 11.3481 60.1578 12.3005C63.8443 13.2858 70.3135 7.5624 73.5412 9.42998C76.8152 11.3241 75.0793 19.8052 77.7365 22.4622C80.3936 25.1194 88.8746 23.3835 90.7689 26.6577C92.6363 29.8853 86.9129 36.3544 87.8982 40.0409C88.8506 43.6038 97.0703 46.3356 97.0703 50.1987C97.0703 54.0618 88.8506 56.7937 87.8982 60.3565C86.9129 64.0431 92.6363 70.5122 90.7687 73.7399C88.8746 77.014 80.3936 75.278 77.7365 77.9353C75.0793 80.5923 76.8152 89.0733 73.541 90.9677C70.3135 92.8351 63.8443 87.1116 60.1578 88.097C56.5949 89.0493 53.8631 97.269 50 97.269C46.1369 97.269 43.4051 89.0493 39.8424 88.097C36.1559 87.1116 29.6865 92.8351 26.4588 90.9675C23.1848 89.0733 24.9207 80.5923 22.2635 77.9353C19.6064 75.278 11.1254 77.014 9.23105 73.7397C7.36367 70.5122 13.0871 64.0431 12.1018 60.3565C11.1494 56.7937 2.92969 54.0618 2.92969 50.1987Z" stroke="white" stroke-width="3" stroke-miterlimit="10" stroke-linecap="round" stroke-linejoin="round"/>
</g>
</svg>
