<svg width="100" height="101" viewBox="0 0 100 101" fill="none" xmlns="http://www.w3.org/2000/svg">
<path d="M31.9854 77.7178C32.788 76.531 34.5097 76.4948 35.3691 77.6064L35.4502 77.7178V77.7188C36.4527 79.1993 38.0748 81.7292 39.4424 84.3408C40.1263 85.6468 40.7388 86.9593 41.1787 88.1611C41.6238 89.3773 41.868 90.4169 41.8682 91.1982L41.8574 91.6172C41.6388 95.9167 38.071 99.3485 33.7178 99.3486C29.224 99.3486 25.5664 95.6915 25.5664 91.1982C25.5665 90.4131 25.8101 89.3733 26.2539 88.1592C26.6926 86.959 27.3043 85.6501 27.9873 84.3467C29.1823 82.066 30.5733 79.8459 31.5791 78.3252L31.9854 77.7178ZM37.6855 91.1855C37.6789 90.8063 37.5542 90.3478 37.3975 89.8955C37.2325 89.4194 36.9999 88.8609 36.7168 88.249C36.1498 87.0234 35.3602 85.5377 34.4512 83.9834L33.7178 82.7295L32.9834 83.9834C32.0744 85.5375 31.2858 87.0234 30.7188 88.249C30.4357 88.8609 30.2021 89.4193 30.0371 89.8955C29.8804 90.3479 29.7556 90.8063 29.749 91.1855V91.2002C29.749 93.3876 31.5295 95.166 33.7178 95.166C35.9057 95.1658 37.6845 93.388 37.6855 91.2002V91.1855Z" fill="white" stroke="#0B0706" stroke-width="1.7"/>
<path d="M9.00293 57.8813C9.79153 57.8814 10.8378 58.1273 12.0586 58.5747C13.2651 59.0169 14.5798 59.6331 15.8867 60.3188C18.1737 61.5188 20.392 62.9099 21.8887 63.9009L22.4834 64.2993H22.4844C23.6715 65.1015 23.7076 66.8247 22.5957 67.6841L22.4844 67.7642L22.4834 67.7651C21.0063 68.7657 18.476 70.3874 15.8633 71.7554C14.5567 72.4395 13.2436 73.0525 12.041 73.4927C10.8241 73.9381 9.78424 74.1821 9.00293 74.1821C4.50938 74.1821 0.851562 70.525 0.851562 66.0317C0.851772 61.5385 4.50952 57.8813 9.00293 57.8813ZM9.00098 62.064C6.81376 62.0641 5.03526 63.8435 5.03516 66.0317C5.03516 68.2198 6.81315 69.9985 9.00098 69.9995H9.0166C9.39604 69.9927 9.8547 69.8682 10.3076 69.7114C10.784 69.5465 11.3423 69.3137 11.9541 69.0308C13.1798 68.4639 14.6653 67.6749 16.2188 66.7661L17.4736 66.0327L16.2188 65.2983C14.6642 64.3892 13.1779 63.5998 11.9521 63.0327C11.3402 62.7496 10.7818 62.517 10.3057 62.3521C9.85321 62.1953 9.39492 62.0706 9.01562 62.064H9.00098Z" fill="white" stroke="#0B0706" stroke-width="1.7"/>
<path d="M17.3096 80.4404C18.7181 80.169 19.9612 81.3619 19.7822 82.7559L19.7607 82.8906C19.4135 84.6797 18.773 87.6135 17.8965 90.418C17.4581 91.8205 16.9654 93.175 16.4277 94.3311C15.9518 95.3543 15.4615 96.1753 14.9746 96.7363L14.7666 96.9609C11.6882 100.039 6.73827 100.136 3.54297 97.25L3.23926 96.9609C0.152918 93.8748 0.0569006 88.9403 2.9502 85.7393L3.23926 85.4355C3.79442 84.8805 4.7026 84.3165 5.87598 83.7715C7.03563 83.2328 8.39457 82.7388 9.7998 82.2998C12.6098 81.4221 15.5437 80.7828 17.3105 80.4414L17.3096 80.4404ZM13.5859 85.5771C11.844 86.0336 10.2354 86.5265 8.96777 86.9922C8.33493 87.2247 7.77561 87.4548 7.32227 87.6748C6.89176 87.8837 6.4799 88.1195 6.20703 88.3828L6.19629 88.3936C4.69646 89.8931 4.64677 92.296 6.05566 93.8555L6.19727 94.0039C7.74468 95.5507 10.2597 95.5518 11.8076 94.0049L11.8184 93.9941C12.0817 93.7212 12.3173 93.3087 12.5264 92.8779C12.7464 92.4246 12.9765 91.8652 13.209 91.2324C13.6747 89.9649 14.1677 88.3568 14.624 86.6152L14.9922 85.209L13.5859 85.5771Z" fill="white" stroke="#0B0706" stroke-width="1.7"/>
<path d="M83.3652 3.83154C86.3502 0.471759 92.5371 -0.179946 96.46 3.74268V3.7417C100.047 7.33081 100.047 13.1693 96.4619 16.7554L96.375 16.8374L96.3721 16.8403L89.2979 23.1362L88.625 23.7349L89.2617 24.3726L90.0547 25.1646C91.954 27.0646 92.0133 30.1213 90.2324 32.0933L90.0547 32.2808L85.5908 36.7456C84.1796 38.157 82.1651 38.5423 80.4248 37.9585L79.9258 37.7905L79.5537 38.1636L56.2051 61.52C54.7992 62.9279 52.8843 63.707 50.9014 63.6899L50.5039 63.6763C49.1629 63.5931 47.8356 64.1065 46.8018 65.0454L46.5996 65.2388L44.5605 67.2769C41.4906 70.347 36.5313 70.5336 33.3281 67.8003L33.0244 67.5269C29.7574 64.4336 29.6013 59.3488 32.5654 56.0659L32.8623 55.7544L32.8633 55.7534L34.9844 53.6265L34.9854 53.6274C35.9817 52.6309 36.5655 51.3234 36.5605 49.9858L36.5518 49.7183C36.4271 47.7297 37.1084 45.7778 38.4307 44.3032L38.7031 44.0151C38.9558 43.7623 44.7828 37.9319 50.5518 32.1597C53.4369 29.2729 56.3083 26.4014 58.46 24.2485C59.5356 23.1723 60.4314 22.2755 61.0596 21.647C61.3737 21.3327 61.6209 21.0848 61.79 20.9155C61.8746 20.831 61.9402 20.7664 61.9844 20.7222C62.0063 20.7002 62.0227 20.6829 62.0342 20.6714C62.0399 20.6656 62.0448 20.6608 62.0479 20.6577C62.0493 20.6563 62.051 20.6556 62.0518 20.6548L62.0527 20.6538V20.6528L62.4248 20.2808L62.2578 19.7817C61.7061 18.134 62.0269 16.26 63.2158 14.8853L63.4658 14.6177L67.9297 10.1519C68.8813 9.20009 70.1425 8.67729 71.4883 8.67725V7.82275C71.5708 7.81544 71.8761 7.81003 72.3125 7.87549C72.3078 7.95696 72.2928 8.04035 72.2617 8.12354C72.1775 8.34857 72.0249 8.46966 71.9697 8.51025C71.9012 8.56065 71.8401 8.58955 71.8096 8.60303C71.7471 8.63056 71.6953 8.64446 71.6777 8.64893C71.6539 8.65499 71.634 8.65864 71.623 8.66064C71.6011 8.66464 71.5845 8.66673 71.5781 8.66748C71.5671 8.66878 71.5601 8.66933 71.5586 8.66943C71.5684 8.66881 71.6211 8.66622 71.7119 8.66943C71.8893 8.67572 72.1813 8.70197 72.5391 8.78174C73.2111 8.93155 74.0894 9.26575 74.8896 10.0005L75.0479 10.1528L76.4746 11.5796L77.0732 10.9058L83.3652 3.83154ZM64.5742 24.0454C63.2353 25.3853 61.6148 27.0068 59.8613 28.7612L59.2607 29.3628L63.6768 33.7788C64.4426 34.5444 64.4907 35.7564 63.8203 36.5776L63.6768 36.7358C62.9109 37.5016 61.6994 37.5498 60.8779 36.8794L60.7197 36.7358L56.9053 32.9224L56.3037 32.3208L55.7031 32.9224L50.9541 37.6743L50.3535 38.2749L50.9541 38.8765L54.7666 42.687C55.5323 43.4526 55.5803 44.6643 54.9102 45.4858L54.7666 45.644C54.0016 46.4093 52.7899 46.4586 51.9678 45.7886L51.8096 45.645L47.998 41.8345L47.3965 41.2339L46.7959 41.8345L41.6621 46.9712C41.0432 47.5911 40.7106 48.4119 40.7197 49.2817L40.7256 49.4556C40.878 51.88 40.0048 54.3182 38.2969 56.2114L37.9443 56.5825V56.5835L35.8213 58.7104C34.2603 60.27 34.2486 62.7651 35.75 64.3403L35.8994 64.4897C37.443 65.9508 39.8868 65.8832 41.4541 64.4614L41.6025 64.3198L43.6406 62.2827V62.2817C45.5755 60.3445 48.1789 59.3416 50.7646 59.5005V59.5015C51.701 59.5621 52.5871 59.224 53.2461 58.564L53.2451 58.563L76.1631 35.6382L76.7637 35.0366L76.1631 34.436L65.7773 24.0454L65.1758 23.4438L64.5742 24.0454ZM70.8867 13.1089L66.4238 17.5737L65.8223 18.1763L66.4238 18.7769H66.4248L66.4258 18.7778C66.4264 18.7785 66.4267 18.7798 66.4277 18.7808C66.4301 18.7831 66.4334 18.7865 66.4375 18.7905C66.4458 18.7989 66.4584 18.8104 66.4736 18.8257C66.5041 18.8562 66.5478 18.9008 66.6045 18.9575C66.7179 19.071 66.8824 19.2353 67.0898 19.4429C67.5048 19.8579 68.093 20.4467 68.7969 21.1509C70.2051 22.5596 72.0763 24.4306 73.9453 26.3003C77.6743 30.0308 81.397 33.7559 81.4297 33.7886L82.0312 34.3892L82.6328 33.7886L87.0957 29.3237L87.6973 28.7222L87.0957 28.1216L72.0898 13.1089L71.4883 12.5083L70.8867 13.1089ZM93.502 6.69873C91.5671 4.76405 88.4403 4.73532 86.4707 6.63721L86.4473 6.65967L86.4258 6.68311L79.9688 13.9438L79.4365 14.5425L80.0029 15.1089L85.0967 20.2046L85.6631 20.772L86.2627 20.2388L93.5186 13.7808L93.543 13.7593L93.5654 13.7358C95.4007 11.8344 95.4376 8.83157 93.6777 6.88428L93.502 6.69971V6.69873Z" fill="white" stroke="#0B0706" stroke-width="1.7"/>
</svg>
