<svg width="109" height="101" viewBox="0 0 109 101" fill="none" xmlns="http://www.w3.org/2000/svg">
<mask id="path-1-inside-1_44_1653" fill="white">
<path d="M107.297 56.0724L104.5 47.6821C102.341 41.2053 96.3034 36.8537 89.4762 36.8537H76.4366V21.0174C76.4366 19.2682 75.0185 17.8501 73.2694 17.8501H62.1031C62.5725 17.0511 62.9487 16.1949 63.215 15.2909C64.6183 10.5261 62.9823 5.79295 58.9451 2.93862C54.6036 -0.130673 48.7773 -0.0875984 44.447 3.04609C41.9255 4.87086 39.8393 7.1477 38.2787 9.70452C36.3095 6.38587 33.4754 3.57777 29.986 1.63497C26.2059 -0.469571 21.6172 -0.248073 18.0103 2.21268C14.3355 4.7201 12.2102 9.00034 12.8042 13.383C12.8059 13.3948 12.8076 13.4066 12.8093 13.4185C13.0443 15.0167 13.8118 16.5114 14.6199 17.8499H3.16726C1.41809 17.8499 0 19.268 0 21.0171V40.0207C0 41.7699 1.41809 43.188 3.16726 43.188H6.33453V68.5261H3.16726C1.41809 68.5261 0 69.9442 0 71.6934V84.3624C0 86.1116 1.41809 87.5297 3.16726 87.5297H12.6691C12.6691 94.5154 18.5635 100.199 25.5493 100.199C32.535 100.199 38.2183 94.5154 38.2183 87.5297C39.5538 87.5297 68.7685 87.5297 70.1021 87.5297C70.1021 94.5154 75.7854 100.199 82.7711 100.199C89.7569 100.199 95.4402 94.5154 95.4402 87.5297H98.6075C103.847 87.5297 108.109 83.2672 108.109 78.0279V61.0803C108.109 59.3748 107.836 57.6898 107.297 56.0724ZM82.7711 43.1882H89.476C93.5724 43.1882 97.1951 45.7991 98.4903 49.6853L101.287 58.0758C101.611 59.0463 101.775 60.057 101.775 61.0803V62.1916H87.2503L91.1965 58.2454C92.4334 57.0084 92.4334 55.0031 91.1965 53.7662C89.9598 52.5293 87.9543 52.5293 86.7173 53.7662L82.7711 57.7126V43.1882ZM48.1608 8.17811C50.626 6.39431 53.5168 6.85905 55.2882 8.11139C56.1438 8.71613 58.0365 10.4522 57.1383 13.5017C56.3992 16.011 53.6496 17.8351 50.5909 17.8505C50.1452 17.8505 49.8652 17.8505 49.6944 17.8505C49.5233 17.8505 49.4615 17.8505 49.4583 17.8505C48.8753 17.8505 47.0081 17.8505 41.7287 17.8505C42.5541 14.0635 44.8307 10.5878 48.1608 8.17811ZM44.764 24.1637V36.8539H31.8838V24.1637H44.764ZM44.764 43.1882V68.5263H31.8838V43.1882H44.764ZM21.5805 7.44542C23.2177 6.32822 25.2082 6.22518 26.9046 7.16966C30.9885 9.44333 33.8154 13.3739 34.7307 17.8503C29.8527 17.8503 29.5898 17.8503 26.0955 17.8503C22.726 17.8501 19.7407 15.5078 19.2899 12.5145C19.0236 10.5004 19.879 8.60654 21.5805 7.44542ZM6.33453 24.1846H25.5366H25.5493V36.8537H9.50179H6.33453V24.1846ZM25.5493 43.1882V68.5263H12.6691V43.1882H25.5493ZM25.5493 93.8644C22.0564 93.8644 19.2147 91.0016 19.2147 87.5088H31.8838C31.8838 91.0016 29.0421 93.8644 25.5493 93.8644ZM63.7676 81.1954H6.33453V74.8608C7.6861 74.8608 47.8107 74.8608 63.7676 74.8608V81.1954ZM63.7676 68.5263H51.0985V43.1882H63.7676V68.5263ZM66.9348 36.8537H51.0985V24.1846H70.1021V36.8537H66.9348ZM82.7711 93.8644C79.2783 93.8644 76.4366 91.0016 76.4366 87.5088H89.1057C89.1057 91.0016 86.264 93.8644 82.7711 93.8644ZM101.775 78.0279C101.775 79.7745 100.354 81.1954 98.6075 81.1954H70.1021C70.1021 80.6985 70.1021 43.6939 70.1021 43.1882H73.2694H76.4366V59.0245C76.4366 61.5841 77.4558 63.9089 79.1073 65.619C79.1446 65.6604 79.1797 65.7032 79.2196 65.7431C79.2597 65.783 79.3026 65.8183 79.3442 65.8557C81.0543 67.5071 83.3791 68.5261 85.9384 68.5261H101.775V78.0279Z"/>
</mask>
<path d="M107.297 56.0724L104.5 47.6821C102.341 41.2053 96.3034 36.8537 89.4762 36.8537H76.4366V21.0174C76.4366 19.2682 75.0185 17.8501 73.2694 17.8501H62.1031C62.5725 17.0511 62.9487 16.1949 63.215 15.2909C64.6183 10.5261 62.9823 5.79295 58.9451 2.93862C54.6036 -0.130673 48.7773 -0.0875984 44.447 3.04609C41.9255 4.87086 39.8393 7.1477 38.2787 9.70452C36.3095 6.38587 33.4754 3.57777 29.986 1.63497C26.2059 -0.469571 21.6172 -0.248073 18.0103 2.21268C14.3355 4.7201 12.2102 9.00034 12.8042 13.383C12.8059 13.3948 12.8076 13.4066 12.8093 13.4185C13.0443 15.0167 13.8118 16.5114 14.6199 17.8499H3.16726C1.41809 17.8499 0 19.268 0 21.0171V40.0207C0 41.7699 1.41809 43.188 3.16726 43.188H6.33453V68.5261H3.16726C1.41809 68.5261 0 69.9442 0 71.6934V84.3624C0 86.1116 1.41809 87.5297 3.16726 87.5297H12.6691C12.6691 94.5154 18.5635 100.199 25.5493 100.199C32.535 100.199 38.2183 94.5154 38.2183 87.5297C39.5538 87.5297 68.7685 87.5297 70.1021 87.5297C70.1021 94.5154 75.7854 100.199 82.7711 100.199C89.7569 100.199 95.4402 94.5154 95.4402 87.5297H98.6075C103.847 87.5297 108.109 83.2672 108.109 78.0279V61.0803C108.109 59.3748 107.836 57.6898 107.297 56.0724ZM82.7711 43.1882H89.476C93.5724 43.1882 97.1951 45.7991 98.4903 49.6853L101.287 58.0758C101.611 59.0463 101.775 60.057 101.775 61.0803V62.1916H87.2503L91.1965 58.2454C92.4334 57.0084 92.4334 55.0031 91.1965 53.7662C89.9598 52.5293 87.9543 52.5293 86.7173 53.7662L82.7711 57.7126V43.1882ZM48.1608 8.17811C50.626 6.39431 53.5168 6.85905 55.2882 8.11139C56.1438 8.71613 58.0365 10.4522 57.1383 13.5017C56.3992 16.011 53.6496 17.8351 50.5909 17.8505C50.1452 17.8505 49.8652 17.8505 49.6944 17.8505C49.5233 17.8505 49.4615 17.8505 49.4583 17.8505C48.8753 17.8505 47.0081 17.8505 41.7287 17.8505C42.5541 14.0635 44.8307 10.5878 48.1608 8.17811ZM44.764 24.1637V36.8539H31.8838V24.1637H44.764ZM44.764 43.1882V68.5263H31.8838V43.1882H44.764ZM21.5805 7.44542C23.2177 6.32822 25.2082 6.22518 26.9046 7.16966C30.9885 9.44333 33.8154 13.3739 34.7307 17.8503C29.8527 17.8503 29.5898 17.8503 26.0955 17.8503C22.726 17.8501 19.7407 15.5078 19.2899 12.5145C19.0236 10.5004 19.879 8.60654 21.5805 7.44542ZM6.33453 24.1846H25.5366H25.5493V36.8537H9.50179H6.33453V24.1846ZM25.5493 43.1882V68.5263H12.6691V43.1882H25.5493ZM25.5493 93.8644C22.0564 93.8644 19.2147 91.0016 19.2147 87.5088H31.8838C31.8838 91.0016 29.0421 93.8644 25.5493 93.8644ZM63.7676 81.1954H6.33453V74.8608C7.6861 74.8608 47.8107 74.8608 63.7676 74.8608V81.1954ZM63.7676 68.5263H51.0985V43.1882H63.7676V68.5263ZM66.9348 36.8537H51.0985V24.1846H70.1021V36.8537H66.9348ZM82.7711 93.8644C79.2783 93.8644 76.4366 91.0016 76.4366 87.5088H89.1057C89.1057 91.0016 86.264 93.8644 82.7711 93.8644ZM101.775 78.0279C101.775 79.7745 100.354 81.1954 98.6075 81.1954H70.1021C70.1021 80.6985 70.1021 43.6939 70.1021 43.1882H73.2694H76.4366V59.0245C76.4366 61.5841 77.4558 63.9089 79.1073 65.619C79.1446 65.6604 79.1797 65.7032 79.2196 65.7431C79.2597 65.783 79.3026 65.8183 79.3442 65.8557C81.0543 67.5071 83.3791 68.5261 85.9384 68.5261H101.775V78.0279Z" fill="white" stroke="#040304" stroke-width="3.4" mask="url(#path-1-inside-1_44_1653)"/>
</svg>
