<svg width="186" height="53" viewBox="0 0 186 53" fill="none" xmlns="http://www.w3.org/2000/svg">
<path d="M18.64 38C19.144 37.874 19.522 37.16 19.522 36.068C19.522 35.564 19.438 34.976 19.228 34.304L17.044 27.374H7.342C6.67 29.432 6.25 31.616 6.25 33.506C6.25 35.564 6.754 37.286 8.014 38H0.622C2.386 37.538 3.898 34.682 6.334 27.374L11.71 10.91C11.122 9.608 10.324 8.768 9.694 8.6H15.49L23.428 34.304C24.1 36.404 25.192 37.79 26.032 38H18.64ZM7.594 26.576H16.792L12.256 12.296L7.594 26.576ZM48.983 38H43.733V34.64C41.801 36.866 38.651 38.21 35.669 38.21C31.469 38.21 27.521 35.564 27.437 29.18V22.166C27.437 19.772 26.639 18.176 25.841 17.966L31.133 15.572V29.054C31.133 34.43 34.535 36.74 37.853 36.74C40.247 36.74 42.599 35.606 43.733 33.632V21.914C43.733 19.478 42.935 17.882 42.137 17.672L47.429 15.32V33.758C47.429 36.194 48.227 37.79 48.983 38ZM61.8068 15.32C66.0908 15.32 69.8288 17.42 69.8288 19.562C69.8708 19.898 69.7448 20.234 69.4928 20.486C69.2408 20.738 68.9048 20.864 68.5688 20.822C66.0488 20.822 64.1168 17.588 62.3108 15.74C59.1188 15.74 57.1448 18.638 57.1448 21.914V33.758C57.1448 36.194 57.9428 37.79 58.7408 38H51.8528C52.6508 37.79 53.4488 36.194 53.4488 33.758V21.914C53.4488 19.478 52.6508 17.882 51.8528 17.672L57.1448 15.32V17.042C58.4048 15.908 60.0848 15.278 61.8068 15.32ZM91.3272 31.322L91.7472 31.49C91.0332 34.136 87.2532 38.126 81.9192 38.126C67.5132 38.126 68.3532 15.32 81.4152 15.32C87.2952 15.32 90.5712 19.646 90.5712 25.61H74.2752C74.8632 30.818 78.3492 36.32 84.6072 36.32C87.6312 36.32 90.7392 33.464 91.3272 31.322ZM80.0292 16.412C75.8712 16.412 73.9812 20.486 74.2332 24.938H86.8332C86.6652 19.604 84.1872 16.412 80.0292 16.412ZM99.552 33.758C99.552 36.194 100.35 37.79 101.148 38H94.26C95.058 37.79 95.856 36.194 95.856 33.758V7.298C95.856 4.862 95.058 3.266 94.26 3.056L99.552 0.661998V33.758ZM107.387 13.346C106.085 13.346 104.993 12.296 104.993 10.994C104.993 9.65 106.085 8.6 107.387 8.6C108.689 8.6 109.739 9.65 109.739 10.994C109.739 12.296 108.689 13.346 107.387 13.346ZM109.235 33.758C109.235 36.194 110.033 37.79 110.831 38H103.943C104.741 37.79 105.539 36.194 105.539 33.758V21.914C105.539 19.478 104.741 17.882 103.943 17.672L109.235 15.32V33.758ZM137.099 50.264L131.849 52.658V34.514C130.085 36.614 127.145 38 123.743 38C109.883 38 110.849 15.152 123.743 15.152C126.893 15.152 130.127 16.538 131.849 18.596L134.999 15.32H135.545V46.022C135.545 48.458 136.343 50.054 137.099 50.264ZM126.851 36.236C128.657 36.236 131.219 34.85 131.849 33.758V28.382C131.849 21.956 128.153 16.286 122.357 16.286C112.823 16.286 115.133 36.236 126.851 36.236ZM162.35 38H157.1V34.64C155.168 36.866 152.018 38.21 149.036 38.21C144.836 38.21 140.888 35.564 140.804 29.18V22.166C140.804 19.772 140.006 18.176 139.208 17.966L144.5 15.572V29.054C144.5 34.43 147.902 36.74 151.22 36.74C153.614 36.74 155.966 35.606 157.1 33.632V21.914C157.1 19.478 156.302 17.882 155.504 17.672L160.796 15.32V33.758C160.796 36.194 161.594 37.79 162.35 38ZM185.212 31.322L185.632 31.49C184.918 34.136 181.138 38.126 175.804 38.126C161.398 38.126 162.238 15.32 175.3 15.32C181.18 15.32 184.456 19.646 184.456 25.61H168.16C168.748 30.818 172.234 36.32 178.492 36.32C181.516 36.32 184.624 33.464 185.212 31.322ZM173.914 16.412C169.756 16.412 167.866 20.486 168.118 24.938H180.718C180.55 19.604 178.072 16.412 173.914 16.412Z" fill="white"/>
</svg>
