<svg width="361" height="76" viewBox="0 0 361 76" fill="none" xmlns="http://www.w3.org/2000/svg">
<path d="M44.88 53.68C45.76 56.24 46.96 56.56 49.2 56.56C50.08 56.56 49.84 57.92 49.84 58H33.04C33.04 57.92 32.8 56.56 34.32 56.56C38.48 56.56 38.88 56.24 38 53.68L33.12 40.24H12.24L7.36 53.68C6.4 56.24 6.8 56.56 10.96 56.56C12.56 56.56 12.24 57.92 12.24 58H0.8C0.8 57.92 0.64 56.56 1.44 56.56C3.68 56.56 4.88 56.24 5.84 53.68L24.8 2H26.24L44.88 53.68ZM12.8 38.8H32.64L22.8 11.6L12.8 38.8ZM82.3819 24.64C82.3819 21.52 82.4619 20.48 77.4219 20.48C77.4219 20.32 77.3419 19.2 78.1419 19.04L87.0219 16.96C87.5019 16.88 88.1419 16.72 88.7819 16.72V51.36C88.7819 54.48 88.7019 55.52 93.7419 55.52C93.7419 55.68 93.8219 56.8 93.0219 56.96L84.1419 59.04C83.6619 59.12 83.0219 59.28 82.3819 59.28V52.16C79.4219 56.64 74.9419 59.28 69.9019 59.28C60.9419 59.28 55.1819 53.76 55.1819 46.64V24.64C55.1819 21.52 55.2619 20.48 50.2219 20.48C50.2219 20.32 50.1419 19.2 50.9419 19.04L59.8219 16.96C60.3019 16.88 60.9419 16.72 61.5819 16.72V47.68C61.5819 53.44 65.2619 57.44 70.4619 57.44C75.0219 57.44 79.7419 54.56 82.3819 49.44V24.64ZM123.433 16.72C126.313 16.72 130.713 17.36 134.793 21.04C133.833 22.72 132.073 24.48 129.513 24.48C124.153 24.48 125.593 19.2 121.273 19.2C118.233 19.2 114.073 21.44 111.513 26.56V53.44C111.513 56.16 112.313 56.56 115.513 56.56C116.713 56.56 116.473 57.92 116.473 58H100.153C100.153 57.92 99.9131 56.56 101.113 56.56C104.313 56.56 105.113 56.16 105.113 53.44V24.64C105.113 21.52 105.193 20.48 100.153 20.48C100.153 20.32 100.073 19.2 100.873 19.04L109.753 16.96C110.233 16.88 110.873 16.72 111.513 16.72V23.76C114.393 19.36 118.393 16.72 123.433 16.72ZM173.942 50.08C170.102 55.6 163.942 59.28 156.502 59.28C144.742 59.28 135.222 49.76 135.222 37.92C135.222 26.24 144.742 16.72 156.502 16.72C166.742 16.72 172.902 24 174.662 33.68L142.982 40.96C145.462 49.84 152.342 56.32 160.022 56.32C165.302 56.32 169.942 53.44 172.742 49.28L173.942 50.08ZM142.102 34C142.102 35.92 142.342 37.76 142.662 39.6L166.982 34C165.142 25.52 160.262 18.96 153.062 18.96C145.782 18.96 142.102 24 142.102 34ZM178.747 58C178.747 57.92 178.507 56.56 179.707 56.56C182.907 56.56 183.707 56.16 183.707 53.44V8.64C183.707 5.52 183.787 4.48 178.747 4.48C178.747 4.32 178.667 3.2 179.467 3.04L188.347 0.959995C188.827 0.879996 189.467 0.719998 190.107 0.719998V53.44C190.107 56.16 190.907 56.56 194.107 56.56C195.307 56.56 195.067 57.92 195.067 58H178.747ZM201.481 58C201.481 57.92 201.241 56.56 202.441 56.56C205.641 56.56 206.441 56.16 206.441 53.44V24.64C206.441 21.52 206.521 20.48 201.481 20.48C201.481 20.32 201.401 19.2 202.201 19.04L211.081 16.96C211.561 16.88 212.201 16.72 212.841 16.72V53.44C212.841 56.16 213.641 56.56 216.841 56.56C218.041 56.56 217.801 57.92 217.801 58H201.481ZM209.241 13.84C206.761 13.84 204.841 11.92 204.841 9.44C204.841 7.04 206.761 5.12 209.241 5.12C211.641 5.12 213.561 7.04 213.561 9.44C213.561 11.92 211.641 13.84 209.241 13.84ZM261.256 70.72C261.256 73.44 262.056 73.84 265.256 73.84C266.456 73.84 266.216 75.2 266.216 75.28H249.896C249.896 75.2 249.656 73.84 250.856 73.84C254.056 73.84 254.856 73.44 254.856 70.72V56.88C251.896 58.4 248.616 59.28 245.096 59.28C233.336 59.28 223.816 49.76 223.816 37.92C223.816 26.24 233.336 16.72 245.096 16.72C248.776 16.72 252.216 17.68 255.176 19.28L261.256 16.72V70.72ZM254.856 25.84C252.136 21.44 247.416 18.96 241.656 18.96C234.376 18.96 230.696 24 230.696 34C230.696 46.32 239.096 57.04 248.616 57.04C251.016 57.04 253.176 56.4 254.856 55.2V25.84ZM303.632 24.64C303.632 21.52 303.712 20.48 298.672 20.48C298.672 20.32 298.592 19.2 299.392 19.04L308.272 16.96C308.752 16.88 309.392 16.72 310.032 16.72V51.36C310.032 54.48 309.952 55.52 314.992 55.52C314.992 55.68 315.072 56.8 314.272 56.96L305.392 59.04C304.912 59.12 304.272 59.28 303.632 59.28V52.16C300.672 56.64 296.192 59.28 291.152 59.28C282.192 59.28 276.432 53.76 276.432 46.64V24.64C276.432 21.52 276.512 20.48 271.472 20.48C271.472 20.32 271.392 19.2 272.192 19.04L281.072 16.96C281.552 16.88 282.192 16.72 282.832 16.72V47.68C282.832 53.44 286.512 57.44 291.712 57.44C296.272 57.44 300.992 54.56 303.632 49.44V24.64ZM359.723 50.08C355.883 55.6 349.723 59.28 342.283 59.28C330.523 59.28 321.003 49.76 321.003 37.92C321.003 26.24 330.523 16.72 342.283 16.72C352.523 16.72 358.683 24 360.443 33.68L328.763 40.96C331.243 49.84 338.123 56.32 345.803 56.32C351.083 56.32 355.723 53.44 358.523 49.28L359.723 50.08ZM327.883 34C327.883 35.92 328.123 37.76 328.443 39.6L352.763 34C350.923 25.52 346.043 18.96 338.843 18.96C331.563 18.96 327.883 24 327.883 34Z" fill="white"/>
</svg>
